<?xml version="1.0" encoding="utf-8" standalone="no"?>
<!DOCTYPE svg PUBLIC "-//W3C//DTD SVG 1.1//EN"
  "http://www.w3.org/Graphics/SVG/1.1/DTD/svg11.dtd">
<svg xmlns:xlink="http://www.w3.org/1999/xlink" width="864pt" height="432pt" viewBox="0 0 864 432" xmlns="http://www.w3.org/2000/svg" version="1.1">
 <metadata>
  <rdf:RDF xmlns:dc="http://purl.org/dc/elements/1.1/" xmlns:cc="http://creativecommons.org/ns#" xmlns:rdf="http://www.w3.org/1999/02/22-rdf-syntax-ns#">
   <cc:Work>
    <dc:type rdf:resource="http://purl.org/dc/dcmitype/StillImage"/>
    <dc:date>2023-05-02T16:41:16.224939</dc:date>
    <dc:format>image/svg+xml</dc:format>
    <dc:creator>
     <cc:Agent>
      <dc:title>Matplotlib v3.5.1, https://matplotlib.org/</dc:title>
     </cc:Agent>
    </dc:creator>
   </cc:Work>
  </rdf:RDF>
 </metadata>
 <defs>
  <style type="text/css">*{stroke-linejoin: round; stroke-linecap: butt}</style>
 </defs>
 <g id="figure_1">
  <g id="patch_1">
   <path d="M 0 432 
L 864 432 
L 864 0 
L 0 0 
L 0 432 
z
" style="fill: none"/>
  </g>
  <g id="axes_1">
   <g id="patch_2">
    <path d="M 108 378 
L 777.6 378 
L 777.6 51.84 
L 108 51.84 
z
" style="fill: #ffffff"/>
   </g>
   <g id="PolyCollection_1">
    <defs>
     <path id="m85bcdf821f" d="M 138.436364 -252.992592 
L 138.436364 -201.425793 
L 141.48 -175.737733 
L 144.523636 -193.649848 
L 147.567273 -155.714565 
L 150.610909 -234.384326 
L 153.654545 -147.466332 
L 156.698182 -232.191345 
L 159.741818 -205.537885 
L 162.785455 -233.951583 
L 165.829091 -190.766423 
L 168.872727 -225.961609 
L 171.916364 -184.203253 
L 174.96 -222.192226 
L 178.003636 -204.280634 
L 181.047273 -221.357069 
L 184.090909 -200.447731 
L 187.134545 -213.464035 
L 190.178182 -188.896627 
L 193.221818 -227.239138 
L 196.265455 -204.31599 
L 199.309091 -205.313766 
L 202.352727 -176.927727 
L 205.396364 -202.237869 
L 208.44 -195.791326 
L 211.483636 -192.090761 
L 214.527273 -177.778926 
L 217.570909 -237.776503 
L 220.614545 -187.999052 
L 223.658182 -233.005461 
L 226.701818 -193.602259 
L 229.745455 -241.071151 
L 232.789091 -208.792479 
L 235.832727 -217.451565 
L 238.876364 -181.356653 
L 241.92 -234.93699 
L 244.963636 -169.774587 
L 248.007273 -229.26948 
L 251.050909 -183.479883 
L 254.094545 -211.149818 
L 257.138182 -202.475499 
L 260.181818 -228.627327 
L 263.225455 -180.884824 
L 266.269091 -231.742537 
L 269.312727 -171.108306 
L 272.356364 -215.409374 
L 275.4 -194.331948 
L 278.443636 -225.463442 
L 281.487273 -178.874347 
L 284.530909 -232.529577 
L 287.574545 -204.372468 
L 290.618182 -235.481618 
L 293.661818 -210.02026 
L 296.705455 -201.462999 
L 299.749091 -211.168185 
L 302.792727 -199.854234 
L 305.836364 -205.390922 
L 308.88 -211.227053 
L 311.923636 -216.159164 
L 314.967273 -232.314176 
L 318.010909 -198.254026 
L 321.054545 -251.404944 
L 324.098182 -189.541624 
L 327.141818 -213.464035 
L 330.185455 -217.199657 
L 333.229091 -231.929798 
L 336.272727 -189.188239 
L 339.316364 -214.29889 
L 342.36 -195.097232 
L 345.403636 -212.226429 
L 348.447273 -169.02822 
L 351.490909 -226.795239 
L 354.534545 -233.724497 
L 357.578182 -229.534989 
L 360.621818 -202.805927 
L 363.665455 -227.134782 
L 366.709091 -199.341661 
L 369.752727 -232.041468 
L 372.796364 -205.741629 
L 375.84 -252.378701 
L 378.883636 -237.416267 
L 381.927273 -222.611886 
L 384.970909 -203.986294 
L 388.014545 -217.802651 
L 391.058182 -220.186286 
L 394.101818 -207.943866 
L 397.145455 -185.464641 
L 400.189091 -241.277125 
L 403.232727 -205.675804 
L 406.276364 -265.642456 
L 409.32 -193.076883 
L 412.363636 -196.81499 
L 415.407273 -215.57911 
L 418.450909 -242.930327 
L 421.494545 -210.02026 
L 424.538182 -219.87106 
L 427.581818 -206.73666 
L 430.625455 -216.743822 
L 433.669091 -196.423723 
L 436.712727 -221.593604 
L 439.756364 -253.778477 
L 442.8 -225.961609 
L 445.843636 -246.708674 
L 448.887273 -251.292587 
L 451.930909 -242.603676 
L 454.974545 -230.51628 
L 458.018182 -233.552727 
L 461.061818 -219.433247 
L 464.105455 -207.705591 
L 467.149091 -214.649598 
L 470.192727 -211.315625 
L 473.236364 -231.663259 
L 476.28 -220.129808 
L 479.323636 -221.226197 
L 482.367273 -204.547593 
L 485.410909 -220.522353 
L 488.454545 -232.860596 
L 491.498182 -240.19009 
L 494.541818 -194.078911 
L 497.585455 -250.025455 
L 500.629091 -218.614726 
L 503.672727 -242.965714 
L 506.716364 -203.030418 
L 509.76 -215.249697 
L 512.803636 -253.195531 
L 515.847273 -228.067716 
L 518.890909 -211.098083 
L 521.934545 -211.13203 
L 524.978182 -213.30386 
L 528.021818 -234.12669 
L 531.065455 -222.249731 
L 534.109091 -257.844307 
L 537.152727 -204.185764 
L 540.196364 -228.289359 
L 543.24 -208.958645 
L 546.283636 -207.742924 
L 549.327273 -217.681993 
L 552.370909 -215.854756 
L 555.414545 -239.121479 
L 558.458182 -220.351587 
L 561.501818 -203.881355 
L 564.545455 -235.302577 
L 567.589091 -232.529577 
L 570.632727 -239.232978 
L 573.676364 -212.297595 
L 576.72 -229.10549 
L 579.763636 -244.101764 
L 582.807273 -225.944486 
L 585.850909 -247.395355 
L 588.894545 -226.187604 
L 591.938182 -229.892121 
L 594.981818 -225.920023 
L 598.025455 -232.314176 
L 601.069091 -211.149818 
L 604.112727 -225.423329 
L 607.156364 -223.038221 
L 610.2 -208.853361 
L 613.243636 -206.882597 
L 616.287273 -224.417683 
L 619.330909 -243.170344 
L 622.374545 -208.795016 
L 625.418182 -204.977588 
L 628.461818 -243.950794 
L 631.505455 -224.995466 
L 634.549091 -215.854756 
L 637.592727 -245.036571 
L 640.636364 -227.359973 
L 643.68 -231.261956 
L 646.723636 -212.261447 
L 649.767273 -235.362917 
L 652.810909 -202.358526 
L 655.854545 -201.331349 
L 658.898182 -253.096641 
L 661.941818 -248.734964 
L 664.985455 -245.625906 
L 668.029091 -191.371889 
L 671.072727 -213.464035 
L 674.116364 -241.631037 
L 677.16 -235.362917 
L 680.203636 -215.668052 
L 683.247273 -205.233995 
L 686.290909 -214.432597 
L 689.334545 -242.109988 
L 692.378182 -220.881399 
L 695.421818 -217.199657 
L 698.465455 -218.055736 
L 701.509091 -203.660133 
L 704.552727 -242.261593 
L 707.596364 -214.432597 
L 710.64 -210.02026 
L 713.683636 -230.190946 
L 716.727273 -240.518338 
L 719.770909 -229.274097 
L 722.814545 -231.644689 
L 725.858182 -248.899989 
L 728.901818 -251.0123 
L 731.945455 -221.786494 
L 734.989091 -248.932214 
L 738.032727 -236.242152 
L 741.076364 -194.642608 
L 744.12 -211.322542 
L 744.12 -263.48237 
L 744.12 -263.48237 
L 741.076364 -250.561342 
L 738.032727 -280.617662 
L 734.989091 -293.403019 
L 731.945455 -271.204675 
L 728.901818 -294.338609 
L 725.858182 -289.826019 
L 722.814545 -279.98165 
L 719.770909 -276.392515 
L 716.727273 -285.700675 
L 713.683636 -280.680696 
L 710.64 -256.382733 
L 707.596364 -260.762143 
L 704.552727 -286.732398 
L 701.509091 -254.541144 
L 698.465455 -266.268597 
L 695.421818 -267.455435 
L 692.378182 -266.498182 
L 689.334545 -284.949776 
L 686.290909 -262.968312 
L 683.247273 -257.882906 
L 680.203636 -265.368623 
L 677.16 -281.221059 
L 674.116364 -285.886125 
L 671.072727 -259.381045 
L 668.029091 -244.652948 
L 664.985455 -294.737143 
L 661.941818 -292.00434 
L 658.898182 -300.959287 
L 655.854545 -249.12036 
L 652.810909 -250.517995 
L 649.767273 -283.634645 
L 646.723636 -259.326382 
L 643.68 -281.242418 
L 640.636364 -276.90201 
L 637.592727 -287.959792 
L 634.549091 -264.864523 
L 631.505455 -269.921086 
L 628.461818 -287.732129 
L 625.418182 -255.467338 
L 622.374545 -257.863128 
L 619.330909 -289.826019 
L 616.287273 -271.167616 
L 613.243636 -257.085195 
L 610.2 -257.863128 
L 607.156364 -267.14908 
L 604.112727 -274.199717 
L 601.069091 -260.85039 
L 598.025455 -276.90201 
L 594.981818 -275.092648 
L 591.938182 -275.963463 
L 588.894545 -273.611813 
L 585.850909 -290.999633 
L 582.807273 -272.655549 
L 579.763636 -287.920842 
L 576.72 -274.634832 
L 573.676364 -262.398978 
L 570.632727 -285.547309 
L 567.589091 -277.54821 
L 564.545455 -281.221059 
L 561.501818 -255.448154 
L 558.458182 -268.564447 
L 555.414545 -284.390043 
L 552.370909 -264.864523 
L 549.327273 -265.841462 
L 546.283636 -255.623904 
L 543.24 -257.792938 
L 540.196364 -271.456167 
L 537.152727 -255.529329 
L 534.109091 -301.113682 
L 531.065455 -266.776124 
L 528.021818 -282.33955 
L 524.978182 -261.463328 
L 521.934545 -257.826375 
L 518.890909 -260.677938 
L 515.847273 -272.655549 
L 512.803636 -297.537701 
L 509.76 -261.268745 
L 506.716364 -258.949153 
L 503.672727 -290.030649 
L 500.629091 -267.725963 
L 497.585455 -297.09039 
L 494.541818 -244.180293 
L 491.498182 -286.048232 
L 488.454545 -276.464874 
L 485.410909 -267.198321 
L 482.367273 -250.572721 
L 479.323636 -270.532319 
L 476.28 -267.62774 
L 473.236364 -279.071734 
L 470.192727 -260.539502 
L 467.149091 -265.572314 
L 464.105455 -256.313638 
L 461.061818 -268.851429 
L 458.018182 -280.617662 
L 454.974545 -276.062991 
L 451.930909 -291.478801 
L 448.887273 -294.737143 
L 445.843636 -291.179478 
L 442.8 -271.565253 
L 439.756364 -295.224021 
L 436.712727 -270.201652 
L 433.669091 -242.442771 
L 430.625455 -268.291132 
L 427.581818 -254.896128 
L 424.538182 -265.841462 
L 421.494545 -258.555974 
L 418.450909 -287.51816 
L 415.407273 -262.273455 
L 412.363636 -245.572909 
L 409.32 -242.777455 
L 406.276364 -306.289445 
L 403.232727 -255.637043 
L 400.189091 -284.390043 
L 397.145455 -232.529577 
L 394.101818 -257.777326 
L 391.058182 -267.62774 
L 388.014545 -266.720536 
L 384.970909 -254.671608 
L 381.927273 -264.812274 
L 378.883636 -281.671355 
L 375.84 -294.737143 
L 372.796364 -259.937615 
L 369.752727 -283.856075 
L 366.709091 -249.175122 
L 363.665455 -274.199717 
L 360.621818 -250.214401 
L 357.578182 -277.747849 
L 354.534545 -277.010496 
L 351.490909 -276.083884 
L 348.447273 -216.852266 
L 345.403636 -258.555974 
L 342.36 -245.605942 
L 339.316364 -263.50314 
L 336.272727 -237.796287 
L 333.229091 -280.617662 
L 330.185455 -267.455435 
L 327.141818 -263.972746 
L 324.098182 -236.965833 
L 321.054545 -297.658415 
L 318.010909 -247.672208 
L 314.967273 -279.02524 
L 311.923636 -265.270401 
L 308.88 -261.912368 
L 305.836364 -253.99897 
L 302.792727 -249.554805 
L 299.749091 -259.381045 
L 296.705455 -250.667249 
L 293.661818 -259.438442 
L 290.618182 -281.774997 
L 287.574545 -251.813922 
L 284.530909 -277.54821 
L 281.487273 -226.631413 
L 278.443636 -269.586818 
L 275.4 -242.603676 
L 272.356364 -262.833584 
L 269.312727 -217.802651 
L 266.269091 -277.359321 
L 263.225455 -230.190946 
L 260.181818 -274.597729 
L 257.138182 -254.211 
L 254.094545 -258.591273 
L 251.050909 -232.314176 
L 248.007273 -276.046607 
L 244.963636 -217.234593 
L 241.92 -282.397429 
L 238.876364 -228.067716 
L 235.832727 -264.162629 
L 232.789091 -257.903715 
L 229.745455 -288.993625 
L 226.701818 -243.950794 
L 223.658182 -278.975862 
L 220.614545 -237.222929 
L 217.570909 -288.461818 
L 214.527273 -224.473271 
L 211.483636 -239.155696 
L 208.44 -243.950794 
L 205.396364 -248.932214 
L 202.352727 -227.66961 
L 199.309091 -257.085195 
L 196.265455 -254.073039 
L 193.221818 -273.156148 
L 190.178182 -237.814513 
L 187.134545 -263.972746 
L 184.090909 -250.703509 
L 181.047273 -266.755837 
L 178.003636 -252.493494 
L 174.96 -270.88009 
L 171.916364 -229.602021 
L 168.872727 -273.785656 
L 165.829091 -239.970673 
L 162.785455 -281.814228 
L 159.741818 -252.60282 
L 156.698182 -281.201112 
L 153.654545 -193.875444 
L 150.610909 -276.90201 
L 147.567273 -206.39988 
L 144.523636 -238.668481 
L 141.48 -224.995466 
L 138.436364 -252.992592 
z
" style="stroke: #1f77b4; stroke-opacity: 0.2; stroke-width: 1.5"/>
    </defs>
    <g clip-path="url(#pe0ab6a4c8d)">
     <use xlink:href="#m85bcdf821f" x="0" y="432" style="fill: #1f77b4; fill-opacity: 0.2; stroke: #1f77b4; stroke-opacity: 0.2; stroke-width: 1.5"/>
    </g>
   </g>
   <g id="PolyCollection_2">
    <defs>
     <path id="mebb4203cb9" d="M 138.436364 -365.334545 
L 138.436364 -68.825455 
L 141.48 -68.825455 
L 144.523636 -68.825455 
L 147.567273 -68.825455 
L 150.610909 -68.825455 
L 153.654545 -68.825455 
L 156.698182 -68.825455 
L 159.741818 -68.825455 
L 162.785455 -68.825455 
L 165.829091 -68.825455 
L 168.872727 -68.825455 
L 171.916364 -68.825455 
L 174.96 -68.825455 
L 178.003636 -68.825455 
L 181.047273 -68.825455 
L 184.090909 -68.825455 
L 187.134545 -68.825455 
L 190.178182 -68.825455 
L 193.221818 -68.825455 
L 196.265455 -68.825455 
L 199.309091 -68.825455 
L 202.352727 -68.825455 
L 205.396364 -68.825455 
L 208.44 -68.825455 
L 211.483636 -68.825455 
L 214.527273 -68.825455 
L 217.570909 -68.825455 
L 220.614545 -68.825455 
L 223.658182 -68.825455 
L 226.701818 -68.825455 
L 229.745455 -68.825455 
L 232.789091 -68.825455 
L 235.832727 -68.825455 
L 238.876364 -68.825455 
L 241.92 -68.825455 
L 244.963636 -68.825455 
L 248.007273 -68.825455 
L 251.050909 -68.825455 
L 254.094545 -68.825455 
L 257.138182 -68.825455 
L 260.181818 -68.825455 
L 260.181818 -365.334545 
L 260.181818 -365.334545 
L 257.138182 -365.334545 
L 254.094545 -365.334545 
L 251.050909 -365.334545 
L 248.007273 -365.334545 
L 244.963636 -365.334545 
L 241.92 -365.334545 
L 238.876364 -365.334545 
L 235.832727 -365.334545 
L 232.789091 -365.334545 
L 229.745455 -365.334545 
L 226.701818 -365.334545 
L 223.658182 -365.334545 
L 220.614545 -365.334545 
L 217.570909 -365.334545 
L 214.527273 -365.334545 
L 211.483636 -365.334545 
L 208.44 -365.334545 
L 205.396364 -365.334545 
L 202.352727 -365.334545 
L 199.309091 -365.334545 
L 196.265455 -365.334545 
L 193.221818 -365.334545 
L 190.178182 -365.334545 
L 187.134545 -365.334545 
L 184.090909 -365.334545 
L 181.047273 -365.334545 
L 178.003636 -365.334545 
L 174.96 -365.334545 
L 171.916364 -365.334545 
L 168.872727 -365.334545 
L 165.829091 -365.334545 
L 162.785455 -365.334545 
L 159.741818 -365.334545 
L 156.698182 -365.334545 
L 153.654545 -365.334545 
L 150.610909 -365.334545 
L 147.567273 -365.334545 
L 144.523636 -365.334545 
L 141.48 -365.334545 
L 138.436364 -365.334545 
z
" style="stroke: #800080; stroke-opacity: 0.2; stroke-width: 1.5"/>
    </defs>
    <g clip-path="url(#pe0ab6a4c8d)">
     <use xlink:href="#mebb4203cb9" x="0" y="432" style="fill: #800080; fill-opacity: 0.2; stroke: #800080; stroke-opacity: 0.2; stroke-width: 1.5"/>
    </g>
   </g>
   <g id="PolyCollection_3">
    <defs>
     <path id="m90b27252b6" d="M 260.181818 -365.334545 
L 260.181818 -68.825455 
L 263.225455 -68.825455 
L 266.269091 -68.825455 
L 269.312727 -68.825455 
L 272.356364 -68.825455 
L 275.4 -68.825455 
L 278.443636 -68.825455 
L 281.487273 -68.825455 
L 284.530909 -68.825455 
L 287.574545 -68.825455 
L 290.618182 -68.825455 
L 293.661818 -68.825455 
L 296.705455 -68.825455 
L 299.749091 -68.825455 
L 302.792727 -68.825455 
L 305.836364 -68.825455 
L 308.88 -68.825455 
L 311.923636 -68.825455 
L 314.967273 -68.825455 
L 318.010909 -68.825455 
L 321.054545 -68.825455 
L 324.098182 -68.825455 
L 327.141818 -68.825455 
L 330.185455 -68.825455 
L 333.229091 -68.825455 
L 336.272727 -68.825455 
L 339.316364 -68.825455 
L 342.36 -68.825455 
L 345.403636 -68.825455 
L 348.447273 -68.825455 
L 351.490909 -68.825455 
L 354.534545 -68.825455 
L 357.578182 -68.825455 
L 360.621818 -68.825455 
L 363.665455 -68.825455 
L 366.709091 -68.825455 
L 369.752727 -68.825455 
L 372.796364 -68.825455 
L 375.84 -68.825455 
L 378.883636 -68.825455 
L 381.927273 -68.825455 
L 381.927273 -365.334545 
L 381.927273 -365.334545 
L 378.883636 -365.334545 
L 375.84 -365.334545 
L 372.796364 -365.334545 
L 369.752727 -365.334545 
L 366.709091 -365.334545 
L 363.665455 -365.334545 
L 360.621818 -365.334545 
L 357.578182 -365.334545 
L 354.534545 -365.334545 
L 351.490909 -365.334545 
L 348.447273 -365.334545 
L 345.403636 -365.334545 
L 342.36 -365.334545 
L 339.316364 -365.334545 
L 336.272727 -365.334545 
L 333.229091 -365.334545 
L 330.185455 -365.334545 
L 327.141818 -365.334545 
L 324.098182 -365.334545 
L 321.054545 -365.334545 
L 318.010909 -365.334545 
L 314.967273 -365.334545 
L 311.923636 -365.334545 
L 308.88 -365.334545 
L 305.836364 -365.334545 
L 302.792727 -365.334545 
L 299.749091 -365.334545 
L 296.705455 -365.334545 
L 293.661818 -365.334545 
L 290.618182 -365.334545 
L 287.574545 -365.334545 
L 284.530909 -365.334545 
L 281.487273 -365.334545 
L 278.443636 -365.334545 
L 275.4 -365.334545 
L 272.356364 -365.334545 
L 269.312727 -365.334545 
L 266.269091 -365.334545 
L 263.225455 -365.334545 
L 260.181818 -365.334545 
z
" style="stroke: #800080; stroke-opacity: 0.2; stroke-width: 1.5"/>
    </defs>
    <g clip-path="url(#pe0ab6a4c8d)">
     <use xlink:href="#m90b27252b6" x="0" y="432" style="fill: #800080; fill-opacity: 0.2; stroke: #800080; stroke-opacity: 0.2; stroke-width: 1.5"/>
    </g>
   </g>
   <g id="PolyCollection_4">
    <defs>
     <path id="mdf01fb7e4d" d="M 381.927273 -365.334545 
L 381.927273 -68.825455 
L 384.970909 -68.825455 
L 388.014545 -68.825455 
L 391.058182 -68.825455 
L 394.101818 -68.825455 
L 397.145455 -68.825455 
L 400.189091 -68.825455 
L 403.232727 -68.825455 
L 406.276364 -68.825455 
L 409.32 -68.825455 
L 412.363636 -68.825455 
L 415.407273 -68.825455 
L 418.450909 -68.825455 
L 421.494545 -68.825455 
L 424.538182 -68.825455 
L 427.581818 -68.825455 
L 430.625455 -68.825455 
L 433.669091 -68.825455 
L 436.712727 -68.825455 
L 439.756364 -68.825455 
L 442.8 -68.825455 
L 445.843636 -68.825455 
L 448.887273 -68.825455 
L 451.930909 -68.825455 
L 454.974545 -68.825455 
L 458.018182 -68.825455 
L 461.061818 -68.825455 
L 464.105455 -68.825455 
L 467.149091 -68.825455 
L 470.192727 -68.825455 
L 473.236364 -68.825455 
L 476.28 -68.825455 
L 479.323636 -68.825455 
L 482.367273 -68.825455 
L 485.410909 -68.825455 
L 488.454545 -68.825455 
L 491.498182 -68.825455 
L 494.541818 -68.825455 
L 497.585455 -68.825455 
L 500.629091 -68.825455 
L 503.672727 -68.825455 
L 503.672727 -365.334545 
L 503.672727 -365.334545 
L 500.629091 -365.334545 
L 497.585455 -365.334545 
L 494.541818 -365.334545 
L 491.498182 -365.334545 
L 488.454545 -365.334545 
L 485.410909 -365.334545 
L 482.367273 -365.334545 
L 479.323636 -365.334545 
L 476.28 -365.334545 
L 473.236364 -365.334545 
L 470.192727 -365.334545 
L 467.149091 -365.334545 
L 464.105455 -365.334545 
L 461.061818 -365.334545 
L 458.018182 -365.334545 
L 454.974545 -365.334545 
L 451.930909 -365.334545 
L 448.887273 -365.334545 
L 445.843636 -365.334545 
L 442.8 -365.334545 
L 439.756364 -365.334545 
L 436.712727 -365.334545 
L 433.669091 -365.334545 
L 430.625455 -365.334545 
L 427.581818 -365.334545 
L 424.538182 -365.334545 
L 421.494545 -365.334545 
L 418.450909 -365.334545 
L 415.407273 -365.334545 
L 412.363636 -365.334545 
L 409.32 -365.334545 
L 406.276364 -365.334545 
L 403.232727 -365.334545 
L 400.189091 -365.334545 
L 397.145455 -365.334545 
L 394.101818 -365.334545 
L 391.058182 -365.334545 
L 388.014545 -365.334545 
L 384.970909 -365.334545 
L 381.927273 -365.334545 
z
" style="stroke: #800080; stroke-opacity: 0.2; stroke-width: 1.5"/>
    </defs>
    <g clip-path="url(#pe0ab6a4c8d)">
     <use xlink:href="#mdf01fb7e4d" x="0" y="432" style="fill: #800080; fill-opacity: 0.2; stroke: #800080; stroke-opacity: 0.2; stroke-width: 1.5"/>
    </g>
   </g>
   <g id="PolyCollection_5">
    <defs>
     <path id="mbdf6ad55f5" d="M 503.672727 -365.334545 
L 503.672727 -68.825455 
L 506.716364 -68.825455 
L 509.76 -68.825455 
L 512.803636 -68.825455 
L 515.847273 -68.825455 
L 518.890909 -68.825455 
L 521.934545 -68.825455 
L 524.978182 -68.825455 
L 528.021818 -68.825455 
L 531.065455 -68.825455 
L 534.109091 -68.825455 
L 537.152727 -68.825455 
L 540.196364 -68.825455 
L 543.24 -68.825455 
L 546.283636 -68.825455 
L 549.327273 -68.825455 
L 552.370909 -68.825455 
L 555.414545 -68.825455 
L 558.458182 -68.825455 
L 561.501818 -68.825455 
L 564.545455 -68.825455 
L 567.589091 -68.825455 
L 570.632727 -68.825455 
L 573.676364 -68.825455 
L 576.72 -68.825455 
L 579.763636 -68.825455 
L 582.807273 -68.825455 
L 585.850909 -68.825455 
L 588.894545 -68.825455 
L 591.938182 -68.825455 
L 594.981818 -68.825455 
L 598.025455 -68.825455 
L 601.069091 -68.825455 
L 604.112727 -68.825455 
L 607.156364 -68.825455 
L 610.2 -68.825455 
L 613.243636 -68.825455 
L 616.287273 -68.825455 
L 619.330909 -68.825455 
L 622.374545 -68.825455 
L 625.418182 -68.825455 
L 625.418182 -365.334545 
L 625.418182 -365.334545 
L 622.374545 -365.334545 
L 619.330909 -365.334545 
L 616.287273 -365.334545 
L 613.243636 -365.334545 
L 610.2 -365.334545 
L 607.156364 -365.334545 
L 604.112727 -365.334545 
L 601.069091 -365.334545 
L 598.025455 -365.334545 
L 594.981818 -365.334545 
L 591.938182 -365.334545 
L 588.894545 -365.334545 
L 585.850909 -365.334545 
L 582.807273 -365.334545 
L 579.763636 -365.334545 
L 576.72 -365.334545 
L 573.676364 -365.334545 
L 570.632727 -365.334545 
L 567.589091 -365.334545 
L 564.545455 -365.334545 
L 561.501818 -365.334545 
L 558.458182 -365.334545 
L 555.414545 -365.334545 
L 552.370909 -365.334545 
L 549.327273 -365.334545 
L 546.283636 -365.334545 
L 543.24 -365.334545 
L 540.196364 -365.334545 
L 537.152727 -365.334545 
L 534.109091 -365.334545 
L 531.065455 -365.334545 
L 528.021818 -365.334545 
L 524.978182 -365.334545 
L 521.934545 -365.334545 
L 518.890909 -365.334545 
L 515.847273 -365.334545 
L 512.803636 -365.334545 
L 509.76 -365.334545 
L 506.716364 -365.334545 
L 503.672727 -365.334545 
z
" style="stroke: #800080; stroke-opacity: 0.2; stroke-width: 1.5"/>
    </defs>
    <g clip-path="url(#pe0ab6a4c8d)">
     <use xlink:href="#mbdf6ad55f5" x="0" y="432" style="fill: #800080; fill-opacity: 0.2; stroke: #800080; stroke-opacity: 0.2; stroke-width: 1.5"/>
    </g>
   </g>
   <g id="PolyCollection_6">
    <defs>
     <path id="me01a734e5d" d="M 625.418182 -365.334545 
L 625.418182 -68.825455 
L 628.461818 -68.825455 
L 631.505455 -68.825455 
L 634.549091 -68.825455 
L 637.592727 -68.825455 
L 640.636364 -68.825455 
L 643.68 -68.825455 
L 646.723636 -68.825455 
L 649.767273 -68.825455 
L 652.810909 -68.825455 
L 655.854545 -68.825455 
L 658.898182 -68.825455 
L 661.941818 -68.825455 
L 664.985455 -68.825455 
L 668.029091 -68.825455 
L 671.072727 -68.825455 
L 674.116364 -68.825455 
L 677.16 -68.825455 
L 680.203636 -68.825455 
L 683.247273 -68.825455 
L 686.290909 -68.825455 
L 689.334545 -68.825455 
L 692.378182 -68.825455 
L 695.421818 -68.825455 
L 698.465455 -68.825455 
L 701.509091 -68.825455 
L 704.552727 -68.825455 
L 707.596364 -68.825455 
L 710.64 -68.825455 
L 713.683636 -68.825455 
L 716.727273 -68.825455 
L 719.770909 -68.825455 
L 722.814545 -68.825455 
L 725.858182 -68.825455 
L 728.901818 -68.825455 
L 731.945455 -68.825455 
L 734.989091 -68.825455 
L 738.032727 -68.825455 
L 741.076364 -68.825455 
L 744.12 -68.825455 
L 747.163636 -68.825455 
L 747.163636 -365.334545 
L 747.163636 -365.334545 
L 744.12 -365.334545 
L 741.076364 -365.334545 
L 738.032727 -365.334545 
L 734.989091 -365.334545 
L 731.945455 -365.334545 
L 728.901818 -365.334545 
L 725.858182 -365.334545 
L 722.814545 -365.334545 
L 719.770909 -365.334545 
L 716.727273 -365.334545 
L 713.683636 -365.334545 
L 710.64 -365.334545 
L 707.596364 -365.334545 
L 704.552727 -365.334545 
L 701.509091 -365.334545 
L 698.465455 -365.334545 
L 695.421818 -365.334545 
L 692.378182 -365.334545 
L 689.334545 -365.334545 
L 686.290909 -365.334545 
L 683.247273 -365.334545 
L 680.203636 -365.334545 
L 677.16 -365.334545 
L 674.116364 -365.334545 
L 671.072727 -365.334545 
L 668.029091 -365.334545 
L 664.985455 -365.334545 
L 661.941818 -365.334545 
L 658.898182 -365.334545 
L 655.854545 -365.334545 
L 652.810909 -365.334545 
L 649.767273 -365.334545 
L 646.723636 -365.334545 
L 643.68 -365.334545 
L 640.636364 -365.334545 
L 637.592727 -365.334545 
L 634.549091 -365.334545 
L 631.505455 -365.334545 
L 628.461818 -365.334545 
L 625.418182 -365.334545 
z
" style="stroke: #ff0000; stroke-opacity: 0.2; stroke-width: 1.5"/>
    </defs>
    <g clip-path="url(#pe0ab6a4c8d)">
     <use xlink:href="#me01a734e5d" x="0" y="432" style="fill: #ff0000; fill-opacity: 0.2; stroke: #ff0000; stroke-opacity: 0.2; stroke-width: 1.5"/>
    </g>
   </g>
   <g id="matplotlib.axis_1">
    <g id="xtick_1">
     <g id="line2d_1">
      <defs>
       <path id="m263610ecdb" d="M 0 0 
L 0 9 
" style="stroke: #000000; stroke-width: 1.875"/>
      </defs>
      <g>
       <use xlink:href="#m263610ecdb" x="138.436364" y="378" style="stroke: #000000; stroke-width: 1.875"/>
      </g>
     </g>
     <g id="text_1">
      <!-- 0 -->
      <g transform="translate(133.187301 403.037422)scale(0.165 -0.165)">
       <defs>
        <path id="DejaVuSans-30" d="M 2034 4250 
Q 1547 4250 1301 3770 
Q 1056 3291 1056 2328 
Q 1056 1369 1301 889 
Q 1547 409 2034 409 
Q 2525 409 2770 889 
Q 3016 1369 3016 2328 
Q 3016 3291 2770 3770 
Q 2525 4250 2034 4250 
z
M 2034 4750 
Q 2819 4750 3233 4129 
Q 3647 3509 3647 2328 
Q 3647 1150 3233 529 
Q 2819 -91 2034 -91 
Q 1250 -91 836 529 
Q 422 1150 422 2328 
Q 422 3509 836 4129 
Q 1250 4750 2034 4750 
z
" transform="scale(0.015625)"/>
       </defs>
       <use xlink:href="#DejaVuSans-30"/>
      </g>
     </g>
    </g>
    <g id="xtick_2">
     <g id="line2d_2">
      <g>
       <use xlink:href="#m263610ecdb" x="214.527273" y="378" style="stroke: #000000; stroke-width: 1.875"/>
      </g>
     </g>
     <g id="text_2">
      <!-- 25 -->
      <g transform="translate(204.029148 403.037422)scale(0.165 -0.165)">
       <defs>
        <path id="DejaVuSans-32" d="M 1228 531 
L 3431 531 
L 3431 0 
L 469 0 
L 469 531 
Q 828 903 1448 1529 
Q 2069 2156 2228 2338 
Q 2531 2678 2651 2914 
Q 2772 3150 2772 3378 
Q 2772 3750 2511 3984 
Q 2250 4219 1831 4219 
Q 1534 4219 1204 4116 
Q 875 4013 500 3803 
L 500 4441 
Q 881 4594 1212 4672 
Q 1544 4750 1819 4750 
Q 2544 4750 2975 4387 
Q 3406 4025 3406 3419 
Q 3406 3131 3298 2873 
Q 3191 2616 2906 2266 
Q 2828 2175 2409 1742 
Q 1991 1309 1228 531 
z
" transform="scale(0.015625)"/>
        <path id="DejaVuSans-35" d="M 691 4666 
L 3169 4666 
L 3169 4134 
L 1269 4134 
L 1269 2991 
Q 1406 3038 1543 3061 
Q 1681 3084 1819 3084 
Q 2600 3084 3056 2656 
Q 3513 2228 3513 1497 
Q 3513 744 3044 326 
Q 2575 -91 1722 -91 
Q 1428 -91 1123 -41 
Q 819 9 494 109 
L 494 744 
Q 775 591 1075 516 
Q 1375 441 1709 441 
Q 2250 441 2565 725 
Q 2881 1009 2881 1497 
Q 2881 1984 2565 2268 
Q 2250 2553 1709 2553 
Q 1456 2553 1204 2497 
Q 953 2441 691 2322 
L 691 4666 
z
" transform="scale(0.015625)"/>
       </defs>
       <use xlink:href="#DejaVuSans-32"/>
       <use xlink:href="#DejaVuSans-35" x="63.623047"/>
      </g>
     </g>
    </g>
    <g id="xtick_3">
     <g id="line2d_3">
      <g>
       <use xlink:href="#m263610ecdb" x="290.618182" y="378" style="stroke: #000000; stroke-width: 1.875"/>
      </g>
     </g>
     <g id="text_3">
      <!-- 50 -->
      <g transform="translate(280.120057 403.037422)scale(0.165 -0.165)">
       <use xlink:href="#DejaVuSans-35"/>
       <use xlink:href="#DejaVuSans-30" x="63.623047"/>
      </g>
     </g>
    </g>
    <g id="xtick_4">
     <g id="line2d_4">
      <g>
       <use xlink:href="#m263610ecdb" x="366.709091" y="378" style="stroke: #000000; stroke-width: 1.875"/>
      </g>
     </g>
     <g id="text_4">
      <!-- 75 -->
      <g transform="translate(356.210966 403.037422)scale(0.165 -0.165)">
       <defs>
        <path id="DejaVuSans-37" d="M 525 4666 
L 3525 4666 
L 3525 4397 
L 1831 0 
L 1172 0 
L 2766 4134 
L 525 4134 
L 525 4666 
z
" transform="scale(0.015625)"/>
       </defs>
       <use xlink:href="#DejaVuSans-37"/>
       <use xlink:href="#DejaVuSans-35" x="63.623047"/>
      </g>
     </g>
    </g>
    <g id="xtick_5">
     <g id="line2d_5">
      <g>
       <use xlink:href="#m263610ecdb" x="442.8" y="378" style="stroke: #000000; stroke-width: 1.875"/>
      </g>
     </g>
     <g id="text_5">
      <!-- 100 -->
      <g transform="translate(427.052813 403.037422)scale(0.165 -0.165)">
       <defs>
        <path id="DejaVuSans-31" d="M 794 531 
L 1825 531 
L 1825 4091 
L 703 3866 
L 703 4441 
L 1819 4666 
L 2450 4666 
L 2450 531 
L 3481 531 
L 3481 0 
L 794 0 
L 794 531 
z
" transform="scale(0.015625)"/>
       </defs>
       <use xlink:href="#DejaVuSans-31"/>
       <use xlink:href="#DejaVuSans-30" x="63.623047"/>
       <use xlink:href="#DejaVuSans-30" x="127.246094"/>
      </g>
     </g>
    </g>
    <g id="xtick_6">
     <g id="line2d_6">
      <g>
       <use xlink:href="#m263610ecdb" x="518.890909" y="378" style="stroke: #000000; stroke-width: 1.875"/>
      </g>
     </g>
     <g id="text_6">
      <!-- 125 -->
      <g transform="translate(503.143722 403.037422)scale(0.165 -0.165)">
       <use xlink:href="#DejaVuSans-31"/>
       <use xlink:href="#DejaVuSans-32" x="63.623047"/>
       <use xlink:href="#DejaVuSans-35" x="127.246094"/>
      </g>
     </g>
    </g>
    <g id="xtick_7">
     <g id="line2d_7">
      <g>
       <use xlink:href="#m263610ecdb" x="594.981818" y="378" style="stroke: #000000; stroke-width: 1.875"/>
      </g>
     </g>
     <g id="text_7">
      <!-- 150 -->
      <g transform="translate(579.234631 403.037422)scale(0.165 -0.165)">
       <use xlink:href="#DejaVuSans-31"/>
       <use xlink:href="#DejaVuSans-35" x="63.623047"/>
       <use xlink:href="#DejaVuSans-30" x="127.246094"/>
      </g>
     </g>
    </g>
    <g id="xtick_8">
     <g id="line2d_8">
      <g>
       <use xlink:href="#m263610ecdb" x="671.072727" y="378" style="stroke: #000000; stroke-width: 1.875"/>
      </g>
     </g>
     <g id="text_8">
      <!-- 175 -->
      <g transform="translate(655.32554 403.037422)scale(0.165 -0.165)">
       <use xlink:href="#DejaVuSans-31"/>
       <use xlink:href="#DejaVuSans-37" x="63.623047"/>
       <use xlink:href="#DejaVuSans-35" x="127.246094"/>
      </g>
     </g>
    </g>
    <g id="xtick_9">
     <g id="line2d_9">
      <g>
       <use xlink:href="#m263610ecdb" x="747.163636" y="378" style="stroke: #000000; stroke-width: 1.875"/>
      </g>
     </g>
     <g id="text_9">
      <!-- 200 -->
      <g transform="translate(731.416449 403.037422)scale(0.165 -0.165)">
       <use xlink:href="#DejaVuSans-32"/>
       <use xlink:href="#DejaVuSans-30" x="63.623047"/>
       <use xlink:href="#DejaVuSans-30" x="127.246094"/>
      </g>
     </g>
    </g>
    <g id="text_10">
     <!-- trial -->
     <g transform="translate(425.055938 424.146094)scale(0.18 -0.18)">
      <defs>
       <path id="DejaVuSans-74" d="M 1172 4494 
L 1172 3500 
L 2356 3500 
L 2356 3053 
L 1172 3053 
L 1172 1153 
Q 1172 725 1289 603 
Q 1406 481 1766 481 
L 2356 481 
L 2356 0 
L 1766 0 
Q 1100 0 847 248 
Q 594 497 594 1153 
L 594 3053 
L 172 3053 
L 172 3500 
L 594 3500 
L 594 4494 
L 1172 4494 
z
" transform="scale(0.015625)"/>
       <path id="DejaVuSans-72" d="M 2631 2963 
Q 2534 3019 2420 3045 
Q 2306 3072 2169 3072 
Q 1681 3072 1420 2755 
Q 1159 2438 1159 1844 
L 1159 0 
L 581 0 
L 581 3500 
L 1159 3500 
L 1159 2956 
Q 1341 3275 1631 3429 
Q 1922 3584 2338 3584 
Q 2397 3584 2469 3576 
Q 2541 3569 2628 3553 
L 2631 2963 
z
" transform="scale(0.015625)"/>
       <path id="DejaVuSans-69" d="M 603 3500 
L 1178 3500 
L 1178 0 
L 603 0 
L 603 3500 
z
M 603 4863 
L 1178 4863 
L 1178 4134 
L 603 4134 
L 603 4863 
z
" transform="scale(0.015625)"/>
       <path id="DejaVuSans-61" d="M 2194 1759 
Q 1497 1759 1228 1600 
Q 959 1441 959 1056 
Q 959 750 1161 570 
Q 1363 391 1709 391 
Q 2188 391 2477 730 
Q 2766 1069 2766 1631 
L 2766 1759 
L 2194 1759 
z
M 3341 1997 
L 3341 0 
L 2766 0 
L 2766 531 
Q 2569 213 2275 61 
Q 1981 -91 1556 -91 
Q 1019 -91 701 211 
Q 384 513 384 1019 
Q 384 1609 779 1909 
Q 1175 2209 1959 2209 
L 2766 2209 
L 2766 2266 
Q 2766 2663 2505 2880 
Q 2244 3097 1772 3097 
Q 1472 3097 1187 3025 
Q 903 2953 641 2809 
L 641 3341 
Q 956 3463 1253 3523 
Q 1550 3584 1831 3584 
Q 2591 3584 2966 3190 
Q 3341 2797 3341 1997 
z
" transform="scale(0.015625)"/>
       <path id="DejaVuSans-6c" d="M 603 4863 
L 1178 4863 
L 1178 0 
L 603 0 
L 603 4863 
z
" transform="scale(0.015625)"/>
      </defs>
      <use xlink:href="#DejaVuSans-74"/>
      <use xlink:href="#DejaVuSans-72" x="39.208984"/>
      <use xlink:href="#DejaVuSans-69" x="80.322266"/>
      <use xlink:href="#DejaVuSans-61" x="108.105469"/>
      <use xlink:href="#DejaVuSans-6c" x="169.384766"/>
     </g>
    </g>
   </g>
   <g id="matplotlib.axis_2">
    <g id="ytick_1">
     <g id="line2d_10">
      <defs>
       <path id="m237854e65d" d="M 0 0 
L -9 0 
" style="stroke: #000000; stroke-width: 1.875"/>
      </defs>
      <g>
       <use xlink:href="#m237854e65d" x="108" y="363.174545" style="stroke: #000000; stroke-width: 1.875"/>
      </g>
     </g>
     <g id="text_11">
      <!-- 0.0 -->
      <g transform="translate(69.259844 369.443256)scale(0.165 -0.165)">
       <defs>
        <path id="DejaVuSans-2e" d="M 684 794 
L 1344 794 
L 1344 0 
L 684 0 
L 684 794 
z
" transform="scale(0.015625)"/>
       </defs>
       <use xlink:href="#DejaVuSans-30"/>
       <use xlink:href="#DejaVuSans-2e" x="63.623047"/>
       <use xlink:href="#DejaVuSans-30" x="95.410156"/>
      </g>
     </g>
    </g>
    <g id="ytick_2">
     <g id="line2d_11">
      <g>
       <use xlink:href="#m237854e65d" x="108" y="306.696623" style="stroke: #000000; stroke-width: 1.875"/>
      </g>
     </g>
     <g id="text_12">
      <!-- 0.2 -->
      <g transform="translate(69.259844 312.965334)scale(0.165 -0.165)">
       <use xlink:href="#DejaVuSans-30"/>
       <use xlink:href="#DejaVuSans-2e" x="63.623047"/>
       <use xlink:href="#DejaVuSans-32" x="95.410156"/>
      </g>
     </g>
    </g>
    <g id="ytick_3">
     <g id="line2d_12">
      <g>
       <use xlink:href="#m237854e65d" x="108" y="250.218701" style="stroke: #000000; stroke-width: 1.875"/>
      </g>
     </g>
     <g id="text_13">
      <!-- 0.4 -->
      <g transform="translate(69.259844 256.487412)scale(0.165 -0.165)">
       <defs>
        <path id="DejaVuSans-34" d="M 2419 4116 
L 825 1625 
L 2419 1625 
L 2419 4116 
z
M 2253 4666 
L 3047 4666 
L 3047 1625 
L 3713 1625 
L 3713 1100 
L 3047 1100 
L 3047 0 
L 2419 0 
L 2419 1100 
L 313 1100 
L 313 1709 
L 2253 4666 
z
" transform="scale(0.015625)"/>
       </defs>
       <use xlink:href="#DejaVuSans-30"/>
       <use xlink:href="#DejaVuSans-2e" x="63.623047"/>
       <use xlink:href="#DejaVuSans-34" x="95.410156"/>
      </g>
     </g>
    </g>
    <g id="ytick_4">
     <g id="line2d_13">
      <g>
       <use xlink:href="#m237854e65d" x="108" y="193.740779" style="stroke: #000000; stroke-width: 1.875"/>
      </g>
     </g>
     <g id="text_14">
      <!-- 0.6 -->
      <g transform="translate(69.259844 200.00949)scale(0.165 -0.165)">
       <defs>
        <path id="DejaVuSans-36" d="M 2113 2584 
Q 1688 2584 1439 2293 
Q 1191 2003 1191 1497 
Q 1191 994 1439 701 
Q 1688 409 2113 409 
Q 2538 409 2786 701 
Q 3034 994 3034 1497 
Q 3034 2003 2786 2293 
Q 2538 2584 2113 2584 
z
M 3366 4563 
L 3366 3988 
Q 3128 4100 2886 4159 
Q 2644 4219 2406 4219 
Q 1781 4219 1451 3797 
Q 1122 3375 1075 2522 
Q 1259 2794 1537 2939 
Q 1816 3084 2150 3084 
Q 2853 3084 3261 2657 
Q 3669 2231 3669 1497 
Q 3669 778 3244 343 
Q 2819 -91 2113 -91 
Q 1303 -91 875 529 
Q 447 1150 447 2328 
Q 447 3434 972 4092 
Q 1497 4750 2381 4750 
Q 2619 4750 2861 4703 
Q 3103 4656 3366 4563 
z
" transform="scale(0.015625)"/>
       </defs>
       <use xlink:href="#DejaVuSans-30"/>
       <use xlink:href="#DejaVuSans-2e" x="63.623047"/>
       <use xlink:href="#DejaVuSans-36" x="95.410156"/>
      </g>
     </g>
    </g>
    <g id="ytick_5">
     <g id="line2d_14">
      <g>
       <use xlink:href="#m237854e65d" x="108" y="137.262857" style="stroke: #000000; stroke-width: 1.875"/>
      </g>
     </g>
     <g id="text_15">
      <!-- 0.8 -->
      <g transform="translate(69.259844 143.531568)scale(0.165 -0.165)">
       <defs>
        <path id="DejaVuSans-38" d="M 2034 2216 
Q 1584 2216 1326 1975 
Q 1069 1734 1069 1313 
Q 1069 891 1326 650 
Q 1584 409 2034 409 
Q 2484 409 2743 651 
Q 3003 894 3003 1313 
Q 3003 1734 2745 1975 
Q 2488 2216 2034 2216 
z
M 1403 2484 
Q 997 2584 770 2862 
Q 544 3141 544 3541 
Q 544 4100 942 4425 
Q 1341 4750 2034 4750 
Q 2731 4750 3128 4425 
Q 3525 4100 3525 3541 
Q 3525 3141 3298 2862 
Q 3072 2584 2669 2484 
Q 3125 2378 3379 2068 
Q 3634 1759 3634 1313 
Q 3634 634 3220 271 
Q 2806 -91 2034 -91 
Q 1263 -91 848 271 
Q 434 634 434 1313 
Q 434 1759 690 2068 
Q 947 2378 1403 2484 
z
M 1172 3481 
Q 1172 3119 1398 2916 
Q 1625 2713 2034 2713 
Q 2441 2713 2670 2916 
Q 2900 3119 2900 3481 
Q 2900 3844 2670 4047 
Q 2441 4250 2034 4250 
Q 1625 4250 1398 4047 
Q 1172 3844 1172 3481 
z
" transform="scale(0.015625)"/>
       </defs>
       <use xlink:href="#DejaVuSans-30"/>
       <use xlink:href="#DejaVuSans-2e" x="63.623047"/>
       <use xlink:href="#DejaVuSans-38" x="95.410156"/>
      </g>
     </g>
    </g>
    <g id="ytick_6">
     <g id="line2d_15">
      <g>
       <use xlink:href="#m237854e65d" x="108" y="80.784935" style="stroke: #000000; stroke-width: 1.875"/>
      </g>
     </g>
     <g id="text_16">
      <!-- 1.0 -->
      <g transform="translate(69.259844 87.053646)scale(0.165 -0.165)">
       <use xlink:href="#DejaVuSans-31"/>
       <use xlink:href="#DejaVuSans-2e" x="63.623047"/>
       <use xlink:href="#DejaVuSans-30" x="95.410156"/>
      </g>
     </g>
    </g>
    <g id="text_17">
     <!-- prediction accuracy -->
     <g transform="translate(61.516406 303.537656)rotate(-90)scale(0.18 -0.18)">
      <defs>
       <path id="DejaVuSans-70" d="M 1159 525 
L 1159 -1331 
L 581 -1331 
L 581 3500 
L 1159 3500 
L 1159 2969 
Q 1341 3281 1617 3432 
Q 1894 3584 2278 3584 
Q 2916 3584 3314 3078 
Q 3713 2572 3713 1747 
Q 3713 922 3314 415 
Q 2916 -91 2278 -91 
Q 1894 -91 1617 61 
Q 1341 213 1159 525 
z
M 3116 1747 
Q 3116 2381 2855 2742 
Q 2594 3103 2138 3103 
Q 1681 3103 1420 2742 
Q 1159 2381 1159 1747 
Q 1159 1113 1420 752 
Q 1681 391 2138 391 
Q 2594 391 2855 752 
Q 3116 1113 3116 1747 
z
" transform="scale(0.015625)"/>
       <path id="DejaVuSans-65" d="M 3597 1894 
L 3597 1613 
L 953 1613 
Q 991 1019 1311 708 
Q 1631 397 2203 397 
Q 2534 397 2845 478 
Q 3156 559 3463 722 
L 3463 178 
Q 3153 47 2828 -22 
Q 2503 -91 2169 -91 
Q 1331 -91 842 396 
Q 353 884 353 1716 
Q 353 2575 817 3079 
Q 1281 3584 2069 3584 
Q 2775 3584 3186 3129 
Q 3597 2675 3597 1894 
z
M 3022 2063 
Q 3016 2534 2758 2815 
Q 2500 3097 2075 3097 
Q 1594 3097 1305 2825 
Q 1016 2553 972 2059 
L 3022 2063 
z
" transform="scale(0.015625)"/>
       <path id="DejaVuSans-64" d="M 2906 2969 
L 2906 4863 
L 3481 4863 
L 3481 0 
L 2906 0 
L 2906 525 
Q 2725 213 2448 61 
Q 2172 -91 1784 -91 
Q 1150 -91 751 415 
Q 353 922 353 1747 
Q 353 2572 751 3078 
Q 1150 3584 1784 3584 
Q 2172 3584 2448 3432 
Q 2725 3281 2906 2969 
z
M 947 1747 
Q 947 1113 1208 752 
Q 1469 391 1925 391 
Q 2381 391 2643 752 
Q 2906 1113 2906 1747 
Q 2906 2381 2643 2742 
Q 2381 3103 1925 3103 
Q 1469 3103 1208 2742 
Q 947 2381 947 1747 
z
" transform="scale(0.015625)"/>
       <path id="DejaVuSans-63" d="M 3122 3366 
L 3122 2828 
Q 2878 2963 2633 3030 
Q 2388 3097 2138 3097 
Q 1578 3097 1268 2742 
Q 959 2388 959 1747 
Q 959 1106 1268 751 
Q 1578 397 2138 397 
Q 2388 397 2633 464 
Q 2878 531 3122 666 
L 3122 134 
Q 2881 22 2623 -34 
Q 2366 -91 2075 -91 
Q 1284 -91 818 406 
Q 353 903 353 1747 
Q 353 2603 823 3093 
Q 1294 3584 2113 3584 
Q 2378 3584 2631 3529 
Q 2884 3475 3122 3366 
z
" transform="scale(0.015625)"/>
       <path id="DejaVuSans-6f" d="M 1959 3097 
Q 1497 3097 1228 2736 
Q 959 2375 959 1747 
Q 959 1119 1226 758 
Q 1494 397 1959 397 
Q 2419 397 2687 759 
Q 2956 1122 2956 1747 
Q 2956 2369 2687 2733 
Q 2419 3097 1959 3097 
z
M 1959 3584 
Q 2709 3584 3137 3096 
Q 3566 2609 3566 1747 
Q 3566 888 3137 398 
Q 2709 -91 1959 -91 
Q 1206 -91 779 398 
Q 353 888 353 1747 
Q 353 2609 779 3096 
Q 1206 3584 1959 3584 
z
" transform="scale(0.015625)"/>
       <path id="DejaVuSans-6e" d="M 3513 2113 
L 3513 0 
L 2938 0 
L 2938 2094 
Q 2938 2591 2744 2837 
Q 2550 3084 2163 3084 
Q 1697 3084 1428 2787 
Q 1159 2491 1159 1978 
L 1159 0 
L 581 0 
L 581 3500 
L 1159 3500 
L 1159 2956 
Q 1366 3272 1645 3428 
Q 1925 3584 2291 3584 
Q 2894 3584 3203 3211 
Q 3513 2838 3513 2113 
z
" transform="scale(0.015625)"/>
       <path id="DejaVuSans-20" transform="scale(0.015625)"/>
       <path id="DejaVuSans-75" d="M 544 1381 
L 544 3500 
L 1119 3500 
L 1119 1403 
Q 1119 906 1312 657 
Q 1506 409 1894 409 
Q 2359 409 2629 706 
Q 2900 1003 2900 1516 
L 2900 3500 
L 3475 3500 
L 3475 0 
L 2900 0 
L 2900 538 
Q 2691 219 2414 64 
Q 2138 -91 1772 -91 
Q 1169 -91 856 284 
Q 544 659 544 1381 
z
M 1991 3584 
L 1991 3584 
z
" transform="scale(0.015625)"/>
       <path id="DejaVuSans-79" d="M 2059 -325 
Q 1816 -950 1584 -1140 
Q 1353 -1331 966 -1331 
L 506 -1331 
L 506 -850 
L 844 -850 
Q 1081 -850 1212 -737 
Q 1344 -625 1503 -206 
L 1606 56 
L 191 3500 
L 800 3500 
L 1894 763 
L 2988 3500 
L 3597 3500 
L 2059 -325 
z
" transform="scale(0.015625)"/>
      </defs>
      <use xlink:href="#DejaVuSans-70"/>
      <use xlink:href="#DejaVuSans-72" x="63.476562"/>
      <use xlink:href="#DejaVuSans-65" x="102.339844"/>
      <use xlink:href="#DejaVuSans-64" x="163.863281"/>
      <use xlink:href="#DejaVuSans-69" x="227.339844"/>
      <use xlink:href="#DejaVuSans-63" x="255.123047"/>
      <use xlink:href="#DejaVuSans-74" x="310.103516"/>
      <use xlink:href="#DejaVuSans-69" x="349.3125"/>
      <use xlink:href="#DejaVuSans-6f" x="377.095703"/>
      <use xlink:href="#DejaVuSans-6e" x="438.277344"/>
      <use xlink:href="#DejaVuSans-20" x="501.65625"/>
      <use xlink:href="#DejaVuSans-61" x="533.443359"/>
      <use xlink:href="#DejaVuSans-63" x="594.722656"/>
      <use xlink:href="#DejaVuSans-63" x="649.703125"/>
      <use xlink:href="#DejaVuSans-75" x="704.683594"/>
      <use xlink:href="#DejaVuSans-72" x="768.0625"/>
      <use xlink:href="#DejaVuSans-61" x="809.175781"/>
      <use xlink:href="#DejaVuSans-63" x="870.455078"/>
      <use xlink:href="#DejaVuSans-79" x="925.435547"/>
     </g>
    </g>
   </g>
   <g id="line2d_16">
    <path d="M 138.436364 203.563027 
L 141.48 232.676316 
L 144.523636 215.840836 
L 147.567273 252.14957 
L 150.610909 176.330292 
L 153.654545 261.329112 
L 156.698182 174.136872 
L 159.741818 201.809054 
L 162.785455 174.117094 
L 165.829091 215.561795 
L 168.872727 180.9877 
L 171.916364 225.071597 
L 174.96 185.463842 
L 178.003636 204.760862 
L 181.047273 187.969313 
L 184.090909 205.227814 
L 187.134545 193.281609 
L 190.178182 218.64443 
L 193.221818 181.802357 
L 196.265455 202.777247 
L 199.309091 200.800519 
L 202.352727 228.598247 
L 205.396364 205.303188 
L 208.44 212.12894 
L 211.483636 217.497365 
L 214.527273 229.762131 
L 217.570909 167.674046 
L 220.614545 220.684375 
L 223.658182 174.914805 
L 226.701818 212.12894 
L 229.745455 166.937698 
L 232.789091 198.651903 
L 235.832727 191.192903 
L 238.876364 227.287816 
L 241.92 173.332791 
L 244.963636 239.500264 
L 248.007273 180.332352 
L 251.050909 223.041355 
L 254.094545 195.999896 
L 257.138182 203.65675 
L 260.181818 179.292939 
L 263.225455 226.462115 
L 266.269091 178.535185 
L 269.312727 236.432752 
L 272.356364 192.878521 
L 275.4 213.532188 
L 278.443636 182.268701 
L 281.487273 230.285317 
L 284.530909 176.961107 
L 287.574545 202.777247 
L 290.618182 173.371693 
L 293.661818 196.094026 
L 296.705455 204.865218 
L 299.749091 195.57746 
L 302.792727 207.295481 
L 305.836364 203.462389 
L 308.88 194.223497 
L 311.923636 191.285217 
L 314.967273 176.330292 
L 318.010909 210.213506 
L 321.054545 156.251124 
L 324.098182 218.746271 
L 327.141818 193.281609 
L 330.185455 188.475888 
L 333.229091 173.291876 
L 336.272727 217.350402 
L 339.316364 194.168642 
L 342.36 211.648413 
L 345.403636 195.505714 
L 348.447273 237.921089 
L 351.490909 179.232689 
L 354.534545 175.601885 
L 357.578182 179.506506 
L 360.621818 204.459217 
L 363.665455 181.332751 
L 366.709091 206.555098 
L 369.752727 174.051228 
L 372.796364 200.586588 
L 375.84 158.442078 
L 381.927273 188.261578 
L 384.970909 201.464256 
L 388.014545 189.738407 
L 391.058182 186.963429 
L 394.101818 199.139404 
L 397.145455 221.97974 
L 400.189091 169.166416 
L 403.232727 202.42969 
L 406.276364 147.103707 
L 409.32 214.072831 
L 412.363636 210.806051 
L 415.407273 191.961947 
L 418.450909 165.714141 
L 421.494545 197.711883 
L 424.538182 190.238272 
L 427.581818 201.183606 
L 430.625455 190.603117 
L 433.669091 210.474978 
L 436.712727 187.259706 
L 439.756364 156.251124 
L 442.8 183.265036 
L 445.843636 163.055924 
L 448.887273 158.985135 
L 451.930909 164.958761 
L 454.974545 178.710364 
L 458.018182 174.914805 
L 461.061818 189.034286 
L 464.105455 201.14772 
L 467.149091 191.889044 
L 470.192727 194.777071 
L 473.236364 177.663123 
L 476.28 189.222545 
L 479.323636 186.120742 
L 482.367273 203.372673 
L 485.410909 188.139663 
L 488.454545 178.375462 
L 491.498182 167.674046 
L 494.541818 212.870398 
L 497.585455 158.442078 
L 500.629091 188.829656 
L 503.672727 165.501818 
L 506.716364 201.010215 
L 509.76 193.740779 
L 512.803636 155.466485 
L 515.847273 180.576752 
L 518.890909 195.034167 
L 521.934545 196.409028 
L 524.978182 194.616406 
L 528.021818 174.914805 
L 531.065455 187.514867 
L 534.109091 151.382338 
L 537.152727 202.142454 
L 540.196364 182.100291 
L 543.24 197.562593 
L 546.283636 199.206385 
L 549.327273 190.238272 
L 552.370909 190.473461 
L 555.414545 171.322062 
L 558.458182 186.394058 
L 561.501818 203.563027 
L 564.545455 174.914805 
L 567.589091 176.961107 
L 570.632727 168.42309 
L 573.676364 194.651713 
L 576.72 178.903359 
L 579.763636 165.988697 
L 582.807273 182.699982 
L 585.850909 161.764309 
L 588.894545 182.100291 
L 591.938182 179.098355 
L 594.981818 181.46297 
L 598.025455 176.330292 
L 601.069091 193.740779 
L 604.112727 180.904888 
L 607.156364 186.931384 
L 610.2 197.474857 
L 613.243636 200.016104 
L 616.287273 185.291326 
L 619.330909 164.274037 
L 622.374545 199.808655 
L 625.418182 201.809054 
L 628.461818 166.158538 
L 631.505455 183.472066 
L 634.549091 190.473461 
L 637.592727 164.37226 
L 640.636364 179.869009 
L 643.68 175.747813 
L 646.723636 195.085492 
L 649.767273 172.501219 
L 652.810909 207.750806 
L 655.854545 206.774146 
L 658.898182 154.972036 
L 661.941818 162.769016 
L 664.985455 161.818475 
L 668.029091 213.987581 
L 671.072727 195.57746 
L 674.116364 167.187726 
L 677.16 172.501219 
L 680.203636 191.481662 
L 683.247273 200.44155 
L 686.290909 193.299545 
L 689.334545 166.357544 
L 692.378182 187.224096 
L 695.421818 190.86902 
L 698.465455 188.689908 
L 701.509091 202.899361 
L 704.552727 169.726545 
L 707.596364 195.505714 
L 710.64 198.798504 
L 713.683636 174.07436 
L 716.727273 168.890494 
L 719.770909 179.193436 
L 722.814545 174.914805 
L 725.858182 162.636996 
L 728.901818 158.214344 
L 731.945455 184.327792 
L 734.989091 160.832384 
L 738.032727 173.570093 
L 741.076364 209.398025 
L 744.12 195.934097 
L 744.12 195.934097 
" clip-path="url(#pe0ab6a4c8d)" style="fill: none; stroke: #1f77b4; stroke-width: 2.25; stroke-linecap: square"/>
   </g>
   <g id="line2d_17">
    <path d="M 108 221.97974 
L 777.6 221.97974 
" clip-path="url(#pe0ab6a4c8d)" style="fill: none; stroke: #000000; stroke-width: 2.25; stroke-linecap: square"/>
   </g>
   <g id="patch_3">
    <path d="M 108 378 
L 108 51.84 
" style="fill: none; stroke: #000000; stroke-width: 1.875; stroke-linejoin: miter; stroke-linecap: square"/>
   </g>
   <g id="patch_4">
    <path d="M 777.6 378 
L 777.6 51.84 
" style="fill: none; stroke: #000000; stroke-width: 1.875; stroke-linejoin: miter; stroke-linecap: square"/>
   </g>
   <g id="patch_5">
    <path d="M 108 378 
L 777.6 378 
" style="fill: none; stroke: #000000; stroke-width: 1.875; stroke-linejoin: miter; stroke-linecap: square"/>
   </g>
   <g id="patch_6">
    <path d="M 108 51.84 
L 777.6 51.84 
" style="fill: none; stroke: #000000; stroke-width: 1.875; stroke-linejoin: miter; stroke-linecap: square"/>
   </g>
  </g>
 </g>
 <defs>
  <clipPath id="pe0ab6a4c8d">
   <rect x="108" y="51.84" width="669.6" height="326.16"/>
  </clipPath>
 </defs>
</svg>
