<?xml version="1.0" encoding="utf-8" standalone="no"?>
<!DOCTYPE svg PUBLIC "-//W3C//DTD SVG 1.1//EN"
  "http://www.w3.org/Graphics/SVG/1.1/DTD/svg11.dtd">
<svg xmlns:xlink="http://www.w3.org/1999/xlink" width="864pt" height="432pt" viewBox="0 0 864 432" xmlns="http://www.w3.org/2000/svg" version="1.1">
 <metadata>
  <rdf:RDF xmlns:dc="http://purl.org/dc/elements/1.1/" xmlns:cc="http://creativecommons.org/ns#" xmlns:rdf="http://www.w3.org/1999/02/22-rdf-syntax-ns#">
   <cc:Work>
    <dc:type rdf:resource="http://purl.org/dc/dcmitype/StillImage"/>
    <dc:date>2023-05-02T16:41:11.489833</dc:date>
    <dc:format>image/svg+xml</dc:format>
    <dc:creator>
     <cc:Agent>
      <dc:title>Matplotlib v3.5.1, https://matplotlib.org/</dc:title>
     </cc:Agent>
    </dc:creator>
   </cc:Work>
  </rdf:RDF>
 </metadata>
 <defs>
  <style type="text/css">*{stroke-linejoin: round; stroke-linecap: butt}</style>
 </defs>
 <g id="figure_1">
  <g id="patch_1">
   <path d="M 0 432 
L 864 432 
L 864 0 
L 0 0 
L 0 432 
z
" style="fill: none"/>
  </g>
  <g id="axes_1">
   <g id="patch_2">
    <path d="M 108 378 
L 777.6 378 
L 777.6 51.84 
L 108 51.84 
z
" style="fill: #ffffff"/>
   </g>
   <g id="PolyCollection_1">
    <defs>
     <path id="m8ce670f918" d="M 138.436364 -213.408935 
L 138.436364 -163.708364 
L 141.48 -191.194286 
L 144.523636 -170.799481 
L 147.567273 -196.745534 
L 150.610909 -190.545114 
L 153.654545 -189.086595 
L 156.698182 -177.030819 
L 159.741818 -173.131527 
L 162.785455 -183.780517 
L 165.829091 -182.264016 
L 168.872727 -198.054598 
L 171.916364 -222.249731 
L 174.96 -199.098781 
L 178.003636 -176.730428 
L 181.047273 -214.574931 
L 184.090909 -175.300226 
L 187.134545 -252.645107 
L 190.178182 -172.460235 
L 193.221818 -201.714683 
L 196.265455 -210.02026 
L 199.309091 -223.52585 
L 202.352727 -192.16327 
L 205.396364 -241.526539 
L 208.44 -189.52424 
L 211.483636 -200.761584 
L 214.527273 -210.02026 
L 217.570909 -208.925726 
L 220.614545 -207.647724 
L 223.658182 -192.370909 
L 226.701818 -187.726343 
L 229.745455 -200.319853 
L 232.789091 -181.302672 
L 235.832727 -211.168185 
L 238.876364 -191.502908 
L 241.92 -189.102511 
L 244.963636 -188.841039 
L 248.007273 -187.328237 
L 251.050909 -181.781299 
L 254.094545 -204.087705 
L 257.138182 -192.680547 
L 260.181818 -199.341661 
L 263.225455 -204.372468 
L 266.269091 -210.02026 
L 269.312727 -194.279654 
L 272.356364 -199.934917 
L 275.4 -200.447731 
L 278.443636 -210.02026 
L 281.487273 -154.550872 
L 284.530909 -196.783247 
L 287.574545 -173.331846 
L 290.618182 -221.070288 
L 293.661818 -196.932587 
L 296.705455 -213.520957 
L 299.749091 -188.778563 
L 302.792727 -229.165318 
L 305.836364 -180.763678 
L 308.88 -190.545114 
L 311.923636 -190.16474 
L 314.967273 -222.388925 
L 318.010909 -201.195584 
L 321.054545 -241.667371 
L 324.098182 -191.603546 
L 327.141818 -207.498924 
L 330.185455 -194.331948 
L 333.229091 -216.638766 
L 336.272727 -215.759886 
L 339.316364 -219.278935 
L 342.36 -196.745534 
L 345.403636 -216.964267 
L 348.447273 -177.817936 
L 351.490909 -200.282687 
L 354.534545 -195.791326 
L 357.578182 -228.436973 
L 360.621818 -220.026191 
L 363.665455 -229.799201 
L 366.709091 -223.684273 
L 369.752727 -184.845992 
L 372.796364 -210.02026 
L 375.84 -247.900508 
L 378.883636 -202.840863 
L 381.927273 -198.254026 
L 384.970909 -185.103529 
L 388.014545 -211.13203 
L 391.058182 -196.027982 
L 394.101818 -206.271725 
L 397.145455 -218.055736 
L 400.189091 -198.989416 
L 403.232727 -225.463442 
L 406.276364 -213.579793 
L 409.32 -210.02026 
L 412.363636 -231.199481 
L 415.407273 -223.07188 
L 418.450909 -205.090614 
L 421.494545 -170.865398 
L 424.538182 -231.094111 
L 427.581818 -195.661466 
L 430.625455 -224.194467 
L 433.669091 -205.537885 
L 436.712727 -194.85057 
L 439.756364 -184.134545 
L 442.8 -240.807097 
L 445.843636 -174.721558 
L 448.887273 -197.350547 
L 451.930909 -211.315625 
L 454.974545 -228.986726 
L 458.018182 -202.358526 
L 461.061818 -189.849573 
L 464.105455 -193.180512 
L 467.149091 -232.563968 
L 470.192727 -211.098083 
L 473.236364 -190.203445 
L 476.28 -189.849573 
L 479.323636 -193.483931 
L 482.367273 -205.151473 
L 485.410909 -235.803659 
L 488.454545 -217.802651 
L 491.498182 -206.460727 
L 494.541818 -213.408935 
L 497.585455 -214.31041 
L 500.629091 -201.927387 
L 503.672727 -197.787434 
L 506.716364 -214.889046 
L 509.76 -218.325837 
L 512.803636 -212.634978 
L 515.847273 -184.806902 
L 518.890909 -217.451565 
L 521.934545 -221.727662 
L 524.978182 -217.199657 
L 528.021818 -209.9594 
L 531.065455 -219.433247 
L 534.109091 -202.113351 
L 537.152727 -221.070288 
L 540.196364 -233.951583 
L 543.24 -180.807541 
L 546.283636 -210.02026 
L 549.327273 -186.125754 
L 552.370909 -204.185764 
L 555.414545 -213.836336 
L 558.458182 -221.226197 
L 561.501818 -188.297982 
L 564.545455 -208.853361 
L 567.589091 -231.55845 
L 570.632727 -206.204184 
L 573.676364 -206.631584 
L 576.72 -205.561476 
L 579.763636 -174.721558 
L 582.807273 -221.985921 
L 585.850909 -210.02026 
L 588.894545 -225.18995 
L 591.938182 -196.356246 
L 594.981818 -235.070951 
L 598.025455 -196.356246 
L 601.069091 -192.050012 
L 604.112727 -206.460727 
L 607.156364 -230.892535 
L 610.2 -205.313766 
L 613.243636 -220.881399 
L 616.287273 -189.849573 
L 619.330909 -237.310012 
L 622.374545 -200.282687 
L 625.418182 -210.02026 
L 628.461818 -179.929564 
L 631.505455 -215.759886 
L 634.549091 -196.027982 
L 637.592727 -225.708571 
L 640.636364 -208.833749 
L 643.68 -215.952815 
L 646.723636 -242.404389 
L 649.767273 -210.02026 
L 652.810909 -214.591731 
L 655.854545 -223.257273 
L 658.898182 -199.518167 
L 661.941818 -200.607273 
L 664.985455 -198.446915 
L 668.029091 -200.169459 
L 671.072727 -206.519562 
L 674.116364 -202.960519 
L 677.16 -203.422372 
L 680.203636 -196.132246 
L 683.247273 -217.262579 
L 686.290909 -202.527027 
L 689.334545 -214.377443 
L 692.378182 -224.943288 
L 695.421818 -223.07188 
L 698.465455 -217.199657 
L 701.509091 -199.159121 
L 704.552727 -219.574795 
L 707.596364 -211.227053 
L 710.64 -218.467812 
L 713.683636 -221.315844 
L 716.727273 -226.696812 
L 719.770909 -227.359973 
L 722.814545 -213.841587 
L 725.858182 -211.248041 
L 728.901818 -215.062931 
L 731.945455 -235.803659 
L 734.989091 -205.537885 
L 738.032727 -238.718391 
L 741.076364 -206.33954 
L 744.12 -208.833749 
L 744.12 -258.726535 
L 744.12 -258.726535 
L 741.076364 -257.145534 
L 738.032727 -284.635401 
L 734.989091 -254.900037 
L 731.945455 -282.520723 
L 728.901818 -265.489647 
L 725.858182 -260.420666 
L 722.814545 -265.720963 
L 719.770909 -276.90201 
L 716.727273 -273.391157 
L 713.683636 -274.96987 
L 710.64 -269.153127 
L 707.596364 -259.498781 
L 704.552727 -266.285859 
L 701.509091 -247.430849 
L 698.465455 -265.062302 
L 695.421818 -272.905341 
L 692.378182 -275.451999 
L 689.334545 -265.174481 
L 686.290909 -252.192919 
L 683.247273 -266.011303 
L 680.203636 -244.740294 
L 677.16 -256.205476 
L 674.116364 -254.731948 
L 671.072727 -255.529329 
L 668.029091 -250.517995 
L 664.985455 -247.054963 
L 661.941818 -250.025455 
L 658.898182 -246.25248 
L 655.854545 -269.641972 
L 652.810909 -260.942976 
L 649.767273 -256.382733 
L 646.723636 -289.037536 
L 643.68 -265.786275 
L 640.636364 -258.667209 
L 637.592727 -278.002944 
L 634.549091 -246.908993 
L 631.505455 -263.972746 
L 628.461818 -228.537611 
L 625.418182 -255.700932 
L 622.374545 -251.404944 
L 619.330909 -284.770451 
L 616.287273 -242.860659 
L 613.243636 -269.153127 
L 610.2 -254.790779 
L 607.156364 -280.003772 
L 604.112727 -256.294187 
L 601.069091 -243.393577 
L 598.025455 -248.734964 
L 594.981818 -280.617662 
L 591.938182 -246.457629 
L 588.894545 -271.865918 
L 585.850909 -261.142517 
L 582.807273 -269.848567 
L 579.763636 -224.13974 
L 576.72 -262.039398 
L 573.676364 -256.332156 
L 570.632727 -257.085195 
L 567.589091 -281.814228 
L 564.545455 -257.863128 
L 561.501818 -236.086993 
L 558.458182 -270.532319 
L 555.414545 -264.717346 
L 552.370909 -253.195531 
L 549.327273 -238.259221 
L 546.283636 -265.489647 
L 543.24 -231.929798 
L 540.196364 -281.814228 
L 537.152727 -272.698475 
L 534.109091 -249.554805 
L 531.065455 -266.498182 
L 528.021818 -258.708124 
L 524.978182 -265.062302 
L 521.934545 -268.851429 
L 518.890909 -264.162629 
L 515.847273 -235.233618 
L 512.803636 -264.929351 
L 509.76 -268.159297 
L 506.716364 -266.011303 
L 503.672727 -246.536158 
L 500.629091 -252.493494 
L 497.585455 -259.981499 
L 494.541818 -260.85039 
L 491.498182 -256.294187 
L 488.454545 -266.720536 
L 485.410909 -282.459334 
L 482.367273 -258.708124 
L 479.323636 -244.364942 
L 476.28 -239.155696 
L 473.236364 -239.745482 
L 470.192727 -258.522292 
L 467.149091 -277.651385 
L 464.105455 -244.99512 
L 461.061818 -240.276289 
L 458.018182 -250.517995 
L 454.974545 -275.349199 
L 451.930909 -263.195001 
L 448.887273 -250.361633 
L 445.843636 -225.148275 
L 442.8 -283.2717 
L 439.756364 -233.552727 
L 436.712727 -243.918682 
L 433.669091 -254.844007 
L 430.625455 -268.030529 
L 427.581818 -248.310376 
L 424.538182 -275.349199 
L 421.494545 -220.698858 
L 418.450909 -253.839337 
L 415.407273 -272.905341 
L 412.363636 -275.97 
L 409.32 -259.562297 
L 406.276364 -261.040231 
L 403.232727 -273.999156 
L 400.189091 -249.731299 
L 397.145455 -266.268597 
L 394.101818 -261.250233 
L 391.058182 -249.453043 
L 388.014545 -255.602835 
L 384.970909 -237.310012 
L 381.927273 -254.731948 
L 378.883636 -255.489773 
L 375.84 -290.100896 
L 372.796364 -257.085195 
L 369.752727 -233.005461 
L 366.709091 -269.230984 
L 363.665455 -278.867314 
L 360.621818 -266.720536 
L 357.578182 -275.092648 
L 354.534545 -243.950794 
L 351.490909 -251.404944 
L 348.447273 -227.4219 
L 345.403636 -265.572314 
L 342.36 -249.844436 
L 339.316364 -267.94485 
L 336.272727 -264.030143 
L 333.229091 -265.174481 
L 330.185455 -240.350996 
L 327.141818 -257.92564 
L 324.098182 -245.625906 
L 321.054545 -287.920842 
L 318.010909 -249.786453 
L 314.967273 -267.62774 
L 311.923636 -238.700455 
L 308.88 -241.667371 
L 305.836364 -234.252341 
L 302.792727 -277.027964 
L 299.749091 -241.258049 
L 296.705455 -262.530724 
L 293.661818 -244.775904 
L 290.618182 -267.725963 
L 287.574545 -222.249731 
L 284.530909 -245.318961 
L 281.487273 -204.977588 
L 278.443636 -256.313638 
L 275.4 -248.310376 
L 272.356364 -252.882968 
L 269.312727 -240.350996 
L 266.269091 -255.637043 
L 263.225455 -254.073039 
L 260.181818 -251.548144 
L 257.138182 -244.699686 
L 254.094545 -251.548144 
L 251.050909 -227.398082 
L 248.007273 -237.754954 
L 244.963636 -240.612468 
L 241.92 -241.396883 
L 238.876364 -237.796287 
L 235.832727 -257.085195 
L 232.789091 -231.55845 
L 229.745455 -249.899709 
L 226.701818 -234.437407 
L 223.658182 -242.797625 
L 220.614545 -258.686174 
L 217.570909 -259.274262 
L 214.527273 -257.085195 
L 211.483636 -249.369632 
L 208.44 -239.625622 
L 205.396364 -288.202507 
L 202.352727 -244.429078 
L 199.309091 -275.092648 
L 196.265455 -258.628307 
L 193.221818 -253.921166 
L 190.178182 -221.051104 
L 187.134545 -300.598059 
L 184.090909 -226.222942 
L 181.047273 -260.121642 
L 178.003636 -227.239138 
L 174.96 -247.430849 
L 171.916364 -271.167616 
L 168.872727 -248.310376 
L 165.829091 -232.949331 
L 162.785455 -233.760979 
L 159.741818 -226.62019 
L 156.698182 -229.813924 
L 153.654545 -238.259221 
L 150.610909 -239.232978 
L 147.567273 -247.430849 
L 144.523636 -223.093853 
L 141.48 -240.612468 
L 138.436364 -213.408935 
z
" style="stroke: #1f77b4; stroke-opacity: 0.2; stroke-width: 1.5"/>
    </defs>
    <g clip-path="url(#pabac605a2a)">
     <use xlink:href="#m8ce670f918" x="0" y="432" style="fill: #1f77b4; fill-opacity: 0.2; stroke: #1f77b4; stroke-opacity: 0.2; stroke-width: 1.5"/>
    </g>
   </g>
   <g id="PolyCollection_2">
    <defs>
     <path id="m14d50f1196" d="M 138.436364 -365.334545 
L 138.436364 -68.825455 
L 141.48 -68.825455 
L 144.523636 -68.825455 
L 147.567273 -68.825455 
L 150.610909 -68.825455 
L 153.654545 -68.825455 
L 156.698182 -68.825455 
L 159.741818 -68.825455 
L 162.785455 -68.825455 
L 165.829091 -68.825455 
L 168.872727 -68.825455 
L 171.916364 -68.825455 
L 174.96 -68.825455 
L 178.003636 -68.825455 
L 181.047273 -68.825455 
L 184.090909 -68.825455 
L 187.134545 -68.825455 
L 190.178182 -68.825455 
L 193.221818 -68.825455 
L 196.265455 -68.825455 
L 199.309091 -68.825455 
L 202.352727 -68.825455 
L 205.396364 -68.825455 
L 208.44 -68.825455 
L 211.483636 -68.825455 
L 214.527273 -68.825455 
L 217.570909 -68.825455 
L 220.614545 -68.825455 
L 223.658182 -68.825455 
L 226.701818 -68.825455 
L 229.745455 -68.825455 
L 232.789091 -68.825455 
L 235.832727 -68.825455 
L 238.876364 -68.825455 
L 241.92 -68.825455 
L 244.963636 -68.825455 
L 248.007273 -68.825455 
L 251.050909 -68.825455 
L 254.094545 -68.825455 
L 257.138182 -68.825455 
L 260.181818 -68.825455 
L 260.181818 -365.334545 
L 260.181818 -365.334545 
L 257.138182 -365.334545 
L 254.094545 -365.334545 
L 251.050909 -365.334545 
L 248.007273 -365.334545 
L 244.963636 -365.334545 
L 241.92 -365.334545 
L 238.876364 -365.334545 
L 235.832727 -365.334545 
L 232.789091 -365.334545 
L 229.745455 -365.334545 
L 226.701818 -365.334545 
L 223.658182 -365.334545 
L 220.614545 -365.334545 
L 217.570909 -365.334545 
L 214.527273 -365.334545 
L 211.483636 -365.334545 
L 208.44 -365.334545 
L 205.396364 -365.334545 
L 202.352727 -365.334545 
L 199.309091 -365.334545 
L 196.265455 -365.334545 
L 193.221818 -365.334545 
L 190.178182 -365.334545 
L 187.134545 -365.334545 
L 184.090909 -365.334545 
L 181.047273 -365.334545 
L 178.003636 -365.334545 
L 174.96 -365.334545 
L 171.916364 -365.334545 
L 168.872727 -365.334545 
L 165.829091 -365.334545 
L 162.785455 -365.334545 
L 159.741818 -365.334545 
L 156.698182 -365.334545 
L 153.654545 -365.334545 
L 150.610909 -365.334545 
L 147.567273 -365.334545 
L 144.523636 -365.334545 
L 141.48 -365.334545 
L 138.436364 -365.334545 
z
" style="stroke: #ffd700; stroke-opacity: 0.2; stroke-width: 1.5"/>
    </defs>
    <g clip-path="url(#pabac605a2a)">
     <use xlink:href="#m14d50f1196" x="0" y="432" style="fill: #ffd700; fill-opacity: 0.2; stroke: #ffd700; stroke-opacity: 0.2; stroke-width: 1.5"/>
    </g>
   </g>
   <g id="PolyCollection_3">
    <defs>
     <path id="mfdbcfee04b" d="M 260.181818 -365.334545 
L 260.181818 -68.825455 
L 263.225455 -68.825455 
L 266.269091 -68.825455 
L 269.312727 -68.825455 
L 272.356364 -68.825455 
L 275.4 -68.825455 
L 278.443636 -68.825455 
L 281.487273 -68.825455 
L 284.530909 -68.825455 
L 287.574545 -68.825455 
L 290.618182 -68.825455 
L 293.661818 -68.825455 
L 296.705455 -68.825455 
L 299.749091 -68.825455 
L 302.792727 -68.825455 
L 305.836364 -68.825455 
L 308.88 -68.825455 
L 311.923636 -68.825455 
L 314.967273 -68.825455 
L 318.010909 -68.825455 
L 321.054545 -68.825455 
L 324.098182 -68.825455 
L 327.141818 -68.825455 
L 330.185455 -68.825455 
L 333.229091 -68.825455 
L 336.272727 -68.825455 
L 339.316364 -68.825455 
L 342.36 -68.825455 
L 345.403636 -68.825455 
L 348.447273 -68.825455 
L 351.490909 -68.825455 
L 354.534545 -68.825455 
L 357.578182 -68.825455 
L 360.621818 -68.825455 
L 363.665455 -68.825455 
L 366.709091 -68.825455 
L 369.752727 -68.825455 
L 372.796364 -68.825455 
L 375.84 -68.825455 
L 378.883636 -68.825455 
L 381.927273 -68.825455 
L 381.927273 -365.334545 
L 381.927273 -365.334545 
L 378.883636 -365.334545 
L 375.84 -365.334545 
L 372.796364 -365.334545 
L 369.752727 -365.334545 
L 366.709091 -365.334545 
L 363.665455 -365.334545 
L 360.621818 -365.334545 
L 357.578182 -365.334545 
L 354.534545 -365.334545 
L 351.490909 -365.334545 
L 348.447273 -365.334545 
L 345.403636 -365.334545 
L 342.36 -365.334545 
L 339.316364 -365.334545 
L 336.272727 -365.334545 
L 333.229091 -365.334545 
L 330.185455 -365.334545 
L 327.141818 -365.334545 
L 324.098182 -365.334545 
L 321.054545 -365.334545 
L 318.010909 -365.334545 
L 314.967273 -365.334545 
L 311.923636 -365.334545 
L 308.88 -365.334545 
L 305.836364 -365.334545 
L 302.792727 -365.334545 
L 299.749091 -365.334545 
L 296.705455 -365.334545 
L 293.661818 -365.334545 
L 290.618182 -365.334545 
L 287.574545 -365.334545 
L 284.530909 -365.334545 
L 281.487273 -365.334545 
L 278.443636 -365.334545 
L 275.4 -365.334545 
L 272.356364 -365.334545 
L 269.312727 -365.334545 
L 266.269091 -365.334545 
L 263.225455 -365.334545 
L 260.181818 -365.334545 
z
" style="stroke: #ffd700; stroke-opacity: 0.2; stroke-width: 1.5"/>
    </defs>
    <g clip-path="url(#pabac605a2a)">
     <use xlink:href="#mfdbcfee04b" x="0" y="432" style="fill: #ffd700; fill-opacity: 0.2; stroke: #ffd700; stroke-opacity: 0.2; stroke-width: 1.5"/>
    </g>
   </g>
   <g id="PolyCollection_4">
    <defs>
     <path id="m867cad9308" d="M 381.927273 -365.334545 
L 381.927273 -68.825455 
L 384.970909 -68.825455 
L 388.014545 -68.825455 
L 391.058182 -68.825455 
L 394.101818 -68.825455 
L 397.145455 -68.825455 
L 400.189091 -68.825455 
L 403.232727 -68.825455 
L 406.276364 -68.825455 
L 409.32 -68.825455 
L 412.363636 -68.825455 
L 415.407273 -68.825455 
L 418.450909 -68.825455 
L 421.494545 -68.825455 
L 424.538182 -68.825455 
L 427.581818 -68.825455 
L 430.625455 -68.825455 
L 433.669091 -68.825455 
L 436.712727 -68.825455 
L 439.756364 -68.825455 
L 442.8 -68.825455 
L 445.843636 -68.825455 
L 448.887273 -68.825455 
L 451.930909 -68.825455 
L 454.974545 -68.825455 
L 458.018182 -68.825455 
L 461.061818 -68.825455 
L 464.105455 -68.825455 
L 467.149091 -68.825455 
L 470.192727 -68.825455 
L 473.236364 -68.825455 
L 476.28 -68.825455 
L 479.323636 -68.825455 
L 482.367273 -68.825455 
L 485.410909 -68.825455 
L 488.454545 -68.825455 
L 491.498182 -68.825455 
L 494.541818 -68.825455 
L 497.585455 -68.825455 
L 500.629091 -68.825455 
L 503.672727 -68.825455 
L 503.672727 -365.334545 
L 503.672727 -365.334545 
L 500.629091 -365.334545 
L 497.585455 -365.334545 
L 494.541818 -365.334545 
L 491.498182 -365.334545 
L 488.454545 -365.334545 
L 485.410909 -365.334545 
L 482.367273 -365.334545 
L 479.323636 -365.334545 
L 476.28 -365.334545 
L 473.236364 -365.334545 
L 470.192727 -365.334545 
L 467.149091 -365.334545 
L 464.105455 -365.334545 
L 461.061818 -365.334545 
L 458.018182 -365.334545 
L 454.974545 -365.334545 
L 451.930909 -365.334545 
L 448.887273 -365.334545 
L 445.843636 -365.334545 
L 442.8 -365.334545 
L 439.756364 -365.334545 
L 436.712727 -365.334545 
L 433.669091 -365.334545 
L 430.625455 -365.334545 
L 427.581818 -365.334545 
L 424.538182 -365.334545 
L 421.494545 -365.334545 
L 418.450909 -365.334545 
L 415.407273 -365.334545 
L 412.363636 -365.334545 
L 409.32 -365.334545 
L 406.276364 -365.334545 
L 403.232727 -365.334545 
L 400.189091 -365.334545 
L 397.145455 -365.334545 
L 394.101818 -365.334545 
L 391.058182 -365.334545 
L 388.014545 -365.334545 
L 384.970909 -365.334545 
L 381.927273 -365.334545 
z
" style="stroke: #ffd700; stroke-opacity: 0.2; stroke-width: 1.5"/>
    </defs>
    <g clip-path="url(#pabac605a2a)">
     <use xlink:href="#m867cad9308" x="0" y="432" style="fill: #ffd700; fill-opacity: 0.2; stroke: #ffd700; stroke-opacity: 0.2; stroke-width: 1.5"/>
    </g>
   </g>
   <g id="PolyCollection_5">
    <defs>
     <path id="mca7c29e42c" d="M 503.672727 -365.334545 
L 503.672727 -68.825455 
L 506.716364 -68.825455 
L 509.76 -68.825455 
L 512.803636 -68.825455 
L 515.847273 -68.825455 
L 518.890909 -68.825455 
L 521.934545 -68.825455 
L 524.978182 -68.825455 
L 528.021818 -68.825455 
L 531.065455 -68.825455 
L 534.109091 -68.825455 
L 537.152727 -68.825455 
L 540.196364 -68.825455 
L 543.24 -68.825455 
L 546.283636 -68.825455 
L 549.327273 -68.825455 
L 552.370909 -68.825455 
L 555.414545 -68.825455 
L 558.458182 -68.825455 
L 561.501818 -68.825455 
L 564.545455 -68.825455 
L 567.589091 -68.825455 
L 570.632727 -68.825455 
L 573.676364 -68.825455 
L 576.72 -68.825455 
L 579.763636 -68.825455 
L 582.807273 -68.825455 
L 585.850909 -68.825455 
L 588.894545 -68.825455 
L 591.938182 -68.825455 
L 594.981818 -68.825455 
L 598.025455 -68.825455 
L 601.069091 -68.825455 
L 604.112727 -68.825455 
L 607.156364 -68.825455 
L 610.2 -68.825455 
L 613.243636 -68.825455 
L 616.287273 -68.825455 
L 619.330909 -68.825455 
L 622.374545 -68.825455 
L 625.418182 -68.825455 
L 625.418182 -365.334545 
L 625.418182 -365.334545 
L 622.374545 -365.334545 
L 619.330909 -365.334545 
L 616.287273 -365.334545 
L 613.243636 -365.334545 
L 610.2 -365.334545 
L 607.156364 -365.334545 
L 604.112727 -365.334545 
L 601.069091 -365.334545 
L 598.025455 -365.334545 
L 594.981818 -365.334545 
L 591.938182 -365.334545 
L 588.894545 -365.334545 
L 585.850909 -365.334545 
L 582.807273 -365.334545 
L 579.763636 -365.334545 
L 576.72 -365.334545 
L 573.676364 -365.334545 
L 570.632727 -365.334545 
L 567.589091 -365.334545 
L 564.545455 -365.334545 
L 561.501818 -365.334545 
L 558.458182 -365.334545 
L 555.414545 -365.334545 
L 552.370909 -365.334545 
L 549.327273 -365.334545 
L 546.283636 -365.334545 
L 543.24 -365.334545 
L 540.196364 -365.334545 
L 537.152727 -365.334545 
L 534.109091 -365.334545 
L 531.065455 -365.334545 
L 528.021818 -365.334545 
L 524.978182 -365.334545 
L 521.934545 -365.334545 
L 518.890909 -365.334545 
L 515.847273 -365.334545 
L 512.803636 -365.334545 
L 509.76 -365.334545 
L 506.716364 -365.334545 
L 503.672727 -365.334545 
z
" style="stroke: #ffd700; stroke-opacity: 0.2; stroke-width: 1.5"/>
    </defs>
    <g clip-path="url(#pabac605a2a)">
     <use xlink:href="#mca7c29e42c" x="0" y="432" style="fill: #ffd700; fill-opacity: 0.2; stroke: #ffd700; stroke-opacity: 0.2; stroke-width: 1.5"/>
    </g>
   </g>
   <g id="PolyCollection_6">
    <defs>
     <path id="m132e6c0bef" d="M 625.418182 -365.334545 
L 625.418182 -68.825455 
L 628.461818 -68.825455 
L 631.505455 -68.825455 
L 634.549091 -68.825455 
L 637.592727 -68.825455 
L 640.636364 -68.825455 
L 643.68 -68.825455 
L 646.723636 -68.825455 
L 649.767273 -68.825455 
L 652.810909 -68.825455 
L 655.854545 -68.825455 
L 658.898182 -68.825455 
L 661.941818 -68.825455 
L 664.985455 -68.825455 
L 668.029091 -68.825455 
L 671.072727 -68.825455 
L 674.116364 -68.825455 
L 677.16 -68.825455 
L 680.203636 -68.825455 
L 683.247273 -68.825455 
L 686.290909 -68.825455 
L 689.334545 -68.825455 
L 692.378182 -68.825455 
L 695.421818 -68.825455 
L 698.465455 -68.825455 
L 701.509091 -68.825455 
L 704.552727 -68.825455 
L 707.596364 -68.825455 
L 710.64 -68.825455 
L 713.683636 -68.825455 
L 716.727273 -68.825455 
L 719.770909 -68.825455 
L 722.814545 -68.825455 
L 725.858182 -68.825455 
L 728.901818 -68.825455 
L 731.945455 -68.825455 
L 734.989091 -68.825455 
L 738.032727 -68.825455 
L 741.076364 -68.825455 
L 744.12 -68.825455 
L 747.163636 -68.825455 
L 747.163636 -365.334545 
L 747.163636 -365.334545 
L 744.12 -365.334545 
L 741.076364 -365.334545 
L 738.032727 -365.334545 
L 734.989091 -365.334545 
L 731.945455 -365.334545 
L 728.901818 -365.334545 
L 725.858182 -365.334545 
L 722.814545 -365.334545 
L 719.770909 -365.334545 
L 716.727273 -365.334545 
L 713.683636 -365.334545 
L 710.64 -365.334545 
L 707.596364 -365.334545 
L 704.552727 -365.334545 
L 701.509091 -365.334545 
L 698.465455 -365.334545 
L 695.421818 -365.334545 
L 692.378182 -365.334545 
L 689.334545 -365.334545 
L 686.290909 -365.334545 
L 683.247273 -365.334545 
L 680.203636 -365.334545 
L 677.16 -365.334545 
L 674.116364 -365.334545 
L 671.072727 -365.334545 
L 668.029091 -365.334545 
L 664.985455 -365.334545 
L 661.941818 -365.334545 
L 658.898182 -365.334545 
L 655.854545 -365.334545 
L 652.810909 -365.334545 
L 649.767273 -365.334545 
L 646.723636 -365.334545 
L 643.68 -365.334545 
L 640.636364 -365.334545 
L 637.592727 -365.334545 
L 634.549091 -365.334545 
L 631.505455 -365.334545 
L 628.461818 -365.334545 
L 625.418182 -365.334545 
z
" style="stroke: #ff0000; stroke-opacity: 0.2; stroke-width: 1.5"/>
    </defs>
    <g clip-path="url(#pabac605a2a)">
     <use xlink:href="#m132e6c0bef" x="0" y="432" style="fill: #ff0000; fill-opacity: 0.2; stroke: #ff0000; stroke-opacity: 0.2; stroke-width: 1.5"/>
    </g>
   </g>
   <g id="matplotlib.axis_1">
    <g id="xtick_1">
     <g id="line2d_1">
      <defs>
       <path id="m74d7ada431" d="M 0 0 
L 0 9 
" style="stroke: #000000; stroke-width: 1.875"/>
      </defs>
      <g>
       <use xlink:href="#m74d7ada431" x="138.436364" y="378" style="stroke: #000000; stroke-width: 1.875"/>
      </g>
     </g>
     <g id="text_1">
      <!-- 0 -->
      <g transform="translate(133.187301 403.037422)scale(0.165 -0.165)">
       <defs>
        <path id="DejaVuSans-30" d="M 2034 4250 
Q 1547 4250 1301 3770 
Q 1056 3291 1056 2328 
Q 1056 1369 1301 889 
Q 1547 409 2034 409 
Q 2525 409 2770 889 
Q 3016 1369 3016 2328 
Q 3016 3291 2770 3770 
Q 2525 4250 2034 4250 
z
M 2034 4750 
Q 2819 4750 3233 4129 
Q 3647 3509 3647 2328 
Q 3647 1150 3233 529 
Q 2819 -91 2034 -91 
Q 1250 -91 836 529 
Q 422 1150 422 2328 
Q 422 3509 836 4129 
Q 1250 4750 2034 4750 
z
" transform="scale(0.015625)"/>
       </defs>
       <use xlink:href="#DejaVuSans-30"/>
      </g>
     </g>
    </g>
    <g id="xtick_2">
     <g id="line2d_2">
      <g>
       <use xlink:href="#m74d7ada431" x="214.527273" y="378" style="stroke: #000000; stroke-width: 1.875"/>
      </g>
     </g>
     <g id="text_2">
      <!-- 25 -->
      <g transform="translate(204.029148 403.037422)scale(0.165 -0.165)">
       <defs>
        <path id="DejaVuSans-32" d="M 1228 531 
L 3431 531 
L 3431 0 
L 469 0 
L 469 531 
Q 828 903 1448 1529 
Q 2069 2156 2228 2338 
Q 2531 2678 2651 2914 
Q 2772 3150 2772 3378 
Q 2772 3750 2511 3984 
Q 2250 4219 1831 4219 
Q 1534 4219 1204 4116 
Q 875 4013 500 3803 
L 500 4441 
Q 881 4594 1212 4672 
Q 1544 4750 1819 4750 
Q 2544 4750 2975 4387 
Q 3406 4025 3406 3419 
Q 3406 3131 3298 2873 
Q 3191 2616 2906 2266 
Q 2828 2175 2409 1742 
Q 1991 1309 1228 531 
z
" transform="scale(0.015625)"/>
        <path id="DejaVuSans-35" d="M 691 4666 
L 3169 4666 
L 3169 4134 
L 1269 4134 
L 1269 2991 
Q 1406 3038 1543 3061 
Q 1681 3084 1819 3084 
Q 2600 3084 3056 2656 
Q 3513 2228 3513 1497 
Q 3513 744 3044 326 
Q 2575 -91 1722 -91 
Q 1428 -91 1123 -41 
Q 819 9 494 109 
L 494 744 
Q 775 591 1075 516 
Q 1375 441 1709 441 
Q 2250 441 2565 725 
Q 2881 1009 2881 1497 
Q 2881 1984 2565 2268 
Q 2250 2553 1709 2553 
Q 1456 2553 1204 2497 
Q 953 2441 691 2322 
L 691 4666 
z
" transform="scale(0.015625)"/>
       </defs>
       <use xlink:href="#DejaVuSans-32"/>
       <use xlink:href="#DejaVuSans-35" x="63.623047"/>
      </g>
     </g>
    </g>
    <g id="xtick_3">
     <g id="line2d_3">
      <g>
       <use xlink:href="#m74d7ada431" x="290.618182" y="378" style="stroke: #000000; stroke-width: 1.875"/>
      </g>
     </g>
     <g id="text_3">
      <!-- 50 -->
      <g transform="translate(280.120057 403.037422)scale(0.165 -0.165)">
       <use xlink:href="#DejaVuSans-35"/>
       <use xlink:href="#DejaVuSans-30" x="63.623047"/>
      </g>
     </g>
    </g>
    <g id="xtick_4">
     <g id="line2d_4">
      <g>
       <use xlink:href="#m74d7ada431" x="366.709091" y="378" style="stroke: #000000; stroke-width: 1.875"/>
      </g>
     </g>
     <g id="text_4">
      <!-- 75 -->
      <g transform="translate(356.210966 403.037422)scale(0.165 -0.165)">
       <defs>
        <path id="DejaVuSans-37" d="M 525 4666 
L 3525 4666 
L 3525 4397 
L 1831 0 
L 1172 0 
L 2766 4134 
L 525 4134 
L 525 4666 
z
" transform="scale(0.015625)"/>
       </defs>
       <use xlink:href="#DejaVuSans-37"/>
       <use xlink:href="#DejaVuSans-35" x="63.623047"/>
      </g>
     </g>
    </g>
    <g id="xtick_5">
     <g id="line2d_5">
      <g>
       <use xlink:href="#m74d7ada431" x="442.8" y="378" style="stroke: #000000; stroke-width: 1.875"/>
      </g>
     </g>
     <g id="text_5">
      <!-- 100 -->
      <g transform="translate(427.052813 403.037422)scale(0.165 -0.165)">
       <defs>
        <path id="DejaVuSans-31" d="M 794 531 
L 1825 531 
L 1825 4091 
L 703 3866 
L 703 4441 
L 1819 4666 
L 2450 4666 
L 2450 531 
L 3481 531 
L 3481 0 
L 794 0 
L 794 531 
z
" transform="scale(0.015625)"/>
       </defs>
       <use xlink:href="#DejaVuSans-31"/>
       <use xlink:href="#DejaVuSans-30" x="63.623047"/>
       <use xlink:href="#DejaVuSans-30" x="127.246094"/>
      </g>
     </g>
    </g>
    <g id="xtick_6">
     <g id="line2d_6">
      <g>
       <use xlink:href="#m74d7ada431" x="518.890909" y="378" style="stroke: #000000; stroke-width: 1.875"/>
      </g>
     </g>
     <g id="text_6">
      <!-- 125 -->
      <g transform="translate(503.143722 403.037422)scale(0.165 -0.165)">
       <use xlink:href="#DejaVuSans-31"/>
       <use xlink:href="#DejaVuSans-32" x="63.623047"/>
       <use xlink:href="#DejaVuSans-35" x="127.246094"/>
      </g>
     </g>
    </g>
    <g id="xtick_7">
     <g id="line2d_7">
      <g>
       <use xlink:href="#m74d7ada431" x="594.981818" y="378" style="stroke: #000000; stroke-width: 1.875"/>
      </g>
     </g>
     <g id="text_7">
      <!-- 150 -->
      <g transform="translate(579.234631 403.037422)scale(0.165 -0.165)">
       <use xlink:href="#DejaVuSans-31"/>
       <use xlink:href="#DejaVuSans-35" x="63.623047"/>
       <use xlink:href="#DejaVuSans-30" x="127.246094"/>
      </g>
     </g>
    </g>
    <g id="xtick_8">
     <g id="line2d_8">
      <g>
       <use xlink:href="#m74d7ada431" x="671.072727" y="378" style="stroke: #000000; stroke-width: 1.875"/>
      </g>
     </g>
     <g id="text_8">
      <!-- 175 -->
      <g transform="translate(655.32554 403.037422)scale(0.165 -0.165)">
       <use xlink:href="#DejaVuSans-31"/>
       <use xlink:href="#DejaVuSans-37" x="63.623047"/>
       <use xlink:href="#DejaVuSans-35" x="127.246094"/>
      </g>
     </g>
    </g>
    <g id="xtick_9">
     <g id="line2d_9">
      <g>
       <use xlink:href="#m74d7ada431" x="747.163636" y="378" style="stroke: #000000; stroke-width: 1.875"/>
      </g>
     </g>
     <g id="text_9">
      <!-- 200 -->
      <g transform="translate(731.416449 403.037422)scale(0.165 -0.165)">
       <use xlink:href="#DejaVuSans-32"/>
       <use xlink:href="#DejaVuSans-30" x="63.623047"/>
       <use xlink:href="#DejaVuSans-30" x="127.246094"/>
      </g>
     </g>
    </g>
    <g id="text_10">
     <!-- trial -->
     <g transform="translate(425.055938 424.146094)scale(0.18 -0.18)">
      <defs>
       <path id="DejaVuSans-74" d="M 1172 4494 
L 1172 3500 
L 2356 3500 
L 2356 3053 
L 1172 3053 
L 1172 1153 
Q 1172 725 1289 603 
Q 1406 481 1766 481 
L 2356 481 
L 2356 0 
L 1766 0 
Q 1100 0 847 248 
Q 594 497 594 1153 
L 594 3053 
L 172 3053 
L 172 3500 
L 594 3500 
L 594 4494 
L 1172 4494 
z
" transform="scale(0.015625)"/>
       <path id="DejaVuSans-72" d="M 2631 2963 
Q 2534 3019 2420 3045 
Q 2306 3072 2169 3072 
Q 1681 3072 1420 2755 
Q 1159 2438 1159 1844 
L 1159 0 
L 581 0 
L 581 3500 
L 1159 3500 
L 1159 2956 
Q 1341 3275 1631 3429 
Q 1922 3584 2338 3584 
Q 2397 3584 2469 3576 
Q 2541 3569 2628 3553 
L 2631 2963 
z
" transform="scale(0.015625)"/>
       <path id="DejaVuSans-69" d="M 603 3500 
L 1178 3500 
L 1178 0 
L 603 0 
L 603 3500 
z
M 603 4863 
L 1178 4863 
L 1178 4134 
L 603 4134 
L 603 4863 
z
" transform="scale(0.015625)"/>
       <path id="DejaVuSans-61" d="M 2194 1759 
Q 1497 1759 1228 1600 
Q 959 1441 959 1056 
Q 959 750 1161 570 
Q 1363 391 1709 391 
Q 2188 391 2477 730 
Q 2766 1069 2766 1631 
L 2766 1759 
L 2194 1759 
z
M 3341 1997 
L 3341 0 
L 2766 0 
L 2766 531 
Q 2569 213 2275 61 
Q 1981 -91 1556 -91 
Q 1019 -91 701 211 
Q 384 513 384 1019 
Q 384 1609 779 1909 
Q 1175 2209 1959 2209 
L 2766 2209 
L 2766 2266 
Q 2766 2663 2505 2880 
Q 2244 3097 1772 3097 
Q 1472 3097 1187 3025 
Q 903 2953 641 2809 
L 641 3341 
Q 956 3463 1253 3523 
Q 1550 3584 1831 3584 
Q 2591 3584 2966 3190 
Q 3341 2797 3341 1997 
z
" transform="scale(0.015625)"/>
       <path id="DejaVuSans-6c" d="M 603 4863 
L 1178 4863 
L 1178 0 
L 603 0 
L 603 4863 
z
" transform="scale(0.015625)"/>
      </defs>
      <use xlink:href="#DejaVuSans-74"/>
      <use xlink:href="#DejaVuSans-72" x="39.208984"/>
      <use xlink:href="#DejaVuSans-69" x="80.322266"/>
      <use xlink:href="#DejaVuSans-61" x="108.105469"/>
      <use xlink:href="#DejaVuSans-6c" x="169.384766"/>
     </g>
    </g>
   </g>
   <g id="matplotlib.axis_2">
    <g id="ytick_1">
     <g id="line2d_10">
      <defs>
       <path id="m66bd87fd7e" d="M 0 0 
L -9 0 
" style="stroke: #000000; stroke-width: 1.875"/>
      </defs>
      <g>
       <use xlink:href="#m66bd87fd7e" x="108" y="363.174545" style="stroke: #000000; stroke-width: 1.875"/>
      </g>
     </g>
     <g id="text_11">
      <!-- 0.0 -->
      <g transform="translate(69.259844 369.443256)scale(0.165 -0.165)">
       <defs>
        <path id="DejaVuSans-2e" d="M 684 794 
L 1344 794 
L 1344 0 
L 684 0 
L 684 794 
z
" transform="scale(0.015625)"/>
       </defs>
       <use xlink:href="#DejaVuSans-30"/>
       <use xlink:href="#DejaVuSans-2e" x="63.623047"/>
       <use xlink:href="#DejaVuSans-30" x="95.410156"/>
      </g>
     </g>
    </g>
    <g id="ytick_2">
     <g id="line2d_11">
      <g>
       <use xlink:href="#m66bd87fd7e" x="108" y="306.696623" style="stroke: #000000; stroke-width: 1.875"/>
      </g>
     </g>
     <g id="text_12">
      <!-- 0.2 -->
      <g transform="translate(69.259844 312.965334)scale(0.165 -0.165)">
       <use xlink:href="#DejaVuSans-30"/>
       <use xlink:href="#DejaVuSans-2e" x="63.623047"/>
       <use xlink:href="#DejaVuSans-32" x="95.410156"/>
      </g>
     </g>
    </g>
    <g id="ytick_3">
     <g id="line2d_12">
      <g>
       <use xlink:href="#m66bd87fd7e" x="108" y="250.218701" style="stroke: #000000; stroke-width: 1.875"/>
      </g>
     </g>
     <g id="text_13">
      <!-- 0.4 -->
      <g transform="translate(69.259844 256.487412)scale(0.165 -0.165)">
       <defs>
        <path id="DejaVuSans-34" d="M 2419 4116 
L 825 1625 
L 2419 1625 
L 2419 4116 
z
M 2253 4666 
L 3047 4666 
L 3047 1625 
L 3713 1625 
L 3713 1100 
L 3047 1100 
L 3047 0 
L 2419 0 
L 2419 1100 
L 313 1100 
L 313 1709 
L 2253 4666 
z
" transform="scale(0.015625)"/>
       </defs>
       <use xlink:href="#DejaVuSans-30"/>
       <use xlink:href="#DejaVuSans-2e" x="63.623047"/>
       <use xlink:href="#DejaVuSans-34" x="95.410156"/>
      </g>
     </g>
    </g>
    <g id="ytick_4">
     <g id="line2d_13">
      <g>
       <use xlink:href="#m66bd87fd7e" x="108" y="193.740779" style="stroke: #000000; stroke-width: 1.875"/>
      </g>
     </g>
     <g id="text_14">
      <!-- 0.6 -->
      <g transform="translate(69.259844 200.00949)scale(0.165 -0.165)">
       <defs>
        <path id="DejaVuSans-36" d="M 2113 2584 
Q 1688 2584 1439 2293 
Q 1191 2003 1191 1497 
Q 1191 994 1439 701 
Q 1688 409 2113 409 
Q 2538 409 2786 701 
Q 3034 994 3034 1497 
Q 3034 2003 2786 2293 
Q 2538 2584 2113 2584 
z
M 3366 4563 
L 3366 3988 
Q 3128 4100 2886 4159 
Q 2644 4219 2406 4219 
Q 1781 4219 1451 3797 
Q 1122 3375 1075 2522 
Q 1259 2794 1537 2939 
Q 1816 3084 2150 3084 
Q 2853 3084 3261 2657 
Q 3669 2231 3669 1497 
Q 3669 778 3244 343 
Q 2819 -91 2113 -91 
Q 1303 -91 875 529 
Q 447 1150 447 2328 
Q 447 3434 972 4092 
Q 1497 4750 2381 4750 
Q 2619 4750 2861 4703 
Q 3103 4656 3366 4563 
z
" transform="scale(0.015625)"/>
       </defs>
       <use xlink:href="#DejaVuSans-30"/>
       <use xlink:href="#DejaVuSans-2e" x="63.623047"/>
       <use xlink:href="#DejaVuSans-36" x="95.410156"/>
      </g>
     </g>
    </g>
    <g id="ytick_5">
     <g id="line2d_14">
      <g>
       <use xlink:href="#m66bd87fd7e" x="108" y="137.262857" style="stroke: #000000; stroke-width: 1.875"/>
      </g>
     </g>
     <g id="text_15">
      <!-- 0.8 -->
      <g transform="translate(69.259844 143.531568)scale(0.165 -0.165)">
       <defs>
        <path id="DejaVuSans-38" d="M 2034 2216 
Q 1584 2216 1326 1975 
Q 1069 1734 1069 1313 
Q 1069 891 1326 650 
Q 1584 409 2034 409 
Q 2484 409 2743 651 
Q 3003 894 3003 1313 
Q 3003 1734 2745 1975 
Q 2488 2216 2034 2216 
z
M 1403 2484 
Q 997 2584 770 2862 
Q 544 3141 544 3541 
Q 544 4100 942 4425 
Q 1341 4750 2034 4750 
Q 2731 4750 3128 4425 
Q 3525 4100 3525 3541 
Q 3525 3141 3298 2862 
Q 3072 2584 2669 2484 
Q 3125 2378 3379 2068 
Q 3634 1759 3634 1313 
Q 3634 634 3220 271 
Q 2806 -91 2034 -91 
Q 1263 -91 848 271 
Q 434 634 434 1313 
Q 434 1759 690 2068 
Q 947 2378 1403 2484 
z
M 1172 3481 
Q 1172 3119 1398 2916 
Q 1625 2713 2034 2713 
Q 2441 2713 2670 2916 
Q 2900 3119 2900 3481 
Q 2900 3844 2670 4047 
Q 2441 4250 2034 4250 
Q 1625 4250 1398 4047 
Q 1172 3844 1172 3481 
z
" transform="scale(0.015625)"/>
       </defs>
       <use xlink:href="#DejaVuSans-30"/>
       <use xlink:href="#DejaVuSans-2e" x="63.623047"/>
       <use xlink:href="#DejaVuSans-38" x="95.410156"/>
      </g>
     </g>
    </g>
    <g id="ytick_6">
     <g id="line2d_15">
      <g>
       <use xlink:href="#m66bd87fd7e" x="108" y="80.784935" style="stroke: #000000; stroke-width: 1.875"/>
      </g>
     </g>
     <g id="text_16">
      <!-- 1.0 -->
      <g transform="translate(69.259844 87.053646)scale(0.165 -0.165)">
       <use xlink:href="#DejaVuSans-31"/>
       <use xlink:href="#DejaVuSans-2e" x="63.623047"/>
       <use xlink:href="#DejaVuSans-30" x="95.410156"/>
      </g>
     </g>
    </g>
    <g id="text_17">
     <!-- prediction accuracy -->
     <g transform="translate(61.516406 303.537656)rotate(-90)scale(0.18 -0.18)">
      <defs>
       <path id="DejaVuSans-70" d="M 1159 525 
L 1159 -1331 
L 581 -1331 
L 581 3500 
L 1159 3500 
L 1159 2969 
Q 1341 3281 1617 3432 
Q 1894 3584 2278 3584 
Q 2916 3584 3314 3078 
Q 3713 2572 3713 1747 
Q 3713 922 3314 415 
Q 2916 -91 2278 -91 
Q 1894 -91 1617 61 
Q 1341 213 1159 525 
z
M 3116 1747 
Q 3116 2381 2855 2742 
Q 2594 3103 2138 3103 
Q 1681 3103 1420 2742 
Q 1159 2381 1159 1747 
Q 1159 1113 1420 752 
Q 1681 391 2138 391 
Q 2594 391 2855 752 
Q 3116 1113 3116 1747 
z
" transform="scale(0.015625)"/>
       <path id="DejaVuSans-65" d="M 3597 1894 
L 3597 1613 
L 953 1613 
Q 991 1019 1311 708 
Q 1631 397 2203 397 
Q 2534 397 2845 478 
Q 3156 559 3463 722 
L 3463 178 
Q 3153 47 2828 -22 
Q 2503 -91 2169 -91 
Q 1331 -91 842 396 
Q 353 884 353 1716 
Q 353 2575 817 3079 
Q 1281 3584 2069 3584 
Q 2775 3584 3186 3129 
Q 3597 2675 3597 1894 
z
M 3022 2063 
Q 3016 2534 2758 2815 
Q 2500 3097 2075 3097 
Q 1594 3097 1305 2825 
Q 1016 2553 972 2059 
L 3022 2063 
z
" transform="scale(0.015625)"/>
       <path id="DejaVuSans-64" d="M 2906 2969 
L 2906 4863 
L 3481 4863 
L 3481 0 
L 2906 0 
L 2906 525 
Q 2725 213 2448 61 
Q 2172 -91 1784 -91 
Q 1150 -91 751 415 
Q 353 922 353 1747 
Q 353 2572 751 3078 
Q 1150 3584 1784 3584 
Q 2172 3584 2448 3432 
Q 2725 3281 2906 2969 
z
M 947 1747 
Q 947 1113 1208 752 
Q 1469 391 1925 391 
Q 2381 391 2643 752 
Q 2906 1113 2906 1747 
Q 2906 2381 2643 2742 
Q 2381 3103 1925 3103 
Q 1469 3103 1208 2742 
Q 947 2381 947 1747 
z
" transform="scale(0.015625)"/>
       <path id="DejaVuSans-63" d="M 3122 3366 
L 3122 2828 
Q 2878 2963 2633 3030 
Q 2388 3097 2138 3097 
Q 1578 3097 1268 2742 
Q 959 2388 959 1747 
Q 959 1106 1268 751 
Q 1578 397 2138 397 
Q 2388 397 2633 464 
Q 2878 531 3122 666 
L 3122 134 
Q 2881 22 2623 -34 
Q 2366 -91 2075 -91 
Q 1284 -91 818 406 
Q 353 903 353 1747 
Q 353 2603 823 3093 
Q 1294 3584 2113 3584 
Q 2378 3584 2631 3529 
Q 2884 3475 3122 3366 
z
" transform="scale(0.015625)"/>
       <path id="DejaVuSans-6f" d="M 1959 3097 
Q 1497 3097 1228 2736 
Q 959 2375 959 1747 
Q 959 1119 1226 758 
Q 1494 397 1959 397 
Q 2419 397 2687 759 
Q 2956 1122 2956 1747 
Q 2956 2369 2687 2733 
Q 2419 3097 1959 3097 
z
M 1959 3584 
Q 2709 3584 3137 3096 
Q 3566 2609 3566 1747 
Q 3566 888 3137 398 
Q 2709 -91 1959 -91 
Q 1206 -91 779 398 
Q 353 888 353 1747 
Q 353 2609 779 3096 
Q 1206 3584 1959 3584 
z
" transform="scale(0.015625)"/>
       <path id="DejaVuSans-6e" d="M 3513 2113 
L 3513 0 
L 2938 0 
L 2938 2094 
Q 2938 2591 2744 2837 
Q 2550 3084 2163 3084 
Q 1697 3084 1428 2787 
Q 1159 2491 1159 1978 
L 1159 0 
L 581 0 
L 581 3500 
L 1159 3500 
L 1159 2956 
Q 1366 3272 1645 3428 
Q 1925 3584 2291 3584 
Q 2894 3584 3203 3211 
Q 3513 2838 3513 2113 
z
" transform="scale(0.015625)"/>
       <path id="DejaVuSans-20" transform="scale(0.015625)"/>
       <path id="DejaVuSans-75" d="M 544 1381 
L 544 3500 
L 1119 3500 
L 1119 1403 
Q 1119 906 1312 657 
Q 1506 409 1894 409 
Q 2359 409 2629 706 
Q 2900 1003 2900 1516 
L 2900 3500 
L 3475 3500 
L 3475 0 
L 2900 0 
L 2900 538 
Q 2691 219 2414 64 
Q 2138 -91 1772 -91 
Q 1169 -91 856 284 
Q 544 659 544 1381 
z
M 1991 3584 
L 1991 3584 
z
" transform="scale(0.015625)"/>
       <path id="DejaVuSans-79" d="M 2059 -325 
Q 1816 -950 1584 -1140 
Q 1353 -1331 966 -1331 
L 506 -1331 
L 506 -850 
L 844 -850 
Q 1081 -850 1212 -737 
Q 1344 -625 1503 -206 
L 1606 56 
L 191 3500 
L 800 3500 
L 1894 763 
L 2988 3500 
L 3597 3500 
L 2059 -325 
z
" transform="scale(0.015625)"/>
      </defs>
      <use xlink:href="#DejaVuSans-70"/>
      <use xlink:href="#DejaVuSans-72" x="63.476562"/>
      <use xlink:href="#DejaVuSans-65" x="102.339844"/>
      <use xlink:href="#DejaVuSans-64" x="163.863281"/>
      <use xlink:href="#DejaVuSans-69" x="227.339844"/>
      <use xlink:href="#DejaVuSans-63" x="255.123047"/>
      <use xlink:href="#DejaVuSans-74" x="310.103516"/>
      <use xlink:href="#DejaVuSans-69" x="349.3125"/>
      <use xlink:href="#DejaVuSans-6f" x="377.095703"/>
      <use xlink:href="#DejaVuSans-6e" x="438.277344"/>
      <use xlink:href="#DejaVuSans-20" x="501.65625"/>
      <use xlink:href="#DejaVuSans-61" x="533.443359"/>
      <use xlink:href="#DejaVuSans-63" x="594.722656"/>
      <use xlink:href="#DejaVuSans-63" x="649.703125"/>
      <use xlink:href="#DejaVuSans-75" x="704.683594"/>
      <use xlink:href="#DejaVuSans-72" x="768.0625"/>
      <use xlink:href="#DejaVuSans-61" x="809.175781"/>
      <use xlink:href="#DejaVuSans-63" x="870.455078"/>
      <use xlink:href="#DejaVuSans-79" x="925.435547"/>
     </g>
    </g>
   </g>
   <g id="line2d_16">
    <path d="M 138.436364 243.441351 
L 141.48 214.92 
L 144.523636 235.053333 
L 147.567273 208.705015 
L 150.610909 217.110954 
L 153.654545 218.296398 
L 156.698182 228.577628 
L 159.741818 230.883917 
L 162.785455 223.229252 
L 165.829091 225.60012 
L 168.872727 207.620947 
L 171.916364 185.291326 
L 174.96 208.705015 
L 178.003636 230.015217 
L 181.047273 194.651713 
L 184.090909 231.238416 
L 187.134545 155.378417 
L 190.178182 235.216753 
L 193.221818 204.182076 
L 196.265455 196.518382 
L 199.309091 181.46297 
L 202.352727 213.674163 
L 205.396364 167.135477 
L 208.44 217.425069 
L 214.527273 198.447273 
L 217.570909 196.805473 
L 220.614545 198.833051 
L 223.658182 214.415733 
L 226.701818 220.918125 
L 229.745455 205.812396 
L 232.789091 224.372873 
L 235.832727 197.87331 
L 238.876364 217.350402 
L 241.92 216.750303 
L 244.963636 217.273247 
L 248.007273 219.458404 
L 251.050909 228.496424 
L 254.094545 204.182076 
L 257.138182 214.548435 
L 260.181818 206.555098 
L 263.225455 202.777247 
L 266.269091 200.257463 
L 269.312727 214.658528 
L 272.356364 204.33039 
L 275.4 207.620947 
L 278.443636 198.833051 
L 281.487273 252.23577 
L 284.530909 208.742727 
L 287.574545 234.209212 
L 290.618182 186.374094 
L 293.661818 211.118601 
L 296.705455 192.80726 
L 299.749091 218.231206 
L 302.792727 178.903359 
L 305.836364 223.251766 
L 308.88 217.110954 
L 311.923636 217.567403 
L 314.967273 186.963429 
L 318.010909 206.536558 
L 321.054545 165.988697 
L 324.098182 213.385274 
L 327.141818 199.287718 
L 330.185455 214.658528 
L 333.229091 191.093377 
L 336.272727 190.985759 
L 339.316364 187.259706 
L 342.36 208.705015 
L 345.403636 189.574375 
L 348.447273 229.411046 
L 351.490909 204.938988 
L 354.534545 212.12894 
L 357.578182 179.007408 
L 360.621818 187.514867 
L 363.665455 178.804469 
L 366.709091 185.542371 
L 369.752727 223.074274 
L 372.796364 197.326679 
L 375.84 162.972956 
L 378.883636 202.834682 
L 381.927273 205.507013 
L 384.970909 220.793229 
L 388.014545 198.632568 
L 391.058182 207.987462 
L 397.145455 188.689908 
L 400.189091 206.536558 
L 403.232727 182.268701 
L 406.276364 194.689988 
L 409.32 197.208722 
L 412.363636 177.268052 
L 415.407273 185.1979 
L 418.450909 202.504595 
L 421.494545 237.404383 
L 424.538182 177.724652 
L 427.581818 210.014079 
L 430.625455 185.860139 
L 433.669091 201.809054 
L 436.712727 211.477647 
L 439.756364 224.332987 
L 442.8 169.960602 
L 445.843636 232.065083 
L 448.887273 209.373061 
L 454.974545 179.832037 
L 458.018182 205.56174 
L 461.061818 216.937069 
L 464.105455 212.912184 
L 467.149091 175.705813 
L 470.192727 197.189813 
L 473.236364 217.025537 
L 476.28 217.497365 
L 479.323636 213.075563 
L 482.367273 200.070202 
L 485.410909 171.640723 
L 488.454545 189.738407 
L 491.498182 201.809054 
L 494.541818 193.740779 
L 497.585455 195.913007 
L 500.629091 207.056712 
L 503.672727 209.807774 
L 506.716364 192.767022 
L 509.76 189.943944 
L 512.803636 193.217835 
L 515.847273 221.97974 
L 518.890909 191.192903 
L 521.934545 186.681039 
L 524.978182 190.86902 
L 528.021818 197.635808 
L 531.065455 189.034286 
L 534.109091 205.036364 
L 537.152727 183.918532 
L 540.196364 174.117094 
L 543.24 226.848527 
L 546.283636 194.245046 
L 549.327273 217.635285 
L 552.370909 202.142454 
L 555.414545 192.723159 
L 558.458182 186.120742 
L 561.501818 219.807512 
L 564.545455 199.808655 
L 567.589091 176.510227 
L 570.632727 200.355311 
L 573.676364 200.51813 
L 576.72 196.713301 
L 579.763636 233.745974 
L 582.807273 186.082756 
L 585.850909 197.635808 
L 588.894545 183.472066 
L 591.938182 210.593062 
L 594.981818 171.878358 
L 598.025455 208.315727 
L 601.069091 214.278205 
L 604.112727 201.809054 
L 607.156364 176.551846 
L 610.2 200.800519 
L 613.243636 186.982737 
L 616.287273 214.415733 
L 619.330909 170.959769 
L 622.374545 204.938988 
L 625.418182 199.139404 
L 628.461818 228.923747 
L 631.505455 193.281609 
L 634.549091 210.531513 
L 637.592727 180.144242 
L 640.636364 197.06301 
L 643.68 189.943944 
L 646.723636 166.279037 
L 649.767273 198.798504 
L 652.810909 194.203713 
L 655.854545 184.47487 
L 658.898182 209.143849 
L 661.941818 207.86026 
L 664.985455 210.406396 
L 668.029091 205.56174 
L 671.072727 199.808655 
L 674.116364 203.153766 
L 677.16 202.186076 
L 680.203636 212.721065 
L 683.247273 190.332629 
L 686.290909 204.640027 
L 692.378182 181.802357 
L 695.421818 182.824878 
L 698.465455 190.86902 
L 701.509091 208.705015 
L 704.552727 189.069673 
L 707.596364 196.637083 
L 710.64 186.982737 
L 713.683636 182.445195 
L 716.727273 180.844246 
L 719.770909 179.869009 
L 722.814545 192.186341 
L 725.858182 196.196341 
L 728.901818 191.723711 
L 731.945455 171.640723 
L 734.989091 199.567866 
L 738.032727 170.323104 
L 741.076364 199.050669 
L 744.12 197.06301 
L 744.12 197.06301 
" clip-path="url(#pabac605a2a)" style="fill: none; stroke: #1f77b4; stroke-width: 2.25; stroke-linecap: square"/>
   </g>
   <g id="line2d_17">
    <path d="M 108 221.97974 
L 777.6 221.97974 
" clip-path="url(#pabac605a2a)" style="fill: none; stroke: #000000; stroke-width: 2.25; stroke-linecap: square"/>
   </g>
   <g id="patch_3">
    <path d="M 108 378 
L 108 51.84 
" style="fill: none; stroke: #000000; stroke-width: 1.875; stroke-linejoin: miter; stroke-linecap: square"/>
   </g>
   <g id="patch_4">
    <path d="M 777.6 378 
L 777.6 51.84 
" style="fill: none; stroke: #000000; stroke-width: 1.875; stroke-linejoin: miter; stroke-linecap: square"/>
   </g>
   <g id="patch_5">
    <path d="M 108 378 
L 777.6 378 
" style="fill: none; stroke: #000000; stroke-width: 1.875; stroke-linejoin: miter; stroke-linecap: square"/>
   </g>
   <g id="patch_6">
    <path d="M 108 51.84 
L 777.6 51.84 
" style="fill: none; stroke: #000000; stroke-width: 1.875; stroke-linejoin: miter; stroke-linecap: square"/>
   </g>
  </g>
 </g>
 <defs>
  <clipPath id="pabac605a2a">
   <rect x="108" y="51.84" width="669.6" height="326.16"/>
  </clipPath>
 </defs>
</svg>
