<?xml version="1.0" encoding="utf-8" standalone="no"?>
<!DOCTYPE svg PUBLIC "-//W3C//DTD SVG 1.1//EN"
  "http://www.w3.org/Graphics/SVG/1.1/DTD/svg11.dtd">
<svg xmlns:xlink="http://www.w3.org/1999/xlink" width="864pt" height="432pt" viewBox="0 0 864 432" xmlns="http://www.w3.org/2000/svg" version="1.1">
 <metadata>
  <rdf:RDF xmlns:dc="http://purl.org/dc/elements/1.1/" xmlns:cc="http://creativecommons.org/ns#" xmlns:rdf="http://www.w3.org/1999/02/22-rdf-syntax-ns#">
   <cc:Work>
    <dc:type rdf:resource="http://purl.org/dc/dcmitype/StillImage"/>
    <dc:date>2023-05-02T17:32:33.305062</dc:date>
    <dc:format>image/svg+xml</dc:format>
    <dc:creator>
     <cc:Agent>
      <dc:title>Matplotlib v3.5.1, https://matplotlib.org/</dc:title>
     </cc:Agent>
    </dc:creator>
   </cc:Work>
  </rdf:RDF>
 </metadata>
 <defs>
  <style type="text/css">*{stroke-linejoin: round; stroke-linecap: butt}</style>
 </defs>
 <g id="figure_1">
  <g id="patch_1">
   <path d="M 0 432 
L 864 432 
L 864 0 
L 0 0 
L 0 432 
z
" style="fill: none"/>
  </g>
  <g id="axes_1">
   <g id="patch_2">
    <path d="M 108 378 
L 777.6 378 
L 777.6 51.84 
L 108 51.84 
z
" style="fill: #ffffff"/>
   </g>
   <g id="PolyCollection_1">
    <defs>
     <path id="m206d4688fe" d="M 276.513514 -68.825455 
L 274.286486 -68.825455 
L 273.971864 -71.820496 
L 273.583672 -74.815537 
L 273.109236 -77.810579 
L 272.534915 -80.80562 
L 271.846364 -83.800661 
L 271.028884 -86.795702 
L 270.067886 -89.790744 
L 268.949454 -92.785785 
L 267.66101 -95.780826 
L 266.192066 -98.775868 
L 264.535038 -101.770909 
L 262.686079 -104.76595 
L 260.645917 -107.760992 
L 258.420619 -110.756033 
L 256.02225 -113.751074 
L 253.469354 -116.746116 
L 250.787223 -119.741157 
L 248.00788 -122.736198 
L 245.169768 -125.73124 
L 242.31709 -128.726281 
L 239.498819 -131.721322 
L 236.767387 -134.716364 
L 234.177078 -137.711405 
L 231.782205 -140.706446 
L 229.635125 -143.701488 
L 227.78421 -146.696529 
L 226.271855 -149.69157 
L 225.13264 -152.686612 
L 224.391743 -155.681653 
L 224.063701 -158.676694 
L 224.151584 -161.671736 
L 224.646633 -164.666777 
L 225.528393 -167.661818 
L 226.765329 -170.65686 
L 228.315887 -173.651901 
L 230.129958 -176.646942 
L 232.150647 -179.641983 
L 234.316258 -182.637025 
L 236.56239 -185.632066 
L 238.824032 -188.627107 
L 241.037546 -191.622149 
L 243.14245 -194.61719 
L 245.082917 -197.612231 
L 246.808924 -200.607273 
L 248.277029 -203.602314 
L 249.45075 -206.597355 
L 250.300574 -209.592397 
L 250.803625 -212.587438 
L 250.94307 -215.582479 
L 250.707337 -218.577521 
L 250.089244 -221.572562 
L 249.085145 -224.567603 
L 247.694197 -227.562645 
L 245.917847 -230.557686 
L 243.75961 -233.552727 
L 241.225196 -236.547769 
L 238.323009 -239.54281 
L 235.065001 -242.537851 
L 231.467823 -245.532893 
L 227.554189 -248.527934 
L 223.354331 -251.522975 
L 218.907374 -254.518017 
L 214.2625 -257.513058 
L 209.479702 -260.508099 
L 204.630008 -263.50314 
L 199.795021 -266.498182 
L 195.06572 -269.493223 
L 190.540486 -272.488264 
L 186.322381 -275.483306 
L 182.515786 -278.478347 
L 179.222543 -281.473388 
L 176.537821 -284.46843 
L 174.545932 -287.463471 
L 173.316378 -290.458512 
L 172.900371 -293.453554 
L 173.328081 -296.448595 
L 174.606805 -299.443636 
L 176.720185 -302.438678 
L 179.628564 -305.433719 
L 183.270454 -308.42876 
L 187.565041 -311.423802 
L 192.415575 -314.418843 
L 197.713425 -317.413884 
L 203.34256 -320.408926 
L 209.184186 -323.403967 
L 215.121264 -326.399008 
L 221.042671 -329.39405 
L 226.846791 -332.389091 
L 232.444387 -335.384132 
L 237.760651 -338.379174 
L 242.736395 -341.374215 
L 247.328409 -344.369256 
L 251.509064 -347.364298 
L 255.265261 -350.359339 
L 258.596875 -353.35438 
L 261.514843 -356.349421 
L 264.039051 -359.344463 
L 266.196169 -362.339504 
L 268.017544 -365.334545 
L 282.782456 -365.334545 
L 282.782456 -365.334545 
L 284.603831 -362.339504 
L 286.760949 -359.344463 
L 289.285157 -356.349421 
L 292.203125 -353.35438 
L 295.534739 -350.359339 
L 299.290936 -347.364298 
L 303.471591 -344.369256 
L 308.063605 -341.374215 
L 313.039349 -338.379174 
L 318.355613 -335.384132 
L 323.953209 -332.389091 
L 329.757329 -329.39405 
L 335.678736 -326.399008 
L 341.615814 -323.403967 
L 347.45744 -320.408926 
L 353.086575 -317.413884 
L 358.384425 -314.418843 
L 363.234959 -311.423802 
L 367.529546 -308.42876 
L 371.171436 -305.433719 
L 374.079815 -302.438678 
L 376.193195 -299.443636 
L 377.471919 -296.448595 
L 377.899629 -293.453554 
L 377.483622 -290.458512 
L 376.254068 -287.463471 
L 374.262179 -284.46843 
L 371.577457 -281.473388 
L 368.284214 -278.478347 
L 364.477619 -275.483306 
L 360.259514 -272.488264 
L 355.73428 -269.493223 
L 351.004979 -266.498182 
L 346.169992 -263.50314 
L 341.320298 -260.508099 
L 336.5375 -257.513058 
L 331.892626 -254.518017 
L 327.445669 -251.522975 
L 323.245811 -248.527934 
L 319.332177 -245.532893 
L 315.734999 -242.537851 
L 312.476991 -239.54281 
L 309.574804 -236.547769 
L 307.04039 -233.552727 
L 304.882153 -230.557686 
L 303.105803 -227.562645 
L 301.714855 -224.567603 
L 300.710756 -221.572562 
L 300.092663 -218.577521 
L 299.85693 -215.582479 
L 299.996375 -212.587438 
L 300.499426 -209.592397 
L 301.34925 -206.597355 
L 302.522971 -203.602314 
L 303.991076 -200.607273 
L 305.717083 -197.612231 
L 307.65755 -194.61719 
L 309.762454 -191.622149 
L 311.975968 -188.627107 
L 314.23761 -185.632066 
L 316.483742 -182.637025 
L 318.649353 -179.641983 
L 320.670042 -176.646942 
L 322.484113 -173.651901 
L 324.034671 -170.65686 
L 325.271607 -167.661818 
L 326.153367 -164.666777 
L 326.648416 -161.671736 
L 326.736299 -158.676694 
L 326.408257 -155.681653 
L 325.66736 -152.686612 
L 324.528145 -149.69157 
L 323.01579 -146.696529 
L 321.164875 -143.701488 
L 319.017795 -140.706446 
L 316.622922 -137.711405 
L 314.032613 -134.716364 
L 311.301181 -131.721322 
L 308.48291 -128.726281 
L 305.630232 -125.73124 
L 302.79212 -122.736198 
L 300.012777 -119.741157 
L 297.330646 -116.746116 
L 294.77775 -113.751074 
L 292.379381 -110.756033 
L 290.154083 -107.760992 
L 288.113921 -104.76595 
L 286.264962 -101.770909 
L 284.607934 -98.775868 
L 283.13899 -95.780826 
L 281.850546 -92.785785 
L 280.732114 -89.790744 
L 279.771116 -86.795702 
L 278.953636 -83.800661 
L 278.265085 -80.80562 
L 277.690764 -77.810579 
L 277.216328 -74.815537 
L 276.828136 -71.820496 
L 276.513514 -68.825455 
z
" style="stroke: #3f3f3f; stroke-width: 2.25"/>
    </defs>
    <g clip-path="url(#pdadc066d58)">
     <use xlink:href="#m206d4688fe" x="0" y="432" style="fill: #3274a1; stroke: #3f3f3f; stroke-width: 2.25"/>
    </g>
   </g>
   <g id="PolyCollection_2">
    <defs>
     <path id="m4b97800393" d="M 611.547154 -80.000269 
L 608.852846 -80.000269 
L 608.336089 -82.686943 
L 607.658711 -85.373618 
L 606.784772 -88.060292 
L 605.674735 -90.746967 
L 604.286358 -93.433641 
L 602.57593 -96.120315 
L 600.499822 -98.80699 
L 598.016309 -101.493664 
L 595.087571 -104.180339 
L 591.681781 -106.867013 
L 587.775178 -109.553688 
L 583.354026 -112.240362 
L 578.416364 -114.927037 
L 572.97348 -117.613711 
L 567.051061 -120.300386 
L 560.689962 -122.98706 
L 553.946562 -125.673735 
L 546.892656 -128.360409 
L 539.614839 -131.047083 
L 532.213304 -133.733758 
L 524.800026 -136.420432 
L 517.496275 -139.107107 
L 510.429475 -141.793781 
L 503.729469 -144.480456 
L 497.524294 -147.16713 
L 491.935666 -149.853805 
L 487.074388 -152.540479 
L 483.035929 -155.227154 
L 479.896442 -157.913828 
L 477.709441 -160.600502 
L 476.50334 -163.287177 
L 476.28 -165.973851 
L 477.01439 -168.660526 
L 478.655417 -171.3472 
L 481.127945 -174.033875 
L 484.33597 -176.720549 
L 488.166874 -179.407224 
L 492.496615 -182.093898 
L 497.195624 -184.780573 
L 502.135113 -187.467247 
L 507.193394 -190.153921 
L 512.261758 -192.840596 
L 517.249447 -195.52727 
L 522.087241 -198.213945 
L 526.729318 -200.900619 
L 531.153137 -203.587294 
L 535.357329 -206.273968 
L 539.357765 -208.960643 
L 543.182189 -211.647317 
L 546.864002 -214.333992 
L 550.435862 -217.020666 
L 553.923829 -219.70734 
L 557.342709 -222.394015 
L 560.693121 -225.080689 
L 563.960596 -227.767364 
L 567.116787 -230.454038 
L 570.122592 -233.140713 
L 572.932779 -235.827387 
L 575.501532 -238.514062 
L 577.788216 -241.200736 
L 579.762649 -243.887411 
L 581.409258 -246.574085 
L 582.7296 -249.260759 
L 583.742985 -251.947434 
L 584.485146 -254.634108 
L 585.005148 -257.320783 
L 585.360966 -260.007457 
L 585.614302 -262.694132 
L 585.825287 -265.380806 
L 586.04773 -268.067481 
L 586.325434 -270.754155 
L 586.689957 -273.44083 
L 587.159962 -276.127504 
L 587.742055 -278.814179 
L 588.432836 -281.500853 
L 589.221707 -284.187527 
L 590.093943 -286.874202 
L 591.033543 -289.560876 
L 592.025464 -292.247551 
L 593.057016 -294.934225 
L 594.118349 -297.6209 
L 595.202129 -300.307574 
L 596.302645 -302.994249 
L 597.414634 -305.680923 
L 598.532126 -308.367598 
L 599.647581 -311.054272 
L 600.751462 -313.740946 
L 601.832324 -316.427621 
L 602.877364 -319.114295 
L 603.87331 -321.80097 
L 604.807482 -324.487644 
L 605.668838 -327.174319 
L 606.448845 -329.860993 
L 607.142067 -332.547668 
L 607.746416 -335.234342 
L 608.263064 -337.921017 
L 608.69607 -340.607691 
L 609.051804 -343.294365 
L 609.338257 -345.98104 
L 611.061743 -345.98104 
L 611.061743 -345.98104 
L 611.348196 -343.294365 
L 611.70393 -340.607691 
L 612.136936 -337.921017 
L 612.653584 -335.234342 
L 613.257933 -332.547668 
L 613.951155 -329.860993 
L 614.731162 -327.174319 
L 615.592518 -324.487644 
L 616.52669 -321.80097 
L 617.522636 -319.114295 
L 618.567676 -316.427621 
L 619.648538 -313.740946 
L 620.752419 -311.054272 
L 621.867874 -308.367598 
L 622.985366 -305.680923 
L 624.097355 -302.994249 
L 625.197871 -300.307574 
L 626.281651 -297.6209 
L 627.342984 -294.934225 
L 628.374536 -292.247551 
L 629.366457 -289.560876 
L 630.306057 -286.874202 
L 631.178293 -284.187527 
L 631.967164 -281.500853 
L 632.657945 -278.814179 
L 633.240038 -276.127504 
L 633.710043 -273.44083 
L 634.074566 -270.754155 
L 634.35227 -268.067481 
L 634.574713 -265.380806 
L 634.785698 -262.694132 
L 635.039034 -260.007457 
L 635.394852 -257.320783 
L 635.914854 -254.634108 
L 636.657015 -251.947434 
L 637.6704 -249.260759 
L 638.990742 -246.574085 
L 640.637351 -243.887411 
L 642.611784 -241.200736 
L 644.898468 -238.514062 
L 647.467221 -235.827387 
L 650.277408 -233.140713 
L 653.283213 -230.454038 
L 656.439404 -227.767364 
L 659.706879 -225.080689 
L 663.057291 -222.394015 
L 666.476171 -219.70734 
L 669.964138 -217.020666 
L 673.535998 -214.333992 
L 677.217811 -211.647317 
L 681.042235 -208.960643 
L 685.042671 -206.273968 
L 689.246863 -203.587294 
L 693.670682 -200.900619 
L 698.312759 -198.213945 
L 703.150553 -195.52727 
L 708.138242 -192.840596 
L 713.206606 -190.153921 
L 718.264887 -187.467247 
L 723.204376 -184.780573 
L 727.903385 -182.093898 
L 732.233126 -179.407224 
L 736.06403 -176.720549 
L 739.272055 -174.033875 
L 741.744583 -171.3472 
L 743.38561 -168.660526 
L 744.12 -165.973851 
L 743.89666 -163.287177 
L 742.690559 -160.600502 
L 740.503558 -157.913828 
L 737.364071 -155.227154 
L 733.325612 -152.540479 
L 728.464334 -149.853805 
L 722.875706 -147.16713 
L 716.670531 -144.480456 
L 709.970525 -141.793781 
L 702.903725 -139.107107 
L 695.599974 -136.420432 
L 688.186696 -133.733758 
L 680.785161 -131.047083 
L 673.507344 -128.360409 
L 666.453438 -125.673735 
L 659.710038 -122.98706 
L 653.348939 -120.300386 
L 647.42652 -117.613711 
L 641.983636 -114.927037 
L 637.045974 -112.240362 
L 632.624822 -109.553688 
L 628.718219 -106.867013 
L 625.312429 -104.180339 
L 622.383691 -101.493664 
L 619.900178 -98.80699 
L 617.82407 -96.120315 
L 616.113642 -93.433641 
L 614.725265 -90.746967 
L 613.615228 -88.060292 
L 612.741289 -85.373618 
L 612.063911 -82.686943 
L 611.547154 -80.000269 
z
" style="stroke: #3f3f3f; stroke-width: 2.25"/>
    </defs>
    <g clip-path="url(#pdadc066d58)">
     <use xlink:href="#m4b97800393" x="0" y="432" style="fill: #e1812c; stroke: #3f3f3f; stroke-width: 2.25"/>
    </g>
   </g>
   <g id="matplotlib.axis_1">
    <g id="xtick_1">
     <g id="line2d_1">
      <defs>
       <path id="mb57013851f" d="M 0 0 
L 0 9 
" style="stroke: #000000; stroke-width: 1.875"/>
      </defs>
      <g>
       <use xlink:href="#mb57013851f" x="275.4" y="378" style="stroke: #000000; stroke-width: 1.875"/>
      </g>
     </g>
     <g id="text_1">
      <!-- blocked -->
      <g transform="translate(243.494414 403.037422)scale(0.165 -0.165)">
       <defs>
        <path id="DejaVuSans-62" d="M 3116 1747 
Q 3116 2381 2855 2742 
Q 2594 3103 2138 3103 
Q 1681 3103 1420 2742 
Q 1159 2381 1159 1747 
Q 1159 1113 1420 752 
Q 1681 391 2138 391 
Q 2594 391 2855 752 
Q 3116 1113 3116 1747 
z
M 1159 2969 
Q 1341 3281 1617 3432 
Q 1894 3584 2278 3584 
Q 2916 3584 3314 3078 
Q 3713 2572 3713 1747 
Q 3713 922 3314 415 
Q 2916 -91 2278 -91 
Q 1894 -91 1617 61 
Q 1341 213 1159 525 
L 1159 0 
L 581 0 
L 581 4863 
L 1159 4863 
L 1159 2969 
z
" transform="scale(0.015625)"/>
        <path id="DejaVuSans-6c" d="M 603 4863 
L 1178 4863 
L 1178 0 
L 603 0 
L 603 4863 
z
" transform="scale(0.015625)"/>
        <path id="DejaVuSans-6f" d="M 1959 3097 
Q 1497 3097 1228 2736 
Q 959 2375 959 1747 
Q 959 1119 1226 758 
Q 1494 397 1959 397 
Q 2419 397 2687 759 
Q 2956 1122 2956 1747 
Q 2956 2369 2687 2733 
Q 2419 3097 1959 3097 
z
M 1959 3584 
Q 2709 3584 3137 3096 
Q 3566 2609 3566 1747 
Q 3566 888 3137 398 
Q 2709 -91 1959 -91 
Q 1206 -91 779 398 
Q 353 888 353 1747 
Q 353 2609 779 3096 
Q 1206 3584 1959 3584 
z
" transform="scale(0.015625)"/>
        <path id="DejaVuSans-63" d="M 3122 3366 
L 3122 2828 
Q 2878 2963 2633 3030 
Q 2388 3097 2138 3097 
Q 1578 3097 1268 2742 
Q 959 2388 959 1747 
Q 959 1106 1268 751 
Q 1578 397 2138 397 
Q 2388 397 2633 464 
Q 2878 531 3122 666 
L 3122 134 
Q 2881 22 2623 -34 
Q 2366 -91 2075 -91 
Q 1284 -91 818 406 
Q 353 903 353 1747 
Q 353 2603 823 3093 
Q 1294 3584 2113 3584 
Q 2378 3584 2631 3529 
Q 2884 3475 3122 3366 
z
" transform="scale(0.015625)"/>
        <path id="DejaVuSans-6b" d="M 581 4863 
L 1159 4863 
L 1159 1991 
L 2875 3500 
L 3609 3500 
L 1753 1863 
L 3688 0 
L 2938 0 
L 1159 1709 
L 1159 0 
L 581 0 
L 581 4863 
z
" transform="scale(0.015625)"/>
        <path id="DejaVuSans-65" d="M 3597 1894 
L 3597 1613 
L 953 1613 
Q 991 1019 1311 708 
Q 1631 397 2203 397 
Q 2534 397 2845 478 
Q 3156 559 3463 722 
L 3463 178 
Q 3153 47 2828 -22 
Q 2503 -91 2169 -91 
Q 1331 -91 842 396 
Q 353 884 353 1716 
Q 353 2575 817 3079 
Q 1281 3584 2069 3584 
Q 2775 3584 3186 3129 
Q 3597 2675 3597 1894 
z
M 3022 2063 
Q 3016 2534 2758 2815 
Q 2500 3097 2075 3097 
Q 1594 3097 1305 2825 
Q 1016 2553 972 2059 
L 3022 2063 
z
" transform="scale(0.015625)"/>
        <path id="DejaVuSans-64" d="M 2906 2969 
L 2906 4863 
L 3481 4863 
L 3481 0 
L 2906 0 
L 2906 525 
Q 2725 213 2448 61 
Q 2172 -91 1784 -91 
Q 1150 -91 751 415 
Q 353 922 353 1747 
Q 353 2572 751 3078 
Q 1150 3584 1784 3584 
Q 2172 3584 2448 3432 
Q 2725 3281 2906 2969 
z
M 947 1747 
Q 947 1113 1208 752 
Q 1469 391 1925 391 
Q 2381 391 2643 752 
Q 2906 1113 2906 1747 
Q 2906 2381 2643 2742 
Q 2381 3103 1925 3103 
Q 1469 3103 1208 2742 
Q 947 2381 947 1747 
z
" transform="scale(0.015625)"/>
       </defs>
       <use xlink:href="#DejaVuSans-62"/>
       <use xlink:href="#DejaVuSans-6c" x="63.476562"/>
       <use xlink:href="#DejaVuSans-6f" x="91.259766"/>
       <use xlink:href="#DejaVuSans-63" x="152.441406"/>
       <use xlink:href="#DejaVuSans-6b" x="207.421875"/>
       <use xlink:href="#DejaVuSans-65" x="261.707031"/>
       <use xlink:href="#DejaVuSans-64" x="323.230469"/>
      </g>
     </g>
    </g>
    <g id="xtick_2">
     <g id="line2d_2">
      <g>
       <use xlink:href="#mb57013851f" x="610.2" y="378" style="stroke: #000000; stroke-width: 1.875"/>
      </g>
     </g>
     <g id="text_2">
      <!-- interleaved -->
      <g transform="translate(563.356758 403.037422)scale(0.165 -0.165)">
       <defs>
        <path id="DejaVuSans-69" d="M 603 3500 
L 1178 3500 
L 1178 0 
L 603 0 
L 603 3500 
z
M 603 4863 
L 1178 4863 
L 1178 4134 
L 603 4134 
L 603 4863 
z
" transform="scale(0.015625)"/>
        <path id="DejaVuSans-6e" d="M 3513 2113 
L 3513 0 
L 2938 0 
L 2938 2094 
Q 2938 2591 2744 2837 
Q 2550 3084 2163 3084 
Q 1697 3084 1428 2787 
Q 1159 2491 1159 1978 
L 1159 0 
L 581 0 
L 581 3500 
L 1159 3500 
L 1159 2956 
Q 1366 3272 1645 3428 
Q 1925 3584 2291 3584 
Q 2894 3584 3203 3211 
Q 3513 2838 3513 2113 
z
" transform="scale(0.015625)"/>
        <path id="DejaVuSans-74" d="M 1172 4494 
L 1172 3500 
L 2356 3500 
L 2356 3053 
L 1172 3053 
L 1172 1153 
Q 1172 725 1289 603 
Q 1406 481 1766 481 
L 2356 481 
L 2356 0 
L 1766 0 
Q 1100 0 847 248 
Q 594 497 594 1153 
L 594 3053 
L 172 3053 
L 172 3500 
L 594 3500 
L 594 4494 
L 1172 4494 
z
" transform="scale(0.015625)"/>
        <path id="DejaVuSans-72" d="M 2631 2963 
Q 2534 3019 2420 3045 
Q 2306 3072 2169 3072 
Q 1681 3072 1420 2755 
Q 1159 2438 1159 1844 
L 1159 0 
L 581 0 
L 581 3500 
L 1159 3500 
L 1159 2956 
Q 1341 3275 1631 3429 
Q 1922 3584 2338 3584 
Q 2397 3584 2469 3576 
Q 2541 3569 2628 3553 
L 2631 2963 
z
" transform="scale(0.015625)"/>
        <path id="DejaVuSans-61" d="M 2194 1759 
Q 1497 1759 1228 1600 
Q 959 1441 959 1056 
Q 959 750 1161 570 
Q 1363 391 1709 391 
Q 2188 391 2477 730 
Q 2766 1069 2766 1631 
L 2766 1759 
L 2194 1759 
z
M 3341 1997 
L 3341 0 
L 2766 0 
L 2766 531 
Q 2569 213 2275 61 
Q 1981 -91 1556 -91 
Q 1019 -91 701 211 
Q 384 513 384 1019 
Q 384 1609 779 1909 
Q 1175 2209 1959 2209 
L 2766 2209 
L 2766 2266 
Q 2766 2663 2505 2880 
Q 2244 3097 1772 3097 
Q 1472 3097 1187 3025 
Q 903 2953 641 2809 
L 641 3341 
Q 956 3463 1253 3523 
Q 1550 3584 1831 3584 
Q 2591 3584 2966 3190 
Q 3341 2797 3341 1997 
z
" transform="scale(0.015625)"/>
        <path id="DejaVuSans-76" d="M 191 3500 
L 800 3500 
L 1894 563 
L 2988 3500 
L 3597 3500 
L 2284 0 
L 1503 0 
L 191 3500 
z
" transform="scale(0.015625)"/>
       </defs>
       <use xlink:href="#DejaVuSans-69"/>
       <use xlink:href="#DejaVuSans-6e" x="27.783203"/>
       <use xlink:href="#DejaVuSans-74" x="91.162109"/>
       <use xlink:href="#DejaVuSans-65" x="130.371094"/>
       <use xlink:href="#DejaVuSans-72" x="191.894531"/>
       <use xlink:href="#DejaVuSans-6c" x="233.007812"/>
       <use xlink:href="#DejaVuSans-65" x="260.791016"/>
       <use xlink:href="#DejaVuSans-61" x="322.314453"/>
       <use xlink:href="#DejaVuSans-76" x="383.59375"/>
       <use xlink:href="#DejaVuSans-65" x="442.773438"/>
       <use xlink:href="#DejaVuSans-64" x="504.296875"/>
      </g>
     </g>
    </g>
    <g id="text_3">
     <!-- condition -->
     <g transform="translate(401.187656 424.146094)scale(0.18 -0.18)">
      <use xlink:href="#DejaVuSans-63"/>
      <use xlink:href="#DejaVuSans-6f" x="54.980469"/>
      <use xlink:href="#DejaVuSans-6e" x="116.162109"/>
      <use xlink:href="#DejaVuSans-64" x="179.541016"/>
      <use xlink:href="#DejaVuSans-69" x="243.017578"/>
      <use xlink:href="#DejaVuSans-74" x="270.800781"/>
      <use xlink:href="#DejaVuSans-69" x="310.009766"/>
      <use xlink:href="#DejaVuSans-6f" x="337.792969"/>
      <use xlink:href="#DejaVuSans-6e" x="398.974609"/>
     </g>
    </g>
   </g>
   <g id="matplotlib.axis_2">
    <g id="ytick_1">
     <g id="line2d_3">
      <defs>
       <path id="m2d5c5b3c31" d="M 0 0 
L -9 0 
" style="stroke: #000000; stroke-width: 1.875"/>
      </defs>
      <g>
       <use xlink:href="#m2d5c5b3c31" x="108" y="360.724544" style="stroke: #000000; stroke-width: 1.875"/>
      </g>
     </g>
     <g id="text_4">
      <!-- 0.2 -->
      <g transform="translate(69.259844 366.993255)scale(0.165 -0.165)">
       <defs>
        <path id="DejaVuSans-30" d="M 2034 4250 
Q 1547 4250 1301 3770 
Q 1056 3291 1056 2328 
Q 1056 1369 1301 889 
Q 1547 409 2034 409 
Q 2525 409 2770 889 
Q 3016 1369 3016 2328 
Q 3016 3291 2770 3770 
Q 2525 4250 2034 4250 
z
M 2034 4750 
Q 2819 4750 3233 4129 
Q 3647 3509 3647 2328 
Q 3647 1150 3233 529 
Q 2819 -91 2034 -91 
Q 1250 -91 836 529 
Q 422 1150 422 2328 
Q 422 3509 836 4129 
Q 1250 4750 2034 4750 
z
" transform="scale(0.015625)"/>
        <path id="DejaVuSans-2e" d="M 684 794 
L 1344 794 
L 1344 0 
L 684 0 
L 684 794 
z
" transform="scale(0.015625)"/>
        <path id="DejaVuSans-32" d="M 1228 531 
L 3431 531 
L 3431 0 
L 469 0 
L 469 531 
Q 828 903 1448 1529 
Q 2069 2156 2228 2338 
Q 2531 2678 2651 2914 
Q 2772 3150 2772 3378 
Q 2772 3750 2511 3984 
Q 2250 4219 1831 4219 
Q 1534 4219 1204 4116 
Q 875 4013 500 3803 
L 500 4441 
Q 881 4594 1212 4672 
Q 1544 4750 1819 4750 
Q 2544 4750 2975 4387 
Q 3406 4025 3406 3419 
Q 3406 3131 3298 2873 
Q 3191 2616 2906 2266 
Q 2828 2175 2409 1742 
Q 1991 1309 1228 531 
z
" transform="scale(0.015625)"/>
       </defs>
       <use xlink:href="#DejaVuSans-30"/>
       <use xlink:href="#DejaVuSans-2e" x="63.623047"/>
       <use xlink:href="#DejaVuSans-32" x="95.410156"/>
      </g>
     </g>
    </g>
    <g id="ytick_2">
     <g id="line2d_4">
      <g>
       <use xlink:href="#m2d5c5b3c31" x="108" y="301.803529" style="stroke: #000000; stroke-width: 1.875"/>
      </g>
     </g>
     <g id="text_5">
      <!-- 0.4 -->
      <g transform="translate(69.259844 308.07224)scale(0.165 -0.165)">
       <defs>
        <path id="DejaVuSans-34" d="M 2419 4116 
L 825 1625 
L 2419 1625 
L 2419 4116 
z
M 2253 4666 
L 3047 4666 
L 3047 1625 
L 3713 1625 
L 3713 1100 
L 3047 1100 
L 3047 0 
L 2419 0 
L 2419 1100 
L 313 1100 
L 313 1709 
L 2253 4666 
z
" transform="scale(0.015625)"/>
       </defs>
       <use xlink:href="#DejaVuSans-30"/>
       <use xlink:href="#DejaVuSans-2e" x="63.623047"/>
       <use xlink:href="#DejaVuSans-34" x="95.410156"/>
      </g>
     </g>
    </g>
    <g id="ytick_3">
     <g id="line2d_5">
      <g>
       <use xlink:href="#m2d5c5b3c31" x="108" y="242.882515" style="stroke: #000000; stroke-width: 1.875"/>
      </g>
     </g>
     <g id="text_6">
      <!-- 0.6 -->
      <g transform="translate(69.259844 249.151226)scale(0.165 -0.165)">
       <defs>
        <path id="DejaVuSans-36" d="M 2113 2584 
Q 1688 2584 1439 2293 
Q 1191 2003 1191 1497 
Q 1191 994 1439 701 
Q 1688 409 2113 409 
Q 2538 409 2786 701 
Q 3034 994 3034 1497 
Q 3034 2003 2786 2293 
Q 2538 2584 2113 2584 
z
M 3366 4563 
L 3366 3988 
Q 3128 4100 2886 4159 
Q 2644 4219 2406 4219 
Q 1781 4219 1451 3797 
Q 1122 3375 1075 2522 
Q 1259 2794 1537 2939 
Q 1816 3084 2150 3084 
Q 2853 3084 3261 2657 
Q 3669 2231 3669 1497 
Q 3669 778 3244 343 
Q 2819 -91 2113 -91 
Q 1303 -91 875 529 
Q 447 1150 447 2328 
Q 447 3434 972 4092 
Q 1497 4750 2381 4750 
Q 2619 4750 2861 4703 
Q 3103 4656 3366 4563 
z
" transform="scale(0.015625)"/>
       </defs>
       <use xlink:href="#DejaVuSans-30"/>
       <use xlink:href="#DejaVuSans-2e" x="63.623047"/>
       <use xlink:href="#DejaVuSans-36" x="95.410156"/>
      </g>
     </g>
    </g>
    <g id="ytick_4">
     <g id="line2d_6">
      <g>
       <use xlink:href="#m2d5c5b3c31" x="108" y="183.961501" style="stroke: #000000; stroke-width: 1.875"/>
      </g>
     </g>
     <g id="text_7">
      <!-- 0.8 -->
      <g transform="translate(69.259844 190.230212)scale(0.165 -0.165)">
       <defs>
        <path id="DejaVuSans-38" d="M 2034 2216 
Q 1584 2216 1326 1975 
Q 1069 1734 1069 1313 
Q 1069 891 1326 650 
Q 1584 409 2034 409 
Q 2484 409 2743 651 
Q 3003 894 3003 1313 
Q 3003 1734 2745 1975 
Q 2488 2216 2034 2216 
z
M 1403 2484 
Q 997 2584 770 2862 
Q 544 3141 544 3541 
Q 544 4100 942 4425 
Q 1341 4750 2034 4750 
Q 2731 4750 3128 4425 
Q 3525 4100 3525 3541 
Q 3525 3141 3298 2862 
Q 3072 2584 2669 2484 
Q 3125 2378 3379 2068 
Q 3634 1759 3634 1313 
Q 3634 634 3220 271 
Q 2806 -91 2034 -91 
Q 1263 -91 848 271 
Q 434 634 434 1313 
Q 434 1759 690 2068 
Q 947 2378 1403 2484 
z
M 1172 3481 
Q 1172 3119 1398 2916 
Q 1625 2713 2034 2713 
Q 2441 2713 2670 2916 
Q 2900 3119 2900 3481 
Q 2900 3844 2670 4047 
Q 2441 4250 2034 4250 
Q 1625 4250 1398 4047 
Q 1172 3844 1172 3481 
z
" transform="scale(0.015625)"/>
       </defs>
       <use xlink:href="#DejaVuSans-30"/>
       <use xlink:href="#DejaVuSans-2e" x="63.623047"/>
       <use xlink:href="#DejaVuSans-38" x="95.410156"/>
      </g>
     </g>
    </g>
    <g id="ytick_5">
     <g id="line2d_7">
      <g>
       <use xlink:href="#m2d5c5b3c31" x="108" y="125.040487" style="stroke: #000000; stroke-width: 1.875"/>
      </g>
     </g>
     <g id="text_8">
      <!-- 1.0 -->
      <g transform="translate(69.259844 131.309198)scale(0.165 -0.165)">
       <defs>
        <path id="DejaVuSans-31" d="M 794 531 
L 1825 531 
L 1825 4091 
L 703 3866 
L 703 4441 
L 1819 4666 
L 2450 4666 
L 2450 531 
L 3481 531 
L 3481 0 
L 794 0 
L 794 531 
z
" transform="scale(0.015625)"/>
       </defs>
       <use xlink:href="#DejaVuSans-31"/>
       <use xlink:href="#DejaVuSans-2e" x="63.623047"/>
       <use xlink:href="#DejaVuSans-30" x="95.410156"/>
      </g>
     </g>
    </g>
    <g id="ytick_6">
     <g id="line2d_8">
      <g>
       <use xlink:href="#m2d5c5b3c31" x="108" y="66.119473" style="stroke: #000000; stroke-width: 1.875"/>
      </g>
     </g>
     <g id="text_9">
      <!-- 1.2 -->
      <g transform="translate(69.259844 72.388183)scale(0.165 -0.165)">
       <use xlink:href="#DejaVuSans-31"/>
       <use xlink:href="#DejaVuSans-2e" x="63.623047"/>
       <use xlink:href="#DejaVuSans-32" x="95.410156"/>
      </g>
     </g>
    </g>
    <g id="text_10">
     <!-- prediction accuracy -->
     <g transform="translate(61.516406 303.537656)rotate(-90)scale(0.18 -0.18)">
      <defs>
       <path id="DejaVuSans-70" d="M 1159 525 
L 1159 -1331 
L 581 -1331 
L 581 3500 
L 1159 3500 
L 1159 2969 
Q 1341 3281 1617 3432 
Q 1894 3584 2278 3584 
Q 2916 3584 3314 3078 
Q 3713 2572 3713 1747 
Q 3713 922 3314 415 
Q 2916 -91 2278 -91 
Q 1894 -91 1617 61 
Q 1341 213 1159 525 
z
M 3116 1747 
Q 3116 2381 2855 2742 
Q 2594 3103 2138 3103 
Q 1681 3103 1420 2742 
Q 1159 2381 1159 1747 
Q 1159 1113 1420 752 
Q 1681 391 2138 391 
Q 2594 391 2855 752 
Q 3116 1113 3116 1747 
z
" transform="scale(0.015625)"/>
       <path id="DejaVuSans-20" transform="scale(0.015625)"/>
       <path id="DejaVuSans-75" d="M 544 1381 
L 544 3500 
L 1119 3500 
L 1119 1403 
Q 1119 906 1312 657 
Q 1506 409 1894 409 
Q 2359 409 2629 706 
Q 2900 1003 2900 1516 
L 2900 3500 
L 3475 3500 
L 3475 0 
L 2900 0 
L 2900 538 
Q 2691 219 2414 64 
Q 2138 -91 1772 -91 
Q 1169 -91 856 284 
Q 544 659 544 1381 
z
M 1991 3584 
L 1991 3584 
z
" transform="scale(0.015625)"/>
       <path id="DejaVuSans-79" d="M 2059 -325 
Q 1816 -950 1584 -1140 
Q 1353 -1331 966 -1331 
L 506 -1331 
L 506 -850 
L 844 -850 
Q 1081 -850 1212 -737 
Q 1344 -625 1503 -206 
L 1606 56 
L 191 3500 
L 800 3500 
L 1894 763 
L 2988 3500 
L 3597 3500 
L 2059 -325 
z
" transform="scale(0.015625)"/>
      </defs>
      <use xlink:href="#DejaVuSans-70"/>
      <use xlink:href="#DejaVuSans-72" x="63.476562"/>
      <use xlink:href="#DejaVuSans-65" x="102.339844"/>
      <use xlink:href="#DejaVuSans-64" x="163.863281"/>
      <use xlink:href="#DejaVuSans-69" x="227.339844"/>
      <use xlink:href="#DejaVuSans-63" x="255.123047"/>
      <use xlink:href="#DejaVuSans-74" x="310.103516"/>
      <use xlink:href="#DejaVuSans-69" x="349.3125"/>
      <use xlink:href="#DejaVuSans-6f" x="377.095703"/>
      <use xlink:href="#DejaVuSans-6e" x="438.277344"/>
      <use xlink:href="#DejaVuSans-20" x="501.65625"/>
      <use xlink:href="#DejaVuSans-61" x="533.443359"/>
      <use xlink:href="#DejaVuSans-63" x="594.722656"/>
      <use xlink:href="#DejaVuSans-63" x="649.703125"/>
      <use xlink:href="#DejaVuSans-75" x="704.683594"/>
      <use xlink:href="#DejaVuSans-72" x="768.0625"/>
      <use xlink:href="#DejaVuSans-61" x="809.175781"/>
      <use xlink:href="#DejaVuSans-63" x="870.455078"/>
      <use xlink:href="#DejaVuSans-79" x="925.435547"/>
     </g>
    </g>
   </g>
   <g id="line2d_9">
    <path d="M 275.4 304.799513 
L 275.4 125.040487 
" clip-path="url(#pdadc066d58)" style="fill: none; stroke: #3f3f3f; stroke-width: 2.25; stroke-linecap: square"/>
   </g>
   <g id="line2d_10">
    <path d="M 275.4 260.723983 
L 275.4 130.213947 
" clip-path="url(#pdadc066d58)" style="fill: none; stroke: #3f3f3f; stroke-width: 6.75; stroke-linecap: square"/>
   </g>
   <g id="line2d_11">
    <path d="M 610.2 312.978205 
L 610.2 155.367479 
" clip-path="url(#pdadc066d58)" style="fill: none; stroke: #3f3f3f; stroke-width: 2.25; stroke-linecap: square"/>
   </g>
   <g id="line2d_12">
    <path d="M 610.2 277.428467 
L 610.2 224.130378 
" clip-path="url(#pdadc066d58)" style="fill: none; stroke: #3f3f3f; stroke-width: 6.75; stroke-linecap: square"/>
   </g>
   <g id="patch_3">
    <path d="M 108 378 
L 108 51.84 
" style="fill: none; stroke: #000000; stroke-width: 1.875; stroke-linejoin: miter; stroke-linecap: square"/>
   </g>
   <g id="patch_4">
    <path d="M 777.6 378 
L 777.6 51.84 
" style="fill: none; stroke: #000000; stroke-width: 1.875; stroke-linejoin: miter; stroke-linecap: square"/>
   </g>
   <g id="patch_5">
    <path d="M 108 378 
L 777.6 378 
" style="fill: none; stroke: #000000; stroke-width: 1.875; stroke-linejoin: miter; stroke-linecap: square"/>
   </g>
   <g id="patch_6">
    <path d="M 108 51.84 
L 777.6 51.84 
" style="fill: none; stroke: #000000; stroke-width: 1.875; stroke-linejoin: miter; stroke-linecap: square"/>
   </g>
   <g id="PathCollection_1">
    <defs>
     <path id="m242fecc180" d="M 0 2.25 
C 0.596707 2.25 1.169055 2.012926 1.59099 1.59099 
C 2.012926 1.169055 2.25 0.596707 2.25 0 
C 2.25 -0.596707 2.012926 -1.169055 1.59099 -1.59099 
C 1.169055 -2.012926 0.596707 -2.25 0 -2.25 
C -0.596707 -2.25 -1.169055 -2.012926 -1.59099 -1.59099 
C -2.012926 -1.169055 -2.25 -0.596707 -2.25 0 
C -2.25 0.596707 -2.012926 1.169055 -1.59099 1.59099 
C -1.169055 2.012926 -0.596707 2.25 0 2.25 
z
" style="stroke: #3f3f3f; stroke-width: 1.5"/>
    </defs>
    <g clip-path="url(#pdadc066d58)">
     <use xlink:href="#m242fecc180" x="275.4" y="151.378105" style="fill: #ffffff; stroke: #3f3f3f; stroke-width: 1.5"/>
    </g>
   </g>
   <g id="PathCollection_2">
    <g clip-path="url(#pdadc066d58)">
     <use xlink:href="#m242fecc180" x="610.2" y="258.951883" style="fill: #ffffff; stroke: #3f3f3f; stroke-width: 1.5"/>
    </g>
   </g>
  </g>
 </g>
 <defs>
  <clipPath id="pdadc066d58">
   <rect x="108" y="51.84" width="669.6" height="326.16"/>
  </clipPath>
 </defs>
</svg>
