<?xml version="1.0" encoding="utf-8" standalone="no"?>
<!DOCTYPE svg PUBLIC "-//W3C//DTD SVG 1.1//EN"
  "http://www.w3.org/Graphics/SVG/1.1/DTD/svg11.dtd">
<svg xmlns:xlink="http://www.w3.org/1999/xlink" width="864pt" height="432pt" viewBox="0 0 864 432" xmlns="http://www.w3.org/2000/svg" version="1.1">
 <metadata>
  <rdf:RDF xmlns:dc="http://purl.org/dc/elements/1.1/" xmlns:cc="http://creativecommons.org/ns#" xmlns:rdf="http://www.w3.org/1999/02/22-rdf-syntax-ns#">
   <cc:Work>
    <dc:type rdf:resource="http://purl.org/dc/dcmitype/StillImage"/>
    <dc:date>2023-05-02T17:32:33.134675</dc:date>
    <dc:format>image/svg+xml</dc:format>
    <dc:creator>
     <cc:Agent>
      <dc:title>Matplotlib v3.5.1, https://matplotlib.org/</dc:title>
     </cc:Agent>
    </dc:creator>
   </cc:Work>
  </rdf:RDF>
 </metadata>
 <defs>
  <style type="text/css">*{stroke-linejoin: round; stroke-linecap: butt}</style>
 </defs>
 <g id="figure_1">
  <g id="patch_1">
   <path d="M 0 432 
L 864 432 
L 864 0 
L 0 0 
L 0 432 
z
" style="fill: none"/>
  </g>
  <g id="axes_1">
   <g id="patch_2">
    <path d="M 108 378 
L 777.6 378 
L 777.6 51.84 
L 108 51.84 
z
" style="fill: #ffffff"/>
   </g>
   <g id="PolyCollection_1">
    <defs>
     <path id="mf07408ee52" d="M 138.436364 -284.53974 
L 138.436364 -243.357922 
L 141.48 -148.673551 
L 144.523636 -195.045053 
L 147.567273 -200.554978 
L 150.610909 -179.898701 
L 153.654545 -184.969568 
L 156.698182 -234.075671 
L 159.741818 -182.593931 
L 162.785455 -213.112117 
L 165.829091 -226.156809 
L 168.872727 -211.114793 
L 171.916364 -193.649848 
L 174.96 -203.401753 
L 178.003636 -231.30106 
L 181.047273 -204.461409 
L 184.090909 -199.159121 
L 187.134545 -210.02026 
L 190.178182 -218.548805 
L 193.221818 -218.709171 
L 196.265455 -183.617979 
L 199.309091 -230.498896 
L 202.352727 -195.4855 
L 205.396364 -206.835415 
L 208.44 -194.042953 
L 211.483636 -231.830839 
L 214.527273 -185.464641 
L 217.570909 -219.560449 
L 220.614545 -220.537832 
L 223.658182 -215.986237 
L 226.701818 -177.436843 
L 229.745455 -199.788752 
L 232.789091 -178.080628 
L 235.832727 -221.952215 
L 238.876364 -224.771956 
L 241.92 -219.433247 
L 244.963636 -221.357069 
L 248.007273 -168.148697 
L 251.050909 -231.591688 
L 254.094545 -202.475499 
L 257.138182 -214.054397 
L 260.181818 -218.95664 
L 263.225455 -192.996773 
L 266.269091 -227.192601 
L 269.312727 -206.9221 
L 272.356364 -217.92518 
L 275.4 -205.52361 
L 278.443636 -231.351849 
L 281.487273 -192.75183 
L 284.530909 -220.881399 
L 287.574545 -213.253729 
L 290.618182 -210.91959 
L 293.661818 -221.711549 
L 296.705455 -223.225529 
L 299.749091 -196.432677 
L 302.792727 -211.168185 
L 305.836364 -198.633582 
L 308.88 -239.089778 
L 311.923636 -204.631145 
L 314.967273 -196.783247 
L 318.010909 -208.162433 
L 321.054545 -219.825455 
L 324.098182 -221.525022 
L 327.141818 -200.169459 
L 330.185455 -192.370909 
L 333.229091 -232.729914 
L 336.272727 -202.588954 
L 339.316364 -199.430649 
L 342.36 -198.84657 
L 345.403636 -206.835415 
L 348.447273 -208.890701 
L 351.490909 -195.209616 
L 354.534545 -218.548805 
L 357.578182 -219.825455 
L 360.621818 -201.783896 
L 363.665455 -211.021641 
L 366.709091 -181.372038 
L 369.752727 -213.024405 
L 372.796364 -198.683451 
L 375.84 -218.088534 
L 378.883636 -230.140519 
L 381.927273 -206.151909 
L 384.970909 -191.518871 
L 388.014545 -219.433247 
L 391.058182 -198.32897 
L 394.101818 -252.572119 
L 397.145455 -232.208015 
L 400.189091 -214.364715 
L 403.232727 -194.498502 
L 406.276364 -225.493663 
L 409.32 -175.205102 
L 412.363636 -210.02026 
L 415.407273 -216.249442 
L 418.450909 -213.640639 
L 421.494545 -190.148398 
L 424.538182 -232.416677 
L 427.581818 -222.122672 
L 430.625455 -237.057563 
L 433.669091 -215.774432 
L 436.712727 -226.390672 
L 439.756364 -186.088937 
L 442.8 -212.334929 
L 445.843636 -167.333458 
L 448.887273 -210.994017 
L 451.930909 -229.274097 
L 454.974545 -234.494026 
L 458.018182 -213.112117 
L 461.061818 -230.190946 
L 464.105455 -231.895511 
L 467.149091 -209.018878 
L 470.192727 -219.188754 
L 473.236364 -188.946408 
L 476.28 -213.253729 
L 479.323636 -211.021641 
L 482.367273 -197.790788 
L 485.410909 -231.351849 
L 488.454545 -210.02026 
L 491.498182 -205.927657 
L 494.541818 -195.850353 
L 497.585455 -228.269928 
L 500.629091 -205.282179 
L 503.672727 -225.904675 
L 506.716364 -195.900779 
L 509.76 -236.73279 
L 512.803636 -221.737468 
L 515.847273 -202.805927 
L 518.890909 -218.088534 
L 521.934545 -226.129734 
L 524.978182 -207.098988 
L 528.021818 -215.744373 
L 531.065455 -186.156349 
L 534.109091 -230.483275 
L 537.152727 -174.986962 
L 540.196364 -227.800346 
L 543.24 -222.691588 
L 546.283636 -220.351587 
L 549.327273 -223.940874 
L 552.370909 -224.13974 
L 555.414545 -209.038442 
L 558.458182 -240.350996 
L 561.501818 -191.866642 
L 564.545455 -204.790823 
L 567.589091 -216.249442 
L 570.632727 -217.652411 
L 573.676364 -228.707807 
L 576.72 -202.283558 
L 579.763636 -203.881355 
L 582.807273 -208.112222 
L 585.850909 -210.02026 
L 588.894545 -228.920352 
L 591.938182 -216.480153 
L 594.981818 -264.812274 
L 598.025455 -197.485619 
L 601.069091 -178.643636 
L 604.112727 -230.498896 
L 607.156364 -225.944486 
L 610.2 -190.72025 
L 613.243636 -214.695584 
L 616.287273 -215.696673 
L 619.330909 -239.699036 
L 622.374545 -219.574795 
L 625.418182 -196.81499 
L 628.461818 -223.340524 
L 631.505455 -235.87283 
L 634.549091 -193.234863 
L 637.592727 -210.02026 
L 640.636364 -207.016115 
L 643.68 -199.934917 
L 646.723636 -196.699995 
L 649.767273 -213.205105 
L 652.810909 -192.321883 
L 655.854545 -189.571357 
L 658.898182 -197.361415 
L 661.941818 -226.156809 
L 664.985455 -188.448831 
L 668.029091 -229.839827 
L 671.072727 -224.427893 
L 674.116364 -225.708571 
L 677.16 -203.296698 
L 680.203636 -202.588954 
L 683.247273 -211.081875 
L 686.290909 -204.790823 
L 689.334545 -196.986893 
L 692.378182 -223.053626 
L 695.421818 -217.974897 
L 698.465455 -198.463203 
L 701.509091 -213.205105 
L 704.552727 -206.786791 
L 707.596364 -223.376525 
L 710.64 -227.134782 
L 713.683636 -221.525022 
L 716.727273 -236.961474 
L 719.770909 -179.637229 
L 722.814545 -213.997578 
L 725.858182 -201.491714 
L 728.901818 -240.094753 
L 731.945455 -230.784202 
L 734.989091 -228.996441 
L 738.032727 -237.137143 
L 741.076364 -201.133873 
L 744.12 -232.208015 
L 744.12 -276.583525 
L 744.12 -276.583525 
L 741.076364 -248.527934 
L 738.032727 -280.15013 
L 734.989091 -273.1073 
L 731.945455 -272.312086 
L 728.901818 -281.606026 
L 725.858182 -246.977289 
L 722.814545 -257.748081 
L 719.770909 -225.708571 
L 716.727273 -278.541268 
L 713.683636 -267.544069 
L 710.64 -272.060401 
L 707.596364 -267.261397 
L 704.552727 -256.366646 
L 701.509091 -259.916168 
L 698.465455 -244.534545 
L 695.421818 -263.714059 
L 692.378182 -266.552488 
L 689.334545 -242.603676 
L 686.290909 -250.80987 
L 683.247273 -255.669708 
L 680.203636 -249.300018 
L 677.16 -252.60282 
L 674.116364 -268.159297 
L 671.072727 -268.611301 
L 668.029091 -271.779913 
L 664.985455 -235.513766 
L 661.941818 -270.532319 
L 658.898182 -242.15425 
L 655.854545 -236.311706 
L 652.810909 -235.513766 
L 649.767273 -257.792938 
L 646.723636 -249.981054 
L 643.68 -248.344564 
L 640.636364 -253.079668 
L 637.592727 -253.770763 
L 634.549091 -240.628924 
L 631.505455 -279.623333 
L 628.461818 -264.189336 
L 625.418182 -245.572909 
L 622.374545 -264.162629 
L 619.330909 -280.617662 
L 616.287273 -259.629245 
L 613.243636 -257.755325 
L 610.2 -235.415009 
L 607.156364 -272.655549 
L 604.112727 -273.611813 
L 601.069091 -225.708571 
L 598.025455 -239.796035 
L 594.981818 -302.745206 
L 591.938182 -260.776562 
L 588.894545 -275.614697 
L 585.850909 -254.506294 
L 582.807273 -253.905132 
L 579.763636 -250.94629 
L 576.72 -246.769593 
L 573.676364 -274.38848 
L 570.632727 -261.584984 
L 567.589091 -264.006509 
L 564.545455 -250.80987 
L 561.501818 -240.276289 
L 558.458182 -286.370043 
L 555.414545 -252.098182 
L 552.370909 -268.565677 
L 549.327273 -267.691377 
L 546.283636 -266.268597 
L 543.24 -264.325954 
L 540.196364 -273.819394 
L 537.152727 -221.698026 
L 534.109091 -275.501909 
L 531.065455 -231.895511 
L 528.021818 -259.629245 
L 524.978182 -251.891823 
L 521.934545 -269.720077 
L 518.890909 -262.464045 
L 515.847273 -250.214401 
L 512.803636 -264.929351 
L 509.76 -280.617662 
L 506.716364 -242.293358 
L 503.672727 -270.028052 
L 500.629091 -250.767754 
L 497.585455 -270.580345 
L 494.541818 -240.276289 
L 491.498182 -250.94629 
L 488.454545 -258.628307 
L 485.410909 -274.015028 
L 482.367273 -248.932214 
L 479.323636 -257.135264 
L 476.28 -260.677938 
L 473.236364 -237.416267 
L 470.192727 -259.575969 
L 467.149091 -255.082432 
L 464.105455 -275.646014 
L 461.061818 -272.549388 
L 458.018182 -260.520592 
L 454.974545 -277.840831 
L 451.930909 -272.060401 
L 448.887273 -255.786852 
L 445.843636 -213.30386 
L 442.8 -260.942976 
L 439.756364 -236.344715 
L 436.712727 -271.409305 
L 433.669091 -258.422999 
L 430.625455 -279.11559 
L 427.581818 -268.51525 
L 424.538182 -277.209512 
L 421.494545 -238.259221 
L 418.450909 -257.085195 
L 415.407273 -261.930115 
L 412.363636 -257.085195 
L 409.32 -221.625312 
L 406.276364 -271.913873 
L 403.232727 -239.032891 
L 400.189091 -262.153726 
L 397.145455 -276.583525 
L 394.101818 -291.255627 
L 391.058182 -241.496809 
L 388.014545 -265.452294 
L 384.970909 -238.259221 
L 381.927273 -252.572119 
L 378.883636 -272.599814 
L 375.84 -264.481113 
L 372.796364 -244.030687 
L 369.752727 -259.087958 
L 366.709091 -228.436973 
L 363.665455 -257.085195 
L 360.621818 -248.899989 
L 357.578182 -264.929351 
L 354.534545 -262.139148 
L 351.490909 -240.628924 
L 348.447273 -258.591273 
L 345.403636 -255.669708 
L 342.36 -243.541329 
L 339.316364 -247.953192 
L 336.272727 -245.318961 
L 333.229091 -274.249085 
L 330.185455 -240.906623 
L 327.141818 -248.328928 
L 324.098182 -265.452294 
L 321.054545 -264.929351 
L 318.010909 -254.608093 
L 314.967273 -245.318961 
L 311.923636 -252.055354 
L 308.88 -282.694057 
L 305.836364 -248.734964 
L 302.792727 -259.381045 
L 299.749091 -239.081245 
L 296.705455 -265.888708 
L 293.661818 -263.080728 
L 290.618182 -254.087428 
L 287.574545 -258.522292 
L 284.530909 -266.300707 
L 281.487273 -237.446589 
L 278.443636 -276.046607 
L 275.4 -248.691448 
L 272.356364 -263.714059 
L 269.312727 -251.667648 
L 266.269091 -269.169435 
L 263.225455 -239.110395 
L 260.181818 -260.063988 
L 257.138182 -260.446976 
L 254.094545 -252.055354 
L 251.050909 -274.734545 
L 248.007273 -214.889046 
L 244.963636 -264.643068 
L 241.92 -265.452294 
L 238.876364 -269.027044 
L 235.832727 -265.702718 
L 232.789091 -225.961609 
L 229.745455 -244.807386 
L 226.701818 -225.225854 
L 223.658182 -263.714059 
L 220.614545 -264.769266 
L 217.570909 -263.445321 
L 214.527273 -230.483275 
L 211.483636 -277.747849 
L 208.44 -240.807097 
L 205.396364 -253.546478 
L 202.352727 -241.166173 
L 199.309091 -275.82135 
L 196.265455 -231.830839 
L 193.221818 -268.67041 
L 190.178182 -260.291296 
L 187.134545 -254.506294 
L 184.090909 -248.527934 
L 181.047273 -253.379294 
L 178.003636 -276.046607 
L 174.96 -249.786453 
L 171.916364 -240.714783 
L 168.872727 -259.274262 
L 165.829091 -268.51525 
L 162.785455 -260.520592 
L 159.741818 -229.320269 
L 156.698182 -280.094719 
L 153.654545 -232.793615 
L 150.610909 -225.081039 
L 147.567273 -246.62632 
L 144.523636 -242.109988 
L 141.48 -193.466386 
L 138.436364 -284.53974 
z
" style="stroke: #1f77b4; stroke-opacity: 0.2; stroke-width: 1.5"/>
    </defs>
    <g clip-path="url(#pa7b75dbdf8)">
     <use xlink:href="#mf07408ee52" x="0" y="432" style="fill: #1f77b4; fill-opacity: 0.2; stroke: #1f77b4; stroke-opacity: 0.2; stroke-width: 1.5"/>
    </g>
   </g>
   <g id="PolyCollection_2">
    <defs>
     <path id="m1678c3aad4" d="M 138.436364 -365.334545 
L 138.436364 -68.825455 
L 141.48 -68.825455 
L 144.523636 -68.825455 
L 147.567273 -68.825455 
L 150.610909 -68.825455 
L 153.654545 -68.825455 
L 156.698182 -68.825455 
L 159.741818 -68.825455 
L 162.785455 -68.825455 
L 165.829091 -68.825455 
L 168.872727 -68.825455 
L 171.916364 -68.825455 
L 174.96 -68.825455 
L 178.003636 -68.825455 
L 181.047273 -68.825455 
L 184.090909 -68.825455 
L 187.134545 -68.825455 
L 190.178182 -68.825455 
L 193.221818 -68.825455 
L 196.265455 -68.825455 
L 199.309091 -68.825455 
L 202.352727 -68.825455 
L 205.396364 -68.825455 
L 208.44 -68.825455 
L 211.483636 -68.825455 
L 214.527273 -68.825455 
L 217.570909 -68.825455 
L 220.614545 -68.825455 
L 223.658182 -68.825455 
L 226.701818 -68.825455 
L 229.745455 -68.825455 
L 232.789091 -68.825455 
L 235.832727 -68.825455 
L 238.876364 -68.825455 
L 241.92 -68.825455 
L 244.963636 -68.825455 
L 248.007273 -68.825455 
L 251.050909 -68.825455 
L 254.094545 -68.825455 
L 257.138182 -68.825455 
L 260.181818 -68.825455 
L 260.181818 -365.334545 
L 260.181818 -365.334545 
L 257.138182 -365.334545 
L 254.094545 -365.334545 
L 251.050909 -365.334545 
L 248.007273 -365.334545 
L 244.963636 -365.334545 
L 241.92 -365.334545 
L 238.876364 -365.334545 
L 235.832727 -365.334545 
L 232.789091 -365.334545 
L 229.745455 -365.334545 
L 226.701818 -365.334545 
L 223.658182 -365.334545 
L 220.614545 -365.334545 
L 217.570909 -365.334545 
L 214.527273 -365.334545 
L 211.483636 -365.334545 
L 208.44 -365.334545 
L 205.396364 -365.334545 
L 202.352727 -365.334545 
L 199.309091 -365.334545 
L 196.265455 -365.334545 
L 193.221818 -365.334545 
L 190.178182 -365.334545 
L 187.134545 -365.334545 
L 184.090909 -365.334545 
L 181.047273 -365.334545 
L 178.003636 -365.334545 
L 174.96 -365.334545 
L 171.916364 -365.334545 
L 168.872727 -365.334545 
L 165.829091 -365.334545 
L 162.785455 -365.334545 
L 159.741818 -365.334545 
L 156.698182 -365.334545 
L 153.654545 -365.334545 
L 150.610909 -365.334545 
L 147.567273 -365.334545 
L 144.523636 -365.334545 
L 141.48 -365.334545 
L 138.436364 -365.334545 
z
" style="stroke: #ffd700; stroke-opacity: 0.2; stroke-width: 1.5"/>
    </defs>
    <g clip-path="url(#pa7b75dbdf8)">
     <use xlink:href="#m1678c3aad4" x="0" y="432" style="fill: #ffd700; fill-opacity: 0.2; stroke: #ffd700; stroke-opacity: 0.2; stroke-width: 1.5"/>
    </g>
   </g>
   <g id="PolyCollection_3">
    <defs>
     <path id="mb4d38525fa" d="M 260.181818 -365.334545 
L 260.181818 -68.825455 
L 263.225455 -68.825455 
L 266.269091 -68.825455 
L 269.312727 -68.825455 
L 272.356364 -68.825455 
L 275.4 -68.825455 
L 278.443636 -68.825455 
L 281.487273 -68.825455 
L 284.530909 -68.825455 
L 287.574545 -68.825455 
L 290.618182 -68.825455 
L 293.661818 -68.825455 
L 296.705455 -68.825455 
L 299.749091 -68.825455 
L 302.792727 -68.825455 
L 305.836364 -68.825455 
L 308.88 -68.825455 
L 311.923636 -68.825455 
L 314.967273 -68.825455 
L 318.010909 -68.825455 
L 321.054545 -68.825455 
L 324.098182 -68.825455 
L 327.141818 -68.825455 
L 330.185455 -68.825455 
L 333.229091 -68.825455 
L 336.272727 -68.825455 
L 339.316364 -68.825455 
L 342.36 -68.825455 
L 345.403636 -68.825455 
L 348.447273 -68.825455 
L 351.490909 -68.825455 
L 354.534545 -68.825455 
L 357.578182 -68.825455 
L 360.621818 -68.825455 
L 363.665455 -68.825455 
L 366.709091 -68.825455 
L 369.752727 -68.825455 
L 372.796364 -68.825455 
L 375.84 -68.825455 
L 378.883636 -68.825455 
L 381.927273 -68.825455 
L 381.927273 -365.334545 
L 381.927273 -365.334545 
L 378.883636 -365.334545 
L 375.84 -365.334545 
L 372.796364 -365.334545 
L 369.752727 -365.334545 
L 366.709091 -365.334545 
L 363.665455 -365.334545 
L 360.621818 -365.334545 
L 357.578182 -365.334545 
L 354.534545 -365.334545 
L 351.490909 -365.334545 
L 348.447273 -365.334545 
L 345.403636 -365.334545 
L 342.36 -365.334545 
L 339.316364 -365.334545 
L 336.272727 -365.334545 
L 333.229091 -365.334545 
L 330.185455 -365.334545 
L 327.141818 -365.334545 
L 324.098182 -365.334545 
L 321.054545 -365.334545 
L 318.010909 -365.334545 
L 314.967273 -365.334545 
L 311.923636 -365.334545 
L 308.88 -365.334545 
L 305.836364 -365.334545 
L 302.792727 -365.334545 
L 299.749091 -365.334545 
L 296.705455 -365.334545 
L 293.661818 -365.334545 
L 290.618182 -365.334545 
L 287.574545 -365.334545 
L 284.530909 -365.334545 
L 281.487273 -365.334545 
L 278.443636 -365.334545 
L 275.4 -365.334545 
L 272.356364 -365.334545 
L 269.312727 -365.334545 
L 266.269091 -365.334545 
L 263.225455 -365.334545 
L 260.181818 -365.334545 
z
" style="stroke: #ffd700; stroke-opacity: 0.2; stroke-width: 1.5"/>
    </defs>
    <g clip-path="url(#pa7b75dbdf8)">
     <use xlink:href="#mb4d38525fa" x="0" y="432" style="fill: #ffd700; fill-opacity: 0.2; stroke: #ffd700; stroke-opacity: 0.2; stroke-width: 1.5"/>
    </g>
   </g>
   <g id="PolyCollection_4">
    <defs>
     <path id="m48977e3cf6" d="M 381.927273 -365.334545 
L 381.927273 -68.825455 
L 384.970909 -68.825455 
L 388.014545 -68.825455 
L 391.058182 -68.825455 
L 394.101818 -68.825455 
L 397.145455 -68.825455 
L 400.189091 -68.825455 
L 403.232727 -68.825455 
L 406.276364 -68.825455 
L 409.32 -68.825455 
L 412.363636 -68.825455 
L 415.407273 -68.825455 
L 418.450909 -68.825455 
L 421.494545 -68.825455 
L 424.538182 -68.825455 
L 427.581818 -68.825455 
L 430.625455 -68.825455 
L 433.669091 -68.825455 
L 436.712727 -68.825455 
L 439.756364 -68.825455 
L 442.8 -68.825455 
L 445.843636 -68.825455 
L 448.887273 -68.825455 
L 451.930909 -68.825455 
L 454.974545 -68.825455 
L 458.018182 -68.825455 
L 461.061818 -68.825455 
L 464.105455 -68.825455 
L 467.149091 -68.825455 
L 470.192727 -68.825455 
L 473.236364 -68.825455 
L 476.28 -68.825455 
L 479.323636 -68.825455 
L 482.367273 -68.825455 
L 485.410909 -68.825455 
L 488.454545 -68.825455 
L 491.498182 -68.825455 
L 494.541818 -68.825455 
L 497.585455 -68.825455 
L 500.629091 -68.825455 
L 503.672727 -68.825455 
L 503.672727 -365.334545 
L 503.672727 -365.334545 
L 500.629091 -365.334545 
L 497.585455 -365.334545 
L 494.541818 -365.334545 
L 491.498182 -365.334545 
L 488.454545 -365.334545 
L 485.410909 -365.334545 
L 482.367273 -365.334545 
L 479.323636 -365.334545 
L 476.28 -365.334545 
L 473.236364 -365.334545 
L 470.192727 -365.334545 
L 467.149091 -365.334545 
L 464.105455 -365.334545 
L 461.061818 -365.334545 
L 458.018182 -365.334545 
L 454.974545 -365.334545 
L 451.930909 -365.334545 
L 448.887273 -365.334545 
L 445.843636 -365.334545 
L 442.8 -365.334545 
L 439.756364 -365.334545 
L 436.712727 -365.334545 
L 433.669091 -365.334545 
L 430.625455 -365.334545 
L 427.581818 -365.334545 
L 424.538182 -365.334545 
L 421.494545 -365.334545 
L 418.450909 -365.334545 
L 415.407273 -365.334545 
L 412.363636 -365.334545 
L 409.32 -365.334545 
L 406.276364 -365.334545 
L 403.232727 -365.334545 
L 400.189091 -365.334545 
L 397.145455 -365.334545 
L 394.101818 -365.334545 
L 391.058182 -365.334545 
L 388.014545 -365.334545 
L 384.970909 -365.334545 
L 381.927273 -365.334545 
z
" style="stroke: #ffd700; stroke-opacity: 0.2; stroke-width: 1.5"/>
    </defs>
    <g clip-path="url(#pa7b75dbdf8)">
     <use xlink:href="#m48977e3cf6" x="0" y="432" style="fill: #ffd700; fill-opacity: 0.2; stroke: #ffd700; stroke-opacity: 0.2; stroke-width: 1.5"/>
    </g>
   </g>
   <g id="PolyCollection_5">
    <defs>
     <path id="mc3e9e5d74a" d="M 503.672727 -365.334545 
L 503.672727 -68.825455 
L 506.716364 -68.825455 
L 509.76 -68.825455 
L 512.803636 -68.825455 
L 515.847273 -68.825455 
L 518.890909 -68.825455 
L 521.934545 -68.825455 
L 524.978182 -68.825455 
L 528.021818 -68.825455 
L 531.065455 -68.825455 
L 534.109091 -68.825455 
L 537.152727 -68.825455 
L 540.196364 -68.825455 
L 543.24 -68.825455 
L 546.283636 -68.825455 
L 549.327273 -68.825455 
L 552.370909 -68.825455 
L 555.414545 -68.825455 
L 558.458182 -68.825455 
L 561.501818 -68.825455 
L 564.545455 -68.825455 
L 567.589091 -68.825455 
L 570.632727 -68.825455 
L 573.676364 -68.825455 
L 576.72 -68.825455 
L 579.763636 -68.825455 
L 582.807273 -68.825455 
L 585.850909 -68.825455 
L 588.894545 -68.825455 
L 591.938182 -68.825455 
L 594.981818 -68.825455 
L 598.025455 -68.825455 
L 601.069091 -68.825455 
L 604.112727 -68.825455 
L 607.156364 -68.825455 
L 610.2 -68.825455 
L 613.243636 -68.825455 
L 616.287273 -68.825455 
L 619.330909 -68.825455 
L 622.374545 -68.825455 
L 625.418182 -68.825455 
L 625.418182 -365.334545 
L 625.418182 -365.334545 
L 622.374545 -365.334545 
L 619.330909 -365.334545 
L 616.287273 -365.334545 
L 613.243636 -365.334545 
L 610.2 -365.334545 
L 607.156364 -365.334545 
L 604.112727 -365.334545 
L 601.069091 -365.334545 
L 598.025455 -365.334545 
L 594.981818 -365.334545 
L 591.938182 -365.334545 
L 588.894545 -365.334545 
L 585.850909 -365.334545 
L 582.807273 -365.334545 
L 579.763636 -365.334545 
L 576.72 -365.334545 
L 573.676364 -365.334545 
L 570.632727 -365.334545 
L 567.589091 -365.334545 
L 564.545455 -365.334545 
L 561.501818 -365.334545 
L 558.458182 -365.334545 
L 555.414545 -365.334545 
L 552.370909 -365.334545 
L 549.327273 -365.334545 
L 546.283636 -365.334545 
L 543.24 -365.334545 
L 540.196364 -365.334545 
L 537.152727 -365.334545 
L 534.109091 -365.334545 
L 531.065455 -365.334545 
L 528.021818 -365.334545 
L 524.978182 -365.334545 
L 521.934545 -365.334545 
L 518.890909 -365.334545 
L 515.847273 -365.334545 
L 512.803636 -365.334545 
L 509.76 -365.334545 
L 506.716364 -365.334545 
L 503.672727 -365.334545 
z
" style="stroke: #ffd700; stroke-opacity: 0.2; stroke-width: 1.5"/>
    </defs>
    <g clip-path="url(#pa7b75dbdf8)">
     <use xlink:href="#mc3e9e5d74a" x="0" y="432" style="fill: #ffd700; fill-opacity: 0.2; stroke: #ffd700; stroke-opacity: 0.2; stroke-width: 1.5"/>
    </g>
   </g>
   <g id="PolyCollection_6">
    <defs>
     <path id="me31c7f1523" d="M 625.418182 -365.334545 
L 625.418182 -68.825455 
L 628.461818 -68.825455 
L 631.505455 -68.825455 
L 634.549091 -68.825455 
L 637.592727 -68.825455 
L 640.636364 -68.825455 
L 643.68 -68.825455 
L 646.723636 -68.825455 
L 649.767273 -68.825455 
L 652.810909 -68.825455 
L 655.854545 -68.825455 
L 658.898182 -68.825455 
L 661.941818 -68.825455 
L 664.985455 -68.825455 
L 668.029091 -68.825455 
L 671.072727 -68.825455 
L 674.116364 -68.825455 
L 677.16 -68.825455 
L 680.203636 -68.825455 
L 683.247273 -68.825455 
L 686.290909 -68.825455 
L 689.334545 -68.825455 
L 692.378182 -68.825455 
L 695.421818 -68.825455 
L 698.465455 -68.825455 
L 701.509091 -68.825455 
L 704.552727 -68.825455 
L 707.596364 -68.825455 
L 710.64 -68.825455 
L 713.683636 -68.825455 
L 716.727273 -68.825455 
L 719.770909 -68.825455 
L 722.814545 -68.825455 
L 725.858182 -68.825455 
L 728.901818 -68.825455 
L 731.945455 -68.825455 
L 734.989091 -68.825455 
L 738.032727 -68.825455 
L 741.076364 -68.825455 
L 744.12 -68.825455 
L 747.163636 -68.825455 
L 747.163636 -365.334545 
L 747.163636 -365.334545 
L 744.12 -365.334545 
L 741.076364 -365.334545 
L 738.032727 -365.334545 
L 734.989091 -365.334545 
L 731.945455 -365.334545 
L 728.901818 -365.334545 
L 725.858182 -365.334545 
L 722.814545 -365.334545 
L 719.770909 -365.334545 
L 716.727273 -365.334545 
L 713.683636 -365.334545 
L 710.64 -365.334545 
L 707.596364 -365.334545 
L 704.552727 -365.334545 
L 701.509091 -365.334545 
L 698.465455 -365.334545 
L 695.421818 -365.334545 
L 692.378182 -365.334545 
L 689.334545 -365.334545 
L 686.290909 -365.334545 
L 683.247273 -365.334545 
L 680.203636 -365.334545 
L 677.16 -365.334545 
L 674.116364 -365.334545 
L 671.072727 -365.334545 
L 668.029091 -365.334545 
L 664.985455 -365.334545 
L 661.941818 -365.334545 
L 658.898182 -365.334545 
L 655.854545 -365.334545 
L 652.810909 -365.334545 
L 649.767273 -365.334545 
L 646.723636 -365.334545 
L 643.68 -365.334545 
L 640.636364 -365.334545 
L 637.592727 -365.334545 
L 634.549091 -365.334545 
L 631.505455 -365.334545 
L 628.461818 -365.334545 
L 625.418182 -365.334545 
z
" style="stroke: #ff0000; stroke-opacity: 0.2; stroke-width: 1.5"/>
    </defs>
    <g clip-path="url(#pa7b75dbdf8)">
     <use xlink:href="#me31c7f1523" x="0" y="432" style="fill: #ff0000; fill-opacity: 0.2; stroke: #ff0000; stroke-opacity: 0.2; stroke-width: 1.5"/>
    </g>
   </g>
   <g id="matplotlib.axis_1">
    <g id="xtick_1">
     <g id="line2d_1">
      <defs>
       <path id="mb2638ecd03" d="M 0 0 
L 0 9 
" style="stroke: #000000; stroke-width: 1.875"/>
      </defs>
      <g>
       <use xlink:href="#mb2638ecd03" x="138.436364" y="378" style="stroke: #000000; stroke-width: 1.875"/>
      </g>
     </g>
     <g id="text_1">
      <!-- 0 -->
      <g transform="translate(133.187301 403.037422)scale(0.165 -0.165)">
       <defs>
        <path id="DejaVuSans-30" d="M 2034 4250 
Q 1547 4250 1301 3770 
Q 1056 3291 1056 2328 
Q 1056 1369 1301 889 
Q 1547 409 2034 409 
Q 2525 409 2770 889 
Q 3016 1369 3016 2328 
Q 3016 3291 2770 3770 
Q 2525 4250 2034 4250 
z
M 2034 4750 
Q 2819 4750 3233 4129 
Q 3647 3509 3647 2328 
Q 3647 1150 3233 529 
Q 2819 -91 2034 -91 
Q 1250 -91 836 529 
Q 422 1150 422 2328 
Q 422 3509 836 4129 
Q 1250 4750 2034 4750 
z
" transform="scale(0.015625)"/>
       </defs>
       <use xlink:href="#DejaVuSans-30"/>
      </g>
     </g>
    </g>
    <g id="xtick_2">
     <g id="line2d_2">
      <g>
       <use xlink:href="#mb2638ecd03" x="214.527273" y="378" style="stroke: #000000; stroke-width: 1.875"/>
      </g>
     </g>
     <g id="text_2">
      <!-- 25 -->
      <g transform="translate(204.029148 403.037422)scale(0.165 -0.165)">
       <defs>
        <path id="DejaVuSans-32" d="M 1228 531 
L 3431 531 
L 3431 0 
L 469 0 
L 469 531 
Q 828 903 1448 1529 
Q 2069 2156 2228 2338 
Q 2531 2678 2651 2914 
Q 2772 3150 2772 3378 
Q 2772 3750 2511 3984 
Q 2250 4219 1831 4219 
Q 1534 4219 1204 4116 
Q 875 4013 500 3803 
L 500 4441 
Q 881 4594 1212 4672 
Q 1544 4750 1819 4750 
Q 2544 4750 2975 4387 
Q 3406 4025 3406 3419 
Q 3406 3131 3298 2873 
Q 3191 2616 2906 2266 
Q 2828 2175 2409 1742 
Q 1991 1309 1228 531 
z
" transform="scale(0.015625)"/>
        <path id="DejaVuSans-35" d="M 691 4666 
L 3169 4666 
L 3169 4134 
L 1269 4134 
L 1269 2991 
Q 1406 3038 1543 3061 
Q 1681 3084 1819 3084 
Q 2600 3084 3056 2656 
Q 3513 2228 3513 1497 
Q 3513 744 3044 326 
Q 2575 -91 1722 -91 
Q 1428 -91 1123 -41 
Q 819 9 494 109 
L 494 744 
Q 775 591 1075 516 
Q 1375 441 1709 441 
Q 2250 441 2565 725 
Q 2881 1009 2881 1497 
Q 2881 1984 2565 2268 
Q 2250 2553 1709 2553 
Q 1456 2553 1204 2497 
Q 953 2441 691 2322 
L 691 4666 
z
" transform="scale(0.015625)"/>
       </defs>
       <use xlink:href="#DejaVuSans-32"/>
       <use xlink:href="#DejaVuSans-35" x="63.623047"/>
      </g>
     </g>
    </g>
    <g id="xtick_3">
     <g id="line2d_3">
      <g>
       <use xlink:href="#mb2638ecd03" x="290.618182" y="378" style="stroke: #000000; stroke-width: 1.875"/>
      </g>
     </g>
     <g id="text_3">
      <!-- 50 -->
      <g transform="translate(280.120057 403.037422)scale(0.165 -0.165)">
       <use xlink:href="#DejaVuSans-35"/>
       <use xlink:href="#DejaVuSans-30" x="63.623047"/>
      </g>
     </g>
    </g>
    <g id="xtick_4">
     <g id="line2d_4">
      <g>
       <use xlink:href="#mb2638ecd03" x="366.709091" y="378" style="stroke: #000000; stroke-width: 1.875"/>
      </g>
     </g>
     <g id="text_4">
      <!-- 75 -->
      <g transform="translate(356.210966 403.037422)scale(0.165 -0.165)">
       <defs>
        <path id="DejaVuSans-37" d="M 525 4666 
L 3525 4666 
L 3525 4397 
L 1831 0 
L 1172 0 
L 2766 4134 
L 525 4134 
L 525 4666 
z
" transform="scale(0.015625)"/>
       </defs>
       <use xlink:href="#DejaVuSans-37"/>
       <use xlink:href="#DejaVuSans-35" x="63.623047"/>
      </g>
     </g>
    </g>
    <g id="xtick_5">
     <g id="line2d_5">
      <g>
       <use xlink:href="#mb2638ecd03" x="442.8" y="378" style="stroke: #000000; stroke-width: 1.875"/>
      </g>
     </g>
     <g id="text_5">
      <!-- 100 -->
      <g transform="translate(427.052813 403.037422)scale(0.165 -0.165)">
       <defs>
        <path id="DejaVuSans-31" d="M 794 531 
L 1825 531 
L 1825 4091 
L 703 3866 
L 703 4441 
L 1819 4666 
L 2450 4666 
L 2450 531 
L 3481 531 
L 3481 0 
L 794 0 
L 794 531 
z
" transform="scale(0.015625)"/>
       </defs>
       <use xlink:href="#DejaVuSans-31"/>
       <use xlink:href="#DejaVuSans-30" x="63.623047"/>
       <use xlink:href="#DejaVuSans-30" x="127.246094"/>
      </g>
     </g>
    </g>
    <g id="xtick_6">
     <g id="line2d_6">
      <g>
       <use xlink:href="#mb2638ecd03" x="518.890909" y="378" style="stroke: #000000; stroke-width: 1.875"/>
      </g>
     </g>
     <g id="text_6">
      <!-- 125 -->
      <g transform="translate(503.143722 403.037422)scale(0.165 -0.165)">
       <use xlink:href="#DejaVuSans-31"/>
       <use xlink:href="#DejaVuSans-32" x="63.623047"/>
       <use xlink:href="#DejaVuSans-35" x="127.246094"/>
      </g>
     </g>
    </g>
    <g id="xtick_7">
     <g id="line2d_7">
      <g>
       <use xlink:href="#mb2638ecd03" x="594.981818" y="378" style="stroke: #000000; stroke-width: 1.875"/>
      </g>
     </g>
     <g id="text_7">
      <!-- 150 -->
      <g transform="translate(579.234631 403.037422)scale(0.165 -0.165)">
       <use xlink:href="#DejaVuSans-31"/>
       <use xlink:href="#DejaVuSans-35" x="63.623047"/>
       <use xlink:href="#DejaVuSans-30" x="127.246094"/>
      </g>
     </g>
    </g>
    <g id="xtick_8">
     <g id="line2d_8">
      <g>
       <use xlink:href="#mb2638ecd03" x="671.072727" y="378" style="stroke: #000000; stroke-width: 1.875"/>
      </g>
     </g>
     <g id="text_8">
      <!-- 175 -->
      <g transform="translate(655.32554 403.037422)scale(0.165 -0.165)">
       <use xlink:href="#DejaVuSans-31"/>
       <use xlink:href="#DejaVuSans-37" x="63.623047"/>
       <use xlink:href="#DejaVuSans-35" x="127.246094"/>
      </g>
     </g>
    </g>
    <g id="xtick_9">
     <g id="line2d_9">
      <g>
       <use xlink:href="#mb2638ecd03" x="747.163636" y="378" style="stroke: #000000; stroke-width: 1.875"/>
      </g>
     </g>
     <g id="text_9">
      <!-- 200 -->
      <g transform="translate(731.416449 403.037422)scale(0.165 -0.165)">
       <use xlink:href="#DejaVuSans-32"/>
       <use xlink:href="#DejaVuSans-30" x="63.623047"/>
       <use xlink:href="#DejaVuSans-30" x="127.246094"/>
      </g>
     </g>
    </g>
    <g id="text_10">
     <!-- trial -->
     <g transform="translate(425.055938 424.146094)scale(0.18 -0.18)">
      <defs>
       <path id="DejaVuSans-74" d="M 1172 4494 
L 1172 3500 
L 2356 3500 
L 2356 3053 
L 1172 3053 
L 1172 1153 
Q 1172 725 1289 603 
Q 1406 481 1766 481 
L 2356 481 
L 2356 0 
L 1766 0 
Q 1100 0 847 248 
Q 594 497 594 1153 
L 594 3053 
L 172 3053 
L 172 3500 
L 594 3500 
L 594 4494 
L 1172 4494 
z
" transform="scale(0.015625)"/>
       <path id="DejaVuSans-72" d="M 2631 2963 
Q 2534 3019 2420 3045 
Q 2306 3072 2169 3072 
Q 1681 3072 1420 2755 
Q 1159 2438 1159 1844 
L 1159 0 
L 581 0 
L 581 3500 
L 1159 3500 
L 1159 2956 
Q 1341 3275 1631 3429 
Q 1922 3584 2338 3584 
Q 2397 3584 2469 3576 
Q 2541 3569 2628 3553 
L 2631 2963 
z
" transform="scale(0.015625)"/>
       <path id="DejaVuSans-69" d="M 603 3500 
L 1178 3500 
L 1178 0 
L 603 0 
L 603 3500 
z
M 603 4863 
L 1178 4863 
L 1178 4134 
L 603 4134 
L 603 4863 
z
" transform="scale(0.015625)"/>
       <path id="DejaVuSans-61" d="M 2194 1759 
Q 1497 1759 1228 1600 
Q 959 1441 959 1056 
Q 959 750 1161 570 
Q 1363 391 1709 391 
Q 2188 391 2477 730 
Q 2766 1069 2766 1631 
L 2766 1759 
L 2194 1759 
z
M 3341 1997 
L 3341 0 
L 2766 0 
L 2766 531 
Q 2569 213 2275 61 
Q 1981 -91 1556 -91 
Q 1019 -91 701 211 
Q 384 513 384 1019 
Q 384 1609 779 1909 
Q 1175 2209 1959 2209 
L 2766 2209 
L 2766 2266 
Q 2766 2663 2505 2880 
Q 2244 3097 1772 3097 
Q 1472 3097 1187 3025 
Q 903 2953 641 2809 
L 641 3341 
Q 956 3463 1253 3523 
Q 1550 3584 1831 3584 
Q 2591 3584 2966 3190 
Q 3341 2797 3341 1997 
z
" transform="scale(0.015625)"/>
       <path id="DejaVuSans-6c" d="M 603 4863 
L 1178 4863 
L 1178 0 
L 603 0 
L 603 4863 
z
" transform="scale(0.015625)"/>
      </defs>
      <use xlink:href="#DejaVuSans-74"/>
      <use xlink:href="#DejaVuSans-72" x="39.208984"/>
      <use xlink:href="#DejaVuSans-69" x="80.322266"/>
      <use xlink:href="#DejaVuSans-61" x="108.105469"/>
      <use xlink:href="#DejaVuSans-6c" x="169.384766"/>
     </g>
    </g>
   </g>
   <g id="matplotlib.axis_2">
    <g id="ytick_1">
     <g id="line2d_10">
      <defs>
       <path id="m22dbdcf50b" d="M 0 0 
L -9 0 
" style="stroke: #000000; stroke-width: 1.875"/>
      </defs>
      <g>
       <use xlink:href="#m22dbdcf50b" x="108" y="363.174545" style="stroke: #000000; stroke-width: 1.875"/>
      </g>
     </g>
     <g id="text_11">
      <!-- 0.0 -->
      <g transform="translate(69.259844 369.443256)scale(0.165 -0.165)">
       <defs>
        <path id="DejaVuSans-2e" d="M 684 794 
L 1344 794 
L 1344 0 
L 684 0 
L 684 794 
z
" transform="scale(0.015625)"/>
       </defs>
       <use xlink:href="#DejaVuSans-30"/>
       <use xlink:href="#DejaVuSans-2e" x="63.623047"/>
       <use xlink:href="#DejaVuSans-30" x="95.410156"/>
      </g>
     </g>
    </g>
    <g id="ytick_2">
     <g id="line2d_11">
      <g>
       <use xlink:href="#m22dbdcf50b" x="108" y="306.696623" style="stroke: #000000; stroke-width: 1.875"/>
      </g>
     </g>
     <g id="text_12">
      <!-- 0.2 -->
      <g transform="translate(69.259844 312.965334)scale(0.165 -0.165)">
       <use xlink:href="#DejaVuSans-30"/>
       <use xlink:href="#DejaVuSans-2e" x="63.623047"/>
       <use xlink:href="#DejaVuSans-32" x="95.410156"/>
      </g>
     </g>
    </g>
    <g id="ytick_3">
     <g id="line2d_12">
      <g>
       <use xlink:href="#m22dbdcf50b" x="108" y="250.218701" style="stroke: #000000; stroke-width: 1.875"/>
      </g>
     </g>
     <g id="text_13">
      <!-- 0.4 -->
      <g transform="translate(69.259844 256.487412)scale(0.165 -0.165)">
       <defs>
        <path id="DejaVuSans-34" d="M 2419 4116 
L 825 1625 
L 2419 1625 
L 2419 4116 
z
M 2253 4666 
L 3047 4666 
L 3047 1625 
L 3713 1625 
L 3713 1100 
L 3047 1100 
L 3047 0 
L 2419 0 
L 2419 1100 
L 313 1100 
L 313 1709 
L 2253 4666 
z
" transform="scale(0.015625)"/>
       </defs>
       <use xlink:href="#DejaVuSans-30"/>
       <use xlink:href="#DejaVuSans-2e" x="63.623047"/>
       <use xlink:href="#DejaVuSans-34" x="95.410156"/>
      </g>
     </g>
    </g>
    <g id="ytick_4">
     <g id="line2d_13">
      <g>
       <use xlink:href="#m22dbdcf50b" x="108" y="193.740779" style="stroke: #000000; stroke-width: 1.875"/>
      </g>
     </g>
     <g id="text_14">
      <!-- 0.6 -->
      <g transform="translate(69.259844 200.00949)scale(0.165 -0.165)">
       <defs>
        <path id="DejaVuSans-36" d="M 2113 2584 
Q 1688 2584 1439 2293 
Q 1191 2003 1191 1497 
Q 1191 994 1439 701 
Q 1688 409 2113 409 
Q 2538 409 2786 701 
Q 3034 994 3034 1497 
Q 3034 2003 2786 2293 
Q 2538 2584 2113 2584 
z
M 3366 4563 
L 3366 3988 
Q 3128 4100 2886 4159 
Q 2644 4219 2406 4219 
Q 1781 4219 1451 3797 
Q 1122 3375 1075 2522 
Q 1259 2794 1537 2939 
Q 1816 3084 2150 3084 
Q 2853 3084 3261 2657 
Q 3669 2231 3669 1497 
Q 3669 778 3244 343 
Q 2819 -91 2113 -91 
Q 1303 -91 875 529 
Q 447 1150 447 2328 
Q 447 3434 972 4092 
Q 1497 4750 2381 4750 
Q 2619 4750 2861 4703 
Q 3103 4656 3366 4563 
z
" transform="scale(0.015625)"/>
       </defs>
       <use xlink:href="#DejaVuSans-30"/>
       <use xlink:href="#DejaVuSans-2e" x="63.623047"/>
       <use xlink:href="#DejaVuSans-36" x="95.410156"/>
      </g>
     </g>
    </g>
    <g id="ytick_5">
     <g id="line2d_14">
      <g>
       <use xlink:href="#m22dbdcf50b" x="108" y="137.262857" style="stroke: #000000; stroke-width: 1.875"/>
      </g>
     </g>
     <g id="text_15">
      <!-- 0.8 -->
      <g transform="translate(69.259844 143.531568)scale(0.165 -0.165)">
       <defs>
        <path id="DejaVuSans-38" d="M 2034 2216 
Q 1584 2216 1326 1975 
Q 1069 1734 1069 1313 
Q 1069 891 1326 650 
Q 1584 409 2034 409 
Q 2484 409 2743 651 
Q 3003 894 3003 1313 
Q 3003 1734 2745 1975 
Q 2488 2216 2034 2216 
z
M 1403 2484 
Q 997 2584 770 2862 
Q 544 3141 544 3541 
Q 544 4100 942 4425 
Q 1341 4750 2034 4750 
Q 2731 4750 3128 4425 
Q 3525 4100 3525 3541 
Q 3525 3141 3298 2862 
Q 3072 2584 2669 2484 
Q 3125 2378 3379 2068 
Q 3634 1759 3634 1313 
Q 3634 634 3220 271 
Q 2806 -91 2034 -91 
Q 1263 -91 848 271 
Q 434 634 434 1313 
Q 434 1759 690 2068 
Q 947 2378 1403 2484 
z
M 1172 3481 
Q 1172 3119 1398 2916 
Q 1625 2713 2034 2713 
Q 2441 2713 2670 2916 
Q 2900 3119 2900 3481 
Q 2900 3844 2670 4047 
Q 2441 4250 2034 4250 
Q 1625 4250 1398 4047 
Q 1172 3844 1172 3481 
z
" transform="scale(0.015625)"/>
       </defs>
       <use xlink:href="#DejaVuSans-30"/>
       <use xlink:href="#DejaVuSans-2e" x="63.623047"/>
       <use xlink:href="#DejaVuSans-38" x="95.410156"/>
      </g>
     </g>
    </g>
    <g id="ytick_6">
     <g id="line2d_15">
      <g>
       <use xlink:href="#m22dbdcf50b" x="108" y="80.784935" style="stroke: #000000; stroke-width: 1.875"/>
      </g>
     </g>
     <g id="text_16">
      <!-- 1.0 -->
      <g transform="translate(69.259844 87.053646)scale(0.165 -0.165)">
       <use xlink:href="#DejaVuSans-31"/>
       <use xlink:href="#DejaVuSans-2e" x="63.623047"/>
       <use xlink:href="#DejaVuSans-30" x="95.410156"/>
      </g>
     </g>
    </g>
    <g id="text_17">
     <!-- prediction accuracy -->
     <g transform="translate(61.516406 303.537656)rotate(-90)scale(0.18 -0.18)">
      <defs>
       <path id="DejaVuSans-70" d="M 1159 525 
L 1159 -1331 
L 581 -1331 
L 581 3500 
L 1159 3500 
L 1159 2969 
Q 1341 3281 1617 3432 
Q 1894 3584 2278 3584 
Q 2916 3584 3314 3078 
Q 3713 2572 3713 1747 
Q 3713 922 3314 415 
Q 2916 -91 2278 -91 
Q 1894 -91 1617 61 
Q 1341 213 1159 525 
z
M 3116 1747 
Q 3116 2381 2855 2742 
Q 2594 3103 2138 3103 
Q 1681 3103 1420 2742 
Q 1159 2381 1159 1747 
Q 1159 1113 1420 752 
Q 1681 391 2138 391 
Q 2594 391 2855 752 
Q 3116 1113 3116 1747 
z
" transform="scale(0.015625)"/>
       <path id="DejaVuSans-65" d="M 3597 1894 
L 3597 1613 
L 953 1613 
Q 991 1019 1311 708 
Q 1631 397 2203 397 
Q 2534 397 2845 478 
Q 3156 559 3463 722 
L 3463 178 
Q 3153 47 2828 -22 
Q 2503 -91 2169 -91 
Q 1331 -91 842 396 
Q 353 884 353 1716 
Q 353 2575 817 3079 
Q 1281 3584 2069 3584 
Q 2775 3584 3186 3129 
Q 3597 2675 3597 1894 
z
M 3022 2063 
Q 3016 2534 2758 2815 
Q 2500 3097 2075 3097 
Q 1594 3097 1305 2825 
Q 1016 2553 972 2059 
L 3022 2063 
z
" transform="scale(0.015625)"/>
       <path id="DejaVuSans-64" d="M 2906 2969 
L 2906 4863 
L 3481 4863 
L 3481 0 
L 2906 0 
L 2906 525 
Q 2725 213 2448 61 
Q 2172 -91 1784 -91 
Q 1150 -91 751 415 
Q 353 922 353 1747 
Q 353 2572 751 3078 
Q 1150 3584 1784 3584 
Q 2172 3584 2448 3432 
Q 2725 3281 2906 2969 
z
M 947 1747 
Q 947 1113 1208 752 
Q 1469 391 1925 391 
Q 2381 391 2643 752 
Q 2906 1113 2906 1747 
Q 2906 2381 2643 2742 
Q 2381 3103 1925 3103 
Q 1469 3103 1208 2742 
Q 947 2381 947 1747 
z
" transform="scale(0.015625)"/>
       <path id="DejaVuSans-63" d="M 3122 3366 
L 3122 2828 
Q 2878 2963 2633 3030 
Q 2388 3097 2138 3097 
Q 1578 3097 1268 2742 
Q 959 2388 959 1747 
Q 959 1106 1268 751 
Q 1578 397 2138 397 
Q 2388 397 2633 464 
Q 2878 531 3122 666 
L 3122 134 
Q 2881 22 2623 -34 
Q 2366 -91 2075 -91 
Q 1284 -91 818 406 
Q 353 903 353 1747 
Q 353 2603 823 3093 
Q 1294 3584 2113 3584 
Q 2378 3584 2631 3529 
Q 2884 3475 3122 3366 
z
" transform="scale(0.015625)"/>
       <path id="DejaVuSans-6f" d="M 1959 3097 
Q 1497 3097 1228 2736 
Q 959 2375 959 1747 
Q 959 1119 1226 758 
Q 1494 397 1959 397 
Q 2419 397 2687 759 
Q 2956 1122 2956 1747 
Q 2956 2369 2687 2733 
Q 2419 3097 1959 3097 
z
M 1959 3584 
Q 2709 3584 3137 3096 
Q 3566 2609 3566 1747 
Q 3566 888 3137 398 
Q 2709 -91 1959 -91 
Q 1206 -91 779 398 
Q 353 888 353 1747 
Q 353 2609 779 3096 
Q 1206 3584 1959 3584 
z
" transform="scale(0.015625)"/>
       <path id="DejaVuSans-6e" d="M 3513 2113 
L 3513 0 
L 2938 0 
L 2938 2094 
Q 2938 2591 2744 2837 
Q 2550 3084 2163 3084 
Q 1697 3084 1428 2787 
Q 1159 2491 1159 1978 
L 1159 0 
L 581 0 
L 581 3500 
L 1159 3500 
L 1159 2956 
Q 1366 3272 1645 3428 
Q 1925 3584 2291 3584 
Q 2894 3584 3203 3211 
Q 3513 2838 3513 2113 
z
" transform="scale(0.015625)"/>
       <path id="DejaVuSans-20" transform="scale(0.015625)"/>
       <path id="DejaVuSans-75" d="M 544 1381 
L 544 3500 
L 1119 3500 
L 1119 1403 
Q 1119 906 1312 657 
Q 1506 409 1894 409 
Q 2359 409 2629 706 
Q 2900 1003 2900 1516 
L 2900 3500 
L 3475 3500 
L 3475 0 
L 2900 0 
L 2900 538 
Q 2691 219 2414 64 
Q 2138 -91 1772 -91 
Q 1169 -91 856 284 
Q 544 659 544 1381 
z
M 1991 3584 
L 1991 3584 
z
" transform="scale(0.015625)"/>
       <path id="DejaVuSans-79" d="M 2059 -325 
Q 1816 -950 1584 -1140 
Q 1353 -1331 966 -1331 
L 506 -1331 
L 506 -850 
L 844 -850 
Q 1081 -850 1212 -737 
Q 1344 -625 1503 -206 
L 1606 56 
L 191 3500 
L 800 3500 
L 1894 763 
L 2988 3500 
L 3597 3500 
L 2059 -325 
z
" transform="scale(0.015625)"/>
      </defs>
      <use xlink:href="#DejaVuSans-70"/>
      <use xlink:href="#DejaVuSans-72" x="63.476562"/>
      <use xlink:href="#DejaVuSans-65" x="102.339844"/>
      <use xlink:href="#DejaVuSans-64" x="163.863281"/>
      <use xlink:href="#DejaVuSans-69" x="227.339844"/>
      <use xlink:href="#DejaVuSans-63" x="255.123047"/>
      <use xlink:href="#DejaVuSans-74" x="310.103516"/>
      <use xlink:href="#DejaVuSans-69" x="349.3125"/>
      <use xlink:href="#DejaVuSans-6f" x="377.095703"/>
      <use xlink:href="#DejaVuSans-6e" x="438.277344"/>
      <use xlink:href="#DejaVuSans-20" x="501.65625"/>
      <use xlink:href="#DejaVuSans-61" x="533.443359"/>
      <use xlink:href="#DejaVuSans-63" x="594.722656"/>
      <use xlink:href="#DejaVuSans-63" x="649.703125"/>
      <use xlink:href="#DejaVuSans-75" x="704.683594"/>
      <use xlink:href="#DejaVuSans-72" x="768.0625"/>
      <use xlink:href="#DejaVuSans-61" x="809.175781"/>
      <use xlink:href="#DejaVuSans-63" x="870.455078"/>
      <use xlink:href="#DejaVuSans-79" x="925.435547"/>
     </g>
    </g>
   </g>
   <g id="line2d_16">
    <path d="M 138.436364 167.070649 
L 141.48 259.956274 
L 144.523636 213.422479 
L 147.567273 208.383203 
L 150.610909 229.51013 
L 153.654545 224.257076 
L 156.698182 174.914805 
L 159.741818 227.05869 
L 162.785455 194.153027 
L 165.829091 183.655436 
L 168.872727 194.616406 
L 171.916364 213.794534 
L 174.96 204.33039 
L 178.003636 178.300772 
L 181.047273 203.079648 
L 184.090909 207.169096 
L 187.134545 200.703811 
L 190.178182 192.60364 
L 193.221818 187.224096 
L 196.265455 223.127666 
L 199.309091 177.789 
L 202.352727 213.674163 
L 205.396364 201.809054 
L 208.44 214.548435 
L 211.483636 177.210656 
L 214.527273 224.026042 
L 217.570909 191.451134 
L 220.614545 190.282947 
L 223.658182 192.149852 
L 226.701818 230.668651 
L 229.745455 209.701931 
L 232.789091 228.811747 
L 235.832727 188.172533 
L 238.876364 186.154193 
L 241.92 189.557229 
L 244.963636 187.969313 
L 248.007273 240.481129 
L 251.050909 178.836883 
L 254.094545 205.812396 
L 257.138182 193.740779 
L 260.181818 191.596048 
L 263.225455 214.970069 
L 266.269091 183.818982 
L 269.312727 202.679731 
L 272.356364 192.149852 
L 275.4 204.892471 
L 278.443636 178.300772 
L 281.487273 214.869211 
L 284.530909 187.421571 
L 287.574545 195.034167 
L 290.618182 199.496491 
L 293.661818 190.503191 
L 296.705455 188.458671 
L 299.749091 214.243039 
L 302.792727 195.57746 
L 305.836364 208.315727 
L 308.88 170.069885 
L 311.923636 203.65675 
L 314.967273 210.948896 
L 318.010909 201.54365 
L 321.054545 188.642078 
L 324.098182 189.557229 
L 327.141818 207.750806 
L 330.185455 215.361234 
L 333.229091 177.547809 
L 336.272727 207.117129 
L 339.316364 209.335429 
L 342.36 210.806051 
L 345.403636 199.685824 
L 348.447273 198.259013 
L 351.490909 213.093354 
L 354.534545 190.708408 
L 357.578182 190.603117 
L 360.621818 207.65563 
L 363.665455 196.9452 
L 366.709091 228.118645 
L 369.752727 194.942437 
L 372.796364 210.642931 
L 375.84 189.706642 
L 378.883636 179.621299 
L 381.927273 202.637986 
L 384.970909 217.110954 
L 388.014545 189.557229 
L 391.058182 212.087111 
L 394.101818 160.086127 
L 397.145455 177.60423 
L 400.189091 193.740779 
L 403.232727 214.243039 
L 406.276364 183.296232 
L 409.32 233.584793 
L 412.363636 198.447273 
L 415.407273 190.833827 
L 418.450909 196.637083 
L 421.494545 218.842078 
L 424.538182 176.213148 
L 427.581818 185.672505 
L 430.625455 170.909279 
L 433.669091 194.901284 
L 436.712727 183.100011 
L 439.756364 221.97974 
L 442.8 196.518382 
L 445.843636 242.775874 
L 448.887273 197.635808 
L 451.930909 181.332751 
L 454.974545 174.914805 
L 458.018182 192.091789 
L 461.061818 181.638367 
L 464.105455 178.229237 
L 467.149091 198.947964 
L 470.192727 192.64056 
L 473.236364 217.76497 
L 476.28 195.034167 
L 479.323636 196.9452 
L 482.367273 209.750269 
L 485.410909 178.300772 
L 488.454545 196.518382 
L 491.498182 203.563027 
L 494.541818 213.911466 
L 497.585455 182.598876 
L 500.629091 203.975034 
L 503.672727 184.916104 
L 506.716364 213.911466 
L 509.76 174.278793 
L 512.803636 188.642078 
L 515.847273 204.459217 
L 518.890909 191.723711 
L 521.934545 183.127478 
L 524.978182 203.478352 
L 528.021818 193.359172 
L 531.065455 223.968399 
L 534.109091 179.007408 
L 537.152727 233.657506 
L 540.196364 181.19013 
L 543.24 187.586134 
L 546.283636 188.689908 
L 549.327273 186.183874 
L 552.370909 185.672505 
L 555.414545 202.343377 
L 558.458182 168.639481 
L 561.501818 215.928534 
L 567.589091 192.910222 
L 570.632727 191.451134 
L 573.676364 178.375462 
L 576.72 206.506337 
L 579.763636 203.563027 
L 582.807273 202.899361 
L 585.850909 198.769635 
L 588.894545 178.620706 
L 591.938182 193.371642 
L 594.981818 146.113875 
L 598.025455 213.33516 
L 601.069091 228.703302 
L 604.112727 179.944646 
L 607.156364 182.699982 
L 610.2 218.93237 
L 613.243636 194.862857 
L 616.287273 193.359172 
L 619.330909 171.818428 
L 622.374545 189.069673 
L 625.418182 208.774471 
L 628.461818 189.123087 
L 631.505455 174.251919 
L 634.549091 215.068106 
L 637.592727 200.104489 
L 640.636364 200.950727 
L 643.68 207.86026 
L 646.723636 208.659476 
L 649.767273 195.439363 
L 652.810909 218.057662 
L 655.854545 219.058468 
L 658.898182 213.215925 
L 661.941818 183.655436 
L 664.985455 220.018701 
L 668.029091 181.19013 
L 671.072727 186.440912 
L 674.116364 185.988908 
L 677.16 204.050241 
L 680.203636 206.055514 
L 683.247273 197.562593 
L 686.290909 206.291429 
L 689.334545 213.290829 
L 692.378182 187.224096 
L 695.421818 192.149852 
L 698.465455 210.474978 
L 701.509091 195.439363 
L 704.552727 199.345459 
L 707.596364 185.72702 
L 710.64 181.332751 
L 713.683636 187.465455 
L 716.727273 174.222674 
L 719.770909 229.300952 
L 722.814545 196.12717 
L 725.858182 207.765498 
L 728.901818 171.14961 
L 731.945455 180.451856 
L 734.989091 180.923095 
L 738.032727 172.421299 
L 741.076364 207.169096 
L 744.12 177.60423 
L 744.12 177.60423 
" clip-path="url(#pa7b75dbdf8)" style="fill: none; stroke: #1f77b4; stroke-width: 2.25; stroke-linecap: square"/>
   </g>
   <g id="line2d_17">
    <path d="M 108 221.97974 
L 777.6 221.97974 
" clip-path="url(#pa7b75dbdf8)" style="fill: none; stroke: #000000; stroke-width: 2.25; stroke-linecap: square"/>
   </g>
   <g id="patch_3">
    <path d="M 108 378 
L 108 51.84 
" style="fill: none; stroke: #000000; stroke-width: 1.875; stroke-linejoin: miter; stroke-linecap: square"/>
   </g>
   <g id="patch_4">
    <path d="M 777.6 378 
L 777.6 51.84 
" style="fill: none; stroke: #000000; stroke-width: 1.875; stroke-linejoin: miter; stroke-linecap: square"/>
   </g>
   <g id="patch_5">
    <path d="M 108 378 
L 777.6 378 
" style="fill: none; stroke: #000000; stroke-width: 1.875; stroke-linejoin: miter; stroke-linecap: square"/>
   </g>
   <g id="patch_6">
    <path d="M 108 51.84 
L 777.6 51.84 
" style="fill: none; stroke: #000000; stroke-width: 1.875; stroke-linejoin: miter; stroke-linecap: square"/>
   </g>
  </g>
 </g>
 <defs>
  <clipPath id="pa7b75dbdf8">
   <rect x="108" y="51.84" width="669.6" height="326.16"/>
  </clipPath>
 </defs>
</svg>
