<?xml version="1.0" encoding="utf-8" standalone="no"?>
<!DOCTYPE svg PUBLIC "-//W3C//DTD SVG 1.1//EN"
  "http://www.w3.org/Graphics/SVG/1.1/DTD/svg11.dtd">
<svg xmlns:xlink="http://www.w3.org/1999/xlink" width="864pt" height="432pt" viewBox="0 0 864 432" xmlns="http://www.w3.org/2000/svg" version="1.1">
 <metadata>
  <rdf:RDF xmlns:dc="http://purl.org/dc/elements/1.1/" xmlns:cc="http://creativecommons.org/ns#" xmlns:rdf="http://www.w3.org/1999/02/22-rdf-syntax-ns#">
   <cc:Work>
    <dc:type rdf:resource="http://purl.org/dc/dcmitype/StillImage"/>
    <dc:date>2023-05-01T11:43:58.332940</dc:date>
    <dc:format>image/svg+xml</dc:format>
    <dc:creator>
     <cc:Agent>
      <dc:title>Matplotlib v3.5.1, https://matplotlib.org/</dc:title>
     </cc:Agent>
    </dc:creator>
   </cc:Work>
  </rdf:RDF>
 </metadata>
 <defs>
  <style type="text/css">*{stroke-linejoin: round; stroke-linecap: butt}</style>
 </defs>
 <g id="figure_1">
  <g id="patch_1">
   <path d="M 0 432 
L 864 432 
L 864 0 
L 0 0 
L 0 432 
z
" style="fill: none"/>
  </g>
  <g id="axes_1">
   <g id="patch_2">
    <path d="M 108 378 
L 777.6 378 
L 777.6 51.84 
L 108 51.84 
z
" style="fill: #ffffff"/>
   </g>
   <g id="PolyCollection_1">
    <defs>
     <path id="m9c63a22738" d="M 138.436364 -228.846234 
L 138.436364 -179.428052 
L 141.48 -252.493494 
L 144.523636 -252.055354 
L 147.567273 -257.085195 
L 150.610909 -264.676313 
L 153.654545 -269.53212 
L 156.698182 -239.745482 
L 159.741818 -266.720536 
L 162.785455 -279.460328 
L 165.829091 -274.597729 
L 168.872727 -285.324156 
L 171.916364 -282.823831 
L 174.96 -266.049944 
L 178.003636 -284.207361 
L 181.047273 -289.516495 
L 184.090909 -289.129406 
L 187.134545 -292.478026 
L 190.178182 -293.77989 
L 193.221818 -306.032727 
L 196.265455 -279.361268 
L 199.309091 -310.873692 
L 202.352727 -298.677463 
L 205.396364 -295.163162 
L 208.44 -310.873692 
L 211.483636 -305.745551 
L 214.527273 -291.764621 
L 217.570909 -306.872895 
L 220.614545 -280.061777 
L 223.658182 -315.356067 
L 226.701818 -327.877081 
L 229.745455 -286.164601 
L 232.789091 -312.12821 
L 235.832727 -312.413439 
L 238.876364 -300.706354 
L 241.92 -302.205298 
L 244.963636 -293.691255 
L 248.007273 -307.770509 
L 251.050909 -309.297857 
L 254.094545 -304.852592 
L 257.138182 -325.543282 
L 260.181818 -109.489558 
L 263.225455 -215.952815 
L 266.269091 -254.789344 
L 269.312727 -303.77361 
L 272.356364 -268.944076 
L 275.4 -280.617662 
L 278.443636 -303.754626 
L 281.487273 -296.99626 
L 284.530909 -288.461818 
L 287.574545 -306.391317 
L 290.618182 -291.179478 
L 293.661818 -279.56397 
L 296.705455 -316.777308 
L 299.749091 -290.85698 
L 302.792727 -304.885519 
L 305.836364 -313.563117 
L 308.88 -312.50036 
L 311.923636 -282.970909 
L 314.967273 -298.410504 
L 318.010909 -294.737143 
L 321.054545 -296.909371 
L 324.098182 -318.235256 
L 327.141818 -331.906374 
L 330.185455 -309.622797 
L 333.229091 -305.189937 
L 336.272727 -300.473182 
L 339.316364 -297.658415 
L 342.36 -311.20987 
L 345.403636 -300.959287 
L 348.447273 -296.909371 
L 351.490909 -297.977679 
L 354.534545 -312.890761 
L 357.578182 -315.916364 
L 360.621818 -307.945689 
L 363.665455 -294.737143 
L 366.709091 -279.918048 
L 369.752727 -294.737143 
L 372.796364 -278.205584 
L 375.84 -288.685937 
L 378.883636 -313.87429 
L 381.927273 -205.741629 
L 384.970909 -281.774997 
L 388.014545 -297.09039 
L 391.058182 -303.426054 
L 394.101818 -296.63556 
L 397.145455 -281.901251 
L 400.189091 -317.055031 
L 403.232727 -306.627232 
L 406.276364 -307.770509 
L 409.32 -315.224232 
L 412.363636 -311.504026 
L 415.407273 -298.267013 
L 418.450909 -305.356923 
L 421.494545 -317.711213 
L 424.538182 -300.292348 
L 427.581818 -307.593906 
L 430.625455 -307.395987 
L 433.669091 -319.838442 
L 436.712727 -312.597682 
L 439.756364 -298.530436 
L 442.8 -309.889756 
L 445.843636 -300.057527 
L 448.887273 -300.706354 
L 451.930909 -325.926443 
L 454.974545 -299.648267 
L 458.018182 -304.961594 
L 461.061818 -310.873692 
L 464.105455 -304.0941 
L 467.149091 -306.032727 
L 470.192727 -298.410504 
L 473.236364 -305.668354 
L 476.28 -315.011269 
L 479.323636 -313.563117 
L 482.367273 -315.356067 
L 485.410909 -323.966945 
L 488.454545 -331.39825 
L 491.498182 -311.191341 
L 494.541818 -311.540492 
L 497.585455 -313.729718 
L 500.629091 -301.234603 
L 503.672727 -254.844007 
L 506.716364 -291.033673 
L 509.76 -296.173022 
L 512.803636 -285.543063 
L 515.847273 -313.918324 
L 518.890909 -291.386758 
L 521.934545 -292.789628 
L 524.978182 -298.73558 
L 528.021818 -310.873692 
L 531.065455 -311.471342 
L 534.109091 -301.381604 
L 537.152727 -303.002205 
L 540.196364 -306.520306 
L 543.24 -300.473182 
L 546.283636 -290.218909 
L 549.327273 -319.587429 
L 552.370909 -297.977679 
L 555.414545 -317.841747 
L 558.458182 -310.550961 
L 561.501818 -295.626559 
L 564.545455 -306.391317 
L 567.589091 -295.745677 
L 570.632727 -316.724731 
L 573.676364 -322.976104 
L 576.72 -280.617662 
L 579.763636 -302.679351 
L 582.807273 -319.366613 
L 585.850909 -308.50067 
L 588.894545 -299.667755 
L 591.938182 -311.20987 
L 594.981818 -305.422155 
L 598.025455 -295.203903 
L 601.069091 -306.872895 
L 604.112727 -295.66301 
L 607.156364 -287.99351 
L 610.2 -284.84281 
L 613.243636 -287.613801 
L 616.287273 -312.615046 
L 619.330909 -303.352419 
L 622.374545 -282.285318 
L 625.418182 -264.864523 
L 628.461818 -267.664574 
L 631.505455 -292.593074 
L 634.549091 -268.714013 
L 637.592727 -265.174481 
L 640.636364 -277.651385 
L 643.68 -276.339032 
L 646.723636 -268.851429 
L 649.767273 -281.774997 
L 652.810909 -309.990304 
L 655.854545 -291.522952 
L 658.898182 -288.739487 
L 661.941818 -278.183269 
L 664.985455 -291.179478 
L 668.029091 -291.522952 
L 671.072727 -275.394602 
L 674.116364 -288.719004 
L 677.16 -291.179478 
L 680.203636 -274.778779 
L 683.247273 -292.478026 
L 686.290909 -275.278363 
L 689.334545 -298.920693 
L 692.378182 -265.786275 
L 695.421818 -260.762143 
L 698.465455 -300.86653 
L 701.509091 -282.823831 
L 704.552727 -282.894998 
L 707.596364 -275.574991 
L 710.64 -281.814228 
L 713.683636 -271.167616 
L 716.727273 -305.745551 
L 719.770909 -305.298055 
L 722.814545 -285.172333 
L 725.858182 -308.632505 
L 728.901818 -285.324156 
L 731.945455 -279.421096 
L 734.989091 -278.975862 
L 738.032727 -272.773506 
L 741.076364 -306.391317 
L 744.12 -278.975862 
L 744.12 -316.189997 
L 744.12 -316.189997 
L 741.076364 -335.526753 
L 738.032727 -313.170909 
L 734.989091 -318.379064 
L 731.945455 -317.711213 
L 728.901818 -320.622857 
L 725.858182 -337.767941 
L 722.814545 -323.887038 
L 719.770909 -335.144111 
L 716.727273 -336.856271 
L 713.683636 -308.9678 
L 710.64 -320.104345 
L 707.596364 -315.916364 
L 704.552727 -321.609703 
L 701.509091 -320.328701 
L 698.465455 -331.513464 
L 695.421818 -302.679351 
L 692.378182 -308.559996 
L 689.334545 -330.297316 
L 686.290909 -315.619736 
L 683.247273 -326.364779 
L 680.203636 -315.120152 
L 677.16 -324.532582 
L 674.116364 -323.439038 
L 671.072727 -314.481457 
L 668.029091 -328.25656 
L 664.985455 -324.532582 
L 661.941818 -317.13356 
L 658.898182 -326.224834 
L 655.854545 -325.96071 
L 652.810909 -338.847637 
L 649.767273 -321.124369 
L 646.723636 -311.20987 
L 643.68 -314.846706 
L 640.636364 -315.619736 
L 637.592727 -307.091688 
L 634.549091 -307.980597 
L 631.505455 -324.021991 
L 628.461818 -307.076341 
L 625.418182 -306.872895 
L 622.374545 -320.085502 
L 619.330909 -336.856271 
L 616.287273 -339.025585 
L 613.243636 -328.31861 
L 610.2 -321.264652 
L 607.156364 -321.764357 
L 604.112727 -330.383044 
L 601.069091 -337.212274 
L 598.025455 -330.210879 
L 594.981818 -338.494812 
L 591.938182 -339.448831 
L 588.894545 -331.044378 
L 585.850909 -336.976933 
L 582.807273 -344.845374 
L 579.763636 -333.565714 
L 576.72 -322.45316 
L 573.676364 -344.698382 
L 570.632727 -340.436836 
L 567.589091 -331.044378 
L 564.545455 -335.526753 
L 561.501818 -331.203203 
L 558.458182 -339.919481 
L 555.414545 -343.51353 
L 552.370909 -332.697713 
L 549.327273 -344.437714 
L 546.283636 -326.364779 
L 543.24 -333.565714 
L 540.196364 -334.962425 
L 537.152727 -335.144111 
L 534.109091 -334.603911 
L 531.065455 -338.664416 
L 528.021818 -338.475684 
L 524.978182 -333.721903 
L 521.934545 -326.871133 
L 518.890909 -327.283742 
L 515.847273 -343.222906 
L 512.803636 -322.757197 
L 509.76 -329.676874 
L 506.716364 -328.068376 
L 503.672727 -295.18538 
L 500.629091 -333.721903 
L 497.585455 -341.218973 
L 494.541818 -339.546073 
L 491.498182 -337.873823 
L 488.454545 -348.737963 
L 485.410909 -346.260861 
L 482.367273 -342.250315 
L 479.323636 -339.448831 
L 476.28 -341.560719 
L 473.236364 -335.273716 
L 470.192727 -330.552411 
L 467.149091 -335.457725 
L 464.105455 -335.526753 
L 461.061818 -340.009128 
L 458.018182 -334.174313 
L 454.974545 -334.026132 
L 451.930909 -344.892909 
L 448.887273 -335.144111 
L 445.843636 -332.798351 
L 442.8 -337.439962 
L 439.756364 -330.141213 
L 436.712727 -341.560719 
L 433.669091 -344.491503 
L 430.625455 -339.043099 
L 427.581818 -337.439962 
L 424.538182 -330.383044 
L 421.494545 -344.035668 
L 418.450909 -336.733546 
L 415.407273 -329.153377 
L 412.363636 -340.184221 
L 409.32 -345.678014 
L 406.276364 -336.009471 
L 403.232727 -334.229224 
L 400.189091 -342.105723 
L 397.145455 -320.408926 
L 394.101818 -332.230889 
L 391.058182 -333.837243 
L 388.014545 -332.389091 
L 384.970909 -321.124369 
L 381.927273 -254.94588 
L 378.883636 -339.546073 
L 375.84 -322.976104 
L 372.796364 -315.916364 
L 369.752727 -328.623896 
L 366.709091 -318.206009 
L 363.665455 -328.623896 
L 360.621818 -337.551052 
L 357.578182 -341.802078 
L 354.534545 -337.095584 
L 351.490909 -330.383044 
L 348.447273 -329.492787 
L 345.403636 -334.463139 
L 342.36 -339.448831 
L 339.316364 -331.739919 
L 336.272727 -331.359545 
L 333.229091 -333.757258 
L 330.185455 -335.891598 
L 327.141818 -348.801479 
L 324.098182 -340.908875 
L 321.054545 -329.492787 
L 318.010909 -328.623896 
L 314.967273 -330.552411 
L 311.923636 -322.976104 
L 308.88 -339.828387 
L 305.836364 -341.802078 
L 302.792727 -335.771883 
L 299.749091 -325.347314 
L 296.705455 -342.031663 
L 293.661818 -317.496903 
L 290.618182 -326.756122 
L 287.574545 -335.526753 
L 284.530909 -324.665614 
L 281.487273 -328.623896 
L 278.443636 -334.603911 
L 275.4 -319.567953 
L 272.356364 -306.74426 
L 269.312727 -335.401247 
L 266.269091 -298.410504 
L 263.225455 -265.786275 
L 260.181818 -150.153662 
L 257.138182 -348.647887 
L 254.094545 -334.355984 
L 251.050909 -337.978052 
L 248.007273 -333.442292 
L 244.963636 -330.297316 
L 241.92 -332.603022 
L 238.876364 -332.848261 
L 235.832727 -340.436836 
L 232.789091 -337.439962 
L 229.745455 -319.838442 
L 226.701818 -348.881267 
L 223.658182 -340.009128 
L 220.614545 -317.861961 
L 217.570909 -337.212274 
L 214.527273 -328.921148 
L 211.483636 -336.856271 
L 208.44 -339.349955 
L 205.396364 -329.305526 
L 202.352727 -329.324397 
L 199.309091 -340.009128 
L 196.265455 -317.711213 
L 193.221818 -335.401247 
L 190.178182 -327.283742 
L 187.134545 -328.623896 
L 184.090909 -321.173617 
L 181.047273 -325.111824 
L 178.003636 -322.497477 
L 174.96 -308.632505 
L 171.916364 -320.328701 
L 168.872727 -322.976104 
L 165.829091 -311.811863 
L 162.785455 -318.8097 
L 159.741818 -306.74426 
L 156.698182 -286.810417 
L 153.654545 -309.206693 
L 150.610909 -305.668354 
L 147.567273 -301.796883 
L 144.523636 -295.168272 
L 141.48 -296.114653 
L 138.436364 -228.846234 
z
" style="stroke: #1f77b4; stroke-opacity: 0.2; stroke-width: 1.5"/>
    </defs>
    <g clip-path="url(#pcffa1303b8)">
     <use xlink:href="#m9c63a22738" x="0" y="432" style="fill: #1f77b4; fill-opacity: 0.2; stroke: #1f77b4; stroke-opacity: 0.2; stroke-width: 1.5"/>
    </g>
   </g>
   <g id="PolyCollection_2">
    <defs>
     <path id="m4de40073b7" d="M 138.436364 -365.334545 
L 138.436364 -68.825455 
L 141.48 -68.825455 
L 144.523636 -68.825455 
L 147.567273 -68.825455 
L 150.610909 -68.825455 
L 153.654545 -68.825455 
L 156.698182 -68.825455 
L 159.741818 -68.825455 
L 162.785455 -68.825455 
L 165.829091 -68.825455 
L 168.872727 -68.825455 
L 171.916364 -68.825455 
L 174.96 -68.825455 
L 178.003636 -68.825455 
L 181.047273 -68.825455 
L 184.090909 -68.825455 
L 187.134545 -68.825455 
L 190.178182 -68.825455 
L 193.221818 -68.825455 
L 196.265455 -68.825455 
L 199.309091 -68.825455 
L 202.352727 -68.825455 
L 205.396364 -68.825455 
L 208.44 -68.825455 
L 211.483636 -68.825455 
L 214.527273 -68.825455 
L 217.570909 -68.825455 
L 220.614545 -68.825455 
L 223.658182 -68.825455 
L 226.701818 -68.825455 
L 229.745455 -68.825455 
L 232.789091 -68.825455 
L 235.832727 -68.825455 
L 238.876364 -68.825455 
L 241.92 -68.825455 
L 244.963636 -68.825455 
L 248.007273 -68.825455 
L 251.050909 -68.825455 
L 254.094545 -68.825455 
L 257.138182 -68.825455 
L 260.181818 -68.825455 
L 260.181818 -365.334545 
L 260.181818 -365.334545 
L 257.138182 -365.334545 
L 254.094545 -365.334545 
L 251.050909 -365.334545 
L 248.007273 -365.334545 
L 244.963636 -365.334545 
L 241.92 -365.334545 
L 238.876364 -365.334545 
L 235.832727 -365.334545 
L 232.789091 -365.334545 
L 229.745455 -365.334545 
L 226.701818 -365.334545 
L 223.658182 -365.334545 
L 220.614545 -365.334545 
L 217.570909 -365.334545 
L 214.527273 -365.334545 
L 211.483636 -365.334545 
L 208.44 -365.334545 
L 205.396364 -365.334545 
L 202.352727 -365.334545 
L 199.309091 -365.334545 
L 196.265455 -365.334545 
L 193.221818 -365.334545 
L 190.178182 -365.334545 
L 187.134545 -365.334545 
L 184.090909 -365.334545 
L 181.047273 -365.334545 
L 178.003636 -365.334545 
L 174.96 -365.334545 
L 171.916364 -365.334545 
L 168.872727 -365.334545 
L 165.829091 -365.334545 
L 162.785455 -365.334545 
L 159.741818 -365.334545 
L 156.698182 -365.334545 
L 153.654545 -365.334545 
L 150.610909 -365.334545 
L 147.567273 -365.334545 
L 144.523636 -365.334545 
L 141.48 -365.334545 
L 138.436364 -365.334545 
z
" style="stroke: #008000; stroke-opacity: 0.2; stroke-width: 1.5"/>
    </defs>
    <g clip-path="url(#pcffa1303b8)">
     <use xlink:href="#m4de40073b7" x="0" y="432" style="fill: #008000; fill-opacity: 0.2; stroke: #008000; stroke-opacity: 0.2; stroke-width: 1.5"/>
    </g>
   </g>
   <g id="PolyCollection_3">
    <defs>
     <path id="med689f2b80" d="M 260.181818 -365.334545 
L 260.181818 -68.825455 
L 263.225455 -68.825455 
L 266.269091 -68.825455 
L 269.312727 -68.825455 
L 272.356364 -68.825455 
L 275.4 -68.825455 
L 278.443636 -68.825455 
L 281.487273 -68.825455 
L 284.530909 -68.825455 
L 287.574545 -68.825455 
L 290.618182 -68.825455 
L 293.661818 -68.825455 
L 296.705455 -68.825455 
L 299.749091 -68.825455 
L 302.792727 -68.825455 
L 305.836364 -68.825455 
L 308.88 -68.825455 
L 311.923636 -68.825455 
L 314.967273 -68.825455 
L 318.010909 -68.825455 
L 321.054545 -68.825455 
L 324.098182 -68.825455 
L 327.141818 -68.825455 
L 330.185455 -68.825455 
L 333.229091 -68.825455 
L 336.272727 -68.825455 
L 339.316364 -68.825455 
L 342.36 -68.825455 
L 345.403636 -68.825455 
L 348.447273 -68.825455 
L 351.490909 -68.825455 
L 354.534545 -68.825455 
L 357.578182 -68.825455 
L 360.621818 -68.825455 
L 363.665455 -68.825455 
L 366.709091 -68.825455 
L 369.752727 -68.825455 
L 372.796364 -68.825455 
L 375.84 -68.825455 
L 378.883636 -68.825455 
L 381.927273 -68.825455 
L 381.927273 -365.334545 
L 381.927273 -365.334545 
L 378.883636 -365.334545 
L 375.84 -365.334545 
L 372.796364 -365.334545 
L 369.752727 -365.334545 
L 366.709091 -365.334545 
L 363.665455 -365.334545 
L 360.621818 -365.334545 
L 357.578182 -365.334545 
L 354.534545 -365.334545 
L 351.490909 -365.334545 
L 348.447273 -365.334545 
L 345.403636 -365.334545 
L 342.36 -365.334545 
L 339.316364 -365.334545 
L 336.272727 -365.334545 
L 333.229091 -365.334545 
L 330.185455 -365.334545 
L 327.141818 -365.334545 
L 324.098182 -365.334545 
L 321.054545 -365.334545 
L 318.010909 -365.334545 
L 314.967273 -365.334545 
L 311.923636 -365.334545 
L 308.88 -365.334545 
L 305.836364 -365.334545 
L 302.792727 -365.334545 
L 299.749091 -365.334545 
L 296.705455 -365.334545 
L 293.661818 -365.334545 
L 290.618182 -365.334545 
L 287.574545 -365.334545 
L 284.530909 -365.334545 
L 281.487273 -365.334545 
L 278.443636 -365.334545 
L 275.4 -365.334545 
L 272.356364 -365.334545 
L 269.312727 -365.334545 
L 266.269091 -365.334545 
L 263.225455 -365.334545 
L 260.181818 -365.334545 
z
" style="stroke: #0000ff; stroke-opacity: 0.2; stroke-width: 1.5"/>
    </defs>
    <g clip-path="url(#pcffa1303b8)">
     <use xlink:href="#med689f2b80" x="0" y="432" style="fill: #0000ff; fill-opacity: 0.2; stroke: #0000ff; stroke-opacity: 0.2; stroke-width: 1.5"/>
    </g>
   </g>
   <g id="PolyCollection_4">
    <defs>
     <path id="m4497621b60" d="M 381.927273 -365.334545 
L 381.927273 -68.825455 
L 384.970909 -68.825455 
L 388.014545 -68.825455 
L 391.058182 -68.825455 
L 394.101818 -68.825455 
L 397.145455 -68.825455 
L 400.189091 -68.825455 
L 403.232727 -68.825455 
L 406.276364 -68.825455 
L 409.32 -68.825455 
L 412.363636 -68.825455 
L 415.407273 -68.825455 
L 418.450909 -68.825455 
L 421.494545 -68.825455 
L 424.538182 -68.825455 
L 427.581818 -68.825455 
L 430.625455 -68.825455 
L 433.669091 -68.825455 
L 436.712727 -68.825455 
L 439.756364 -68.825455 
L 442.8 -68.825455 
L 445.843636 -68.825455 
L 448.887273 -68.825455 
L 451.930909 -68.825455 
L 454.974545 -68.825455 
L 458.018182 -68.825455 
L 461.061818 -68.825455 
L 464.105455 -68.825455 
L 467.149091 -68.825455 
L 470.192727 -68.825455 
L 473.236364 -68.825455 
L 476.28 -68.825455 
L 479.323636 -68.825455 
L 482.367273 -68.825455 
L 485.410909 -68.825455 
L 488.454545 -68.825455 
L 491.498182 -68.825455 
L 494.541818 -68.825455 
L 497.585455 -68.825455 
L 500.629091 -68.825455 
L 503.672727 -68.825455 
L 503.672727 -365.334545 
L 503.672727 -365.334545 
L 500.629091 -365.334545 
L 497.585455 -365.334545 
L 494.541818 -365.334545 
L 491.498182 -365.334545 
L 488.454545 -365.334545 
L 485.410909 -365.334545 
L 482.367273 -365.334545 
L 479.323636 -365.334545 
L 476.28 -365.334545 
L 473.236364 -365.334545 
L 470.192727 -365.334545 
L 467.149091 -365.334545 
L 464.105455 -365.334545 
L 461.061818 -365.334545 
L 458.018182 -365.334545 
L 454.974545 -365.334545 
L 451.930909 -365.334545 
L 448.887273 -365.334545 
L 445.843636 -365.334545 
L 442.8 -365.334545 
L 439.756364 -365.334545 
L 436.712727 -365.334545 
L 433.669091 -365.334545 
L 430.625455 -365.334545 
L 427.581818 -365.334545 
L 424.538182 -365.334545 
L 421.494545 -365.334545 
L 418.450909 -365.334545 
L 415.407273 -365.334545 
L 412.363636 -365.334545 
L 409.32 -365.334545 
L 406.276364 -365.334545 
L 403.232727 -365.334545 
L 400.189091 -365.334545 
L 397.145455 -365.334545 
L 394.101818 -365.334545 
L 391.058182 -365.334545 
L 388.014545 -365.334545 
L 384.970909 -365.334545 
L 381.927273 -365.334545 
z
" style="stroke: #008000; stroke-opacity: 0.2; stroke-width: 1.5"/>
    </defs>
    <g clip-path="url(#pcffa1303b8)">
     <use xlink:href="#m4497621b60" x="0" y="432" style="fill: #008000; fill-opacity: 0.2; stroke: #008000; stroke-opacity: 0.2; stroke-width: 1.5"/>
    </g>
   </g>
   <g id="PolyCollection_5">
    <defs>
     <path id="m4f6e3a41a5" d="M 503.672727 -365.334545 
L 503.672727 -68.825455 
L 506.716364 -68.825455 
L 509.76 -68.825455 
L 512.803636 -68.825455 
L 515.847273 -68.825455 
L 518.890909 -68.825455 
L 521.934545 -68.825455 
L 524.978182 -68.825455 
L 528.021818 -68.825455 
L 531.065455 -68.825455 
L 534.109091 -68.825455 
L 537.152727 -68.825455 
L 540.196364 -68.825455 
L 543.24 -68.825455 
L 546.283636 -68.825455 
L 549.327273 -68.825455 
L 552.370909 -68.825455 
L 555.414545 -68.825455 
L 558.458182 -68.825455 
L 561.501818 -68.825455 
L 564.545455 -68.825455 
L 567.589091 -68.825455 
L 570.632727 -68.825455 
L 573.676364 -68.825455 
L 576.72 -68.825455 
L 579.763636 -68.825455 
L 582.807273 -68.825455 
L 585.850909 -68.825455 
L 588.894545 -68.825455 
L 591.938182 -68.825455 
L 594.981818 -68.825455 
L 598.025455 -68.825455 
L 601.069091 -68.825455 
L 604.112727 -68.825455 
L 607.156364 -68.825455 
L 610.2 -68.825455 
L 613.243636 -68.825455 
L 616.287273 -68.825455 
L 619.330909 -68.825455 
L 622.374545 -68.825455 
L 625.418182 -68.825455 
L 625.418182 -365.334545 
L 625.418182 -365.334545 
L 622.374545 -365.334545 
L 619.330909 -365.334545 
L 616.287273 -365.334545 
L 613.243636 -365.334545 
L 610.2 -365.334545 
L 607.156364 -365.334545 
L 604.112727 -365.334545 
L 601.069091 -365.334545 
L 598.025455 -365.334545 
L 594.981818 -365.334545 
L 591.938182 -365.334545 
L 588.894545 -365.334545 
L 585.850909 -365.334545 
L 582.807273 -365.334545 
L 579.763636 -365.334545 
L 576.72 -365.334545 
L 573.676364 -365.334545 
L 570.632727 -365.334545 
L 567.589091 -365.334545 
L 564.545455 -365.334545 
L 561.501818 -365.334545 
L 558.458182 -365.334545 
L 555.414545 -365.334545 
L 552.370909 -365.334545 
L 549.327273 -365.334545 
L 546.283636 -365.334545 
L 543.24 -365.334545 
L 540.196364 -365.334545 
L 537.152727 -365.334545 
L 534.109091 -365.334545 
L 531.065455 -365.334545 
L 528.021818 -365.334545 
L 524.978182 -365.334545 
L 521.934545 -365.334545 
L 518.890909 -365.334545 
L 515.847273 -365.334545 
L 512.803636 -365.334545 
L 509.76 -365.334545 
L 506.716364 -365.334545 
L 503.672727 -365.334545 
z
" style="stroke: #0000ff; stroke-opacity: 0.2; stroke-width: 1.5"/>
    </defs>
    <g clip-path="url(#pcffa1303b8)">
     <use xlink:href="#m4f6e3a41a5" x="0" y="432" style="fill: #0000ff; fill-opacity: 0.2; stroke: #0000ff; stroke-opacity: 0.2; stroke-width: 1.5"/>
    </g>
   </g>
   <g id="PolyCollection_6">
    <defs>
     <path id="m58e7e43cb1" d="M 625.418182 -365.334545 
L 625.418182 -68.825455 
L 628.461818 -68.825455 
L 631.505455 -68.825455 
L 634.549091 -68.825455 
L 637.592727 -68.825455 
L 640.636364 -68.825455 
L 643.68 -68.825455 
L 646.723636 -68.825455 
L 649.767273 -68.825455 
L 652.810909 -68.825455 
L 655.854545 -68.825455 
L 658.898182 -68.825455 
L 661.941818 -68.825455 
L 664.985455 -68.825455 
L 668.029091 -68.825455 
L 671.072727 -68.825455 
L 674.116364 -68.825455 
L 677.16 -68.825455 
L 680.203636 -68.825455 
L 683.247273 -68.825455 
L 686.290909 -68.825455 
L 689.334545 -68.825455 
L 692.378182 -68.825455 
L 695.421818 -68.825455 
L 698.465455 -68.825455 
L 701.509091 -68.825455 
L 704.552727 -68.825455 
L 707.596364 -68.825455 
L 710.64 -68.825455 
L 713.683636 -68.825455 
L 716.727273 -68.825455 
L 719.770909 -68.825455 
L 722.814545 -68.825455 
L 725.858182 -68.825455 
L 728.901818 -68.825455 
L 731.945455 -68.825455 
L 734.989091 -68.825455 
L 738.032727 -68.825455 
L 741.076364 -68.825455 
L 744.12 -68.825455 
L 747.163636 -68.825455 
L 747.163636 -365.334545 
L 747.163636 -365.334545 
L 744.12 -365.334545 
L 741.076364 -365.334545 
L 738.032727 -365.334545 
L 734.989091 -365.334545 
L 731.945455 -365.334545 
L 728.901818 -365.334545 
L 725.858182 -365.334545 
L 722.814545 -365.334545 
L 719.770909 -365.334545 
L 716.727273 -365.334545 
L 713.683636 -365.334545 
L 710.64 -365.334545 
L 707.596364 -365.334545 
L 704.552727 -365.334545 
L 701.509091 -365.334545 
L 698.465455 -365.334545 
L 695.421818 -365.334545 
L 692.378182 -365.334545 
L 689.334545 -365.334545 
L 686.290909 -365.334545 
L 683.247273 -365.334545 
L 680.203636 -365.334545 
L 677.16 -365.334545 
L 674.116364 -365.334545 
L 671.072727 -365.334545 
L 668.029091 -365.334545 
L 664.985455 -365.334545 
L 661.941818 -365.334545 
L 658.898182 -365.334545 
L 655.854545 -365.334545 
L 652.810909 -365.334545 
L 649.767273 -365.334545 
L 646.723636 -365.334545 
L 643.68 -365.334545 
L 640.636364 -365.334545 
L 637.592727 -365.334545 
L 634.549091 -365.334545 
L 631.505455 -365.334545 
L 628.461818 -365.334545 
L 625.418182 -365.334545 
z
" style="stroke: #ff0000; stroke-opacity: 0.2; stroke-width: 1.5"/>
    </defs>
    <g clip-path="url(#pcffa1303b8)">
     <use xlink:href="#m58e7e43cb1" x="0" y="432" style="fill: #ff0000; fill-opacity: 0.2; stroke: #ff0000; stroke-opacity: 0.2; stroke-width: 1.5"/>
    </g>
   </g>
   <g id="matplotlib.axis_1">
    <g id="xtick_1">
     <g id="line2d_1">
      <defs>
       <path id="m22fa53bc37" d="M 0 0 
L 0 9 
" style="stroke: #000000; stroke-width: 1.875"/>
      </defs>
      <g>
       <use xlink:href="#m22fa53bc37" x="138.436364" y="378" style="stroke: #000000; stroke-width: 1.875"/>
      </g>
     </g>
     <g id="text_1">
      <!-- 0 -->
      <g transform="translate(133.187301 403.037422)scale(0.165 -0.165)">
       <defs>
        <path id="DejaVuSans-30" d="M 2034 4250 
Q 1547 4250 1301 3770 
Q 1056 3291 1056 2328 
Q 1056 1369 1301 889 
Q 1547 409 2034 409 
Q 2525 409 2770 889 
Q 3016 1369 3016 2328 
Q 3016 3291 2770 3770 
Q 2525 4250 2034 4250 
z
M 2034 4750 
Q 2819 4750 3233 4129 
Q 3647 3509 3647 2328 
Q 3647 1150 3233 529 
Q 2819 -91 2034 -91 
Q 1250 -91 836 529 
Q 422 1150 422 2328 
Q 422 3509 836 4129 
Q 1250 4750 2034 4750 
z
" transform="scale(0.015625)"/>
       </defs>
       <use xlink:href="#DejaVuSans-30"/>
      </g>
     </g>
    </g>
    <g id="xtick_2">
     <g id="line2d_2">
      <g>
       <use xlink:href="#m22fa53bc37" x="214.527273" y="378" style="stroke: #000000; stroke-width: 1.875"/>
      </g>
     </g>
     <g id="text_2">
      <!-- 25 -->
      <g transform="translate(204.029148 403.037422)scale(0.165 -0.165)">
       <defs>
        <path id="DejaVuSans-32" d="M 1228 531 
L 3431 531 
L 3431 0 
L 469 0 
L 469 531 
Q 828 903 1448 1529 
Q 2069 2156 2228 2338 
Q 2531 2678 2651 2914 
Q 2772 3150 2772 3378 
Q 2772 3750 2511 3984 
Q 2250 4219 1831 4219 
Q 1534 4219 1204 4116 
Q 875 4013 500 3803 
L 500 4441 
Q 881 4594 1212 4672 
Q 1544 4750 1819 4750 
Q 2544 4750 2975 4387 
Q 3406 4025 3406 3419 
Q 3406 3131 3298 2873 
Q 3191 2616 2906 2266 
Q 2828 2175 2409 1742 
Q 1991 1309 1228 531 
z
" transform="scale(0.015625)"/>
        <path id="DejaVuSans-35" d="M 691 4666 
L 3169 4666 
L 3169 4134 
L 1269 4134 
L 1269 2991 
Q 1406 3038 1543 3061 
Q 1681 3084 1819 3084 
Q 2600 3084 3056 2656 
Q 3513 2228 3513 1497 
Q 3513 744 3044 326 
Q 2575 -91 1722 -91 
Q 1428 -91 1123 -41 
Q 819 9 494 109 
L 494 744 
Q 775 591 1075 516 
Q 1375 441 1709 441 
Q 2250 441 2565 725 
Q 2881 1009 2881 1497 
Q 2881 1984 2565 2268 
Q 2250 2553 1709 2553 
Q 1456 2553 1204 2497 
Q 953 2441 691 2322 
L 691 4666 
z
" transform="scale(0.015625)"/>
       </defs>
       <use xlink:href="#DejaVuSans-32"/>
       <use xlink:href="#DejaVuSans-35" x="63.623047"/>
      </g>
     </g>
    </g>
    <g id="xtick_3">
     <g id="line2d_3">
      <g>
       <use xlink:href="#m22fa53bc37" x="290.618182" y="378" style="stroke: #000000; stroke-width: 1.875"/>
      </g>
     </g>
     <g id="text_3">
      <!-- 50 -->
      <g transform="translate(280.120057 403.037422)scale(0.165 -0.165)">
       <use xlink:href="#DejaVuSans-35"/>
       <use xlink:href="#DejaVuSans-30" x="63.623047"/>
      </g>
     </g>
    </g>
    <g id="xtick_4">
     <g id="line2d_4">
      <g>
       <use xlink:href="#m22fa53bc37" x="366.709091" y="378" style="stroke: #000000; stroke-width: 1.875"/>
      </g>
     </g>
     <g id="text_4">
      <!-- 75 -->
      <g transform="translate(356.210966 403.037422)scale(0.165 -0.165)">
       <defs>
        <path id="DejaVuSans-37" d="M 525 4666 
L 3525 4666 
L 3525 4397 
L 1831 0 
L 1172 0 
L 2766 4134 
L 525 4134 
L 525 4666 
z
" transform="scale(0.015625)"/>
       </defs>
       <use xlink:href="#DejaVuSans-37"/>
       <use xlink:href="#DejaVuSans-35" x="63.623047"/>
      </g>
     </g>
    </g>
    <g id="xtick_5">
     <g id="line2d_5">
      <g>
       <use xlink:href="#m22fa53bc37" x="442.8" y="378" style="stroke: #000000; stroke-width: 1.875"/>
      </g>
     </g>
     <g id="text_5">
      <!-- 100 -->
      <g transform="translate(427.052813 403.037422)scale(0.165 -0.165)">
       <defs>
        <path id="DejaVuSans-31" d="M 794 531 
L 1825 531 
L 1825 4091 
L 703 3866 
L 703 4441 
L 1819 4666 
L 2450 4666 
L 2450 531 
L 3481 531 
L 3481 0 
L 794 0 
L 794 531 
z
" transform="scale(0.015625)"/>
       </defs>
       <use xlink:href="#DejaVuSans-31"/>
       <use xlink:href="#DejaVuSans-30" x="63.623047"/>
       <use xlink:href="#DejaVuSans-30" x="127.246094"/>
      </g>
     </g>
    </g>
    <g id="xtick_6">
     <g id="line2d_6">
      <g>
       <use xlink:href="#m22fa53bc37" x="518.890909" y="378" style="stroke: #000000; stroke-width: 1.875"/>
      </g>
     </g>
     <g id="text_6">
      <!-- 125 -->
      <g transform="translate(503.143722 403.037422)scale(0.165 -0.165)">
       <use xlink:href="#DejaVuSans-31"/>
       <use xlink:href="#DejaVuSans-32" x="63.623047"/>
       <use xlink:href="#DejaVuSans-35" x="127.246094"/>
      </g>
     </g>
    </g>
    <g id="xtick_7">
     <g id="line2d_7">
      <g>
       <use xlink:href="#m22fa53bc37" x="594.981818" y="378" style="stroke: #000000; stroke-width: 1.875"/>
      </g>
     </g>
     <g id="text_7">
      <!-- 150 -->
      <g transform="translate(579.234631 403.037422)scale(0.165 -0.165)">
       <use xlink:href="#DejaVuSans-31"/>
       <use xlink:href="#DejaVuSans-35" x="63.623047"/>
       <use xlink:href="#DejaVuSans-30" x="127.246094"/>
      </g>
     </g>
    </g>
    <g id="xtick_8">
     <g id="line2d_8">
      <g>
       <use xlink:href="#m22fa53bc37" x="671.072727" y="378" style="stroke: #000000; stroke-width: 1.875"/>
      </g>
     </g>
     <g id="text_8">
      <!-- 175 -->
      <g transform="translate(655.32554 403.037422)scale(0.165 -0.165)">
       <use xlink:href="#DejaVuSans-31"/>
       <use xlink:href="#DejaVuSans-37" x="63.623047"/>
       <use xlink:href="#DejaVuSans-35" x="127.246094"/>
      </g>
     </g>
    </g>
    <g id="xtick_9">
     <g id="line2d_9">
      <g>
       <use xlink:href="#m22fa53bc37" x="747.163636" y="378" style="stroke: #000000; stroke-width: 1.875"/>
      </g>
     </g>
     <g id="text_9">
      <!-- 200 -->
      <g transform="translate(731.416449 403.037422)scale(0.165 -0.165)">
       <use xlink:href="#DejaVuSans-32"/>
       <use xlink:href="#DejaVuSans-30" x="63.623047"/>
       <use xlink:href="#DejaVuSans-30" x="127.246094"/>
      </g>
     </g>
    </g>
    <g id="text_10">
     <!-- trial -->
     <g transform="translate(425.055938 424.146094)scale(0.18 -0.18)">
      <defs>
       <path id="DejaVuSans-74" d="M 1172 4494 
L 1172 3500 
L 2356 3500 
L 2356 3053 
L 1172 3053 
L 1172 1153 
Q 1172 725 1289 603 
Q 1406 481 1766 481 
L 2356 481 
L 2356 0 
L 1766 0 
Q 1100 0 847 248 
Q 594 497 594 1153 
L 594 3053 
L 172 3053 
L 172 3500 
L 594 3500 
L 594 4494 
L 1172 4494 
z
" transform="scale(0.015625)"/>
       <path id="DejaVuSans-72" d="M 2631 2963 
Q 2534 3019 2420 3045 
Q 2306 3072 2169 3072 
Q 1681 3072 1420 2755 
Q 1159 2438 1159 1844 
L 1159 0 
L 581 0 
L 581 3500 
L 1159 3500 
L 1159 2956 
Q 1341 3275 1631 3429 
Q 1922 3584 2338 3584 
Q 2397 3584 2469 3576 
Q 2541 3569 2628 3553 
L 2631 2963 
z
" transform="scale(0.015625)"/>
       <path id="DejaVuSans-69" d="M 603 3500 
L 1178 3500 
L 1178 0 
L 603 0 
L 603 3500 
z
M 603 4863 
L 1178 4863 
L 1178 4134 
L 603 4134 
L 603 4863 
z
" transform="scale(0.015625)"/>
       <path id="DejaVuSans-61" d="M 2194 1759 
Q 1497 1759 1228 1600 
Q 959 1441 959 1056 
Q 959 750 1161 570 
Q 1363 391 1709 391 
Q 2188 391 2477 730 
Q 2766 1069 2766 1631 
L 2766 1759 
L 2194 1759 
z
M 3341 1997 
L 3341 0 
L 2766 0 
L 2766 531 
Q 2569 213 2275 61 
Q 1981 -91 1556 -91 
Q 1019 -91 701 211 
Q 384 513 384 1019 
Q 384 1609 779 1909 
Q 1175 2209 1959 2209 
L 2766 2209 
L 2766 2266 
Q 2766 2663 2505 2880 
Q 2244 3097 1772 3097 
Q 1472 3097 1187 3025 
Q 903 2953 641 2809 
L 641 3341 
Q 956 3463 1253 3523 
Q 1550 3584 1831 3584 
Q 2591 3584 2966 3190 
Q 3341 2797 3341 1997 
z
" transform="scale(0.015625)"/>
       <path id="DejaVuSans-6c" d="M 603 4863 
L 1178 4863 
L 1178 0 
L 603 0 
L 603 4863 
z
" transform="scale(0.015625)"/>
      </defs>
      <use xlink:href="#DejaVuSans-74"/>
      <use xlink:href="#DejaVuSans-72" x="39.208984"/>
      <use xlink:href="#DejaVuSans-69" x="80.322266"/>
      <use xlink:href="#DejaVuSans-61" x="108.105469"/>
      <use xlink:href="#DejaVuSans-6c" x="169.384766"/>
     </g>
    </g>
   </g>
   <g id="matplotlib.axis_2">
    <g id="ytick_1">
     <g id="line2d_10">
      <defs>
       <path id="m8474cc8212" d="M 0 0 
L -9 0 
" style="stroke: #000000; stroke-width: 1.875"/>
      </defs>
      <g>
       <use xlink:href="#m8474cc8212" x="108" y="363.174545" style="stroke: #000000; stroke-width: 1.875"/>
      </g>
     </g>
     <g id="text_11">
      <!-- 0.0 -->
      <g transform="translate(69.259844 369.443256)scale(0.165 -0.165)">
       <defs>
        <path id="DejaVuSans-2e" d="M 684 794 
L 1344 794 
L 1344 0 
L 684 0 
L 684 794 
z
" transform="scale(0.015625)"/>
       </defs>
       <use xlink:href="#DejaVuSans-30"/>
       <use xlink:href="#DejaVuSans-2e" x="63.623047"/>
       <use xlink:href="#DejaVuSans-30" x="95.410156"/>
      </g>
     </g>
    </g>
    <g id="ytick_2">
     <g id="line2d_11">
      <g>
       <use xlink:href="#m8474cc8212" x="108" y="306.696623" style="stroke: #000000; stroke-width: 1.875"/>
      </g>
     </g>
     <g id="text_12">
      <!-- 0.2 -->
      <g transform="translate(69.259844 312.965334)scale(0.165 -0.165)">
       <use xlink:href="#DejaVuSans-30"/>
       <use xlink:href="#DejaVuSans-2e" x="63.623047"/>
       <use xlink:href="#DejaVuSans-32" x="95.410156"/>
      </g>
     </g>
    </g>
    <g id="ytick_3">
     <g id="line2d_12">
      <g>
       <use xlink:href="#m8474cc8212" x="108" y="250.218701" style="stroke: #000000; stroke-width: 1.875"/>
      </g>
     </g>
     <g id="text_13">
      <!-- 0.4 -->
      <g transform="translate(69.259844 256.487412)scale(0.165 -0.165)">
       <defs>
        <path id="DejaVuSans-34" d="M 2419 4116 
L 825 1625 
L 2419 1625 
L 2419 4116 
z
M 2253 4666 
L 3047 4666 
L 3047 1625 
L 3713 1625 
L 3713 1100 
L 3047 1100 
L 3047 0 
L 2419 0 
L 2419 1100 
L 313 1100 
L 313 1709 
L 2253 4666 
z
" transform="scale(0.015625)"/>
       </defs>
       <use xlink:href="#DejaVuSans-30"/>
       <use xlink:href="#DejaVuSans-2e" x="63.623047"/>
       <use xlink:href="#DejaVuSans-34" x="95.410156"/>
      </g>
     </g>
    </g>
    <g id="ytick_4">
     <g id="line2d_13">
      <g>
       <use xlink:href="#m8474cc8212" x="108" y="193.740779" style="stroke: #000000; stroke-width: 1.875"/>
      </g>
     </g>
     <g id="text_14">
      <!-- 0.6 -->
      <g transform="translate(69.259844 200.00949)scale(0.165 -0.165)">
       <defs>
        <path id="DejaVuSans-36" d="M 2113 2584 
Q 1688 2584 1439 2293 
Q 1191 2003 1191 1497 
Q 1191 994 1439 701 
Q 1688 409 2113 409 
Q 2538 409 2786 701 
Q 3034 994 3034 1497 
Q 3034 2003 2786 2293 
Q 2538 2584 2113 2584 
z
M 3366 4563 
L 3366 3988 
Q 3128 4100 2886 4159 
Q 2644 4219 2406 4219 
Q 1781 4219 1451 3797 
Q 1122 3375 1075 2522 
Q 1259 2794 1537 2939 
Q 1816 3084 2150 3084 
Q 2853 3084 3261 2657 
Q 3669 2231 3669 1497 
Q 3669 778 3244 343 
Q 2819 -91 2113 -91 
Q 1303 -91 875 529 
Q 447 1150 447 2328 
Q 447 3434 972 4092 
Q 1497 4750 2381 4750 
Q 2619 4750 2861 4703 
Q 3103 4656 3366 4563 
z
" transform="scale(0.015625)"/>
       </defs>
       <use xlink:href="#DejaVuSans-30"/>
       <use xlink:href="#DejaVuSans-2e" x="63.623047"/>
       <use xlink:href="#DejaVuSans-36" x="95.410156"/>
      </g>
     </g>
    </g>
    <g id="ytick_5">
     <g id="line2d_14">
      <g>
       <use xlink:href="#m8474cc8212" x="108" y="137.262857" style="stroke: #000000; stroke-width: 1.875"/>
      </g>
     </g>
     <g id="text_15">
      <!-- 0.8 -->
      <g transform="translate(69.259844 143.531568)scale(0.165 -0.165)">
       <defs>
        <path id="DejaVuSans-38" d="M 2034 2216 
Q 1584 2216 1326 1975 
Q 1069 1734 1069 1313 
Q 1069 891 1326 650 
Q 1584 409 2034 409 
Q 2484 409 2743 651 
Q 3003 894 3003 1313 
Q 3003 1734 2745 1975 
Q 2488 2216 2034 2216 
z
M 1403 2484 
Q 997 2584 770 2862 
Q 544 3141 544 3541 
Q 544 4100 942 4425 
Q 1341 4750 2034 4750 
Q 2731 4750 3128 4425 
Q 3525 4100 3525 3541 
Q 3525 3141 3298 2862 
Q 3072 2584 2669 2484 
Q 3125 2378 3379 2068 
Q 3634 1759 3634 1313 
Q 3634 634 3220 271 
Q 2806 -91 2034 -91 
Q 1263 -91 848 271 
Q 434 634 434 1313 
Q 434 1759 690 2068 
Q 947 2378 1403 2484 
z
M 1172 3481 
Q 1172 3119 1398 2916 
Q 1625 2713 2034 2713 
Q 2441 2713 2670 2916 
Q 2900 3119 2900 3481 
Q 2900 3844 2670 4047 
Q 2441 4250 2034 4250 
Q 1625 4250 1398 4047 
Q 1172 3844 1172 3481 
z
" transform="scale(0.015625)"/>
       </defs>
       <use xlink:href="#DejaVuSans-30"/>
       <use xlink:href="#DejaVuSans-2e" x="63.623047"/>
       <use xlink:href="#DejaVuSans-38" x="95.410156"/>
      </g>
     </g>
    </g>
    <g id="ytick_6">
     <g id="line2d_15">
      <g>
       <use xlink:href="#m8474cc8212" x="108" y="80.784935" style="stroke: #000000; stroke-width: 1.875"/>
      </g>
     </g>
     <g id="text_16">
      <!-- 1.0 -->
      <g transform="translate(69.259844 87.053646)scale(0.165 -0.165)">
       <use xlink:href="#DejaVuSans-31"/>
       <use xlink:href="#DejaVuSans-2e" x="63.623047"/>
       <use xlink:href="#DejaVuSans-30" x="95.410156"/>
      </g>
     </g>
    </g>
    <g id="text_17">
     <!-- prediction accuracy -->
     <g transform="translate(61.516406 303.537656)rotate(-90)scale(0.18 -0.18)">
      <defs>
       <path id="DejaVuSans-70" d="M 1159 525 
L 1159 -1331 
L 581 -1331 
L 581 3500 
L 1159 3500 
L 1159 2969 
Q 1341 3281 1617 3432 
Q 1894 3584 2278 3584 
Q 2916 3584 3314 3078 
Q 3713 2572 3713 1747 
Q 3713 922 3314 415 
Q 2916 -91 2278 -91 
Q 1894 -91 1617 61 
Q 1341 213 1159 525 
z
M 3116 1747 
Q 3116 2381 2855 2742 
Q 2594 3103 2138 3103 
Q 1681 3103 1420 2742 
Q 1159 2381 1159 1747 
Q 1159 1113 1420 752 
Q 1681 391 2138 391 
Q 2594 391 2855 752 
Q 3116 1113 3116 1747 
z
" transform="scale(0.015625)"/>
       <path id="DejaVuSans-65" d="M 3597 1894 
L 3597 1613 
L 953 1613 
Q 991 1019 1311 708 
Q 1631 397 2203 397 
Q 2534 397 2845 478 
Q 3156 559 3463 722 
L 3463 178 
Q 3153 47 2828 -22 
Q 2503 -91 2169 -91 
Q 1331 -91 842 396 
Q 353 884 353 1716 
Q 353 2575 817 3079 
Q 1281 3584 2069 3584 
Q 2775 3584 3186 3129 
Q 3597 2675 3597 1894 
z
M 3022 2063 
Q 3016 2534 2758 2815 
Q 2500 3097 2075 3097 
Q 1594 3097 1305 2825 
Q 1016 2553 972 2059 
L 3022 2063 
z
" transform="scale(0.015625)"/>
       <path id="DejaVuSans-64" d="M 2906 2969 
L 2906 4863 
L 3481 4863 
L 3481 0 
L 2906 0 
L 2906 525 
Q 2725 213 2448 61 
Q 2172 -91 1784 -91 
Q 1150 -91 751 415 
Q 353 922 353 1747 
Q 353 2572 751 3078 
Q 1150 3584 1784 3584 
Q 2172 3584 2448 3432 
Q 2725 3281 2906 2969 
z
M 947 1747 
Q 947 1113 1208 752 
Q 1469 391 1925 391 
Q 2381 391 2643 752 
Q 2906 1113 2906 1747 
Q 2906 2381 2643 2742 
Q 2381 3103 1925 3103 
Q 1469 3103 1208 2742 
Q 947 2381 947 1747 
z
" transform="scale(0.015625)"/>
       <path id="DejaVuSans-63" d="M 3122 3366 
L 3122 2828 
Q 2878 2963 2633 3030 
Q 2388 3097 2138 3097 
Q 1578 3097 1268 2742 
Q 959 2388 959 1747 
Q 959 1106 1268 751 
Q 1578 397 2138 397 
Q 2388 397 2633 464 
Q 2878 531 3122 666 
L 3122 134 
Q 2881 22 2623 -34 
Q 2366 -91 2075 -91 
Q 1284 -91 818 406 
Q 353 903 353 1747 
Q 353 2603 823 3093 
Q 1294 3584 2113 3584 
Q 2378 3584 2631 3529 
Q 2884 3475 3122 3366 
z
" transform="scale(0.015625)"/>
       <path id="DejaVuSans-6f" d="M 1959 3097 
Q 1497 3097 1228 2736 
Q 959 2375 959 1747 
Q 959 1119 1226 758 
Q 1494 397 1959 397 
Q 2419 397 2687 759 
Q 2956 1122 2956 1747 
Q 2956 2369 2687 2733 
Q 2419 3097 1959 3097 
z
M 1959 3584 
Q 2709 3584 3137 3096 
Q 3566 2609 3566 1747 
Q 3566 888 3137 398 
Q 2709 -91 1959 -91 
Q 1206 -91 779 398 
Q 353 888 353 1747 
Q 353 2609 779 3096 
Q 1206 3584 1959 3584 
z
" transform="scale(0.015625)"/>
       <path id="DejaVuSans-6e" d="M 3513 2113 
L 3513 0 
L 2938 0 
L 2938 2094 
Q 2938 2591 2744 2837 
Q 2550 3084 2163 3084 
Q 1697 3084 1428 2787 
Q 1159 2491 1159 1978 
L 1159 0 
L 581 0 
L 581 3500 
L 1159 3500 
L 1159 2956 
Q 1366 3272 1645 3428 
Q 1925 3584 2291 3584 
Q 2894 3584 3203 3211 
Q 3513 2838 3513 2113 
z
" transform="scale(0.015625)"/>
       <path id="DejaVuSans-20" transform="scale(0.015625)"/>
       <path id="DejaVuSans-75" d="M 544 1381 
L 544 3500 
L 1119 3500 
L 1119 1403 
Q 1119 906 1312 657 
Q 1506 409 1894 409 
Q 2359 409 2629 706 
Q 2900 1003 2900 1516 
L 2900 3500 
L 3475 3500 
L 3475 0 
L 2900 0 
L 2900 538 
Q 2691 219 2414 64 
Q 2138 -91 1772 -91 
Q 1169 -91 856 284 
Q 544 659 544 1381 
z
M 1991 3584 
L 1991 3584 
z
" transform="scale(0.015625)"/>
       <path id="DejaVuSans-79" d="M 2059 -325 
Q 1816 -950 1584 -1140 
Q 1353 -1331 966 -1331 
L 506 -1331 
L 506 -850 
L 844 -850 
Q 1081 -850 1212 -737 
Q 1344 -625 1503 -206 
L 1606 56 
L 191 3500 
L 800 3500 
L 1894 763 
L 2988 3500 
L 3597 3500 
L 2059 -325 
z
" transform="scale(0.015625)"/>
      </defs>
      <use xlink:href="#DejaVuSans-70"/>
      <use xlink:href="#DejaVuSans-72" x="63.476562"/>
      <use xlink:href="#DejaVuSans-65" x="102.339844"/>
      <use xlink:href="#DejaVuSans-64" x="163.863281"/>
      <use xlink:href="#DejaVuSans-69" x="227.339844"/>
      <use xlink:href="#DejaVuSans-63" x="255.123047"/>
      <use xlink:href="#DejaVuSans-74" x="310.103516"/>
      <use xlink:href="#DejaVuSans-69" x="349.3125"/>
      <use xlink:href="#DejaVuSans-6f" x="377.095703"/>
      <use xlink:href="#DejaVuSans-6e" x="438.277344"/>
      <use xlink:href="#DejaVuSans-20" x="501.65625"/>
      <use xlink:href="#DejaVuSans-61" x="533.443359"/>
      <use xlink:href="#DejaVuSans-63" x="594.722656"/>
      <use xlink:href="#DejaVuSans-63" x="649.703125"/>
      <use xlink:href="#DejaVuSans-75" x="704.683594"/>
      <use xlink:href="#DejaVuSans-72" x="768.0625"/>
      <use xlink:href="#DejaVuSans-61" x="809.175781"/>
      <use xlink:href="#DejaVuSans-63" x="870.455078"/>
      <use xlink:href="#DejaVuSans-79" x="925.435547"/>
     </g>
    </g>
   </g>
   <g id="line2d_16">
    <path d="M 138.436364 229.039481 
L 141.48 156.548001 
L 144.523636 156.232541 
L 147.567273 151.382338 
L 150.610909 146.827667 
L 153.654545 141.463694 
L 156.698182 167.4835 
L 159.741818 143.044062 
L 162.785455 131.707652 
L 165.829091 137.70067 
L 168.872727 127.84987 
L 171.916364 129.320649 
L 174.96 143.538182 
L 178.003636 128.647581 
L 181.047273 123.49933 
L 184.090909 126.848489 
L 187.134545 121.449039 
L 190.178182 119.075052 
L 193.221818 110.153455 
L 196.265455 133.433845 
L 199.309091 105.437996 
L 202.352727 117.99907 
L 205.396364 119.735226 
L 208.44 106.888176 
L 211.483636 109.502523 
L 214.527273 120.418565 
L 217.570909 108.790516 
L 220.614545 131.926361 
L 223.658182 103.196809 
L 226.701818 92.453927 
L 229.745455 127.84987 
L 232.789091 106.03929 
L 235.832727 104.49704 
L 238.876364 115.222692 
L 241.92 113.458113 
L 244.963636 120.005714 
L 248.007273 110.406223 
L 251.050909 107.258961 
L 254.094545 112.395712 
L 257.138182 93.620826 
L 260.181818 302.17839 
L 263.225455 192.316966 
L 266.269091 154.252151 
L 269.312727 112.412571 
L 272.356364 143.044062 
L 275.4 131.907192 
L 278.443636 111.63422 
L 281.487273 119.189922 
L 284.530909 124.229491 
L 287.574545 109.920371 
L 290.618182 123.0322 
L 293.661818 133.469564 
L 296.705455 101.447589 
L 299.749091 121.742207 
L 302.792727 111.671299 
L 305.836364 104.317403 
L 308.88 105.835626 
L 311.923636 127.84987 
L 314.967273 117.518543 
L 318.010909 119.189922 
L 321.054545 117.712807 
L 324.098182 101.397315 
L 327.141818 90.439281 
L 330.185455 109.242803 
L 333.229091 111.43187 
L 336.272727 113.877468 
L 339.316364 117.300833 
L 342.36 106.670649 
L 345.403636 114.288787 
L 348.447273 117.712807 
L 351.490909 117.819638 
L 354.534545 104.989759 
L 357.578182 101.964156 
L 360.621818 108.112962 
L 363.665455 119.189922 
L 366.709091 131.665946 
L 369.752727 119.189922 
L 372.796364 134.90961 
L 375.84 125.160445 
L 378.883636 104.122919 
L 381.927273 200.586588 
L 384.970909 129.392983 
L 388.014545 116.083636 
L 391.058182 113.368352 
L 394.101818 116.380264 
L 397.145455 129.561322 
L 400.189091 101.280955 
L 403.232727 110.510157 
L 406.276364 109.023896 
L 409.32 100.164614 
L 412.363636 105.052792 
L 415.407273 118.289805 
L 418.450909 109.747972 
L 421.494545 99.929993 
L 424.538182 115.504969 
L 427.581818 108.335141 
L 430.625455 107.56326 
L 433.669091 98.714434 
L 436.712727 104.920799 
L 439.756364 116.610483 
L 442.8 106.03929 
L 445.843636 115.572061 
L 448.887273 112.926842 
L 451.930909 95.536631 
L 454.974545 115.162801 
L 458.018182 112.432047 
L 461.061818 105.437996 
L 464.105455 112.161558 
L 467.149091 110.153455 
L 470.192727 117.518543 
L 473.236364 110.390297 
L 476.28 102.507213 
L 479.323636 104.317403 
L 482.367273 103.196809 
L 485.410909 95.647546 
L 488.454545 90.693342 
L 491.498182 107.467418 
L 494.541818 106.456718 
L 497.585455 103.276143 
L 500.629091 113.272235 
L 503.672727 156.985306 
L 506.716364 120.134307 
L 509.76 119.075052 
L 512.803636 126.755337 
L 515.847273 102.097358 
L 518.890909 121.468184 
L 521.934545 122.169619 
L 524.978182 115.771258 
L 528.021818 106.263697 
L 531.065455 105.886234 
L 534.109091 114.007242 
L 537.152727 112.926842 
L 540.196364 109.227054 
L 543.24 113.877468 
L 546.283636 121.449039 
L 549.327273 98.85787 
L 552.370909 115.504969 
L 555.414545 98.755183 
L 558.458182 105.635221 
L 561.501818 118.585119 
L 564.545455 109.920371 
L 567.589091 118.604972 
L 570.632727 102.341394 
L 573.676364 95.990529 
L 576.72 130.464589 
L 579.763636 113.877468 
L 582.807273 99.894006 
L 585.850909 106.888176 
L 588.894545 116.643933 
L 591.938182 104.317403 
L 594.981818 108.769491 
L 598.025455 118.12571 
L 601.069091 108.790516 
L 604.112727 117.819638 
L 607.156364 125.040023 
L 610.2 127.84987 
L 613.243636 124.033794 
L 616.287273 105.163894 
L 619.330909 109.502523 
L 622.374545 129.70282 
L 625.418182 146.131291 
L 628.461818 144.629543 
L 631.505455 122.620433 
L 634.549091 142.622076 
L 637.592727 144.763831 
L 640.636364 135.36444 
L 643.68 136.407131 
L 646.723636 141.969351 
L 649.767273 129.392983 
L 652.810909 107.581029 
L 655.854545 122.110244 
L 658.898182 123.268328 
L 661.941818 131.907192 
L 664.985455 123.0322 
L 668.029091 122.110244 
L 671.072727 135.885347 
L 674.116364 124.763645 
L 677.16 123.0322 
L 680.203636 135.988919 
L 683.247273 121.449039 
L 686.290909 135.36444 
L 689.334545 116.345108 
L 692.378182 142.483505 
L 695.421818 149.176169 
L 698.465455 115.810003 
L 701.509091 129.320649 
L 704.552727 128.608982 
L 707.596364 136.254323 
L 710.64 131.040713 
L 713.683636 140.820522 
L 716.727273 109.502523 
L 719.770909 110.630991 
L 722.814545 126.331646 
L 725.858182 107.679184 
L 728.901818 127.84987 
L 731.945455 133.433845 
L 734.989091 133.322537 
L 738.032727 139.055807 
L 741.076364 109.920371 
L 744.12 133.322537 
L 744.12 133.322537 
" clip-path="url(#pcffa1303b8)" style="fill: none; stroke: #1f77b4; stroke-width: 2.25; stroke-linecap: square"/>
   </g>
   <g id="line2d_17">
    <path d="M 108 221.97974 
L 777.6 221.97974 
" clip-path="url(#pcffa1303b8)" style="fill: none; stroke: #000000; stroke-width: 2.25; stroke-linecap: square"/>
   </g>
   <g id="patch_3">
    <path d="M 108 378 
L 108 51.84 
" style="fill: none; stroke: #000000; stroke-width: 1.875; stroke-linejoin: miter; stroke-linecap: square"/>
   </g>
   <g id="patch_4">
    <path d="M 777.6 378 
L 777.6 51.84 
" style="fill: none; stroke: #000000; stroke-width: 1.875; stroke-linejoin: miter; stroke-linecap: square"/>
   </g>
   <g id="patch_5">
    <path d="M 108 378 
L 777.6 378 
" style="fill: none; stroke: #000000; stroke-width: 1.875; stroke-linejoin: miter; stroke-linecap: square"/>
   </g>
   <g id="patch_6">
    <path d="M 108 51.84 
L 777.6 51.84 
" style="fill: none; stroke: #000000; stroke-width: 1.875; stroke-linejoin: miter; stroke-linecap: square"/>
   </g>
  </g>
 </g>
 <defs>
  <clipPath id="pcffa1303b8">
   <rect x="108" y="51.84" width="669.6" height="326.16"/>
  </clipPath>
 </defs>
</svg>
