<?xml version="1.0" encoding="utf-8" standalone="no"?>
<!DOCTYPE svg PUBLIC "-//W3C//DTD SVG 1.1//EN"
  "http://www.w3.org/Graphics/SVG/1.1/DTD/svg11.dtd">
<svg xmlns:xlink="http://www.w3.org/1999/xlink" width="864pt" height="432pt" viewBox="0 0 864 432" xmlns="http://www.w3.org/2000/svg" version="1.1">
 <metadata>
  <rdf:RDF xmlns:dc="http://purl.org/dc/elements/1.1/" xmlns:cc="http://creativecommons.org/ns#" xmlns:rdf="http://www.w3.org/1999/02/22-rdf-syntax-ns#">
   <cc:Work>
    <dc:type rdf:resource="http://purl.org/dc/dcmitype/StillImage"/>
    <dc:date>2023-05-02T16:41:11.654501</dc:date>
    <dc:format>image/svg+xml</dc:format>
    <dc:creator>
     <cc:Agent>
      <dc:title>Matplotlib v3.5.1, https://matplotlib.org/</dc:title>
     </cc:Agent>
    </dc:creator>
   </cc:Work>
  </rdf:RDF>
 </metadata>
 <defs>
  <style type="text/css">*{stroke-linejoin: round; stroke-linecap: butt}</style>
 </defs>
 <g id="figure_1">
  <g id="patch_1">
   <path d="M 0 432 
L 864 432 
L 864 0 
L 0 0 
L 0 432 
z
" style="fill: none"/>
  </g>
  <g id="axes_1">
   <g id="patch_2">
    <path d="M 108 378 
L 777.6 378 
L 777.6 51.84 
L 108 51.84 
z
" style="fill: #ffffff"/>
   </g>
   <g id="PolyCollection_1">
    <defs>
     <path id="mbc322087a2" d="M 276.185155 -68.825455 
L 274.614845 -68.825455 
L 274.387396 -71.820496 
L 274.105819 -74.815537 
L 273.760526 -77.810579 
L 273.341018 -80.80562 
L 272.835965 -83.800661 
L 272.233318 -86.795702 
L 271.520476 -89.790744 
L 270.684495 -92.785785 
L 269.712344 -95.780826 
L 268.591226 -98.775868 
L 267.308952 -101.770909 
L 265.854373 -104.76595 
L 264.217874 -107.760992 
L 262.391924 -110.756033 
L 260.371669 -113.751074 
L 258.155559 -116.746116 
L 255.745985 -119.741157 
L 253.149891 -122.736198 
L 250.379335 -125.73124 
L 247.451947 -128.726281 
L 244.391248 -131.721322 
L 241.22677 -134.716364 
L 237.993959 -137.711405 
L 234.733801 -140.706446 
L 231.492174 -143.701488 
L 228.318907 -146.696529 
L 225.266563 -149.69157 
L 222.388994 -152.686612 
L 219.739695 -155.681653 
L 217.370052 -158.676694 
L 215.327553 -161.671736 
L 213.654045 -164.666777 
L 212.384141 -167.661818 
L 211.543846 -170.65686 
L 211.149473 -173.651901 
L 211.206919 -176.646942 
L 211.711305 -179.641983 
L 212.647022 -182.637025 
L 213.988159 -185.632066 
L 215.699269 -188.627107 
L 217.736457 -191.622149 
L 220.048693 -194.61719 
L 222.579312 -197.612231 
L 225.267598 -200.607273 
L 228.050412 -203.602314 
L 230.863771 -206.597355 
L 233.644348 -209.592397 
L 236.330834 -212.587438 
L 238.865147 -215.582479 
L 241.193466 -218.577521 
L 243.267104 -221.572562 
L 245.043218 -224.567603 
L 246.485389 -227.562645 
L 247.564092 -230.557686 
L 248.257077 -233.552727 
L 248.549692 -236.547769 
L 248.435159 -239.54281 
L 247.914804 -242.537851 
L 246.998241 -245.532893 
L 245.703506 -248.527934 
L 244.057094 -251.522975 
L 242.093886 -254.518017 
L 239.856928 -257.513058 
L 237.397009 -260.508099 
L 234.772029 -263.50314 
L 232.046097 -266.498182 
L 229.288361 -269.493223 
L 226.571561 -272.488264 
L 223.970293 -275.483306 
L 221.559045 -278.478347 
L 219.410029 -281.473388 
L 217.590891 -284.46843 
L 216.162387 -287.463471 
L 215.176135 -290.458512 
L 214.672568 -293.453554 
L 214.679196 -296.448595 
L 215.20932 -299.443636 
L 216.261279 -302.438678 
L 217.818326 -305.433719 
L 219.849164 -308.42876 
L 222.309144 -311.423802 
L 225.142086 -314.418843 
L 228.282622 -317.413884 
L 231.658945 -320.408926 
L 235.195792 -323.403967 
L 238.817489 -326.399008 
L 242.450882 -329.39405 
L 246.027986 -332.389091 
L 249.488206 -335.384132 
L 252.780033 -338.379174 
L 255.862151 -341.374215 
L 258.70394 -344.369256 
L 261.285406 -347.364298 
L 263.596604 -350.359339 
L 265.636642 -353.35438 
L 267.412395 -356.349421 
L 268.937021 -359.344463 
L 270.228419 -362.339504 
L 271.307715 -365.334545 
L 279.492285 -365.334545 
L 279.492285 -365.334545 
L 280.571581 -362.339504 
L 281.862979 -359.344463 
L 283.387605 -356.349421 
L 285.163358 -353.35438 
L 287.203396 -350.359339 
L 289.514594 -347.364298 
L 292.09606 -344.369256 
L 294.937849 -341.374215 
L 298.019967 -338.379174 
L 301.311794 -335.384132 
L 304.772014 -332.389091 
L 308.349118 -329.39405 
L 311.982511 -326.399008 
L 315.604208 -323.403967 
L 319.141055 -320.408926 
L 322.517378 -317.413884 
L 325.657914 -314.418843 
L 328.490856 -311.423802 
L 330.950836 -308.42876 
L 332.981674 -305.433719 
L 334.538721 -302.438678 
L 335.59068 -299.443636 
L 336.120804 -296.448595 
L 336.127432 -293.453554 
L 335.623865 -290.458512 
L 334.637613 -287.463471 
L 333.209109 -284.46843 
L 331.389971 -281.473388 
L 329.240955 -278.478347 
L 326.829707 -275.483306 
L 324.228439 -272.488264 
L 321.511639 -269.493223 
L 318.753903 -266.498182 
L 316.027971 -263.50314 
L 313.402991 -260.508099 
L 310.943072 -257.513058 
L 308.706114 -254.518017 
L 306.742906 -251.522975 
L 305.096494 -248.527934 
L 303.801759 -245.532893 
L 302.885196 -242.537851 
L 302.364841 -239.54281 
L 302.250308 -236.547769 
L 302.542923 -233.552727 
L 303.235908 -230.557686 
L 304.314611 -227.562645 
L 305.756782 -224.567603 
L 307.532896 -221.572562 
L 309.606534 -218.577521 
L 311.934853 -215.582479 
L 314.469166 -212.587438 
L 317.155652 -209.592397 
L 319.936229 -206.597355 
L 322.749588 -203.602314 
L 325.532402 -200.607273 
L 328.220688 -197.612231 
L 330.751307 -194.61719 
L 333.063543 -191.622149 
L 335.100731 -188.627107 
L 336.811841 -185.632066 
L 338.152978 -182.637025 
L 339.088695 -179.641983 
L 339.593081 -176.646942 
L 339.650527 -173.651901 
L 339.256154 -170.65686 
L 338.415859 -167.661818 
L 337.145955 -164.666777 
L 335.472447 -161.671736 
L 333.429948 -158.676694 
L 331.060305 -155.681653 
L 328.411006 -152.686612 
L 325.533437 -149.69157 
L 322.481093 -146.696529 
L 319.307826 -143.701488 
L 316.066199 -140.706446 
L 312.806041 -137.711405 
L 309.57323 -134.716364 
L 306.408752 -131.721322 
L 303.348053 -128.726281 
L 300.420665 -125.73124 
L 297.650109 -122.736198 
L 295.054015 -119.741157 
L 292.644441 -116.746116 
L 290.428331 -113.751074 
L 288.408076 -110.756033 
L 286.582126 -107.760992 
L 284.945627 -104.76595 
L 283.491048 -101.770909 
L 282.208774 -98.775868 
L 281.087656 -95.780826 
L 280.115505 -92.785785 
L 279.279524 -89.790744 
L 278.566682 -86.795702 
L 277.964035 -83.800661 
L 277.458982 -80.80562 
L 277.039474 -77.810579 
L 276.694181 -74.815537 
L 276.412604 -71.820496 
L 276.185155 -68.825455 
z
" style="stroke: #3f3f3f; stroke-width: 2.25"/>
    </defs>
    <g clip-path="url(#pc285d1788a)">
     <use xlink:href="#mbc322087a2" x="0" y="432" style="fill: #3274a1; stroke: #3f3f3f; stroke-width: 2.25"/>
    </g>
   </g>
   <g id="PolyCollection_2">
    <defs>
     <path id="m1bcd56c416" d="M 611.331164 -84.044365 
L 609.068836 -84.044365 
L 608.677602 -86.715129 
L 608.184362 -89.385893 
L 607.573174 -92.056657 
L 606.828081 -94.727421 
L 605.933367 -97.398184 
L 604.873576 -100.068948 
L 603.63324 -102.739712 
L 602.196259 -105.410476 
L 600.544998 -108.08124 
L 598.659202 -110.752004 
L 596.514941 -113.422768 
L 594.083828 -116.093531 
L 591.332817 -118.764295 
L 588.224815 -121.435059 
L 584.720309 -124.105823 
L 580.780052 -126.776587 
L 576.368718 -129.447351 
L 571.459262 -132.118115 
L 566.037597 -134.788878 
L 560.107121 -137.459642 
L 553.692603 -140.130406 
L 546.842999 -142.80117 
L 539.632888 -145.471934 
L 532.162366 -148.142698 
L 524.555388 -150.813462 
L 516.956691 -153.484225 
L 509.527491 -156.154989 
L 502.440219 -158.825753 
L 495.872514 -161.496517 
L 490.000683 -164.167281 
L 484.992798 -166.838045 
L 481.001606 -169.508809 
L 478.157462 -172.179572 
L 476.561582 -174.850336 
L 476.28 -177.5211 
L 477.338718 -180.191864 
L 479.720559 -182.862628 
L 483.364222 -185.533392 
L 488.165893 -188.204156 
L 493.983554 -190.87492 
L 500.64388 -193.545683 
L 507.95126 -196.216447 
L 515.698274 -198.887211 
L 523.67672 -201.557975 
L 531.688216 -204.228739 
L 539.553473 -206.899503 
L 547.119484 -209.570267 
L 554.26414 -212.24103 
L 560.898112 -214.911794 
L 566.964129 -217.582558 
L 572.434055 -220.253322 
L 577.304353 -222.924086 
L 581.590612 -225.59485 
L 585.321808 -228.265614 
L 588.534887 -230.936377 
L 591.270136 -233.607141 
L 593.567604 -236.277905 
L 595.464725 -238.948669 
L 596.995087 -241.619433 
L 598.188209 -244.290197 
L 599.070095 -246.960961 
L 599.66428 -249.631724 
L 599.993101 -252.302488 
L 600.078934 -254.973252 
L 599.945205 -257.644016 
L 599.617058 -260.31478 
L 599.121652 -262.985544 
L 598.488101 -265.656308 
L 597.747164 -268.327071 
L 596.930799 -270.997835 
L 596.07168 -273.668599 
L 595.202762 -276.339363 
L 594.35691 -279.010127 
L 593.566564 -281.680891 
L 592.863349 -284.351655 
L 592.277541 -287.022418 
L 591.837301 -289.693182 
L 591.567637 -292.363946 
L 591.489129 -295.03471 
L 591.616521 -297.705474 
L 591.957363 -300.376238 
L 592.510904 -303.047002 
L 593.267458 -305.717765 
L 594.208405 -308.388529 
L 595.30692 -311.059293 
L 596.529407 -313.730057 
L 597.837546 -316.400821 
L 599.19073 -319.071585 
L 600.548659 -321.742349 
L 601.873797 -324.413112 
L 603.133471 -327.083876 
L 604.301413 -329.75464 
L 605.358636 -332.425404 
L 606.293653 -335.096168 
L 607.102064 -337.766932 
L 607.785674 -340.437696 
L 608.351279 -343.108459 
L 608.809293 -345.779223 
L 609.172384 -348.449987 
L 611.227616 -348.449987 
L 611.227616 -348.449987 
L 611.590707 -345.779223 
L 612.048721 -343.108459 
L 612.614326 -340.437696 
L 613.297936 -337.766932 
L 614.106347 -335.096168 
L 615.041364 -332.425404 
L 616.098587 -329.75464 
L 617.266529 -327.083876 
L 618.526203 -324.413112 
L 619.851341 -321.742349 
L 621.20927 -319.071585 
L 622.562454 -316.400821 
L 623.870593 -313.730057 
L 625.09308 -311.059293 
L 626.191595 -308.388529 
L 627.132542 -305.717765 
L 627.889096 -303.047002 
L 628.442637 -300.376238 
L 628.783479 -297.705474 
L 628.910871 -295.03471 
L 628.832363 -292.363946 
L 628.562699 -289.693182 
L 628.122459 -287.022418 
L 627.536651 -284.351655 
L 626.833436 -281.680891 
L 626.04309 -279.010127 
L 625.197238 -276.339363 
L 624.32832 -273.668599 
L 623.469201 -270.997835 
L 622.652836 -268.327071 
L 621.911899 -265.656308 
L 621.278348 -262.985544 
L 620.782942 -260.31478 
L 620.454795 -257.644016 
L 620.321066 -254.973252 
L 620.406899 -252.302488 
L 620.73572 -249.631724 
L 621.329905 -246.960961 
L 622.211791 -244.290197 
L 623.404913 -241.619433 
L 624.935275 -238.948669 
L 626.832396 -236.277905 
L 629.129864 -233.607141 
L 631.865113 -230.936377 
L 635.078192 -228.265614 
L 638.809388 -225.59485 
L 643.095647 -222.924086 
L 647.965945 -220.253322 
L 653.435871 -217.582558 
L 659.501888 -214.911794 
L 666.13586 -212.24103 
L 673.280516 -209.570267 
L 680.846527 -206.899503 
L 688.711784 -204.228739 
L 696.72328 -201.557975 
L 704.701726 -198.887211 
L 712.44874 -196.216447 
L 719.75612 -193.545683 
L 726.416446 -190.87492 
L 732.234107 -188.204156 
L 737.035778 -185.533392 
L 740.679441 -182.862628 
L 743.061282 -180.191864 
L 744.12 -177.5211 
L 743.838418 -174.850336 
L 742.242538 -172.179572 
L 739.398394 -169.508809 
L 735.407202 -166.838045 
L 730.399317 -164.167281 
L 724.527486 -161.496517 
L 717.959781 -158.825753 
L 710.872509 -156.154989 
L 703.443309 -153.484225 
L 695.844612 -150.813462 
L 688.237634 -148.142698 
L 680.767112 -145.471934 
L 673.557001 -142.80117 
L 666.707397 -140.130406 
L 660.292879 -137.459642 
L 654.362403 -134.788878 
L 648.940738 -132.118115 
L 644.031282 -129.447351 
L 639.619948 -126.776587 
L 635.679691 -124.105823 
L 632.175185 -121.435059 
L 629.067183 -118.764295 
L 626.316172 -116.093531 
L 623.885059 -113.422768 
L 621.740798 -110.752004 
L 619.855002 -108.08124 
L 618.203741 -105.410476 
L 616.76676 -102.739712 
L 615.526424 -100.068948 
L 614.466633 -97.398184 
L 613.571919 -94.727421 
L 612.826826 -92.056657 
L 612.215638 -89.385893 
L 611.722398 -86.715129 
L 611.331164 -84.044365 
z
" style="stroke: #3f3f3f; stroke-width: 2.25"/>
    </defs>
    <g clip-path="url(#pc285d1788a)">
     <use xlink:href="#m1bcd56c416" x="0" y="432" style="fill: #e1812c; stroke: #3f3f3f; stroke-width: 2.25"/>
    </g>
   </g>
   <g id="matplotlib.axis_1">
    <g id="xtick_1">
     <g id="line2d_1">
      <defs>
       <path id="me663a07e6e" d="M 0 0 
L 0 9 
" style="stroke: #000000; stroke-width: 1.875"/>
      </defs>
      <g>
       <use xlink:href="#me663a07e6e" x="275.4" y="378" style="stroke: #000000; stroke-width: 1.875"/>
      </g>
     </g>
     <g id="text_1">
      <!-- blocked_rep -->
      <g transform="translate(225.849727 403.037422)scale(0.165 -0.165)">
       <defs>
        <path id="DejaVuSans-62" d="M 3116 1747 
Q 3116 2381 2855 2742 
Q 2594 3103 2138 3103 
Q 1681 3103 1420 2742 
Q 1159 2381 1159 1747 
Q 1159 1113 1420 752 
Q 1681 391 2138 391 
Q 2594 391 2855 752 
Q 3116 1113 3116 1747 
z
M 1159 2969 
Q 1341 3281 1617 3432 
Q 1894 3584 2278 3584 
Q 2916 3584 3314 3078 
Q 3713 2572 3713 1747 
Q 3713 922 3314 415 
Q 2916 -91 2278 -91 
Q 1894 -91 1617 61 
Q 1341 213 1159 525 
L 1159 0 
L 581 0 
L 581 4863 
L 1159 4863 
L 1159 2969 
z
" transform="scale(0.015625)"/>
        <path id="DejaVuSans-6c" d="M 603 4863 
L 1178 4863 
L 1178 0 
L 603 0 
L 603 4863 
z
" transform="scale(0.015625)"/>
        <path id="DejaVuSans-6f" d="M 1959 3097 
Q 1497 3097 1228 2736 
Q 959 2375 959 1747 
Q 959 1119 1226 758 
Q 1494 397 1959 397 
Q 2419 397 2687 759 
Q 2956 1122 2956 1747 
Q 2956 2369 2687 2733 
Q 2419 3097 1959 3097 
z
M 1959 3584 
Q 2709 3584 3137 3096 
Q 3566 2609 3566 1747 
Q 3566 888 3137 398 
Q 2709 -91 1959 -91 
Q 1206 -91 779 398 
Q 353 888 353 1747 
Q 353 2609 779 3096 
Q 1206 3584 1959 3584 
z
" transform="scale(0.015625)"/>
        <path id="DejaVuSans-63" d="M 3122 3366 
L 3122 2828 
Q 2878 2963 2633 3030 
Q 2388 3097 2138 3097 
Q 1578 3097 1268 2742 
Q 959 2388 959 1747 
Q 959 1106 1268 751 
Q 1578 397 2138 397 
Q 2388 397 2633 464 
Q 2878 531 3122 666 
L 3122 134 
Q 2881 22 2623 -34 
Q 2366 -91 2075 -91 
Q 1284 -91 818 406 
Q 353 903 353 1747 
Q 353 2603 823 3093 
Q 1294 3584 2113 3584 
Q 2378 3584 2631 3529 
Q 2884 3475 3122 3366 
z
" transform="scale(0.015625)"/>
        <path id="DejaVuSans-6b" d="M 581 4863 
L 1159 4863 
L 1159 1991 
L 2875 3500 
L 3609 3500 
L 1753 1863 
L 3688 0 
L 2938 0 
L 1159 1709 
L 1159 0 
L 581 0 
L 581 4863 
z
" transform="scale(0.015625)"/>
        <path id="DejaVuSans-65" d="M 3597 1894 
L 3597 1613 
L 953 1613 
Q 991 1019 1311 708 
Q 1631 397 2203 397 
Q 2534 397 2845 478 
Q 3156 559 3463 722 
L 3463 178 
Q 3153 47 2828 -22 
Q 2503 -91 2169 -91 
Q 1331 -91 842 396 
Q 353 884 353 1716 
Q 353 2575 817 3079 
Q 1281 3584 2069 3584 
Q 2775 3584 3186 3129 
Q 3597 2675 3597 1894 
z
M 3022 2063 
Q 3016 2534 2758 2815 
Q 2500 3097 2075 3097 
Q 1594 3097 1305 2825 
Q 1016 2553 972 2059 
L 3022 2063 
z
" transform="scale(0.015625)"/>
        <path id="DejaVuSans-64" d="M 2906 2969 
L 2906 4863 
L 3481 4863 
L 3481 0 
L 2906 0 
L 2906 525 
Q 2725 213 2448 61 
Q 2172 -91 1784 -91 
Q 1150 -91 751 415 
Q 353 922 353 1747 
Q 353 2572 751 3078 
Q 1150 3584 1784 3584 
Q 2172 3584 2448 3432 
Q 2725 3281 2906 2969 
z
M 947 1747 
Q 947 1113 1208 752 
Q 1469 391 1925 391 
Q 2381 391 2643 752 
Q 2906 1113 2906 1747 
Q 2906 2381 2643 2742 
Q 2381 3103 1925 3103 
Q 1469 3103 1208 2742 
Q 947 2381 947 1747 
z
" transform="scale(0.015625)"/>
        <path id="DejaVuSans-5f" d="M 3263 -1063 
L 3263 -1509 
L -63 -1509 
L -63 -1063 
L 3263 -1063 
z
" transform="scale(0.015625)"/>
        <path id="DejaVuSans-72" d="M 2631 2963 
Q 2534 3019 2420 3045 
Q 2306 3072 2169 3072 
Q 1681 3072 1420 2755 
Q 1159 2438 1159 1844 
L 1159 0 
L 581 0 
L 581 3500 
L 1159 3500 
L 1159 2956 
Q 1341 3275 1631 3429 
Q 1922 3584 2338 3584 
Q 2397 3584 2469 3576 
Q 2541 3569 2628 3553 
L 2631 2963 
z
" transform="scale(0.015625)"/>
        <path id="DejaVuSans-70" d="M 1159 525 
L 1159 -1331 
L 581 -1331 
L 581 3500 
L 1159 3500 
L 1159 2969 
Q 1341 3281 1617 3432 
Q 1894 3584 2278 3584 
Q 2916 3584 3314 3078 
Q 3713 2572 3713 1747 
Q 3713 922 3314 415 
Q 2916 -91 2278 -91 
Q 1894 -91 1617 61 
Q 1341 213 1159 525 
z
M 3116 1747 
Q 3116 2381 2855 2742 
Q 2594 3103 2138 3103 
Q 1681 3103 1420 2742 
Q 1159 2381 1159 1747 
Q 1159 1113 1420 752 
Q 1681 391 2138 391 
Q 2594 391 2855 752 
Q 3116 1113 3116 1747 
z
" transform="scale(0.015625)"/>
       </defs>
       <use xlink:href="#DejaVuSans-62"/>
       <use xlink:href="#DejaVuSans-6c" x="63.476562"/>
       <use xlink:href="#DejaVuSans-6f" x="91.259766"/>
       <use xlink:href="#DejaVuSans-63" x="152.441406"/>
       <use xlink:href="#DejaVuSans-6b" x="207.421875"/>
       <use xlink:href="#DejaVuSans-65" x="261.707031"/>
       <use xlink:href="#DejaVuSans-64" x="323.230469"/>
       <use xlink:href="#DejaVuSans-5f" x="386.707031"/>
       <use xlink:href="#DejaVuSans-72" x="436.707031"/>
       <use xlink:href="#DejaVuSans-65" x="475.570312"/>
       <use xlink:href="#DejaVuSans-70" x="537.09375"/>
      </g>
     </g>
    </g>
    <g id="xtick_2">
     <g id="line2d_2">
      <g>
       <use xlink:href="#me663a07e6e" x="610.2" y="378" style="stroke: #000000; stroke-width: 1.875"/>
      </g>
     </g>
     <g id="text_2">
      <!-- interleaved_rep -->
      <g transform="translate(545.71207 403.037422)scale(0.165 -0.165)">
       <defs>
        <path id="DejaVuSans-69" d="M 603 3500 
L 1178 3500 
L 1178 0 
L 603 0 
L 603 3500 
z
M 603 4863 
L 1178 4863 
L 1178 4134 
L 603 4134 
L 603 4863 
z
" transform="scale(0.015625)"/>
        <path id="DejaVuSans-6e" d="M 3513 2113 
L 3513 0 
L 2938 0 
L 2938 2094 
Q 2938 2591 2744 2837 
Q 2550 3084 2163 3084 
Q 1697 3084 1428 2787 
Q 1159 2491 1159 1978 
L 1159 0 
L 581 0 
L 581 3500 
L 1159 3500 
L 1159 2956 
Q 1366 3272 1645 3428 
Q 1925 3584 2291 3584 
Q 2894 3584 3203 3211 
Q 3513 2838 3513 2113 
z
" transform="scale(0.015625)"/>
        <path id="DejaVuSans-74" d="M 1172 4494 
L 1172 3500 
L 2356 3500 
L 2356 3053 
L 1172 3053 
L 1172 1153 
Q 1172 725 1289 603 
Q 1406 481 1766 481 
L 2356 481 
L 2356 0 
L 1766 0 
Q 1100 0 847 248 
Q 594 497 594 1153 
L 594 3053 
L 172 3053 
L 172 3500 
L 594 3500 
L 594 4494 
L 1172 4494 
z
" transform="scale(0.015625)"/>
        <path id="DejaVuSans-61" d="M 2194 1759 
Q 1497 1759 1228 1600 
Q 959 1441 959 1056 
Q 959 750 1161 570 
Q 1363 391 1709 391 
Q 2188 391 2477 730 
Q 2766 1069 2766 1631 
L 2766 1759 
L 2194 1759 
z
M 3341 1997 
L 3341 0 
L 2766 0 
L 2766 531 
Q 2569 213 2275 61 
Q 1981 -91 1556 -91 
Q 1019 -91 701 211 
Q 384 513 384 1019 
Q 384 1609 779 1909 
Q 1175 2209 1959 2209 
L 2766 2209 
L 2766 2266 
Q 2766 2663 2505 2880 
Q 2244 3097 1772 3097 
Q 1472 3097 1187 3025 
Q 903 2953 641 2809 
L 641 3341 
Q 956 3463 1253 3523 
Q 1550 3584 1831 3584 
Q 2591 3584 2966 3190 
Q 3341 2797 3341 1997 
z
" transform="scale(0.015625)"/>
        <path id="DejaVuSans-76" d="M 191 3500 
L 800 3500 
L 1894 563 
L 2988 3500 
L 3597 3500 
L 2284 0 
L 1503 0 
L 191 3500 
z
" transform="scale(0.015625)"/>
       </defs>
       <use xlink:href="#DejaVuSans-69"/>
       <use xlink:href="#DejaVuSans-6e" x="27.783203"/>
       <use xlink:href="#DejaVuSans-74" x="91.162109"/>
       <use xlink:href="#DejaVuSans-65" x="130.371094"/>
       <use xlink:href="#DejaVuSans-72" x="191.894531"/>
       <use xlink:href="#DejaVuSans-6c" x="233.007812"/>
       <use xlink:href="#DejaVuSans-65" x="260.791016"/>
       <use xlink:href="#DejaVuSans-61" x="322.314453"/>
       <use xlink:href="#DejaVuSans-76" x="383.59375"/>
       <use xlink:href="#DejaVuSans-65" x="442.773438"/>
       <use xlink:href="#DejaVuSans-64" x="504.296875"/>
       <use xlink:href="#DejaVuSans-5f" x="567.773438"/>
       <use xlink:href="#DejaVuSans-72" x="617.773438"/>
       <use xlink:href="#DejaVuSans-65" x="656.636719"/>
       <use xlink:href="#DejaVuSans-70" x="718.160156"/>
      </g>
     </g>
    </g>
    <g id="text_3">
     <!-- condition -->
     <g transform="translate(401.187656 424.605)scale(0.18 -0.18)">
      <use xlink:href="#DejaVuSans-63"/>
      <use xlink:href="#DejaVuSans-6f" x="54.980469"/>
      <use xlink:href="#DejaVuSans-6e" x="116.162109"/>
      <use xlink:href="#DejaVuSans-64" x="179.541016"/>
      <use xlink:href="#DejaVuSans-69" x="243.017578"/>
      <use xlink:href="#DejaVuSans-74" x="270.800781"/>
      <use xlink:href="#DejaVuSans-69" x="310.009766"/>
      <use xlink:href="#DejaVuSans-6f" x="337.792969"/>
      <use xlink:href="#DejaVuSans-6e" x="398.974609"/>
     </g>
    </g>
   </g>
   <g id="matplotlib.axis_2">
    <g id="ytick_1">
     <g id="line2d_3">
      <defs>
       <path id="mc90116db73" d="M 0 0 
L -9 0 
" style="stroke: #000000; stroke-width: 1.875"/>
      </defs>
      <g>
       <use xlink:href="#mc90116db73" x="108" y="349.554301" style="stroke: #000000; stroke-width: 1.875"/>
      </g>
     </g>
     <g id="text_4">
      <!-- 0.2 -->
      <g transform="translate(69.259844 355.823012)scale(0.165 -0.165)">
       <defs>
        <path id="DejaVuSans-30" d="M 2034 4250 
Q 1547 4250 1301 3770 
Q 1056 3291 1056 2328 
Q 1056 1369 1301 889 
Q 1547 409 2034 409 
Q 2525 409 2770 889 
Q 3016 1369 3016 2328 
Q 3016 3291 2770 3770 
Q 2525 4250 2034 4250 
z
M 2034 4750 
Q 2819 4750 3233 4129 
Q 3647 3509 3647 2328 
Q 3647 1150 3233 529 
Q 2819 -91 2034 -91 
Q 1250 -91 836 529 
Q 422 1150 422 2328 
Q 422 3509 836 4129 
Q 1250 4750 2034 4750 
z
" transform="scale(0.015625)"/>
        <path id="DejaVuSans-2e" d="M 684 794 
L 1344 794 
L 1344 0 
L 684 0 
L 684 794 
z
" transform="scale(0.015625)"/>
        <path id="DejaVuSans-32" d="M 1228 531 
L 3431 531 
L 3431 0 
L 469 0 
L 469 531 
Q 828 903 1448 1529 
Q 2069 2156 2228 2338 
Q 2531 2678 2651 2914 
Q 2772 3150 2772 3378 
Q 2772 3750 2511 3984 
Q 2250 4219 1831 4219 
Q 1534 4219 1204 4116 
Q 875 4013 500 3803 
L 500 4441 
Q 881 4594 1212 4672 
Q 1544 4750 1819 4750 
Q 2544 4750 2975 4387 
Q 3406 4025 3406 3419 
Q 3406 3131 3298 2873 
Q 3191 2616 2906 2266 
Q 2828 2175 2409 1742 
Q 1991 1309 1228 531 
z
" transform="scale(0.015625)"/>
       </defs>
       <use xlink:href="#DejaVuSans-30"/>
       <use xlink:href="#DejaVuSans-2e" x="63.623047"/>
       <use xlink:href="#DejaVuSans-32" x="95.410156"/>
      </g>
     </g>
    </g>
    <g id="ytick_2">
     <g id="line2d_4">
      <g>
       <use xlink:href="#mc90116db73" x="108" y="292.555838" style="stroke: #000000; stroke-width: 1.875"/>
      </g>
     </g>
     <g id="text_5">
      <!-- 0.4 -->
      <g transform="translate(69.259844 298.824549)scale(0.165 -0.165)">
       <defs>
        <path id="DejaVuSans-34" d="M 2419 4116 
L 825 1625 
L 2419 1625 
L 2419 4116 
z
M 2253 4666 
L 3047 4666 
L 3047 1625 
L 3713 1625 
L 3713 1100 
L 3047 1100 
L 3047 0 
L 2419 0 
L 2419 1100 
L 313 1100 
L 313 1709 
L 2253 4666 
z
" transform="scale(0.015625)"/>
       </defs>
       <use xlink:href="#DejaVuSans-30"/>
       <use xlink:href="#DejaVuSans-2e" x="63.623047"/>
       <use xlink:href="#DejaVuSans-34" x="95.410156"/>
      </g>
     </g>
    </g>
    <g id="ytick_3">
     <g id="line2d_5">
      <g>
       <use xlink:href="#mc90116db73" x="108" y="235.557375" style="stroke: #000000; stroke-width: 1.875"/>
      </g>
     </g>
     <g id="text_6">
      <!-- 0.6 -->
      <g transform="translate(69.259844 241.826085)scale(0.165 -0.165)">
       <defs>
        <path id="DejaVuSans-36" d="M 2113 2584 
Q 1688 2584 1439 2293 
Q 1191 2003 1191 1497 
Q 1191 994 1439 701 
Q 1688 409 2113 409 
Q 2538 409 2786 701 
Q 3034 994 3034 1497 
Q 3034 2003 2786 2293 
Q 2538 2584 2113 2584 
z
M 3366 4563 
L 3366 3988 
Q 3128 4100 2886 4159 
Q 2644 4219 2406 4219 
Q 1781 4219 1451 3797 
Q 1122 3375 1075 2522 
Q 1259 2794 1537 2939 
Q 1816 3084 2150 3084 
Q 2853 3084 3261 2657 
Q 3669 2231 3669 1497 
Q 3669 778 3244 343 
Q 2819 -91 2113 -91 
Q 1303 -91 875 529 
Q 447 1150 447 2328 
Q 447 3434 972 4092 
Q 1497 4750 2381 4750 
Q 2619 4750 2861 4703 
Q 3103 4656 3366 4563 
z
" transform="scale(0.015625)"/>
       </defs>
       <use xlink:href="#DejaVuSans-30"/>
       <use xlink:href="#DejaVuSans-2e" x="63.623047"/>
       <use xlink:href="#DejaVuSans-36" x="95.410156"/>
      </g>
     </g>
    </g>
    <g id="ytick_4">
     <g id="line2d_6">
      <g>
       <use xlink:href="#mc90116db73" x="108" y="178.558912" style="stroke: #000000; stroke-width: 1.875"/>
      </g>
     </g>
     <g id="text_7">
      <!-- 0.8 -->
      <g transform="translate(69.259844 184.827622)scale(0.165 -0.165)">
       <defs>
        <path id="DejaVuSans-38" d="M 2034 2216 
Q 1584 2216 1326 1975 
Q 1069 1734 1069 1313 
Q 1069 891 1326 650 
Q 1584 409 2034 409 
Q 2484 409 2743 651 
Q 3003 894 3003 1313 
Q 3003 1734 2745 1975 
Q 2488 2216 2034 2216 
z
M 1403 2484 
Q 997 2584 770 2862 
Q 544 3141 544 3541 
Q 544 4100 942 4425 
Q 1341 4750 2034 4750 
Q 2731 4750 3128 4425 
Q 3525 4100 3525 3541 
Q 3525 3141 3298 2862 
Q 3072 2584 2669 2484 
Q 3125 2378 3379 2068 
Q 3634 1759 3634 1313 
Q 3634 634 3220 271 
Q 2806 -91 2034 -91 
Q 1263 -91 848 271 
Q 434 634 434 1313 
Q 434 1759 690 2068 
Q 947 2378 1403 2484 
z
M 1172 3481 
Q 1172 3119 1398 2916 
Q 1625 2713 2034 2713 
Q 2441 2713 2670 2916 
Q 2900 3119 2900 3481 
Q 2900 3844 2670 4047 
Q 2441 4250 2034 4250 
Q 1625 4250 1398 4047 
Q 1172 3844 1172 3481 
z
" transform="scale(0.015625)"/>
       </defs>
       <use xlink:href="#DejaVuSans-30"/>
       <use xlink:href="#DejaVuSans-2e" x="63.623047"/>
       <use xlink:href="#DejaVuSans-38" x="95.410156"/>
      </g>
     </g>
    </g>
    <g id="ytick_5">
     <g id="line2d_7">
      <g>
       <use xlink:href="#mc90116db73" x="108" y="121.560448" style="stroke: #000000; stroke-width: 1.875"/>
      </g>
     </g>
     <g id="text_8">
      <!-- 1.0 -->
      <g transform="translate(69.259844 127.829159)scale(0.165 -0.165)">
       <defs>
        <path id="DejaVuSans-31" d="M 794 531 
L 1825 531 
L 1825 4091 
L 703 3866 
L 703 4441 
L 1819 4666 
L 2450 4666 
L 2450 531 
L 3481 531 
L 3481 0 
L 794 0 
L 794 531 
z
" transform="scale(0.015625)"/>
       </defs>
       <use xlink:href="#DejaVuSans-31"/>
       <use xlink:href="#DejaVuSans-2e" x="63.623047"/>
       <use xlink:href="#DejaVuSans-30" x="95.410156"/>
      </g>
     </g>
    </g>
    <g id="ytick_6">
     <g id="line2d_8">
      <g>
       <use xlink:href="#mc90116db73" x="108" y="64.561985" style="stroke: #000000; stroke-width: 1.875"/>
      </g>
     </g>
     <g id="text_9">
      <!-- 1.2 -->
      <g transform="translate(69.259844 70.830696)scale(0.165 -0.165)">
       <use xlink:href="#DejaVuSans-31"/>
       <use xlink:href="#DejaVuSans-2e" x="63.623047"/>
       <use xlink:href="#DejaVuSans-32" x="95.410156"/>
      </g>
     </g>
    </g>
    <g id="text_10">
     <!-- prediction accuracy -->
     <g transform="translate(61.516406 303.537656)rotate(-90)scale(0.18 -0.18)">
      <defs>
       <path id="DejaVuSans-20" transform="scale(0.015625)"/>
       <path id="DejaVuSans-75" d="M 544 1381 
L 544 3500 
L 1119 3500 
L 1119 1403 
Q 1119 906 1312 657 
Q 1506 409 1894 409 
Q 2359 409 2629 706 
Q 2900 1003 2900 1516 
L 2900 3500 
L 3475 3500 
L 3475 0 
L 2900 0 
L 2900 538 
Q 2691 219 2414 64 
Q 2138 -91 1772 -91 
Q 1169 -91 856 284 
Q 544 659 544 1381 
z
M 1991 3584 
L 1991 3584 
z
" transform="scale(0.015625)"/>
       <path id="DejaVuSans-79" d="M 2059 -325 
Q 1816 -950 1584 -1140 
Q 1353 -1331 966 -1331 
L 506 -1331 
L 506 -850 
L 844 -850 
Q 1081 -850 1212 -737 
Q 1344 -625 1503 -206 
L 1606 56 
L 191 3500 
L 800 3500 
L 1894 763 
L 2988 3500 
L 3597 3500 
L 2059 -325 
z
" transform="scale(0.015625)"/>
      </defs>
      <use xlink:href="#DejaVuSans-70"/>
      <use xlink:href="#DejaVuSans-72" x="63.476562"/>
      <use xlink:href="#DejaVuSans-65" x="102.339844"/>
      <use xlink:href="#DejaVuSans-64" x="163.863281"/>
      <use xlink:href="#DejaVuSans-69" x="227.339844"/>
      <use xlink:href="#DejaVuSans-63" x="255.123047"/>
      <use xlink:href="#DejaVuSans-74" x="310.103516"/>
      <use xlink:href="#DejaVuSans-69" x="349.3125"/>
      <use xlink:href="#DejaVuSans-6f" x="377.095703"/>
      <use xlink:href="#DejaVuSans-6e" x="438.277344"/>
      <use xlink:href="#DejaVuSans-20" x="501.65625"/>
      <use xlink:href="#DejaVuSans-61" x="533.443359"/>
      <use xlink:href="#DejaVuSans-63" x="594.722656"/>
      <use xlink:href="#DejaVuSans-63" x="649.703125"/>
      <use xlink:href="#DejaVuSans-75" x="704.683594"/>
      <use xlink:href="#DejaVuSans-72" x="768.0625"/>
      <use xlink:href="#DejaVuSans-61" x="809.175781"/>
      <use xlink:href="#DejaVuSans-63" x="870.455078"/>
      <use xlink:href="#DejaVuSans-79" x="925.435547"/>
     </g>
    </g>
   </g>
   <g id="line2d_9">
    <path d="M 275.4 308.279552 
L 275.4 121.560448 
" clip-path="url(#pc285d1788a)" style="fill: none; stroke: #3f3f3f; stroke-width: 2.25; stroke-linecap: square"/>
   </g>
   <g id="line2d_10">
    <path d="M 275.4 260.622509 
L 275.4 136.540814 
" clip-path="url(#pc285d1788a)" style="fill: none; stroke: #3f3f3f; stroke-width: 6.75; stroke-linecap: square"/>
   </g>
   <g id="line2d_11">
    <path d="M 610.2 308.279552 
L 610.2 212.034199 
" clip-path="url(#pc285d1788a)" style="fill: none; stroke: #3f3f3f; stroke-width: 2.25; stroke-linecap: square"/>
   </g>
   <g id="line2d_12">
    <path d="M 610.2 266.566508 
L 610.2 238.142815 
" clip-path="url(#pc285d1788a)" style="fill: none; stroke: #3f3f3f; stroke-width: 6.75; stroke-linecap: square"/>
   </g>
   <g id="patch_3">
    <path d="M 108 378 
L 108 51.84 
" style="fill: none; stroke: #000000; stroke-width: 1.875; stroke-linejoin: miter; stroke-linecap: square"/>
   </g>
   <g id="patch_4">
    <path d="M 777.6 378 
L 777.6 51.84 
" style="fill: none; stroke: #000000; stroke-width: 1.875; stroke-linejoin: miter; stroke-linecap: square"/>
   </g>
   <g id="patch_5">
    <path d="M 108 378 
L 777.6 378 
" style="fill: none; stroke: #000000; stroke-width: 1.875; stroke-linejoin: miter; stroke-linecap: square"/>
   </g>
   <g id="patch_6">
    <path d="M 108 51.84 
L 777.6 51.84 
" style="fill: none; stroke: #000000; stroke-width: 1.875; stroke-linejoin: miter; stroke-linecap: square"/>
   </g>
   <g id="PathCollection_1">
    <defs>
     <path id="ma9de2cd9ac" d="M 0 2.25 
C 0.596707 2.25 1.169055 2.012926 1.59099 1.59099 
C 2.012926 1.169055 2.25 0.596707 2.25 0 
C 2.25 -0.596707 2.012926 -1.169055 1.59099 -1.59099 
C 1.169055 -2.012926 0.596707 -2.25 0 -2.25 
C -0.596707 -2.25 -1.169055 -2.012926 -1.59099 -1.59099 
C -2.012926 -1.169055 -2.25 -0.596707 -2.25 0 
C -2.25 0.596707 -2.012926 1.169055 -1.59099 1.59099 
C -1.169055 2.012926 -0.596707 2.25 0 2.25 
z
" style="stroke: #3f3f3f; stroke-width: 1.5"/>
    </defs>
    <g clip-path="url(#pc285d1788a)">
     <use xlink:href="#ma9de2cd9ac" x="275.4" y="227.113158" style="fill: #ffffff; stroke: #3f3f3f; stroke-width: 1.5"/>
    </g>
   </g>
   <g id="PathCollection_2">
    <g clip-path="url(#pc285d1788a)">
     <use xlink:href="#ma9de2cd9ac" x="610.2" y="251.768802" style="fill: #ffffff; stroke: #3f3f3f; stroke-width: 1.5"/>
    </g>
   </g>
  </g>
 </g>
 <defs>
  <clipPath id="pc285d1788a">
   <rect x="108" y="51.84" width="669.6" height="326.16"/>
  </clipPath>
 </defs>
</svg>
