<?xml version="1.0" encoding="utf-8" standalone="no"?>
<!DOCTYPE svg PUBLIC "-//W3C//DTD SVG 1.1//EN"
  "http://www.w3.org/Graphics/SVG/1.1/DTD/svg11.dtd">
<svg xmlns:xlink="http://www.w3.org/1999/xlink" width="864pt" height="432pt" viewBox="0 0 864 432" xmlns="http://www.w3.org/2000/svg" version="1.1">
 <metadata>
  <rdf:RDF xmlns:dc="http://purl.org/dc/elements/1.1/" xmlns:cc="http://creativecommons.org/ns#" xmlns:rdf="http://www.w3.org/1999/02/22-rdf-syntax-ns#">
   <cc:Work>
    <dc:type rdf:resource="http://purl.org/dc/dcmitype/StillImage"/>
    <dc:date>2023-05-02T16:40:53.595996</dc:date>
    <dc:format>image/svg+xml</dc:format>
    <dc:creator>
     <cc:Agent>
      <dc:title>Matplotlib v3.5.1, https://matplotlib.org/</dc:title>
     </cc:Agent>
    </dc:creator>
   </cc:Work>
  </rdf:RDF>
 </metadata>
 <defs>
  <style type="text/css">*{stroke-linejoin: round; stroke-linecap: butt}</style>
 </defs>
 <g id="figure_1">
  <g id="patch_1">
   <path d="M 0 432 
L 864 432 
L 864 0 
L 0 0 
L 0 432 
z
" style="fill: none"/>
  </g>
  <g id="axes_1">
   <g id="patch_2">
    <path d="M 108 378 
L 777.6 378 
L 777.6 51.84 
L 108 51.84 
z
" style="fill: #ffffff"/>
   </g>
   <g id="PolyCollection_1">
    <defs>
     <path id="m093488b39b" d="M 276.910622 -88.554717 
L 273.889378 -88.554717 
L 273.502554 -91.350473 
L 273.041584 -94.146229 
L 272.49912 -96.941985 
L 271.868814 -99.737741 
L 271.145799 -102.533496 
L 270.327182 -105.329252 
L 269.412521 -108.125008 
L 268.404252 -110.920764 
L 267.308027 -113.71652 
L 266.132938 -116.512276 
L 264.891587 -119.308031 
L 263.599987 -122.103787 
L 262.277281 -124.899543 
L 260.945276 -127.695299 
L 259.627823 -130.491055 
L 258.35004 -133.286811 
L 257.137456 -136.082567 
L 256.015082 -138.878322 
L 255.006495 -141.674078 
L 254.132968 -144.469834 
L 253.412695 -147.26559 
L 252.860156 -150.061346 
L 252.485648 -152.857102 
L 252.294995 -155.652857 
L 252.289444 -158.448613 
L 252.465732 -161.244369 
L 252.81631 -164.040125 
L 253.329698 -166.835881 
L 253.990927 -169.631637 
L 254.78206 -172.427392 
L 255.682736 -175.223148 
L 256.67073 -178.018904 
L 257.722498 -180.81466 
L 258.813691 -183.610416 
L 259.919626 -186.406172 
L 261.015699 -189.201927 
L 262.077735 -191.997683 
L 263.082266 -194.793439 
L 264.00673 -197.589195 
L 264.82957 -200.384951 
L 265.53025 -203.180707 
L 266.089157 -205.976463 
L 266.487404 -208.772218 
L 266.706543 -211.567974 
L 266.728178 -214.36373 
L 266.53354 -217.159486 
L 266.103021 -219.955242 
L 265.415744 -222.750998 
L 264.449209 -225.546753 
L 263.17908 -228.342509 
L 261.57919 -231.138265 
L 259.62181 -233.934021 
L 257.278262 -236.729777 
L 254.519885 -239.525533 
L 251.31941 -242.321288 
L 247.652699 -245.117044 
L 243.500833 -247.9128 
L 238.85246 -250.708556 
L 233.706297 -253.504312 
L 228.073642 -256.300068 
L 221.980727 -259.095824 
L 215.470726 -261.891579 
L 208.60523 -264.687335 
L 201.465006 -267.483091 
L 194.149871 -270.278847 
L 186.777575 -273.074603 
L 179.481616 -275.870359 
L 172.407976 -278.666114 
L 165.710858 -281.46187 
L 159.547551 -284.257626 
L 154.072655 -287.053382 
L 149.431917 -289.849138 
L 145.756038 -292.644894 
L 143.154769 -295.440649 
L 141.711693 -298.236405 
L 141.48 -301.032161 
L 142.479564 -303.827917 
L 144.695526 -306.623673 
L 148.078505 -309.419429 
L 152.546465 -312.215184 
L 157.988127 -315.01094 
L 164.267737 -317.806696 
L 171.230904 -320.602452 
L 178.711139 -323.398208 
L 186.536722 -326.193964 
L 194.53746 -328.98972 
L 202.550989 -331.785475 
L 210.428266 -334.581231 
L 218.038003 -337.376987 
L 225.269883 -340.172743 
L 232.036471 -342.968499 
L 238.273852 -345.764255 
L 243.941101 -348.56001 
L 249.018738 -351.355766 
L 253.506401 -354.151522 
L 257.419973 -356.947278 
L 260.788385 -359.743034 
L 263.650356 -362.53879 
L 266.051225 -365.334545 
L 284.748775 -365.334545 
L 284.748775 -365.334545 
L 287.149644 -362.53879 
L 290.011615 -359.743034 
L 293.380027 -356.947278 
L 297.293599 -354.151522 
L 301.781262 -351.355766 
L 306.858899 -348.56001 
L 312.526148 -345.764255 
L 318.763529 -342.968499 
L 325.530117 -340.172743 
L 332.761997 -337.376987 
L 340.371734 -334.581231 
L 348.249011 -331.785475 
L 356.26254 -328.98972 
L 364.263278 -326.193964 
L 372.088861 -323.398208 
L 379.569096 -320.602452 
L 386.532263 -317.806696 
L 392.811873 -315.01094 
L 398.253535 -312.215184 
L 402.721495 -309.419429 
L 406.104474 -306.623673 
L 408.320436 -303.827917 
L 409.32 -301.032161 
L 409.088307 -298.236405 
L 407.645231 -295.440649 
L 405.043962 -292.644894 
L 401.368083 -289.849138 
L 396.727345 -287.053382 
L 391.252449 -284.257626 
L 385.089142 -281.46187 
L 378.392024 -278.666114 
L 371.318384 -275.870359 
L 364.022425 -273.074603 
L 356.650129 -270.278847 
L 349.334994 -267.483091 
L 342.19477 -264.687335 
L 335.329274 -261.891579 
L 328.819273 -259.095824 
L 322.726358 -256.300068 
L 317.093703 -253.504312 
L 311.94754 -250.708556 
L 307.299167 -247.9128 
L 303.147301 -245.117044 
L 299.48059 -242.321288 
L 296.280115 -239.525533 
L 293.521738 -236.729777 
L 291.17819 -233.934021 
L 289.22081 -231.138265 
L 287.62092 -228.342509 
L 286.350791 -225.546753 
L 285.384256 -222.750998 
L 284.696979 -219.955242 
L 284.26646 -217.159486 
L 284.071822 -214.36373 
L 284.093457 -211.567974 
L 284.312596 -208.772218 
L 284.710843 -205.976463 
L 285.26975 -203.180707 
L 285.97043 -200.384951 
L 286.79327 -197.589195 
L 287.717734 -194.793439 
L 288.722265 -191.997683 
L 289.784301 -189.201927 
L 290.880374 -186.406172 
L 291.986309 -183.610416 
L 293.077502 -180.81466 
L 294.12927 -178.018904 
L 295.117264 -175.223148 
L 296.01794 -172.427392 
L 296.809073 -169.631637 
L 297.470302 -166.835881 
L 297.98369 -164.040125 
L 298.334268 -161.244369 
L 298.510556 -158.448613 
L 298.505005 -155.652857 
L 298.314352 -152.857102 
L 297.939844 -150.061346 
L 297.387305 -147.26559 
L 296.667032 -144.469834 
L 295.793505 -141.674078 
L 294.784918 -138.878322 
L 293.662544 -136.082567 
L 292.44996 -133.286811 
L 291.172177 -130.491055 
L 289.854724 -127.695299 
L 288.522719 -124.899543 
L 287.200013 -122.103787 
L 285.908413 -119.308031 
L 284.667062 -116.512276 
L 283.491973 -113.71652 
L 282.395748 -110.920764 
L 281.387479 -108.125008 
L 280.472818 -105.329252 
L 279.654201 -102.533496 
L 278.931186 -99.737741 
L 278.30088 -96.941985 
L 277.758416 -94.146229 
L 277.297446 -91.350473 
L 276.910622 -88.554717 
z
" style="stroke: #3f3f3f; stroke-width: 2.25"/>
    </defs>
    <g clip-path="url(#p770bea99b9)">
     <use xlink:href="#m093488b39b" x="0" y="432" style="fill: #3274a1; stroke: #3f3f3f; stroke-width: 2.25"/>
    </g>
   </g>
   <g id="PolyCollection_2">
    <defs>
     <path id="m3dbccce2eb" d="M 611.38389 -68.825455 
L 609.01611 -68.825455 
L 608.615022 -71.749117 
L 608.104558 -74.67278 
L 607.463367 -77.596443 
L 606.668159 -80.520106 
L 605.693995 -83.443769 
L 604.514667 -86.367432 
L 603.10317 -89.291095 
L 601.43224 -92.214757 
L 599.474987 -95.13842 
L 597.205617 -98.062083 
L 594.600266 -100.985746 
L 591.637969 -103.909409 
L 588.30178 -106.833072 
L 584.580066 -109.756735 
L 580.467943 -112.680398 
L 575.968839 -115.60406 
L 571.096085 -118.527723 
L 565.874443 -121.451386 
L 560.341395 -124.375049 
L 554.548053 -127.298712 
L 548.559498 -130.222375 
L 542.454403 -133.146038 
L 536.323827 -136.0697 
L 530.269136 -138.993363 
L 524.399075 -141.917026 
L 518.826104 -144.840689 
L 513.662192 -147.764352 
L 509.014317 -150.688015 
L 504.979955 -153.611678 
L 501.642879 -156.53534 
L 499.069541 -159.459003 
L 497.306283 -162.382666 
L 496.377558 -165.306329 
L 496.285264 -168.229992 
L 497.009209 -171.153655 
L 498.508642 -174.077318 
L 500.724735 -177.000981 
L 503.583808 -179.924643 
L 507.001093 -182.848306 
L 510.884767 -185.771969 
L 515.140011 -188.695632 
L 519.672839 -191.619295 
L 524.393483 -194.542958 
L 529.219144 -197.466621 
L 534.075978 -200.390283 
L 538.900246 -203.313946 
L 543.638622 -206.237609 
L 548.247729 -209.161272 
L 552.693036 -212.084935 
L 556.947302 -215.008598 
L 560.988809 -217.932261 
L 564.799622 -220.855923 
L 568.36411 -223.779586 
L 571.667928 -226.703249 
L 574.697574 -229.626912 
L 577.440578 -232.550575 
L 579.886257 -235.474238 
L 582.026908 -238.397901 
L 583.859236 -241.321564 
L 585.385762 -244.245226 
L 586.615972 -247.168889 
L 587.566975 -250.092552 
L 588.263541 -253.016215 
L 588.737424 -255.939878 
L 589.026031 -258.863541 
L 589.170548 -261.787204 
L 589.213739 -264.710866 
L 589.197645 -267.634529 
L 589.161458 -270.558192 
L 589.139778 -273.481855 
L 589.161407 -276.405518 
L 589.248776 -279.329181 
L 589.417958 -282.252844 
L 589.679211 -285.176506 
L 590.037846 -288.100169 
L 590.495279 -291.023832 
L 591.050046 -293.947495 
L 591.698651 -296.871158 
L 592.436139 -299.794821 
L 593.256373 -302.718484 
L 594.152042 -305.642147 
L 595.114495 -308.565809 
L 596.133505 -311.489472 
L 597.197091 -314.413135 
L 598.291504 -317.336798 
L 599.401425 -320.260461 
L 600.510411 -323.184124 
L 601.601544 -326.107787 
L 602.658229 -329.031449 
L 603.665038 -331.955112 
L 604.608507 -334.878775 
L 605.477789 -337.802438 
L 606.265108 -340.726101 
L 606.96596 -343.649764 
L 607.579068 -346.573427 
L 608.10612 -349.497089 
L 608.551323 -352.420752 
L 608.92085 -355.344415 
L 609.222233 -358.268078 
L 611.177767 -358.268078 
L 611.177767 -358.268078 
L 611.47915 -355.344415 
L 611.848677 -352.420752 
L 612.29388 -349.497089 
L 612.820932 -346.573427 
L 613.43404 -343.649764 
L 614.134892 -340.726101 
L 614.922211 -337.802438 
L 615.791493 -334.878775 
L 616.734962 -331.955112 
L 617.741771 -329.031449 
L 618.798456 -326.107787 
L 619.889589 -323.184124 
L 620.998575 -320.260461 
L 622.108496 -317.336798 
L 623.202909 -314.413135 
L 624.266495 -311.489472 
L 625.285505 -308.565809 
L 626.247958 -305.642147 
L 627.143627 -302.718484 
L 627.963861 -299.794821 
L 628.701349 -296.871158 
L 629.349954 -293.947495 
L 629.904721 -291.023832 
L 630.362154 -288.100169 
L 630.720789 -285.176506 
L 630.982042 -282.252844 
L 631.151224 -279.329181 
L 631.238593 -276.405518 
L 631.260222 -273.481855 
L 631.238542 -270.558192 
L 631.202355 -267.634529 
L 631.186261 -264.710866 
L 631.229452 -261.787204 
L 631.373969 -258.863541 
L 631.662576 -255.939878 
L 632.136459 -253.016215 
L 632.833025 -250.092552 
L 633.784028 -247.168889 
L 635.014238 -244.245226 
L 636.540764 -241.321564 
L 638.373092 -238.397901 
L 640.513743 -235.474238 
L 642.959422 -232.550575 
L 645.702426 -229.626912 
L 648.732072 -226.703249 
L 652.03589 -223.779586 
L 655.600378 -220.855923 
L 659.411191 -217.932261 
L 663.452698 -215.008598 
L 667.706964 -212.084935 
L 672.152271 -209.161272 
L 676.761378 -206.237609 
L 681.499754 -203.313946 
L 686.324022 -200.390283 
L 691.180856 -197.466621 
L 696.006517 -194.542958 
L 700.727161 -191.619295 
L 705.259989 -188.695632 
L 709.515233 -185.771969 
L 713.398907 -182.848306 
L 716.816192 -179.924643 
L 719.675265 -177.000981 
L 721.891358 -174.077318 
L 723.390791 -171.153655 
L 724.114736 -168.229992 
L 724.022442 -165.306329 
L 723.093717 -162.382666 
L 721.330459 -159.459003 
L 718.757121 -156.53534 
L 715.420045 -153.611678 
L 711.385683 -150.688015 
L 706.737808 -147.764352 
L 701.573896 -144.840689 
L 696.000925 -141.917026 
L 690.130864 -138.993363 
L 684.076173 -136.0697 
L 677.945597 -133.146038 
L 671.840502 -130.222375 
L 665.851947 -127.298712 
L 660.058605 -124.375049 
L 654.525557 -121.451386 
L 649.303915 -118.527723 
L 644.431161 -115.60406 
L 639.932057 -112.680398 
L 635.819934 -109.756735 
L 632.09822 -106.833072 
L 628.762031 -103.909409 
L 625.799734 -100.985746 
L 623.194383 -98.062083 
L 620.925013 -95.13842 
L 618.96776 -92.214757 
L 617.29683 -89.291095 
L 615.885333 -86.367432 
L 614.706005 -83.443769 
L 613.731841 -80.520106 
L 612.936633 -77.596443 
L 612.295442 -74.67278 
L 611.784978 -71.749117 
L 611.38389 -68.825455 
z
" style="stroke: #3f3f3f; stroke-width: 2.25"/>
    </defs>
    <g clip-path="url(#p770bea99b9)">
     <use xlink:href="#m3dbccce2eb" x="0" y="432" style="fill: #e1812c; stroke: #3f3f3f; stroke-width: 2.25"/>
    </g>
   </g>
   <g id="matplotlib.axis_1">
    <g id="xtick_1">
     <g id="line2d_1">
      <defs>
       <path id="md75b10ffb4" d="M 0 0 
L 0 9 
" style="stroke: #000000; stroke-width: 1.875"/>
      </defs>
      <g>
       <use xlink:href="#md75b10ffb4" x="275.4" y="378" style="stroke: #000000; stroke-width: 1.875"/>
      </g>
     </g>
     <g id="text_1">
      <!-- blocked -->
      <g transform="translate(243.494414 403.037422)scale(0.165 -0.165)">
       <defs>
        <path id="DejaVuSans-62" d="M 3116 1747 
Q 3116 2381 2855 2742 
Q 2594 3103 2138 3103 
Q 1681 3103 1420 2742 
Q 1159 2381 1159 1747 
Q 1159 1113 1420 752 
Q 1681 391 2138 391 
Q 2594 391 2855 752 
Q 3116 1113 3116 1747 
z
M 1159 2969 
Q 1341 3281 1617 3432 
Q 1894 3584 2278 3584 
Q 2916 3584 3314 3078 
Q 3713 2572 3713 1747 
Q 3713 922 3314 415 
Q 2916 -91 2278 -91 
Q 1894 -91 1617 61 
Q 1341 213 1159 525 
L 1159 0 
L 581 0 
L 581 4863 
L 1159 4863 
L 1159 2969 
z
" transform="scale(0.015625)"/>
        <path id="DejaVuSans-6c" d="M 603 4863 
L 1178 4863 
L 1178 0 
L 603 0 
L 603 4863 
z
" transform="scale(0.015625)"/>
        <path id="DejaVuSans-6f" d="M 1959 3097 
Q 1497 3097 1228 2736 
Q 959 2375 959 1747 
Q 959 1119 1226 758 
Q 1494 397 1959 397 
Q 2419 397 2687 759 
Q 2956 1122 2956 1747 
Q 2956 2369 2687 2733 
Q 2419 3097 1959 3097 
z
M 1959 3584 
Q 2709 3584 3137 3096 
Q 3566 2609 3566 1747 
Q 3566 888 3137 398 
Q 2709 -91 1959 -91 
Q 1206 -91 779 398 
Q 353 888 353 1747 
Q 353 2609 779 3096 
Q 1206 3584 1959 3584 
z
" transform="scale(0.015625)"/>
        <path id="DejaVuSans-63" d="M 3122 3366 
L 3122 2828 
Q 2878 2963 2633 3030 
Q 2388 3097 2138 3097 
Q 1578 3097 1268 2742 
Q 959 2388 959 1747 
Q 959 1106 1268 751 
Q 1578 397 2138 397 
Q 2388 397 2633 464 
Q 2878 531 3122 666 
L 3122 134 
Q 2881 22 2623 -34 
Q 2366 -91 2075 -91 
Q 1284 -91 818 406 
Q 353 903 353 1747 
Q 353 2603 823 3093 
Q 1294 3584 2113 3584 
Q 2378 3584 2631 3529 
Q 2884 3475 3122 3366 
z
" transform="scale(0.015625)"/>
        <path id="DejaVuSans-6b" d="M 581 4863 
L 1159 4863 
L 1159 1991 
L 2875 3500 
L 3609 3500 
L 1753 1863 
L 3688 0 
L 2938 0 
L 1159 1709 
L 1159 0 
L 581 0 
L 581 4863 
z
" transform="scale(0.015625)"/>
        <path id="DejaVuSans-65" d="M 3597 1894 
L 3597 1613 
L 953 1613 
Q 991 1019 1311 708 
Q 1631 397 2203 397 
Q 2534 397 2845 478 
Q 3156 559 3463 722 
L 3463 178 
Q 3153 47 2828 -22 
Q 2503 -91 2169 -91 
Q 1331 -91 842 396 
Q 353 884 353 1716 
Q 353 2575 817 3079 
Q 1281 3584 2069 3584 
Q 2775 3584 3186 3129 
Q 3597 2675 3597 1894 
z
M 3022 2063 
Q 3016 2534 2758 2815 
Q 2500 3097 2075 3097 
Q 1594 3097 1305 2825 
Q 1016 2553 972 2059 
L 3022 2063 
z
" transform="scale(0.015625)"/>
        <path id="DejaVuSans-64" d="M 2906 2969 
L 2906 4863 
L 3481 4863 
L 3481 0 
L 2906 0 
L 2906 525 
Q 2725 213 2448 61 
Q 2172 -91 1784 -91 
Q 1150 -91 751 415 
Q 353 922 353 1747 
Q 353 2572 751 3078 
Q 1150 3584 1784 3584 
Q 2172 3584 2448 3432 
Q 2725 3281 2906 2969 
z
M 947 1747 
Q 947 1113 1208 752 
Q 1469 391 1925 391 
Q 2381 391 2643 752 
Q 2906 1113 2906 1747 
Q 2906 2381 2643 2742 
Q 2381 3103 1925 3103 
Q 1469 3103 1208 2742 
Q 947 2381 947 1747 
z
" transform="scale(0.015625)"/>
       </defs>
       <use xlink:href="#DejaVuSans-62"/>
       <use xlink:href="#DejaVuSans-6c" x="63.476562"/>
       <use xlink:href="#DejaVuSans-6f" x="91.259766"/>
       <use xlink:href="#DejaVuSans-63" x="152.441406"/>
       <use xlink:href="#DejaVuSans-6b" x="207.421875"/>
       <use xlink:href="#DejaVuSans-65" x="261.707031"/>
       <use xlink:href="#DejaVuSans-64" x="323.230469"/>
      </g>
     </g>
    </g>
    <g id="xtick_2">
     <g id="line2d_2">
      <g>
       <use xlink:href="#md75b10ffb4" x="610.2" y="378" style="stroke: #000000; stroke-width: 1.875"/>
      </g>
     </g>
     <g id="text_2">
      <!-- interleaved -->
      <g transform="translate(563.356758 403.037422)scale(0.165 -0.165)">
       <defs>
        <path id="DejaVuSans-69" d="M 603 3500 
L 1178 3500 
L 1178 0 
L 603 0 
L 603 3500 
z
M 603 4863 
L 1178 4863 
L 1178 4134 
L 603 4134 
L 603 4863 
z
" transform="scale(0.015625)"/>
        <path id="DejaVuSans-6e" d="M 3513 2113 
L 3513 0 
L 2938 0 
L 2938 2094 
Q 2938 2591 2744 2837 
Q 2550 3084 2163 3084 
Q 1697 3084 1428 2787 
Q 1159 2491 1159 1978 
L 1159 0 
L 581 0 
L 581 3500 
L 1159 3500 
L 1159 2956 
Q 1366 3272 1645 3428 
Q 1925 3584 2291 3584 
Q 2894 3584 3203 3211 
Q 3513 2838 3513 2113 
z
" transform="scale(0.015625)"/>
        <path id="DejaVuSans-74" d="M 1172 4494 
L 1172 3500 
L 2356 3500 
L 2356 3053 
L 1172 3053 
L 1172 1153 
Q 1172 725 1289 603 
Q 1406 481 1766 481 
L 2356 481 
L 2356 0 
L 1766 0 
Q 1100 0 847 248 
Q 594 497 594 1153 
L 594 3053 
L 172 3053 
L 172 3500 
L 594 3500 
L 594 4494 
L 1172 4494 
z
" transform="scale(0.015625)"/>
        <path id="DejaVuSans-72" d="M 2631 2963 
Q 2534 3019 2420 3045 
Q 2306 3072 2169 3072 
Q 1681 3072 1420 2755 
Q 1159 2438 1159 1844 
L 1159 0 
L 581 0 
L 581 3500 
L 1159 3500 
L 1159 2956 
Q 1341 3275 1631 3429 
Q 1922 3584 2338 3584 
Q 2397 3584 2469 3576 
Q 2541 3569 2628 3553 
L 2631 2963 
z
" transform="scale(0.015625)"/>
        <path id="DejaVuSans-61" d="M 2194 1759 
Q 1497 1759 1228 1600 
Q 959 1441 959 1056 
Q 959 750 1161 570 
Q 1363 391 1709 391 
Q 2188 391 2477 730 
Q 2766 1069 2766 1631 
L 2766 1759 
L 2194 1759 
z
M 3341 1997 
L 3341 0 
L 2766 0 
L 2766 531 
Q 2569 213 2275 61 
Q 1981 -91 1556 -91 
Q 1019 -91 701 211 
Q 384 513 384 1019 
Q 384 1609 779 1909 
Q 1175 2209 1959 2209 
L 2766 2209 
L 2766 2266 
Q 2766 2663 2505 2880 
Q 2244 3097 1772 3097 
Q 1472 3097 1187 3025 
Q 903 2953 641 2809 
L 641 3341 
Q 956 3463 1253 3523 
Q 1550 3584 1831 3584 
Q 2591 3584 2966 3190 
Q 3341 2797 3341 1997 
z
" transform="scale(0.015625)"/>
        <path id="DejaVuSans-76" d="M 191 3500 
L 800 3500 
L 1894 563 
L 2988 3500 
L 3597 3500 
L 2284 0 
L 1503 0 
L 191 3500 
z
" transform="scale(0.015625)"/>
       </defs>
       <use xlink:href="#DejaVuSans-69"/>
       <use xlink:href="#DejaVuSans-6e" x="27.783203"/>
       <use xlink:href="#DejaVuSans-74" x="91.162109"/>
       <use xlink:href="#DejaVuSans-65" x="130.371094"/>
       <use xlink:href="#DejaVuSans-72" x="191.894531"/>
       <use xlink:href="#DejaVuSans-6c" x="233.007812"/>
       <use xlink:href="#DejaVuSans-65" x="260.791016"/>
       <use xlink:href="#DejaVuSans-61" x="322.314453"/>
       <use xlink:href="#DejaVuSans-76" x="383.59375"/>
       <use xlink:href="#DejaVuSans-65" x="442.773438"/>
       <use xlink:href="#DejaVuSans-64" x="504.296875"/>
      </g>
     </g>
    </g>
    <g id="text_3">
     <!-- condition -->
     <g transform="translate(401.187656 424.146094)scale(0.18 -0.18)">
      <use xlink:href="#DejaVuSans-63"/>
      <use xlink:href="#DejaVuSans-6f" x="54.980469"/>
      <use xlink:href="#DejaVuSans-6e" x="116.162109"/>
      <use xlink:href="#DejaVuSans-64" x="179.541016"/>
      <use xlink:href="#DejaVuSans-69" x="243.017578"/>
      <use xlink:href="#DejaVuSans-74" x="270.800781"/>
      <use xlink:href="#DejaVuSans-69" x="310.009766"/>
      <use xlink:href="#DejaVuSans-6f" x="337.792969"/>
      <use xlink:href="#DejaVuSans-6e" x="398.974609"/>
     </g>
    </g>
   </g>
   <g id="matplotlib.axis_2">
    <g id="ytick_1">
     <g id="line2d_3">
      <defs>
       <path id="mb580a40577" d="M 0 0 
L -9 0 
" style="stroke: #000000; stroke-width: 1.875"/>
      </defs>
      <g>
       <use xlink:href="#mb580a40577" x="108" y="367.973407" style="stroke: #000000; stroke-width: 1.875"/>
      </g>
     </g>
     <g id="text_4">
      <!-- 0.2 -->
      <g transform="translate(69.259844 374.242118)scale(0.165 -0.165)">
       <defs>
        <path id="DejaVuSans-30" d="M 2034 4250 
Q 1547 4250 1301 3770 
Q 1056 3291 1056 2328 
Q 1056 1369 1301 889 
Q 1547 409 2034 409 
Q 2525 409 2770 889 
Q 3016 1369 3016 2328 
Q 3016 3291 2770 3770 
Q 2525 4250 2034 4250 
z
M 2034 4750 
Q 2819 4750 3233 4129 
Q 3647 3509 3647 2328 
Q 3647 1150 3233 529 
Q 2819 -91 2034 -91 
Q 1250 -91 836 529 
Q 422 1150 422 2328 
Q 422 3509 836 4129 
Q 1250 4750 2034 4750 
z
" transform="scale(0.015625)"/>
        <path id="DejaVuSans-2e" d="M 684 794 
L 1344 794 
L 1344 0 
L 684 0 
L 684 794 
z
" transform="scale(0.015625)"/>
        <path id="DejaVuSans-32" d="M 1228 531 
L 3431 531 
L 3431 0 
L 469 0 
L 469 531 
Q 828 903 1448 1529 
Q 2069 2156 2228 2338 
Q 2531 2678 2651 2914 
Q 2772 3150 2772 3378 
Q 2772 3750 2511 3984 
Q 2250 4219 1831 4219 
Q 1534 4219 1204 4116 
Q 875 4013 500 3803 
L 500 4441 
Q 881 4594 1212 4672 
Q 1544 4750 1819 4750 
Q 2544 4750 2975 4387 
Q 3406 4025 3406 3419 
Q 3406 3131 3298 2873 
Q 3191 2616 2906 2266 
Q 2828 2175 2409 1742 
Q 1991 1309 1228 531 
z
" transform="scale(0.015625)"/>
       </defs>
       <use xlink:href="#DejaVuSans-30"/>
       <use xlink:href="#DejaVuSans-2e" x="63.623047"/>
       <use xlink:href="#DejaVuSans-32" x="95.410156"/>
      </g>
     </g>
    </g>
    <g id="ytick_2">
     <g id="line2d_4">
      <g>
       <use xlink:href="#mb580a40577" x="108" y="305.807314" style="stroke: #000000; stroke-width: 1.875"/>
      </g>
     </g>
     <g id="text_5">
      <!-- 0.4 -->
      <g transform="translate(69.259844 312.076025)scale(0.165 -0.165)">
       <defs>
        <path id="DejaVuSans-34" d="M 2419 4116 
L 825 1625 
L 2419 1625 
L 2419 4116 
z
M 2253 4666 
L 3047 4666 
L 3047 1625 
L 3713 1625 
L 3713 1100 
L 3047 1100 
L 3047 0 
L 2419 0 
L 2419 1100 
L 313 1100 
L 313 1709 
L 2253 4666 
z
" transform="scale(0.015625)"/>
       </defs>
       <use xlink:href="#DejaVuSans-30"/>
       <use xlink:href="#DejaVuSans-2e" x="63.623047"/>
       <use xlink:href="#DejaVuSans-34" x="95.410156"/>
      </g>
     </g>
    </g>
    <g id="ytick_3">
     <g id="line2d_5">
      <g>
       <use xlink:href="#mb580a40577" x="108" y="243.64122" style="stroke: #000000; stroke-width: 1.875"/>
      </g>
     </g>
     <g id="text_6">
      <!-- 0.6 -->
      <g transform="translate(69.259844 249.909931)scale(0.165 -0.165)">
       <defs>
        <path id="DejaVuSans-36" d="M 2113 2584 
Q 1688 2584 1439 2293 
Q 1191 2003 1191 1497 
Q 1191 994 1439 701 
Q 1688 409 2113 409 
Q 2538 409 2786 701 
Q 3034 994 3034 1497 
Q 3034 2003 2786 2293 
Q 2538 2584 2113 2584 
z
M 3366 4563 
L 3366 3988 
Q 3128 4100 2886 4159 
Q 2644 4219 2406 4219 
Q 1781 4219 1451 3797 
Q 1122 3375 1075 2522 
Q 1259 2794 1537 2939 
Q 1816 3084 2150 3084 
Q 2853 3084 3261 2657 
Q 3669 2231 3669 1497 
Q 3669 778 3244 343 
Q 2819 -91 2113 -91 
Q 1303 -91 875 529 
Q 447 1150 447 2328 
Q 447 3434 972 4092 
Q 1497 4750 2381 4750 
Q 2619 4750 2861 4703 
Q 3103 4656 3366 4563 
z
" transform="scale(0.015625)"/>
       </defs>
       <use xlink:href="#DejaVuSans-30"/>
       <use xlink:href="#DejaVuSans-2e" x="63.623047"/>
       <use xlink:href="#DejaVuSans-36" x="95.410156"/>
      </g>
     </g>
    </g>
    <g id="ytick_4">
     <g id="line2d_6">
      <g>
       <use xlink:href="#mb580a40577" x="108" y="181.475126" style="stroke: #000000; stroke-width: 1.875"/>
      </g>
     </g>
     <g id="text_7">
      <!-- 0.8 -->
      <g transform="translate(69.259844 187.743837)scale(0.165 -0.165)">
       <defs>
        <path id="DejaVuSans-38" d="M 2034 2216 
Q 1584 2216 1326 1975 
Q 1069 1734 1069 1313 
Q 1069 891 1326 650 
Q 1584 409 2034 409 
Q 2484 409 2743 651 
Q 3003 894 3003 1313 
Q 3003 1734 2745 1975 
Q 2488 2216 2034 2216 
z
M 1403 2484 
Q 997 2584 770 2862 
Q 544 3141 544 3541 
Q 544 4100 942 4425 
Q 1341 4750 2034 4750 
Q 2731 4750 3128 4425 
Q 3525 4100 3525 3541 
Q 3525 3141 3298 2862 
Q 3072 2584 2669 2484 
Q 3125 2378 3379 2068 
Q 3634 1759 3634 1313 
Q 3634 634 3220 271 
Q 2806 -91 2034 -91 
Q 1263 -91 848 271 
Q 434 634 434 1313 
Q 434 1759 690 2068 
Q 947 2378 1403 2484 
z
M 1172 3481 
Q 1172 3119 1398 2916 
Q 1625 2713 2034 2713 
Q 2441 2713 2670 2916 
Q 2900 3119 2900 3481 
Q 2900 3844 2670 4047 
Q 2441 4250 2034 4250 
Q 1625 4250 1398 4047 
Q 1172 3844 1172 3481 
z
" transform="scale(0.015625)"/>
       </defs>
       <use xlink:href="#DejaVuSans-30"/>
       <use xlink:href="#DejaVuSans-2e" x="63.623047"/>
       <use xlink:href="#DejaVuSans-38" x="95.410156"/>
      </g>
     </g>
    </g>
    <g id="ytick_5">
     <g id="line2d_7">
      <g>
       <use xlink:href="#mb580a40577" x="108" y="119.309032" style="stroke: #000000; stroke-width: 1.875"/>
      </g>
     </g>
     <g id="text_8">
      <!-- 1.0 -->
      <g transform="translate(69.259844 125.577743)scale(0.165 -0.165)">
       <defs>
        <path id="DejaVuSans-31" d="M 794 531 
L 1825 531 
L 1825 4091 
L 703 3866 
L 703 4441 
L 1819 4666 
L 2450 4666 
L 2450 531 
L 3481 531 
L 3481 0 
L 794 0 
L 794 531 
z
" transform="scale(0.015625)"/>
       </defs>
       <use xlink:href="#DejaVuSans-31"/>
       <use xlink:href="#DejaVuSans-2e" x="63.623047"/>
       <use xlink:href="#DejaVuSans-30" x="95.410156"/>
      </g>
     </g>
    </g>
    <g id="ytick_6">
     <g id="line2d_8">
      <g>
       <use xlink:href="#mb580a40577" x="108" y="57.142939" style="stroke: #000000; stroke-width: 1.875"/>
      </g>
     </g>
     <g id="text_9">
      <!-- 1.2 -->
      <g transform="translate(69.259844 63.41165)scale(0.165 -0.165)">
       <use xlink:href="#DejaVuSans-31"/>
       <use xlink:href="#DejaVuSans-2e" x="63.623047"/>
       <use xlink:href="#DejaVuSans-32" x="95.410156"/>
      </g>
     </g>
    </g>
    <g id="text_10">
     <!-- prediction accuracy -->
     <g transform="translate(61.516406 303.537656)rotate(-90)scale(0.18 -0.18)">
      <defs>
       <path id="DejaVuSans-70" d="M 1159 525 
L 1159 -1331 
L 581 -1331 
L 581 3500 
L 1159 3500 
L 1159 2969 
Q 1341 3281 1617 3432 
Q 1894 3584 2278 3584 
Q 2916 3584 3314 3078 
Q 3713 2572 3713 1747 
Q 3713 922 3314 415 
Q 2916 -91 2278 -91 
Q 1894 -91 1617 61 
Q 1341 213 1159 525 
z
M 3116 1747 
Q 3116 2381 2855 2742 
Q 2594 3103 2138 3103 
Q 1681 3103 1420 2742 
Q 1159 2381 1159 1747 
Q 1159 1113 1420 752 
Q 1681 391 2138 391 
Q 2594 391 2855 752 
Q 3116 1113 3116 1747 
z
" transform="scale(0.015625)"/>
       <path id="DejaVuSans-20" transform="scale(0.015625)"/>
       <path id="DejaVuSans-75" d="M 544 1381 
L 544 3500 
L 1119 3500 
L 1119 1403 
Q 1119 906 1312 657 
Q 1506 409 1894 409 
Q 2359 409 2629 706 
Q 2900 1003 2900 1516 
L 2900 3500 
L 3475 3500 
L 3475 0 
L 2900 0 
L 2900 538 
Q 2691 219 2414 64 
Q 2138 -91 1772 -91 
Q 1169 -91 856 284 
Q 544 659 544 1381 
z
M 1991 3584 
L 1991 3584 
z
" transform="scale(0.015625)"/>
       <path id="DejaVuSans-79" d="M 2059 -325 
Q 1816 -950 1584 -1140 
Q 1353 -1331 966 -1331 
L 506 -1331 
L 506 -850 
L 844 -850 
Q 1081 -850 1212 -737 
Q 1344 -625 1503 -206 
L 1606 56 
L 191 3500 
L 800 3500 
L 1894 763 
L 2988 3500 
L 3597 3500 
L 2059 -325 
z
" transform="scale(0.015625)"/>
      </defs>
      <use xlink:href="#DejaVuSans-70"/>
      <use xlink:href="#DejaVuSans-72" x="63.476562"/>
      <use xlink:href="#DejaVuSans-65" x="102.339844"/>
      <use xlink:href="#DejaVuSans-64" x="163.863281"/>
      <use xlink:href="#DejaVuSans-69" x="227.339844"/>
      <use xlink:href="#DejaVuSans-63" x="255.123047"/>
      <use xlink:href="#DejaVuSans-74" x="310.103516"/>
      <use xlink:href="#DejaVuSans-69" x="349.3125"/>
      <use xlink:href="#DejaVuSans-6f" x="377.095703"/>
      <use xlink:href="#DejaVuSans-6e" x="438.277344"/>
      <use xlink:href="#DejaVuSans-20" x="501.65625"/>
      <use xlink:href="#DejaVuSans-61" x="533.443359"/>
      <use xlink:href="#DejaVuSans-63" x="594.722656"/>
      <use xlink:href="#DejaVuSans-63" x="649.703125"/>
      <use xlink:href="#DejaVuSans-75" x="704.683594"/>
      <use xlink:href="#DejaVuSans-72" x="768.0625"/>
      <use xlink:href="#DejaVuSans-61" x="809.175781"/>
      <use xlink:href="#DejaVuSans-63" x="870.455078"/>
      <use xlink:href="#DejaVuSans-79" x="925.435547"/>
     </g>
    </g>
   </g>
   <g id="line2d_9">
    <path d="M 275.4 185.551591 
L 275.4 119.309032 
" clip-path="url(#p770bea99b9)" style="fill: none; stroke: #3f3f3f; stroke-width: 2.25; stroke-linecap: square"/>
   </g>
   <g id="line2d_10">
    <path d="M 275.4 149.882521 
L 275.4 124.48954 
" clip-path="url(#p770bea99b9)" style="fill: none; stroke: #3f3f3f; stroke-width: 6.75; stroke-linecap: square"/>
   </g>
   <g id="line2d_11">
    <path d="M 610.2 317.597435 
L 610.2 160.073684 
" clip-path="url(#p770bea99b9)" style="fill: none; stroke: #3f3f3f; stroke-width: 2.25; stroke-linecap: square"/>
   </g>
   <g id="line2d_12">
    <path d="M 610.2 275.998162 
L 610.2 228.951889 
" clip-path="url(#p770bea99b9)" style="fill: none; stroke: #3f3f3f; stroke-width: 6.75; stroke-linecap: square"/>
   </g>
   <g id="patch_3">
    <path d="M 108 378 
L 108 51.84 
" style="fill: none; stroke: #000000; stroke-width: 1.875; stroke-linejoin: miter; stroke-linecap: square"/>
   </g>
   <g id="patch_4">
    <path d="M 777.6 378 
L 777.6 51.84 
" style="fill: none; stroke: #000000; stroke-width: 1.875; stroke-linejoin: miter; stroke-linecap: square"/>
   </g>
   <g id="patch_5">
    <path d="M 108 378 
L 777.6 378 
" style="fill: none; stroke: #000000; stroke-width: 1.875; stroke-linejoin: miter; stroke-linecap: square"/>
   </g>
   <g id="patch_6">
    <path d="M 108 51.84 
L 777.6 51.84 
" style="fill: none; stroke: #000000; stroke-width: 1.875; stroke-linejoin: miter; stroke-linecap: square"/>
   </g>
   <g id="PathCollection_1">
    <defs>
     <path id="md476c703f5" d="M 0 2.25 
C 0.596707 2.25 1.169055 2.012926 1.59099 1.59099 
C 2.012926 1.169055 2.25 0.596707 2.25 0 
C 2.25 -0.596707 2.012926 -1.169055 1.59099 -1.59099 
C 1.169055 -2.012926 0.596707 -2.25 0 -2.25 
C -0.596707 -2.25 -1.169055 -2.012926 -1.59099 -1.59099 
C -2.012926 -1.169055 -2.25 -0.596707 -2.25 0 
C -2.25 0.596707 -2.012926 1.169055 -1.59099 1.59099 
C -1.169055 2.012926 -0.596707 2.25 0 2.25 
z
" style="stroke: #3f3f3f; stroke-width: 1.5"/>
    </defs>
    <g clip-path="url(#p770bea99b9)">
     <use xlink:href="#md476c703f5" x="275.4" y="133.655054" style="fill: #ffffff; stroke: #3f3f3f; stroke-width: 1.5"/>
    </g>
   </g>
   <g id="PathCollection_2">
    <g clip-path="url(#p770bea99b9)">
     <use xlink:href="#md476c703f5" x="610.2" y="260.062452" style="fill: #ffffff; stroke: #3f3f3f; stroke-width: 1.5"/>
    </g>
   </g>
  </g>
 </g>
 <defs>
  <clipPath id="p770bea99b9">
   <rect x="108" y="51.84" width="669.6" height="326.16"/>
  </clipPath>
 </defs>
</svg>
