<?xml version="1.0" encoding="utf-8" standalone="no"?>
<!DOCTYPE svg PUBLIC "-//W3C//DTD SVG 1.1//EN"
  "http://www.w3.org/Graphics/SVG/1.1/DTD/svg11.dtd">
<!-- Created with matplotlib (https://matplotlib.org/) -->
<svg height="432pt" version="1.1" viewBox="0 0 864 432" width="864pt" xmlns="http://www.w3.org/2000/svg" xmlns:xlink="http://www.w3.org/1999/xlink">
 <metadata>
  <rdf:RDF xmlns:cc="http://creativecommons.org/ns#" xmlns:dc="http://purl.org/dc/elements/1.1/" xmlns:rdf="http://www.w3.org/1999/02/22-rdf-syntax-ns#">
   <cc:Work>
    <dc:type rdf:resource="http://purl.org/dc/dcmitype/StillImage"/>
    <dc:date>2023-04-16T12:02:45.682276</dc:date>
    <dc:format>image/svg+xml</dc:format>
    <dc:creator>
     <cc:Agent>
      <dc:title>Matplotlib v3.3.4, https://matplotlib.org/</dc:title>
     </cc:Agent>
    </dc:creator>
   </cc:Work>
  </rdf:RDF>
 </metadata>
 <defs>
  <style type="text/css">*{stroke-linecap:butt;stroke-linejoin:round;}</style>
 </defs>
 <g id="figure_1">
  <g id="patch_1">
   <path d="M 0 432 
L 864 432 
L 864 0 
L 0 0 
z
" style="fill:none;"/>
  </g>
  <g id="axes_1">
   <g id="patch_2">
    <path d="M 108 378 
L 777.6 378 
L 777.6 51.84 
L 108 51.84 
z
" style="fill:#ffffff;"/>
   </g>
   <g id="PolyCollection_1">
    <defs>
     <path d="M 220.387127 -109.172858 
L 218.812873 -109.172858 
L 218.622601 -111.51975 
L 218.401227 -113.866642 
L 218.147737 -116.213535 
L 217.862183 -118.560427 
L 217.54589 -120.907319 
L 217.201624 -123.254212 
L 216.83368 -125.601104 
L 216.44788 -127.947996 
L 216.051462 -130.294889 
L 215.652844 -132.641781 
L 215.261269 -134.988673 
L 214.886339 -137.335566 
L 214.537459 -139.682458 
L 214.223222 -142.02935 
L 213.950782 -144.376243 
L 213.725262 -146.723135 
L 213.549236 -149.070027 
L 213.422353 -151.41692 
L 213.341124 -153.763812 
L 213.298921 -156.110704 
L 213.286179 -158.457597 
L 213.290837 -160.804489 
L 213.298965 -163.151381 
L 213.295563 -165.498274 
L 213.265488 -167.845166 
L 213.194435 -170.192058 
L 213.069917 -172.538951 
L 212.882162 -174.885843 
L 212.624878 -177.232735 
L 212.295804 -179.579628 
L 211.897003 -181.92652 
L 211.43487 -184.273412 
L 210.919831 -186.620305 
L 210.365734 -188.967197 
L 209.788971 -191.31409 
L 209.207376 -193.660982 
L 208.638959 -196.007874 
L 208.100575 -198.354767 
L 207.606607 -200.701659 
L 207.167773 -203.048551 
L 206.790123 -205.395444 
L 206.474326 -207.742336 
L 206.215277 -210.089228 
L 206.002067 -212.436121 
L 205.818294 -214.783013 
L 205.64269 -217.129905 
L 205.450004 -219.476798 
L 205.212045 -221.82369 
L 204.898806 -224.170582 
L 204.479569 -226.517475 
L 203.9239 -228.864367 
L 203.202485 -231.211259 
L 202.287759 -233.558152 
L 201.154345 -235.905044 
L 199.779321 -238.251936 
L 198.142402 -240.598829 
L 196.226107 -242.945721 
L 194.016035 -245.292613 
L 191.501335 -247.639506 
L 188.67545 -249.986398 
L 185.537185 -252.33329 
L 182.092075 -254.680183 
L 178.354014 -257.027075 
L 174.346993 -259.373967 
L 170.106794 -261.72086 
L 165.682401 -264.067752 
L 161.1369 -266.414644 
L 156.547646 -268.761537 
L 152.005473 -271.108429 
L 147.61285 -273.455321 
L 143.480913 -275.802214 
L 139.725451 -278.149106 
L 136.462009 -280.495998 
L 133.800398 -282.842891 
L 131.838964 -285.189783 
L 130.659037 -287.536675 
L 130.32 -289.883568 
L 130.855382 -292.23046 
L 132.270309 -294.577352 
L 134.540558 -296.924245 
L 137.613314 -299.271137 
L 141.40959 -301.618029 
L 145.828143 -303.964922 
L 150.750589 -306.311814 
L 156.047321 -308.658706 
L 161.583815 -311.005599 
L 167.226849 -313.352491 
L 172.850242 -315.699383 
L 178.339757 -318.046276 
L 183.596906 -320.393168 
L 188.541523 -322.74006 
L 193.113055 -325.086953 
L 197.270649 -327.433845 
L 200.992166 -329.780737 
L 204.272351 -332.12763 
L 207.120386 -334.474522 
L 209.55709 -336.821415 
L 211.611984 -339.168307 
L 213.320456 -341.515199 
L 225.879544 -341.515199 
L 225.879544 -341.515199 
L 227.588016 -339.168307 
L 229.64291 -336.821415 
L 232.079614 -334.474522 
L 234.927649 -332.12763 
L 238.207834 -329.780737 
L 241.929351 -327.433845 
L 246.086945 -325.086953 
L 250.658477 -322.74006 
L 255.603094 -320.393168 
L 260.860243 -318.046276 
L 266.349758 -315.699383 
L 271.973151 -313.352491 
L 277.616185 -311.005599 
L 283.152679 -308.658706 
L 288.449411 -306.311814 
L 293.371857 -303.964922 
L 297.79041 -301.618029 
L 301.586686 -299.271137 
L 304.659442 -296.924245 
L 306.929691 -294.577352 
L 308.344618 -292.23046 
L 308.88 -289.883568 
L 308.540963 -287.536675 
L 307.361036 -285.189783 
L 305.399602 -282.842891 
L 302.737991 -280.495998 
L 299.474549 -278.149106 
L 295.719087 -275.802214 
L 291.58715 -273.455321 
L 287.194527 -271.108429 
L 282.652354 -268.761537 
L 278.0631 -266.414644 
L 273.517599 -264.067752 
L 269.093206 -261.72086 
L 264.853007 -259.373967 
L 260.845986 -257.027075 
L 257.107925 -254.680183 
L 253.662815 -252.33329 
L 250.52455 -249.986398 
L 247.698665 -247.639506 
L 245.183965 -245.292613 
L 242.973893 -242.945721 
L 241.057598 -240.598829 
L 239.420679 -238.251936 
L 238.045655 -235.905044 
L 236.912241 -233.558152 
L 235.997515 -231.211259 
L 235.2761 -228.864367 
L 234.720431 -226.517475 
L 234.301194 -224.170582 
L 233.987955 -221.82369 
L 233.749996 -219.476798 
L 233.55731 -217.129905 
L 233.381706 -214.783013 
L 233.197933 -212.436121 
L 232.984723 -210.089228 
L 232.725674 -207.742336 
L 232.409877 -205.395444 
L 232.032227 -203.048551 
L 231.593393 -200.701659 
L 231.099425 -198.354767 
L 230.561041 -196.007874 
L 229.992624 -193.660982 
L 229.411029 -191.31409 
L 228.834266 -188.967197 
L 228.280169 -186.620305 
L 227.76513 -184.273412 
L 227.302997 -181.92652 
L 226.904196 -179.579628 
L 226.575122 -177.232735 
L 226.317838 -174.885843 
L 226.130083 -172.538951 
L 226.005565 -170.192058 
L 225.934512 -167.845166 
L 225.904437 -165.498274 
L 225.901035 -163.151381 
L 225.909163 -160.804489 
L 225.913821 -158.457597 
L 225.901079 -156.110704 
L 225.858876 -153.763812 
L 225.777647 -151.41692 
L 225.650764 -149.070027 
L 225.474738 -146.723135 
L 225.249218 -144.376243 
L 224.976778 -142.02935 
L 224.662541 -139.682458 
L 224.313661 -137.335566 
L 223.938731 -134.988673 
L 223.547156 -132.641781 
L 223.148538 -130.294889 
L 222.75212 -127.947996 
L 222.36632 -125.601104 
L 221.998376 -123.254212 
L 221.65411 -120.907319 
L 221.337817 -118.560427 
L 221.052263 -116.213535 
L 220.798773 -113.866642 
L 220.577399 -111.51975 
L 220.387127 -109.172858 
z
" id="m8f3087cd6d" style="stroke:#3d3d3d;stroke-width:2.25;"/>
    </defs>
    <g clip-path="url(#pc24d450092)">
     <use style="fill:#3274a1;stroke:#3d3d3d;stroke-width:2.25;" x="0" xlink:href="#m8f3087cd6d" y="432"/>
    </g>
   </g>
   <g id="PolyCollection_2">
    <defs>
     <path d="M 444.336017 -78.181117 
L 441.263983 -78.181117 
L 440.913159 -81.07163 
L 440.498428 -83.962144 
L 440.01213 -86.852657 
L 439.446578 -89.74317 
L 438.794283 -92.633683 
L 438.0482 -95.524197 
L 437.202022 -98.41471 
L 436.250487 -101.305223 
L 435.189703 -104.195736 
L 434.01748 -107.086249 
L 432.733646 -109.976763 
L 431.340342 -112.867276 
L 429.842275 -115.757789 
L 428.246913 -118.648302 
L 426.564605 -121.538816 
L 424.808618 -124.429329 
L 422.995075 -127.319842 
L 421.142787 -130.210355 
L 419.272979 -133.100869 
L 417.408905 -135.991382 
L 415.575375 -138.881895 
L 413.798178 -141.772408 
L 412.103451 -144.662921 
L 410.516983 -147.553435 
L 409.063507 -150.443948 
L 407.765985 -153.334461 
L 406.644917 -156.224974 
L 405.717713 -159.115488 
L 404.99814 -162.006001 
L 404.495862 -164.896514 
L 404.216103 -167.787027 
L 404.159443 -170.677541 
L 404.321737 -173.568054 
L 404.694185 -176.458567 
L 405.263523 -179.34908 
L 406.012349 -182.239594 
L 406.919551 -185.130107 
L 407.960835 -188.02062 
L 409.109329 -190.911133 
L 410.336241 -193.801646 
L 411.611555 -196.69216 
L 412.904745 -199.582673 
L 414.185481 -202.473186 
L 415.424325 -205.363699 
L 416.593385 -208.254213 
L 417.666926 -211.144726 
L 418.621923 -214.035239 
L 419.438546 -216.925752 
L 420.100572 -219.816266 
L 420.595714 -222.706779 
L 420.91587 -225.597292 
L 421.057279 -228.487805 
L 421.020584 -231.378319 
L 420.81081 -234.268832 
L 420.437242 -237.159345 
L 419.913209 -240.049858 
L 419.255782 -242.940371 
L 418.485385 -245.830885 
L 417.625321 -248.721398 
L 416.701232 -251.611911 
L 415.740487 -254.502424 
L 414.771535 -257.392938 
L 413.823206 -260.283451 
L 412.924012 -263.173964 
L 412.101434 -266.064477 
L 411.381241 -268.954991 
L 410.78684 -271.845504 
L 410.338696 -274.736017 
L 410.053821 -277.62653 
L 409.945373 -280.517044 
L 410.022346 -283.407557 
L 410.289405 -286.29807 
L 410.746825 -289.188583 
L 411.39058 -292.079096 
L 412.212542 -294.96961 
L 413.200815 -297.860123 
L 414.340159 -300.750636 
L 415.612522 -303.641149 
L 416.99762 -306.531663 
L 418.473587 -309.422176 
L 420.017626 -312.312689 
L 421.60667 -315.203202 
L 423.21801 -318.093716 
L 424.829881 -320.984229 
L 426.421967 -323.874742 
L 427.975842 -326.765255 
L 429.475298 -329.655769 
L 430.90659 -332.546282 
L 432.258566 -335.436795 
L 433.522715 -338.327308 
L 434.693114 -341.217821 
L 435.766299 -344.108335 
L 436.741076 -346.998848 
L 437.618271 -349.889361 
L 438.400455 -352.779874 
L 439.091643 -355.670388 
L 439.696989 -358.560901 
L 440.222487 -361.451414 
L 440.674688 -364.341927 
L 444.925312 -364.341927 
L 444.925312 -364.341927 
L 445.377513 -361.451414 
L 445.903011 -358.560901 
L 446.508357 -355.670388 
L 447.199545 -352.779874 
L 447.981729 -349.889361 
L 448.858924 -346.998848 
L 449.833701 -344.108335 
L 450.906886 -341.217821 
L 452.077285 -338.327308 
L 453.341434 -335.436795 
L 454.69341 -332.546282 
L 456.124702 -329.655769 
L 457.624158 -326.765255 
L 459.178033 -323.874742 
L 460.770119 -320.984229 
L 462.38199 -318.093716 
L 463.99333 -315.203202 
L 465.582374 -312.312689 
L 467.126413 -309.422176 
L 468.60238 -306.531663 
L 469.987478 -303.641149 
L 471.259841 -300.750636 
L 472.399185 -297.860123 
L 473.387458 -294.96961 
L 474.20942 -292.079096 
L 474.853175 -289.188583 
L 475.310595 -286.29807 
L 475.577654 -283.407557 
L 475.654627 -280.517044 
L 475.546179 -277.62653 
L 475.261304 -274.736017 
L 474.81316 -271.845504 
L 474.218759 -268.954991 
L 473.498566 -266.064477 
L 472.675988 -263.173964 
L 471.776794 -260.283451 
L 470.828465 -257.392938 
L 469.859513 -254.502424 
L 468.898768 -251.611911 
L 467.974679 -248.721398 
L 467.114615 -245.830885 
L 466.344218 -242.940371 
L 465.686791 -240.049858 
L 465.162758 -237.159345 
L 464.78919 -234.268832 
L 464.579416 -231.378319 
L 464.542721 -228.487805 
L 464.68413 -225.597292 
L 465.004286 -222.706779 
L 465.499428 -219.816266 
L 466.161454 -216.925752 
L 466.978077 -214.035239 
L 467.933074 -211.144726 
L 469.006615 -208.254213 
L 470.175675 -205.363699 
L 471.414519 -202.473186 
L 472.695255 -199.582673 
L 473.988445 -196.69216 
L 475.263759 -193.801646 
L 476.490671 -190.911133 
L 477.639165 -188.02062 
L 478.680449 -185.130107 
L 479.587651 -182.239594 
L 480.336477 -179.34908 
L 480.905815 -176.458567 
L 481.278263 -173.568054 
L 481.440557 -170.677541 
L 481.383897 -167.787027 
L 481.104138 -164.896514 
L 480.60186 -162.006001 
L 479.882287 -159.115488 
L 478.955083 -156.224974 
L 477.834015 -153.334461 
L 476.536493 -150.443948 
L 475.083017 -147.553435 
L 473.496549 -144.662921 
L 471.801822 -141.772408 
L 470.024625 -138.881895 
L 468.191095 -135.991382 
L 466.327021 -133.100869 
L 464.457213 -130.210355 
L 462.604925 -127.319842 
L 460.791382 -124.429329 
L 459.035395 -121.538816 
L 457.353087 -118.648302 
L 455.757725 -115.757789 
L 454.259658 -112.867276 
L 452.866354 -109.976763 
L 451.58252 -107.086249 
L 450.410297 -104.195736 
L 449.349513 -101.305223 
L 448.397978 -98.41471 
L 447.5518 -95.524197 
L 446.805717 -92.633683 
L 446.153422 -89.74317 
L 445.58787 -86.852657 
L 445.101572 -83.962144 
L 444.686841 -81.07163 
L 444.336017 -78.181117 
z
" id="m59ac8eb377" style="stroke:#3d3d3d;stroke-width:2.25;"/>
    </defs>
    <g clip-path="url(#pc24d450092)">
     <use style="fill:#e1812c;stroke:#3d3d3d;stroke-width:2.25;" x="0" xlink:href="#m59ac8eb377" y="432"/>
    </g>
   </g>
   <g id="PolyCollection_3">
    <defs>
     <path d="M 667.322295 -68.825455 
L 664.677705 -68.825455 
L 664.383278 -71.820496 
L 664.038058 -74.815537 
L 663.636818 -77.810579 
L 663.174567 -80.80562 
L 662.646733 -83.800661 
L 662.049375 -86.795702 
L 661.379399 -89.790744 
L 660.634772 -92.785785 
L 659.81474 -95.780826 
L 658.92001 -98.775868 
L 657.952918 -101.770909 
L 656.917544 -104.76595 
L 655.819789 -107.760992 
L 654.667378 -110.756033 
L 653.469813 -113.751074 
L 652.238252 -116.746116 
L 650.985314 -119.741157 
L 649.724835 -122.736198 
L 648.471552 -125.73124 
L 647.240746 -128.726281 
L 646.047855 -131.721322 
L 644.908056 -134.716364 
L 643.835852 -137.711405 
L 642.844671 -140.706446 
L 641.946491 -143.701488 
L 641.151508 -146.696529 
L 640.467862 -149.69157 
L 639.901431 -152.686612 
L 639.455692 -155.681653 
L 639.131658 -158.676694 
L 638.927899 -161.671736 
L 638.840618 -164.666777 
L 638.863807 -167.661818 
L 638.989445 -170.65686 
L 639.207742 -173.651901 
L 639.507418 -176.646942 
L 639.875983 -179.641983 
L 640.300035 -182.637025 
L 640.765533 -185.632066 
L 641.258058 -188.627107 
L 641.76304 -191.622149 
L 642.265951 -194.61719 
L 642.752465 -197.612231 
L 643.208583 -200.607273 
L 643.620728 -203.602314 
L 643.975831 -206.597355 
L 644.261405 -209.592397 
L 644.465625 -212.587438 
L 644.577438 -215.582479 
L 644.586699 -218.577521 
L 644.48436 -221.572562 
L 644.262704 -224.567603 
L 643.915635 -227.562645 
L 643.439013 -230.557686 
L 642.831022 -233.552727 
L 642.092565 -236.547769 
L 641.227631 -239.54281 
L 640.243645 -242.537851 
L 639.151735 -245.532893 
L 637.966898 -248.527934 
L 636.708035 -251.522975 
L 635.397825 -254.518017 
L 634.062426 -257.513058 
L 632.730979 -260.508099 
L 631.434943 -263.50314 
L 630.207254 -266.498182 
L 629.081347 -269.493223 
L 628.090078 -272.488264 
L 627.264593 -275.483306 
L 626.633199 -278.478347 
L 626.220296 -281.473388 
L 626.045423 -284.46843 
L 626.122475 -287.463471 
L 626.459135 -290.458512 
L 627.056544 -293.453554 
L 627.909243 -296.448595 
L 629.005373 -299.443636 
L 630.327143 -302.438678 
L 631.851518 -305.433719 
L 633.551103 -308.42876 
L 635.395173 -311.423802 
L 637.350791 -314.418843 
L 639.383961 -317.413884 
L 641.460756 -320.408926 
L 643.548378 -323.403967 
L 645.616093 -326.399008 
L 647.63602 -329.39405 
L 649.583741 -332.389091 
L 651.438723 -335.384132 
L 653.184549 -338.379174 
L 654.808978 -341.374215 
L 656.303827 -344.369256 
L 657.664726 -347.364298 
L 658.890762 -350.359339 
L 659.984034 -353.35438 
L 660.94917 -356.349421 
L 661.792816 -359.344463 
L 662.52313 -362.339504 
L 663.149307 -365.334545 
L 668.850693 -365.334545 
L 668.850693 -365.334545 
L 669.47687 -362.339504 
L 670.207184 -359.344463 
L 671.05083 -356.349421 
L 672.015966 -353.35438 
L 673.109238 -350.359339 
L 674.335274 -347.364298 
L 675.696173 -344.369256 
L 677.191022 -341.374215 
L 678.815451 -338.379174 
L 680.561277 -335.384132 
L 682.416259 -332.389091 
L 684.36398 -329.39405 
L 686.383907 -326.399008 
L 688.451622 -323.403967 
L 690.539244 -320.408926 
L 692.616039 -317.413884 
L 694.649209 -314.418843 
L 696.604827 -311.423802 
L 698.448897 -308.42876 
L 700.148482 -305.433719 
L 701.672857 -302.438678 
L 702.994627 -299.443636 
L 704.090757 -296.448595 
L 704.943456 -293.453554 
L 705.540865 -290.458512 
L 705.877525 -287.463471 
L 705.954577 -284.46843 
L 705.779704 -281.473388 
L 705.366801 -278.478347 
L 704.735407 -275.483306 
L 703.909922 -272.488264 
L 702.918653 -269.493223 
L 701.792746 -266.498182 
L 700.565057 -263.50314 
L 699.269021 -260.508099 
L 697.937574 -257.513058 
L 696.602175 -254.518017 
L 695.291965 -251.522975 
L 694.033102 -248.527934 
L 692.848265 -245.532893 
L 691.756355 -242.537851 
L 690.772369 -239.54281 
L 689.907435 -236.547769 
L 689.168978 -233.552727 
L 688.560987 -230.557686 
L 688.084365 -227.562645 
L 687.737296 -224.567603 
L 687.51564 -221.572562 
L 687.413301 -218.577521 
L 687.422562 -215.582479 
L 687.534375 -212.587438 
L 687.738595 -209.592397 
L 688.024169 -206.597355 
L 688.379272 -203.602314 
L 688.791417 -200.607273 
L 689.247535 -197.612231 
L 689.734049 -194.61719 
L 690.23696 -191.622149 
L 690.741942 -188.627107 
L 691.234467 -185.632066 
L 691.699965 -182.637025 
L 692.124017 -179.641983 
L 692.492582 -176.646942 
L 692.792258 -173.651901 
L 693.010555 -170.65686 
L 693.136193 -167.661818 
L 693.159382 -164.666777 
L 693.072101 -161.671736 
L 692.868342 -158.676694 
L 692.544308 -155.681653 
L 692.098569 -152.686612 
L 691.532138 -149.69157 
L 690.848492 -146.696529 
L 690.053509 -143.701488 
L 689.155329 -140.706446 
L 688.164148 -137.711405 
L 687.091944 -134.716364 
L 685.952145 -131.721322 
L 684.759254 -128.726281 
L 683.528448 -125.73124 
L 682.275165 -122.736198 
L 681.014686 -119.741157 
L 679.761748 -116.746116 
L 678.530187 -113.751074 
L 677.332622 -110.756033 
L 676.180211 -107.760992 
L 675.082456 -104.76595 
L 674.047082 -101.770909 
L 673.07999 -98.775868 
L 672.18526 -95.780826 
L 671.365228 -92.785785 
L 670.620601 -89.790744 
L 669.950625 -86.795702 
L 669.353267 -83.800661 
L 668.825433 -80.80562 
L 668.363182 -77.810579 
L 667.961942 -74.815537 
L 667.616722 -71.820496 
L 667.322295 -68.825455 
z
" id="mb40b11b7ac" style="stroke:#3d3d3d;stroke-width:2.25;"/>
    </defs>
    <g clip-path="url(#pc24d450092)">
     <use style="fill:#3a923a;stroke:#3d3d3d;stroke-width:2.25;" x="0" xlink:href="#mb40b11b7ac" y="432"/>
    </g>
   </g>
   <g id="matplotlib.axis_1">
    <g id="xtick_1">
     <g id="line2d_1">
      <defs>
       <path d="M 0 0 
L 0 9 
" id="m8e6e30474d" style="stroke:#000000;stroke-width:1.875;"/>
      </defs>
      <g>
       <use style="stroke:#000000;stroke-width:1.875;" x="219.6" xlink:href="#m8e6e30474d" y="378"/>
      </g>
     </g>
     <g id="text_1">
      <!-- inserted_early -->
      <g transform="translate(160.9425 403.037422)scale(0.165 -0.165)">
       <defs>
        <path d="M 9.421875 54.6875 
L 18.40625 54.6875 
L 18.40625 0 
L 9.421875 0 
z
M 9.421875 75.984375 
L 18.40625 75.984375 
L 18.40625 64.59375 
L 9.421875 64.59375 
z
" id="DejaVuSans-105"/>
        <path d="M 54.890625 33.015625 
L 54.890625 0 
L 45.90625 0 
L 45.90625 32.71875 
Q 45.90625 40.484375 42.875 44.328125 
Q 39.84375 48.1875 33.796875 48.1875 
Q 26.515625 48.1875 22.3125 43.546875 
Q 18.109375 38.921875 18.109375 30.90625 
L 18.109375 0 
L 9.078125 0 
L 9.078125 54.6875 
L 18.109375 54.6875 
L 18.109375 46.1875 
Q 21.34375 51.125 25.703125 53.5625 
Q 30.078125 56 35.796875 56 
Q 45.21875 56 50.046875 50.171875 
Q 54.890625 44.34375 54.890625 33.015625 
z
" id="DejaVuSans-110"/>
        <path d="M 44.28125 53.078125 
L 44.28125 44.578125 
Q 40.484375 46.53125 36.375 47.5 
Q 32.28125 48.484375 27.875 48.484375 
Q 21.1875 48.484375 17.84375 46.4375 
Q 14.5 44.390625 14.5 40.28125 
Q 14.5 37.15625 16.890625 35.375 
Q 19.28125 33.59375 26.515625 31.984375 
L 29.59375 31.296875 
Q 39.15625 29.25 43.1875 25.515625 
Q 47.21875 21.78125 47.21875 15.09375 
Q 47.21875 7.46875 41.1875 3.015625 
Q 35.15625 -1.421875 24.609375 -1.421875 
Q 20.21875 -1.421875 15.453125 -0.5625 
Q 10.6875 0.296875 5.421875 2 
L 5.421875 11.28125 
Q 10.40625 8.6875 15.234375 7.390625 
Q 20.0625 6.109375 24.8125 6.109375 
Q 31.15625 6.109375 34.5625 8.28125 
Q 37.984375 10.453125 37.984375 14.40625 
Q 37.984375 18.0625 35.515625 20.015625 
Q 33.0625 21.96875 24.703125 23.78125 
L 21.578125 24.515625 
Q 13.234375 26.265625 9.515625 29.90625 
Q 5.8125 33.546875 5.8125 39.890625 
Q 5.8125 47.609375 11.28125 51.796875 
Q 16.75 56 26.8125 56 
Q 31.78125 56 36.171875 55.265625 
Q 40.578125 54.546875 44.28125 53.078125 
z
" id="DejaVuSans-115"/>
        <path d="M 56.203125 29.59375 
L 56.203125 25.203125 
L 14.890625 25.203125 
Q 15.484375 15.921875 20.484375 11.0625 
Q 25.484375 6.203125 34.421875 6.203125 
Q 39.59375 6.203125 44.453125 7.46875 
Q 49.3125 8.734375 54.109375 11.28125 
L 54.109375 2.78125 
Q 49.265625 0.734375 44.1875 -0.34375 
Q 39.109375 -1.421875 33.890625 -1.421875 
Q 20.796875 -1.421875 13.15625 6.1875 
Q 5.515625 13.8125 5.515625 26.8125 
Q 5.515625 40.234375 12.765625 48.109375 
Q 20.015625 56 32.328125 56 
Q 43.359375 56 49.78125 48.890625 
Q 56.203125 41.796875 56.203125 29.59375 
z
M 47.21875 32.234375 
Q 47.125 39.59375 43.09375 43.984375 
Q 39.0625 48.390625 32.421875 48.390625 
Q 24.90625 48.390625 20.390625 44.140625 
Q 15.875 39.890625 15.1875 32.171875 
z
" id="DejaVuSans-101"/>
        <path d="M 41.109375 46.296875 
Q 39.59375 47.171875 37.8125 47.578125 
Q 36.03125 48 33.890625 48 
Q 26.265625 48 22.1875 43.046875 
Q 18.109375 38.09375 18.109375 28.8125 
L 18.109375 0 
L 9.078125 0 
L 9.078125 54.6875 
L 18.109375 54.6875 
L 18.109375 46.1875 
Q 20.953125 51.171875 25.484375 53.578125 
Q 30.03125 56 36.53125 56 
Q 37.453125 56 38.578125 55.875 
Q 39.703125 55.765625 41.0625 55.515625 
z
" id="DejaVuSans-114"/>
        <path d="M 18.3125 70.21875 
L 18.3125 54.6875 
L 36.8125 54.6875 
L 36.8125 47.703125 
L 18.3125 47.703125 
L 18.3125 18.015625 
Q 18.3125 11.328125 20.140625 9.421875 
Q 21.96875 7.515625 27.59375 7.515625 
L 36.8125 7.515625 
L 36.8125 0 
L 27.59375 0 
Q 17.1875 0 13.234375 3.875 
Q 9.28125 7.765625 9.28125 18.015625 
L 9.28125 47.703125 
L 2.6875 47.703125 
L 2.6875 54.6875 
L 9.28125 54.6875 
L 9.28125 70.21875 
z
" id="DejaVuSans-116"/>
        <path d="M 45.40625 46.390625 
L 45.40625 75.984375 
L 54.390625 75.984375 
L 54.390625 0 
L 45.40625 0 
L 45.40625 8.203125 
Q 42.578125 3.328125 38.25 0.953125 
Q 33.9375 -1.421875 27.875 -1.421875 
Q 17.96875 -1.421875 11.734375 6.484375 
Q 5.515625 14.40625 5.515625 27.296875 
Q 5.515625 40.1875 11.734375 48.09375 
Q 17.96875 56 27.875 56 
Q 33.9375 56 38.25 53.625 
Q 42.578125 51.265625 45.40625 46.390625 
z
M 14.796875 27.296875 
Q 14.796875 17.390625 18.875 11.75 
Q 22.953125 6.109375 30.078125 6.109375 
Q 37.203125 6.109375 41.296875 11.75 
Q 45.40625 17.390625 45.40625 27.296875 
Q 45.40625 37.203125 41.296875 42.84375 
Q 37.203125 48.484375 30.078125 48.484375 
Q 22.953125 48.484375 18.875 42.84375 
Q 14.796875 37.203125 14.796875 27.296875 
z
" id="DejaVuSans-100"/>
        <path d="M 50.984375 -16.609375 
L 50.984375 -23.578125 
L -0.984375 -23.578125 
L -0.984375 -16.609375 
z
" id="DejaVuSans-95"/>
        <path d="M 34.28125 27.484375 
Q 23.390625 27.484375 19.1875 25 
Q 14.984375 22.515625 14.984375 16.5 
Q 14.984375 11.71875 18.140625 8.90625 
Q 21.296875 6.109375 26.703125 6.109375 
Q 34.1875 6.109375 38.703125 11.40625 
Q 43.21875 16.703125 43.21875 25.484375 
L 43.21875 27.484375 
z
M 52.203125 31.203125 
L 52.203125 0 
L 43.21875 0 
L 43.21875 8.296875 
Q 40.140625 3.328125 35.546875 0.953125 
Q 30.953125 -1.421875 24.3125 -1.421875 
Q 15.921875 -1.421875 10.953125 3.296875 
Q 6 8.015625 6 15.921875 
Q 6 25.140625 12.171875 29.828125 
Q 18.359375 34.515625 30.609375 34.515625 
L 43.21875 34.515625 
L 43.21875 35.40625 
Q 43.21875 41.609375 39.140625 45 
Q 35.0625 48.390625 27.6875 48.390625 
Q 23 48.390625 18.546875 47.265625 
Q 14.109375 46.140625 10.015625 43.890625 
L 10.015625 52.203125 
Q 14.9375 54.109375 19.578125 55.046875 
Q 24.21875 56 28.609375 56 
Q 40.484375 56 46.34375 49.84375 
Q 52.203125 43.703125 52.203125 31.203125 
z
" id="DejaVuSans-97"/>
        <path d="M 9.421875 75.984375 
L 18.40625 75.984375 
L 18.40625 0 
L 9.421875 0 
z
" id="DejaVuSans-108"/>
        <path d="M 32.171875 -5.078125 
Q 28.375 -14.84375 24.75 -17.8125 
Q 21.140625 -20.796875 15.09375 -20.796875 
L 7.90625 -20.796875 
L 7.90625 -13.28125 
L 13.1875 -13.28125 
Q 16.890625 -13.28125 18.9375 -11.515625 
Q 21 -9.765625 23.484375 -3.21875 
L 25.09375 0.875 
L 2.984375 54.6875 
L 12.5 54.6875 
L 29.59375 11.921875 
L 46.6875 54.6875 
L 56.203125 54.6875 
z
" id="DejaVuSans-121"/>
       </defs>
       <use xlink:href="#DejaVuSans-105"/>
       <use x="27.783203" xlink:href="#DejaVuSans-110"/>
       <use x="91.162109" xlink:href="#DejaVuSans-115"/>
       <use x="143.261719" xlink:href="#DejaVuSans-101"/>
       <use x="204.785156" xlink:href="#DejaVuSans-114"/>
       <use x="245.898438" xlink:href="#DejaVuSans-116"/>
       <use x="285.107422" xlink:href="#DejaVuSans-101"/>
       <use x="346.630859" xlink:href="#DejaVuSans-100"/>
       <use x="410.107422" xlink:href="#DejaVuSans-95"/>
       <use x="460.107422" xlink:href="#DejaVuSans-101"/>
       <use x="521.630859" xlink:href="#DejaVuSans-97"/>
       <use x="582.910156" xlink:href="#DejaVuSans-114"/>
       <use x="624.023438" xlink:href="#DejaVuSans-108"/>
       <use x="651.806641" xlink:href="#DejaVuSans-121"/>
      </g>
     </g>
    </g>
    <g id="xtick_2">
     <g id="line2d_2">
      <g>
       <use style="stroke:#000000;stroke-width:1.875;" x="442.8" xlink:href="#m8e6e30474d" y="378"/>
      </g>
     </g>
     <g id="text_2">
      <!-- inserted_middle -->
      <g transform="translate(376.669805 403.037422)scale(0.165 -0.165)">
       <defs>
        <path d="M 52 44.1875 
Q 55.375 50.25 60.0625 53.125 
Q 64.75 56 71.09375 56 
Q 79.640625 56 84.28125 50.015625 
Q 88.921875 44.046875 88.921875 33.015625 
L 88.921875 0 
L 79.890625 0 
L 79.890625 32.71875 
Q 79.890625 40.578125 77.09375 44.375 
Q 74.3125 48.1875 68.609375 48.1875 
Q 61.625 48.1875 57.5625 43.546875 
Q 53.515625 38.921875 53.515625 30.90625 
L 53.515625 0 
L 44.484375 0 
L 44.484375 32.71875 
Q 44.484375 40.625 41.703125 44.40625 
Q 38.921875 48.1875 33.109375 48.1875 
Q 26.21875 48.1875 22.15625 43.53125 
Q 18.109375 38.875 18.109375 30.90625 
L 18.109375 0 
L 9.078125 0 
L 9.078125 54.6875 
L 18.109375 54.6875 
L 18.109375 46.1875 
Q 21.1875 51.21875 25.484375 53.609375 
Q 29.78125 56 35.6875 56 
Q 41.65625 56 45.828125 52.96875 
Q 50 49.953125 52 44.1875 
z
" id="DejaVuSans-109"/>
       </defs>
       <use xlink:href="#DejaVuSans-105"/>
       <use x="27.783203" xlink:href="#DejaVuSans-110"/>
       <use x="91.162109" xlink:href="#DejaVuSans-115"/>
       <use x="143.261719" xlink:href="#DejaVuSans-101"/>
       <use x="204.785156" xlink:href="#DejaVuSans-114"/>
       <use x="245.898438" xlink:href="#DejaVuSans-116"/>
       <use x="285.107422" xlink:href="#DejaVuSans-101"/>
       <use x="346.630859" xlink:href="#DejaVuSans-100"/>
       <use x="410.107422" xlink:href="#DejaVuSans-95"/>
       <use x="460.107422" xlink:href="#DejaVuSans-109"/>
       <use x="557.519531" xlink:href="#DejaVuSans-105"/>
       <use x="585.302734" xlink:href="#DejaVuSans-100"/>
       <use x="648.779297" xlink:href="#DejaVuSans-100"/>
       <use x="712.255859" xlink:href="#DejaVuSans-108"/>
       <use x="740.039062" xlink:href="#DejaVuSans-101"/>
      </g>
     </g>
    </g>
    <g id="xtick_3">
     <g id="line2d_3">
      <g>
       <use style="stroke:#000000;stroke-width:1.875;" x="666" xlink:href="#m8e6e30474d" y="378"/>
      </g>
     </g>
     <g id="text_3">
      <!-- inserted_late -->
      <g transform="translate(612.382734 403.037422)scale(0.165 -0.165)">
       <use xlink:href="#DejaVuSans-105"/>
       <use x="27.783203" xlink:href="#DejaVuSans-110"/>
       <use x="91.162109" xlink:href="#DejaVuSans-115"/>
       <use x="143.261719" xlink:href="#DejaVuSans-101"/>
       <use x="204.785156" xlink:href="#DejaVuSans-114"/>
       <use x="245.898438" xlink:href="#DejaVuSans-116"/>
       <use x="285.107422" xlink:href="#DejaVuSans-101"/>
       <use x="346.630859" xlink:href="#DejaVuSans-100"/>
       <use x="410.107422" xlink:href="#DejaVuSans-95"/>
       <use x="460.107422" xlink:href="#DejaVuSans-108"/>
       <use x="487.890625" xlink:href="#DejaVuSans-97"/>
       <use x="549.169922" xlink:href="#DejaVuSans-116"/>
       <use x="588.378906" xlink:href="#DejaVuSans-101"/>
      </g>
     </g>
    </g>
    <g id="text_4">
     <!-- condition -->
     <g transform="translate(401.187656 424.605)scale(0.18 -0.18)">
      <defs>
       <path d="M 48.78125 52.59375 
L 48.78125 44.1875 
Q 44.96875 46.296875 41.140625 47.34375 
Q 37.3125 48.390625 33.40625 48.390625 
Q 24.65625 48.390625 19.8125 42.84375 
Q 14.984375 37.3125 14.984375 27.296875 
Q 14.984375 17.28125 19.8125 11.734375 
Q 24.65625 6.203125 33.40625 6.203125 
Q 37.3125 6.203125 41.140625 7.25 
Q 44.96875 8.296875 48.78125 10.40625 
L 48.78125 2.09375 
Q 45.015625 0.34375 40.984375 -0.53125 
Q 36.96875 -1.421875 32.421875 -1.421875 
Q 20.0625 -1.421875 12.78125 6.34375 
Q 5.515625 14.109375 5.515625 27.296875 
Q 5.515625 40.671875 12.859375 48.328125 
Q 20.21875 56 33.015625 56 
Q 37.15625 56 41.109375 55.140625 
Q 45.0625 54.296875 48.78125 52.59375 
z
" id="DejaVuSans-99"/>
       <path d="M 30.609375 48.390625 
Q 23.390625 48.390625 19.1875 42.75 
Q 14.984375 37.109375 14.984375 27.296875 
Q 14.984375 17.484375 19.15625 11.84375 
Q 23.34375 6.203125 30.609375 6.203125 
Q 37.796875 6.203125 41.984375 11.859375 
Q 46.1875 17.53125 46.1875 27.296875 
Q 46.1875 37.015625 41.984375 42.703125 
Q 37.796875 48.390625 30.609375 48.390625 
z
M 30.609375 56 
Q 42.328125 56 49.015625 48.375 
Q 55.71875 40.765625 55.71875 27.296875 
Q 55.71875 13.875 49.015625 6.21875 
Q 42.328125 -1.421875 30.609375 -1.421875 
Q 18.84375 -1.421875 12.171875 6.21875 
Q 5.515625 13.875 5.515625 27.296875 
Q 5.515625 40.765625 12.171875 48.375 
Q 18.84375 56 30.609375 56 
z
" id="DejaVuSans-111"/>
      </defs>
      <use xlink:href="#DejaVuSans-99"/>
      <use x="54.980469" xlink:href="#DejaVuSans-111"/>
      <use x="116.162109" xlink:href="#DejaVuSans-110"/>
      <use x="179.541016" xlink:href="#DejaVuSans-100"/>
      <use x="243.017578" xlink:href="#DejaVuSans-105"/>
      <use x="270.800781" xlink:href="#DejaVuSans-116"/>
      <use x="310.009766" xlink:href="#DejaVuSans-105"/>
      <use x="337.792969" xlink:href="#DejaVuSans-111"/>
      <use x="398.974609" xlink:href="#DejaVuSans-110"/>
     </g>
    </g>
   </g>
   <g id="matplotlib.axis_2">
    <g id="ytick_1">
     <g id="line2d_4">
      <defs>
       <path d="M 0 0 
L -9 0 
" id="m410d5846cd" style="stroke:#000000;stroke-width:1.875;"/>
      </defs>
      <g>
       <use style="stroke:#000000;stroke-width:1.875;" x="108" xlink:href="#m410d5846cd" y="353.115882"/>
      </g>
     </g>
     <g id="text_5">
      <!-- 0.2 -->
      <g transform="translate(69.259844 359.384593)scale(0.165 -0.165)">
       <defs>
        <path d="M 31.78125 66.40625 
Q 24.171875 66.40625 20.328125 58.90625 
Q 16.5 51.421875 16.5 36.375 
Q 16.5 21.390625 20.328125 13.890625 
Q 24.171875 6.390625 31.78125 6.390625 
Q 39.453125 6.390625 43.28125 13.890625 
Q 47.125 21.390625 47.125 36.375 
Q 47.125 51.421875 43.28125 58.90625 
Q 39.453125 66.40625 31.78125 66.40625 
z
M 31.78125 74.21875 
Q 44.046875 74.21875 50.515625 64.515625 
Q 56.984375 54.828125 56.984375 36.375 
Q 56.984375 17.96875 50.515625 8.265625 
Q 44.046875 -1.421875 31.78125 -1.421875 
Q 19.53125 -1.421875 13.0625 8.265625 
Q 6.59375 17.96875 6.59375 36.375 
Q 6.59375 54.828125 13.0625 64.515625 
Q 19.53125 74.21875 31.78125 74.21875 
z
" id="DejaVuSans-48"/>
        <path d="M 10.6875 12.40625 
L 21 12.40625 
L 21 0 
L 10.6875 0 
z
" id="DejaVuSans-46"/>
        <path d="M 19.1875 8.296875 
L 53.609375 8.296875 
L 53.609375 0 
L 7.328125 0 
L 7.328125 8.296875 
Q 12.9375 14.109375 22.625 23.890625 
Q 32.328125 33.6875 34.8125 36.53125 
Q 39.546875 41.84375 41.421875 45.53125 
Q 43.3125 49.21875 43.3125 52.78125 
Q 43.3125 58.59375 39.234375 62.25 
Q 35.15625 65.921875 28.609375 65.921875 
Q 23.96875 65.921875 18.8125 64.3125 
Q 13.671875 62.703125 7.8125 59.421875 
L 7.8125 69.390625 
Q 13.765625 71.78125 18.9375 73 
Q 24.125 74.21875 28.421875 74.21875 
Q 39.75 74.21875 46.484375 68.546875 
Q 53.21875 62.890625 53.21875 53.421875 
Q 53.21875 48.921875 51.53125 44.890625 
Q 49.859375 40.875 45.40625 35.40625 
Q 44.1875 33.984375 37.640625 27.21875 
Q 31.109375 20.453125 19.1875 8.296875 
z
" id="DejaVuSans-50"/>
       </defs>
       <use xlink:href="#DejaVuSans-48"/>
       <use x="63.623047" xlink:href="#DejaVuSans-46"/>
       <use x="95.410156" xlink:href="#DejaVuSans-50"/>
      </g>
     </g>
    </g>
    <g id="ytick_2">
     <g id="line2d_5">
      <g>
       <use style="stroke:#000000;stroke-width:1.875;" x="108" xlink:href="#m410d5846cd" y="298.002048"/>
      </g>
     </g>
     <g id="text_6">
      <!-- 0.4 -->
      <g transform="translate(69.259844 304.270759)scale(0.165 -0.165)">
       <defs>
        <path d="M 37.796875 64.3125 
L 12.890625 25.390625 
L 37.796875 25.390625 
z
M 35.203125 72.90625 
L 47.609375 72.90625 
L 47.609375 25.390625 
L 58.015625 25.390625 
L 58.015625 17.1875 
L 47.609375 17.1875 
L 47.609375 0 
L 37.796875 0 
L 37.796875 17.1875 
L 4.890625 17.1875 
L 4.890625 26.703125 
z
" id="DejaVuSans-52"/>
       </defs>
       <use xlink:href="#DejaVuSans-48"/>
       <use x="63.623047" xlink:href="#DejaVuSans-46"/>
       <use x="95.410156" xlink:href="#DejaVuSans-52"/>
      </g>
     </g>
    </g>
    <g id="ytick_3">
     <g id="line2d_6">
      <g>
       <use style="stroke:#000000;stroke-width:1.875;" x="108" xlink:href="#m410d5846cd" y="242.888214"/>
      </g>
     </g>
     <g id="text_7">
      <!-- 0.6 -->
      <g transform="translate(69.259844 249.156925)scale(0.165 -0.165)">
       <defs>
        <path d="M 33.015625 40.375 
Q 26.375 40.375 22.484375 35.828125 
Q 18.609375 31.296875 18.609375 23.390625 
Q 18.609375 15.53125 22.484375 10.953125 
Q 26.375 6.390625 33.015625 6.390625 
Q 39.65625 6.390625 43.53125 10.953125 
Q 47.40625 15.53125 47.40625 23.390625 
Q 47.40625 31.296875 43.53125 35.828125 
Q 39.65625 40.375 33.015625 40.375 
z
M 52.59375 71.296875 
L 52.59375 62.3125 
Q 48.875 64.0625 45.09375 64.984375 
Q 41.3125 65.921875 37.59375 65.921875 
Q 27.828125 65.921875 22.671875 59.328125 
Q 17.53125 52.734375 16.796875 39.40625 
Q 19.671875 43.65625 24.015625 45.921875 
Q 28.375 48.1875 33.59375 48.1875 
Q 44.578125 48.1875 50.953125 41.515625 
Q 57.328125 34.859375 57.328125 23.390625 
Q 57.328125 12.15625 50.6875 5.359375 
Q 44.046875 -1.421875 33.015625 -1.421875 
Q 20.359375 -1.421875 13.671875 8.265625 
Q 6.984375 17.96875 6.984375 36.375 
Q 6.984375 53.65625 15.1875 63.9375 
Q 23.390625 74.21875 37.203125 74.21875 
Q 40.921875 74.21875 44.703125 73.484375 
Q 48.484375 72.75 52.59375 71.296875 
z
" id="DejaVuSans-54"/>
       </defs>
       <use xlink:href="#DejaVuSans-48"/>
       <use x="63.623047" xlink:href="#DejaVuSans-46"/>
       <use x="95.410156" xlink:href="#DejaVuSans-54"/>
      </g>
     </g>
    </g>
    <g id="ytick_4">
     <g id="line2d_7">
      <g>
       <use style="stroke:#000000;stroke-width:1.875;" x="108" xlink:href="#m410d5846cd" y="187.77438"/>
      </g>
     </g>
     <g id="text_8">
      <!-- 0.8 -->
      <g transform="translate(69.259844 194.043091)scale(0.165 -0.165)">
       <defs>
        <path d="M 31.78125 34.625 
Q 24.75 34.625 20.71875 30.859375 
Q 16.703125 27.09375 16.703125 20.515625 
Q 16.703125 13.921875 20.71875 10.15625 
Q 24.75 6.390625 31.78125 6.390625 
Q 38.8125 6.390625 42.859375 10.171875 
Q 46.921875 13.96875 46.921875 20.515625 
Q 46.921875 27.09375 42.890625 30.859375 
Q 38.875 34.625 31.78125 34.625 
z
M 21.921875 38.8125 
Q 15.578125 40.375 12.03125 44.71875 
Q 8.5 49.078125 8.5 55.328125 
Q 8.5 64.0625 14.71875 69.140625 
Q 20.953125 74.21875 31.78125 74.21875 
Q 42.671875 74.21875 48.875 69.140625 
Q 55.078125 64.0625 55.078125 55.328125 
Q 55.078125 49.078125 51.53125 44.71875 
Q 48 40.375 41.703125 38.8125 
Q 48.828125 37.15625 52.796875 32.3125 
Q 56.78125 27.484375 56.78125 20.515625 
Q 56.78125 9.90625 50.3125 4.234375 
Q 43.84375 -1.421875 31.78125 -1.421875 
Q 19.734375 -1.421875 13.25 4.234375 
Q 6.78125 9.90625 6.78125 20.515625 
Q 6.78125 27.484375 10.78125 32.3125 
Q 14.796875 37.15625 21.921875 38.8125 
z
M 18.3125 54.390625 
Q 18.3125 48.734375 21.84375 45.5625 
Q 25.390625 42.390625 31.78125 42.390625 
Q 38.140625 42.390625 41.71875 45.5625 
Q 45.3125 48.734375 45.3125 54.390625 
Q 45.3125 60.0625 41.71875 63.234375 
Q 38.140625 66.40625 31.78125 66.40625 
Q 25.390625 66.40625 21.84375 63.234375 
Q 18.3125 60.0625 18.3125 54.390625 
z
" id="DejaVuSans-56"/>
       </defs>
       <use xlink:href="#DejaVuSans-48"/>
       <use x="63.623047" xlink:href="#DejaVuSans-46"/>
       <use x="95.410156" xlink:href="#DejaVuSans-56"/>
      </g>
     </g>
    </g>
    <g id="ytick_5">
     <g id="line2d_8">
      <g>
       <use style="stroke:#000000;stroke-width:1.875;" x="108" xlink:href="#m410d5846cd" y="132.660547"/>
      </g>
     </g>
     <g id="text_9">
      <!-- 1.0 -->
      <g transform="translate(69.259844 138.929258)scale(0.165 -0.165)">
       <defs>
        <path d="M 12.40625 8.296875 
L 28.515625 8.296875 
L 28.515625 63.921875 
L 10.984375 60.40625 
L 10.984375 69.390625 
L 28.421875 72.90625 
L 38.28125 72.90625 
L 38.28125 8.296875 
L 54.390625 8.296875 
L 54.390625 0 
L 12.40625 0 
z
" id="DejaVuSans-49"/>
       </defs>
       <use xlink:href="#DejaVuSans-49"/>
       <use x="63.623047" xlink:href="#DejaVuSans-46"/>
       <use x="95.410156" xlink:href="#DejaVuSans-48"/>
      </g>
     </g>
    </g>
    <g id="ytick_6">
     <g id="line2d_9">
      <g>
       <use style="stroke:#000000;stroke-width:1.875;" x="108" xlink:href="#m410d5846cd" y="77.546713"/>
      </g>
     </g>
     <g id="text_10">
      <!-- 1.2 -->
      <g transform="translate(69.259844 83.815424)scale(0.165 -0.165)">
       <use xlink:href="#DejaVuSans-49"/>
       <use x="63.623047" xlink:href="#DejaVuSans-46"/>
       <use x="95.410156" xlink:href="#DejaVuSans-50"/>
      </g>
     </g>
    </g>
    <g id="text_11">
     <!-- prediction accuracy -->
     <g transform="translate(61.516406 303.537656)rotate(-90)scale(0.18 -0.18)">
      <defs>
       <path d="M 18.109375 8.203125 
L 18.109375 -20.796875 
L 9.078125 -20.796875 
L 9.078125 54.6875 
L 18.109375 54.6875 
L 18.109375 46.390625 
Q 20.953125 51.265625 25.265625 53.625 
Q 29.59375 56 35.59375 56 
Q 45.5625 56 51.78125 48.09375 
Q 58.015625 40.1875 58.015625 27.296875 
Q 58.015625 14.40625 51.78125 6.484375 
Q 45.5625 -1.421875 35.59375 -1.421875 
Q 29.59375 -1.421875 25.265625 0.953125 
Q 20.953125 3.328125 18.109375 8.203125 
z
M 48.6875 27.296875 
Q 48.6875 37.203125 44.609375 42.84375 
Q 40.53125 48.484375 33.40625 48.484375 
Q 26.265625 48.484375 22.1875 42.84375 
Q 18.109375 37.203125 18.109375 27.296875 
Q 18.109375 17.390625 22.1875 11.75 
Q 26.265625 6.109375 33.40625 6.109375 
Q 40.53125 6.109375 44.609375 11.75 
Q 48.6875 17.390625 48.6875 27.296875 
z
" id="DejaVuSans-112"/>
       <path id="DejaVuSans-32"/>
       <path d="M 8.5 21.578125 
L 8.5 54.6875 
L 17.484375 54.6875 
L 17.484375 21.921875 
Q 17.484375 14.15625 20.5 10.265625 
Q 23.53125 6.390625 29.59375 6.390625 
Q 36.859375 6.390625 41.078125 11.03125 
Q 45.3125 15.671875 45.3125 23.6875 
L 45.3125 54.6875 
L 54.296875 54.6875 
L 54.296875 0 
L 45.3125 0 
L 45.3125 8.40625 
Q 42.046875 3.421875 37.71875 1 
Q 33.40625 -1.421875 27.6875 -1.421875 
Q 18.265625 -1.421875 13.375 4.4375 
Q 8.5 10.296875 8.5 21.578125 
z
M 31.109375 56 
z
" id="DejaVuSans-117"/>
      </defs>
      <use xlink:href="#DejaVuSans-112"/>
      <use x="63.476562" xlink:href="#DejaVuSans-114"/>
      <use x="102.339844" xlink:href="#DejaVuSans-101"/>
      <use x="163.863281" xlink:href="#DejaVuSans-100"/>
      <use x="227.339844" xlink:href="#DejaVuSans-105"/>
      <use x="255.123047" xlink:href="#DejaVuSans-99"/>
      <use x="310.103516" xlink:href="#DejaVuSans-116"/>
      <use x="349.3125" xlink:href="#DejaVuSans-105"/>
      <use x="377.095703" xlink:href="#DejaVuSans-111"/>
      <use x="438.277344" xlink:href="#DejaVuSans-110"/>
      <use x="501.65625" xlink:href="#DejaVuSans-32"/>
      <use x="533.443359" xlink:href="#DejaVuSans-97"/>
      <use x="594.722656" xlink:href="#DejaVuSans-99"/>
      <use x="649.703125" xlink:href="#DejaVuSans-99"/>
      <use x="704.683594" xlink:href="#DejaVuSans-117"/>
      <use x="768.0625" xlink:href="#DejaVuSans-114"/>
      <use x="809.175781" xlink:href="#DejaVuSans-97"/>
      <use x="870.455078" xlink:href="#DejaVuSans-99"/>
      <use x="925.435547" xlink:href="#DejaVuSans-121"/>
     </g>
    </g>
   </g>
   <g id="line2d_10">
    <path clip-path="url(#pc24d450092)" d="M 219.6 184.329766 
L 219.6 132.660547 
" style="fill:none;stroke:#3d3d3d;stroke-linecap:square;stroke-width:2.25;"/>
   </g>
   <g id="line2d_11">
    <path clip-path="url(#pc24d450092)" d="M 219.6 168.217859 
L 219.6 137.33121 
" style="fill:none;stroke:#3d3d3d;stroke-linecap:square;stroke-width:6.75;"/>
   </g>
   <g id="line2d_12">
    <path clip-path="url(#pc24d450092)" d="M 442.8 288.816409 
L 442.8 132.660547 
" style="fill:none;stroke:#3d3d3d;stroke-linecap:square;stroke-width:2.25;"/>
   </g>
   <g id="line2d_13">
    <path clip-path="url(#pc24d450092)" d="M 442.8 268.128941 
L 442.8 155.012748 
" style="fill:none;stroke:#3d3d3d;stroke-linecap:square;stroke-width:6.75;"/>
   </g>
   <g id="line2d_14">
    <path clip-path="url(#pc24d450092)" d="M 666 297.179453 
L 666 132.660547 
" style="fill:none;stroke:#3d3d3d;stroke-linecap:square;stroke-width:2.25;"/>
   </g>
   <g id="line2d_15">
    <path clip-path="url(#pc24d450092)" d="M 666 257.398824 
L 666 144.659918 
" style="fill:none;stroke:#3d3d3d;stroke-linecap:square;stroke-width:6.75;"/>
   </g>
   <g id="patch_3">
    <path d="M 108 378 
L 108 51.84 
" style="fill:none;stroke:#000000;stroke-linecap:square;stroke-linejoin:miter;stroke-width:1.875;"/>
   </g>
   <g id="patch_4">
    <path d="M 777.6 378 
L 777.6 51.84 
" style="fill:none;stroke:#000000;stroke-linecap:square;stroke-linejoin:miter;stroke-width:1.875;"/>
   </g>
   <g id="patch_5">
    <path d="M 108 378 
L 777.6 378 
" style="fill:none;stroke:#000000;stroke-linecap:square;stroke-linejoin:miter;stroke-width:1.875;"/>
   </g>
   <g id="patch_6">
    <path d="M 108 51.84 
L 777.6 51.84 
" style="fill:none;stroke:#000000;stroke-linecap:square;stroke-linejoin:miter;stroke-width:1.875;"/>
   </g>
   <g id="PathCollection_1">
    <defs>
     <path d="M 0 2.25 
C 0.596707 2.25 1.169055 2.012926 1.59099 1.59099 
C 2.012926 1.169055 2.25 0.596707 2.25 0 
C 2.25 -0.596707 2.012926 -1.169055 1.59099 -1.59099 
C 1.169055 -2.012926 0.596707 -2.25 0 -2.25 
C -0.596707 -2.25 -1.169055 -2.012926 -1.59099 -1.59099 
C -2.012926 -1.169055 -2.25 -0.596707 -2.25 0 
C -2.25 0.596707 -2.012926 1.169055 -1.59099 1.59099 
C -1.169055 2.012926 -0.596707 2.25 0 2.25 
z
" id="me679b4d77b" style="stroke:#3d3d3d;stroke-width:1.5;"/>
    </defs>
    <g clip-path="url(#pc24d450092)">
     <use style="fill:#ffffff;stroke:#3d3d3d;stroke-width:1.5;" x="219.6" xlink:href="#me679b4d77b" y="143.059383"/>
    </g>
   </g>
   <g id="PathCollection_2">
    <g clip-path="url(#pc24d450092)">
     <use style="fill:#ffffff;stroke:#3d3d3d;stroke-width:1.5;" x="442.8" xlink:href="#me679b4d77b" y="234.925486"/>
    </g>
   </g>
   <g id="PathCollection_3">
    <g clip-path="url(#pc24d450092)">
     <use style="fill:#ffffff;stroke:#3d3d3d;stroke-width:1.5;" x="666" xlink:href="#me679b4d77b" y="178.535829"/>
    </g>
   </g>
  </g>
 </g>
 <defs>
  <clipPath id="pc24d450092">
   <rect height="326.16" width="669.6" x="108" y="51.84"/>
  </clipPath>
 </defs>
</svg>
