<?xml version="1.0" encoding="utf-8" standalone="no"?>
<!DOCTYPE svg PUBLIC "-//W3C//DTD SVG 1.1//EN"
  "http://www.w3.org/Graphics/SVG/1.1/DTD/svg11.dtd">
<svg xmlns:xlink="http://www.w3.org/1999/xlink" width="864pt" height="432pt" viewBox="0 0 864 432" xmlns="http://www.w3.org/2000/svg" version="1.1">
 <metadata>
  <rdf:RDF xmlns:dc="http://purl.org/dc/elements/1.1/" xmlns:cc="http://creativecommons.org/ns#" xmlns:rdf="http://www.w3.org/1999/02/22-rdf-syntax-ns#">
   <cc:Work>
    <dc:type rdf:resource="http://purl.org/dc/dcmitype/StillImage"/>
    <dc:date>2023-05-02T17:08:48.836720</dc:date>
    <dc:format>image/svg+xml</dc:format>
    <dc:creator>
     <cc:Agent>
      <dc:title>Matplotlib v3.5.1, https://matplotlib.org/</dc:title>
     </cc:Agent>
    </dc:creator>
   </cc:Work>
  </rdf:RDF>
 </metadata>
 <defs>
  <style type="text/css">*{stroke-linejoin: round; stroke-linecap: butt}</style>
 </defs>
 <g id="figure_1">
  <g id="patch_1">
   <path d="M 0 432 
L 864 432 
L 864 0 
L 0 0 
L 0 432 
z
" style="fill: none"/>
  </g>
  <g id="axes_1">
   <g id="patch_2">
    <path d="M 108 378 
L 777.6 378 
L 777.6 51.84 
L 108 51.84 
z
" style="fill: #ffffff"/>
   </g>
   <g id="PolyCollection_1">
    <defs>
     <path id="m349a604c42" d="M 220.792629 -68.825455 
L 218.407371 -68.825455 
L 218.087475 -71.820496 
L 217.697731 -74.815537 
L 217.2273 -77.810579 
L 216.664759 -80.80562 
L 215.998345 -83.800661 
L 215.216266 -86.795702 
L 214.307083 -89.790744 
L 213.260163 -92.785785 
L 212.066181 -95.780826 
L 210.717686 -98.775868 
L 209.209679 -101.770909 
L 207.540212 -104.76595 
L 205.710963 -107.760992 
L 203.727766 -110.756033 
L 201.601048 -113.751074 
L 199.346161 -116.746116 
L 196.983554 -119.741157 
L 194.538766 -122.736198 
L 192.042209 -125.73124 
L 189.528728 -128.726281 
L 187.036927 -131.721322 
L 184.608271 -134.716364 
L 182.285975 -137.711405 
L 180.11373 -140.706446 
L 178.134291 -143.701488 
L 176.388007 -146.696529 
L 174.911348 -149.69157 
L 173.735511 -152.686612 
L 172.885174 -155.681653 
L 172.377472 -158.676694 
L 172.22125 -161.671736 
L 172.416655 -164.666777 
L 172.955063 -167.661818 
L 173.819389 -170.65686 
L 174.984724 -173.651901 
L 176.41929 -176.646942 
L 178.085646 -179.641983 
L 179.94207 -182.637025 
L 181.944044 -185.632066 
L 184.04575 -188.627107 
L 186.201505 -191.622149 
L 188.367046 -194.61719 
L 190.500625 -197.612231 
L 192.563853 -200.607273 
L 194.522291 -203.602314 
L 196.345773 -206.597355 
L 198.008493 -209.592397 
L 199.488878 -212.587438 
L 200.769318 -215.582479 
L 201.835789 -218.577521 
L 202.677448 -221.572562 
L 203.286245 -224.567603 
L 203.65662 -227.562645 
L 203.785309 -230.557686 
L 203.671298 -233.552727 
L 203.315929 -236.547769 
L 202.723154 -239.54281 
L 201.899912 -242.537851 
L 200.856583 -245.532893 
L 199.607489 -248.527934 
L 198.171351 -251.522975 
L 196.571666 -254.518017 
L 194.836921 -257.513058 
L 193.0006 -260.508099 
L 191.100928 -263.50314 
L 189.180322 -266.498182 
L 187.284549 -269.493223 
L 185.461582 -272.488264 
L 183.760213 -275.483306 
L 182.228459 -278.478347 
L 180.911845 -281.473388 
L 179.851664 -284.46843 
L 179.0833 -287.463471 
L 178.634725 -290.458512 
L 178.525274 -293.453554 
L 178.764759 -296.448595 
L 179.353007 -299.443636 
L 180.279847 -302.438678 
L 181.525552 -305.433719 
L 183.061713 -308.42876 
L 184.852506 -311.423802 
L 186.856247 -314.418843 
L 189.027178 -317.413884 
L 191.317348 -320.408926 
L 193.678492 -323.403967 
L 196.063819 -326.399008 
L 198.429588 -329.39405 
L 200.736437 -332.389091 
L 202.950387 -335.384132 
L 205.043512 -338.379174 
L 206.994261 -341.374215 
L 208.787472 -344.369256 
L 210.414088 -347.364298 
L 211.87065 -350.359339 
L 213.158611 -353.35438 
L 214.283536 -356.349421 
L 215.254256 -359.344463 
L 216.082005 -362.339504 
L 216.779615 -365.334545 
L 222.420385 -365.334545 
L 222.420385 -365.334545 
L 223.117995 -362.339504 
L 223.945744 -359.344463 
L 224.916464 -356.349421 
L 226.041389 -353.35438 
L 227.32935 -350.359339 
L 228.785912 -347.364298 
L 230.412528 -344.369256 
L 232.205739 -341.374215 
L 234.156488 -338.379174 
L 236.249613 -335.384132 
L 238.463563 -332.389091 
L 240.770412 -329.39405 
L 243.136181 -326.399008 
L 245.521508 -323.403967 
L 247.882652 -320.408926 
L 250.172822 -317.413884 
L 252.343753 -314.418843 
L 254.347494 -311.423802 
L 256.138287 -308.42876 
L 257.674448 -305.433719 
L 258.920153 -302.438678 
L 259.846993 -299.443636 
L 260.435241 -296.448595 
L 260.674726 -293.453554 
L 260.565275 -290.458512 
L 260.1167 -287.463471 
L 259.348336 -284.46843 
L 258.288155 -281.473388 
L 256.971541 -278.478347 
L 255.439787 -275.483306 
L 253.738418 -272.488264 
L 251.915451 -269.493223 
L 250.019678 -266.498182 
L 248.099072 -263.50314 
L 246.1994 -260.508099 
L 244.363079 -257.513058 
L 242.628334 -254.518017 
L 241.028649 -251.522975 
L 239.592511 -248.527934 
L 238.343417 -245.532893 
L 237.300088 -242.537851 
L 236.476846 -239.54281 
L 235.884071 -236.547769 
L 235.528702 -233.552727 
L 235.414691 -230.557686 
L 235.54338 -227.562645 
L 235.913755 -224.567603 
L 236.522552 -221.572562 
L 237.364211 -218.577521 
L 238.430682 -215.582479 
L 239.711122 -212.587438 
L 241.191507 -209.592397 
L 242.854227 -206.597355 
L 244.677709 -203.602314 
L 246.636147 -200.607273 
L 248.699375 -197.612231 
L 250.832954 -194.61719 
L 252.998495 -191.622149 
L 255.15425 -188.627107 
L 257.255956 -185.632066 
L 259.25793 -182.637025 
L 261.114354 -179.641983 
L 262.78071 -176.646942 
L 264.215276 -173.651901 
L 265.380611 -170.65686 
L 266.244937 -167.661818 
L 266.783345 -164.666777 
L 266.97875 -161.671736 
L 266.822528 -158.676694 
L 266.314826 -155.681653 
L 265.464489 -152.686612 
L 264.288652 -149.69157 
L 262.811993 -146.696529 
L 261.065709 -143.701488 
L 259.08627 -140.706446 
L 256.914025 -137.711405 
L 254.591729 -134.716364 
L 252.163073 -131.721322 
L 249.671272 -128.726281 
L 247.157791 -125.73124 
L 244.661234 -122.736198 
L 242.216446 -119.741157 
L 239.853839 -116.746116 
L 237.598952 -113.751074 
L 235.472234 -110.756033 
L 233.489037 -107.760992 
L 231.659788 -104.76595 
L 229.990321 -101.770909 
L 228.482314 -98.775868 
L 227.133819 -95.780826 
L 225.939837 -92.785785 
L 224.892917 -89.790744 
L 223.983734 -86.795702 
L 223.201655 -83.800661 
L 222.535241 -80.80562 
L 221.9727 -77.810579 
L 221.502269 -74.815537 
L 221.112525 -71.820496 
L 220.792629 -68.825455 
z
" style="stroke: #3d3d3d; stroke-width: 2.25"/>
    </defs>
    <g clip-path="url(#p26eaaf87e1)">
     <use xlink:href="#m349a604c42" x="0" y="432" style="fill: #3274a1; stroke: #3d3d3d; stroke-width: 2.25"/>
    </g>
   </g>
   <g id="PolyCollection_2">
    <defs>
     <path id="m7340c2c05a" d="M 443.425402 -73.362523 
L 442.174598 -73.362523 
L 441.970412 -76.194954 
L 441.710606 -79.027385 
L 441.383484 -81.859816 
L 440.975844 -84.692247 
L 440.473026 -87.524678 
L 439.859044 -90.357109 
L 439.11681 -93.189539 
L 438.228478 -96.02197 
L 437.175908 -98.854401 
L 435.941267 -101.686832 
L 434.507768 -104.519263 
L 432.860527 -107.351694 
L 430.987525 -110.184125 
L 428.880616 -113.016556 
L 426.536552 -115.848987 
L 423.957922 -118.681418 
L 421.153962 -121.513848 
L 418.141114 -124.346279 
L 414.943307 -127.17871 
L 411.591854 -130.011141 
L 408.124963 -132.843572 
L 404.586854 -135.676003 
L 401.026505 -138.508434 
L 397.496116 -141.340865 
L 394.049374 -144.173296 
L 390.739666 -147.005727 
L 387.618346 -149.838157 
L 384.733195 -152.670588 
L 382.127174 -155.503019 
L 379.837528 -158.33545 
L 377.895266 -161.167881 
L 376.325006 -164.000312 
L 375.145106 -166.832743 
L 374.368004 -169.665174 
L 374.000649 -172.497605 
L 374.044931 -175.330036 
L 374.498005 -178.162467 
L 375.352462 -180.994897 
L 376.596322 -183.827328 
L 378.212866 -186.659759 
L 380.180371 -189.49219 
L 382.471818 -192.324621 
L 385.054683 -195.157052 
L 387.890903 -197.989483 
L 390.937096 -200.821914 
L 394.145099 -203.654345 
L 397.462838 -206.486776 
L 400.83552 -209.319206 
L 404.207081 -212.151637 
L 407.521826 -214.984068 
L 410.726128 -217.816499 
L 413.770088 -220.64893 
L 416.609036 -223.481361 
L 419.204775 -226.313792 
L 421.526487 -229.146223 
L 423.551274 -231.978654 
L 425.264308 -234.811085 
L 426.658638 -237.643515 
L 427.734704 -240.475946 
L 428.499639 -243.308377 
L 428.966467 -246.140808 
L 429.153268 -248.973239 
L 429.082419 -251.80567 
L 428.779946 -254.638101 
L 428.275026 -257.470532 
L 427.599626 -260.302963 
L 426.788243 -263.135394 
L 425.877667 -265.967825 
L 424.906688 -268.800255 
L 423.915672 -271.632686 
L 422.945911 -274.465117 
L 422.038729 -277.297548 
L 421.234316 -280.129979 
L 420.570345 -282.96241 
L 420.080447 -285.794841 
L 419.792661 -288.627272 
L 419.727993 -291.459703 
L 419.899246 -294.292134 
L 420.310224 -297.124564 
L 420.955444 -299.956995 
L 421.820381 -302.789426 
L 422.882267 -305.621857 
L 424.11139 -308.454288 
L 425.472794 -311.286719 
L 426.928239 -314.11915 
L 428.438277 -316.951581 
L 429.964271 -319.784012 
L 431.470221 -322.616443 
L 432.924268 -325.448873 
L 434.299804 -328.281304 
L 435.576142 -331.113735 
L 436.738747 -333.946166 
L 437.779076 -336.778597 
L 438.69408 -339.611028 
L 439.485466 -342.443459 
L 440.158802 -345.27589 
L 440.722561 -348.108321 
L 441.187171 -350.940752 
L 441.56415 -353.773183 
L 444.03585 -353.773183 
L 444.03585 -353.773183 
L 444.412829 -350.940752 
L 444.877439 -348.108321 
L 445.441198 -345.27589 
L 446.114534 -342.443459 
L 446.90592 -339.611028 
L 447.820924 -336.778597 
L 448.861253 -333.946166 
L 450.023858 -331.113735 
L 451.300196 -328.281304 
L 452.675732 -325.448873 
L 454.129779 -322.616443 
L 455.635729 -319.784012 
L 457.161723 -316.951581 
L 458.671761 -314.11915 
L 460.127206 -311.286719 
L 461.48861 -308.454288 
L 462.717733 -305.621857 
L 463.779619 -302.789426 
L 464.644556 -299.956995 
L 465.289776 -297.124564 
L 465.700754 -294.292134 
L 465.872007 -291.459703 
L 465.807339 -288.627272 
L 465.519553 -285.794841 
L 465.029655 -282.96241 
L 464.365684 -280.129979 
L 463.561271 -277.297548 
L 462.654089 -274.465117 
L 461.684328 -271.632686 
L 460.693312 -268.800255 
L 459.722333 -265.967825 
L 458.811757 -263.135394 
L 458.000374 -260.302963 
L 457.324974 -257.470532 
L 456.820054 -254.638101 
L 456.517581 -251.80567 
L 456.446732 -248.973239 
L 456.633533 -246.140808 
L 457.100361 -243.308377 
L 457.865296 -240.475946 
L 458.941362 -237.643515 
L 460.335692 -234.811085 
L 462.048726 -231.978654 
L 464.073513 -229.146223 
L 466.395225 -226.313792 
L 468.990964 -223.481361 
L 471.829912 -220.64893 
L 474.873872 -217.816499 
L 478.078174 -214.984068 
L 481.392919 -212.151637 
L 484.76448 -209.319206 
L 488.137162 -206.486776 
L 491.454901 -203.654345 
L 494.662904 -200.821914 
L 497.709097 -197.989483 
L 500.545317 -195.157052 
L 503.128182 -192.324621 
L 505.419629 -189.49219 
L 507.387134 -186.659759 
L 509.003678 -183.827328 
L 510.247538 -180.994897 
L 511.101995 -178.162467 
L 511.555069 -175.330036 
L 511.599351 -172.497605 
L 511.231996 -169.665174 
L 510.454894 -166.832743 
L 509.274994 -164.000312 
L 507.704734 -161.167881 
L 505.762472 -158.33545 
L 503.472826 -155.503019 
L 500.866805 -152.670588 
L 497.981654 -149.838157 
L 494.860334 -147.005727 
L 491.550626 -144.173296 
L 488.103884 -141.340865 
L 484.573495 -138.508434 
L 481.013146 -135.676003 
L 477.475037 -132.843572 
L 474.008146 -130.011141 
L 470.656693 -127.17871 
L 467.458886 -124.346279 
L 464.446038 -121.513848 
L 461.642078 -118.681418 
L 459.063448 -115.848987 
L 456.719384 -113.016556 
L 454.612475 -110.184125 
L 452.739473 -107.351694 
L 451.092232 -104.519263 
L 449.658733 -101.686832 
L 448.424092 -98.854401 
L 447.371522 -96.02197 
L 446.48319 -93.189539 
L 445.740956 -90.357109 
L 445.126974 -87.524678 
L 444.624156 -84.692247 
L 444.216516 -81.859816 
L 443.889394 -79.027385 
L 443.629588 -76.194954 
L 443.425402 -73.362523 
z
" style="stroke: #3d3d3d; stroke-width: 2.25"/>
    </defs>
    <g clip-path="url(#p26eaaf87e1)">
     <use xlink:href="#m7340c2c05a" x="0" y="432" style="fill: #e1812c; stroke: #3d3d3d; stroke-width: 2.25"/>
    </g>
   </g>
   <g id="PolyCollection_3">
    <defs>
     <path id="m1cb01f8edc" d="M 667.067371 -86.465771 
L 664.932629 -86.465771 
L 664.541197 -89.01976 
L 664.033913 -91.573749 
L 663.386457 -94.127738 
L 662.572532 -96.681726 
L 661.564619 -99.235715 
L 660.334999 -101.789704 
L 658.857023 -104.343693 
L 657.106572 -106.897682 
L 655.06363 -109.45167 
L 652.713871 -112.005659 
L 650.050115 -114.559648 
L 647.073519 -117.113637 
L 643.794369 -119.667626 
L 640.232341 -122.221614 
L 636.416192 -124.775603 
L 632.382844 -127.329592 
L 628.17594 -129.883581 
L 623.844011 -132.43757 
L 619.438437 -134.991558 
L 615.011455 -137.545547 
L 610.614452 -140.099536 
L 606.296745 -142.653525 
L 602.105005 -145.207514 
L 598.083361 -147.761502 
L 594.274109 -150.315491 
L 590.718854 -152.86948 
L 587.45981 -155.423469 
L 584.540929 -157.977458 
L 582.008543 -160.531446 
L 579.911233 -163.085435 
L 578.298758 -165.639424 
L 577.219996 -168.193413 
L 576.72 -170.747401 
L 576.836442 -173.30139 
L 577.595791 -175.855379 
L 579.009682 -178.409368 
L 581.071932 -180.963357 
L 583.756609 -183.517345 
L 587.017451 -186.071334 
L 590.788803 -188.625323 
L 594.988051 -191.179312 
L 599.519377 -193.733301 
L 604.278504 -196.287289 
L 609.158018 -198.841278 
L 614.052767 -201.395267 
L 618.864898 -203.949256 
L 623.508117 -206.503245 
L 627.910883 -209.057233 
L 632.018357 -211.611222 
L 635.793077 -214.165211 
L 639.214451 -216.7192 
L 642.277225 -219.273189 
L 644.989205 -221.827177 
L 647.368466 -224.381166 
L 649.440362 -226.935155 
L 651.234548 -229.489144 
L 652.782237 -232.043133 
L 654.113827 -234.597121 
L 655.257022 -237.15111 
L 656.235461 -239.705099 
L 657.06791 -242.259088 
L 657.767954 -244.813076 
L 658.344173 -247.367065 
L 658.800729 -249.921054 
L 659.138278 -252.475043 
L 659.355145 -255.029032 
L 659.448656 -257.58302 
L 659.416542 -260.137009 
L 659.25833 -262.690998 
L 658.976627 -265.244987 
L 658.578202 -267.798976 
L 658.074803 -270.352964 
L 657.483607 -272.906953 
L 656.827262 -275.460942 
L 656.133462 -278.014931 
L 655.434038 -280.56892 
L 654.763592 -283.122908 
L 654.157721 -285.676897 
L 653.650959 -288.230886 
L 653.274583 -290.784875 
L 653.054467 -293.338864 
L 653.00921 -295.892852 
L 653.148717 -298.446841 
L 653.473414 -301.00083 
L 653.974188 -303.554819 
L 654.633082 -306.108808 
L 655.424695 -308.662796 
L 656.318125 -311.216785 
L 657.279281 -313.770774 
L 658.273304 -316.324763 
L 659.266868 -318.878751 
L 660.230158 -321.43274 
L 661.138353 -323.986729 
L 661.972538 -326.540718 
L 662.720036 -329.094707 
L 663.374195 -331.648695 
L 663.933756 -334.202684 
L 664.401912 -336.756673 
L 664.785224 -339.310662 
L 667.214776 -339.310662 
L 667.214776 -339.310662 
L 667.598088 -336.756673 
L 668.066244 -334.202684 
L 668.625805 -331.648695 
L 669.279964 -329.094707 
L 670.027462 -326.540718 
L 670.861647 -323.986729 
L 671.769842 -321.43274 
L 672.733132 -318.878751 
L 673.726696 -316.324763 
L 674.720719 -313.770774 
L 675.681875 -311.216785 
L 676.575305 -308.662796 
L 677.366918 -306.108808 
L 678.025812 -303.554819 
L 678.526586 -301.00083 
L 678.851283 -298.446841 
L 678.99079 -295.892852 
L 678.945533 -293.338864 
L 678.725417 -290.784875 
L 678.349041 -288.230886 
L 677.842279 -285.676897 
L 677.236408 -283.122908 
L 676.565962 -280.56892 
L 675.866538 -278.014931 
L 675.172738 -275.460942 
L 674.516393 -272.906953 
L 673.925197 -270.352964 
L 673.421798 -267.798976 
L 673.023373 -265.244987 
L 672.74167 -262.690998 
L 672.583458 -260.137009 
L 672.551344 -257.58302 
L 672.644855 -255.029032 
L 672.861722 -252.475043 
L 673.199271 -249.921054 
L 673.655827 -247.367065 
L 674.232046 -244.813076 
L 674.93209 -242.259088 
L 675.764539 -239.705099 
L 676.742978 -237.15111 
L 677.886173 -234.597121 
L 679.217763 -232.043133 
L 680.765452 -229.489144 
L 682.559638 -226.935155 
L 684.631534 -224.381166 
L 687.010795 -221.827177 
L 689.722775 -219.273189 
L 692.785549 -216.7192 
L 696.206923 -214.165211 
L 699.981643 -211.611222 
L 704.089117 -209.057233 
L 708.491883 -206.503245 
L 713.135102 -203.949256 
L 717.947233 -201.395267 
L 722.841982 -198.841278 
L 727.721496 -196.287289 
L 732.480623 -193.733301 
L 737.011949 -191.179312 
L 741.211197 -188.625323 
L 744.982549 -186.071334 
L 748.243391 -183.517345 
L 750.928068 -180.963357 
L 752.990318 -178.409368 
L 754.404209 -175.855379 
L 755.163558 -173.30139 
L 755.28 -170.747401 
L 754.780004 -168.193413 
L 753.701242 -165.639424 
L 752.088767 -163.085435 
L 749.991457 -160.531446 
L 747.459071 -157.977458 
L 744.54019 -155.423469 
L 741.281146 -152.86948 
L 737.725891 -150.315491 
L 733.916639 -147.761502 
L 729.894995 -145.207514 
L 725.703255 -142.653525 
L 721.385548 -140.099536 
L 716.988545 -137.545547 
L 712.561563 -134.991558 
L 708.155989 -132.43757 
L 703.82406 -129.883581 
L 699.617156 -127.329592 
L 695.583808 -124.775603 
L 691.767659 -122.221614 
L 688.205631 -119.667626 
L 684.926481 -117.113637 
L 681.949885 -114.559648 
L 679.286129 -112.005659 
L 676.93637 -109.45167 
L 674.893428 -106.897682 
L 673.142977 -104.343693 
L 671.665001 -101.789704 
L 670.435381 -99.235715 
L 669.427468 -96.681726 
L 668.613543 -94.127738 
L 667.966087 -91.573749 
L 667.458803 -89.01976 
L 667.067371 -86.465771 
z
" style="stroke: #3d3d3d; stroke-width: 2.25"/>
    </defs>
    <g clip-path="url(#p26eaaf87e1)">
     <use xlink:href="#m1cb01f8edc" x="0" y="432" style="fill: #3a923a; stroke: #3d3d3d; stroke-width: 2.25"/>
    </g>
   </g>
   <g id="matplotlib.axis_1">
    <g id="xtick_1">
     <g id="line2d_1">
      <defs>
       <path id="mf25d9dff05" d="M 0 0 
L 0 9 
" style="stroke: #000000; stroke-width: 1.875"/>
      </defs>
      <g>
       <use xlink:href="#mf25d9dff05" x="219.6" y="378" style="stroke: #000000; stroke-width: 1.875"/>
      </g>
     </g>
     <g id="text_1">
      <!-- inserted_early_rep -->
      <g transform="translate(143.297812 403.037422)scale(0.165 -0.165)">
       <defs>
        <path id="DejaVuSans-69" d="M 603 3500 
L 1178 3500 
L 1178 0 
L 603 0 
L 603 3500 
z
M 603 4863 
L 1178 4863 
L 1178 4134 
L 603 4134 
L 603 4863 
z
" transform="scale(0.015625)"/>
        <path id="DejaVuSans-6e" d="M 3513 2113 
L 3513 0 
L 2938 0 
L 2938 2094 
Q 2938 2591 2744 2837 
Q 2550 3084 2163 3084 
Q 1697 3084 1428 2787 
Q 1159 2491 1159 1978 
L 1159 0 
L 581 0 
L 581 3500 
L 1159 3500 
L 1159 2956 
Q 1366 3272 1645 3428 
Q 1925 3584 2291 3584 
Q 2894 3584 3203 3211 
Q 3513 2838 3513 2113 
z
" transform="scale(0.015625)"/>
        <path id="DejaVuSans-73" d="M 2834 3397 
L 2834 2853 
Q 2591 2978 2328 3040 
Q 2066 3103 1784 3103 
Q 1356 3103 1142 2972 
Q 928 2841 928 2578 
Q 928 2378 1081 2264 
Q 1234 2150 1697 2047 
L 1894 2003 
Q 2506 1872 2764 1633 
Q 3022 1394 3022 966 
Q 3022 478 2636 193 
Q 2250 -91 1575 -91 
Q 1294 -91 989 -36 
Q 684 19 347 128 
L 347 722 
Q 666 556 975 473 
Q 1284 391 1588 391 
Q 1994 391 2212 530 
Q 2431 669 2431 922 
Q 2431 1156 2273 1281 
Q 2116 1406 1581 1522 
L 1381 1569 
Q 847 1681 609 1914 
Q 372 2147 372 2553 
Q 372 3047 722 3315 
Q 1072 3584 1716 3584 
Q 2034 3584 2315 3537 
Q 2597 3491 2834 3397 
z
" transform="scale(0.015625)"/>
        <path id="DejaVuSans-65" d="M 3597 1894 
L 3597 1613 
L 953 1613 
Q 991 1019 1311 708 
Q 1631 397 2203 397 
Q 2534 397 2845 478 
Q 3156 559 3463 722 
L 3463 178 
Q 3153 47 2828 -22 
Q 2503 -91 2169 -91 
Q 1331 -91 842 396 
Q 353 884 353 1716 
Q 353 2575 817 3079 
Q 1281 3584 2069 3584 
Q 2775 3584 3186 3129 
Q 3597 2675 3597 1894 
z
M 3022 2063 
Q 3016 2534 2758 2815 
Q 2500 3097 2075 3097 
Q 1594 3097 1305 2825 
Q 1016 2553 972 2059 
L 3022 2063 
z
" transform="scale(0.015625)"/>
        <path id="DejaVuSans-72" d="M 2631 2963 
Q 2534 3019 2420 3045 
Q 2306 3072 2169 3072 
Q 1681 3072 1420 2755 
Q 1159 2438 1159 1844 
L 1159 0 
L 581 0 
L 581 3500 
L 1159 3500 
L 1159 2956 
Q 1341 3275 1631 3429 
Q 1922 3584 2338 3584 
Q 2397 3584 2469 3576 
Q 2541 3569 2628 3553 
L 2631 2963 
z
" transform="scale(0.015625)"/>
        <path id="DejaVuSans-74" d="M 1172 4494 
L 1172 3500 
L 2356 3500 
L 2356 3053 
L 1172 3053 
L 1172 1153 
Q 1172 725 1289 603 
Q 1406 481 1766 481 
L 2356 481 
L 2356 0 
L 1766 0 
Q 1100 0 847 248 
Q 594 497 594 1153 
L 594 3053 
L 172 3053 
L 172 3500 
L 594 3500 
L 594 4494 
L 1172 4494 
z
" transform="scale(0.015625)"/>
        <path id="DejaVuSans-64" d="M 2906 2969 
L 2906 4863 
L 3481 4863 
L 3481 0 
L 2906 0 
L 2906 525 
Q 2725 213 2448 61 
Q 2172 -91 1784 -91 
Q 1150 -91 751 415 
Q 353 922 353 1747 
Q 353 2572 751 3078 
Q 1150 3584 1784 3584 
Q 2172 3584 2448 3432 
Q 2725 3281 2906 2969 
z
M 947 1747 
Q 947 1113 1208 752 
Q 1469 391 1925 391 
Q 2381 391 2643 752 
Q 2906 1113 2906 1747 
Q 2906 2381 2643 2742 
Q 2381 3103 1925 3103 
Q 1469 3103 1208 2742 
Q 947 2381 947 1747 
z
" transform="scale(0.015625)"/>
        <path id="DejaVuSans-5f" d="M 3263 -1063 
L 3263 -1509 
L -63 -1509 
L -63 -1063 
L 3263 -1063 
z
" transform="scale(0.015625)"/>
        <path id="DejaVuSans-61" d="M 2194 1759 
Q 1497 1759 1228 1600 
Q 959 1441 959 1056 
Q 959 750 1161 570 
Q 1363 391 1709 391 
Q 2188 391 2477 730 
Q 2766 1069 2766 1631 
L 2766 1759 
L 2194 1759 
z
M 3341 1997 
L 3341 0 
L 2766 0 
L 2766 531 
Q 2569 213 2275 61 
Q 1981 -91 1556 -91 
Q 1019 -91 701 211 
Q 384 513 384 1019 
Q 384 1609 779 1909 
Q 1175 2209 1959 2209 
L 2766 2209 
L 2766 2266 
Q 2766 2663 2505 2880 
Q 2244 3097 1772 3097 
Q 1472 3097 1187 3025 
Q 903 2953 641 2809 
L 641 3341 
Q 956 3463 1253 3523 
Q 1550 3584 1831 3584 
Q 2591 3584 2966 3190 
Q 3341 2797 3341 1997 
z
" transform="scale(0.015625)"/>
        <path id="DejaVuSans-6c" d="M 603 4863 
L 1178 4863 
L 1178 0 
L 603 0 
L 603 4863 
z
" transform="scale(0.015625)"/>
        <path id="DejaVuSans-79" d="M 2059 -325 
Q 1816 -950 1584 -1140 
Q 1353 -1331 966 -1331 
L 506 -1331 
L 506 -850 
L 844 -850 
Q 1081 -850 1212 -737 
Q 1344 -625 1503 -206 
L 1606 56 
L 191 3500 
L 800 3500 
L 1894 763 
L 2988 3500 
L 3597 3500 
L 2059 -325 
z
" transform="scale(0.015625)"/>
        <path id="DejaVuSans-70" d="M 1159 525 
L 1159 -1331 
L 581 -1331 
L 581 3500 
L 1159 3500 
L 1159 2969 
Q 1341 3281 1617 3432 
Q 1894 3584 2278 3584 
Q 2916 3584 3314 3078 
Q 3713 2572 3713 1747 
Q 3713 922 3314 415 
Q 2916 -91 2278 -91 
Q 1894 -91 1617 61 
Q 1341 213 1159 525 
z
M 3116 1747 
Q 3116 2381 2855 2742 
Q 2594 3103 2138 3103 
Q 1681 3103 1420 2742 
Q 1159 2381 1159 1747 
Q 1159 1113 1420 752 
Q 1681 391 2138 391 
Q 2594 391 2855 752 
Q 3116 1113 3116 1747 
z
" transform="scale(0.015625)"/>
       </defs>
       <use xlink:href="#DejaVuSans-69"/>
       <use xlink:href="#DejaVuSans-6e" x="27.783203"/>
       <use xlink:href="#DejaVuSans-73" x="91.162109"/>
       <use xlink:href="#DejaVuSans-65" x="143.261719"/>
       <use xlink:href="#DejaVuSans-72" x="204.785156"/>
       <use xlink:href="#DejaVuSans-74" x="245.898438"/>
       <use xlink:href="#DejaVuSans-65" x="285.107422"/>
       <use xlink:href="#DejaVuSans-64" x="346.630859"/>
       <use xlink:href="#DejaVuSans-5f" x="410.107422"/>
       <use xlink:href="#DejaVuSans-65" x="460.107422"/>
       <use xlink:href="#DejaVuSans-61" x="521.630859"/>
       <use xlink:href="#DejaVuSans-72" x="582.910156"/>
       <use xlink:href="#DejaVuSans-6c" x="624.023438"/>
       <use xlink:href="#DejaVuSans-79" x="651.806641"/>
       <use xlink:href="#DejaVuSans-5f" x="710.986328"/>
       <use xlink:href="#DejaVuSans-72" x="760.986328"/>
       <use xlink:href="#DejaVuSans-65" x="799.849609"/>
       <use xlink:href="#DejaVuSans-70" x="861.373047"/>
      </g>
     </g>
    </g>
    <g id="xtick_2">
     <g id="line2d_2">
      <g>
       <use xlink:href="#mf25d9dff05" x="442.8" y="378" style="stroke: #000000; stroke-width: 1.875"/>
      </g>
     </g>
     <g id="text_2">
      <!-- inserted_middle_rep -->
      <g transform="translate(359.025117 403.037422)scale(0.165 -0.165)">
       <defs>
        <path id="DejaVuSans-6d" d="M 3328 2828 
Q 3544 3216 3844 3400 
Q 4144 3584 4550 3584 
Q 5097 3584 5394 3201 
Q 5691 2819 5691 2113 
L 5691 0 
L 5113 0 
L 5113 2094 
Q 5113 2597 4934 2840 
Q 4756 3084 4391 3084 
Q 3944 3084 3684 2787 
Q 3425 2491 3425 1978 
L 3425 0 
L 2847 0 
L 2847 2094 
Q 2847 2600 2669 2842 
Q 2491 3084 2119 3084 
Q 1678 3084 1418 2786 
Q 1159 2488 1159 1978 
L 1159 0 
L 581 0 
L 581 3500 
L 1159 3500 
L 1159 2956 
Q 1356 3278 1631 3431 
Q 1906 3584 2284 3584 
Q 2666 3584 2933 3390 
Q 3200 3197 3328 2828 
z
" transform="scale(0.015625)"/>
       </defs>
       <use xlink:href="#DejaVuSans-69"/>
       <use xlink:href="#DejaVuSans-6e" x="27.783203"/>
       <use xlink:href="#DejaVuSans-73" x="91.162109"/>
       <use xlink:href="#DejaVuSans-65" x="143.261719"/>
       <use xlink:href="#DejaVuSans-72" x="204.785156"/>
       <use xlink:href="#DejaVuSans-74" x="245.898438"/>
       <use xlink:href="#DejaVuSans-65" x="285.107422"/>
       <use xlink:href="#DejaVuSans-64" x="346.630859"/>
       <use xlink:href="#DejaVuSans-5f" x="410.107422"/>
       <use xlink:href="#DejaVuSans-6d" x="460.107422"/>
       <use xlink:href="#DejaVuSans-69" x="557.519531"/>
       <use xlink:href="#DejaVuSans-64" x="585.302734"/>
       <use xlink:href="#DejaVuSans-64" x="648.779297"/>
       <use xlink:href="#DejaVuSans-6c" x="712.255859"/>
       <use xlink:href="#DejaVuSans-65" x="740.039062"/>
       <use xlink:href="#DejaVuSans-5f" x="801.5625"/>
       <use xlink:href="#DejaVuSans-72" x="851.5625"/>
       <use xlink:href="#DejaVuSans-65" x="890.425781"/>
       <use xlink:href="#DejaVuSans-70" x="951.949219"/>
      </g>
     </g>
    </g>
    <g id="xtick_3">
     <g id="line2d_3">
      <g>
       <use xlink:href="#mf25d9dff05" x="666" y="378" style="stroke: #000000; stroke-width: 1.875"/>
      </g>
     </g>
     <g id="text_3">
      <!-- inserted_late_rep -->
      <g transform="translate(594.738047 403.037422)scale(0.165 -0.165)">
       <use xlink:href="#DejaVuSans-69"/>
       <use xlink:href="#DejaVuSans-6e" x="27.783203"/>
       <use xlink:href="#DejaVuSans-73" x="91.162109"/>
       <use xlink:href="#DejaVuSans-65" x="143.261719"/>
       <use xlink:href="#DejaVuSans-72" x="204.785156"/>
       <use xlink:href="#DejaVuSans-74" x="245.898438"/>
       <use xlink:href="#DejaVuSans-65" x="285.107422"/>
       <use xlink:href="#DejaVuSans-64" x="346.630859"/>
       <use xlink:href="#DejaVuSans-5f" x="410.107422"/>
       <use xlink:href="#DejaVuSans-6c" x="460.107422"/>
       <use xlink:href="#DejaVuSans-61" x="487.890625"/>
       <use xlink:href="#DejaVuSans-74" x="549.169922"/>
       <use xlink:href="#DejaVuSans-65" x="588.378906"/>
       <use xlink:href="#DejaVuSans-5f" x="649.902344"/>
       <use xlink:href="#DejaVuSans-72" x="699.902344"/>
       <use xlink:href="#DejaVuSans-65" x="738.765625"/>
       <use xlink:href="#DejaVuSans-70" x="800.289062"/>
      </g>
     </g>
    </g>
    <g id="text_4">
     <!-- condition -->
     <g transform="translate(401.187656 424.605)scale(0.18 -0.18)">
      <defs>
       <path id="DejaVuSans-63" d="M 3122 3366 
L 3122 2828 
Q 2878 2963 2633 3030 
Q 2388 3097 2138 3097 
Q 1578 3097 1268 2742 
Q 959 2388 959 1747 
Q 959 1106 1268 751 
Q 1578 397 2138 397 
Q 2388 397 2633 464 
Q 2878 531 3122 666 
L 3122 134 
Q 2881 22 2623 -34 
Q 2366 -91 2075 -91 
Q 1284 -91 818 406 
Q 353 903 353 1747 
Q 353 2603 823 3093 
Q 1294 3584 2113 3584 
Q 2378 3584 2631 3529 
Q 2884 3475 3122 3366 
z
" transform="scale(0.015625)"/>
       <path id="DejaVuSans-6f" d="M 1959 3097 
Q 1497 3097 1228 2736 
Q 959 2375 959 1747 
Q 959 1119 1226 758 
Q 1494 397 1959 397 
Q 2419 397 2687 759 
Q 2956 1122 2956 1747 
Q 2956 2369 2687 2733 
Q 2419 3097 1959 3097 
z
M 1959 3584 
Q 2709 3584 3137 3096 
Q 3566 2609 3566 1747 
Q 3566 888 3137 398 
Q 2709 -91 1959 -91 
Q 1206 -91 779 398 
Q 353 888 353 1747 
Q 353 2609 779 3096 
Q 1206 3584 1959 3584 
z
" transform="scale(0.015625)"/>
      </defs>
      <use xlink:href="#DejaVuSans-63"/>
      <use xlink:href="#DejaVuSans-6f" x="54.980469"/>
      <use xlink:href="#DejaVuSans-6e" x="116.162109"/>
      <use xlink:href="#DejaVuSans-64" x="179.541016"/>
      <use xlink:href="#DejaVuSans-69" x="243.017578"/>
      <use xlink:href="#DejaVuSans-74" x="270.800781"/>
      <use xlink:href="#DejaVuSans-69" x="310.009766"/>
      <use xlink:href="#DejaVuSans-6f" x="337.792969"/>
      <use xlink:href="#DejaVuSans-6e" x="398.974609"/>
     </g>
    </g>
   </g>
   <g id="matplotlib.axis_2">
    <g id="ytick_1">
     <g id="line2d_4">
      <defs>
       <path id="maff1eec10b" d="M 0 0 
L -9 0 
" style="stroke: #000000; stroke-width: 1.875"/>
      </defs>
      <g>
       <use xlink:href="#maff1eec10b" x="108" y="355.469745" style="stroke: #000000; stroke-width: 1.875"/>
      </g>
     </g>
     <g id="text_5">
      <!-- 0.2 -->
      <g transform="translate(69.259844 361.738456)scale(0.165 -0.165)">
       <defs>
        <path id="DejaVuSans-30" d="M 2034 4250 
Q 1547 4250 1301 3770 
Q 1056 3291 1056 2328 
Q 1056 1369 1301 889 
Q 1547 409 2034 409 
Q 2525 409 2770 889 
Q 3016 1369 3016 2328 
Q 3016 3291 2770 3770 
Q 2525 4250 2034 4250 
z
M 2034 4750 
Q 2819 4750 3233 4129 
Q 3647 3509 3647 2328 
Q 3647 1150 3233 529 
Q 2819 -91 2034 -91 
Q 1250 -91 836 529 
Q 422 1150 422 2328 
Q 422 3509 836 4129 
Q 1250 4750 2034 4750 
z
" transform="scale(0.015625)"/>
        <path id="DejaVuSans-2e" d="M 684 794 
L 1344 794 
L 1344 0 
L 684 0 
L 684 794 
z
" transform="scale(0.015625)"/>
        <path id="DejaVuSans-32" d="M 1228 531 
L 3431 531 
L 3431 0 
L 469 0 
L 469 531 
Q 828 903 1448 1529 
Q 2069 2156 2228 2338 
Q 2531 2678 2651 2914 
Q 2772 3150 2772 3378 
Q 2772 3750 2511 3984 
Q 2250 4219 1831 4219 
Q 1534 4219 1204 4116 
Q 875 4013 500 3803 
L 500 4441 
Q 881 4594 1212 4672 
Q 1544 4750 1819 4750 
Q 2544 4750 2975 4387 
Q 3406 4025 3406 3419 
Q 3406 3131 3298 2873 
Q 3191 2616 2906 2266 
Q 2828 2175 2409 1742 
Q 1991 1309 1228 531 
z
" transform="scale(0.015625)"/>
       </defs>
       <use xlink:href="#DejaVuSans-30"/>
       <use xlink:href="#DejaVuSans-2e" x="63.623047"/>
       <use xlink:href="#DejaVuSans-32" x="95.410156"/>
      </g>
     </g>
    </g>
    <g id="ytick_2">
     <g id="line2d_5">
      <g>
       <use xlink:href="#maff1eec10b" x="108" y="298.062103" style="stroke: #000000; stroke-width: 1.875"/>
      </g>
     </g>
     <g id="text_6">
      <!-- 0.4 -->
      <g transform="translate(69.259844 304.330814)scale(0.165 -0.165)">
       <defs>
        <path id="DejaVuSans-34" d="M 2419 4116 
L 825 1625 
L 2419 1625 
L 2419 4116 
z
M 2253 4666 
L 3047 4666 
L 3047 1625 
L 3713 1625 
L 3713 1100 
L 3047 1100 
L 3047 0 
L 2419 0 
L 2419 1100 
L 313 1100 
L 313 1709 
L 2253 4666 
z
" transform="scale(0.015625)"/>
       </defs>
       <use xlink:href="#DejaVuSans-30"/>
       <use xlink:href="#DejaVuSans-2e" x="63.623047"/>
       <use xlink:href="#DejaVuSans-34" x="95.410156"/>
      </g>
     </g>
    </g>
    <g id="ytick_3">
     <g id="line2d_6">
      <g>
       <use xlink:href="#maff1eec10b" x="108" y="240.65446" style="stroke: #000000; stroke-width: 1.875"/>
      </g>
     </g>
     <g id="text_7">
      <!-- 0.6 -->
      <g transform="translate(69.259844 246.923171)scale(0.165 -0.165)">
       <defs>
        <path id="DejaVuSans-36" d="M 2113 2584 
Q 1688 2584 1439 2293 
Q 1191 2003 1191 1497 
Q 1191 994 1439 701 
Q 1688 409 2113 409 
Q 2538 409 2786 701 
Q 3034 994 3034 1497 
Q 3034 2003 2786 2293 
Q 2538 2584 2113 2584 
z
M 3366 4563 
L 3366 3988 
Q 3128 4100 2886 4159 
Q 2644 4219 2406 4219 
Q 1781 4219 1451 3797 
Q 1122 3375 1075 2522 
Q 1259 2794 1537 2939 
Q 1816 3084 2150 3084 
Q 2853 3084 3261 2657 
Q 3669 2231 3669 1497 
Q 3669 778 3244 343 
Q 2819 -91 2113 -91 
Q 1303 -91 875 529 
Q 447 1150 447 2328 
Q 447 3434 972 4092 
Q 1497 4750 2381 4750 
Q 2619 4750 2861 4703 
Q 3103 4656 3366 4563 
z
" transform="scale(0.015625)"/>
       </defs>
       <use xlink:href="#DejaVuSans-30"/>
       <use xlink:href="#DejaVuSans-2e" x="63.623047"/>
       <use xlink:href="#DejaVuSans-36" x="95.410156"/>
      </g>
     </g>
    </g>
    <g id="ytick_4">
     <g id="line2d_7">
      <g>
       <use xlink:href="#maff1eec10b" x="108" y="183.246818" style="stroke: #000000; stroke-width: 1.875"/>
      </g>
     </g>
     <g id="text_8">
      <!-- 0.8 -->
      <g transform="translate(69.259844 189.515529)scale(0.165 -0.165)">
       <defs>
        <path id="DejaVuSans-38" d="M 2034 2216 
Q 1584 2216 1326 1975 
Q 1069 1734 1069 1313 
Q 1069 891 1326 650 
Q 1584 409 2034 409 
Q 2484 409 2743 651 
Q 3003 894 3003 1313 
Q 3003 1734 2745 1975 
Q 2488 2216 2034 2216 
z
M 1403 2484 
Q 997 2584 770 2862 
Q 544 3141 544 3541 
Q 544 4100 942 4425 
Q 1341 4750 2034 4750 
Q 2731 4750 3128 4425 
Q 3525 4100 3525 3541 
Q 3525 3141 3298 2862 
Q 3072 2584 2669 2484 
Q 3125 2378 3379 2068 
Q 3634 1759 3634 1313 
Q 3634 634 3220 271 
Q 2806 -91 2034 -91 
Q 1263 -91 848 271 
Q 434 634 434 1313 
Q 434 1759 690 2068 
Q 947 2378 1403 2484 
z
M 1172 3481 
Q 1172 3119 1398 2916 
Q 1625 2713 2034 2713 
Q 2441 2713 2670 2916 
Q 2900 3119 2900 3481 
Q 2900 3844 2670 4047 
Q 2441 4250 2034 4250 
Q 1625 4250 1398 4047 
Q 1172 3844 1172 3481 
z
" transform="scale(0.015625)"/>
       </defs>
       <use xlink:href="#DejaVuSans-30"/>
       <use xlink:href="#DejaVuSans-2e" x="63.623047"/>
       <use xlink:href="#DejaVuSans-38" x="95.410156"/>
      </g>
     </g>
    </g>
    <g id="ytick_5">
     <g id="line2d_8">
      <g>
       <use xlink:href="#maff1eec10b" x="108" y="125.839176" style="stroke: #000000; stroke-width: 1.875"/>
      </g>
     </g>
     <g id="text_9">
      <!-- 1.0 -->
      <g transform="translate(69.259844 132.107886)scale(0.165 -0.165)">
       <defs>
        <path id="DejaVuSans-31" d="M 794 531 
L 1825 531 
L 1825 4091 
L 703 3866 
L 703 4441 
L 1819 4666 
L 2450 4666 
L 2450 531 
L 3481 531 
L 3481 0 
L 794 0 
L 794 531 
z
" transform="scale(0.015625)"/>
       </defs>
       <use xlink:href="#DejaVuSans-31"/>
       <use xlink:href="#DejaVuSans-2e" x="63.623047"/>
       <use xlink:href="#DejaVuSans-30" x="95.410156"/>
      </g>
     </g>
    </g>
    <g id="ytick_6">
     <g id="line2d_9">
      <g>
       <use xlink:href="#maff1eec10b" x="108" y="68.431533" style="stroke: #000000; stroke-width: 1.875"/>
      </g>
     </g>
     <g id="text_10">
      <!-- 1.2 -->
      <g transform="translate(69.259844 74.700244)scale(0.165 -0.165)">
       <use xlink:href="#DejaVuSans-31"/>
       <use xlink:href="#DejaVuSans-2e" x="63.623047"/>
       <use xlink:href="#DejaVuSans-32" x="95.410156"/>
      </g>
     </g>
    </g>
    <g id="text_11">
     <!-- prediction accuracy -->
     <g transform="translate(61.516406 303.537656)rotate(-90)scale(0.18 -0.18)">
      <defs>
       <path id="DejaVuSans-20" transform="scale(0.015625)"/>
       <path id="DejaVuSans-75" d="M 544 1381 
L 544 3500 
L 1119 3500 
L 1119 1403 
Q 1119 906 1312 657 
Q 1506 409 1894 409 
Q 2359 409 2629 706 
Q 2900 1003 2900 1516 
L 2900 3500 
L 3475 3500 
L 3475 0 
L 2900 0 
L 2900 538 
Q 2691 219 2414 64 
Q 2138 -91 1772 -91 
Q 1169 -91 856 284 
Q 544 659 544 1381 
z
M 1991 3584 
L 1991 3584 
z
" transform="scale(0.015625)"/>
      </defs>
      <use xlink:href="#DejaVuSans-70"/>
      <use xlink:href="#DejaVuSans-72" x="63.476562"/>
      <use xlink:href="#DejaVuSans-65" x="102.339844"/>
      <use xlink:href="#DejaVuSans-64" x="163.863281"/>
      <use xlink:href="#DejaVuSans-69" x="227.339844"/>
      <use xlink:href="#DejaVuSans-63" x="255.123047"/>
      <use xlink:href="#DejaVuSans-74" x="310.103516"/>
      <use xlink:href="#DejaVuSans-69" x="349.3125"/>
      <use xlink:href="#DejaVuSans-6f" x="377.095703"/>
      <use xlink:href="#DejaVuSans-6e" x="438.277344"/>
      <use xlink:href="#DejaVuSans-20" x="501.65625"/>
      <use xlink:href="#DejaVuSans-61" x="533.443359"/>
      <use xlink:href="#DejaVuSans-63" x="594.722656"/>
      <use xlink:href="#DejaVuSans-63" x="649.703125"/>
      <use xlink:href="#DejaVuSans-75" x="704.683594"/>
      <use xlink:href="#DejaVuSans-72" x="768.0625"/>
      <use xlink:href="#DejaVuSans-61" x="809.175781"/>
      <use xlink:href="#DejaVuSans-63" x="870.455078"/>
      <use xlink:href="#DejaVuSans-79" x="925.435547"/>
     </g>
    </g>
   </g>
   <g id="line2d_10">
    <path d="M 219.6 304.000824 
L 219.6 125.839176 
" clip-path="url(#p26eaaf87e1)" style="fill: none; stroke: #3d3d3d; stroke-width: 2.25; stroke-linecap: square"/>
   </g>
   <g id="line2d_11">
    <path d="M 219.6 271.96772 
L 219.6 140.434339 
" clip-path="url(#p26eaaf87e1)" style="fill: none; stroke: #3d3d3d; stroke-width: 6.75; stroke-linecap: square"/>
   </g>
   <g id="line2d_12">
    <path d="M 442.8 311.025119 
L 442.8 172.89462 
" clip-path="url(#p26eaaf87e1)" style="fill: none; stroke: #3d3d3d; stroke-width: 2.25; stroke-linecap: square"/>
   </g>
   <g id="line2d_13">
    <path d="M 442.8 273.049013 
L 442.8 224.441621 
" clip-path="url(#p26eaaf87e1)" style="fill: none; stroke: #3d3d3d; stroke-width: 6.75; stroke-linecap: square"/>
   </g>
   <g id="line2d_14">
    <path d="M 666 307.348633 
L 666 202.382699 
" clip-path="url(#p26eaaf87e1)" style="fill: none; stroke: #3d3d3d; stroke-width: 2.25; stroke-linecap: square"/>
   </g>
   <g id="line2d_15">
    <path d="M 666 272.442683 
L 666 241.641307 
" clip-path="url(#p26eaaf87e1)" style="fill: none; stroke: #3d3d3d; stroke-width: 6.75; stroke-linecap: square"/>
   </g>
   <g id="patch_3">
    <path d="M 108 378 
L 108 51.84 
" style="fill: none; stroke: #000000; stroke-width: 1.875; stroke-linejoin: miter; stroke-linecap: square"/>
   </g>
   <g id="patch_4">
    <path d="M 777.6 378 
L 777.6 51.84 
" style="fill: none; stroke: #000000; stroke-width: 1.875; stroke-linejoin: miter; stroke-linecap: square"/>
   </g>
   <g id="patch_5">
    <path d="M 108 378 
L 777.6 378 
" style="fill: none; stroke: #000000; stroke-width: 1.875; stroke-linejoin: miter; stroke-linecap: square"/>
   </g>
   <g id="patch_6">
    <path d="M 108 51.84 
L 777.6 51.84 
" style="fill: none; stroke: #000000; stroke-width: 1.875; stroke-linejoin: miter; stroke-linecap: square"/>
   </g>
   <g id="PathCollection_1">
    <defs>
     <path id="m5cca484772" d="M 0 2.25 
C 0.596707 2.25 1.169055 2.012926 1.59099 1.59099 
C 2.012926 1.169055 2.25 0.596707 2.25 0 
C 2.25 -0.596707 2.012926 -1.169055 1.59099 -1.59099 
C 1.169055 -2.012926 0.596707 -2.25 0 -2.25 
C -0.596707 -2.25 -1.169055 -2.012926 -1.59099 -1.59099 
C -2.012926 -1.169055 -2.25 -0.596707 -2.25 0 
C -2.25 0.596707 -2.012926 1.169055 -1.59099 1.59099 
C -1.169055 2.012926 -0.596707 2.25 0 2.25 
z
" style="stroke: #3d3d3d; stroke-width: 1.5"/>
    </defs>
    <g clip-path="url(#p26eaaf87e1)">
     <use xlink:href="#m5cca484772" x="219.6" y="250.839687" style="fill: #ffffff; stroke: #3d3d3d; stroke-width: 1.5"/>
    </g>
   </g>
   <g id="PathCollection_2">
    <g clip-path="url(#p26eaaf87e1)">
     <use xlink:href="#m5cca484772" x="442.8" y="247.465537" style="fill: #ffffff; stroke: #3d3d3d; stroke-width: 1.5"/>
    </g>
   </g>
   <g id="PathCollection_3">
    <g clip-path="url(#p26eaaf87e1)">
     <use xlink:href="#m5cca484772" x="666" y="255.903365" style="fill: #ffffff; stroke: #3d3d3d; stroke-width: 1.5"/>
    </g>
   </g>
  </g>
 </g>
 <defs>
  <clipPath id="p26eaaf87e1">
   <rect x="108" y="51.84" width="669.6" height="326.16"/>
  </clipPath>
 </defs>
</svg>
