<?xml version="1.0" encoding="utf-8" standalone="no"?>
<!DOCTYPE svg PUBLIC "-//W3C//DTD SVG 1.1//EN"
  "http://www.w3.org/Graphics/SVG/1.1/DTD/svg11.dtd">
<svg xmlns:xlink="http://www.w3.org/1999/xlink" width="864pt" height="432pt" viewBox="0 0 864 432" xmlns="http://www.w3.org/2000/svg" version="1.1">
 <metadata>
  <rdf:RDF xmlns:dc="http://purl.org/dc/elements/1.1/" xmlns:cc="http://creativecommons.org/ns#" xmlns:rdf="http://www.w3.org/1999/02/22-rdf-syntax-ns#">
   <cc:Work>
    <dc:type rdf:resource="http://purl.org/dc/dcmitype/StillImage"/>
    <dc:date>2023-05-02T17:33:06.497260</dc:date>
    <dc:format>image/svg+xml</dc:format>
    <dc:creator>
     <cc:Agent>
      <dc:title>Matplotlib v3.5.1, https://matplotlib.org/</dc:title>
     </cc:Agent>
    </dc:creator>
   </cc:Work>
  </rdf:RDF>
 </metadata>
 <defs>
  <style type="text/css">*{stroke-linejoin: round; stroke-linecap: butt}</style>
 </defs>
 <g id="figure_1">
  <g id="patch_1">
   <path d="M 0 432 
L 864 432 
L 864 0 
L 0 0 
L 0 432 
z
" style="fill: none"/>
  </g>
  <g id="axes_1">
   <g id="patch_2">
    <path d="M 108 378 
L 777.6 378 
L 777.6 51.84 
L 108 51.84 
z
" style="fill: #ffffff"/>
   </g>
   <g id="PolyCollection_1">
    <defs>
     <path id="m3b8ad0aa8a" d="M 276.358784 -116.37655 
L 274.441216 -116.37655 
L 274.197806 -118.723934 
L 273.912291 -121.071318 
L 273.582889 -123.418702 
L 273.209191 -125.766087 
L 272.792429 -128.113471 
L 272.335658 -130.460855 
L 271.843818 -132.808239 
L 271.323655 -135.155624 
L 270.783475 -137.503008 
L 270.232729 -139.850392 
L 269.681447 -142.197776 
L 269.139546 -144.545161 
L 268.616078 -146.892545 
L 268.118478 -149.239929 
L 267.651889 -151.587314 
L 267.218652 -153.934698 
L 266.818022 -156.282082 
L 266.446173 -158.629466 
L 266.096507 -160.976851 
L 265.760275 -163.324235 
L 265.427469 -165.671619 
L 265.087899 -168.019003 
L 264.732375 -170.366388 
L 264.353864 -172.713772 
L 263.948504 -175.061156 
L 263.516354 -177.40854 
L 263.061796 -179.755925 
L 262.593521 -182.103309 
L 262.124078 -184.450693 
L 261.66901 -186.798077 
L 261.245657 -189.145462 
L 260.871709 -191.492846 
L 260.563661 -193.84023 
L 260.335293 -196.187614 
L 260.196332 -198.534999 
L 260.151408 -200.882383 
L 260.199387 -203.229767 
L 260.333139 -205.577151 
L 260.539731 -207.924536 
L 260.800997 -210.27192 
L 261.094406 -212.619304 
L 261.394104 -214.966688 
L 261.672005 -217.314073 
L 261.89879 -219.661457 
L 262.044725 -222.008841 
L 262.080198 -224.356225 
L 261.975962 -226.70361 
L 261.70307 -229.050994 
L 261.232596 -231.398378 
L 260.535201 -233.745762 
L 259.5807 -236.093147 
L 258.337749 -238.440531 
L 256.773784 -240.787915 
L 254.855315 -243.135299 
L 252.548661 -245.482684 
L 249.821124 -247.830068 
L 246.642617 -250.177452 
L 242.98765 -252.524836 
L 238.837598 -254.872221 
L 234.183106 -257.219605 
L 229.026511 -259.566989 
L 223.384121 -261.914373 
L 217.288221 -264.261758 
L 210.78868 -266.609142 
L 203.954032 -268.956526 
L 196.871932 -271.30391 
L 189.64887 -273.651295 
L 182.409049 -275.998679 
L 175.292348 -278.346063 
L 168.451293 -280.693448 
L 162.047021 -283.040832 
L 156.244254 -285.388216 
L 151.205399 -287.7356 
L 147.083964 -290.082985 
L 144.017593 -292.430369 
L 142.121104 -294.777753 
L 141.48 -297.125137 
L 142.144932 -299.472522 
L 144.127626 -301.819906 
L 147.398664 -304.16729 
L 151.887446 -306.514674 
L 157.484451 -308.862059 
L 164.045747 -311.209443 
L 171.399514 -313.556827 
L 179.354118 -315.904211 
L 187.707206 -318.251596 
L 196.255121 -320.59898 
L 204.801999 -322.946364 
L 213.16791 -325.293748 
L 221.195527 -327.641133 
L 228.754965 -329.988517 
L 235.746616 -332.335901 
L 242.10197 -334.683285 
L 247.782597 -337.03067 
L 252.777575 -339.378054 
L 257.099767 -341.725438 
L 260.781351 -344.072822 
L 263.869035 -346.420207 
L 266.419326 -348.767591 
L 284.380674 -348.767591 
L 284.380674 -348.767591 
L 286.930965 -346.420207 
L 290.018649 -344.072822 
L 293.700233 -341.725438 
L 298.022425 -339.378054 
L 303.017403 -337.03067 
L 308.69803 -334.683285 
L 315.053384 -332.335901 
L 322.045035 -329.988517 
L 329.604473 -327.641133 
L 337.63209 -325.293748 
L 345.998001 -322.946364 
L 354.544879 -320.59898 
L 363.092794 -318.251596 
L 371.445882 -315.904211 
L 379.400486 -313.556827 
L 386.754253 -311.209443 
L 393.315549 -308.862059 
L 398.912554 -306.514674 
L 403.401336 -304.16729 
L 406.672374 -301.819906 
L 408.655068 -299.472522 
L 409.32 -297.125137 
L 408.678896 -294.777753 
L 406.782407 -292.430369 
L 403.716036 -290.082985 
L 399.594601 -287.7356 
L 394.555746 -285.388216 
L 388.752979 -283.040832 
L 382.348707 -280.693448 
L 375.507652 -278.346063 
L 368.390951 -275.998679 
L 361.15113 -273.651295 
L 353.928068 -271.30391 
L 346.845968 -268.956526 
L 340.01132 -266.609142 
L 333.511779 -264.261758 
L 327.415879 -261.914373 
L 321.773489 -259.566989 
L 316.616894 -257.219605 
L 311.962402 -254.872221 
L 307.81235 -252.524836 
L 304.157383 -250.177452 
L 300.978876 -247.830068 
L 298.251339 -245.482684 
L 295.944685 -243.135299 
L 294.026216 -240.787915 
L 292.462251 -238.440531 
L 291.2193 -236.093147 
L 290.264799 -233.745762 
L 289.567404 -231.398378 
L 289.09693 -229.050994 
L 288.824038 -226.70361 
L 288.719802 -224.356225 
L 288.755275 -222.008841 
L 288.90121 -219.661457 
L 289.127995 -217.314073 
L 289.405896 -214.966688 
L 289.705594 -212.619304 
L 289.999003 -210.27192 
L 290.260269 -207.924536 
L 290.466861 -205.577151 
L 290.600613 -203.229767 
L 290.648592 -200.882383 
L 290.603668 -198.534999 
L 290.464707 -196.187614 
L 290.236339 -193.84023 
L 289.928291 -191.492846 
L 289.554343 -189.145462 
L 289.13099 -186.798077 
L 288.675922 -184.450693 
L 288.206479 -182.103309 
L 287.738204 -179.755925 
L 287.283646 -177.40854 
L 286.851496 -175.061156 
L 286.446136 -172.713772 
L 286.067625 -170.366388 
L 285.712101 -168.019003 
L 285.372531 -165.671619 
L 285.039725 -163.324235 
L 284.703493 -160.976851 
L 284.353827 -158.629466 
L 283.981978 -156.282082 
L 283.581348 -153.934698 
L 283.148111 -151.587314 
L 282.681522 -149.239929 
L 282.183922 -146.892545 
L 281.660454 -144.545161 
L 281.118553 -142.197776 
L 280.567271 -139.850392 
L 280.016525 -137.503008 
L 279.476345 -135.155624 
L 278.956182 -132.808239 
L 278.464342 -130.460855 
L 278.007571 -128.113471 
L 277.590809 -125.766087 
L 277.217111 -123.418702 
L 276.887709 -121.071318 
L 276.602194 -118.723934 
L 276.358784 -116.37655 
z
" style="stroke: #3f3f3f; stroke-width: 2.25"/>
    </defs>
    <g clip-path="url(#p49deaf3aa6)">
     <use xlink:href="#m3b8ad0aa8a" x="0" y="432" style="fill: #3274a1; stroke: #3f3f3f; stroke-width: 2.25"/>
    </g>
   </g>
   <g id="PolyCollection_2">
    <defs>
     <path id="mb3d9bf4e66" d="M 611.126895 -68.825455 
L 609.273105 -68.825455 
L 609.030592 -71.820496 
L 608.736306 -74.815537 
L 608.38199 -77.810579 
L 607.958604 -80.80562 
L 607.456332 -83.800661 
L 606.864602 -86.795702 
L 606.172129 -89.790744 
L 605.366993 -92.785785 
L 604.436753 -95.780826 
L 603.36862 -98.775868 
L 602.149703 -101.770909 
L 600.767323 -104.76595 
L 599.209433 -107.760992 
L 597.46513 -110.756033 
L 595.525255 -113.751074 
L 593.383087 -116.746116 
L 591.035092 -119.741157 
L 588.4817 -122.736198 
L 585.728066 -125.73124 
L 582.784766 -128.726281 
L 579.668356 -131.721322 
L 576.401757 -134.716364 
L 573.014395 -137.711405 
L 569.542049 -140.706446 
L 566.026404 -143.701488 
L 562.514261 -146.696529 
L 559.056449 -149.69157 
L 555.706455 -152.686612 
L 552.518835 -155.681653 
L 549.54748 -158.676694 
L 546.843817 -161.671736 
L 544.455056 -164.666777 
L 542.422556 -167.661818 
L 540.78041 -170.65686 
L 539.554313 -173.651901 
L 538.760774 -176.646942 
L 538.40669 -179.641983 
L 538.489306 -182.637025 
L 538.996527 -185.632066 
L 539.907557 -188.627107 
L 541.193813 -191.622149 
L 542.820035 -194.61719 
L 544.745546 -197.612231 
L 546.925562 -200.607273 
L 549.312518 -203.602314 
L 551.857334 -206.597355 
L 554.510585 -209.592397 
L 557.223547 -212.587438 
L 559.949109 -215.582479 
L 562.64255 -218.577521 
L 565.262178 -221.572562 
L 567.769877 -224.567603 
L 570.131557 -227.562645 
L 572.317547 -230.557686 
L 574.302937 -233.552727 
L 576.06789 -236.547769 
L 577.597925 -239.54281 
L 578.884165 -242.537851 
L 579.923533 -245.532893 
L 580.718879 -248.527934 
L 581.279019 -251.522975 
L 581.618638 -254.518017 
L 581.758062 -257.513058 
L 581.722843 -260.508099 
L 581.543179 -263.50314 
L 581.253143 -266.498182 
L 580.889735 -269.493223 
L 580.491787 -272.488264 
L 580.098741 -275.483306 
L 579.749362 -278.478347 
L 579.480418 -281.473388 
L 579.325402 -284.46843 
L 579.313352 -287.463471 
L 579.467826 -290.458512 
L 579.806094 -293.453554 
L 580.338578 -296.448595 
L 581.068586 -299.443636 
L 581.992355 -302.438678 
L 583.099387 -305.433719 
L 584.373083 -308.42876 
L 585.791617 -311.423802 
L 587.329021 -314.418843 
L 588.9564 -317.413884 
L 590.643221 -320.408926 
L 592.358603 -323.403967 
L 594.07254 -326.399008 
L 595.756989 -329.39405 
L 597.386784 -332.389091 
L 598.940339 -335.384132 
L 600.400114 -338.379174 
L 601.752851 -341.374215 
L 602.989584 -344.369256 
L 604.105449 -347.364298 
L 605.099337 -350.359339 
L 605.973417 -353.35438 
L 606.732583 -356.349421 
L 607.383858 -359.344463 
L 607.935805 -362.339504 
L 608.397959 -365.334545 
L 612.002041 -365.334545 
L 612.002041 -365.334545 
L 612.464195 -362.339504 
L 613.016142 -359.344463 
L 613.667417 -356.349421 
L 614.426583 -353.35438 
L 615.300663 -350.359339 
L 616.294551 -347.364298 
L 617.410416 -344.369256 
L 618.647149 -341.374215 
L 619.999886 -338.379174 
L 621.459661 -335.384132 
L 623.013216 -332.389091 
L 624.643011 -329.39405 
L 626.32746 -326.399008 
L 628.041397 -323.403967 
L 629.756779 -320.408926 
L 631.4436 -317.413884 
L 633.070979 -314.418843 
L 634.608383 -311.423802 
L 636.026917 -308.42876 
L 637.300613 -305.433719 
L 638.407645 -302.438678 
L 639.331414 -299.443636 
L 640.061422 -296.448595 
L 640.593906 -293.453554 
L 640.932174 -290.458512 
L 641.086648 -287.463471 
L 641.074598 -284.46843 
L 640.919582 -281.473388 
L 640.650638 -278.478347 
L 640.301259 -275.483306 
L 639.908213 -272.488264 
L 639.510265 -269.493223 
L 639.146857 -266.498182 
L 638.856821 -263.50314 
L 638.677157 -260.508099 
L 638.641938 -257.513058 
L 638.781362 -254.518017 
L 639.120981 -251.522975 
L 639.681121 -248.527934 
L 640.476467 -245.532893 
L 641.515835 -242.537851 
L 642.802075 -239.54281 
L 644.33211 -236.547769 
L 646.097063 -233.552727 
L 648.082453 -230.557686 
L 650.268443 -227.562645 
L 652.630123 -224.567603 
L 655.137822 -221.572562 
L 657.75745 -218.577521 
L 660.450891 -215.582479 
L 663.176453 -212.587438 
L 665.889415 -209.592397 
L 668.542666 -206.597355 
L 671.087482 -203.602314 
L 673.474438 -200.607273 
L 675.654454 -197.612231 
L 677.579965 -194.61719 
L 679.206187 -191.622149 
L 680.492443 -188.627107 
L 681.403473 -185.632066 
L 681.910694 -182.637025 
L 681.99331 -179.641983 
L 681.639226 -176.646942 
L 680.845687 -173.651901 
L 679.61959 -170.65686 
L 677.977444 -167.661818 
L 675.944944 -164.666777 
L 673.556183 -161.671736 
L 670.85252 -158.676694 
L 667.881165 -155.681653 
L 664.693545 -152.686612 
L 661.343551 -149.69157 
L 657.885739 -146.696529 
L 654.373596 -143.701488 
L 650.857951 -140.706446 
L 647.385605 -137.711405 
L 643.998243 -134.716364 
L 640.731644 -131.721322 
L 637.615234 -128.726281 
L 634.671934 -125.73124 
L 631.9183 -122.736198 
L 629.364908 -119.741157 
L 627.016913 -116.746116 
L 624.874745 -113.751074 
L 622.93487 -110.756033 
L 621.190567 -107.760992 
L 619.632677 -104.76595 
L 618.250297 -101.770909 
L 617.03138 -98.775868 
L 615.963247 -95.780826 
L 615.033007 -92.785785 
L 614.227871 -89.790744 
L 613.535398 -86.795702 
L 612.943668 -83.800661 
L 612.441396 -80.80562 
L 612.01801 -77.810579 
L 611.663694 -74.815537 
L 611.369408 -71.820496 
L 611.126895 -68.825455 
z
" style="stroke: #3f3f3f; stroke-width: 2.25"/>
    </defs>
    <g clip-path="url(#p49deaf3aa6)">
     <use xlink:href="#mb3d9bf4e66" x="0" y="432" style="fill: #e1812c; stroke: #3f3f3f; stroke-width: 2.25"/>
    </g>
   </g>
   <g id="matplotlib.axis_1">
    <g id="xtick_1">
     <g id="line2d_1">
      <defs>
       <path id="m92dc0e577d" d="M 0 0 
L 0 9 
" style="stroke: #000000; stroke-width: 1.875"/>
      </defs>
      <g>
       <use xlink:href="#m92dc0e577d" x="275.4" y="378" style="stroke: #000000; stroke-width: 1.875"/>
      </g>
     </g>
     <g id="text_1">
      <!-- blocked_rep -->
      <g transform="translate(225.849727 403.037422)scale(0.165 -0.165)">
       <defs>
        <path id="DejaVuSans-62" d="M 3116 1747 
Q 3116 2381 2855 2742 
Q 2594 3103 2138 3103 
Q 1681 3103 1420 2742 
Q 1159 2381 1159 1747 
Q 1159 1113 1420 752 
Q 1681 391 2138 391 
Q 2594 391 2855 752 
Q 3116 1113 3116 1747 
z
M 1159 2969 
Q 1341 3281 1617 3432 
Q 1894 3584 2278 3584 
Q 2916 3584 3314 3078 
Q 3713 2572 3713 1747 
Q 3713 922 3314 415 
Q 2916 -91 2278 -91 
Q 1894 -91 1617 61 
Q 1341 213 1159 525 
L 1159 0 
L 581 0 
L 581 4863 
L 1159 4863 
L 1159 2969 
z
" transform="scale(0.015625)"/>
        <path id="DejaVuSans-6c" d="M 603 4863 
L 1178 4863 
L 1178 0 
L 603 0 
L 603 4863 
z
" transform="scale(0.015625)"/>
        <path id="DejaVuSans-6f" d="M 1959 3097 
Q 1497 3097 1228 2736 
Q 959 2375 959 1747 
Q 959 1119 1226 758 
Q 1494 397 1959 397 
Q 2419 397 2687 759 
Q 2956 1122 2956 1747 
Q 2956 2369 2687 2733 
Q 2419 3097 1959 3097 
z
M 1959 3584 
Q 2709 3584 3137 3096 
Q 3566 2609 3566 1747 
Q 3566 888 3137 398 
Q 2709 -91 1959 -91 
Q 1206 -91 779 398 
Q 353 888 353 1747 
Q 353 2609 779 3096 
Q 1206 3584 1959 3584 
z
" transform="scale(0.015625)"/>
        <path id="DejaVuSans-63" d="M 3122 3366 
L 3122 2828 
Q 2878 2963 2633 3030 
Q 2388 3097 2138 3097 
Q 1578 3097 1268 2742 
Q 959 2388 959 1747 
Q 959 1106 1268 751 
Q 1578 397 2138 397 
Q 2388 397 2633 464 
Q 2878 531 3122 666 
L 3122 134 
Q 2881 22 2623 -34 
Q 2366 -91 2075 -91 
Q 1284 -91 818 406 
Q 353 903 353 1747 
Q 353 2603 823 3093 
Q 1294 3584 2113 3584 
Q 2378 3584 2631 3529 
Q 2884 3475 3122 3366 
z
" transform="scale(0.015625)"/>
        <path id="DejaVuSans-6b" d="M 581 4863 
L 1159 4863 
L 1159 1991 
L 2875 3500 
L 3609 3500 
L 1753 1863 
L 3688 0 
L 2938 0 
L 1159 1709 
L 1159 0 
L 581 0 
L 581 4863 
z
" transform="scale(0.015625)"/>
        <path id="DejaVuSans-65" d="M 3597 1894 
L 3597 1613 
L 953 1613 
Q 991 1019 1311 708 
Q 1631 397 2203 397 
Q 2534 397 2845 478 
Q 3156 559 3463 722 
L 3463 178 
Q 3153 47 2828 -22 
Q 2503 -91 2169 -91 
Q 1331 -91 842 396 
Q 353 884 353 1716 
Q 353 2575 817 3079 
Q 1281 3584 2069 3584 
Q 2775 3584 3186 3129 
Q 3597 2675 3597 1894 
z
M 3022 2063 
Q 3016 2534 2758 2815 
Q 2500 3097 2075 3097 
Q 1594 3097 1305 2825 
Q 1016 2553 972 2059 
L 3022 2063 
z
" transform="scale(0.015625)"/>
        <path id="DejaVuSans-64" d="M 2906 2969 
L 2906 4863 
L 3481 4863 
L 3481 0 
L 2906 0 
L 2906 525 
Q 2725 213 2448 61 
Q 2172 -91 1784 -91 
Q 1150 -91 751 415 
Q 353 922 353 1747 
Q 353 2572 751 3078 
Q 1150 3584 1784 3584 
Q 2172 3584 2448 3432 
Q 2725 3281 2906 2969 
z
M 947 1747 
Q 947 1113 1208 752 
Q 1469 391 1925 391 
Q 2381 391 2643 752 
Q 2906 1113 2906 1747 
Q 2906 2381 2643 2742 
Q 2381 3103 1925 3103 
Q 1469 3103 1208 2742 
Q 947 2381 947 1747 
z
" transform="scale(0.015625)"/>
        <path id="DejaVuSans-5f" d="M 3263 -1063 
L 3263 -1509 
L -63 -1509 
L -63 -1063 
L 3263 -1063 
z
" transform="scale(0.015625)"/>
        <path id="DejaVuSans-72" d="M 2631 2963 
Q 2534 3019 2420 3045 
Q 2306 3072 2169 3072 
Q 1681 3072 1420 2755 
Q 1159 2438 1159 1844 
L 1159 0 
L 581 0 
L 581 3500 
L 1159 3500 
L 1159 2956 
Q 1341 3275 1631 3429 
Q 1922 3584 2338 3584 
Q 2397 3584 2469 3576 
Q 2541 3569 2628 3553 
L 2631 2963 
z
" transform="scale(0.015625)"/>
        <path id="DejaVuSans-70" d="M 1159 525 
L 1159 -1331 
L 581 -1331 
L 581 3500 
L 1159 3500 
L 1159 2969 
Q 1341 3281 1617 3432 
Q 1894 3584 2278 3584 
Q 2916 3584 3314 3078 
Q 3713 2572 3713 1747 
Q 3713 922 3314 415 
Q 2916 -91 2278 -91 
Q 1894 -91 1617 61 
Q 1341 213 1159 525 
z
M 3116 1747 
Q 3116 2381 2855 2742 
Q 2594 3103 2138 3103 
Q 1681 3103 1420 2742 
Q 1159 2381 1159 1747 
Q 1159 1113 1420 752 
Q 1681 391 2138 391 
Q 2594 391 2855 752 
Q 3116 1113 3116 1747 
z
" transform="scale(0.015625)"/>
       </defs>
       <use xlink:href="#DejaVuSans-62"/>
       <use xlink:href="#DejaVuSans-6c" x="63.476562"/>
       <use xlink:href="#DejaVuSans-6f" x="91.259766"/>
       <use xlink:href="#DejaVuSans-63" x="152.441406"/>
       <use xlink:href="#DejaVuSans-6b" x="207.421875"/>
       <use xlink:href="#DejaVuSans-65" x="261.707031"/>
       <use xlink:href="#DejaVuSans-64" x="323.230469"/>
       <use xlink:href="#DejaVuSans-5f" x="386.707031"/>
       <use xlink:href="#DejaVuSans-72" x="436.707031"/>
       <use xlink:href="#DejaVuSans-65" x="475.570312"/>
       <use xlink:href="#DejaVuSans-70" x="537.09375"/>
      </g>
     </g>
    </g>
    <g id="xtick_2">
     <g id="line2d_2">
      <g>
       <use xlink:href="#m92dc0e577d" x="610.2" y="378" style="stroke: #000000; stroke-width: 1.875"/>
      </g>
     </g>
     <g id="text_2">
      <!-- interleaved_rep -->
      <g transform="translate(545.71207 403.037422)scale(0.165 -0.165)">
       <defs>
        <path id="DejaVuSans-69" d="M 603 3500 
L 1178 3500 
L 1178 0 
L 603 0 
L 603 3500 
z
M 603 4863 
L 1178 4863 
L 1178 4134 
L 603 4134 
L 603 4863 
z
" transform="scale(0.015625)"/>
        <path id="DejaVuSans-6e" d="M 3513 2113 
L 3513 0 
L 2938 0 
L 2938 2094 
Q 2938 2591 2744 2837 
Q 2550 3084 2163 3084 
Q 1697 3084 1428 2787 
Q 1159 2491 1159 1978 
L 1159 0 
L 581 0 
L 581 3500 
L 1159 3500 
L 1159 2956 
Q 1366 3272 1645 3428 
Q 1925 3584 2291 3584 
Q 2894 3584 3203 3211 
Q 3513 2838 3513 2113 
z
" transform="scale(0.015625)"/>
        <path id="DejaVuSans-74" d="M 1172 4494 
L 1172 3500 
L 2356 3500 
L 2356 3053 
L 1172 3053 
L 1172 1153 
Q 1172 725 1289 603 
Q 1406 481 1766 481 
L 2356 481 
L 2356 0 
L 1766 0 
Q 1100 0 847 248 
Q 594 497 594 1153 
L 594 3053 
L 172 3053 
L 172 3500 
L 594 3500 
L 594 4494 
L 1172 4494 
z
" transform="scale(0.015625)"/>
        <path id="DejaVuSans-61" d="M 2194 1759 
Q 1497 1759 1228 1600 
Q 959 1441 959 1056 
Q 959 750 1161 570 
Q 1363 391 1709 391 
Q 2188 391 2477 730 
Q 2766 1069 2766 1631 
L 2766 1759 
L 2194 1759 
z
M 3341 1997 
L 3341 0 
L 2766 0 
L 2766 531 
Q 2569 213 2275 61 
Q 1981 -91 1556 -91 
Q 1019 -91 701 211 
Q 384 513 384 1019 
Q 384 1609 779 1909 
Q 1175 2209 1959 2209 
L 2766 2209 
L 2766 2266 
Q 2766 2663 2505 2880 
Q 2244 3097 1772 3097 
Q 1472 3097 1187 3025 
Q 903 2953 641 2809 
L 641 3341 
Q 956 3463 1253 3523 
Q 1550 3584 1831 3584 
Q 2591 3584 2966 3190 
Q 3341 2797 3341 1997 
z
" transform="scale(0.015625)"/>
        <path id="DejaVuSans-76" d="M 191 3500 
L 800 3500 
L 1894 563 
L 2988 3500 
L 3597 3500 
L 2284 0 
L 1503 0 
L 191 3500 
z
" transform="scale(0.015625)"/>
       </defs>
       <use xlink:href="#DejaVuSans-69"/>
       <use xlink:href="#DejaVuSans-6e" x="27.783203"/>
       <use xlink:href="#DejaVuSans-74" x="91.162109"/>
       <use xlink:href="#DejaVuSans-65" x="130.371094"/>
       <use xlink:href="#DejaVuSans-72" x="191.894531"/>
       <use xlink:href="#DejaVuSans-6c" x="233.007812"/>
       <use xlink:href="#DejaVuSans-65" x="260.791016"/>
       <use xlink:href="#DejaVuSans-61" x="322.314453"/>
       <use xlink:href="#DejaVuSans-76" x="383.59375"/>
       <use xlink:href="#DejaVuSans-65" x="442.773438"/>
       <use xlink:href="#DejaVuSans-64" x="504.296875"/>
       <use xlink:href="#DejaVuSans-5f" x="567.773438"/>
       <use xlink:href="#DejaVuSans-72" x="617.773438"/>
       <use xlink:href="#DejaVuSans-65" x="656.636719"/>
       <use xlink:href="#DejaVuSans-70" x="718.160156"/>
      </g>
     </g>
    </g>
    <g id="text_3">
     <!-- condition -->
     <g transform="translate(401.187656 424.605)scale(0.18 -0.18)">
      <use xlink:href="#DejaVuSans-63"/>
      <use xlink:href="#DejaVuSans-6f" x="54.980469"/>
      <use xlink:href="#DejaVuSans-6e" x="116.162109"/>
      <use xlink:href="#DejaVuSans-64" x="179.541016"/>
      <use xlink:href="#DejaVuSans-69" x="243.017578"/>
      <use xlink:href="#DejaVuSans-74" x="270.800781"/>
      <use xlink:href="#DejaVuSans-69" x="310.009766"/>
      <use xlink:href="#DejaVuSans-6f" x="337.792969"/>
      <use xlink:href="#DejaVuSans-6e" x="398.974609"/>
     </g>
    </g>
   </g>
   <g id="matplotlib.axis_2">
    <g id="ytick_1">
     <g id="line2d_3">
      <defs>
       <path id="mfdbcf629ed" d="M 0 0 
L -9 0 
" style="stroke: #000000; stroke-width: 1.875"/>
      </defs>
      <g>
       <use xlink:href="#mfdbcf629ed" x="108" y="346.417366" style="stroke: #000000; stroke-width: 1.875"/>
      </g>
     </g>
     <g id="text_4">
      <!-- 0.2 -->
      <g transform="translate(69.259844 352.686077)scale(0.165 -0.165)">
       <defs>
        <path id="DejaVuSans-30" d="M 2034 4250 
Q 1547 4250 1301 3770 
Q 1056 3291 1056 2328 
Q 1056 1369 1301 889 
Q 1547 409 2034 409 
Q 2525 409 2770 889 
Q 3016 1369 3016 2328 
Q 3016 3291 2770 3770 
Q 2525 4250 2034 4250 
z
M 2034 4750 
Q 2819 4750 3233 4129 
Q 3647 3509 3647 2328 
Q 3647 1150 3233 529 
Q 2819 -91 2034 -91 
Q 1250 -91 836 529 
Q 422 1150 422 2328 
Q 422 3509 836 4129 
Q 1250 4750 2034 4750 
z
" transform="scale(0.015625)"/>
        <path id="DejaVuSans-2e" d="M 684 794 
L 1344 794 
L 1344 0 
L 684 0 
L 684 794 
z
" transform="scale(0.015625)"/>
        <path id="DejaVuSans-32" d="M 1228 531 
L 3431 531 
L 3431 0 
L 469 0 
L 469 531 
Q 828 903 1448 1529 
Q 2069 2156 2228 2338 
Q 2531 2678 2651 2914 
Q 2772 3150 2772 3378 
Q 2772 3750 2511 3984 
Q 2250 4219 1831 4219 
Q 1534 4219 1204 4116 
Q 875 4013 500 3803 
L 500 4441 
Q 881 4594 1212 4672 
Q 1544 4750 1819 4750 
Q 2544 4750 2975 4387 
Q 3406 4025 3406 3419 
Q 3406 3131 3298 2873 
Q 3191 2616 2906 2266 
Q 2828 2175 2409 1742 
Q 1991 1309 1228 531 
z
" transform="scale(0.015625)"/>
       </defs>
       <use xlink:href="#DejaVuSans-30"/>
       <use xlink:href="#DejaVuSans-2e" x="63.623047"/>
       <use xlink:href="#DejaVuSans-32" x="95.410156"/>
      </g>
     </g>
    </g>
    <g id="ytick_2">
     <g id="line2d_4">
      <g>
       <use xlink:href="#mfdbcf629ed" x="108" y="290.746948" style="stroke: #000000; stroke-width: 1.875"/>
      </g>
     </g>
     <g id="text_5">
      <!-- 0.4 -->
      <g transform="translate(69.259844 297.015659)scale(0.165 -0.165)">
       <defs>
        <path id="DejaVuSans-34" d="M 2419 4116 
L 825 1625 
L 2419 1625 
L 2419 4116 
z
M 2253 4666 
L 3047 4666 
L 3047 1625 
L 3713 1625 
L 3713 1100 
L 3047 1100 
L 3047 0 
L 2419 0 
L 2419 1100 
L 313 1100 
L 313 1709 
L 2253 4666 
z
" transform="scale(0.015625)"/>
       </defs>
       <use xlink:href="#DejaVuSans-30"/>
       <use xlink:href="#DejaVuSans-2e" x="63.623047"/>
       <use xlink:href="#DejaVuSans-34" x="95.410156"/>
      </g>
     </g>
    </g>
    <g id="ytick_3">
     <g id="line2d_5">
      <g>
       <use xlink:href="#mfdbcf629ed" x="108" y="235.076531" style="stroke: #000000; stroke-width: 1.875"/>
      </g>
     </g>
     <g id="text_6">
      <!-- 0.6 -->
      <g transform="translate(69.259844 241.345242)scale(0.165 -0.165)">
       <defs>
        <path id="DejaVuSans-36" d="M 2113 2584 
Q 1688 2584 1439 2293 
Q 1191 2003 1191 1497 
Q 1191 994 1439 701 
Q 1688 409 2113 409 
Q 2538 409 2786 701 
Q 3034 994 3034 1497 
Q 3034 2003 2786 2293 
Q 2538 2584 2113 2584 
z
M 3366 4563 
L 3366 3988 
Q 3128 4100 2886 4159 
Q 2644 4219 2406 4219 
Q 1781 4219 1451 3797 
Q 1122 3375 1075 2522 
Q 1259 2794 1537 2939 
Q 1816 3084 2150 3084 
Q 2853 3084 3261 2657 
Q 3669 2231 3669 1497 
Q 3669 778 3244 343 
Q 2819 -91 2113 -91 
Q 1303 -91 875 529 
Q 447 1150 447 2328 
Q 447 3434 972 4092 
Q 1497 4750 2381 4750 
Q 2619 4750 2861 4703 
Q 3103 4656 3366 4563 
z
" transform="scale(0.015625)"/>
       </defs>
       <use xlink:href="#DejaVuSans-30"/>
       <use xlink:href="#DejaVuSans-2e" x="63.623047"/>
       <use xlink:href="#DejaVuSans-36" x="95.410156"/>
      </g>
     </g>
    </g>
    <g id="ytick_4">
     <g id="line2d_6">
      <g>
       <use xlink:href="#mfdbcf629ed" x="108" y="179.406113" style="stroke: #000000; stroke-width: 1.875"/>
      </g>
     </g>
     <g id="text_7">
      <!-- 0.8 -->
      <g transform="translate(69.259844 185.674824)scale(0.165 -0.165)">
       <defs>
        <path id="DejaVuSans-38" d="M 2034 2216 
Q 1584 2216 1326 1975 
Q 1069 1734 1069 1313 
Q 1069 891 1326 650 
Q 1584 409 2034 409 
Q 2484 409 2743 651 
Q 3003 894 3003 1313 
Q 3003 1734 2745 1975 
Q 2488 2216 2034 2216 
z
M 1403 2484 
Q 997 2584 770 2862 
Q 544 3141 544 3541 
Q 544 4100 942 4425 
Q 1341 4750 2034 4750 
Q 2731 4750 3128 4425 
Q 3525 4100 3525 3541 
Q 3525 3141 3298 2862 
Q 3072 2584 2669 2484 
Q 3125 2378 3379 2068 
Q 3634 1759 3634 1313 
Q 3634 634 3220 271 
Q 2806 -91 2034 -91 
Q 1263 -91 848 271 
Q 434 634 434 1313 
Q 434 1759 690 2068 
Q 947 2378 1403 2484 
z
M 1172 3481 
Q 1172 3119 1398 2916 
Q 1625 2713 2034 2713 
Q 2441 2713 2670 2916 
Q 2900 3119 2900 3481 
Q 2900 3844 2670 4047 
Q 2441 4250 2034 4250 
Q 1625 4250 1398 4047 
Q 1172 3844 1172 3481 
z
" transform="scale(0.015625)"/>
       </defs>
       <use xlink:href="#DejaVuSans-30"/>
       <use xlink:href="#DejaVuSans-2e" x="63.623047"/>
       <use xlink:href="#DejaVuSans-38" x="95.410156"/>
      </g>
     </g>
    </g>
    <g id="ytick_5">
     <g id="line2d_7">
      <g>
       <use xlink:href="#mfdbcf629ed" x="108" y="123.735695" style="stroke: #000000; stroke-width: 1.875"/>
      </g>
     </g>
     <g id="text_8">
      <!-- 1.0 -->
      <g transform="translate(69.259844 130.004406)scale(0.165 -0.165)">
       <defs>
        <path id="DejaVuSans-31" d="M 794 531 
L 1825 531 
L 1825 4091 
L 703 3866 
L 703 4441 
L 1819 4666 
L 2450 4666 
L 2450 531 
L 3481 531 
L 3481 0 
L 794 0 
L 794 531 
z
" transform="scale(0.015625)"/>
       </defs>
       <use xlink:href="#DejaVuSans-31"/>
       <use xlink:href="#DejaVuSans-2e" x="63.623047"/>
       <use xlink:href="#DejaVuSans-30" x="95.410156"/>
      </g>
     </g>
    </g>
    <g id="ytick_6">
     <g id="line2d_8">
      <g>
       <use xlink:href="#mfdbcf629ed" x="108" y="68.065277" style="stroke: #000000; stroke-width: 1.875"/>
      </g>
     </g>
     <g id="text_9">
      <!-- 1.2 -->
      <g transform="translate(69.259844 74.333988)scale(0.165 -0.165)">
       <use xlink:href="#DejaVuSans-31"/>
       <use xlink:href="#DejaVuSans-2e" x="63.623047"/>
       <use xlink:href="#DejaVuSans-32" x="95.410156"/>
      </g>
     </g>
    </g>
    <g id="text_10">
     <!-- prediction accuracy -->
     <g transform="translate(61.516406 303.537656)rotate(-90)scale(0.18 -0.18)">
      <defs>
       <path id="DejaVuSans-20" transform="scale(0.015625)"/>
       <path id="DejaVuSans-75" d="M 544 1381 
L 544 3500 
L 1119 3500 
L 1119 1403 
Q 1119 906 1312 657 
Q 1506 409 1894 409 
Q 2359 409 2629 706 
Q 2900 1003 2900 1516 
L 2900 3500 
L 3475 3500 
L 3475 0 
L 2900 0 
L 2900 538 
Q 2691 219 2414 64 
Q 2138 -91 1772 -91 
Q 1169 -91 856 284 
Q 544 659 544 1381 
z
M 1991 3584 
L 1991 3584 
z
" transform="scale(0.015625)"/>
       <path id="DejaVuSans-79" d="M 2059 -325 
Q 1816 -950 1584 -1140 
Q 1353 -1331 966 -1331 
L 506 -1331 
L 506 -850 
L 844 -850 
Q 1081 -850 1212 -737 
Q 1344 -625 1503 -206 
L 1606 56 
L 191 3500 
L 800 3500 
L 1894 763 
L 2988 3500 
L 3597 3500 
L 2059 -325 
z
" transform="scale(0.015625)"/>
      </defs>
      <use xlink:href="#DejaVuSans-70"/>
      <use xlink:href="#DejaVuSans-72" x="63.476562"/>
      <use xlink:href="#DejaVuSans-65" x="102.339844"/>
      <use xlink:href="#DejaVuSans-64" x="163.863281"/>
      <use xlink:href="#DejaVuSans-69" x="227.339844"/>
      <use xlink:href="#DejaVuSans-63" x="255.123047"/>
      <use xlink:href="#DejaVuSans-74" x="310.103516"/>
      <use xlink:href="#DejaVuSans-69" x="349.3125"/>
      <use xlink:href="#DejaVuSans-6f" x="377.095703"/>
      <use xlink:href="#DejaVuSans-6e" x="438.277344"/>
      <use xlink:href="#DejaVuSans-20" x="501.65625"/>
      <use xlink:href="#DejaVuSans-61" x="533.443359"/>
      <use xlink:href="#DejaVuSans-63" x="594.722656"/>
      <use xlink:href="#DejaVuSans-63" x="649.703125"/>
      <use xlink:href="#DejaVuSans-75" x="704.683594"/>
      <use xlink:href="#DejaVuSans-72" x="768.0625"/>
      <use xlink:href="#DejaVuSans-61" x="809.175781"/>
      <use xlink:href="#DejaVuSans-63" x="870.455078"/>
      <use xlink:href="#DejaVuSans-79" x="925.435547"/>
     </g>
    </g>
   </g>
   <g id="line2d_9">
    <path d="M 275.4 190.010002 
L 275.4 123.735695 
" clip-path="url(#p49deaf3aa6)" style="fill: none; stroke: #3f3f3f; stroke-width: 2.25; stroke-linecap: square"/>
   </g>
   <g id="line2d_10">
    <path d="M 275.4 153.257886 
L 275.4 128.555918 
" clip-path="url(#p49deaf3aa6)" style="fill: none; stroke: #3f3f3f; stroke-width: 6.75; stroke-linecap: square"/>
   </g>
   <g id="line2d_11">
    <path d="M 610.2 306.104305 
L 610.2 123.735695 
" clip-path="url(#p49deaf3aa6)" style="fill: none; stroke: #3f3f3f; stroke-width: 2.25; stroke-linecap: square"/>
   </g>
   <g id="line2d_12">
    <path d="M 610.2 261.844611 
L 610.2 186.44657 
" clip-path="url(#p49deaf3aa6)" style="fill: none; stroke: #3f3f3f; stroke-width: 6.75; stroke-linecap: square"/>
   </g>
   <g id="patch_3">
    <path d="M 108 378 
L 108 51.84 
" style="fill: none; stroke: #000000; stroke-width: 1.875; stroke-linejoin: miter; stroke-linecap: square"/>
   </g>
   <g id="patch_4">
    <path d="M 777.6 378 
L 777.6 51.84 
" style="fill: none; stroke: #000000; stroke-width: 1.875; stroke-linejoin: miter; stroke-linecap: square"/>
   </g>
   <g id="patch_5">
    <path d="M 108 378 
L 777.6 378 
" style="fill: none; stroke: #000000; stroke-width: 1.875; stroke-linejoin: miter; stroke-linecap: square"/>
   </g>
   <g id="patch_6">
    <path d="M 108 51.84 
L 777.6 51.84 
" style="fill: none; stroke: #000000; stroke-width: 1.875; stroke-linejoin: miter; stroke-linecap: square"/>
   </g>
   <g id="PathCollection_1">
    <defs>
     <path id="md4fe6dba87" d="M 0 2.25 
C 0.596707 2.25 1.169055 2.012926 1.59099 1.59099 
C 2.012926 1.169055 2.25 0.596707 2.25 0 
C 2.25 -0.596707 2.012926 -1.169055 1.59099 -1.59099 
C 1.169055 -2.012926 0.596707 -2.25 0 -2.25 
C -0.596707 -2.25 -1.169055 -2.012926 -1.59099 -1.59099 
C -2.012926 -1.169055 -2.25 -0.596707 -2.25 0 
C -2.25 0.596707 -2.012926 1.169055 -1.59099 1.59099 
C -1.169055 2.012926 -0.596707 2.25 0 2.25 
z
" style="stroke: #3f3f3f; stroke-width: 1.5"/>
    </defs>
    <g clip-path="url(#p49deaf3aa6)">
     <use xlink:href="#md4fe6dba87" x="275.4" y="134.059193" style="fill: #ffffff; stroke: #3f3f3f; stroke-width: 1.5"/>
    </g>
   </g>
   <g id="PathCollection_2">
    <g clip-path="url(#p49deaf3aa6)">
     <use xlink:href="#md4fe6dba87" x="610.2" y="238.546246" style="fill: #ffffff; stroke: #3f3f3f; stroke-width: 1.5"/>
    </g>
   </g>
  </g>
 </g>
 <defs>
  <clipPath id="p49deaf3aa6">
   <rect x="108" y="51.84" width="669.6" height="326.16"/>
  </clipPath>
 </defs>
</svg>
