<?xml version="1.0" encoding="utf-8" standalone="no"?>
<!DOCTYPE svg PUBLIC "-//W3C//DTD SVG 1.1//EN"
  "http://www.w3.org/Graphics/SVG/1.1/DTD/svg11.dtd">
<svg xmlns:xlink="http://www.w3.org/1999/xlink" width="864pt" height="432pt" viewBox="0 0 864 432" xmlns="http://www.w3.org/2000/svg" version="1.1">
 <metadata>
  <rdf:RDF xmlns:dc="http://purl.org/dc/elements/1.1/" xmlns:cc="http://creativecommons.org/ns#" xmlns:rdf="http://www.w3.org/1999/02/22-rdf-syntax-ns#">
   <cc:Work>
    <dc:type rdf:resource="http://purl.org/dc/dcmitype/StillImage"/>
    <dc:date>2023-05-02T17:08:48.640827</dc:date>
    <dc:format>image/svg+xml</dc:format>
    <dc:creator>
     <cc:Agent>
      <dc:title>Matplotlib v3.5.1, https://matplotlib.org/</dc:title>
     </cc:Agent>
    </dc:creator>
   </cc:Work>
  </rdf:RDF>
 </metadata>
 <defs>
  <style type="text/css">*{stroke-linejoin: round; stroke-linecap: butt}</style>
 </defs>
 <g id="figure_1">
  <g id="patch_1">
   <path d="M 0 432 
L 864 432 
L 864 0 
L 0 0 
L 0 432 
z
" style="fill: none"/>
  </g>
  <g id="axes_1">
   <g id="patch_2">
    <path d="M 108 378 
L 777.6 378 
L 777.6 51.84 
L 108 51.84 
z
" style="fill: #ffffff"/>
   </g>
   <g id="PolyCollection_1">
    <defs>
     <path id="me4b1237236" d="M 220.330039 -114.810485 
L 218.869961 -114.810485 
L 218.676223 -117.110795 
L 218.448161 -119.411105 
L 218.184796 -121.711416 
L 217.886637 -124.011726 
L 217.555988 -126.312036 
L 217.19718 -128.612346 
L 216.816676 -130.912656 
L 216.423039 -133.212966 
L 216.02672 -135.513276 
L 215.639666 -137.813586 
L 215.274764 -140.113896 
L 214.945141 -142.414206 
L 214.663369 -144.714516 
L 214.440646 -147.014827 
L 214.286011 -149.315137 
L 214.205672 -151.615447 
L 214.202499 -153.915757 
L 214.275745 -156.216067 
L 214.421003 -158.516377 
L 214.630404 -160.816687 
L 214.893053 -163.116997 
L 215.195622 -165.417307 
L 215.523085 -167.717617 
L 215.859505 -170.017927 
L 216.188817 -172.318237 
L 216.49556 -174.618548 
L 216.765512 -176.918858 
L 216.986207 -179.219168 
L 217.147323 -181.519478 
L 217.240948 -183.819788 
L 217.261723 -186.120098 
L 217.206899 -188.420408 
L 217.076292 -190.720718 
L 216.872167 -193.021028 
L 216.599033 -195.321338 
L 216.263365 -197.621648 
L 215.873223 -199.921959 
L 215.437794 -202.222269 
L 214.966835 -204.522579 
L 214.470053 -206.822889 
L 213.956437 -209.123199 
L 213.433584 -211.423509 
L 212.907063 -213.723819 
L 212.379864 -216.024129 
L 211.851972 -218.324439 
L 211.320096 -220.624749 
L 210.777559 -222.925059 
L 210.214346 -225.22537 
L 209.617272 -227.52568 
L 208.970248 -229.82599 
L 208.254568 -232.1263 
L 207.449202 -234.42661 
L 206.531055 -236.72692 
L 205.475179 -239.02723 
L 204.254988 -241.32754 
L 202.84251 -243.62785 
L 201.208763 -245.92816 
L 199.324371 -248.22847 
L 197.160495 -250.52878 
L 194.690175 -252.829091 
L 191.890141 -255.129401 
L 188.743061 -257.429711 
L 185.240188 -259.730021 
L 181.384223 -262.030331 
L 177.192212 -264.330641 
L 172.698173 -266.630951 
L 167.95515 -268.931261 
L 163.036361 -271.231571 
L 158.03515 -273.531881 
L 153.063507 -275.832191 
L 148.24904 -278.132502 
L 143.730398 -280.432812 
L 139.651317 -282.733122 
L 136.153595 -285.033432 
L 133.369459 -287.333742 
L 131.413863 -289.634052 
L 130.377341 -291.934362 
L 130.32 -294.234672 
L 131.267191 -296.534982 
L 133.207259 -298.835292 
L 136.091601 -301.135602 
L 139.837061 -303.435913 
L 144.330482 -305.736223 
L 149.435047 -308.036533 
L 154.997895 -310.336843 
L 160.858399 -312.637153 
L 166.856459 -314.937463 
L 172.840207 -317.237773 
L 178.672592 -319.538083 
L 184.236474 -321.838393 
L 189.437998 -324.138703 
L 194.208185 -326.439013 
L 198.502849 -328.739323 
L 202.30106 -331.039634 
L 205.602471 -333.339944 
L 208.42387 -335.640254 
L 210.795333 -337.940564 
L 212.756313 -340.240874 
L 214.351942 -342.541184 
L 224.848058 -342.541184 
L 224.848058 -342.541184 
L 226.443687 -340.240874 
L 228.404667 -337.940564 
L 230.77613 -335.640254 
L 233.597529 -333.339944 
L 236.89894 -331.039634 
L 240.697151 -328.739323 
L 244.991815 -326.439013 
L 249.762002 -324.138703 
L 254.963526 -321.838393 
L 260.527408 -319.538083 
L 266.359793 -317.237773 
L 272.343541 -314.937463 
L 278.341601 -312.637153 
L 284.202105 -310.336843 
L 289.764953 -308.036533 
L 294.869518 -305.736223 
L 299.362939 -303.435913 
L 303.108399 -301.135602 
L 305.992741 -298.835292 
L 307.932809 -296.534982 
L 308.88 -294.234672 
L 308.822659 -291.934362 
L 307.786137 -289.634052 
L 305.830541 -287.333742 
L 303.046405 -285.033432 
L 299.548683 -282.733122 
L 295.469602 -280.432812 
L 290.95096 -278.132502 
L 286.136493 -275.832191 
L 281.16485 -273.531881 
L 276.163639 -271.231571 
L 271.24485 -268.931261 
L 266.501827 -266.630951 
L 262.007788 -264.330641 
L 257.815777 -262.030331 
L 253.959812 -259.730021 
L 250.456939 -257.429711 
L 247.309859 -255.129401 
L 244.509825 -252.829091 
L 242.039505 -250.52878 
L 239.875629 -248.22847 
L 237.991237 -245.92816 
L 236.35749 -243.62785 
L 234.945012 -241.32754 
L 233.724821 -239.02723 
L 232.668945 -236.72692 
L 231.750798 -234.42661 
L 230.945432 -232.1263 
L 230.229752 -229.82599 
L 229.582728 -227.52568 
L 228.985654 -225.22537 
L 228.422441 -222.925059 
L 227.879904 -220.624749 
L 227.348028 -218.324439 
L 226.820136 -216.024129 
L 226.292937 -213.723819 
L 225.766416 -211.423509 
L 225.243563 -209.123199 
L 224.729947 -206.822889 
L 224.233165 -204.522579 
L 223.762206 -202.222269 
L 223.326777 -199.921959 
L 222.936635 -197.621648 
L 222.600967 -195.321338 
L 222.327833 -193.021028 
L 222.123708 -190.720718 
L 221.993101 -188.420408 
L 221.938277 -186.120098 
L 221.959052 -183.819788 
L 222.052677 -181.519478 
L 222.213793 -179.219168 
L 222.434488 -176.918858 
L 222.70444 -174.618548 
L 223.011183 -172.318237 
L 223.340495 -170.017927 
L 223.676915 -167.717617 
L 224.004378 -165.417307 
L 224.306947 -163.116997 
L 224.569596 -160.816687 
L 224.778997 -158.516377 
L 224.924255 -156.216067 
L 224.997501 -153.915757 
L 224.994328 -151.615447 
L 224.913989 -149.315137 
L 224.759354 -147.014827 
L 224.536631 -144.714516 
L 224.254859 -142.414206 
L 223.925236 -140.113896 
L 223.560334 -137.813586 
L 223.17328 -135.513276 
L 222.776961 -133.212966 
L 222.383324 -130.912656 
L 222.00282 -128.612346 
L 221.644012 -126.312036 
L 221.313363 -124.011726 
L 221.015204 -121.711416 
L 220.751839 -119.411105 
L 220.523777 -117.110795 
L 220.330039 -114.810485 
z
" style="stroke: #3d3d3d; stroke-width: 2.25"/>
    </defs>
    <g clip-path="url(#pf4e97eea1f)">
     <use xlink:href="#me4b1237236" x="0" y="432" style="fill: #3274a1; stroke: #3d3d3d; stroke-width: 2.25"/>
    </g>
   </g>
   <g id="PolyCollection_2">
    <defs>
     <path id="m95dd0210e3" d="M 443.653783 -68.825455 
L 441.946217 -68.825455 
L 441.722267 -71.820496 
L 441.450311 -74.815537 
L 441.122996 -77.810579 
L 440.732565 -80.80562 
L 440.271015 -83.800661 
L 439.73029 -86.795702 
L 439.102524 -89.790744 
L 438.380312 -92.785785 
L 437.557022 -95.780826 
L 436.627111 -98.775868 
L 435.58647 -101.770909 
L 434.432741 -104.76595 
L 433.165622 -107.760992 
L 431.787122 -110.756033 
L 430.301762 -113.751074 
L 428.716695 -116.746116 
L 427.041741 -119.741157 
L 425.289326 -122.736198 
L 423.474328 -125.73124 
L 421.613824 -128.726281 
L 419.726756 -131.721322 
L 417.833529 -134.716364 
L 415.955566 -137.711405 
L 414.114828 -140.706446 
L 412.333341 -143.701488 
L 410.632739 -146.696529 
L 409.033846 -149.69157 
L 407.556312 -152.686612 
L 406.218305 -155.681653 
L 405.036265 -158.676694 
L 404.024711 -161.671736 
L 403.19609 -164.666777 
L 402.560651 -167.661818 
L 402.126338 -170.65686 
L 401.898679 -173.651901 
L 401.880661 -176.646942 
L 402.072596 -179.641983 
L 402.471975 -182.637025 
L 403.073321 -185.632066 
L 403.868058 -188.627107 
L 404.84442 -191.622149 
L 405.987413 -194.61719 
L 407.278877 -197.612231 
L 408.697635 -200.607273 
L 410.219772 -203.602314 
L 411.819028 -206.597355 
L 413.467321 -209.592397 
L 415.135363 -212.587438 
L 416.793373 -215.582479 
L 418.411844 -218.577521 
L 419.962329 -221.572562 
L 421.418227 -224.567603 
L 422.755522 -227.562645 
L 423.953446 -230.557686 
L 424.995054 -233.552727 
L 425.867672 -236.547769 
L 426.563227 -239.54281 
L 427.078432 -242.537851 
L 427.414844 -245.532893 
L 427.578784 -248.527934 
L 427.581128 -251.522975 
L 427.43699 -254.518017 
L 427.165275 -257.513058 
L 426.788153 -260.508099 
L 426.33042 -263.50314 
L 425.818797 -266.498182 
L 425.281152 -269.493223 
L 424.745684 -272.488264 
L 424.240072 -275.483306 
L 423.790629 -278.478347 
L 423.421486 -281.473388 
L 423.15383 -284.46843 
L 423.005243 -287.463471 
L 422.989158 -290.458512 
L 423.114475 -293.453554 
L 423.385347 -296.448595 
L 423.801155 -299.443636 
L 424.356673 -302.438678 
L 425.042422 -305.433719 
L 425.84518 -308.42876 
L 426.748641 -311.423802 
L 427.734168 -314.418843 
L 428.781613 -317.413884 
L 429.870147 -320.408926 
L 430.97907 -323.403967 
L 432.088554 -326.399008 
L 433.180284 -329.39405 
L 434.237984 -332.389091 
L 435.247797 -335.384132 
L 436.19852 -338.379174 
L 437.081701 -341.374215 
L 437.891605 -344.369256 
L 438.625067 -347.364298 
L 439.281252 -350.359339 
L 439.861349 -353.35438 
L 440.368235 -356.349421 
L 440.806103 -359.344463 
L 441.18011 -362.339504 
L 441.496039 -365.334545 
L 444.103961 -365.334545 
L 444.103961 -365.334545 
L 444.41989 -362.339504 
L 444.793897 -359.344463 
L 445.231765 -356.349421 
L 445.738651 -353.35438 
L 446.318748 -350.359339 
L 446.974933 -347.364298 
L 447.708395 -344.369256 
L 448.518299 -341.374215 
L 449.40148 -338.379174 
L 450.352203 -335.384132 
L 451.362016 -332.389091 
L 452.419716 -329.39405 
L 453.511446 -326.399008 
L 454.62093 -323.403967 
L 455.729853 -320.408926 
L 456.818387 -317.413884 
L 457.865832 -314.418843 
L 458.851359 -311.423802 
L 459.75482 -308.42876 
L 460.557578 -305.433719 
L 461.243327 -302.438678 
L 461.798845 -299.443636 
L 462.214653 -296.448595 
L 462.485525 -293.453554 
L 462.610842 -290.458512 
L 462.594757 -287.463471 
L 462.44617 -284.46843 
L 462.178514 -281.473388 
L 461.809371 -278.478347 
L 461.359928 -275.483306 
L 460.854316 -272.488264 
L 460.318848 -269.493223 
L 459.781203 -266.498182 
L 459.26958 -263.50314 
L 458.811847 -260.508099 
L 458.434725 -257.513058 
L 458.16301 -254.518017 
L 458.018872 -251.522975 
L 458.021216 -248.527934 
L 458.185156 -245.532893 
L 458.521568 -242.537851 
L 459.036773 -239.54281 
L 459.732328 -236.547769 
L 460.604946 -233.552727 
L 461.646554 -230.557686 
L 462.844478 -227.562645 
L 464.181773 -224.567603 
L 465.637671 -221.572562 
L 467.188156 -218.577521 
L 468.806627 -215.582479 
L 470.464637 -212.587438 
L 472.132679 -209.592397 
L 473.780972 -206.597355 
L 475.380228 -203.602314 
L 476.902365 -200.607273 
L 478.321123 -197.612231 
L 479.612587 -194.61719 
L 480.75558 -191.622149 
L 481.731942 -188.627107 
L 482.526679 -185.632066 
L 483.128025 -182.637025 
L 483.527404 -179.641983 
L 483.719339 -176.646942 
L 483.701321 -173.651901 
L 483.473662 -170.65686 
L 483.039349 -167.661818 
L 482.40391 -164.666777 
L 481.575289 -161.671736 
L 480.563735 -158.676694 
L 479.381695 -155.681653 
L 478.043688 -152.686612 
L 476.566154 -149.69157 
L 474.967261 -146.696529 
L 473.266659 -143.701488 
L 471.485172 -140.706446 
L 469.644434 -137.711405 
L 467.766471 -134.716364 
L 465.873244 -131.721322 
L 463.986176 -128.726281 
L 462.125672 -125.73124 
L 460.310674 -122.736198 
L 458.558259 -119.741157 
L 456.883305 -116.746116 
L 455.298238 -113.751074 
L 453.812878 -110.756033 
L 452.434378 -107.760992 
L 451.167259 -104.76595 
L 450.01353 -101.770909 
L 448.972889 -98.775868 
L 448.042978 -95.780826 
L 447.219688 -92.785785 
L 446.497476 -89.790744 
L 445.86971 -86.795702 
L 445.328985 -83.800661 
L 444.867435 -80.80562 
L 444.477004 -77.810579 
L 444.149689 -74.815537 
L 443.877733 -71.820496 
L 443.653783 -68.825455 
z
" style="stroke: #3d3d3d; stroke-width: 2.25"/>
    </defs>
    <g clip-path="url(#pf4e97eea1f)">
     <use xlink:href="#m95dd0210e3" x="0" y="432" style="fill: #e1812c; stroke: #3d3d3d; stroke-width: 2.25"/>
    </g>
   </g>
   <g id="PolyCollection_3">
    <defs>
     <path id="m28163599df" d="M 667.420227 -91.671789 
L 664.579773 -91.671789 
L 664.279442 -94.434653 
L 663.928094 -97.197517 
L 663.51988 -99.96038 
L 663.048857 -102.723244 
L 662.509117 -105.486108 
L 661.894931 -108.248971 
L 661.200917 -111.011835 
L 660.422223 -113.774699 
L 659.554731 -116.537562 
L 658.595257 -119.300426 
L 657.541767 -122.06329 
L 656.393582 -124.826153 
L 655.151573 -127.589017 
L 653.818337 -130.351881 
L 652.398345 -133.114744 
L 650.898053 -135.877608 
L 649.325965 -138.640472 
L 647.692654 -141.403335 
L 646.010708 -144.166199 
L 644.294637 -146.929063 
L 642.560694 -149.691926 
L 640.826648 -152.45479 
L 639.111486 -155.217654 
L 637.435067 -157.980517 
L 635.817722 -160.743381 
L 634.279819 -163.506245 
L 632.841301 -166.269108 
L 631.521209 -169.031972 
L 630.337215 -171.794835 
L 629.305168 -174.557699 
L 628.438667 -177.320563 
L 627.748696 -180.083426 
L 627.243306 -182.84629 
L 626.927375 -185.609154 
L 626.802443 -188.372017 
L 626.866637 -191.134881 
L 627.114681 -193.897745 
L 627.537991 -196.660608 
L 628.124861 -199.423472 
L 628.860717 -202.186336 
L 629.72845 -204.949199 
L 630.708802 -207.712063 
L 631.780805 -210.474927 
L 632.922251 -213.23779 
L 634.110186 -216.000654 
L 635.321423 -218.763518 
L 636.533038 -221.526381 
L 637.722874 -224.289245 
L 638.870001 -227.052109 
L 639.955165 -229.814972 
L 640.96118 -232.577836 
L 641.873285 -235.3407 
L 642.679441 -238.103563 
L 643.370567 -240.866427 
L 643.940723 -243.629291 
L 644.387206 -246.392154 
L 644.71059 -249.155018 
L 644.914685 -251.917882 
L 645.006416 -254.680745 
L 644.995632 -257.443609 
L 644.894843 -260.206472 
L 644.718874 -262.969336 
L 644.484473 -265.7322 
L 644.209851 -268.495063 
L 643.914181 -271.257927 
L 643.617068 -274.020791 
L 643.338002 -276.783654 
L 643.095813 -279.546518 
L 642.908143 -282.309382 
L 642.790954 -285.072245 
L 642.758095 -287.835109 
L 642.820933 -290.597973 
L 642.988065 -293.360836 
L 643.265129 -296.1237 
L 643.654707 -298.886564 
L 644.156337 -301.649427 
L 644.766617 -304.412291 
L 645.479406 -307.175155 
L 646.286111 -309.938018 
L 647.176036 -312.700882 
L 648.136797 -315.463746 
L 649.154759 -318.226609 
L 650.215505 -320.989473 
L 651.304289 -323.752337 
L 652.406484 -326.5152 
L 653.507982 -329.278064 
L 654.595556 -332.040928 
L 655.65716 -334.803791 
L 656.682163 -337.566655 
L 657.661515 -340.329519 
L 658.587846 -343.092382 
L 659.455496 -345.855246 
L 660.26049 -348.61811 
L 661.000458 -351.380973 
L 661.674509 -354.143837 
L 662.28308 -356.9067 
L 662.82775 -359.669564 
L 663.311054 -362.432428 
L 663.736287 -365.195291 
L 668.263713 -365.195291 
L 668.263713 -365.195291 
L 668.688946 -362.432428 
L 669.17225 -359.669564 
L 669.71692 -356.9067 
L 670.325491 -354.143837 
L 670.999542 -351.380973 
L 671.73951 -348.61811 
L 672.544504 -345.855246 
L 673.412154 -343.092382 
L 674.338485 -340.329519 
L 675.317837 -337.566655 
L 676.34284 -334.803791 
L 677.404444 -332.040928 
L 678.492018 -329.278064 
L 679.593516 -326.5152 
L 680.695711 -323.752337 
L 681.784495 -320.989473 
L 682.845241 -318.226609 
L 683.863203 -315.463746 
L 684.823964 -312.700882 
L 685.713889 -309.938018 
L 686.520594 -307.175155 
L 687.233383 -304.412291 
L 687.843663 -301.649427 
L 688.345293 -298.886564 
L 688.734871 -296.1237 
L 689.011935 -293.360836 
L 689.179067 -290.597973 
L 689.241905 -287.835109 
L 689.209046 -285.072245 
L 689.091857 -282.309382 
L 688.904187 -279.546518 
L 688.661998 -276.783654 
L 688.382932 -274.020791 
L 688.085819 -271.257927 
L 687.790149 -268.495063 
L 687.515527 -265.7322 
L 687.281126 -262.969336 
L 687.105157 -260.206472 
L 687.004368 -257.443609 
L 686.993584 -254.680745 
L 687.085315 -251.917882 
L 687.28941 -249.155018 
L 687.612794 -246.392154 
L 688.059277 -243.629291 
L 688.629433 -240.866427 
L 689.320559 -238.103563 
L 690.126715 -235.3407 
L 691.03882 -232.577836 
L 692.044835 -229.814972 
L 693.129999 -227.052109 
L 694.277126 -224.289245 
L 695.466962 -221.526381 
L 696.678577 -218.763518 
L 697.889814 -216.000654 
L 699.077749 -213.23779 
L 700.219195 -210.474927 
L 701.291198 -207.712063 
L 702.27155 -204.949199 
L 703.139283 -202.186336 
L 703.875139 -199.423472 
L 704.462009 -196.660608 
L 704.885319 -193.897745 
L 705.133363 -191.134881 
L 705.197557 -188.372017 
L 705.072625 -185.609154 
L 704.756694 -182.84629 
L 704.251304 -180.083426 
L 703.561333 -177.320563 
L 702.694832 -174.557699 
L 701.662785 -171.794835 
L 700.478791 -169.031972 
L 699.158699 -166.269108 
L 697.720181 -163.506245 
L 696.182278 -160.743381 
L 694.564933 -157.980517 
L 692.888514 -155.217654 
L 691.173352 -152.45479 
L 689.439306 -149.691926 
L 687.705363 -146.929063 
L 685.989292 -144.166199 
L 684.307346 -141.403335 
L 682.674035 -138.640472 
L 681.101947 -135.877608 
L 679.601655 -133.114744 
L 678.181663 -130.351881 
L 676.848427 -127.589017 
L 675.606418 -124.826153 
L 674.458233 -122.06329 
L 673.404743 -119.300426 
L 672.445269 -116.537562 
L 671.577777 -113.774699 
L 670.799083 -111.011835 
L 670.105069 -108.248971 
L 669.490883 -105.486108 
L 668.951143 -102.723244 
L 668.48012 -99.96038 
L 668.071906 -97.197517 
L 667.720558 -94.434653 
L 667.420227 -91.671789 
z
" style="stroke: #3d3d3d; stroke-width: 2.25"/>
    </defs>
    <g clip-path="url(#pf4e97eea1f)">
     <use xlink:href="#m28163599df" x="0" y="432" style="fill: #3a923a; stroke: #3d3d3d; stroke-width: 2.25"/>
    </g>
   </g>
   <g id="matplotlib.axis_1">
    <g id="xtick_1">
     <g id="line2d_1">
      <defs>
       <path id="m8530f1b7e1" d="M 0 0 
L 0 9 
" style="stroke: #000000; stroke-width: 1.875"/>
      </defs>
      <g>
       <use xlink:href="#m8530f1b7e1" x="219.6" y="378" style="stroke: #000000; stroke-width: 1.875"/>
      </g>
     </g>
     <g id="text_1">
      <!-- inserted_early_rep -->
      <g transform="translate(143.297812 403.037422)scale(0.165 -0.165)">
       <defs>
        <path id="DejaVuSans-69" d="M 603 3500 
L 1178 3500 
L 1178 0 
L 603 0 
L 603 3500 
z
M 603 4863 
L 1178 4863 
L 1178 4134 
L 603 4134 
L 603 4863 
z
" transform="scale(0.015625)"/>
        <path id="DejaVuSans-6e" d="M 3513 2113 
L 3513 0 
L 2938 0 
L 2938 2094 
Q 2938 2591 2744 2837 
Q 2550 3084 2163 3084 
Q 1697 3084 1428 2787 
Q 1159 2491 1159 1978 
L 1159 0 
L 581 0 
L 581 3500 
L 1159 3500 
L 1159 2956 
Q 1366 3272 1645 3428 
Q 1925 3584 2291 3584 
Q 2894 3584 3203 3211 
Q 3513 2838 3513 2113 
z
" transform="scale(0.015625)"/>
        <path id="DejaVuSans-73" d="M 2834 3397 
L 2834 2853 
Q 2591 2978 2328 3040 
Q 2066 3103 1784 3103 
Q 1356 3103 1142 2972 
Q 928 2841 928 2578 
Q 928 2378 1081 2264 
Q 1234 2150 1697 2047 
L 1894 2003 
Q 2506 1872 2764 1633 
Q 3022 1394 3022 966 
Q 3022 478 2636 193 
Q 2250 -91 1575 -91 
Q 1294 -91 989 -36 
Q 684 19 347 128 
L 347 722 
Q 666 556 975 473 
Q 1284 391 1588 391 
Q 1994 391 2212 530 
Q 2431 669 2431 922 
Q 2431 1156 2273 1281 
Q 2116 1406 1581 1522 
L 1381 1569 
Q 847 1681 609 1914 
Q 372 2147 372 2553 
Q 372 3047 722 3315 
Q 1072 3584 1716 3584 
Q 2034 3584 2315 3537 
Q 2597 3491 2834 3397 
z
" transform="scale(0.015625)"/>
        <path id="DejaVuSans-65" d="M 3597 1894 
L 3597 1613 
L 953 1613 
Q 991 1019 1311 708 
Q 1631 397 2203 397 
Q 2534 397 2845 478 
Q 3156 559 3463 722 
L 3463 178 
Q 3153 47 2828 -22 
Q 2503 -91 2169 -91 
Q 1331 -91 842 396 
Q 353 884 353 1716 
Q 353 2575 817 3079 
Q 1281 3584 2069 3584 
Q 2775 3584 3186 3129 
Q 3597 2675 3597 1894 
z
M 3022 2063 
Q 3016 2534 2758 2815 
Q 2500 3097 2075 3097 
Q 1594 3097 1305 2825 
Q 1016 2553 972 2059 
L 3022 2063 
z
" transform="scale(0.015625)"/>
        <path id="DejaVuSans-72" d="M 2631 2963 
Q 2534 3019 2420 3045 
Q 2306 3072 2169 3072 
Q 1681 3072 1420 2755 
Q 1159 2438 1159 1844 
L 1159 0 
L 581 0 
L 581 3500 
L 1159 3500 
L 1159 2956 
Q 1341 3275 1631 3429 
Q 1922 3584 2338 3584 
Q 2397 3584 2469 3576 
Q 2541 3569 2628 3553 
L 2631 2963 
z
" transform="scale(0.015625)"/>
        <path id="DejaVuSans-74" d="M 1172 4494 
L 1172 3500 
L 2356 3500 
L 2356 3053 
L 1172 3053 
L 1172 1153 
Q 1172 725 1289 603 
Q 1406 481 1766 481 
L 2356 481 
L 2356 0 
L 1766 0 
Q 1100 0 847 248 
Q 594 497 594 1153 
L 594 3053 
L 172 3053 
L 172 3500 
L 594 3500 
L 594 4494 
L 1172 4494 
z
" transform="scale(0.015625)"/>
        <path id="DejaVuSans-64" d="M 2906 2969 
L 2906 4863 
L 3481 4863 
L 3481 0 
L 2906 0 
L 2906 525 
Q 2725 213 2448 61 
Q 2172 -91 1784 -91 
Q 1150 -91 751 415 
Q 353 922 353 1747 
Q 353 2572 751 3078 
Q 1150 3584 1784 3584 
Q 2172 3584 2448 3432 
Q 2725 3281 2906 2969 
z
M 947 1747 
Q 947 1113 1208 752 
Q 1469 391 1925 391 
Q 2381 391 2643 752 
Q 2906 1113 2906 1747 
Q 2906 2381 2643 2742 
Q 2381 3103 1925 3103 
Q 1469 3103 1208 2742 
Q 947 2381 947 1747 
z
" transform="scale(0.015625)"/>
        <path id="DejaVuSans-5f" d="M 3263 -1063 
L 3263 -1509 
L -63 -1509 
L -63 -1063 
L 3263 -1063 
z
" transform="scale(0.015625)"/>
        <path id="DejaVuSans-61" d="M 2194 1759 
Q 1497 1759 1228 1600 
Q 959 1441 959 1056 
Q 959 750 1161 570 
Q 1363 391 1709 391 
Q 2188 391 2477 730 
Q 2766 1069 2766 1631 
L 2766 1759 
L 2194 1759 
z
M 3341 1997 
L 3341 0 
L 2766 0 
L 2766 531 
Q 2569 213 2275 61 
Q 1981 -91 1556 -91 
Q 1019 -91 701 211 
Q 384 513 384 1019 
Q 384 1609 779 1909 
Q 1175 2209 1959 2209 
L 2766 2209 
L 2766 2266 
Q 2766 2663 2505 2880 
Q 2244 3097 1772 3097 
Q 1472 3097 1187 3025 
Q 903 2953 641 2809 
L 641 3341 
Q 956 3463 1253 3523 
Q 1550 3584 1831 3584 
Q 2591 3584 2966 3190 
Q 3341 2797 3341 1997 
z
" transform="scale(0.015625)"/>
        <path id="DejaVuSans-6c" d="M 603 4863 
L 1178 4863 
L 1178 0 
L 603 0 
L 603 4863 
z
" transform="scale(0.015625)"/>
        <path id="DejaVuSans-79" d="M 2059 -325 
Q 1816 -950 1584 -1140 
Q 1353 -1331 966 -1331 
L 506 -1331 
L 506 -850 
L 844 -850 
Q 1081 -850 1212 -737 
Q 1344 -625 1503 -206 
L 1606 56 
L 191 3500 
L 800 3500 
L 1894 763 
L 2988 3500 
L 3597 3500 
L 2059 -325 
z
" transform="scale(0.015625)"/>
        <path id="DejaVuSans-70" d="M 1159 525 
L 1159 -1331 
L 581 -1331 
L 581 3500 
L 1159 3500 
L 1159 2969 
Q 1341 3281 1617 3432 
Q 1894 3584 2278 3584 
Q 2916 3584 3314 3078 
Q 3713 2572 3713 1747 
Q 3713 922 3314 415 
Q 2916 -91 2278 -91 
Q 1894 -91 1617 61 
Q 1341 213 1159 525 
z
M 3116 1747 
Q 3116 2381 2855 2742 
Q 2594 3103 2138 3103 
Q 1681 3103 1420 2742 
Q 1159 2381 1159 1747 
Q 1159 1113 1420 752 
Q 1681 391 2138 391 
Q 2594 391 2855 752 
Q 3116 1113 3116 1747 
z
" transform="scale(0.015625)"/>
       </defs>
       <use xlink:href="#DejaVuSans-69"/>
       <use xlink:href="#DejaVuSans-6e" x="27.783203"/>
       <use xlink:href="#DejaVuSans-73" x="91.162109"/>
       <use xlink:href="#DejaVuSans-65" x="143.261719"/>
       <use xlink:href="#DejaVuSans-72" x="204.785156"/>
       <use xlink:href="#DejaVuSans-74" x="245.898438"/>
       <use xlink:href="#DejaVuSans-65" x="285.107422"/>
       <use xlink:href="#DejaVuSans-64" x="346.630859"/>
       <use xlink:href="#DejaVuSans-5f" x="410.107422"/>
       <use xlink:href="#DejaVuSans-65" x="460.107422"/>
       <use xlink:href="#DejaVuSans-61" x="521.630859"/>
       <use xlink:href="#DejaVuSans-72" x="582.910156"/>
       <use xlink:href="#DejaVuSans-6c" x="624.023438"/>
       <use xlink:href="#DejaVuSans-79" x="651.806641"/>
       <use xlink:href="#DejaVuSans-5f" x="710.986328"/>
       <use xlink:href="#DejaVuSans-72" x="760.986328"/>
       <use xlink:href="#DejaVuSans-65" x="799.849609"/>
       <use xlink:href="#DejaVuSans-70" x="861.373047"/>
      </g>
     </g>
    </g>
    <g id="xtick_2">
     <g id="line2d_2">
      <g>
       <use xlink:href="#m8530f1b7e1" x="442.8" y="378" style="stroke: #000000; stroke-width: 1.875"/>
      </g>
     </g>
     <g id="text_2">
      <!-- inserted_middle_rep -->
      <g transform="translate(359.025117 403.037422)scale(0.165 -0.165)">
       <defs>
        <path id="DejaVuSans-6d" d="M 3328 2828 
Q 3544 3216 3844 3400 
Q 4144 3584 4550 3584 
Q 5097 3584 5394 3201 
Q 5691 2819 5691 2113 
L 5691 0 
L 5113 0 
L 5113 2094 
Q 5113 2597 4934 2840 
Q 4756 3084 4391 3084 
Q 3944 3084 3684 2787 
Q 3425 2491 3425 1978 
L 3425 0 
L 2847 0 
L 2847 2094 
Q 2847 2600 2669 2842 
Q 2491 3084 2119 3084 
Q 1678 3084 1418 2786 
Q 1159 2488 1159 1978 
L 1159 0 
L 581 0 
L 581 3500 
L 1159 3500 
L 1159 2956 
Q 1356 3278 1631 3431 
Q 1906 3584 2284 3584 
Q 2666 3584 2933 3390 
Q 3200 3197 3328 2828 
z
" transform="scale(0.015625)"/>
       </defs>
       <use xlink:href="#DejaVuSans-69"/>
       <use xlink:href="#DejaVuSans-6e" x="27.783203"/>
       <use xlink:href="#DejaVuSans-73" x="91.162109"/>
       <use xlink:href="#DejaVuSans-65" x="143.261719"/>
       <use xlink:href="#DejaVuSans-72" x="204.785156"/>
       <use xlink:href="#DejaVuSans-74" x="245.898438"/>
       <use xlink:href="#DejaVuSans-65" x="285.107422"/>
       <use xlink:href="#DejaVuSans-64" x="346.630859"/>
       <use xlink:href="#DejaVuSans-5f" x="410.107422"/>
       <use xlink:href="#DejaVuSans-6d" x="460.107422"/>
       <use xlink:href="#DejaVuSans-69" x="557.519531"/>
       <use xlink:href="#DejaVuSans-64" x="585.302734"/>
       <use xlink:href="#DejaVuSans-64" x="648.779297"/>
       <use xlink:href="#DejaVuSans-6c" x="712.255859"/>
       <use xlink:href="#DejaVuSans-65" x="740.039062"/>
       <use xlink:href="#DejaVuSans-5f" x="801.5625"/>
       <use xlink:href="#DejaVuSans-72" x="851.5625"/>
       <use xlink:href="#DejaVuSans-65" x="890.425781"/>
       <use xlink:href="#DejaVuSans-70" x="951.949219"/>
      </g>
     </g>
    </g>
    <g id="xtick_3">
     <g id="line2d_3">
      <g>
       <use xlink:href="#m8530f1b7e1" x="666" y="378" style="stroke: #000000; stroke-width: 1.875"/>
      </g>
     </g>
     <g id="text_3">
      <!-- inserted_late_rep -->
      <g transform="translate(594.738047 403.037422)scale(0.165 -0.165)">
       <use xlink:href="#DejaVuSans-69"/>
       <use xlink:href="#DejaVuSans-6e" x="27.783203"/>
       <use xlink:href="#DejaVuSans-73" x="91.162109"/>
       <use xlink:href="#DejaVuSans-65" x="143.261719"/>
       <use xlink:href="#DejaVuSans-72" x="204.785156"/>
       <use xlink:href="#DejaVuSans-74" x="245.898438"/>
       <use xlink:href="#DejaVuSans-65" x="285.107422"/>
       <use xlink:href="#DejaVuSans-64" x="346.630859"/>
       <use xlink:href="#DejaVuSans-5f" x="410.107422"/>
       <use xlink:href="#DejaVuSans-6c" x="460.107422"/>
       <use xlink:href="#DejaVuSans-61" x="487.890625"/>
       <use xlink:href="#DejaVuSans-74" x="549.169922"/>
       <use xlink:href="#DejaVuSans-65" x="588.378906"/>
       <use xlink:href="#DejaVuSans-5f" x="649.902344"/>
       <use xlink:href="#DejaVuSans-72" x="699.902344"/>
       <use xlink:href="#DejaVuSans-65" x="738.765625"/>
       <use xlink:href="#DejaVuSans-70" x="800.289062"/>
      </g>
     </g>
    </g>
    <g id="text_4">
     <!-- condition -->
     <g transform="translate(401.187656 424.605)scale(0.18 -0.18)">
      <defs>
       <path id="DejaVuSans-63" d="M 3122 3366 
L 3122 2828 
Q 2878 2963 2633 3030 
Q 2388 3097 2138 3097 
Q 1578 3097 1268 2742 
Q 959 2388 959 1747 
Q 959 1106 1268 751 
Q 1578 397 2138 397 
Q 2388 397 2633 464 
Q 2878 531 3122 666 
L 3122 134 
Q 2881 22 2623 -34 
Q 2366 -91 2075 -91 
Q 1284 -91 818 406 
Q 353 903 353 1747 
Q 353 2603 823 3093 
Q 1294 3584 2113 3584 
Q 2378 3584 2631 3529 
Q 2884 3475 3122 3366 
z
" transform="scale(0.015625)"/>
       <path id="DejaVuSans-6f" d="M 1959 3097 
Q 1497 3097 1228 2736 
Q 959 2375 959 1747 
Q 959 1119 1226 758 
Q 1494 397 1959 397 
Q 2419 397 2687 759 
Q 2956 1122 2956 1747 
Q 2956 2369 2687 2733 
Q 2419 3097 1959 3097 
z
M 1959 3584 
Q 2709 3584 3137 3096 
Q 3566 2609 3566 1747 
Q 3566 888 3137 398 
Q 2709 -91 1959 -91 
Q 1206 -91 779 398 
Q 353 888 353 1747 
Q 353 2609 779 3096 
Q 1206 3584 1959 3584 
z
" transform="scale(0.015625)"/>
      </defs>
      <use xlink:href="#DejaVuSans-63"/>
      <use xlink:href="#DejaVuSans-6f" x="54.980469"/>
      <use xlink:href="#DejaVuSans-6e" x="116.162109"/>
      <use xlink:href="#DejaVuSans-64" x="179.541016"/>
      <use xlink:href="#DejaVuSans-69" x="243.017578"/>
      <use xlink:href="#DejaVuSans-74" x="270.800781"/>
      <use xlink:href="#DejaVuSans-69" x="310.009766"/>
      <use xlink:href="#DejaVuSans-6f" x="337.792969"/>
      <use xlink:href="#DejaVuSans-6e" x="398.974609"/>
     </g>
    </g>
   </g>
   <g id="matplotlib.axis_2">
    <g id="ytick_1">
     <g id="line2d_4">
      <defs>
       <path id="mee356fea57" d="M 0 0 
L -9 0 
" style="stroke: #000000; stroke-width: 1.875"/>
      </defs>
      <g>
       <use xlink:href="#mee356fea57" x="108" y="359.385859" style="stroke: #000000; stroke-width: 1.875"/>
      </g>
     </g>
     <g id="text_5">
      <!-- 0.2 -->
      <g transform="translate(69.259844 365.65457)scale(0.165 -0.165)">
       <defs>
        <path id="DejaVuSans-30" d="M 2034 4250 
Q 1547 4250 1301 3770 
Q 1056 3291 1056 2328 
Q 1056 1369 1301 889 
Q 1547 409 2034 409 
Q 2525 409 2770 889 
Q 3016 1369 3016 2328 
Q 3016 3291 2770 3770 
Q 2525 4250 2034 4250 
z
M 2034 4750 
Q 2819 4750 3233 4129 
Q 3647 3509 3647 2328 
Q 3647 1150 3233 529 
Q 2819 -91 2034 -91 
Q 1250 -91 836 529 
Q 422 1150 422 2328 
Q 422 3509 836 4129 
Q 1250 4750 2034 4750 
z
" transform="scale(0.015625)"/>
        <path id="DejaVuSans-2e" d="M 684 794 
L 1344 794 
L 1344 0 
L 684 0 
L 684 794 
z
" transform="scale(0.015625)"/>
        <path id="DejaVuSans-32" d="M 1228 531 
L 3431 531 
L 3431 0 
L 469 0 
L 469 531 
Q 828 903 1448 1529 
Q 2069 2156 2228 2338 
Q 2531 2678 2651 2914 
Q 2772 3150 2772 3378 
Q 2772 3750 2511 3984 
Q 2250 4219 1831 4219 
Q 1534 4219 1204 4116 
Q 875 4013 500 3803 
L 500 4441 
Q 881 4594 1212 4672 
Q 1544 4750 1819 4750 
Q 2544 4750 2975 4387 
Q 3406 4025 3406 3419 
Q 3406 3131 3298 2873 
Q 3191 2616 2906 2266 
Q 2828 2175 2409 1742 
Q 1991 1309 1228 531 
z
" transform="scale(0.015625)"/>
       </defs>
       <use xlink:href="#DejaVuSans-30"/>
       <use xlink:href="#DejaVuSans-2e" x="63.623047"/>
       <use xlink:href="#DejaVuSans-32" x="95.410156"/>
      </g>
     </g>
    </g>
    <g id="ytick_2">
     <g id="line2d_5">
      <g>
       <use xlink:href="#mee356fea57" x="108" y="301.380628" style="stroke: #000000; stroke-width: 1.875"/>
      </g>
     </g>
     <g id="text_6">
      <!-- 0.4 -->
      <g transform="translate(69.259844 307.649339)scale(0.165 -0.165)">
       <defs>
        <path id="DejaVuSans-34" d="M 2419 4116 
L 825 1625 
L 2419 1625 
L 2419 4116 
z
M 2253 4666 
L 3047 4666 
L 3047 1625 
L 3713 1625 
L 3713 1100 
L 3047 1100 
L 3047 0 
L 2419 0 
L 2419 1100 
L 313 1100 
L 313 1709 
L 2253 4666 
z
" transform="scale(0.015625)"/>
       </defs>
       <use xlink:href="#DejaVuSans-30"/>
       <use xlink:href="#DejaVuSans-2e" x="63.623047"/>
       <use xlink:href="#DejaVuSans-34" x="95.410156"/>
      </g>
     </g>
    </g>
    <g id="ytick_3">
     <g id="line2d_6">
      <g>
       <use xlink:href="#mee356fea57" x="108" y="243.375396" style="stroke: #000000; stroke-width: 1.875"/>
      </g>
     </g>
     <g id="text_7">
      <!-- 0.6 -->
      <g transform="translate(69.259844 249.644107)scale(0.165 -0.165)">
       <defs>
        <path id="DejaVuSans-36" d="M 2113 2584 
Q 1688 2584 1439 2293 
Q 1191 2003 1191 1497 
Q 1191 994 1439 701 
Q 1688 409 2113 409 
Q 2538 409 2786 701 
Q 3034 994 3034 1497 
Q 3034 2003 2786 2293 
Q 2538 2584 2113 2584 
z
M 3366 4563 
L 3366 3988 
Q 3128 4100 2886 4159 
Q 2644 4219 2406 4219 
Q 1781 4219 1451 3797 
Q 1122 3375 1075 2522 
Q 1259 2794 1537 2939 
Q 1816 3084 2150 3084 
Q 2853 3084 3261 2657 
Q 3669 2231 3669 1497 
Q 3669 778 3244 343 
Q 2819 -91 2113 -91 
Q 1303 -91 875 529 
Q 447 1150 447 2328 
Q 447 3434 972 4092 
Q 1497 4750 2381 4750 
Q 2619 4750 2861 4703 
Q 3103 4656 3366 4563 
z
" transform="scale(0.015625)"/>
       </defs>
       <use xlink:href="#DejaVuSans-30"/>
       <use xlink:href="#DejaVuSans-2e" x="63.623047"/>
       <use xlink:href="#DejaVuSans-36" x="95.410156"/>
      </g>
     </g>
    </g>
    <g id="ytick_4">
     <g id="line2d_7">
      <g>
       <use xlink:href="#mee356fea57" x="108" y="185.370165" style="stroke: #000000; stroke-width: 1.875"/>
      </g>
     </g>
     <g id="text_8">
      <!-- 0.8 -->
      <g transform="translate(69.259844 191.638876)scale(0.165 -0.165)">
       <defs>
        <path id="DejaVuSans-38" d="M 2034 2216 
Q 1584 2216 1326 1975 
Q 1069 1734 1069 1313 
Q 1069 891 1326 650 
Q 1584 409 2034 409 
Q 2484 409 2743 651 
Q 3003 894 3003 1313 
Q 3003 1734 2745 1975 
Q 2488 2216 2034 2216 
z
M 1403 2484 
Q 997 2584 770 2862 
Q 544 3141 544 3541 
Q 544 4100 942 4425 
Q 1341 4750 2034 4750 
Q 2731 4750 3128 4425 
Q 3525 4100 3525 3541 
Q 3525 3141 3298 2862 
Q 3072 2584 2669 2484 
Q 3125 2378 3379 2068 
Q 3634 1759 3634 1313 
Q 3634 634 3220 271 
Q 2806 -91 2034 -91 
Q 1263 -91 848 271 
Q 434 634 434 1313 
Q 434 1759 690 2068 
Q 947 2378 1403 2484 
z
M 1172 3481 
Q 1172 3119 1398 2916 
Q 1625 2713 2034 2713 
Q 2441 2713 2670 2916 
Q 2900 3119 2900 3481 
Q 2900 3844 2670 4047 
Q 2441 4250 2034 4250 
Q 1625 4250 1398 4047 
Q 1172 3844 1172 3481 
z
" transform="scale(0.015625)"/>
       </defs>
       <use xlink:href="#DejaVuSans-30"/>
       <use xlink:href="#DejaVuSans-2e" x="63.623047"/>
       <use xlink:href="#DejaVuSans-38" x="95.410156"/>
      </g>
     </g>
    </g>
    <g id="ytick_5">
     <g id="line2d_8">
      <g>
       <use xlink:href="#mee356fea57" x="108" y="127.364934" style="stroke: #000000; stroke-width: 1.875"/>
      </g>
     </g>
     <g id="text_9">
      <!-- 1.0 -->
      <g transform="translate(69.259844 133.633645)scale(0.165 -0.165)">
       <defs>
        <path id="DejaVuSans-31" d="M 794 531 
L 1825 531 
L 1825 4091 
L 703 3866 
L 703 4441 
L 1819 4666 
L 2450 4666 
L 2450 531 
L 3481 531 
L 3481 0 
L 794 0 
L 794 531 
z
" transform="scale(0.015625)"/>
       </defs>
       <use xlink:href="#DejaVuSans-31"/>
       <use xlink:href="#DejaVuSans-2e" x="63.623047"/>
       <use xlink:href="#DejaVuSans-30" x="95.410156"/>
      </g>
     </g>
    </g>
    <g id="ytick_6">
     <g id="line2d_9">
      <g>
       <use xlink:href="#mee356fea57" x="108" y="69.359703" style="stroke: #000000; stroke-width: 1.875"/>
      </g>
     </g>
     <g id="text_10">
      <!-- 1.2 -->
      <g transform="translate(69.259844 75.628414)scale(0.165 -0.165)">
       <use xlink:href="#DejaVuSans-31"/>
       <use xlink:href="#DejaVuSans-2e" x="63.623047"/>
       <use xlink:href="#DejaVuSans-32" x="95.410156"/>
      </g>
     </g>
    </g>
    <g id="text_11">
     <!-- prediction accuracy -->
     <g transform="translate(61.516406 303.537656)rotate(-90)scale(0.18 -0.18)">
      <defs>
       <path id="DejaVuSans-20" transform="scale(0.015625)"/>
       <path id="DejaVuSans-75" d="M 544 1381 
L 544 3500 
L 1119 3500 
L 1119 1403 
Q 1119 906 1312 657 
Q 1506 409 1894 409 
Q 2359 409 2629 706 
Q 2900 1003 2900 1516 
L 2900 3500 
L 3475 3500 
L 3475 0 
L 2900 0 
L 2900 538 
Q 2691 219 2414 64 
Q 2138 -91 1772 -91 
Q 1169 -91 856 284 
Q 544 659 544 1381 
z
M 1991 3584 
L 1991 3584 
z
" transform="scale(0.015625)"/>
      </defs>
      <use xlink:href="#DejaVuSans-70"/>
      <use xlink:href="#DejaVuSans-72" x="63.476562"/>
      <use xlink:href="#DejaVuSans-65" x="102.339844"/>
      <use xlink:href="#DejaVuSans-64" x="163.863281"/>
      <use xlink:href="#DejaVuSans-69" x="227.339844"/>
      <use xlink:href="#DejaVuSans-63" x="255.123047"/>
      <use xlink:href="#DejaVuSans-74" x="310.103516"/>
      <use xlink:href="#DejaVuSans-69" x="349.3125"/>
      <use xlink:href="#DejaVuSans-6f" x="377.095703"/>
      <use xlink:href="#DejaVuSans-6e" x="438.277344"/>
      <use xlink:href="#DejaVuSans-20" x="501.65625"/>
      <use xlink:href="#DejaVuSans-61" x="533.443359"/>
      <use xlink:href="#DejaVuSans-63" x="594.722656"/>
      <use xlink:href="#DejaVuSans-63" x="649.703125"/>
      <use xlink:href="#DejaVuSans-75" x="704.683594"/>
      <use xlink:href="#DejaVuSans-72" x="768.0625"/>
      <use xlink:href="#DejaVuSans-61" x="809.175781"/>
      <use xlink:href="#DejaVuSans-63" x="870.455078"/>
      <use xlink:href="#DejaVuSans-79" x="925.435547"/>
     </g>
    </g>
   </g>
   <g id="line2d_10">
    <path d="M 219.6 170.155678 
L 219.6 127.364934 
" clip-path="url(#pf4e97eea1f)" style="fill: none; stroke: #3d3d3d; stroke-width: 2.25; stroke-linecap: square"/>
   </g>
   <g id="line2d_11">
    <path d="M 219.6 151.248269 
L 219.6 132.298877 
" clip-path="url(#pf4e97eea1f)" style="fill: none; stroke: #3d3d3d; stroke-width: 6.75; stroke-linecap: square"/>
   </g>
   <g id="line2d_12">
    <path d="M 442.8 302.475066 
L 442.8 127.364934 
" clip-path="url(#pf4e97eea1f)" style="fill: none; stroke: #3d3d3d; stroke-width: 2.25; stroke-linecap: square"/>
   </g>
   <g id="line2d_13">
    <path d="M 442.8 272.992474 
L 442.8 169.148363 
" clip-path="url(#pf4e97eea1f)" style="fill: none; stroke: #3d3d3d; stroke-width: 6.75; stroke-linecap: square"/>
   </g>
   <g id="line2d_14">
    <path d="M 666 274.679807 
L 666 132.453112 
" clip-path="url(#pf4e97eea1f)" style="fill: none; stroke: #3d3d3d; stroke-width: 2.25; stroke-linecap: square"/>
   </g>
   <g id="line2d_15">
    <path d="M 666 246.857618 
L 666 150.75414 
" clip-path="url(#pf4e97eea1f)" style="fill: none; stroke: #3d3d3d; stroke-width: 6.75; stroke-linecap: square"/>
   </g>
   <g id="patch_3">
    <path d="M 108 378 
L 108 51.84 
" style="fill: none; stroke: #000000; stroke-width: 1.875; stroke-linejoin: miter; stroke-linecap: square"/>
   </g>
   <g id="patch_4">
    <path d="M 777.6 378 
L 777.6 51.84 
" style="fill: none; stroke: #000000; stroke-width: 1.875; stroke-linejoin: miter; stroke-linecap: square"/>
   </g>
   <g id="patch_5">
    <path d="M 108 378 
L 777.6 378 
" style="fill: none; stroke: #000000; stroke-width: 1.875; stroke-linejoin: miter; stroke-linecap: square"/>
   </g>
   <g id="patch_6">
    <path d="M 108 51.84 
L 777.6 51.84 
" style="fill: none; stroke: #000000; stroke-width: 1.875; stroke-linejoin: miter; stroke-linecap: square"/>
   </g>
   <g id="PathCollection_1">
    <defs>
     <path id="m950776061a" d="M 0 2.25 
C 0.596707 2.25 1.169055 2.012926 1.59099 1.59099 
C 2.012926 1.169055 2.25 0.596707 2.25 0 
C 2.25 -0.596707 2.012926 -1.169055 1.59099 -1.59099 
C 1.169055 -2.012926 0.596707 -2.25 0 -2.25 
C -0.596707 -2.25 -1.169055 -2.012926 -1.59099 -1.59099 
C -2.012926 -1.169055 -2.25 -0.596707 -2.25 0 
C -2.25 0.596707 -2.012926 1.169055 -1.59099 1.59099 
C -1.169055 2.012926 -0.596707 2.25 0 2.25 
z
" style="stroke: #3d3d3d; stroke-width: 1.5"/>
    </defs>
    <g clip-path="url(#pf4e97eea1f)">
     <use xlink:href="#m950776061a" x="219.6" y="141.755242" style="fill: #ffffff; stroke: #3d3d3d; stroke-width: 1.5"/>
    </g>
   </g>
   <g id="PathCollection_2">
    <g clip-path="url(#pf4e97eea1f)">
     <use xlink:href="#m950776061a" x="442.8" y="241.473586" style="fill: #ffffff; stroke: #3d3d3d; stroke-width: 1.5"/>
    </g>
   </g>
   <g id="PathCollection_3">
    <g clip-path="url(#pf4e97eea1f)">
     <use xlink:href="#m950776061a" x="666" y="230.509157" style="fill: #ffffff; stroke: #3d3d3d; stroke-width: 1.5"/>
    </g>
   </g>
  </g>
 </g>
 <defs>
  <clipPath id="pf4e97eea1f">
   <rect x="108" y="51.84" width="669.6" height="326.16"/>
  </clipPath>
 </defs>
</svg>
