<?xml version="1.0" encoding="utf-8" standalone="no"?>
<!DOCTYPE svg PUBLIC "-//W3C//DTD SVG 1.1//EN"
  "http://www.w3.org/Graphics/SVG/1.1/DTD/svg11.dtd">
<svg xmlns:xlink="http://www.w3.org/1999/xlink" width="864pt" height="432pt" viewBox="0 0 864 432" xmlns="http://www.w3.org/2000/svg" version="1.1">
 <metadata>
  <rdf:RDF xmlns:dc="http://purl.org/dc/elements/1.1/" xmlns:cc="http://creativecommons.org/ns#" xmlns:rdf="http://www.w3.org/1999/02/22-rdf-syntax-ns#">
   <cc:Work>
    <dc:type rdf:resource="http://purl.org/dc/dcmitype/StillImage"/>
    <dc:date>2023-05-02T17:08:48.419311</dc:date>
    <dc:format>image/svg+xml</dc:format>
    <dc:creator>
     <cc:Agent>
      <dc:title>Matplotlib v3.5.1, https://matplotlib.org/</dc:title>
     </cc:Agent>
    </dc:creator>
   </cc:Work>
  </rdf:RDF>
 </metadata>
 <defs>
  <style type="text/css">*{stroke-linejoin: round; stroke-linecap: butt}</style>
 </defs>
 <g id="figure_1">
  <g id="patch_1">
   <path d="M 0 432 
L 864 432 
L 864 0 
L 0 0 
L 0 432 
z
" style="fill: none"/>
  </g>
  <g id="axes_1">
   <g id="patch_2">
    <path d="M 108 378 
L 777.6 378 
L 777.6 51.84 
L 108 51.84 
z
" style="fill: #ffffff"/>
   </g>
   <g id="PolyCollection_1">
    <defs>
     <path id="m1cf6a5b91b" d="M 138.436364 -239.888392 
L 138.436364 -185.582697 
L 141.48 -203.543434 
L 144.523636 -176.133506 
L 147.567273 -169.290989 
L 150.610909 -194.892245 
L 153.654545 -174.721558 
L 156.698182 -186.223382 
L 159.741818 -186.184899 
L 162.785455 -176.797953 
L 165.829091 -215.154616 
L 168.872727 -191.013267 
L 171.916364 -200.607273 
L 174.96 -194.008478 
L 178.003636 -201.548571 
L 181.047273 -212.587438 
L 184.090909 -210.02026 
L 187.134545 -190.571367 
L 190.178182 -191.305288 
L 193.221818 -181.781299 
L 196.265455 -235.569796 
L 199.309091 -186.968047 
L 202.352727 -210.02026 
L 205.396364 -211.475876 
L 208.44 -220.479134 
L 211.483636 -181.781299 
L 214.527273 -199.159121 
L 217.570909 -196.881299 
L 220.614545 -202.588954 
L 223.658182 -195.612627 
L 226.701818 -210.02026 
L 229.745455 -166.79736 
L 232.789091 -205.90779 
L 235.832727 -190.252987 
L 238.876364 -201.37568 
L 241.92 -186.716263 
L 244.963636 -175.071051 
L 248.007273 -229.027253 
L 251.050909 -238.259221 
L 254.094545 -169.290989 
L 257.138182 -219.806038 
L 260.181818 -182.817591 
L 263.225455 -244.011602 
L 266.269091 -223.340524 
L 269.312727 -223.340524 
L 272.356364 -189.849573 
L 275.4 -196.64391 
L 278.443636 -187.246904 
L 281.487273 -210.02026 
L 284.530909 -206.204184 
L 287.574545 -205.465589 
L 290.618182 -177.030819 
L 293.661818 -200.111852 
L 296.705455 -197.413581 
L 299.749091 -219.806038 
L 302.792727 -172.723519 
L 305.836364 -208.468668 
L 308.88 -183.37973 
L 311.923636 -225.148275 
L 314.967273 -201.714683 
L 318.010909 -212.634978 
L 321.054545 -192.370909 
L 324.098182 -219.087816 
L 327.141818 -194.331948 
L 330.185455 -222.35767 
L 333.229091 -196.177632 
L 336.272727 -225.708571 
L 339.316364 -197.917848 
L 342.36 -214.13273 
L 345.403636 -201.548571 
L 348.447273 -231.644689 
L 351.490909 -195.504906 
L 354.534545 -237.705516 
L 357.578182 -215.668052 
L 360.621818 -219.228617 
L 363.665455 -208.491862 
L 366.709091 -183.873074 
L 369.752727 -175.071051 
L 372.796364 -221.786494 
L 375.84 -208.59405 
L 378.883636 -208.700682 
L 381.927273 -220.288973 
L 384.970909 -191.846671 
L 388.014545 -214.479043 
L 391.058182 -205.004129 
L 394.101818 -189.086595 
L 397.145455 -215.668052 
L 400.189091 -188.39583 
L 403.232727 -210.02026 
L 406.276364 -218.325837 
L 409.32 -193.339893 
L 412.363636 -239.324842 
L 415.407273 -195.900779 
L 418.450909 -215.557311 
L 421.494545 -227.087764 
L 424.538182 -189.849573 
L 427.581818 -207.453081 
L 430.625455 -222.601975 
L 433.669091 -197.917848 
L 436.712727 -208.468668 
L 439.756364 -212.961818 
L 442.8 -184.753821 
L 445.843636 -196.177632 
L 448.887273 -205.741629 
L 451.930909 -208.459686 
L 454.974545 -213.987161 
L 458.018182 -207.251734 
L 461.061818 -210.02026 
L 464.105455 -197.68285 
L 467.149091 -199.159121 
L 470.192727 -233.324257 
L 473.236364 -204.483209 
L 476.28 -244.011602 
L 479.323636 -199.616432 
L 482.367273 -211.339837 
L 485.410909 -219.806038 
L 488.454545 -232.168464 
L 491.498182 -214.054397 
L 494.541818 -220.881399 
L 497.585455 -212.719572 
L 500.629091 -216.159164 
L 503.672727 -186.043783 
L 506.716364 -186.896008 
L 509.76 -220.676471 
L 512.803636 -205.756456 
L 515.847273 -220.003731 
L 518.890909 -185.464641 
L 521.934545 -199.159121 
L 524.978182 -207.498924 
L 528.021818 -189.429351 
L 531.065455 -193.728551 
L 534.109091 -227.174769 
L 537.152727 -225.030775 
L 540.196364 -192.168043 
L 543.24 -224.269277 
L 546.283636 -207.196364 
L 549.327273 -198.572032 
L 552.370909 -195.612627 
L 555.414545 -212.541596 
L 558.458182 -221.468487 
L 561.501818 -224.469635 
L 564.545455 -223.120809 
L 567.589091 -219.433247 
L 570.632727 -220.813516 
L 573.676364 -199.830944 
L 576.72 -223.862888 
L 579.763636 -190.640581 
L 582.807273 -215.249697 
L 585.850909 -218.098232 
L 588.894545 -210.02026 
L 591.938182 -224.13974 
L 594.981818 -211.538483 
L 598.025455 -241.717053 
L 601.069091 -219.806038 
L 604.112727 -223.528801 
L 607.156364 -219.78897 
L 610.2 -202.028101 
L 613.243636 -207.196364 
L 616.287273 -207.453081 
L 619.330909 -195.771243 
L 622.374545 -214.054397 
L 625.418182 -191.846671 
L 628.461818 -222.601975 
L 631.505455 -214.700312 
L 634.549091 -213.906355 
L 637.592727 -218.166114 
L 640.636364 -231.742537 
L 643.68 -201.211203 
L 646.723636 -196.699995 
L 649.767273 -199.159121 
L 652.810909 -235.092234 
L 655.854545 -222.856151 
L 658.898182 -227.501521 
L 661.941818 -235.50256 
L 664.985455 -197.113058 
L 668.029091 -231.854508 
L 671.072727 -221.315844 
L 674.116364 -208.649436 
L 677.16 -204.372468 
L 680.203636 -184.534597 
L 683.247273 -227.30942 
L 686.290909 -199.830944 
L 689.334545 -201.007825 
L 692.378182 -214.13273 
L 695.421818 -220.003731 
L 698.465455 -226.311968 
L 701.509091 -190.698865 
L 704.552727 -228.32329 
L 707.596364 -201.273679 
L 710.64 -229.787532 
L 713.683636 -181.781299 
L 716.727273 -192.538998 
L 719.770909 -197.68285 
L 722.814545 -201.116083 
L 725.858182 -164.837922 
L 728.901818 -229.385969 
L 731.945455 -213.906355 
L 734.989091 -195.504906 
L 738.032727 -205.741629 
L 741.076364 -181.781299 
L 744.12 -238.80755 
L 744.12 -288.157191 
L 744.12 -288.157191 
L 741.076364 -238.259221 
L 738.032727 -265.642456 
L 734.989091 -248.288011 
L 731.945455 -265.720963 
L 728.901818 -278.674615 
L 725.858182 -221.315844 
L 722.814545 -251.997094 
L 719.770909 -252.515784 
L 716.727273 -246.327495 
L 713.683636 -232.880371 
L 710.64 -280.617662 
L 707.596364 -248.755118 
L 704.552727 -275.453593 
L 701.509091 -247.2511 
L 698.465455 -275.187093 
L 695.421818 -274.199717 
L 692.378182 -268.965664 
L 689.334545 -258.086576 
L 686.290909 -258.055606 
L 683.247273 -282.058426 
L 680.203636 -238.259221 
L 677.16 -258.097091 
L 674.116364 -263.48237 
L 671.072727 -274.96987 
L 668.029091 -281.418251 
L 664.985455 -248.527934 
L 661.941818 -283.979443 
L 658.898182 -275.911169 
L 655.854545 -277.052137 
L 652.810909 -282.597029 
L 649.767273 -258.119589 
L 646.723636 -247.317001 
L 643.68 -248.817593 
L 640.636364 -283.332947 
L 637.592727 -272.471808 
L 634.549091 -263.130232 
L 631.505455 -268.719224 
L 628.461818 -275.724773 
L 625.418182 -244.969469 
L 622.374545 -262.464045 
L 619.330909 -250.241349 
L 616.287273 -258.796647 
L 613.243636 -260.920987 
L 610.2 -252.645107 
L 607.156364 -275.692262 
L 604.112727 -275.187093 
L 601.069091 -272.928836 
L 598.025455 -290.703006 
L 594.981818 -269.230984 
L 591.938182 -277.793766 
L 588.894545 -260.85039 
L 585.850909 -267.041239 
L 582.807273 -267.544069 
L 579.763636 -246.011092 
L 576.72 -276.464874 
L 573.676364 -255.217154 
L 570.632727 -272.53969 
L 567.589091 -272.773506 
L 564.545455 -278.434238 
L 561.501818 -274.679563 
L 558.458182 -272.349498 
L 555.414545 -262.968312 
L 552.370909 -250.361633 
L 549.327273 -251.997094 
L 546.283636 -263.674286 
L 543.24 -276.083884 
L 540.196364 -250.59348 
L 537.152727 -277.190604 
L 534.109091 -277.384697 
L 531.065455 -248.034246 
L 528.021818 -248.260519 
L 524.978182 -260.446976 
L 521.934545 -250.74953 
L 518.890909 -246.853687 
L 515.847273 -274.199717 
L 512.803636 -256.153216 
L 509.76 -273.95753 
L 506.716364 -241.717053 
L 503.672727 -236.660789 
L 500.629091 -271.409305 
L 497.585455 -265.390772 
L 494.541818 -269.756523 
L 491.498182 -267.842894 
L 488.454545 -282.001925 
L 485.410909 -272.998735 
L 482.367273 -261.483787 
L 479.323636 -256.094354 
L 476.28 -291.076537 
L 473.236364 -259.85372 
L 470.192727 -285.415544 
L 467.149091 -248.102128 
L 464.105455 -252.515784 
L 461.061818 -265.90987 
L 458.018182 -259.85372 
L 454.974545 -265.153469 
L 451.930909 -262.113712 
L 448.887273 -259.937615 
L 445.843636 -251.548144 
L 442.8 -241.231743 
L 439.756364 -265.90987 
L 436.712727 -267.429137 
L 433.669091 -251.773581 
L 430.625455 -278.52071 
L 427.581818 -258.796647 
L 424.538182 -242.797625 
L 421.494545 -279.841867 
L 418.450909 -273.696348 
L 415.407273 -252.378701 
L 412.363636 -289.941848 
L 409.32 -246.080306 
L 406.276364 -270.927823 
L 403.232727 -267.650792 
L 400.189091 -239.276841 
L 397.145455 -266.498182 
L 394.101818 -243.170344 
L 391.058182 -254.608093 
L 388.014545 -270.956965 
L 384.970909 -247.765406 
L 381.927273 -269.06536 
L 378.883636 -261.483787 
L 375.84 -265.642456 
L 372.796364 -277.676104 
L 369.752727 -228.193849 
L 366.709091 -238.782165 
L 363.665455 -260.966839 
L 360.621818 -277.54821 
L 357.578182 -269.322078 
L 354.534545 -290.307502 
L 351.490909 -250.927166 
L 348.447273 -282.5257 
L 345.403636 -255.202597 
L 342.36 -266.224017 
L 339.316364 -251.706345 
L 336.272727 -275.453593 
L 333.229091 -251.548144 
L 330.185455 -274.448957 
L 327.141818 -245.746824 
L 324.098182 -270.902423 
L 321.054545 -245.318961 
L 318.010909 -264.929351 
L 314.967273 -254.316669 
L 311.923636 -275.574991 
L 308.88 -236.660789 
L 305.836364 -267.429137 
L 302.792727 -231.332683 
L 299.749091 -272.928836 
L 296.705455 -247.840297 
L 293.661818 -254.608093 
L 290.618182 -227.174769 
L 287.574545 -260.121642 
L 284.530909 -257.085195 
L 281.487273 -260.85039 
L 278.443636 -244.939405 
L 275.4 -256.094354 
L 272.356364 -240.276289 
L 269.312727 -273.95753 
L 266.269091 -276.621583 
L 263.225455 -291.076537 
L 260.181818 -234.632198 
L 257.138182 -272.928836 
L 254.094545 -223.596683 
L 251.050909 -286.668868 
L 248.007273 -280.617662 
L 244.963636 -228.193849 
L 241.92 -241.549197 
L 238.876364 -256.124686 
L 235.832727 -246.730909 
L 232.789091 -260.740724 
L 229.745455 -227.30942 
L 226.701818 -258.796647 
L 223.658182 -253.243159 
L 220.614545 -257.085195 
L 217.570909 -251.855758 
L 214.527273 -258.119589 
L 211.483636 -238.259221 
L 208.44 -275.388225 
L 205.396364 -263.878072 
L 202.352727 -260.85039 
L 199.309091 -244.598579 
L 196.265455 -286.668868 
L 193.221818 -241.396883 
L 190.178182 -244.652948 
L 187.134545 -243.242567 
L 184.090909 -265.390772 
L 181.047273 -263.931004 
L 178.003636 -255.202597 
L 174.96 -249.321907 
L 171.916364 -254.39577 
L 168.872727 -248.034246 
L 165.829091 -266.498182 
L 162.785455 -232.168464 
L 159.741818 -239.377595 
L 156.698182 -243.335888 
L 153.654545 -227.66961 
L 150.610909 -247.840297 
L 147.567273 -226.311968 
L 144.523636 -229.85813 
L 141.48 -255.358041 
L 138.436364 -239.888392 
z
" style="stroke: #1f77b4; stroke-opacity: 0.2; stroke-width: 1.5"/>
    </defs>
    <g clip-path="url(#p38fab0dbac)">
     <use xlink:href="#m1cf6a5b91b" x="0" y="432" style="fill: #1f77b4; fill-opacity: 0.2; stroke: #1f77b4; stroke-opacity: 0.2; stroke-width: 1.5"/>
    </g>
   </g>
   <g id="PolyCollection_2">
    <defs>
     <path id="m48cd7c685e" d="M 138.436364 -365.334545 
L 138.436364 -68.825455 
L 141.48 -68.825455 
L 144.523636 -68.825455 
L 147.567273 -68.825455 
L 150.610909 -68.825455 
L 153.654545 -68.825455 
L 156.698182 -68.825455 
L 159.741818 -68.825455 
L 162.785455 -68.825455 
L 165.829091 -68.825455 
L 168.872727 -68.825455 
L 171.916364 -68.825455 
L 174.96 -68.825455 
L 178.003636 -68.825455 
L 181.047273 -68.825455 
L 184.090909 -68.825455 
L 187.134545 -68.825455 
L 190.178182 -68.825455 
L 193.221818 -68.825455 
L 196.265455 -68.825455 
L 199.309091 -68.825455 
L 202.352727 -68.825455 
L 205.396364 -68.825455 
L 208.44 -68.825455 
L 211.483636 -68.825455 
L 214.527273 -68.825455 
L 217.570909 -68.825455 
L 220.614545 -68.825455 
L 223.658182 -68.825455 
L 226.701818 -68.825455 
L 229.745455 -68.825455 
L 232.789091 -68.825455 
L 235.832727 -68.825455 
L 238.876364 -68.825455 
L 241.92 -68.825455 
L 244.963636 -68.825455 
L 248.007273 -68.825455 
L 251.050909 -68.825455 
L 254.094545 -68.825455 
L 257.138182 -68.825455 
L 260.181818 -68.825455 
L 260.181818 -365.334545 
L 260.181818 -365.334545 
L 257.138182 -365.334545 
L 254.094545 -365.334545 
L 251.050909 -365.334545 
L 248.007273 -365.334545 
L 244.963636 -365.334545 
L 241.92 -365.334545 
L 238.876364 -365.334545 
L 235.832727 -365.334545 
L 232.789091 -365.334545 
L 229.745455 -365.334545 
L 226.701818 -365.334545 
L 223.658182 -365.334545 
L 220.614545 -365.334545 
L 217.570909 -365.334545 
L 214.527273 -365.334545 
L 211.483636 -365.334545 
L 208.44 -365.334545 
L 205.396364 -365.334545 
L 202.352727 -365.334545 
L 199.309091 -365.334545 
L 196.265455 -365.334545 
L 193.221818 -365.334545 
L 190.178182 -365.334545 
L 187.134545 -365.334545 
L 184.090909 -365.334545 
L 181.047273 -365.334545 
L 178.003636 -365.334545 
L 174.96 -365.334545 
L 171.916364 -365.334545 
L 168.872727 -365.334545 
L 165.829091 -365.334545 
L 162.785455 -365.334545 
L 159.741818 -365.334545 
L 156.698182 -365.334545 
L 153.654545 -365.334545 
L 150.610909 -365.334545 
L 147.567273 -365.334545 
L 144.523636 -365.334545 
L 141.48 -365.334545 
L 138.436364 -365.334545 
z
" style="stroke: #800080; stroke-opacity: 0.2; stroke-width: 1.5"/>
    </defs>
    <g clip-path="url(#p38fab0dbac)">
     <use xlink:href="#m48cd7c685e" x="0" y="432" style="fill: #800080; fill-opacity: 0.2; stroke: #800080; stroke-opacity: 0.2; stroke-width: 1.5"/>
    </g>
   </g>
   <g id="PolyCollection_3">
    <defs>
     <path id="m4d4dd9b562" d="M 260.181818 -365.334545 
L 260.181818 -68.825455 
L 263.225455 -68.825455 
L 266.269091 -68.825455 
L 269.312727 -68.825455 
L 272.356364 -68.825455 
L 275.4 -68.825455 
L 278.443636 -68.825455 
L 281.487273 -68.825455 
L 284.530909 -68.825455 
L 287.574545 -68.825455 
L 290.618182 -68.825455 
L 293.661818 -68.825455 
L 296.705455 -68.825455 
L 299.749091 -68.825455 
L 302.792727 -68.825455 
L 305.836364 -68.825455 
L 308.88 -68.825455 
L 311.923636 -68.825455 
L 314.967273 -68.825455 
L 318.010909 -68.825455 
L 321.054545 -68.825455 
L 324.098182 -68.825455 
L 327.141818 -68.825455 
L 330.185455 -68.825455 
L 333.229091 -68.825455 
L 336.272727 -68.825455 
L 339.316364 -68.825455 
L 342.36 -68.825455 
L 345.403636 -68.825455 
L 348.447273 -68.825455 
L 351.490909 -68.825455 
L 354.534545 -68.825455 
L 357.578182 -68.825455 
L 360.621818 -68.825455 
L 363.665455 -68.825455 
L 366.709091 -68.825455 
L 369.752727 -68.825455 
L 372.796364 -68.825455 
L 375.84 -68.825455 
L 378.883636 -68.825455 
L 381.927273 -68.825455 
L 381.927273 -365.334545 
L 381.927273 -365.334545 
L 378.883636 -365.334545 
L 375.84 -365.334545 
L 372.796364 -365.334545 
L 369.752727 -365.334545 
L 366.709091 -365.334545 
L 363.665455 -365.334545 
L 360.621818 -365.334545 
L 357.578182 -365.334545 
L 354.534545 -365.334545 
L 351.490909 -365.334545 
L 348.447273 -365.334545 
L 345.403636 -365.334545 
L 342.36 -365.334545 
L 339.316364 -365.334545 
L 336.272727 -365.334545 
L 333.229091 -365.334545 
L 330.185455 -365.334545 
L 327.141818 -365.334545 
L 324.098182 -365.334545 
L 321.054545 -365.334545 
L 318.010909 -365.334545 
L 314.967273 -365.334545 
L 311.923636 -365.334545 
L 308.88 -365.334545 
L 305.836364 -365.334545 
L 302.792727 -365.334545 
L 299.749091 -365.334545 
L 296.705455 -365.334545 
L 293.661818 -365.334545 
L 290.618182 -365.334545 
L 287.574545 -365.334545 
L 284.530909 -365.334545 
L 281.487273 -365.334545 
L 278.443636 -365.334545 
L 275.4 -365.334545 
L 272.356364 -365.334545 
L 269.312727 -365.334545 
L 266.269091 -365.334545 
L 263.225455 -365.334545 
L 260.181818 -365.334545 
z
" style="stroke: #800080; stroke-opacity: 0.2; stroke-width: 1.5"/>
    </defs>
    <g clip-path="url(#p38fab0dbac)">
     <use xlink:href="#m4d4dd9b562" x="0" y="432" style="fill: #800080; fill-opacity: 0.2; stroke: #800080; stroke-opacity: 0.2; stroke-width: 1.5"/>
    </g>
   </g>
   <g id="PolyCollection_4">
    <defs>
     <path id="m7d2d53a279" d="M 381.927273 -365.334545 
L 381.927273 -68.825455 
L 384.970909 -68.825455 
L 388.014545 -68.825455 
L 391.058182 -68.825455 
L 394.101818 -68.825455 
L 397.145455 -68.825455 
L 400.189091 -68.825455 
L 403.232727 -68.825455 
L 406.276364 -68.825455 
L 409.32 -68.825455 
L 412.363636 -68.825455 
L 415.407273 -68.825455 
L 418.450909 -68.825455 
L 421.494545 -68.825455 
L 424.538182 -68.825455 
L 427.581818 -68.825455 
L 430.625455 -68.825455 
L 433.669091 -68.825455 
L 436.712727 -68.825455 
L 439.756364 -68.825455 
L 442.8 -68.825455 
L 445.843636 -68.825455 
L 448.887273 -68.825455 
L 451.930909 -68.825455 
L 454.974545 -68.825455 
L 458.018182 -68.825455 
L 461.061818 -68.825455 
L 464.105455 -68.825455 
L 467.149091 -68.825455 
L 470.192727 -68.825455 
L 473.236364 -68.825455 
L 476.28 -68.825455 
L 479.323636 -68.825455 
L 482.367273 -68.825455 
L 485.410909 -68.825455 
L 488.454545 -68.825455 
L 491.498182 -68.825455 
L 494.541818 -68.825455 
L 497.585455 -68.825455 
L 500.629091 -68.825455 
L 503.672727 -68.825455 
L 503.672727 -365.334545 
L 503.672727 -365.334545 
L 500.629091 -365.334545 
L 497.585455 -365.334545 
L 494.541818 -365.334545 
L 491.498182 -365.334545 
L 488.454545 -365.334545 
L 485.410909 -365.334545 
L 482.367273 -365.334545 
L 479.323636 -365.334545 
L 476.28 -365.334545 
L 473.236364 -365.334545 
L 470.192727 -365.334545 
L 467.149091 -365.334545 
L 464.105455 -365.334545 
L 461.061818 -365.334545 
L 458.018182 -365.334545 
L 454.974545 -365.334545 
L 451.930909 -365.334545 
L 448.887273 -365.334545 
L 445.843636 -365.334545 
L 442.8 -365.334545 
L 439.756364 -365.334545 
L 436.712727 -365.334545 
L 433.669091 -365.334545 
L 430.625455 -365.334545 
L 427.581818 -365.334545 
L 424.538182 -365.334545 
L 421.494545 -365.334545 
L 418.450909 -365.334545 
L 415.407273 -365.334545 
L 412.363636 -365.334545 
L 409.32 -365.334545 
L 406.276364 -365.334545 
L 403.232727 -365.334545 
L 400.189091 -365.334545 
L 397.145455 -365.334545 
L 394.101818 -365.334545 
L 391.058182 -365.334545 
L 388.014545 -365.334545 
L 384.970909 -365.334545 
L 381.927273 -365.334545 
z
" style="stroke: #0000ff; stroke-opacity: 0.2; stroke-width: 1.5"/>
    </defs>
    <g clip-path="url(#p38fab0dbac)">
     <use xlink:href="#m7d2d53a279" x="0" y="432" style="fill: #0000ff; fill-opacity: 0.2; stroke: #0000ff; stroke-opacity: 0.2; stroke-width: 1.5"/>
    </g>
   </g>
   <g id="PolyCollection_5">
    <defs>
     <path id="m3d53033b5d" d="M 503.672727 -365.334545 
L 503.672727 -68.825455 
L 506.716364 -68.825455 
L 509.76 -68.825455 
L 512.803636 -68.825455 
L 515.847273 -68.825455 
L 518.890909 -68.825455 
L 521.934545 -68.825455 
L 524.978182 -68.825455 
L 528.021818 -68.825455 
L 531.065455 -68.825455 
L 534.109091 -68.825455 
L 537.152727 -68.825455 
L 540.196364 -68.825455 
L 543.24 -68.825455 
L 546.283636 -68.825455 
L 549.327273 -68.825455 
L 552.370909 -68.825455 
L 555.414545 -68.825455 
L 558.458182 -68.825455 
L 561.501818 -68.825455 
L 564.545455 -68.825455 
L 567.589091 -68.825455 
L 570.632727 -68.825455 
L 573.676364 -68.825455 
L 576.72 -68.825455 
L 579.763636 -68.825455 
L 582.807273 -68.825455 
L 585.850909 -68.825455 
L 588.894545 -68.825455 
L 591.938182 -68.825455 
L 594.981818 -68.825455 
L 598.025455 -68.825455 
L 601.069091 -68.825455 
L 604.112727 -68.825455 
L 607.156364 -68.825455 
L 610.2 -68.825455 
L 613.243636 -68.825455 
L 616.287273 -68.825455 
L 619.330909 -68.825455 
L 622.374545 -68.825455 
L 625.418182 -68.825455 
L 625.418182 -365.334545 
L 625.418182 -365.334545 
L 622.374545 -365.334545 
L 619.330909 -365.334545 
L 616.287273 -365.334545 
L 613.243636 -365.334545 
L 610.2 -365.334545 
L 607.156364 -365.334545 
L 604.112727 -365.334545 
L 601.069091 -365.334545 
L 598.025455 -365.334545 
L 594.981818 -365.334545 
L 591.938182 -365.334545 
L 588.894545 -365.334545 
L 585.850909 -365.334545 
L 582.807273 -365.334545 
L 579.763636 -365.334545 
L 576.72 -365.334545 
L 573.676364 -365.334545 
L 570.632727 -365.334545 
L 567.589091 -365.334545 
L 564.545455 -365.334545 
L 561.501818 -365.334545 
L 558.458182 -365.334545 
L 555.414545 -365.334545 
L 552.370909 -365.334545 
L 549.327273 -365.334545 
L 546.283636 -365.334545 
L 543.24 -365.334545 
L 540.196364 -365.334545 
L 537.152727 -365.334545 
L 534.109091 -365.334545 
L 531.065455 -365.334545 
L 528.021818 -365.334545 
L 524.978182 -365.334545 
L 521.934545 -365.334545 
L 518.890909 -365.334545 
L 515.847273 -365.334545 
L 512.803636 -365.334545 
L 509.76 -365.334545 
L 506.716364 -365.334545 
L 503.672727 -365.334545 
z
" style="stroke: #008000; stroke-opacity: 0.2; stroke-width: 1.5"/>
    </defs>
    <g clip-path="url(#p38fab0dbac)">
     <use xlink:href="#m3d53033b5d" x="0" y="432" style="fill: #008000; fill-opacity: 0.2; stroke: #008000; stroke-opacity: 0.2; stroke-width: 1.5"/>
    </g>
   </g>
   <g id="PolyCollection_6">
    <defs>
     <path id="m0e9075d6df" d="M 625.418182 -365.334545 
L 625.418182 -68.825455 
L 628.461818 -68.825455 
L 631.505455 -68.825455 
L 634.549091 -68.825455 
L 637.592727 -68.825455 
L 640.636364 -68.825455 
L 643.68 -68.825455 
L 646.723636 -68.825455 
L 649.767273 -68.825455 
L 652.810909 -68.825455 
L 655.854545 -68.825455 
L 658.898182 -68.825455 
L 661.941818 -68.825455 
L 664.985455 -68.825455 
L 668.029091 -68.825455 
L 671.072727 -68.825455 
L 674.116364 -68.825455 
L 677.16 -68.825455 
L 680.203636 -68.825455 
L 683.247273 -68.825455 
L 686.290909 -68.825455 
L 689.334545 -68.825455 
L 692.378182 -68.825455 
L 695.421818 -68.825455 
L 698.465455 -68.825455 
L 701.509091 -68.825455 
L 704.552727 -68.825455 
L 707.596364 -68.825455 
L 710.64 -68.825455 
L 713.683636 -68.825455 
L 716.727273 -68.825455 
L 719.770909 -68.825455 
L 722.814545 -68.825455 
L 725.858182 -68.825455 
L 728.901818 -68.825455 
L 731.945455 -68.825455 
L 734.989091 -68.825455 
L 738.032727 -68.825455 
L 741.076364 -68.825455 
L 744.12 -68.825455 
L 747.163636 -68.825455 
L 747.163636 -365.334545 
L 747.163636 -365.334545 
L 744.12 -365.334545 
L 741.076364 -365.334545 
L 738.032727 -365.334545 
L 734.989091 -365.334545 
L 731.945455 -365.334545 
L 728.901818 -365.334545 
L 725.858182 -365.334545 
L 722.814545 -365.334545 
L 719.770909 -365.334545 
L 716.727273 -365.334545 
L 713.683636 -365.334545 
L 710.64 -365.334545 
L 707.596364 -365.334545 
L 704.552727 -365.334545 
L 701.509091 -365.334545 
L 698.465455 -365.334545 
L 695.421818 -365.334545 
L 692.378182 -365.334545 
L 689.334545 -365.334545 
L 686.290909 -365.334545 
L 683.247273 -365.334545 
L 680.203636 -365.334545 
L 677.16 -365.334545 
L 674.116364 -365.334545 
L 671.072727 -365.334545 
L 668.029091 -365.334545 
L 664.985455 -365.334545 
L 661.941818 -365.334545 
L 658.898182 -365.334545 
L 655.854545 -365.334545 
L 652.810909 -365.334545 
L 649.767273 -365.334545 
L 646.723636 -365.334545 
L 643.68 -365.334545 
L 640.636364 -365.334545 
L 637.592727 -365.334545 
L 634.549091 -365.334545 
L 631.505455 -365.334545 
L 628.461818 -365.334545 
L 625.418182 -365.334545 
z
" style="stroke: #ff0000; stroke-opacity: 0.2; stroke-width: 1.5"/>
    </defs>
    <g clip-path="url(#p38fab0dbac)">
     <use xlink:href="#m0e9075d6df" x="0" y="432" style="fill: #ff0000; fill-opacity: 0.2; stroke: #ff0000; stroke-opacity: 0.2; stroke-width: 1.5"/>
    </g>
   </g>
   <g id="matplotlib.axis_1">
    <g id="xtick_1">
     <g id="line2d_1">
      <defs>
       <path id="m4771588829" d="M 0 0 
L 0 9 
" style="stroke: #000000; stroke-width: 1.875"/>
      </defs>
      <g>
       <use xlink:href="#m4771588829" x="138.436364" y="378" style="stroke: #000000; stroke-width: 1.875"/>
      </g>
     </g>
     <g id="text_1">
      <!-- 0 -->
      <g transform="translate(133.187301 403.037422)scale(0.165 -0.165)">
       <defs>
        <path id="DejaVuSans-30" d="M 2034 4250 
Q 1547 4250 1301 3770 
Q 1056 3291 1056 2328 
Q 1056 1369 1301 889 
Q 1547 409 2034 409 
Q 2525 409 2770 889 
Q 3016 1369 3016 2328 
Q 3016 3291 2770 3770 
Q 2525 4250 2034 4250 
z
M 2034 4750 
Q 2819 4750 3233 4129 
Q 3647 3509 3647 2328 
Q 3647 1150 3233 529 
Q 2819 -91 2034 -91 
Q 1250 -91 836 529 
Q 422 1150 422 2328 
Q 422 3509 836 4129 
Q 1250 4750 2034 4750 
z
" transform="scale(0.015625)"/>
       </defs>
       <use xlink:href="#DejaVuSans-30"/>
      </g>
     </g>
    </g>
    <g id="xtick_2">
     <g id="line2d_2">
      <g>
       <use xlink:href="#m4771588829" x="214.527273" y="378" style="stroke: #000000; stroke-width: 1.875"/>
      </g>
     </g>
     <g id="text_2">
      <!-- 25 -->
      <g transform="translate(204.029148 403.037422)scale(0.165 -0.165)">
       <defs>
        <path id="DejaVuSans-32" d="M 1228 531 
L 3431 531 
L 3431 0 
L 469 0 
L 469 531 
Q 828 903 1448 1529 
Q 2069 2156 2228 2338 
Q 2531 2678 2651 2914 
Q 2772 3150 2772 3378 
Q 2772 3750 2511 3984 
Q 2250 4219 1831 4219 
Q 1534 4219 1204 4116 
Q 875 4013 500 3803 
L 500 4441 
Q 881 4594 1212 4672 
Q 1544 4750 1819 4750 
Q 2544 4750 2975 4387 
Q 3406 4025 3406 3419 
Q 3406 3131 3298 2873 
Q 3191 2616 2906 2266 
Q 2828 2175 2409 1742 
Q 1991 1309 1228 531 
z
" transform="scale(0.015625)"/>
        <path id="DejaVuSans-35" d="M 691 4666 
L 3169 4666 
L 3169 4134 
L 1269 4134 
L 1269 2991 
Q 1406 3038 1543 3061 
Q 1681 3084 1819 3084 
Q 2600 3084 3056 2656 
Q 3513 2228 3513 1497 
Q 3513 744 3044 326 
Q 2575 -91 1722 -91 
Q 1428 -91 1123 -41 
Q 819 9 494 109 
L 494 744 
Q 775 591 1075 516 
Q 1375 441 1709 441 
Q 2250 441 2565 725 
Q 2881 1009 2881 1497 
Q 2881 1984 2565 2268 
Q 2250 2553 1709 2553 
Q 1456 2553 1204 2497 
Q 953 2441 691 2322 
L 691 4666 
z
" transform="scale(0.015625)"/>
       </defs>
       <use xlink:href="#DejaVuSans-32"/>
       <use xlink:href="#DejaVuSans-35" x="63.623047"/>
      </g>
     </g>
    </g>
    <g id="xtick_3">
     <g id="line2d_3">
      <g>
       <use xlink:href="#m4771588829" x="290.618182" y="378" style="stroke: #000000; stroke-width: 1.875"/>
      </g>
     </g>
     <g id="text_3">
      <!-- 50 -->
      <g transform="translate(280.120057 403.037422)scale(0.165 -0.165)">
       <use xlink:href="#DejaVuSans-35"/>
       <use xlink:href="#DejaVuSans-30" x="63.623047"/>
      </g>
     </g>
    </g>
    <g id="xtick_4">
     <g id="line2d_4">
      <g>
       <use xlink:href="#m4771588829" x="366.709091" y="378" style="stroke: #000000; stroke-width: 1.875"/>
      </g>
     </g>
     <g id="text_4">
      <!-- 75 -->
      <g transform="translate(356.210966 403.037422)scale(0.165 -0.165)">
       <defs>
        <path id="DejaVuSans-37" d="M 525 4666 
L 3525 4666 
L 3525 4397 
L 1831 0 
L 1172 0 
L 2766 4134 
L 525 4134 
L 525 4666 
z
" transform="scale(0.015625)"/>
       </defs>
       <use xlink:href="#DejaVuSans-37"/>
       <use xlink:href="#DejaVuSans-35" x="63.623047"/>
      </g>
     </g>
    </g>
    <g id="xtick_5">
     <g id="line2d_5">
      <g>
       <use xlink:href="#m4771588829" x="442.8" y="378" style="stroke: #000000; stroke-width: 1.875"/>
      </g>
     </g>
     <g id="text_5">
      <!-- 100 -->
      <g transform="translate(427.052813 403.037422)scale(0.165 -0.165)">
       <defs>
        <path id="DejaVuSans-31" d="M 794 531 
L 1825 531 
L 1825 4091 
L 703 3866 
L 703 4441 
L 1819 4666 
L 2450 4666 
L 2450 531 
L 3481 531 
L 3481 0 
L 794 0 
L 794 531 
z
" transform="scale(0.015625)"/>
       </defs>
       <use xlink:href="#DejaVuSans-31"/>
       <use xlink:href="#DejaVuSans-30" x="63.623047"/>
       <use xlink:href="#DejaVuSans-30" x="127.246094"/>
      </g>
     </g>
    </g>
    <g id="xtick_6">
     <g id="line2d_6">
      <g>
       <use xlink:href="#m4771588829" x="518.890909" y="378" style="stroke: #000000; stroke-width: 1.875"/>
      </g>
     </g>
     <g id="text_6">
      <!-- 125 -->
      <g transform="translate(503.143722 403.037422)scale(0.165 -0.165)">
       <use xlink:href="#DejaVuSans-31"/>
       <use xlink:href="#DejaVuSans-32" x="63.623047"/>
       <use xlink:href="#DejaVuSans-35" x="127.246094"/>
      </g>
     </g>
    </g>
    <g id="xtick_7">
     <g id="line2d_7">
      <g>
       <use xlink:href="#m4771588829" x="594.981818" y="378" style="stroke: #000000; stroke-width: 1.875"/>
      </g>
     </g>
     <g id="text_7">
      <!-- 150 -->
      <g transform="translate(579.234631 403.037422)scale(0.165 -0.165)">
       <use xlink:href="#DejaVuSans-31"/>
       <use xlink:href="#DejaVuSans-35" x="63.623047"/>
       <use xlink:href="#DejaVuSans-30" x="127.246094"/>
      </g>
     </g>
    </g>
    <g id="xtick_8">
     <g id="line2d_8">
      <g>
       <use xlink:href="#m4771588829" x="671.072727" y="378" style="stroke: #000000; stroke-width: 1.875"/>
      </g>
     </g>
     <g id="text_8">
      <!-- 175 -->
      <g transform="translate(655.32554 403.037422)scale(0.165 -0.165)">
       <use xlink:href="#DejaVuSans-31"/>
       <use xlink:href="#DejaVuSans-37" x="63.623047"/>
       <use xlink:href="#DejaVuSans-35" x="127.246094"/>
      </g>
     </g>
    </g>
    <g id="xtick_9">
     <g id="line2d_9">
      <g>
       <use xlink:href="#m4771588829" x="747.163636" y="378" style="stroke: #000000; stroke-width: 1.875"/>
      </g>
     </g>
     <g id="text_9">
      <!-- 200 -->
      <g transform="translate(731.416449 403.037422)scale(0.165 -0.165)">
       <use xlink:href="#DejaVuSans-32"/>
       <use xlink:href="#DejaVuSans-30" x="63.623047"/>
       <use xlink:href="#DejaVuSans-30" x="127.246094"/>
      </g>
     </g>
    </g>
    <g id="text_10">
     <!-- trial -->
     <g transform="translate(425.055938 424.146094)scale(0.18 -0.18)">
      <defs>
       <path id="DejaVuSans-74" d="M 1172 4494 
L 1172 3500 
L 2356 3500 
L 2356 3053 
L 1172 3053 
L 1172 1153 
Q 1172 725 1289 603 
Q 1406 481 1766 481 
L 2356 481 
L 2356 0 
L 1766 0 
Q 1100 0 847 248 
Q 594 497 594 1153 
L 594 3053 
L 172 3053 
L 172 3500 
L 594 3500 
L 594 4494 
L 1172 4494 
z
" transform="scale(0.015625)"/>
       <path id="DejaVuSans-72" d="M 2631 2963 
Q 2534 3019 2420 3045 
Q 2306 3072 2169 3072 
Q 1681 3072 1420 2755 
Q 1159 2438 1159 1844 
L 1159 0 
L 581 0 
L 581 3500 
L 1159 3500 
L 1159 2956 
Q 1341 3275 1631 3429 
Q 1922 3584 2338 3584 
Q 2397 3584 2469 3576 
Q 2541 3569 2628 3553 
L 2631 2963 
z
" transform="scale(0.015625)"/>
       <path id="DejaVuSans-69" d="M 603 3500 
L 1178 3500 
L 1178 0 
L 603 0 
L 603 3500 
z
M 603 4863 
L 1178 4863 
L 1178 4134 
L 603 4134 
L 603 4863 
z
" transform="scale(0.015625)"/>
       <path id="DejaVuSans-61" d="M 2194 1759 
Q 1497 1759 1228 1600 
Q 959 1441 959 1056 
Q 959 750 1161 570 
Q 1363 391 1709 391 
Q 2188 391 2477 730 
Q 2766 1069 2766 1631 
L 2766 1759 
L 2194 1759 
z
M 3341 1997 
L 3341 0 
L 2766 0 
L 2766 531 
Q 2569 213 2275 61 
Q 1981 -91 1556 -91 
Q 1019 -91 701 211 
Q 384 513 384 1019 
Q 384 1609 779 1909 
Q 1175 2209 1959 2209 
L 2766 2209 
L 2766 2266 
Q 2766 2663 2505 2880 
Q 2244 3097 1772 3097 
Q 1472 3097 1187 3025 
Q 903 2953 641 2809 
L 641 3341 
Q 956 3463 1253 3523 
Q 1550 3584 1831 3584 
Q 2591 3584 2966 3190 
Q 3341 2797 3341 1997 
z
" transform="scale(0.015625)"/>
       <path id="DejaVuSans-6c" d="M 603 4863 
L 1178 4863 
L 1178 0 
L 603 0 
L 603 4863 
z
" transform="scale(0.015625)"/>
      </defs>
      <use xlink:href="#DejaVuSans-74"/>
      <use xlink:href="#DejaVuSans-72" x="39.208984"/>
      <use xlink:href="#DejaVuSans-69" x="80.322266"/>
      <use xlink:href="#DejaVuSans-61" x="108.105469"/>
      <use xlink:href="#DejaVuSans-6c" x="169.384766"/>
     </g>
    </g>
   </g>
   <g id="matplotlib.axis_2">
    <g id="ytick_1">
     <g id="line2d_10">
      <defs>
       <path id="mce68637d2a" d="M 0 0 
L -9 0 
" style="stroke: #000000; stroke-width: 1.875"/>
      </defs>
      <g>
       <use xlink:href="#mce68637d2a" x="108" y="363.174545" style="stroke: #000000; stroke-width: 1.875"/>
      </g>
     </g>
     <g id="text_11">
      <!-- 0.0 -->
      <g transform="translate(69.259844 369.443256)scale(0.165 -0.165)">
       <defs>
        <path id="DejaVuSans-2e" d="M 684 794 
L 1344 794 
L 1344 0 
L 684 0 
L 684 794 
z
" transform="scale(0.015625)"/>
       </defs>
       <use xlink:href="#DejaVuSans-30"/>
       <use xlink:href="#DejaVuSans-2e" x="63.623047"/>
       <use xlink:href="#DejaVuSans-30" x="95.410156"/>
      </g>
     </g>
    </g>
    <g id="ytick_2">
     <g id="line2d_11">
      <g>
       <use xlink:href="#mce68637d2a" x="108" y="306.696623" style="stroke: #000000; stroke-width: 1.875"/>
      </g>
     </g>
     <g id="text_12">
      <!-- 0.2 -->
      <g transform="translate(69.259844 312.965334)scale(0.165 -0.165)">
       <use xlink:href="#DejaVuSans-30"/>
       <use xlink:href="#DejaVuSans-2e" x="63.623047"/>
       <use xlink:href="#DejaVuSans-32" x="95.410156"/>
      </g>
     </g>
    </g>
    <g id="ytick_3">
     <g id="line2d_12">
      <g>
       <use xlink:href="#mce68637d2a" x="108" y="250.218701" style="stroke: #000000; stroke-width: 1.875"/>
      </g>
     </g>
     <g id="text_13">
      <!-- 0.4 -->
      <g transform="translate(69.259844 256.487412)scale(0.165 -0.165)">
       <defs>
        <path id="DejaVuSans-34" d="M 2419 4116 
L 825 1625 
L 2419 1625 
L 2419 4116 
z
M 2253 4666 
L 3047 4666 
L 3047 1625 
L 3713 1625 
L 3713 1100 
L 3047 1100 
L 3047 0 
L 2419 0 
L 2419 1100 
L 313 1100 
L 313 1709 
L 2253 4666 
z
" transform="scale(0.015625)"/>
       </defs>
       <use xlink:href="#DejaVuSans-30"/>
       <use xlink:href="#DejaVuSans-2e" x="63.623047"/>
       <use xlink:href="#DejaVuSans-34" x="95.410156"/>
      </g>
     </g>
    </g>
    <g id="ytick_4">
     <g id="line2d_13">
      <g>
       <use xlink:href="#mce68637d2a" x="108" y="193.740779" style="stroke: #000000; stroke-width: 1.875"/>
      </g>
     </g>
     <g id="text_14">
      <!-- 0.6 -->
      <g transform="translate(69.259844 200.00949)scale(0.165 -0.165)">
       <defs>
        <path id="DejaVuSans-36" d="M 2113 2584 
Q 1688 2584 1439 2293 
Q 1191 2003 1191 1497 
Q 1191 994 1439 701 
Q 1688 409 2113 409 
Q 2538 409 2786 701 
Q 3034 994 3034 1497 
Q 3034 2003 2786 2293 
Q 2538 2584 2113 2584 
z
M 3366 4563 
L 3366 3988 
Q 3128 4100 2886 4159 
Q 2644 4219 2406 4219 
Q 1781 4219 1451 3797 
Q 1122 3375 1075 2522 
Q 1259 2794 1537 2939 
Q 1816 3084 2150 3084 
Q 2853 3084 3261 2657 
Q 3669 2231 3669 1497 
Q 3669 778 3244 343 
Q 2819 -91 2113 -91 
Q 1303 -91 875 529 
Q 447 1150 447 2328 
Q 447 3434 972 4092 
Q 1497 4750 2381 4750 
Q 2619 4750 2861 4703 
Q 3103 4656 3366 4563 
z
" transform="scale(0.015625)"/>
       </defs>
       <use xlink:href="#DejaVuSans-30"/>
       <use xlink:href="#DejaVuSans-2e" x="63.623047"/>
       <use xlink:href="#DejaVuSans-36" x="95.410156"/>
      </g>
     </g>
    </g>
    <g id="ytick_5">
     <g id="line2d_14">
      <g>
       <use xlink:href="#mce68637d2a" x="108" y="137.262857" style="stroke: #000000; stroke-width: 1.875"/>
      </g>
     </g>
     <g id="text_15">
      <!-- 0.8 -->
      <g transform="translate(69.259844 143.531568)scale(0.165 -0.165)">
       <defs>
        <path id="DejaVuSans-38" d="M 2034 2216 
Q 1584 2216 1326 1975 
Q 1069 1734 1069 1313 
Q 1069 891 1326 650 
Q 1584 409 2034 409 
Q 2484 409 2743 651 
Q 3003 894 3003 1313 
Q 3003 1734 2745 1975 
Q 2488 2216 2034 2216 
z
M 1403 2484 
Q 997 2584 770 2862 
Q 544 3141 544 3541 
Q 544 4100 942 4425 
Q 1341 4750 2034 4750 
Q 2731 4750 3128 4425 
Q 3525 4100 3525 3541 
Q 3525 3141 3298 2862 
Q 3072 2584 2669 2484 
Q 3125 2378 3379 2068 
Q 3634 1759 3634 1313 
Q 3634 634 3220 271 
Q 2806 -91 2034 -91 
Q 1263 -91 848 271 
Q 434 634 434 1313 
Q 434 1759 690 2068 
Q 947 2378 1403 2484 
z
M 1172 3481 
Q 1172 3119 1398 2916 
Q 1625 2713 2034 2713 
Q 2441 2713 2670 2916 
Q 2900 3119 2900 3481 
Q 2900 3844 2670 4047 
Q 2441 4250 2034 4250 
Q 1625 4250 1398 4047 
Q 1172 3844 1172 3481 
z
" transform="scale(0.015625)"/>
       </defs>
       <use xlink:href="#DejaVuSans-30"/>
       <use xlink:href="#DejaVuSans-2e" x="63.623047"/>
       <use xlink:href="#DejaVuSans-38" x="95.410156"/>
      </g>
     </g>
    </g>
    <g id="ytick_6">
     <g id="line2d_15">
      <g>
       <use xlink:href="#mce68637d2a" x="108" y="80.784935" style="stroke: #000000; stroke-width: 1.875"/>
      </g>
     </g>
     <g id="text_16">
      <!-- 1.0 -->
      <g transform="translate(69.259844 87.053646)scale(0.165 -0.165)">
       <use xlink:href="#DejaVuSans-31"/>
       <use xlink:href="#DejaVuSans-2e" x="63.623047"/>
       <use xlink:href="#DejaVuSans-30" x="95.410156"/>
      </g>
     </g>
    </g>
    <g id="text_17">
     <!-- prediction accuracy -->
     <g transform="translate(61.516406 303.537656)rotate(-90)scale(0.18 -0.18)">
      <defs>
       <path id="DejaVuSans-70" d="M 1159 525 
L 1159 -1331 
L 581 -1331 
L 581 3500 
L 1159 3500 
L 1159 2969 
Q 1341 3281 1617 3432 
Q 1894 3584 2278 3584 
Q 2916 3584 3314 3078 
Q 3713 2572 3713 1747 
Q 3713 922 3314 415 
Q 2916 -91 2278 -91 
Q 1894 -91 1617 61 
Q 1341 213 1159 525 
z
M 3116 1747 
Q 3116 2381 2855 2742 
Q 2594 3103 2138 3103 
Q 1681 3103 1420 2742 
Q 1159 2381 1159 1747 
Q 1159 1113 1420 752 
Q 1681 391 2138 391 
Q 2594 391 2855 752 
Q 3116 1113 3116 1747 
z
" transform="scale(0.015625)"/>
       <path id="DejaVuSans-65" d="M 3597 1894 
L 3597 1613 
L 953 1613 
Q 991 1019 1311 708 
Q 1631 397 2203 397 
Q 2534 397 2845 478 
Q 3156 559 3463 722 
L 3463 178 
Q 3153 47 2828 -22 
Q 2503 -91 2169 -91 
Q 1331 -91 842 396 
Q 353 884 353 1716 
Q 353 2575 817 3079 
Q 1281 3584 2069 3584 
Q 2775 3584 3186 3129 
Q 3597 2675 3597 1894 
z
M 3022 2063 
Q 3016 2534 2758 2815 
Q 2500 3097 2075 3097 
Q 1594 3097 1305 2825 
Q 1016 2553 972 2059 
L 3022 2063 
z
" transform="scale(0.015625)"/>
       <path id="DejaVuSans-64" d="M 2906 2969 
L 2906 4863 
L 3481 4863 
L 3481 0 
L 2906 0 
L 2906 525 
Q 2725 213 2448 61 
Q 2172 -91 1784 -91 
Q 1150 -91 751 415 
Q 353 922 353 1747 
Q 353 2572 751 3078 
Q 1150 3584 1784 3584 
Q 2172 3584 2448 3432 
Q 2725 3281 2906 2969 
z
M 947 1747 
Q 947 1113 1208 752 
Q 1469 391 1925 391 
Q 2381 391 2643 752 
Q 2906 1113 2906 1747 
Q 2906 2381 2643 2742 
Q 2381 3103 1925 3103 
Q 1469 3103 1208 2742 
Q 947 2381 947 1747 
z
" transform="scale(0.015625)"/>
       <path id="DejaVuSans-63" d="M 3122 3366 
L 3122 2828 
Q 2878 2963 2633 3030 
Q 2388 3097 2138 3097 
Q 1578 3097 1268 2742 
Q 959 2388 959 1747 
Q 959 1106 1268 751 
Q 1578 397 2138 397 
Q 2388 397 2633 464 
Q 2878 531 3122 666 
L 3122 134 
Q 2881 22 2623 -34 
Q 2366 -91 2075 -91 
Q 1284 -91 818 406 
Q 353 903 353 1747 
Q 353 2603 823 3093 
Q 1294 3584 2113 3584 
Q 2378 3584 2631 3529 
Q 2884 3475 3122 3366 
z
" transform="scale(0.015625)"/>
       <path id="DejaVuSans-6f" d="M 1959 3097 
Q 1497 3097 1228 2736 
Q 959 2375 959 1747 
Q 959 1119 1226 758 
Q 1494 397 1959 397 
Q 2419 397 2687 759 
Q 2956 1122 2956 1747 
Q 2956 2369 2687 2733 
Q 2419 3097 1959 3097 
z
M 1959 3584 
Q 2709 3584 3137 3096 
Q 3566 2609 3566 1747 
Q 3566 888 3137 398 
Q 2709 -91 1959 -91 
Q 1206 -91 779 398 
Q 353 888 353 1747 
Q 353 2609 779 3096 
Q 1206 3584 1959 3584 
z
" transform="scale(0.015625)"/>
       <path id="DejaVuSans-6e" d="M 3513 2113 
L 3513 0 
L 2938 0 
L 2938 2094 
Q 2938 2591 2744 2837 
Q 2550 3084 2163 3084 
Q 1697 3084 1428 2787 
Q 1159 2491 1159 1978 
L 1159 0 
L 581 0 
L 581 3500 
L 1159 3500 
L 1159 2956 
Q 1366 3272 1645 3428 
Q 1925 3584 2291 3584 
Q 2894 3584 3203 3211 
Q 3513 2838 3513 2113 
z
" transform="scale(0.015625)"/>
       <path id="DejaVuSans-20" transform="scale(0.015625)"/>
       <path id="DejaVuSans-75" d="M 544 1381 
L 544 3500 
L 1119 3500 
L 1119 1403 
Q 1119 906 1312 657 
Q 1506 409 1894 409 
Q 2359 409 2629 706 
Q 2900 1003 2900 1516 
L 2900 3500 
L 3475 3500 
L 3475 0 
L 2900 0 
L 2900 538 
Q 2691 219 2414 64 
Q 2138 -91 1772 -91 
Q 1169 -91 856 284 
Q 544 659 544 1381 
z
M 1991 3584 
L 1991 3584 
z
" transform="scale(0.015625)"/>
       <path id="DejaVuSans-79" d="M 2059 -325 
Q 1816 -950 1584 -1140 
Q 1353 -1331 966 -1331 
L 506 -1331 
L 506 -850 
L 844 -850 
Q 1081 -850 1212 -737 
Q 1344 -625 1503 -206 
L 1606 56 
L 191 3500 
L 800 3500 
L 1894 763 
L 2988 3500 
L 3597 3500 
L 2059 -325 
z
" transform="scale(0.015625)"/>
      </defs>
      <use xlink:href="#DejaVuSans-70"/>
      <use xlink:href="#DejaVuSans-72" x="63.476562"/>
      <use xlink:href="#DejaVuSans-65" x="102.339844"/>
      <use xlink:href="#DejaVuSans-64" x="163.863281"/>
      <use xlink:href="#DejaVuSans-69" x="227.339844"/>
      <use xlink:href="#DejaVuSans-63" x="255.123047"/>
      <use xlink:href="#DejaVuSans-74" x="310.103516"/>
      <use xlink:href="#DejaVuSans-69" x="349.3125"/>
      <use xlink:href="#DejaVuSans-6f" x="377.095703"/>
      <use xlink:href="#DejaVuSans-6e" x="438.277344"/>
      <use xlink:href="#DejaVuSans-20" x="501.65625"/>
      <use xlink:href="#DejaVuSans-61" x="533.443359"/>
      <use xlink:href="#DejaVuSans-63" x="594.722656"/>
      <use xlink:href="#DejaVuSans-63" x="649.703125"/>
      <use xlink:href="#DejaVuSans-75" x="704.683594"/>
      <use xlink:href="#DejaVuSans-72" x="768.0625"/>
      <use xlink:href="#DejaVuSans-61" x="809.175781"/>
      <use xlink:href="#DejaVuSans-63" x="870.455078"/>
      <use xlink:href="#DejaVuSans-79" x="925.435547"/>
     </g>
    </g>
   </g>
   <g id="line2d_16">
    <path d="M 138.436364 219.264456 
L 141.48 202.549262 
L 144.523636 227.627532 
L 147.567273 232.840879 
L 150.610909 211.894397 
L 153.654545 229.543748 
L 156.698182 217.220365 
L 159.741818 220.581772 
L 162.785455 227.516791 
L 165.829091 191.173601 
L 168.872727 213.833886 
L 171.916364 204.498479 
L 174.96 211.790424 
L 178.003636 202.212468 
L 181.047273 193.740779 
L 184.090909 194.294484 
L 187.134545 216.442689 
L 190.178182 213.987581 
L 193.221818 218.842078 
L 196.265455 172.22538 
L 199.309091 216.216687 
L 202.352727 196.564675 
L 205.396364 194.323026 
L 208.44 182.758961 
L 211.483636 220.493479 
L 214.527273 204.912236 
L 217.570909 208.906147 
L 220.614545 202.162925 
L 223.658182 207.572107 
L 226.701818 198.875136 
L 229.745455 233.505847 
L 232.789091 195.934097 
L 235.832727 213.508052 
L 238.876364 204.69058 
L 241.92 217.86727 
L 244.963636 228.969582 
L 248.007273 175.8199 
L 251.050909 169.535955 
L 254.094545 235.556164 
L 257.138182 187.030531 
L 260.181818 223.275105 
L 263.225455 164.455931 
L 266.269091 182.018946 
L 269.312727 182.018946 
L 272.356364 216.937069 
L 275.4 205.630868 
L 278.443636 217.425069 
L 281.487273 196.564675 
L 284.530909 200.355311 
L 287.574545 199.206385 
L 290.618182 228.577628 
L 293.661818 204.640027 
L 296.705455 209.373061 
L 299.749091 187.030531 
L 302.792727 229.971899 
L 305.836364 192.499506 
L 308.88 221.97974 
L 311.923636 181.638367 
L 314.967273 202.600061 
L 318.010909 190.603117 
L 321.054545 213.155065 
L 324.098182 187.00488 
L 327.141818 211.996269 
L 330.185455 184.96751 
L 333.229091 208.137112 
L 336.272727 180.144242 
L 339.316364 207.187904 
L 342.36 190.450803 
L 345.403636 205.036364 
L 348.447273 174.914805 
L 351.490909 210.103542 
L 354.534545 166.609228 
L 357.578182 188.092987 
L 360.621818 182.076861 
L 363.665455 197.234259 
L 366.709091 219.365022 
L 369.752727 228.969582 
L 372.796364 180.797922 
L 375.84 194.881747 
L 378.883636 194.26861 
L 381.927273 186.039244 
L 384.970909 212.193962 
L 388.014545 187.795735 
L 391.058182 202.162925 
L 394.101818 215.840836 
L 397.145455 190.916883 
L 400.189091 218.163664 
L 403.232727 193.164474 
L 406.276364 185.988908 
L 409.32 213.674163 
L 412.363636 166.034629 
L 415.407273 207.86026 
L 418.450909 188.757433 
L 421.494545 176.983594 
L 424.538182 216.937069 
L 427.581818 198.875136 
L 430.625455 184.234594 
L 433.669091 207.187904 
L 436.712727 192.499506 
L 439.756364 192.564156 
L 442.8 220.493479 
L 445.843636 208.137112 
L 448.887273 197.734168 
L 451.930909 196.713301 
L 454.974545 193.740779 
L 458.018182 197.06301 
L 461.061818 192.564156 
L 464.105455 206.900683 
L 467.149091 208.403317 
L 470.192727 171.259276 
L 473.236364 199.831536 
L 476.28 164.455931 
L 479.323636 205.630868 
L 482.367273 194.26861 
L 485.410909 184.234594 
L 488.454545 174.914805 
L 491.498182 191.051354 
L 494.541818 186.681039 
L 497.585455 194.294484 
L 500.629091 188.215765 
L 503.672727 219.315687 
L 506.716364 219.098214 
L 509.76 184.682999 
L 512.803636 201.010215 
L 515.847273 186.324486 
L 518.890909 215.840836 
L 521.934545 205.688032 
L 524.978182 196.766382 
L 528.021818 213.155065 
L 531.065455 211.118601 
L 534.109091 178.433679 
L 537.152727 182.225863 
L 540.196364 207.373381 
L 543.24 181.82342 
L 546.283636 196.564675 
L 549.327273 207.987462 
L 552.370909 207.572107 
L 555.414545 194.245046 
L 558.458182 185.091007 
L 561.501818 183.711989 
L 564.545455 182.678093 
L 567.589091 184.327792 
L 570.632727 183.965754 
L 573.676364 203.056725 
L 576.72 180.451856 
L 579.763636 213.674163 
L 582.807273 190.603117 
L 585.850909 189.396324 
L 588.894545 193.740779 
L 591.938182 182.445195 
L 594.981818 193.13349 
L 598.025455 164.349208 
L 601.069091 184.234594 
L 604.112727 183.965754 
L 607.156364 185.860139 
L 610.2 203.33137 
L 613.243636 196.564675 
L 616.287273 198.875136 
L 619.330909 207.730723 
L 622.374545 193.740779 
L 625.418182 212.193962 
L 628.461818 181.438658 
L 631.505455 191.837029 
L 634.549091 192.186341 
L 637.592727 186.681039 
L 640.636364 173.104615 
L 643.68 205.73609 
L 646.723636 211.323529 
L 649.767273 204.912236 
L 652.810909 173.155368 
L 655.854545 180.619646 
L 658.898182 180.293655 
L 661.941818 172.22538 
L 664.985455 209.143849 
L 668.029091 173.944394 
L 671.072727 182.445195 
L 674.116364 195.934097 
L 677.16 199.388571 
L 680.203636 221.97974 
L 683.247273 175.875314 
L 686.290909 203.056725 
L 689.334545 200.950727 
L 692.378182 190.450803 
L 695.421818 183.472066 
L 698.465455 181.25047 
L 701.509091 211.575913 
L 704.552727 180.144242 
L 707.596364 208.235113 
L 710.64 176.797403 
L 713.683636 223.324453 
L 716.727273 212.566753 
L 719.770909 206.900683 
L 722.814545 205.443412 
L 725.858182 238.923117 
L 728.901818 179.232689 
L 731.945455 192.186341 
L 734.989091 210.103542 
L 738.032727 197.734168 
L 741.076364 223.466001 
L 744.12 168.51763 
L 744.12 168.51763 
" clip-path="url(#p38fab0dbac)" style="fill: none; stroke: #1f77b4; stroke-width: 2.25; stroke-linecap: square"/>
   </g>
   <g id="line2d_17">
    <path d="M 108 221.97974 
L 777.6 221.97974 
" clip-path="url(#p38fab0dbac)" style="fill: none; stroke: #000000; stroke-width: 2.25; stroke-linecap: square"/>
   </g>
   <g id="patch_3">
    <path d="M 108 378 
L 108 51.84 
" style="fill: none; stroke: #000000; stroke-width: 1.875; stroke-linejoin: miter; stroke-linecap: square"/>
   </g>
   <g id="patch_4">
    <path d="M 777.6 378 
L 777.6 51.84 
" style="fill: none; stroke: #000000; stroke-width: 1.875; stroke-linejoin: miter; stroke-linecap: square"/>
   </g>
   <g id="patch_5">
    <path d="M 108 378 
L 777.6 378 
" style="fill: none; stroke: #000000; stroke-width: 1.875; stroke-linejoin: miter; stroke-linecap: square"/>
   </g>
   <g id="patch_6">
    <path d="M 108 51.84 
L 777.6 51.84 
" style="fill: none; stroke: #000000; stroke-width: 1.875; stroke-linejoin: miter; stroke-linecap: square"/>
   </g>
  </g>
 </g>
 <defs>
  <clipPath id="p38fab0dbac">
   <rect x="108" y="51.84" width="669.6" height="326.16"/>
  </clipPath>
 </defs>
</svg>
