<?xml version="1.0" encoding="utf-8" standalone="no"?>
<!DOCTYPE svg PUBLIC "-//W3C//DTD SVG 1.1//EN"
  "http://www.w3.org/Graphics/SVG/1.1/DTD/svg11.dtd">
<svg xmlns:xlink="http://www.w3.org/1999/xlink" width="864pt" height="432pt" viewBox="0 0 864 432" xmlns="http://www.w3.org/2000/svg" version="1.1">
 <metadata>
  <rdf:RDF xmlns:dc="http://purl.org/dc/elements/1.1/" xmlns:cc="http://creativecommons.org/ns#" xmlns:rdf="http://www.w3.org/1999/02/22-rdf-syntax-ns#">
   <cc:Work>
    <dc:type rdf:resource="http://purl.org/dc/dcmitype/StillImage"/>
    <dc:date>2023-05-02T17:08:43.849012</dc:date>
    <dc:format>image/svg+xml</dc:format>
    <dc:creator>
     <cc:Agent>
      <dc:title>Matplotlib v3.5.1, https://matplotlib.org/</dc:title>
     </cc:Agent>
    </dc:creator>
   </cc:Work>
  </rdf:RDF>
 </metadata>
 <defs>
  <style type="text/css">*{stroke-linejoin: round; stroke-linecap: butt}</style>
 </defs>
 <g id="figure_1">
  <g id="patch_1">
   <path d="M 0 432 
L 864 432 
L 864 0 
L 0 0 
L 0 432 
z
" style="fill: none"/>
  </g>
  <g id="axes_1">
   <g id="patch_2">
    <path d="M 108 378 
L 777.6 378 
L 777.6 51.84 
L 108 51.84 
z
" style="fill: #ffffff"/>
   </g>
   <g id="PolyCollection_1">
    <defs>
     <path id="mb8dd176be9" d="M 138.436364 -244.699686 
L 138.436364 -190.203445 
L 141.48 -178.90954 
L 144.523636 -208.748234 
L 147.567273 -188.110721 
L 150.610909 -180.295038 
L 153.654545 -181.781299 
L 156.698182 -186.27954 
L 159.741818 -165.499375 
L 162.785455 -213.978993 
L 165.829091 -216.380386 
L 168.872727 -195.504906 
L 171.916364 -214.502635 
L 174.96 -198.774656 
L 178.003636 -190.505531 
L 181.047273 -178.137562 
L 184.090909 -190.939881 
L 187.134545 -223.764887 
L 190.178182 -218.130209 
L 193.221818 -211.248041 
L 196.265455 -182.226007 
L 199.309091 -175.340834 
L 202.352727 -182.186366 
L 205.396364 -186.27954 
L 208.44 -195.504906 
L 211.483636 -205.090614 
L 214.527273 -195.228423 
L 217.570909 -180.22686 
L 220.614545 -208.634703 
L 223.658182 -189.147984 
L 226.701818 -223.340524 
L 229.745455 -192.370909 
L 232.789091 -197.917848 
L 235.832727 -185.464641 
L 238.876364 -168.334174 
L 241.92 -213.640639 
L 244.963636 -195.612627 
L 248.007273 -196.699995 
L 251.050909 -180.069847 
L 254.094545 -191.846671 
L 257.138182 -185.343553 
L 260.181818 -196.64391 
L 263.225455 -167.661818 
L 266.269091 -197.184368 
L 269.312727 -200.282687 
L 272.356364 -199.751547 
L 275.4 -207.627127 
L 278.443636 -215.382947 
L 281.487273 -200.036789 
L 284.530909 -213.640639 
L 287.574545 -252.882968 
L 290.618182 -235.362917 
L 293.661818 -215.348366 
L 296.705455 -232.712282 
L 299.749091 -217.451565 
L 302.792727 -225.981412 
L 305.836364 -242.404389 
L 308.88 -229.222753 
L 311.923636 -195.413901 
L 314.967273 -255.448154 
L 318.010909 -213.836336 
L 321.054545 -253.566321 
L 324.098182 -222.856151 
L 327.141818 -226.963636 
L 330.185455 -232.191345 
L 333.229091 -237.705516 
L 336.272727 -254.671608 
L 339.316364 -234.93699 
L 342.36 -202.889209 
L 345.403636 -256.349805 
L 348.447273 -228.66863 
L 351.490909 -251.706345 
L 354.534545 -275.388225 
L 357.578182 -228.537611 
L 360.621818 -238.86651 
L 363.665455 -244.011602 
L 366.709091 -211.206771 
L 369.752727 -212.684313 
L 372.796364 -231.413412 
L 375.84 -227.817924 
L 378.883636 -265.426614 
L 381.927273 -180.002467 
L 384.970909 -244.040905 
L 388.014545 -222.856151 
L 391.058182 -211.292285 
L 394.101818 -197.572823 
L 397.145455 -223.093853 
L 400.189091 -217.864416 
L 403.232727 -223.294985 
L 406.276364 -249.453043 
L 409.32 -231.742537 
L 412.363636 -203.660133 
L 415.407273 -268.246925 
L 418.450909 -225.708571 
L 421.494545 -217.721795 
L 424.538182 -238.259221 
L 427.581818 -205.066056 
L 430.625455 -230.892535 
L 433.669091 -221.380761 
L 436.712727 -240.038053 
L 439.756364 -237.705516 
L 442.8 -234.12669 
L 445.843636 -245.318961 
L 448.887273 -251.095112 
L 451.930909 -251.813922 
L 454.974545 -251.684301 
L 458.018182 -258.796647 
L 461.061818 -250.197643 
L 464.105455 -241.667371 
L 467.149091 -252.258022 
L 470.192727 -221.678546 
L 473.236364 -248.081468 
L 476.28 -270.902423 
L 479.323636 -280.617662 
L 482.367273 -231.830839 
L 485.410909 -231.261956 
L 488.454545 -243.694596 
L 491.498182 -266.762097 
L 494.541818 -221.593604 
L 497.585455 -256.252187 
L 500.629091 -251.997094 
L 503.672727 -206.336917 
L 506.716364 -226.860007 
L 509.76 -186.692422 
L 512.803636 -190.545114 
L 515.847273 -207.543158 
L 518.890909 -222.601975 
L 521.934545 -228.32329 
L 524.978182 -239.888392 
L 528.021818 -234.303332 
L 531.065455 -221.406938 
L 534.109091 -218.766841 
L 537.152727 -192.680547 
L 540.196364 -205.066056 
L 543.24 -172.863732 
L 546.283636 -264.122942 
L 549.327273 -240.77476 
L 552.370909 -215.062931 
L 555.414545 -202.527027 
L 558.458182 -219.129602 
L 561.501818 -235.362917 
L 564.545455 -207.585867 
L 567.589091 -213.640639 
L 570.632727 -179.76423 
L 573.676364 -186.414253 
L 576.72 -234.632198 
L 579.763636 -212.844156 
L 582.807273 -216.852266 
L 585.850909 -188.482069 
L 588.894545 -246.335136 
L 591.938182 -223.07188 
L 594.981818 -225.423329 
L 598.025455 -202.71708 
L 601.069091 -222.192226 
L 604.112727 -178.957403 
L 607.156364 -217.721795 
L 610.2 -197.917848 
L 613.243636 -208.748234 
L 616.287273 -203.881355 
L 619.330909 -227.359973 
L 622.374545 -218.467812 
L 625.418182 -219.928667 
L 628.461818 -220.04257 
L 631.505455 -236.167446 
L 634.549091 -201.116083 
L 637.592727 -203.296698 
L 640.636364 -219.278935 
L 643.68 -250.361633 
L 646.723636 -224.012538 
L 649.767273 -227.359973 
L 652.810909 -208.675547 
L 655.854545 -255.404304 
L 658.898182 -245.648855 
L 661.941818 -223.764887 
L 664.985455 -215.062931 
L 668.029091 -237.776503 
L 671.072727 -202.456252 
L 674.116364 -211.364972 
L 677.16 -241.988895 
L 680.203636 -213.703602 
L 683.247273 -209.954892 
L 686.290909 -212.497362 
L 689.334545 -212.634978 
L 692.378182 -232.563968 
L 695.421818 -216.054226 
L 698.465455 -226.556588 
L 701.509091 -238.259221 
L 704.552727 -216.618148 
L 707.596364 -218.924437 
L 710.64 -217.199657 
L 713.683636 -239.324842 
L 716.727273 -237.796287 
L 719.770909 -202.527027 
L 722.814545 -229.450738 
L 725.858182 -221.203388 
L 728.901818 -224.882871 
L 731.945455 -201.874406 
L 734.989091 -246.8021 
L 738.032727 -231.332683 
L 741.076364 -214.13273 
L 744.12 -227.181742 
L 744.12 -275.451999 
L 744.12 -275.451999 
L 741.076364 -268.965664 
L 738.032727 -282.01629 
L 734.989091 -294.262538 
L 731.945455 -253.464815 
L 728.901818 -274.424908 
L 725.858182 -271.246326 
L 722.814545 -281.265345 
L 719.770909 -252.130991 
L 716.727273 -284.089666 
L 713.683636 -289.941848 
L 710.64 -267.455435 
L 707.596364 -269.805448 
L 704.552727 -266.762097 
L 701.509091 -287.035608 
L 698.465455 -277.437599 
L 695.421818 -264.325954 
L 692.378182 -282.397429 
L 689.334545 -259.765281 
L 686.290909 -262.039398 
L 683.247273 -262.314632 
L 680.203636 -265.270401 
L 677.16 -292.672502 
L 674.116364 -265.153469 
L 671.072727 -252.882968 
L 668.029091 -286.048232 
L 664.985455 -265.489647 
L 661.941818 -273.745349 
L 658.898182 -295.792805 
L 655.854545 -300.788349 
L 652.810909 -259.77462 
L 649.767273 -274.486835 
L 646.723636 -274.893549 
L 643.68 -295.745677 
L 640.636364 -267.886983 
L 637.592727 -259.77462 
L 634.549091 -254.541144 
L 631.505455 -283.297749 
L 628.461818 -270.532319 
L 625.418182 -269.470704 
L 622.374545 -266.79988 
L 619.330909 -279.379111 
L 616.287273 -255.448154 
L 613.243636 -259.629245 
L 610.2 -249.01692 
L 607.156364 -266.498182 
L 604.112727 -235.435325 
L 601.069091 -273.314483 
L 598.025455 -251.404944 
L 594.981818 -274.199717 
L 591.938182 -270.532319 
L 588.894545 -291.314238 
L 585.850909 -238.737847 
L 582.807273 -264.676313 
L 579.763636 -263.674286 
L 576.72 -283.856075 
L 573.676364 -242.377403 
L 570.632727 -232.712282 
L 567.589091 -261.912368 
L 564.545455 -258.708124 
L 561.501818 -281.221059 
L 558.458182 -266.953649 
L 555.414545 -252.130991 
L 552.370909 -265.489647 
L 549.327273 -292.789628 
L 546.283636 -308.988581 
L 543.24 -227.359973 
L 540.196364 -252.192919 
L 537.152727 -247.176787 
L 534.109091 -268.747303 
L 531.065455 -269.230984 
L 528.021818 -283.052056 
L 524.978182 -288.763516 
L 521.934545 -280.617662 
L 518.890909 -275.724773 
L 515.847273 -257.085195 
L 512.803636 -244.101764 
L 509.76 -240.714783 
L 506.716364 -278.674615 
L 503.672727 -255.448154 
L 500.629091 -300.334054 
L 497.585455 -298.798055 
L 494.541818 -272.516321 
L 491.498182 -311.627736 
L 488.454545 -291.238511 
L 485.410909 -276.306847 
L 482.367273 -277.747849 
L 479.323636 -321.414815 
L 476.28 -312.354109 
L 473.236364 -294.737143 
L 470.192727 -276.083884 
L 467.149091 -300.52975 
L 464.105455 -287.920842 
L 461.061818 -293.876199 
L 458.018182 -305.005856 
L 454.974545 -293.348341 
L 451.930909 -294.737143 
L 448.887273 -297.304321 
L 445.843636 -294.194086 
L 442.8 -280.0437 
L 439.756364 -284.770451 
L 436.712727 -284.508858 
L 433.669091 -279.806198 
L 430.625455 -280.003772 
L 427.581818 -257.085195 
L 424.538182 -285.700675 
L 421.494545 -266.498182 
L 418.450909 -273.9803 
L 415.407273 -309.763379 
L 412.363636 -257.085195 
L 409.32 -283.400829 
L 406.276364 -297.790004 
L 403.232727 -271.566713 
L 400.189091 -270.158788 
L 397.145455 -272.773506 
L 394.101818 -247.176787 
L 391.058182 -264.717346 
L 388.014545 -274.199717 
L 384.970909 -287.920842 
L 381.927273 -226.696812 
L 378.883636 -308.352356 
L 375.84 -277.71071 
L 372.796364 -279.904557 
L 369.752727 -263.301318 
L 366.709091 -258.726535 
L 363.665455 -293.756623 
L 360.621818 -293.522564 
L 357.578182 -274.83099 
L 354.534545 -314.674372 
L 351.490909 -297.426568 
L 348.447273 -281.949689 
L 345.403636 -298.267013 
L 342.36 -257.085195 
L 339.316364 -287.538976 
L 336.272727 -300.52975 
L 333.229091 -287.538976 
L 330.185455 -278.867314 
L 327.141818 -274.405091 
L 324.098182 -277.052137 
L 321.054545 -303.710271 
L 318.010909 -264.717346 
L 314.967273 -299.648267 
L 311.923636 -246.536158 
L 308.88 -276.664208 
L 305.836364 -291.628266 
L 302.792727 -275.092648 
L 299.749091 -266.993602 
L 296.705455 -280.617662 
L 293.661818 -265.965371 
L 290.618182 -281.221059 
L 287.574545 -298.267013 
L 284.530909 -264.325954 
L 281.487273 -254.232774 
L 278.443636 -267.041239 
L 275.4 -257.882906 
L 272.356364 -251.159292 
L 269.312727 -253.839337 
L 266.269091 -248.527934 
L 263.225455 -224.13974 
L 260.181818 -253.121832 
L 257.138182 -237.287697 
L 254.094545 -247.765406 
L 251.050909 -237.118253 
L 248.007273 -249.981054 
L 244.963636 -253.243159 
L 241.92 -261.912368 
L 238.876364 -219.433247 
L 235.832727 -240.714783 
L 232.789091 -251.706345 
L 229.745455 -242.797625 
L 226.701818 -276.621583 
L 223.658182 -240.714783 
L 220.614545 -258.910611 
L 217.570909 -232.106236 
L 214.527273 -251.706345 
L 211.483636 -256.27373 
L 208.44 -250.927166 
L 205.396364 -241.258049 
L 202.352727 -233.166949 
L 199.309091 -229.837075 
L 196.265455 -228.920352 
L 193.221818 -260.420666 
L 190.178182 -264.864523 
L 187.134545 -276.244372 
L 184.090909 -241.820892 
L 181.047273 -225.961609 
L 178.003636 -241.014241 
L 174.96 -253.753164 
L 171.916364 -266.049944 
L 168.872727 -248.35399 
L 165.829091 -264.717346 
L 162.785455 -266.762097 
L 159.741818 -216.380386 
L 156.698182 -241.258049 
L 153.654545 -235.569796 
L 150.610909 -234.791278 
L 147.567273 -241.667371 
L 144.523636 -259.629245 
L 141.48 -229.165318 
L 138.436364 -244.699686 
z
" style="stroke: #1f77b4; stroke-opacity: 0.2; stroke-width: 1.5"/>
    </defs>
    <g clip-path="url(#p8c36ab5efe)">
     <use xlink:href="#mb8dd176be9" x="0" y="432" style="fill: #1f77b4; fill-opacity: 0.2; stroke: #1f77b4; stroke-opacity: 0.2; stroke-width: 1.5"/>
    </g>
   </g>
   <g id="PolyCollection_2">
    <defs>
     <path id="mcd879dcfdc" d="M 138.436364 -365.334545 
L 138.436364 -68.825455 
L 141.48 -68.825455 
L 144.523636 -68.825455 
L 147.567273 -68.825455 
L 150.610909 -68.825455 
L 153.654545 -68.825455 
L 156.698182 -68.825455 
L 159.741818 -68.825455 
L 162.785455 -68.825455 
L 165.829091 -68.825455 
L 168.872727 -68.825455 
L 171.916364 -68.825455 
L 174.96 -68.825455 
L 178.003636 -68.825455 
L 181.047273 -68.825455 
L 184.090909 -68.825455 
L 187.134545 -68.825455 
L 190.178182 -68.825455 
L 193.221818 -68.825455 
L 196.265455 -68.825455 
L 199.309091 -68.825455 
L 202.352727 -68.825455 
L 205.396364 -68.825455 
L 208.44 -68.825455 
L 211.483636 -68.825455 
L 214.527273 -68.825455 
L 217.570909 -68.825455 
L 220.614545 -68.825455 
L 223.658182 -68.825455 
L 226.701818 -68.825455 
L 229.745455 -68.825455 
L 232.789091 -68.825455 
L 235.832727 -68.825455 
L 238.876364 -68.825455 
L 241.92 -68.825455 
L 244.963636 -68.825455 
L 248.007273 -68.825455 
L 251.050909 -68.825455 
L 254.094545 -68.825455 
L 257.138182 -68.825455 
L 260.181818 -68.825455 
L 260.181818 -365.334545 
L 260.181818 -365.334545 
L 257.138182 -365.334545 
L 254.094545 -365.334545 
L 251.050909 -365.334545 
L 248.007273 -365.334545 
L 244.963636 -365.334545 
L 241.92 -365.334545 
L 238.876364 -365.334545 
L 235.832727 -365.334545 
L 232.789091 -365.334545 
L 229.745455 -365.334545 
L 226.701818 -365.334545 
L 223.658182 -365.334545 
L 220.614545 -365.334545 
L 217.570909 -365.334545 
L 214.527273 -365.334545 
L 211.483636 -365.334545 
L 208.44 -365.334545 
L 205.396364 -365.334545 
L 202.352727 -365.334545 
L 199.309091 -365.334545 
L 196.265455 -365.334545 
L 193.221818 -365.334545 
L 190.178182 -365.334545 
L 187.134545 -365.334545 
L 184.090909 -365.334545 
L 181.047273 -365.334545 
L 178.003636 -365.334545 
L 174.96 -365.334545 
L 171.916364 -365.334545 
L 168.872727 -365.334545 
L 165.829091 -365.334545 
L 162.785455 -365.334545 
L 159.741818 -365.334545 
L 156.698182 -365.334545 
L 153.654545 -365.334545 
L 150.610909 -365.334545 
L 147.567273 -365.334545 
L 144.523636 -365.334545 
L 141.48 -365.334545 
L 138.436364 -365.334545 
z
" style="stroke: #800080; stroke-opacity: 0.2; stroke-width: 1.5"/>
    </defs>
    <g clip-path="url(#p8c36ab5efe)">
     <use xlink:href="#mcd879dcfdc" x="0" y="432" style="fill: #800080; fill-opacity: 0.2; stroke: #800080; stroke-opacity: 0.2; stroke-width: 1.5"/>
    </g>
   </g>
   <g id="PolyCollection_3">
    <defs>
     <path id="ma7ffaa9c22" d="M 260.181818 -365.334545 
L 260.181818 -68.825455 
L 263.225455 -68.825455 
L 266.269091 -68.825455 
L 269.312727 -68.825455 
L 272.356364 -68.825455 
L 275.4 -68.825455 
L 278.443636 -68.825455 
L 281.487273 -68.825455 
L 284.530909 -68.825455 
L 287.574545 -68.825455 
L 290.618182 -68.825455 
L 293.661818 -68.825455 
L 296.705455 -68.825455 
L 299.749091 -68.825455 
L 302.792727 -68.825455 
L 305.836364 -68.825455 
L 308.88 -68.825455 
L 311.923636 -68.825455 
L 314.967273 -68.825455 
L 318.010909 -68.825455 
L 321.054545 -68.825455 
L 324.098182 -68.825455 
L 327.141818 -68.825455 
L 330.185455 -68.825455 
L 333.229091 -68.825455 
L 336.272727 -68.825455 
L 339.316364 -68.825455 
L 342.36 -68.825455 
L 345.403636 -68.825455 
L 348.447273 -68.825455 
L 351.490909 -68.825455 
L 354.534545 -68.825455 
L 357.578182 -68.825455 
L 360.621818 -68.825455 
L 363.665455 -68.825455 
L 366.709091 -68.825455 
L 369.752727 -68.825455 
L 372.796364 -68.825455 
L 375.84 -68.825455 
L 378.883636 -68.825455 
L 381.927273 -68.825455 
L 381.927273 -365.334545 
L 381.927273 -365.334545 
L 378.883636 -365.334545 
L 375.84 -365.334545 
L 372.796364 -365.334545 
L 369.752727 -365.334545 
L 366.709091 -365.334545 
L 363.665455 -365.334545 
L 360.621818 -365.334545 
L 357.578182 -365.334545 
L 354.534545 -365.334545 
L 351.490909 -365.334545 
L 348.447273 -365.334545 
L 345.403636 -365.334545 
L 342.36 -365.334545 
L 339.316364 -365.334545 
L 336.272727 -365.334545 
L 333.229091 -365.334545 
L 330.185455 -365.334545 
L 327.141818 -365.334545 
L 324.098182 -365.334545 
L 321.054545 -365.334545 
L 318.010909 -365.334545 
L 314.967273 -365.334545 
L 311.923636 -365.334545 
L 308.88 -365.334545 
L 305.836364 -365.334545 
L 302.792727 -365.334545 
L 299.749091 -365.334545 
L 296.705455 -365.334545 
L 293.661818 -365.334545 
L 290.618182 -365.334545 
L 287.574545 -365.334545 
L 284.530909 -365.334545 
L 281.487273 -365.334545 
L 278.443636 -365.334545 
L 275.4 -365.334545 
L 272.356364 -365.334545 
L 269.312727 -365.334545 
L 266.269091 -365.334545 
L 263.225455 -365.334545 
L 260.181818 -365.334545 
z
" style="stroke: #0000ff; stroke-opacity: 0.2; stroke-width: 1.5"/>
    </defs>
    <g clip-path="url(#p8c36ab5efe)">
     <use xlink:href="#ma7ffaa9c22" x="0" y="432" style="fill: #0000ff; fill-opacity: 0.2; stroke: #0000ff; stroke-opacity: 0.2; stroke-width: 1.5"/>
    </g>
   </g>
   <g id="PolyCollection_4">
    <defs>
     <path id="m2615fd410b" d="M 381.927273 -365.334545 
L 381.927273 -68.825455 
L 384.970909 -68.825455 
L 388.014545 -68.825455 
L 391.058182 -68.825455 
L 394.101818 -68.825455 
L 397.145455 -68.825455 
L 400.189091 -68.825455 
L 403.232727 -68.825455 
L 406.276364 -68.825455 
L 409.32 -68.825455 
L 412.363636 -68.825455 
L 415.407273 -68.825455 
L 418.450909 -68.825455 
L 421.494545 -68.825455 
L 424.538182 -68.825455 
L 427.581818 -68.825455 
L 430.625455 -68.825455 
L 433.669091 -68.825455 
L 436.712727 -68.825455 
L 439.756364 -68.825455 
L 442.8 -68.825455 
L 445.843636 -68.825455 
L 448.887273 -68.825455 
L 451.930909 -68.825455 
L 454.974545 -68.825455 
L 458.018182 -68.825455 
L 461.061818 -68.825455 
L 464.105455 -68.825455 
L 467.149091 -68.825455 
L 470.192727 -68.825455 
L 473.236364 -68.825455 
L 476.28 -68.825455 
L 479.323636 -68.825455 
L 482.367273 -68.825455 
L 485.410909 -68.825455 
L 488.454545 -68.825455 
L 491.498182 -68.825455 
L 494.541818 -68.825455 
L 497.585455 -68.825455 
L 500.629091 -68.825455 
L 503.672727 -68.825455 
L 503.672727 -365.334545 
L 503.672727 -365.334545 
L 500.629091 -365.334545 
L 497.585455 -365.334545 
L 494.541818 -365.334545 
L 491.498182 -365.334545 
L 488.454545 -365.334545 
L 485.410909 -365.334545 
L 482.367273 -365.334545 
L 479.323636 -365.334545 
L 476.28 -365.334545 
L 473.236364 -365.334545 
L 470.192727 -365.334545 
L 467.149091 -365.334545 
L 464.105455 -365.334545 
L 461.061818 -365.334545 
L 458.018182 -365.334545 
L 454.974545 -365.334545 
L 451.930909 -365.334545 
L 448.887273 -365.334545 
L 445.843636 -365.334545 
L 442.8 -365.334545 
L 439.756364 -365.334545 
L 436.712727 -365.334545 
L 433.669091 -365.334545 
L 430.625455 -365.334545 
L 427.581818 -365.334545 
L 424.538182 -365.334545 
L 421.494545 -365.334545 
L 418.450909 -365.334545 
L 415.407273 -365.334545 
L 412.363636 -365.334545 
L 409.32 -365.334545 
L 406.276364 -365.334545 
L 403.232727 -365.334545 
L 400.189091 -365.334545 
L 397.145455 -365.334545 
L 394.101818 -365.334545 
L 391.058182 -365.334545 
L 388.014545 -365.334545 
L 384.970909 -365.334545 
L 381.927273 -365.334545 
z
" style="stroke: #008000; stroke-opacity: 0.2; stroke-width: 1.5"/>
    </defs>
    <g clip-path="url(#p8c36ab5efe)">
     <use xlink:href="#m2615fd410b" x="0" y="432" style="fill: #008000; fill-opacity: 0.2; stroke: #008000; stroke-opacity: 0.2; stroke-width: 1.5"/>
    </g>
   </g>
   <g id="PolyCollection_5">
    <defs>
     <path id="me137dbb884" d="M 503.672727 -365.334545 
L 503.672727 -68.825455 
L 506.716364 -68.825455 
L 509.76 -68.825455 
L 512.803636 -68.825455 
L 515.847273 -68.825455 
L 518.890909 -68.825455 
L 521.934545 -68.825455 
L 524.978182 -68.825455 
L 528.021818 -68.825455 
L 531.065455 -68.825455 
L 534.109091 -68.825455 
L 537.152727 -68.825455 
L 540.196364 -68.825455 
L 543.24 -68.825455 
L 546.283636 -68.825455 
L 549.327273 -68.825455 
L 552.370909 -68.825455 
L 555.414545 -68.825455 
L 558.458182 -68.825455 
L 561.501818 -68.825455 
L 564.545455 -68.825455 
L 567.589091 -68.825455 
L 570.632727 -68.825455 
L 573.676364 -68.825455 
L 576.72 -68.825455 
L 579.763636 -68.825455 
L 582.807273 -68.825455 
L 585.850909 -68.825455 
L 588.894545 -68.825455 
L 591.938182 -68.825455 
L 594.981818 -68.825455 
L 598.025455 -68.825455 
L 601.069091 -68.825455 
L 604.112727 -68.825455 
L 607.156364 -68.825455 
L 610.2 -68.825455 
L 613.243636 -68.825455 
L 616.287273 -68.825455 
L 619.330909 -68.825455 
L 622.374545 -68.825455 
L 625.418182 -68.825455 
L 625.418182 -365.334545 
L 625.418182 -365.334545 
L 622.374545 -365.334545 
L 619.330909 -365.334545 
L 616.287273 -365.334545 
L 613.243636 -365.334545 
L 610.2 -365.334545 
L 607.156364 -365.334545 
L 604.112727 -365.334545 
L 601.069091 -365.334545 
L 598.025455 -365.334545 
L 594.981818 -365.334545 
L 591.938182 -365.334545 
L 588.894545 -365.334545 
L 585.850909 -365.334545 
L 582.807273 -365.334545 
L 579.763636 -365.334545 
L 576.72 -365.334545 
L 573.676364 -365.334545 
L 570.632727 -365.334545 
L 567.589091 -365.334545 
L 564.545455 -365.334545 
L 561.501818 -365.334545 
L 558.458182 -365.334545 
L 555.414545 -365.334545 
L 552.370909 -365.334545 
L 549.327273 -365.334545 
L 546.283636 -365.334545 
L 543.24 -365.334545 
L 540.196364 -365.334545 
L 537.152727 -365.334545 
L 534.109091 -365.334545 
L 531.065455 -365.334545 
L 528.021818 -365.334545 
L 524.978182 -365.334545 
L 521.934545 -365.334545 
L 518.890909 -365.334545 
L 515.847273 -365.334545 
L 512.803636 -365.334545 
L 509.76 -365.334545 
L 506.716364 -365.334545 
L 503.672727 -365.334545 
z
" style="stroke: #800080; stroke-opacity: 0.2; stroke-width: 1.5"/>
    </defs>
    <g clip-path="url(#p8c36ab5efe)">
     <use xlink:href="#me137dbb884" x="0" y="432" style="fill: #800080; fill-opacity: 0.2; stroke: #800080; stroke-opacity: 0.2; stroke-width: 1.5"/>
    </g>
   </g>
   <g id="PolyCollection_6">
    <defs>
     <path id="meb1fd59d18" d="M 625.418182 -365.334545 
L 625.418182 -68.825455 
L 628.461818 -68.825455 
L 631.505455 -68.825455 
L 634.549091 -68.825455 
L 637.592727 -68.825455 
L 640.636364 -68.825455 
L 643.68 -68.825455 
L 646.723636 -68.825455 
L 649.767273 -68.825455 
L 652.810909 -68.825455 
L 655.854545 -68.825455 
L 658.898182 -68.825455 
L 661.941818 -68.825455 
L 664.985455 -68.825455 
L 668.029091 -68.825455 
L 671.072727 -68.825455 
L 674.116364 -68.825455 
L 677.16 -68.825455 
L 680.203636 -68.825455 
L 683.247273 -68.825455 
L 686.290909 -68.825455 
L 689.334545 -68.825455 
L 692.378182 -68.825455 
L 695.421818 -68.825455 
L 698.465455 -68.825455 
L 701.509091 -68.825455 
L 704.552727 -68.825455 
L 707.596364 -68.825455 
L 710.64 -68.825455 
L 713.683636 -68.825455 
L 716.727273 -68.825455 
L 719.770909 -68.825455 
L 722.814545 -68.825455 
L 725.858182 -68.825455 
L 728.901818 -68.825455 
L 731.945455 -68.825455 
L 734.989091 -68.825455 
L 738.032727 -68.825455 
L 741.076364 -68.825455 
L 744.12 -68.825455 
L 747.163636 -68.825455 
L 747.163636 -365.334545 
L 747.163636 -365.334545 
L 744.12 -365.334545 
L 741.076364 -365.334545 
L 738.032727 -365.334545 
L 734.989091 -365.334545 
L 731.945455 -365.334545 
L 728.901818 -365.334545 
L 725.858182 -365.334545 
L 722.814545 -365.334545 
L 719.770909 -365.334545 
L 716.727273 -365.334545 
L 713.683636 -365.334545 
L 710.64 -365.334545 
L 707.596364 -365.334545 
L 704.552727 -365.334545 
L 701.509091 -365.334545 
L 698.465455 -365.334545 
L 695.421818 -365.334545 
L 692.378182 -365.334545 
L 689.334545 -365.334545 
L 686.290909 -365.334545 
L 683.247273 -365.334545 
L 680.203636 -365.334545 
L 677.16 -365.334545 
L 674.116364 -365.334545 
L 671.072727 -365.334545 
L 668.029091 -365.334545 
L 664.985455 -365.334545 
L 661.941818 -365.334545 
L 658.898182 -365.334545 
L 655.854545 -365.334545 
L 652.810909 -365.334545 
L 649.767273 -365.334545 
L 646.723636 -365.334545 
L 643.68 -365.334545 
L 640.636364 -365.334545 
L 637.592727 -365.334545 
L 634.549091 -365.334545 
L 631.505455 -365.334545 
L 628.461818 -365.334545 
L 625.418182 -365.334545 
z
" style="stroke: #ff0000; stroke-opacity: 0.2; stroke-width: 1.5"/>
    </defs>
    <g clip-path="url(#p8c36ab5efe)">
     <use xlink:href="#meb1fd59d18" x="0" y="432" style="fill: #ff0000; fill-opacity: 0.2; stroke: #ff0000; stroke-opacity: 0.2; stroke-width: 1.5"/>
    </g>
   </g>
   <g id="matplotlib.axis_1">
    <g id="xtick_1">
     <g id="line2d_1">
      <defs>
       <path id="mbbbcddd66e" d="M 0 0 
L 0 9 
" style="stroke: #000000; stroke-width: 1.875"/>
      </defs>
      <g>
       <use xlink:href="#mbbbcddd66e" x="138.436364" y="378" style="stroke: #000000; stroke-width: 1.875"/>
      </g>
     </g>
     <g id="text_1">
      <!-- 0 -->
      <g transform="translate(133.187301 403.037422)scale(0.165 -0.165)">
       <defs>
        <path id="DejaVuSans-30" d="M 2034 4250 
Q 1547 4250 1301 3770 
Q 1056 3291 1056 2328 
Q 1056 1369 1301 889 
Q 1547 409 2034 409 
Q 2525 409 2770 889 
Q 3016 1369 3016 2328 
Q 3016 3291 2770 3770 
Q 2525 4250 2034 4250 
z
M 2034 4750 
Q 2819 4750 3233 4129 
Q 3647 3509 3647 2328 
Q 3647 1150 3233 529 
Q 2819 -91 2034 -91 
Q 1250 -91 836 529 
Q 422 1150 422 2328 
Q 422 3509 836 4129 
Q 1250 4750 2034 4750 
z
" transform="scale(0.015625)"/>
       </defs>
       <use xlink:href="#DejaVuSans-30"/>
      </g>
     </g>
    </g>
    <g id="xtick_2">
     <g id="line2d_2">
      <g>
       <use xlink:href="#mbbbcddd66e" x="214.527273" y="378" style="stroke: #000000; stroke-width: 1.875"/>
      </g>
     </g>
     <g id="text_2">
      <!-- 25 -->
      <g transform="translate(204.029148 403.037422)scale(0.165 -0.165)">
       <defs>
        <path id="DejaVuSans-32" d="M 1228 531 
L 3431 531 
L 3431 0 
L 469 0 
L 469 531 
Q 828 903 1448 1529 
Q 2069 2156 2228 2338 
Q 2531 2678 2651 2914 
Q 2772 3150 2772 3378 
Q 2772 3750 2511 3984 
Q 2250 4219 1831 4219 
Q 1534 4219 1204 4116 
Q 875 4013 500 3803 
L 500 4441 
Q 881 4594 1212 4672 
Q 1544 4750 1819 4750 
Q 2544 4750 2975 4387 
Q 3406 4025 3406 3419 
Q 3406 3131 3298 2873 
Q 3191 2616 2906 2266 
Q 2828 2175 2409 1742 
Q 1991 1309 1228 531 
z
" transform="scale(0.015625)"/>
        <path id="DejaVuSans-35" d="M 691 4666 
L 3169 4666 
L 3169 4134 
L 1269 4134 
L 1269 2991 
Q 1406 3038 1543 3061 
Q 1681 3084 1819 3084 
Q 2600 3084 3056 2656 
Q 3513 2228 3513 1497 
Q 3513 744 3044 326 
Q 2575 -91 1722 -91 
Q 1428 -91 1123 -41 
Q 819 9 494 109 
L 494 744 
Q 775 591 1075 516 
Q 1375 441 1709 441 
Q 2250 441 2565 725 
Q 2881 1009 2881 1497 
Q 2881 1984 2565 2268 
Q 2250 2553 1709 2553 
Q 1456 2553 1204 2497 
Q 953 2441 691 2322 
L 691 4666 
z
" transform="scale(0.015625)"/>
       </defs>
       <use xlink:href="#DejaVuSans-32"/>
       <use xlink:href="#DejaVuSans-35" x="63.623047"/>
      </g>
     </g>
    </g>
    <g id="xtick_3">
     <g id="line2d_3">
      <g>
       <use xlink:href="#mbbbcddd66e" x="290.618182" y="378" style="stroke: #000000; stroke-width: 1.875"/>
      </g>
     </g>
     <g id="text_3">
      <!-- 50 -->
      <g transform="translate(280.120057 403.037422)scale(0.165 -0.165)">
       <use xlink:href="#DejaVuSans-35"/>
       <use xlink:href="#DejaVuSans-30" x="63.623047"/>
      </g>
     </g>
    </g>
    <g id="xtick_4">
     <g id="line2d_4">
      <g>
       <use xlink:href="#mbbbcddd66e" x="366.709091" y="378" style="stroke: #000000; stroke-width: 1.875"/>
      </g>
     </g>
     <g id="text_4">
      <!-- 75 -->
      <g transform="translate(356.210966 403.037422)scale(0.165 -0.165)">
       <defs>
        <path id="DejaVuSans-37" d="M 525 4666 
L 3525 4666 
L 3525 4397 
L 1831 0 
L 1172 0 
L 2766 4134 
L 525 4134 
L 525 4666 
z
" transform="scale(0.015625)"/>
       </defs>
       <use xlink:href="#DejaVuSans-37"/>
       <use xlink:href="#DejaVuSans-35" x="63.623047"/>
      </g>
     </g>
    </g>
    <g id="xtick_5">
     <g id="line2d_5">
      <g>
       <use xlink:href="#mbbbcddd66e" x="442.8" y="378" style="stroke: #000000; stroke-width: 1.875"/>
      </g>
     </g>
     <g id="text_5">
      <!-- 100 -->
      <g transform="translate(427.052813 403.037422)scale(0.165 -0.165)">
       <defs>
        <path id="DejaVuSans-31" d="M 794 531 
L 1825 531 
L 1825 4091 
L 703 3866 
L 703 4441 
L 1819 4666 
L 2450 4666 
L 2450 531 
L 3481 531 
L 3481 0 
L 794 0 
L 794 531 
z
" transform="scale(0.015625)"/>
       </defs>
       <use xlink:href="#DejaVuSans-31"/>
       <use xlink:href="#DejaVuSans-30" x="63.623047"/>
       <use xlink:href="#DejaVuSans-30" x="127.246094"/>
      </g>
     </g>
    </g>
    <g id="xtick_6">
     <g id="line2d_6">
      <g>
       <use xlink:href="#mbbbcddd66e" x="518.890909" y="378" style="stroke: #000000; stroke-width: 1.875"/>
      </g>
     </g>
     <g id="text_6">
      <!-- 125 -->
      <g transform="translate(503.143722 403.037422)scale(0.165 -0.165)">
       <use xlink:href="#DejaVuSans-31"/>
       <use xlink:href="#DejaVuSans-32" x="63.623047"/>
       <use xlink:href="#DejaVuSans-35" x="127.246094"/>
      </g>
     </g>
    </g>
    <g id="xtick_7">
     <g id="line2d_7">
      <g>
       <use xlink:href="#mbbbcddd66e" x="594.981818" y="378" style="stroke: #000000; stroke-width: 1.875"/>
      </g>
     </g>
     <g id="text_7">
      <!-- 150 -->
      <g transform="translate(579.234631 403.037422)scale(0.165 -0.165)">
       <use xlink:href="#DejaVuSans-31"/>
       <use xlink:href="#DejaVuSans-35" x="63.623047"/>
       <use xlink:href="#DejaVuSans-30" x="127.246094"/>
      </g>
     </g>
    </g>
    <g id="xtick_8">
     <g id="line2d_8">
      <g>
       <use xlink:href="#mbbbcddd66e" x="671.072727" y="378" style="stroke: #000000; stroke-width: 1.875"/>
      </g>
     </g>
     <g id="text_8">
      <!-- 175 -->
      <g transform="translate(655.32554 403.037422)scale(0.165 -0.165)">
       <use xlink:href="#DejaVuSans-31"/>
       <use xlink:href="#DejaVuSans-37" x="63.623047"/>
       <use xlink:href="#DejaVuSans-35" x="127.246094"/>
      </g>
     </g>
    </g>
    <g id="xtick_9">
     <g id="line2d_9">
      <g>
       <use xlink:href="#mbbbcddd66e" x="747.163636" y="378" style="stroke: #000000; stroke-width: 1.875"/>
      </g>
     </g>
     <g id="text_9">
      <!-- 200 -->
      <g transform="translate(731.416449 403.037422)scale(0.165 -0.165)">
       <use xlink:href="#DejaVuSans-32"/>
       <use xlink:href="#DejaVuSans-30" x="63.623047"/>
       <use xlink:href="#DejaVuSans-30" x="127.246094"/>
      </g>
     </g>
    </g>
    <g id="text_10">
     <!-- trial -->
     <g transform="translate(425.055938 424.146094)scale(0.18 -0.18)">
      <defs>
       <path id="DejaVuSans-74" d="M 1172 4494 
L 1172 3500 
L 2356 3500 
L 2356 3053 
L 1172 3053 
L 1172 1153 
Q 1172 725 1289 603 
Q 1406 481 1766 481 
L 2356 481 
L 2356 0 
L 1766 0 
Q 1100 0 847 248 
Q 594 497 594 1153 
L 594 3053 
L 172 3053 
L 172 3500 
L 594 3500 
L 594 4494 
L 1172 4494 
z
" transform="scale(0.015625)"/>
       <path id="DejaVuSans-72" d="M 2631 2963 
Q 2534 3019 2420 3045 
Q 2306 3072 2169 3072 
Q 1681 3072 1420 2755 
Q 1159 2438 1159 1844 
L 1159 0 
L 581 0 
L 581 3500 
L 1159 3500 
L 1159 2956 
Q 1341 3275 1631 3429 
Q 1922 3584 2338 3584 
Q 2397 3584 2469 3576 
Q 2541 3569 2628 3553 
L 2631 2963 
z
" transform="scale(0.015625)"/>
       <path id="DejaVuSans-69" d="M 603 3500 
L 1178 3500 
L 1178 0 
L 603 0 
L 603 3500 
z
M 603 4863 
L 1178 4863 
L 1178 4134 
L 603 4134 
L 603 4863 
z
" transform="scale(0.015625)"/>
       <path id="DejaVuSans-61" d="M 2194 1759 
Q 1497 1759 1228 1600 
Q 959 1441 959 1056 
Q 959 750 1161 570 
Q 1363 391 1709 391 
Q 2188 391 2477 730 
Q 2766 1069 2766 1631 
L 2766 1759 
L 2194 1759 
z
M 3341 1997 
L 3341 0 
L 2766 0 
L 2766 531 
Q 2569 213 2275 61 
Q 1981 -91 1556 -91 
Q 1019 -91 701 211 
Q 384 513 384 1019 
Q 384 1609 779 1909 
Q 1175 2209 1959 2209 
L 2766 2209 
L 2766 2266 
Q 2766 2663 2505 2880 
Q 2244 3097 1772 3097 
Q 1472 3097 1187 3025 
Q 903 2953 641 2809 
L 641 3341 
Q 956 3463 1253 3523 
Q 1550 3584 1831 3584 
Q 2591 3584 2966 3190 
Q 3341 2797 3341 1997 
z
" transform="scale(0.015625)"/>
       <path id="DejaVuSans-6c" d="M 603 4863 
L 1178 4863 
L 1178 0 
L 603 0 
L 603 4863 
z
" transform="scale(0.015625)"/>
      </defs>
      <use xlink:href="#DejaVuSans-74"/>
      <use xlink:href="#DejaVuSans-72" x="39.208984"/>
      <use xlink:href="#DejaVuSans-69" x="80.322266"/>
      <use xlink:href="#DejaVuSans-61" x="108.105469"/>
      <use xlink:href="#DejaVuSans-6c" x="169.384766"/>
     </g>
    </g>
   </g>
   <g id="matplotlib.axis_2">
    <g id="ytick_1">
     <g id="line2d_10">
      <defs>
       <path id="m5891db2152" d="M 0 0 
L -9 0 
" style="stroke: #000000; stroke-width: 1.875"/>
      </defs>
      <g>
       <use xlink:href="#m5891db2152" x="108" y="363.174545" style="stroke: #000000; stroke-width: 1.875"/>
      </g>
     </g>
     <g id="text_11">
      <!-- 0.0 -->
      <g transform="translate(69.259844 369.443256)scale(0.165 -0.165)">
       <defs>
        <path id="DejaVuSans-2e" d="M 684 794 
L 1344 794 
L 1344 0 
L 684 0 
L 684 794 
z
" transform="scale(0.015625)"/>
       </defs>
       <use xlink:href="#DejaVuSans-30"/>
       <use xlink:href="#DejaVuSans-2e" x="63.623047"/>
       <use xlink:href="#DejaVuSans-30" x="95.410156"/>
      </g>
     </g>
    </g>
    <g id="ytick_2">
     <g id="line2d_11">
      <g>
       <use xlink:href="#m5891db2152" x="108" y="306.696623" style="stroke: #000000; stroke-width: 1.875"/>
      </g>
     </g>
     <g id="text_12">
      <!-- 0.2 -->
      <g transform="translate(69.259844 312.965334)scale(0.165 -0.165)">
       <use xlink:href="#DejaVuSans-30"/>
       <use xlink:href="#DejaVuSans-2e" x="63.623047"/>
       <use xlink:href="#DejaVuSans-32" x="95.410156"/>
      </g>
     </g>
    </g>
    <g id="ytick_3">
     <g id="line2d_12">
      <g>
       <use xlink:href="#m5891db2152" x="108" y="250.218701" style="stroke: #000000; stroke-width: 1.875"/>
      </g>
     </g>
     <g id="text_13">
      <!-- 0.4 -->
      <g transform="translate(69.259844 256.487412)scale(0.165 -0.165)">
       <defs>
        <path id="DejaVuSans-34" d="M 2419 4116 
L 825 1625 
L 2419 1625 
L 2419 4116 
z
M 2253 4666 
L 3047 4666 
L 3047 1625 
L 3713 1625 
L 3713 1100 
L 3047 1100 
L 3047 0 
L 2419 0 
L 2419 1100 
L 313 1100 
L 313 1709 
L 2253 4666 
z
" transform="scale(0.015625)"/>
       </defs>
       <use xlink:href="#DejaVuSans-30"/>
       <use xlink:href="#DejaVuSans-2e" x="63.623047"/>
       <use xlink:href="#DejaVuSans-34" x="95.410156"/>
      </g>
     </g>
    </g>
    <g id="ytick_4">
     <g id="line2d_13">
      <g>
       <use xlink:href="#m5891db2152" x="108" y="193.740779" style="stroke: #000000; stroke-width: 1.875"/>
      </g>
     </g>
     <g id="text_14">
      <!-- 0.6 -->
      <g transform="translate(69.259844 200.00949)scale(0.165 -0.165)">
       <defs>
        <path id="DejaVuSans-36" d="M 2113 2584 
Q 1688 2584 1439 2293 
Q 1191 2003 1191 1497 
Q 1191 994 1439 701 
Q 1688 409 2113 409 
Q 2538 409 2786 701 
Q 3034 994 3034 1497 
Q 3034 2003 2786 2293 
Q 2538 2584 2113 2584 
z
M 3366 4563 
L 3366 3988 
Q 3128 4100 2886 4159 
Q 2644 4219 2406 4219 
Q 1781 4219 1451 3797 
Q 1122 3375 1075 2522 
Q 1259 2794 1537 2939 
Q 1816 3084 2150 3084 
Q 2853 3084 3261 2657 
Q 3669 2231 3669 1497 
Q 3669 778 3244 343 
Q 2819 -91 2113 -91 
Q 1303 -91 875 529 
Q 447 1150 447 2328 
Q 447 3434 972 4092 
Q 1497 4750 2381 4750 
Q 2619 4750 2861 4703 
Q 3103 4656 3366 4563 
z
" transform="scale(0.015625)"/>
       </defs>
       <use xlink:href="#DejaVuSans-30"/>
       <use xlink:href="#DejaVuSans-2e" x="63.623047"/>
       <use xlink:href="#DejaVuSans-36" x="95.410156"/>
      </g>
     </g>
    </g>
    <g id="ytick_5">
     <g id="line2d_14">
      <g>
       <use xlink:href="#m5891db2152" x="108" y="137.262857" style="stroke: #000000; stroke-width: 1.875"/>
      </g>
     </g>
     <g id="text_15">
      <!-- 0.8 -->
      <g transform="translate(69.259844 143.531568)scale(0.165 -0.165)">
       <defs>
        <path id="DejaVuSans-38" d="M 2034 2216 
Q 1584 2216 1326 1975 
Q 1069 1734 1069 1313 
Q 1069 891 1326 650 
Q 1584 409 2034 409 
Q 2484 409 2743 651 
Q 3003 894 3003 1313 
Q 3003 1734 2745 1975 
Q 2488 2216 2034 2216 
z
M 1403 2484 
Q 997 2584 770 2862 
Q 544 3141 544 3541 
Q 544 4100 942 4425 
Q 1341 4750 2034 4750 
Q 2731 4750 3128 4425 
Q 3525 4100 3525 3541 
Q 3525 3141 3298 2862 
Q 3072 2584 2669 2484 
Q 3125 2378 3379 2068 
Q 3634 1759 3634 1313 
Q 3634 634 3220 271 
Q 2806 -91 2034 -91 
Q 1263 -91 848 271 
Q 434 634 434 1313 
Q 434 1759 690 2068 
Q 947 2378 1403 2484 
z
M 1172 3481 
Q 1172 3119 1398 2916 
Q 1625 2713 2034 2713 
Q 2441 2713 2670 2916 
Q 2900 3119 2900 3481 
Q 2900 3844 2670 4047 
Q 2441 4250 2034 4250 
Q 1625 4250 1398 4047 
Q 1172 3844 1172 3481 
z
" transform="scale(0.015625)"/>
       </defs>
       <use xlink:href="#DejaVuSans-30"/>
       <use xlink:href="#DejaVuSans-2e" x="63.623047"/>
       <use xlink:href="#DejaVuSans-38" x="95.410156"/>
      </g>
     </g>
    </g>
    <g id="ytick_6">
     <g id="line2d_15">
      <g>
       <use xlink:href="#m5891db2152" x="108" y="80.784935" style="stroke: #000000; stroke-width: 1.875"/>
      </g>
     </g>
     <g id="text_16">
      <!-- 1.0 -->
      <g transform="translate(69.259844 87.053646)scale(0.165 -0.165)">
       <use xlink:href="#DejaVuSans-31"/>
       <use xlink:href="#DejaVuSans-2e" x="63.623047"/>
       <use xlink:href="#DejaVuSans-30" x="95.410156"/>
      </g>
     </g>
    </g>
    <g id="text_17">
     <!-- prediction accuracy -->
     <g transform="translate(61.516406 303.537656)rotate(-90)scale(0.18 -0.18)">
      <defs>
       <path id="DejaVuSans-70" d="M 1159 525 
L 1159 -1331 
L 581 -1331 
L 581 3500 
L 1159 3500 
L 1159 2969 
Q 1341 3281 1617 3432 
Q 1894 3584 2278 3584 
Q 2916 3584 3314 3078 
Q 3713 2572 3713 1747 
Q 3713 922 3314 415 
Q 2916 -91 2278 -91 
Q 1894 -91 1617 61 
Q 1341 213 1159 525 
z
M 3116 1747 
Q 3116 2381 2855 2742 
Q 2594 3103 2138 3103 
Q 1681 3103 1420 2742 
Q 1159 2381 1159 1747 
Q 1159 1113 1420 752 
Q 1681 391 2138 391 
Q 2594 391 2855 752 
Q 3116 1113 3116 1747 
z
" transform="scale(0.015625)"/>
       <path id="DejaVuSans-65" d="M 3597 1894 
L 3597 1613 
L 953 1613 
Q 991 1019 1311 708 
Q 1631 397 2203 397 
Q 2534 397 2845 478 
Q 3156 559 3463 722 
L 3463 178 
Q 3153 47 2828 -22 
Q 2503 -91 2169 -91 
Q 1331 -91 842 396 
Q 353 884 353 1716 
Q 353 2575 817 3079 
Q 1281 3584 2069 3584 
Q 2775 3584 3186 3129 
Q 3597 2675 3597 1894 
z
M 3022 2063 
Q 3016 2534 2758 2815 
Q 2500 3097 2075 3097 
Q 1594 3097 1305 2825 
Q 1016 2553 972 2059 
L 3022 2063 
z
" transform="scale(0.015625)"/>
       <path id="DejaVuSans-64" d="M 2906 2969 
L 2906 4863 
L 3481 4863 
L 3481 0 
L 2906 0 
L 2906 525 
Q 2725 213 2448 61 
Q 2172 -91 1784 -91 
Q 1150 -91 751 415 
Q 353 922 353 1747 
Q 353 2572 751 3078 
Q 1150 3584 1784 3584 
Q 2172 3584 2448 3432 
Q 2725 3281 2906 2969 
z
M 947 1747 
Q 947 1113 1208 752 
Q 1469 391 1925 391 
Q 2381 391 2643 752 
Q 2906 1113 2906 1747 
Q 2906 2381 2643 2742 
Q 2381 3103 1925 3103 
Q 1469 3103 1208 2742 
Q 947 2381 947 1747 
z
" transform="scale(0.015625)"/>
       <path id="DejaVuSans-63" d="M 3122 3366 
L 3122 2828 
Q 2878 2963 2633 3030 
Q 2388 3097 2138 3097 
Q 1578 3097 1268 2742 
Q 959 2388 959 1747 
Q 959 1106 1268 751 
Q 1578 397 2138 397 
Q 2388 397 2633 464 
Q 2878 531 3122 666 
L 3122 134 
Q 2881 22 2623 -34 
Q 2366 -91 2075 -91 
Q 1284 -91 818 406 
Q 353 903 353 1747 
Q 353 2603 823 3093 
Q 1294 3584 2113 3584 
Q 2378 3584 2631 3529 
Q 2884 3475 3122 3366 
z
" transform="scale(0.015625)"/>
       <path id="DejaVuSans-6f" d="M 1959 3097 
Q 1497 3097 1228 2736 
Q 959 2375 959 1747 
Q 959 1119 1226 758 
Q 1494 397 1959 397 
Q 2419 397 2687 759 
Q 2956 1122 2956 1747 
Q 2956 2369 2687 2733 
Q 2419 3097 1959 3097 
z
M 1959 3584 
Q 2709 3584 3137 3096 
Q 3566 2609 3566 1747 
Q 3566 888 3137 398 
Q 2709 -91 1959 -91 
Q 1206 -91 779 398 
Q 353 888 353 1747 
Q 353 2609 779 3096 
Q 1206 3584 1959 3584 
z
" transform="scale(0.015625)"/>
       <path id="DejaVuSans-6e" d="M 3513 2113 
L 3513 0 
L 2938 0 
L 2938 2094 
Q 2938 2591 2744 2837 
Q 2550 3084 2163 3084 
Q 1697 3084 1428 2787 
Q 1159 2491 1159 1978 
L 1159 0 
L 581 0 
L 581 3500 
L 1159 3500 
L 1159 2956 
Q 1366 3272 1645 3428 
Q 1925 3584 2291 3584 
Q 2894 3584 3203 3211 
Q 3513 2838 3513 2113 
z
" transform="scale(0.015625)"/>
       <path id="DejaVuSans-20" transform="scale(0.015625)"/>
       <path id="DejaVuSans-75" d="M 544 1381 
L 544 3500 
L 1119 3500 
L 1119 1403 
Q 1119 906 1312 657 
Q 1506 409 1894 409 
Q 2359 409 2629 706 
Q 2900 1003 2900 1516 
L 2900 3500 
L 3475 3500 
L 3475 0 
L 2900 0 
L 2900 538 
Q 2691 219 2414 64 
Q 2138 -91 1772 -91 
Q 1169 -91 856 284 
Q 544 659 544 1381 
z
M 1991 3584 
L 1991 3584 
z
" transform="scale(0.015625)"/>
       <path id="DejaVuSans-79" d="M 2059 -325 
Q 1816 -950 1584 -1140 
Q 1353 -1331 966 -1331 
L 506 -1331 
L 506 -850 
L 844 -850 
Q 1081 -850 1212 -737 
Q 1344 -625 1503 -206 
L 1606 56 
L 191 3500 
L 800 3500 
L 1894 763 
L 2988 3500 
L 3597 3500 
L 2059 -325 
z
" transform="scale(0.015625)"/>
      </defs>
      <use xlink:href="#DejaVuSans-70"/>
      <use xlink:href="#DejaVuSans-72" x="63.476562"/>
      <use xlink:href="#DejaVuSans-65" x="102.339844"/>
      <use xlink:href="#DejaVuSans-64" x="163.863281"/>
      <use xlink:href="#DejaVuSans-69" x="227.339844"/>
      <use xlink:href="#DejaVuSans-63" x="255.123047"/>
      <use xlink:href="#DejaVuSans-74" x="310.103516"/>
      <use xlink:href="#DejaVuSans-69" x="349.3125"/>
      <use xlink:href="#DejaVuSans-6f" x="377.095703"/>
      <use xlink:href="#DejaVuSans-6e" x="438.277344"/>
      <use xlink:href="#DejaVuSans-20" x="501.65625"/>
      <use xlink:href="#DejaVuSans-61" x="533.443359"/>
      <use xlink:href="#DejaVuSans-63" x="594.722656"/>
      <use xlink:href="#DejaVuSans-63" x="649.703125"/>
      <use xlink:href="#DejaVuSans-75" x="704.683594"/>
      <use xlink:href="#DejaVuSans-72" x="768.0625"/>
      <use xlink:href="#DejaVuSans-61" x="809.175781"/>
      <use xlink:href="#DejaVuSans-63" x="870.455078"/>
      <use xlink:href="#DejaVuSans-79" x="925.435547"/>
     </g>
    </g>
   </g>
   <g id="line2d_16">
    <path d="M 138.436364 214.548435 
L 141.48 226.766005 
L 144.523636 197.81126 
L 147.567273 217.110954 
L 150.610909 224.456842 
L 153.654545 223.324453 
L 156.698182 218.231206 
L 159.741818 241.060119 
L 162.785455 191.629455 
L 165.829091 192.723159 
L 168.872727 207.464386 
L 171.916364 190.603117 
L 174.96 205.73609 
L 178.003636 216.240114 
L 181.047273 231.089083 
L 184.090909 215.619614 
L 187.134545 180.745859 
L 190.178182 190.473461 
L 193.221818 196.196341 
L 196.265455 227.538591 
L 199.309091 229.411046 
L 202.352727 224.294409 
L 205.396364 218.231206 
L 208.44 210.103542 
L 211.483636 202.504595 
L 214.527273 209.877328 
L 217.570909 225.865836 
L 220.614545 199.546921 
L 223.658182 215.840836 
L 226.701818 182.018946 
L 229.745455 214.415733 
L 232.789091 207.187904 
L 235.832727 218.910288 
L 238.876364 236.771577 
L 241.92 194.223497 
L 244.963636 207.572107 
L 248.007273 208.659476 
L 251.050909 223.40595 
L 254.094545 212.193962 
L 257.138182 220.684375 
L 260.181818 205.630868 
L 263.225455 236.099221 
L 266.269091 209.143849 
L 269.312727 204.938988 
L 272.356364 206.576671 
L 275.4 200.44155 
L 278.443636 192.111608 
L 281.487273 206.291429 
L 284.530909 191.80991 
L 287.574545 156.425009 
L 290.618182 172.501219 
L 293.661818 190.011105 
L 296.705455 174.07436 
L 299.749091 189.777416 
L 302.792727 181.46297 
L 305.836364 163.688307 
L 308.88 177.926961 
L 311.923636 212.242167 
L 314.967273 154.45179 
L 318.010909 192.723159 
L 321.054545 152.042126 
L 324.098182 180.619646 
L 327.141818 180.186078 
L 330.185455 176.470671 
L 333.229091 169.377754 
L 336.272727 153.192527 
L 339.316364 169.377754 
L 342.36 203.439008 
L 345.403636 153.588506 
L 348.447273 176.69084 
L 354.534545 135.694026 
L 357.578182 180.315699 
L 360.621818 165.805463 
L 363.665455 161.841212 
L 366.709091 197.06301 
L 369.752727 192.675158 
L 372.796364 174.914805 
L 375.84 178.078834 
L 378.883636 143.81833 
L 381.927273 227.538591 
L 384.970909 165.988697 
L 388.014545 183.472066 
L 391.058182 195.26721 
L 394.101818 209.594231 
L 397.145455 182.758961 
L 400.189091 187.988398 
L 403.232727 184.569151 
L 406.276364 157.106451 
L 409.32 173.104615 
L 412.363636 202.899361 
L 415.407273 142.962464 
L 418.450909 182.155564 
L 421.494545 191.173601 
L 424.538182 168.890494 
L 427.581818 199.685824 
L 430.625455 176.551846 
L 433.669091 181.40652 
L 436.712727 169.726545 
L 439.756364 169.377754 
L 442.8 174.914805 
L 445.843636 162.243477 
L 448.887273 157.800283 
L 451.930909 157.594909 
L 454.974545 159.483679 
L 458.018182 150.098749 
L 461.061818 158.843852 
L 464.105455 168.42309 
L 467.149091 155.606114 
L 470.192727 181.82342 
L 473.236364 159.362914 
L 476.28 140.371734 
L 479.323636 129.66006 
L 482.367273 174.914805 
L 485.410909 178.246836 
L 488.454545 165.75172 
L 491.498182 141.485506 
L 494.541818 184.945037 
L 497.585455 153.256605 
L 500.629091 154.562401 
L 503.672727 201.107465 
L 506.716364 179.232689 
L 509.76 218.296398 
L 512.803636 214.676561 
L 515.847273 199.685824 
L 518.890909 181.438658 
L 521.934545 180.144242 
L 524.978182 167.674046 
L 528.021818 173.291876 
L 531.065455 185.542371 
L 534.109091 188.242928 
L 537.152727 212.071333 
L 540.196364 202.162925 
L 543.24 231.888148 
L 546.283636 144.124661 
L 549.327273 165.177232 
L 552.370909 191.723711 
L 555.414545 204.640027 
L 558.458182 187.819707 
L 561.501818 172.501219 
L 564.545455 197.635808 
L 567.589091 194.223497 
L 570.632727 227.022412 
L 573.676364 219.038182 
L 576.72 171.460498 
L 579.763636 193.740779 
L 582.807273 190.097042 
L 585.850909 219.586608 
L 588.894545 162.078914 
L 591.938182 185.1979 
L 594.981818 180.904888 
L 598.025455 204.938988 
L 601.069091 183.029449 
L 604.112727 224.803636 
L 607.156364 191.173601 
L 610.2 207.187904 
L 613.243636 197.81126 
L 616.287273 201.107465 
L 619.330909 179.869009 
L 622.374545 189.396324 
L 625.418182 187.300314 
L 628.461818 186.681039 
L 631.505455 172.300087 
L 634.549091 202.899361 
L 637.592727 199.119629 
L 640.636364 187.259706 
L 643.68 158.946345 
L 646.723636 182.546957 
L 649.767273 179.869009 
L 652.810909 196.430204 
L 655.854545 153.903673 
L 658.898182 162.598747 
L 661.941818 183.244882 
L 664.985455 191.723711 
L 668.029091 170.087632 
L 671.072727 201.809054 
L 674.116364 193.740779 
L 677.16 163.370576 
L 680.203636 191.285217 
L 683.247273 195.832554 
L 686.290909 194.73162 
L 689.334545 195.832554 
L 692.378182 175.705813 
L 695.421818 191.80991 
L 701.509091 168.068996 
L 704.552727 191.629455 
L 707.596364 187.635058 
L 710.64 188.475888 
L 713.683636 166.034629 
L 716.727273 171.057024 
L 719.770909 204.640027 
L 722.814545 176.641959 
L 725.858182 185.743905 
L 728.901818 182.346111 
L 731.945455 202.972747 
L 734.989091 161.467681 
L 738.032727 174.026788 
L 741.076364 190.450803 
L 744.12 181.802357 
L 744.12 181.802357 
" clip-path="url(#p8c36ab5efe)" style="fill: none; stroke: #1f77b4; stroke-width: 2.25; stroke-linecap: square"/>
   </g>
   <g id="line2d_17">
    <path d="M 108 221.97974 
L 777.6 221.97974 
" clip-path="url(#p8c36ab5efe)" style="fill: none; stroke: #000000; stroke-width: 2.25; stroke-linecap: square"/>
   </g>
   <g id="patch_3">
    <path d="M 108 378 
L 108 51.84 
" style="fill: none; stroke: #000000; stroke-width: 1.875; stroke-linejoin: miter; stroke-linecap: square"/>
   </g>
   <g id="patch_4">
    <path d="M 777.6 378 
L 777.6 51.84 
" style="fill: none; stroke: #000000; stroke-width: 1.875; stroke-linejoin: miter; stroke-linecap: square"/>
   </g>
   <g id="patch_5">
    <path d="M 108 378 
L 777.6 378 
" style="fill: none; stroke: #000000; stroke-width: 1.875; stroke-linejoin: miter; stroke-linecap: square"/>
   </g>
   <g id="patch_6">
    <path d="M 108 51.84 
L 777.6 51.84 
" style="fill: none; stroke: #000000; stroke-width: 1.875; stroke-linejoin: miter; stroke-linecap: square"/>
   </g>
  </g>
 </g>
 <defs>
  <clipPath id="p8c36ab5efe">
   <rect x="108" y="51.84" width="669.6" height="326.16"/>
  </clipPath>
 </defs>
</svg>
