<?xml version="1.0" encoding="utf-8" standalone="no"?>
<!DOCTYPE svg PUBLIC "-//W3C//DTD SVG 1.1//EN"
  "http://www.w3.org/Graphics/SVG/1.1/DTD/svg11.dtd">
<!-- Created with matplotlib (https://matplotlib.org/) -->
<svg height="432pt" version="1.1" viewBox="0 0 864 432" width="864pt" xmlns="http://www.w3.org/2000/svg" xmlns:xlink="http://www.w3.org/1999/xlink">
 <metadata>
  <rdf:RDF xmlns:cc="http://creativecommons.org/ns#" xmlns:dc="http://purl.org/dc/elements/1.1/" xmlns:rdf="http://www.w3.org/1999/02/22-rdf-syntax-ns#">
   <cc:Work>
    <dc:type rdf:resource="http://purl.org/dc/dcmitype/StillImage"/>
    <dc:date>2023-04-16T12:02:45.870260</dc:date>
    <dc:format>image/svg+xml</dc:format>
    <dc:creator>
     <cc:Agent>
      <dc:title>Matplotlib v3.3.4, https://matplotlib.org/</dc:title>
     </cc:Agent>
    </dc:creator>
   </cc:Work>
  </rdf:RDF>
 </metadata>
 <defs>
  <style type="text/css">*{stroke-linecap:butt;stroke-linejoin:round;}</style>
 </defs>
 <g id="figure_1">
  <g id="patch_1">
   <path d="M 0 432 
L 864 432 
L 864 0 
L 0 0 
z
" style="fill:none;"/>
  </g>
  <g id="axes_1">
   <g id="patch_2">
    <path d="M 108 378 
L 777.6 378 
L 777.6 51.84 
L 108 51.84 
z
" style="fill:#ffffff;"/>
   </g>
   <g id="PolyCollection_1">
    <defs>
     <path d="M 220.350975 -68.825455 
L 218.849025 -68.825455 
L 218.634004 -71.820496 
L 218.367244 -74.815537 
L 218.039129 -77.810579 
L 217.639002 -80.80562 
L 217.155237 -83.800661 
L 216.575383 -86.795702 
L 215.886371 -89.790744 
L 215.074802 -92.785785 
L 214.127333 -95.780826 
L 213.031135 -98.775868 
L 211.774457 -101.770909 
L 210.347256 -104.76595 
L 208.741903 -107.760992 
L 206.953914 -110.756033 
L 204.982708 -113.751074 
L 202.832319 -116.746116 
L 200.512037 -119.741157 
L 198.036918 -122.736198 
L 195.428119 -125.73124 
L 192.713 -128.726281 
L 189.924956 -131.721322 
L 187.102953 -134.716364 
L 184.290744 -137.711405 
L 181.535779 -140.706446 
L 178.887833 -143.701488 
L 176.39739 -146.696529 
L 174.113876 -149.69157 
L 172.083795 -152.686612 
L 170.348895 -155.681653 
L 168.944448 -158.676694 
L 167.89775 -161.671736 
L 167.226938 -164.666777 
L 166.940186 -167.661818 
L 167.035341 -170.65686 
L 167.500007 -173.651901 
L 168.312086 -176.646942 
L 169.440721 -179.641983 
L 170.847592 -182.637025 
L 172.488477 -185.632066 
L 174.314972 -188.627107 
L 176.276282 -191.622149 
L 178.320972 -194.61719 
L 180.398585 -197.612231 
L 182.461061 -200.607273 
L 184.46389 -203.602314 
L 186.366978 -206.597355 
L 188.135209 -209.592397 
L 189.738719 -212.587438 
L 191.152909 -215.582479 
L 192.35826 -218.577521 
L 193.339974 -221.572562 
L 194.087538 -224.567603 
L 194.594243 -227.562645 
L 194.856734 -230.557686 
L 194.87462 -233.552727 
L 194.650205 -236.547769 
L 194.188342 -239.54281 
L 193.496434 -242.537851 
L 192.584579 -245.532893 
L 191.465827 -248.527934 
L 190.156534 -251.522975 
L 188.676757 -254.518017 
L 187.050627 -257.513058 
L 185.306664 -260.508099 
L 183.477931 -263.50314 
L 181.602006 -266.498182 
L 179.720677 -269.493223 
L 177.879352 -272.488264 
L 176.126146 -275.483306 
L 174.510656 -278.478347 
L 173.082455 -281.473388 
L 171.889361 -284.46843 
L 170.975575 -287.463471 
L 170.379787 -290.458512 
L 170.133374 -293.453554 
L 170.258814 -296.448595 
L 170.768437 -299.443636 
L 171.663601 -302.438678 
L 172.934387 -305.433719 
L 174.559831 -308.42876 
L 176.508707 -311.423802 
L 178.740813 -314.418843 
L 181.208683 -317.413884 
L 183.85963 -320.408926 
L 186.637967 -323.403967 
L 189.487296 -326.399008 
L 192.352707 -329.39405 
L 195.182771 -332.389091 
L 197.931221 -335.384132 
L 200.558255 -338.379174 
L 203.031405 -341.374215 
L 205.325974 -344.369256 
L 207.425059 -347.364298 
L 209.319203 -350.359339 
L 211.005746 -353.35438 
L 212.487952 -356.349421 
L 213.773985 -359.344463 
L 214.87583 -362.339504 
L 215.808211 -365.334545 
L 223.391789 -365.334545 
L 223.391789 -365.334545 
L 224.32417 -362.339504 
L 225.426015 -359.344463 
L 226.712048 -356.349421 
L 228.194254 -353.35438 
L 229.880797 -350.359339 
L 231.774941 -347.364298 
L 233.874026 -344.369256 
L 236.168595 -341.374215 
L 238.641745 -338.379174 
L 241.268779 -335.384132 
L 244.017229 -332.389091 
L 246.847293 -329.39405 
L 249.712704 -326.399008 
L 252.562033 -323.403967 
L 255.34037 -320.408926 
L 257.991317 -317.413884 
L 260.459187 -314.418843 
L 262.691293 -311.423802 
L 264.640169 -308.42876 
L 266.265613 -305.433719 
L 267.536399 -302.438678 
L 268.431563 -299.443636 
L 268.941186 -296.448595 
L 269.066626 -293.453554 
L 268.820213 -290.458512 
L 268.224425 -287.463471 
L 267.310639 -284.46843 
L 266.117545 -281.473388 
L 264.689344 -278.478347 
L 263.073854 -275.483306 
L 261.320648 -272.488264 
L 259.479323 -269.493223 
L 257.597994 -266.498182 
L 255.722069 -263.50314 
L 253.893336 -260.508099 
L 252.149373 -257.513058 
L 250.523243 -254.518017 
L 249.043466 -251.522975 
L 247.734173 -248.527934 
L 246.615421 -245.532893 
L 245.703566 -242.537851 
L 245.011658 -239.54281 
L 244.549795 -236.547769 
L 244.32538 -233.552727 
L 244.343266 -230.557686 
L 244.605757 -227.562645 
L 245.112462 -224.567603 
L 245.860026 -221.572562 
L 246.84174 -218.577521 
L 248.047091 -215.582479 
L 249.461281 -212.587438 
L 251.064791 -209.592397 
L 252.833022 -206.597355 
L 254.73611 -203.602314 
L 256.738939 -200.607273 
L 258.801415 -197.612231 
L 260.879028 -194.61719 
L 262.923718 -191.622149 
L 264.885028 -188.627107 
L 266.711523 -185.632066 
L 268.352408 -182.637025 
L 269.759279 -179.641983 
L 270.887914 -176.646942 
L 271.699993 -173.651901 
L 272.164659 -170.65686 
L 272.259814 -167.661818 
L 271.973062 -164.666777 
L 271.30225 -161.671736 
L 270.255552 -158.676694 
L 268.851105 -155.681653 
L 267.116205 -152.686612 
L 265.086124 -149.69157 
L 262.80261 -146.696529 
L 260.312167 -143.701488 
L 257.664221 -140.706446 
L 254.909256 -137.711405 
L 252.097047 -134.716364 
L 249.275044 -131.721322 
L 246.487 -128.726281 
L 243.771881 -125.73124 
L 241.163082 -122.736198 
L 238.687963 -119.741157 
L 236.367681 -116.746116 
L 234.217292 -113.751074 
L 232.246086 -110.756033 
L 230.458097 -107.760992 
L 228.852744 -104.76595 
L 227.425543 -101.770909 
L 226.168865 -98.775868 
L 225.072667 -95.780826 
L 224.125198 -92.785785 
L 223.313629 -89.790744 
L 222.624617 -86.795702 
L 222.044763 -83.800661 
L 221.560998 -80.80562 
L 221.160871 -77.810579 
L 220.832756 -74.815537 
L 220.565996 -71.820496 
L 220.350975 -68.825455 
z
" id="m175b818fd7" style="stroke:#3d3d3d;stroke-width:2.25;"/>
    </defs>
    <g clip-path="url(#p9d18806dc3)">
     <use style="fill:#3274a1;stroke:#3d3d3d;stroke-width:2.25;" x="0" xlink:href="#m175b818fd7" y="432"/>
    </g>
   </g>
   <g id="PolyCollection_2">
    <defs>
     <path d="M 443.799313 -77.636232 
L 441.800687 -77.636232 
L 441.479842 -80.443909 
L 441.073753 -83.251586 
L 440.565302 -86.059262 
L 439.935431 -88.866939 
L 439.163288 -91.674616 
L 438.226494 -94.482293 
L 437.101524 -97.28997 
L 435.764242 -100.097646 
L 434.190578 -102.905323 
L 432.357362 -105.713 
L 430.243316 -108.520677 
L 427.830174 -111.328354 
L 425.103926 -114.13603 
L 422.05612 -116.943707 
L 418.685189 -119.751384 
L 414.99772 -122.559061 
L 411.009579 -125.366738 
L 406.74682 -128.174414 
L 402.246266 -130.982091 
L 397.555702 -133.789768 
L 392.733598 -136.597445 
L 387.848325 -139.405122 
L 382.976852 -142.212798 
L 378.202947 -145.020475 
L 373.614931 -147.828152 
L 369.303078 -150.635829 
L 365.356766 -153.443506 
L 361.861515 -156.251182 
L 358.896037 -159.058859 
L 356.529441 -161.866536 
L 354.818724 -164.674213 
L 353.806629 -167.48189 
L 353.52 -170.289566 
L 353.968666 -173.097243 
L 355.144919 -175.90492 
L 357.023602 -178.712597 
L 359.56281 -181.520273 
L 362.705178 -184.32795 
L 366.379711 -187.135627 
L 370.504095 -189.943304 
L 374.987381 -192.750981 
L 379.732944 -195.558657 
L 384.641571 -198.366334 
L 389.614554 -201.174011 
L 394.556629 -203.981688 
L 399.378641 -206.789365 
L 403.999806 -209.597041 
L 408.349503 -212.404718 
L 412.368522 -215.212395 
L 416.009775 -218.020072 
L 419.238481 -220.827749 
L 422.031885 -223.635425 
L 424.378593 -226.443102 
L 426.277613 -229.250779 
L 427.737211 -232.058456 
L 428.773662 -234.866133 
L 429.409993 -237.673809 
L 429.674772 -240.481486 
L 429.600985 -243.289163 
L 429.22503 -246.09684 
L 428.585845 -248.904517 
L 427.724137 -251.712193 
L 426.681729 -254.51987 
L 425.500989 -257.327547 
L 424.224316 -260.135224 
L 422.893682 -262.942901 
L 421.55019 -265.750577 
L 420.233636 -268.558254 
L 418.98207 -271.365931 
L 417.831326 -274.173608 
L 416.814521 -276.981285 
L 415.961527 -279.788961 
L 415.29839 -282.596638 
L 414.84675 -285.404315 
L 414.623251 -288.211992 
L 414.638993 -291.019669 
L 414.899072 -293.827345 
L 415.402244 -296.635022 
L 416.140786 -299.442699 
L 417.100585 -302.250376 
L 418.261482 -305.058052 
L 419.597916 -307.865729 
L 421.079819 -310.673406 
L 422.673764 -313.481083 
L 424.344281 -316.28876 
L 426.055289 -319.096436 
L 427.771529 -321.904113 
L 429.459926 -324.71179 
L 431.090782 -327.519467 
L 432.638729 -330.327144 
L 434.083395 -333.13482 
L 435.409748 -335.942497 
L 436.608134 -338.750174 
L 437.674024 -341.557851 
L 438.607523 -344.365528 
L 439.412691 -347.173204 
L 440.096767 -349.980881 
L 440.669337 -352.788558 
L 441.141519 -355.596235 
L 444.458481 -355.596235 
L 444.458481 -355.596235 
L 444.930663 -352.788558 
L 445.503233 -349.980881 
L 446.187309 -347.173204 
L 446.992477 -344.365528 
L 447.925976 -341.557851 
L 448.991866 -338.750174 
L 450.190252 -335.942497 
L 451.516605 -333.13482 
L 452.961271 -330.327144 
L 454.509218 -327.519467 
L 456.140074 -324.71179 
L 457.828471 -321.904113 
L 459.544711 -319.096436 
L 461.255719 -316.28876 
L 462.926236 -313.481083 
L 464.520181 -310.673406 
L 466.002084 -307.865729 
L 467.338518 -305.058052 
L 468.499415 -302.250376 
L 469.459214 -299.442699 
L 470.197756 -296.635022 
L 470.700928 -293.827345 
L 470.961007 -291.019669 
L 470.976749 -288.211992 
L 470.75325 -285.404315 
L 470.30161 -282.596638 
L 469.638473 -279.788961 
L 468.785479 -276.981285 
L 467.768674 -274.173608 
L 466.61793 -271.365931 
L 465.366364 -268.558254 
L 464.04981 -265.750577 
L 462.706318 -262.942901 
L 461.375684 -260.135224 
L 460.099011 -257.327547 
L 458.918271 -254.51987 
L 457.875863 -251.712193 
L 457.014155 -248.904517 
L 456.37497 -246.09684 
L 455.999015 -243.289163 
L 455.925228 -240.481486 
L 456.190007 -237.673809 
L 456.826338 -234.866133 
L 457.862789 -232.058456 
L 459.322387 -229.250779 
L 461.221407 -226.443102 
L 463.568115 -223.635425 
L 466.361519 -220.827749 
L 469.590225 -218.020072 
L 473.231478 -215.212395 
L 477.250497 -212.404718 
L 481.600194 -209.597041 
L 486.221359 -206.789365 
L 491.043371 -203.981688 
L 495.985446 -201.174011 
L 500.958429 -198.366334 
L 505.867056 -195.558657 
L 510.612619 -192.750981 
L 515.095905 -189.943304 
L 519.220289 -187.135627 
L 522.894822 -184.32795 
L 526.03719 -181.520273 
L 528.576398 -178.712597 
L 530.455081 -175.90492 
L 531.631334 -173.097243 
L 532.08 -170.289566 
L 531.793371 -167.48189 
L 530.781276 -164.674213 
L 529.070559 -161.866536 
L 526.703963 -159.058859 
L 523.738485 -156.251182 
L 520.243234 -153.443506 
L 516.296922 -150.635829 
L 511.985069 -147.828152 
L 507.397053 -145.020475 
L 502.623148 -142.212798 
L 497.751675 -139.405122 
L 492.866402 -136.597445 
L 488.044298 -133.789768 
L 483.353734 -130.982091 
L 478.85318 -128.174414 
L 474.590421 -125.366738 
L 470.60228 -122.559061 
L 466.914811 -119.751384 
L 463.54388 -116.943707 
L 460.496074 -114.13603 
L 457.769826 -111.328354 
L 455.356684 -108.520677 
L 453.242638 -105.713 
L 451.409422 -102.905323 
L 449.835758 -100.097646 
L 448.498476 -97.28997 
L 447.373506 -94.482293 
L 446.436712 -91.674616 
L 445.664569 -88.866939 
L 445.034698 -86.059262 
L 444.526247 -83.251586 
L 444.120158 -80.443909 
L 443.799313 -77.636232 
z
" id="mc11553e936" style="stroke:#3d3d3d;stroke-width:2.25;"/>
    </defs>
    <g clip-path="url(#p9d18806dc3)">
     <use style="fill:#e1812c;stroke:#3d3d3d;stroke-width:2.25;" x="0" xlink:href="#mc11553e936" y="432"/>
    </g>
   </g>
   <g id="PolyCollection_3">
    <defs>
     <path d="M 668.905061 -86.194292 
L 663.094939 -86.194292 
L 662.307352 -88.968728 
L 661.351069 -91.743165 
L 660.202763 -94.517601 
L 658.83918 -97.292038 
L 657.238073 -100.066474 
L 655.379282 -102.84091 
L 653.245945 -105.615347 
L 650.825784 -108.389783 
L 648.11241 -111.16422 
L 645.106579 -113.938656 
L 641.817305 -116.713092 
L 638.262773 -119.487529 
L 634.470941 -122.261965 
L 630.479778 -125.036402 
L 626.337076 -127.810838 
L 622.099791 -130.585274 
L 617.832904 -133.359711 
L 613.607823 -136.134147 
L 609.500366 -138.908583 
L 605.5884 -141.68302 
L 601.949234 -144.457456 
L 598.656897 -147.231893 
L 595.779423 -150.006329 
L 593.376286 -152.780765 
L 591.49612 -155.555202 
L 590.174846 -158.329638 
L 589.434303 -161.104075 
L 589.281456 -163.878511 
L 589.708224 -166.652947 
L 590.691928 -169.427384 
L 592.196341 -172.20182 
L 594.173257 -174.976257 
L 596.564517 -177.750693 
L 599.304362 -180.525129 
L 602.321989 -183.299566 
L 605.544197 -186.074002 
L 608.897969 -188.848438 
L 612.312884 -191.622875 
L 615.723259 -194.397311 
L 619.069914 -197.171748 
L 622.301524 -199.946184 
L 625.375503 -202.72062 
L 628.258426 -205.495057 
L 630.925988 -208.269493 
L 633.362554 -211.04393 
L 635.560347 -213.818366 
L 637.518357 -216.592802 
L 639.241039 -219.367239 
L 640.736915 -222.141675 
L 642.017146 -224.916112 
L 643.094185 -227.690548 
L 643.980579 -230.464984 
L 644.687987 -233.239421 
L 645.22648 -236.013857 
L 645.604148 -238.788293 
L 645.827029 -241.56273 
L 645.899356 -244.337166 
L 645.824095 -247.111603 
L 645.603718 -249.886039 
L 645.241152 -252.660475 
L 644.740813 -255.434912 
L 644.10965 -258.209348 
L 643.35808 -260.983785 
L 642.500753 -263.758221 
L 641.557045 -266.532657 
L 640.551215 -269.307094 
L 639.512204 -272.08153 
L 638.473038 -274.855967 
L 637.469869 -277.630403 
L 636.540682 -280.404839 
L 635.723761 -283.179276 
L 635.055989 -285.953712 
L 634.571109 -288.728148 
L 634.298055 -291.502585 
L 634.259478 -294.277021 
L 634.470558 -297.051458 
L 634.938204 -299.825894 
L 635.660685 -302.60033 
L 636.627718 -305.374767 
L 637.82101 -308.149203 
L 639.215212 -310.92364 
L 640.779199 -313.698076 
L 642.477614 -316.472512 
L 644.272536 -319.246949 
L 646.125195 -322.021385 
L 647.997609 -324.795822 
L 649.85405 -327.570258 
L 651.662283 -330.344694 
L 653.394506 -333.119131 
L 655.027979 -335.893567 
L 656.545337 -338.668003 
L 657.934597 -341.44244 
L 659.188919 -344.216876 
L 660.306139 -346.991313 
L 661.288162 -349.765749 
L 662.140247 -352.540185 
L 662.870262 -355.314622 
L 663.487941 -358.089058 
L 664.004187 -360.863495 
L 667.995813 -360.863495 
L 667.995813 -360.863495 
L 668.512059 -358.089058 
L 669.129738 -355.314622 
L 669.859753 -352.540185 
L 670.711838 -349.765749 
L 671.693861 -346.991313 
L 672.811081 -344.216876 
L 674.065403 -341.44244 
L 675.454663 -338.668003 
L 676.972021 -335.893567 
L 678.605494 -333.119131 
L 680.337717 -330.344694 
L 682.14595 -327.570258 
L 684.002391 -324.795822 
L 685.874805 -322.021385 
L 687.727464 -319.246949 
L 689.522386 -316.472512 
L 691.220801 -313.698076 
L 692.784788 -310.92364 
L 694.17899 -308.149203 
L 695.372282 -305.374767 
L 696.339315 -302.60033 
L 697.061796 -299.825894 
L 697.529442 -297.051458 
L 697.740522 -294.277021 
L 697.701945 -291.502585 
L 697.428891 -288.728148 
L 696.944011 -285.953712 
L 696.276239 -283.179276 
L 695.459318 -280.404839 
L 694.530131 -277.630403 
L 693.526962 -274.855967 
L 692.487796 -272.08153 
L 691.448785 -269.307094 
L 690.442955 -266.532657 
L 689.499247 -263.758221 
L 688.64192 -260.983785 
L 687.89035 -258.209348 
L 687.259187 -255.434912 
L 686.758848 -252.660475 
L 686.396282 -249.886039 
L 686.175905 -247.111603 
L 686.100644 -244.337166 
L 686.172971 -241.56273 
L 686.395852 -238.788293 
L 686.77352 -236.013857 
L 687.312013 -233.239421 
L 688.019421 -230.464984 
L 688.905815 -227.690548 
L 689.982854 -224.916112 
L 691.263085 -222.141675 
L 692.758961 -219.367239 
L 694.481643 -216.592802 
L 696.439653 -213.818366 
L 698.637446 -211.04393 
L 701.074012 -208.269493 
L 703.741574 -205.495057 
L 706.624497 -202.72062 
L 709.698476 -199.946184 
L 712.930086 -197.171748 
L 716.276741 -194.397311 
L 719.687116 -191.622875 
L 723.102031 -188.848438 
L 726.455803 -186.074002 
L 729.678011 -183.299566 
L 732.695638 -180.525129 
L 735.435483 -177.750693 
L 737.826743 -174.976257 
L 739.803659 -172.20182 
L 741.308072 -169.427384 
L 742.291776 -166.652947 
L 742.718544 -163.878511 
L 742.565697 -161.104075 
L 741.825154 -158.329638 
L 740.50388 -155.555202 
L 738.623714 -152.780765 
L 736.220577 -150.006329 
L 733.343103 -147.231893 
L 730.050766 -144.457456 
L 726.4116 -141.68302 
L 722.499634 -138.908583 
L 718.392177 -136.134147 
L 714.167096 -133.359711 
L 709.900209 -130.585274 
L 705.662924 -127.810838 
L 701.520222 -125.036402 
L 697.529059 -122.261965 
L 693.737227 -119.487529 
L 690.182695 -116.713092 
L 686.893421 -113.938656 
L 683.88759 -111.16422 
L 681.174216 -108.389783 
L 678.754055 -105.615347 
L 676.620718 -102.84091 
L 674.761927 -100.066474 
L 673.16082 -97.292038 
L 671.797237 -94.517601 
L 670.648931 -91.743165 
L 669.692648 -88.968728 
L 668.905061 -86.194292 
z
" id="m42ae3d17bd" style="stroke:#3d3d3d;stroke-width:2.25;"/>
    </defs>
    <g clip-path="url(#p9d18806dc3)">
     <use style="fill:#3a923a;stroke:#3d3d3d;stroke-width:2.25;" x="0" xlink:href="#m42ae3d17bd" y="432"/>
    </g>
   </g>
   <g id="matplotlib.axis_1">
    <g id="xtick_1">
     <g id="line2d_1">
      <defs>
       <path d="M 0 0 
L 0 9 
" id="m909bd7f14b" style="stroke:#000000;stroke-width:1.875;"/>
      </defs>
      <g>
       <use style="stroke:#000000;stroke-width:1.875;" x="219.6" xlink:href="#m909bd7f14b" y="378"/>
      </g>
     </g>
     <g id="text_1">
      <!-- inserted_early -->
      <g transform="translate(160.9425 403.037422)scale(0.165 -0.165)">
       <defs>
        <path d="M 9.421875 54.6875 
L 18.40625 54.6875 
L 18.40625 0 
L 9.421875 0 
z
M 9.421875 75.984375 
L 18.40625 75.984375 
L 18.40625 64.59375 
L 9.421875 64.59375 
z
" id="DejaVuSans-105"/>
        <path d="M 54.890625 33.015625 
L 54.890625 0 
L 45.90625 0 
L 45.90625 32.71875 
Q 45.90625 40.484375 42.875 44.328125 
Q 39.84375 48.1875 33.796875 48.1875 
Q 26.515625 48.1875 22.3125 43.546875 
Q 18.109375 38.921875 18.109375 30.90625 
L 18.109375 0 
L 9.078125 0 
L 9.078125 54.6875 
L 18.109375 54.6875 
L 18.109375 46.1875 
Q 21.34375 51.125 25.703125 53.5625 
Q 30.078125 56 35.796875 56 
Q 45.21875 56 50.046875 50.171875 
Q 54.890625 44.34375 54.890625 33.015625 
z
" id="DejaVuSans-110"/>
        <path d="M 44.28125 53.078125 
L 44.28125 44.578125 
Q 40.484375 46.53125 36.375 47.5 
Q 32.28125 48.484375 27.875 48.484375 
Q 21.1875 48.484375 17.84375 46.4375 
Q 14.5 44.390625 14.5 40.28125 
Q 14.5 37.15625 16.890625 35.375 
Q 19.28125 33.59375 26.515625 31.984375 
L 29.59375 31.296875 
Q 39.15625 29.25 43.1875 25.515625 
Q 47.21875 21.78125 47.21875 15.09375 
Q 47.21875 7.46875 41.1875 3.015625 
Q 35.15625 -1.421875 24.609375 -1.421875 
Q 20.21875 -1.421875 15.453125 -0.5625 
Q 10.6875 0.296875 5.421875 2 
L 5.421875 11.28125 
Q 10.40625 8.6875 15.234375 7.390625 
Q 20.0625 6.109375 24.8125 6.109375 
Q 31.15625 6.109375 34.5625 8.28125 
Q 37.984375 10.453125 37.984375 14.40625 
Q 37.984375 18.0625 35.515625 20.015625 
Q 33.0625 21.96875 24.703125 23.78125 
L 21.578125 24.515625 
Q 13.234375 26.265625 9.515625 29.90625 
Q 5.8125 33.546875 5.8125 39.890625 
Q 5.8125 47.609375 11.28125 51.796875 
Q 16.75 56 26.8125 56 
Q 31.78125 56 36.171875 55.265625 
Q 40.578125 54.546875 44.28125 53.078125 
z
" id="DejaVuSans-115"/>
        <path d="M 56.203125 29.59375 
L 56.203125 25.203125 
L 14.890625 25.203125 
Q 15.484375 15.921875 20.484375 11.0625 
Q 25.484375 6.203125 34.421875 6.203125 
Q 39.59375 6.203125 44.453125 7.46875 
Q 49.3125 8.734375 54.109375 11.28125 
L 54.109375 2.78125 
Q 49.265625 0.734375 44.1875 -0.34375 
Q 39.109375 -1.421875 33.890625 -1.421875 
Q 20.796875 -1.421875 13.15625 6.1875 
Q 5.515625 13.8125 5.515625 26.8125 
Q 5.515625 40.234375 12.765625 48.109375 
Q 20.015625 56 32.328125 56 
Q 43.359375 56 49.78125 48.890625 
Q 56.203125 41.796875 56.203125 29.59375 
z
M 47.21875 32.234375 
Q 47.125 39.59375 43.09375 43.984375 
Q 39.0625 48.390625 32.421875 48.390625 
Q 24.90625 48.390625 20.390625 44.140625 
Q 15.875 39.890625 15.1875 32.171875 
z
" id="DejaVuSans-101"/>
        <path d="M 41.109375 46.296875 
Q 39.59375 47.171875 37.8125 47.578125 
Q 36.03125 48 33.890625 48 
Q 26.265625 48 22.1875 43.046875 
Q 18.109375 38.09375 18.109375 28.8125 
L 18.109375 0 
L 9.078125 0 
L 9.078125 54.6875 
L 18.109375 54.6875 
L 18.109375 46.1875 
Q 20.953125 51.171875 25.484375 53.578125 
Q 30.03125 56 36.53125 56 
Q 37.453125 56 38.578125 55.875 
Q 39.703125 55.765625 41.0625 55.515625 
z
" id="DejaVuSans-114"/>
        <path d="M 18.3125 70.21875 
L 18.3125 54.6875 
L 36.8125 54.6875 
L 36.8125 47.703125 
L 18.3125 47.703125 
L 18.3125 18.015625 
Q 18.3125 11.328125 20.140625 9.421875 
Q 21.96875 7.515625 27.59375 7.515625 
L 36.8125 7.515625 
L 36.8125 0 
L 27.59375 0 
Q 17.1875 0 13.234375 3.875 
Q 9.28125 7.765625 9.28125 18.015625 
L 9.28125 47.703125 
L 2.6875 47.703125 
L 2.6875 54.6875 
L 9.28125 54.6875 
L 9.28125 70.21875 
z
" id="DejaVuSans-116"/>
        <path d="M 45.40625 46.390625 
L 45.40625 75.984375 
L 54.390625 75.984375 
L 54.390625 0 
L 45.40625 0 
L 45.40625 8.203125 
Q 42.578125 3.328125 38.25 0.953125 
Q 33.9375 -1.421875 27.875 -1.421875 
Q 17.96875 -1.421875 11.734375 6.484375 
Q 5.515625 14.40625 5.515625 27.296875 
Q 5.515625 40.1875 11.734375 48.09375 
Q 17.96875 56 27.875 56 
Q 33.9375 56 38.25 53.625 
Q 42.578125 51.265625 45.40625 46.390625 
z
M 14.796875 27.296875 
Q 14.796875 17.390625 18.875 11.75 
Q 22.953125 6.109375 30.078125 6.109375 
Q 37.203125 6.109375 41.296875 11.75 
Q 45.40625 17.390625 45.40625 27.296875 
Q 45.40625 37.203125 41.296875 42.84375 
Q 37.203125 48.484375 30.078125 48.484375 
Q 22.953125 48.484375 18.875 42.84375 
Q 14.796875 37.203125 14.796875 27.296875 
z
" id="DejaVuSans-100"/>
        <path d="M 50.984375 -16.609375 
L 50.984375 -23.578125 
L -0.984375 -23.578125 
L -0.984375 -16.609375 
z
" id="DejaVuSans-95"/>
        <path d="M 34.28125 27.484375 
Q 23.390625 27.484375 19.1875 25 
Q 14.984375 22.515625 14.984375 16.5 
Q 14.984375 11.71875 18.140625 8.90625 
Q 21.296875 6.109375 26.703125 6.109375 
Q 34.1875 6.109375 38.703125 11.40625 
Q 43.21875 16.703125 43.21875 25.484375 
L 43.21875 27.484375 
z
M 52.203125 31.203125 
L 52.203125 0 
L 43.21875 0 
L 43.21875 8.296875 
Q 40.140625 3.328125 35.546875 0.953125 
Q 30.953125 -1.421875 24.3125 -1.421875 
Q 15.921875 -1.421875 10.953125 3.296875 
Q 6 8.015625 6 15.921875 
Q 6 25.140625 12.171875 29.828125 
Q 18.359375 34.515625 30.609375 34.515625 
L 43.21875 34.515625 
L 43.21875 35.40625 
Q 43.21875 41.609375 39.140625 45 
Q 35.0625 48.390625 27.6875 48.390625 
Q 23 48.390625 18.546875 47.265625 
Q 14.109375 46.140625 10.015625 43.890625 
L 10.015625 52.203125 
Q 14.9375 54.109375 19.578125 55.046875 
Q 24.21875 56 28.609375 56 
Q 40.484375 56 46.34375 49.84375 
Q 52.203125 43.703125 52.203125 31.203125 
z
" id="DejaVuSans-97"/>
        <path d="M 9.421875 75.984375 
L 18.40625 75.984375 
L 18.40625 0 
L 9.421875 0 
z
" id="DejaVuSans-108"/>
        <path d="M 32.171875 -5.078125 
Q 28.375 -14.84375 24.75 -17.8125 
Q 21.140625 -20.796875 15.09375 -20.796875 
L 7.90625 -20.796875 
L 7.90625 -13.28125 
L 13.1875 -13.28125 
Q 16.890625 -13.28125 18.9375 -11.515625 
Q 21 -9.765625 23.484375 -3.21875 
L 25.09375 0.875 
L 2.984375 54.6875 
L 12.5 54.6875 
L 29.59375 11.921875 
L 46.6875 54.6875 
L 56.203125 54.6875 
z
" id="DejaVuSans-121"/>
       </defs>
       <use xlink:href="#DejaVuSans-105"/>
       <use x="27.783203" xlink:href="#DejaVuSans-110"/>
       <use x="91.162109" xlink:href="#DejaVuSans-115"/>
       <use x="143.261719" xlink:href="#DejaVuSans-101"/>
       <use x="204.785156" xlink:href="#DejaVuSans-114"/>
       <use x="245.898438" xlink:href="#DejaVuSans-116"/>
       <use x="285.107422" xlink:href="#DejaVuSans-101"/>
       <use x="346.630859" xlink:href="#DejaVuSans-100"/>
       <use x="410.107422" xlink:href="#DejaVuSans-95"/>
       <use x="460.107422" xlink:href="#DejaVuSans-101"/>
       <use x="521.630859" xlink:href="#DejaVuSans-97"/>
       <use x="582.910156" xlink:href="#DejaVuSans-114"/>
       <use x="624.023438" xlink:href="#DejaVuSans-108"/>
       <use x="651.806641" xlink:href="#DejaVuSans-121"/>
      </g>
     </g>
    </g>
    <g id="xtick_2">
     <g id="line2d_2">
      <g>
       <use style="stroke:#000000;stroke-width:1.875;" x="442.8" xlink:href="#m909bd7f14b" y="378"/>
      </g>
     </g>
     <g id="text_2">
      <!-- inserted_middle -->
      <g transform="translate(376.669805 403.037422)scale(0.165 -0.165)">
       <defs>
        <path d="M 52 44.1875 
Q 55.375 50.25 60.0625 53.125 
Q 64.75 56 71.09375 56 
Q 79.640625 56 84.28125 50.015625 
Q 88.921875 44.046875 88.921875 33.015625 
L 88.921875 0 
L 79.890625 0 
L 79.890625 32.71875 
Q 79.890625 40.578125 77.09375 44.375 
Q 74.3125 48.1875 68.609375 48.1875 
Q 61.625 48.1875 57.5625 43.546875 
Q 53.515625 38.921875 53.515625 30.90625 
L 53.515625 0 
L 44.484375 0 
L 44.484375 32.71875 
Q 44.484375 40.625 41.703125 44.40625 
Q 38.921875 48.1875 33.109375 48.1875 
Q 26.21875 48.1875 22.15625 43.53125 
Q 18.109375 38.875 18.109375 30.90625 
L 18.109375 0 
L 9.078125 0 
L 9.078125 54.6875 
L 18.109375 54.6875 
L 18.109375 46.1875 
Q 21.1875 51.21875 25.484375 53.609375 
Q 29.78125 56 35.6875 56 
Q 41.65625 56 45.828125 52.96875 
Q 50 49.953125 52 44.1875 
z
" id="DejaVuSans-109"/>
       </defs>
       <use xlink:href="#DejaVuSans-105"/>
       <use x="27.783203" xlink:href="#DejaVuSans-110"/>
       <use x="91.162109" xlink:href="#DejaVuSans-115"/>
       <use x="143.261719" xlink:href="#DejaVuSans-101"/>
       <use x="204.785156" xlink:href="#DejaVuSans-114"/>
       <use x="245.898438" xlink:href="#DejaVuSans-116"/>
       <use x="285.107422" xlink:href="#DejaVuSans-101"/>
       <use x="346.630859" xlink:href="#DejaVuSans-100"/>
       <use x="410.107422" xlink:href="#DejaVuSans-95"/>
       <use x="460.107422" xlink:href="#DejaVuSans-109"/>
       <use x="557.519531" xlink:href="#DejaVuSans-105"/>
       <use x="585.302734" xlink:href="#DejaVuSans-100"/>
       <use x="648.779297" xlink:href="#DejaVuSans-100"/>
       <use x="712.255859" xlink:href="#DejaVuSans-108"/>
       <use x="740.039062" xlink:href="#DejaVuSans-101"/>
      </g>
     </g>
    </g>
    <g id="xtick_3">
     <g id="line2d_3">
      <g>
       <use style="stroke:#000000;stroke-width:1.875;" x="666" xlink:href="#m909bd7f14b" y="378"/>
      </g>
     </g>
     <g id="text_3">
      <!-- inserted_late -->
      <g transform="translate(612.382734 403.037422)scale(0.165 -0.165)">
       <use xlink:href="#DejaVuSans-105"/>
       <use x="27.783203" xlink:href="#DejaVuSans-110"/>
       <use x="91.162109" xlink:href="#DejaVuSans-115"/>
       <use x="143.261719" xlink:href="#DejaVuSans-101"/>
       <use x="204.785156" xlink:href="#DejaVuSans-114"/>
       <use x="245.898438" xlink:href="#DejaVuSans-116"/>
       <use x="285.107422" xlink:href="#DejaVuSans-101"/>
       <use x="346.630859" xlink:href="#DejaVuSans-100"/>
       <use x="410.107422" xlink:href="#DejaVuSans-95"/>
       <use x="460.107422" xlink:href="#DejaVuSans-108"/>
       <use x="487.890625" xlink:href="#DejaVuSans-97"/>
       <use x="549.169922" xlink:href="#DejaVuSans-116"/>
       <use x="588.378906" xlink:href="#DejaVuSans-101"/>
      </g>
     </g>
    </g>
    <g id="text_4">
     <!-- condition -->
     <g transform="translate(401.187656 424.605)scale(0.18 -0.18)">
      <defs>
       <path d="M 48.78125 52.59375 
L 48.78125 44.1875 
Q 44.96875 46.296875 41.140625 47.34375 
Q 37.3125 48.390625 33.40625 48.390625 
Q 24.65625 48.390625 19.8125 42.84375 
Q 14.984375 37.3125 14.984375 27.296875 
Q 14.984375 17.28125 19.8125 11.734375 
Q 24.65625 6.203125 33.40625 6.203125 
Q 37.3125 6.203125 41.140625 7.25 
Q 44.96875 8.296875 48.78125 10.40625 
L 48.78125 2.09375 
Q 45.015625 0.34375 40.984375 -0.53125 
Q 36.96875 -1.421875 32.421875 -1.421875 
Q 20.0625 -1.421875 12.78125 6.34375 
Q 5.515625 14.109375 5.515625 27.296875 
Q 5.515625 40.671875 12.859375 48.328125 
Q 20.21875 56 33.015625 56 
Q 37.15625 56 41.109375 55.140625 
Q 45.0625 54.296875 48.78125 52.59375 
z
" id="DejaVuSans-99"/>
       <path d="M 30.609375 48.390625 
Q 23.390625 48.390625 19.1875 42.75 
Q 14.984375 37.109375 14.984375 27.296875 
Q 14.984375 17.484375 19.15625 11.84375 
Q 23.34375 6.203125 30.609375 6.203125 
Q 37.796875 6.203125 41.984375 11.859375 
Q 46.1875 17.53125 46.1875 27.296875 
Q 46.1875 37.015625 41.984375 42.703125 
Q 37.796875 48.390625 30.609375 48.390625 
z
M 30.609375 56 
Q 42.328125 56 49.015625 48.375 
Q 55.71875 40.765625 55.71875 27.296875 
Q 55.71875 13.875 49.015625 6.21875 
Q 42.328125 -1.421875 30.609375 -1.421875 
Q 18.84375 -1.421875 12.171875 6.21875 
Q 5.515625 13.875 5.515625 27.296875 
Q 5.515625 40.765625 12.171875 48.375 
Q 18.84375 56 30.609375 56 
z
" id="DejaVuSans-111"/>
      </defs>
      <use xlink:href="#DejaVuSans-99"/>
      <use x="54.980469" xlink:href="#DejaVuSans-111"/>
      <use x="116.162109" xlink:href="#DejaVuSans-110"/>
      <use x="179.541016" xlink:href="#DejaVuSans-100"/>
      <use x="243.017578" xlink:href="#DejaVuSans-105"/>
      <use x="270.800781" xlink:href="#DejaVuSans-116"/>
      <use x="310.009766" xlink:href="#DejaVuSans-105"/>
      <use x="337.792969" xlink:href="#DejaVuSans-111"/>
      <use x="398.974609" xlink:href="#DejaVuSans-110"/>
     </g>
    </g>
   </g>
   <g id="matplotlib.axis_2">
    <g id="ytick_1">
     <g id="line2d_4">
      <defs>
       <path d="M 0 0 
L -9 0 
" id="m502dc9e6ab" style="stroke:#000000;stroke-width:1.875;"/>
      </defs>
      <g>
       <use style="stroke:#000000;stroke-width:1.875;" x="108" xlink:href="#m502dc9e6ab" y="349.566893"/>
      </g>
     </g>
     <g id="text_5">
      <!-- 0.2 -->
      <g transform="translate(69.259844 355.835604)scale(0.165 -0.165)">
       <defs>
        <path d="M 31.78125 66.40625 
Q 24.171875 66.40625 20.328125 58.90625 
Q 16.5 51.421875 16.5 36.375 
Q 16.5 21.390625 20.328125 13.890625 
Q 24.171875 6.390625 31.78125 6.390625 
Q 39.453125 6.390625 43.28125 13.890625 
Q 47.125 21.390625 47.125 36.375 
Q 47.125 51.421875 43.28125 58.90625 
Q 39.453125 66.40625 31.78125 66.40625 
z
M 31.78125 74.21875 
Q 44.046875 74.21875 50.515625 64.515625 
Q 56.984375 54.828125 56.984375 36.375 
Q 56.984375 17.96875 50.515625 8.265625 
Q 44.046875 -1.421875 31.78125 -1.421875 
Q 19.53125 -1.421875 13.0625 8.265625 
Q 6.59375 17.96875 6.59375 36.375 
Q 6.59375 54.828125 13.0625 64.515625 
Q 19.53125 74.21875 31.78125 74.21875 
z
" id="DejaVuSans-48"/>
        <path d="M 10.6875 12.40625 
L 21 12.40625 
L 21 0 
L 10.6875 0 
z
" id="DejaVuSans-46"/>
        <path d="M 19.1875 8.296875 
L 53.609375 8.296875 
L 53.609375 0 
L 7.328125 0 
L 7.328125 8.296875 
Q 12.9375 14.109375 22.625 23.890625 
Q 32.328125 33.6875 34.8125 36.53125 
Q 39.546875 41.84375 41.421875 45.53125 
Q 43.3125 49.21875 43.3125 52.78125 
Q 43.3125 58.59375 39.234375 62.25 
Q 35.15625 65.921875 28.609375 65.921875 
Q 23.96875 65.921875 18.8125 64.3125 
Q 13.671875 62.703125 7.8125 59.421875 
L 7.8125 69.390625 
Q 13.765625 71.78125 18.9375 73 
Q 24.125 74.21875 28.421875 74.21875 
Q 39.75 74.21875 46.484375 68.546875 
Q 53.21875 62.890625 53.21875 53.421875 
Q 53.21875 48.921875 51.53125 44.890625 
Q 49.859375 40.875 45.40625 35.40625 
Q 44.1875 33.984375 37.640625 27.21875 
Q 31.109375 20.453125 19.1875 8.296875 
z
" id="DejaVuSans-50"/>
       </defs>
       <use xlink:href="#DejaVuSans-48"/>
       <use x="63.623047" xlink:href="#DejaVuSans-46"/>
       <use x="95.410156" xlink:href="#DejaVuSans-50"/>
      </g>
     </g>
    </g>
    <g id="ytick_2">
     <g id="line2d_5">
      <g>
       <use style="stroke:#000000;stroke-width:1.875;" x="108" xlink:href="#m502dc9e6ab" y="293.29655"/>
      </g>
     </g>
     <g id="text_6">
      <!-- 0.4 -->
      <g transform="translate(69.259844 299.565261)scale(0.165 -0.165)">
       <defs>
        <path d="M 37.796875 64.3125 
L 12.890625 25.390625 
L 37.796875 25.390625 
z
M 35.203125 72.90625 
L 47.609375 72.90625 
L 47.609375 25.390625 
L 58.015625 25.390625 
L 58.015625 17.1875 
L 47.609375 17.1875 
L 47.609375 0 
L 37.796875 0 
L 37.796875 17.1875 
L 4.890625 17.1875 
L 4.890625 26.703125 
z
" id="DejaVuSans-52"/>
       </defs>
       <use xlink:href="#DejaVuSans-48"/>
       <use x="63.623047" xlink:href="#DejaVuSans-46"/>
       <use x="95.410156" xlink:href="#DejaVuSans-52"/>
      </g>
     </g>
    </g>
    <g id="ytick_3">
     <g id="line2d_6">
      <g>
       <use style="stroke:#000000;stroke-width:1.875;" x="108" xlink:href="#m502dc9e6ab" y="237.026206"/>
      </g>
     </g>
     <g id="text_7">
      <!-- 0.6 -->
      <g transform="translate(69.259844 243.294917)scale(0.165 -0.165)">
       <defs>
        <path d="M 33.015625 40.375 
Q 26.375 40.375 22.484375 35.828125 
Q 18.609375 31.296875 18.609375 23.390625 
Q 18.609375 15.53125 22.484375 10.953125 
Q 26.375 6.390625 33.015625 6.390625 
Q 39.65625 6.390625 43.53125 10.953125 
Q 47.40625 15.53125 47.40625 23.390625 
Q 47.40625 31.296875 43.53125 35.828125 
Q 39.65625 40.375 33.015625 40.375 
z
M 52.59375 71.296875 
L 52.59375 62.3125 
Q 48.875 64.0625 45.09375 64.984375 
Q 41.3125 65.921875 37.59375 65.921875 
Q 27.828125 65.921875 22.671875 59.328125 
Q 17.53125 52.734375 16.796875 39.40625 
Q 19.671875 43.65625 24.015625 45.921875 
Q 28.375 48.1875 33.59375 48.1875 
Q 44.578125 48.1875 50.953125 41.515625 
Q 57.328125 34.859375 57.328125 23.390625 
Q 57.328125 12.15625 50.6875 5.359375 
Q 44.046875 -1.421875 33.015625 -1.421875 
Q 20.359375 -1.421875 13.671875 8.265625 
Q 6.984375 17.96875 6.984375 36.375 
Q 6.984375 53.65625 15.1875 63.9375 
Q 23.390625 74.21875 37.203125 74.21875 
Q 40.921875 74.21875 44.703125 73.484375 
Q 48.484375 72.75 52.59375 71.296875 
z
" id="DejaVuSans-54"/>
       </defs>
       <use xlink:href="#DejaVuSans-48"/>
       <use x="63.623047" xlink:href="#DejaVuSans-46"/>
       <use x="95.410156" xlink:href="#DejaVuSans-54"/>
      </g>
     </g>
    </g>
    <g id="ytick_4">
     <g id="line2d_7">
      <g>
       <use style="stroke:#000000;stroke-width:1.875;" x="108" xlink:href="#m502dc9e6ab" y="180.755863"/>
      </g>
     </g>
     <g id="text_8">
      <!-- 0.8 -->
      <g transform="translate(69.259844 187.024574)scale(0.165 -0.165)">
       <defs>
        <path d="M 31.78125 34.625 
Q 24.75 34.625 20.71875 30.859375 
Q 16.703125 27.09375 16.703125 20.515625 
Q 16.703125 13.921875 20.71875 10.15625 
Q 24.75 6.390625 31.78125 6.390625 
Q 38.8125 6.390625 42.859375 10.171875 
Q 46.921875 13.96875 46.921875 20.515625 
Q 46.921875 27.09375 42.890625 30.859375 
Q 38.875 34.625 31.78125 34.625 
z
M 21.921875 38.8125 
Q 15.578125 40.375 12.03125 44.71875 
Q 8.5 49.078125 8.5 55.328125 
Q 8.5 64.0625 14.71875 69.140625 
Q 20.953125 74.21875 31.78125 74.21875 
Q 42.671875 74.21875 48.875 69.140625 
Q 55.078125 64.0625 55.078125 55.328125 
Q 55.078125 49.078125 51.53125 44.71875 
Q 48 40.375 41.703125 38.8125 
Q 48.828125 37.15625 52.796875 32.3125 
Q 56.78125 27.484375 56.78125 20.515625 
Q 56.78125 9.90625 50.3125 4.234375 
Q 43.84375 -1.421875 31.78125 -1.421875 
Q 19.734375 -1.421875 13.25 4.234375 
Q 6.78125 9.90625 6.78125 20.515625 
Q 6.78125 27.484375 10.78125 32.3125 
Q 14.796875 37.15625 21.921875 38.8125 
z
M 18.3125 54.390625 
Q 18.3125 48.734375 21.84375 45.5625 
Q 25.390625 42.390625 31.78125 42.390625 
Q 38.140625 42.390625 41.71875 45.5625 
Q 45.3125 48.734375 45.3125 54.390625 
Q 45.3125 60.0625 41.71875 63.234375 
Q 38.140625 66.40625 31.78125 66.40625 
Q 25.390625 66.40625 21.84375 63.234375 
Q 18.3125 60.0625 18.3125 54.390625 
z
" id="DejaVuSans-56"/>
       </defs>
       <use xlink:href="#DejaVuSans-48"/>
       <use x="63.623047" xlink:href="#DejaVuSans-46"/>
       <use x="95.410156" xlink:href="#DejaVuSans-56"/>
      </g>
     </g>
    </g>
    <g id="ytick_5">
     <g id="line2d_8">
      <g>
       <use style="stroke:#000000;stroke-width:1.875;" x="108" xlink:href="#m502dc9e6ab" y="124.485519"/>
      </g>
     </g>
     <g id="text_9">
      <!-- 1.0 -->
      <g transform="translate(69.259844 130.75423)scale(0.165 -0.165)">
       <defs>
        <path d="M 12.40625 8.296875 
L 28.515625 8.296875 
L 28.515625 63.921875 
L 10.984375 60.40625 
L 10.984375 69.390625 
L 28.421875 72.90625 
L 38.28125 72.90625 
L 38.28125 8.296875 
L 54.390625 8.296875 
L 54.390625 0 
L 12.40625 0 
z
" id="DejaVuSans-49"/>
       </defs>
       <use xlink:href="#DejaVuSans-49"/>
       <use x="63.623047" xlink:href="#DejaVuSans-46"/>
       <use x="95.410156" xlink:href="#DejaVuSans-48"/>
      </g>
     </g>
    </g>
    <g id="ytick_6">
     <g id="line2d_9">
      <g>
       <use style="stroke:#000000;stroke-width:1.875;" x="108" xlink:href="#m502dc9e6ab" y="68.215176"/>
      </g>
     </g>
     <g id="text_10">
      <!-- 1.2 -->
      <g transform="translate(69.259844 74.483887)scale(0.165 -0.165)">
       <use xlink:href="#DejaVuSans-49"/>
       <use x="63.623047" xlink:href="#DejaVuSans-46"/>
       <use x="95.410156" xlink:href="#DejaVuSans-50"/>
      </g>
     </g>
    </g>
    <g id="text_11">
     <!-- prediction accuracy -->
     <g transform="translate(61.516406 303.537656)rotate(-90)scale(0.18 -0.18)">
      <defs>
       <path d="M 18.109375 8.203125 
L 18.109375 -20.796875 
L 9.078125 -20.796875 
L 9.078125 54.6875 
L 18.109375 54.6875 
L 18.109375 46.390625 
Q 20.953125 51.265625 25.265625 53.625 
Q 29.59375 56 35.59375 56 
Q 45.5625 56 51.78125 48.09375 
Q 58.015625 40.1875 58.015625 27.296875 
Q 58.015625 14.40625 51.78125 6.484375 
Q 45.5625 -1.421875 35.59375 -1.421875 
Q 29.59375 -1.421875 25.265625 0.953125 
Q 20.953125 3.328125 18.109375 8.203125 
z
M 48.6875 27.296875 
Q 48.6875 37.203125 44.609375 42.84375 
Q 40.53125 48.484375 33.40625 48.484375 
Q 26.265625 48.484375 22.1875 42.84375 
Q 18.109375 37.203125 18.109375 27.296875 
Q 18.109375 17.390625 22.1875 11.75 
Q 26.265625 6.109375 33.40625 6.109375 
Q 40.53125 6.109375 44.609375 11.75 
Q 48.6875 17.390625 48.6875 27.296875 
z
" id="DejaVuSans-112"/>
       <path id="DejaVuSans-32"/>
       <path d="M 8.5 21.578125 
L 8.5 54.6875 
L 17.484375 54.6875 
L 17.484375 21.921875 
Q 17.484375 14.15625 20.5 10.265625 
Q 23.53125 6.390625 29.59375 6.390625 
Q 36.859375 6.390625 41.078125 11.03125 
Q 45.3125 15.671875 45.3125 23.6875 
L 45.3125 54.6875 
L 54.296875 54.6875 
L 54.296875 0 
L 45.3125 0 
L 45.3125 8.40625 
Q 42.046875 3.421875 37.71875 1 
Q 33.40625 -1.421875 27.6875 -1.421875 
Q 18.265625 -1.421875 13.375 4.4375 
Q 8.5 10.296875 8.5 21.578125 
z
M 31.109375 56 
z
" id="DejaVuSans-117"/>
      </defs>
      <use xlink:href="#DejaVuSans-112"/>
      <use x="63.476562" xlink:href="#DejaVuSans-114"/>
      <use x="102.339844" xlink:href="#DejaVuSans-101"/>
      <use x="163.863281" xlink:href="#DejaVuSans-100"/>
      <use x="227.339844" xlink:href="#DejaVuSans-105"/>
      <use x="255.123047" xlink:href="#DejaVuSans-99"/>
      <use x="310.103516" xlink:href="#DejaVuSans-116"/>
      <use x="349.3125" xlink:href="#DejaVuSans-105"/>
      <use x="377.095703" xlink:href="#DejaVuSans-111"/>
      <use x="438.277344" xlink:href="#DejaVuSans-110"/>
      <use x="501.65625" xlink:href="#DejaVuSans-32"/>
      <use x="533.443359" xlink:href="#DejaVuSans-97"/>
      <use x="594.722656" xlink:href="#DejaVuSans-99"/>
      <use x="649.703125" xlink:href="#DejaVuSans-99"/>
      <use x="704.683594" xlink:href="#DejaVuSans-117"/>
      <use x="768.0625" xlink:href="#DejaVuSans-114"/>
      <use x="809.175781" xlink:href="#DejaVuSans-97"/>
      <use x="870.455078" xlink:href="#DejaVuSans-99"/>
      <use x="925.435547" xlink:href="#DejaVuSans-121"/>
     </g>
    </g>
   </g>
   <g id="line2d_10">
    <path clip-path="url(#p9d18806dc3)" d="M 219.6 305.354481 
L 219.6 124.485519 
" style="fill:none;stroke:#3d3d3d;stroke-linecap:square;stroke-width:2.25;"/>
   </g>
   <g id="line2d_11">
    <path clip-path="url(#p9d18806dc3)" d="M 219.6 265.161378 
L 219.6 136.286774 
" style="fill:none;stroke:#3d3d3d;stroke-linecap:square;stroke-width:6.75;"/>
   </g>
   <g id="line2d_12">
    <path clip-path="url(#p9d18806dc3)" d="M 442.8 306.282014 
L 442.8 168.446725 
" style="fill:none;stroke:#3d3d3d;stroke-linecap:square;stroke-width:2.25;"/>
   </g>
   <g id="line2d_13">
    <path clip-path="url(#p9d18806dc3)" d="M 442.8 272.377134 
L 442.8 229.217504 
" style="fill:none;stroke:#3d3d3d;stroke-linecap:square;stroke-width:6.75;"/>
   </g>
   <g id="line2d_14">
    <path clip-path="url(#p9d18806dc3)" d="M 666 292.456694 
L 666 124.485519 
" style="fill:none;stroke:#3d3d3d;stroke-linecap:square;stroke-width:2.25;"/>
   </g>
   <g id="line2d_15">
    <path clip-path="url(#p9d18806dc3)" d="M 666 275.782205 
L 666 183.478621 
" style="fill:none;stroke:#3d3d3d;stroke-linecap:square;stroke-width:6.75;"/>
   </g>
   <g id="patch_3">
    <path d="M 108 378 
L 108 51.84 
" style="fill:none;stroke:#000000;stroke-linecap:square;stroke-linejoin:miter;stroke-width:1.875;"/>
   </g>
   <g id="patch_4">
    <path d="M 777.6 378 
L 777.6 51.84 
" style="fill:none;stroke:#000000;stroke-linecap:square;stroke-linejoin:miter;stroke-width:1.875;"/>
   </g>
   <g id="patch_5">
    <path d="M 108 378 
L 777.6 378 
" style="fill:none;stroke:#000000;stroke-linecap:square;stroke-linejoin:miter;stroke-width:1.875;"/>
   </g>
   <g id="patch_6">
    <path d="M 108 51.84 
L 777.6 51.84 
" style="fill:none;stroke:#000000;stroke-linecap:square;stroke-linejoin:miter;stroke-width:1.875;"/>
   </g>
   <g id="PathCollection_1">
    <defs>
     <path d="M 0 2.25 
C 0.596707 2.25 1.169055 2.012926 1.59099 1.59099 
C 2.012926 1.169055 2.25 0.596707 2.25 0 
C 2.25 -0.596707 2.012926 -1.169055 1.59099 -1.59099 
C 1.169055 -2.012926 0.596707 -2.25 0 -2.25 
C -0.596707 -2.25 -1.169055 -2.012926 -1.59099 -1.59099 
C -2.012926 -1.169055 -2.25 -0.596707 -2.25 0 
C -2.25 0.596707 -2.012926 1.169055 -1.59099 1.59099 
C -1.169055 2.012926 -0.596707 2.25 0 2.25 
z
" id="m4782b44f1a" style="stroke:#3d3d3d;stroke-width:1.5;"/>
    </defs>
    <g clip-path="url(#p9d18806dc3)">
     <use style="fill:#ffffff;stroke:#3d3d3d;stroke-width:1.5;" x="219.6" xlink:href="#m4782b44f1a" y="215.09031"/>
    </g>
   </g>
   <g id="PathCollection_2">
    <g clip-path="url(#p9d18806dc3)">
     <use style="fill:#ffffff;stroke:#3d3d3d;stroke-width:1.5;" x="442.8" xlink:href="#m4782b44f1a" y="251.580649"/>
    </g>
   </g>
   <g id="PathCollection_3">
    <g clip-path="url(#p9d18806dc3)">
     <use style="fill:#ffffff;stroke:#3d3d3d;stroke-width:1.5;" x="666" xlink:href="#m4782b44f1a" y="260.765258"/>
    </g>
   </g>
  </g>
 </g>
 <defs>
  <clipPath id="p9d18806dc3">
   <rect height="326.16" width="669.6" x="108" y="51.84"/>
  </clipPath>
 </defs>
</svg>
