<?xml version="1.0" encoding="utf-8" standalone="no"?>
<!DOCTYPE svg PUBLIC "-//W3C//DTD SVG 1.1//EN"
  "http://www.w3.org/Graphics/SVG/1.1/DTD/svg11.dtd">
<svg xmlns:xlink="http://www.w3.org/1999/xlink" width="864pt" height="432pt" viewBox="0 0 864 432" xmlns="http://www.w3.org/2000/svg" version="1.1">
 <metadata>
  <rdf:RDF xmlns:dc="http://purl.org/dc/elements/1.1/" xmlns:cc="http://creativecommons.org/ns#" xmlns:rdf="http://www.w3.org/1999/02/22-rdf-syntax-ns#">
   <cc:Work>
    <dc:type rdf:resource="http://purl.org/dc/dcmitype/StillImage"/>
    <dc:date>2023-05-02T17:33:02.192198</dc:date>
    <dc:format>image/svg+xml</dc:format>
    <dc:creator>
     <cc:Agent>
      <dc:title>Matplotlib v3.5.1, https://matplotlib.org/</dc:title>
     </cc:Agent>
    </dc:creator>
   </cc:Work>
  </rdf:RDF>
 </metadata>
 <defs>
  <style type="text/css">*{stroke-linejoin: round; stroke-linecap: butt}</style>
 </defs>
 <g id="figure_1">
  <g id="patch_1">
   <path d="M 0 432 
L 864 432 
L 864 0 
L 0 0 
L 0 432 
z
" style="fill: none"/>
  </g>
  <g id="axes_1">
   <g id="patch_2">
    <path d="M 108 378 
L 777.6 378 
L 777.6 51.84 
L 108 51.84 
z
" style="fill: #ffffff"/>
   </g>
   <g id="PolyCollection_1">
    <defs>
     <path id="m1208636369" d="M 138.436364 -222.856151 
L 138.436364 -173.651901 
L 141.48 -220.716836 
L 144.523636 -245.263807 
L 147.567273 -256.312755 
L 150.610909 -271.366968 
L 153.654545 -270.532319 
L 156.698182 -262.273455 
L 159.741818 -267.099011 
L 162.785455 -271.409305 
L 165.829091 -288.461818 
L 168.872727 -282.234397 
L 171.916364 -292.564915 
L 174.96 -288.461818 
L 178.003636 -288.701334 
L 181.047273 -266.498182 
L 184.090909 -294.737143 
L 187.134545 -283.600651 
L 190.178182 -285.644197 
L 193.221818 -290.842114 
L 196.265455 -253.699228 
L 199.309091 -270.532319 
L 202.352727 -287.99351 
L 205.396364 -285.03 
L 208.44 -273.014865 
L 211.483636 -294.737143 
L 214.527273 -303.457998 
L 217.570909 -295.592869 
L 220.614545 -310.873692 
L 223.658182 -278.078187 
L 226.701818 -301.056749 
L 229.745455 -292.789628 
L 232.789091 -295.203903 
L 235.832727 -298.530436 
L 238.876364 -294.29933 
L 241.92 -286.500779 
L 244.963636 -287.99351 
L 248.007273 -298.566155 
L 251.050909 -293.448869 
L 254.094545 -299.081598 
L 257.138182 -298.77128 
L 260.181818 -138.87559 
L 263.225455 -207.943866 
L 266.269091 -236.167446 
L 269.312727 -295.137695 
L 272.356364 -274.778779 
L 275.4 -295.137695 
L 278.443636 -276.786796 
L 281.487273 -290.218909 
L 284.530909 -291.255627 
L 287.574545 -274.199717 
L 290.618182 -265.888708 
L 293.661818 -287.46508 
L 296.705455 -284.172927 
L 299.749091 -310.289034 
L 302.792727 -291.764621 
L 305.836364 -280.617662 
L 308.88 -263.652395 
L 311.923636 -289.377924 
L 314.967273 -268.409089 
L 318.010909 -249.369632 
L 321.054545 -268.67041 
L 324.098182 -284.770451 
L 327.141818 -275.501909 
L 330.185455 -276.412964 
L 333.229091 -262.968312 
L 336.272727 -266.285859 
L 339.316364 -283.353996 
L 342.36 -282.823831 
L 345.403636 -280.617662 
L 348.447273 -283.36821 
L 351.490909 -283.876004 
L 354.534545 -277.359321 
L 357.578182 -294.262538 
L 360.621818 -282.098727 
L 363.665455 -303.002205 
L 366.709091 -287.779718 
L 369.752727 -301.145985 
L 372.796364 -261.986318 
L 375.84 -277.359321 
L 378.883636 -285.03 
L 381.927273 -223.467384 
L 384.970909 -271.456167 
L 388.014545 -269.680037 
L 391.058182 -281.640813 
L 394.101818 -287.677403 
L 397.145455 -283.2717 
L 400.189091 -275.767459 
L 403.232727 -275.451999 
L 406.276364 -283.052056 
L 409.32 -284.881935 
L 412.363636 -295.137695 
L 415.407273 -274.38848 
L 418.450909 -293.584532 
L 421.494545 -275.451999 
L 424.538182 -296.828918 
L 427.581818 -275.911169 
L 430.625455 -297.426568 
L 433.669091 -273.014865 
L 436.712727 -287.821479 
L 439.756364 -301.606079 
L 442.8 -285.886125 
L 445.843636 -292.478026 
L 448.887273 -284.896293 
L 451.930909 -295.168272 
L 454.974545 -288.461818 
L 458.018182 -284.53974 
L 461.061818 -277.634673 
L 464.105455 -282.180506 
L 467.149091 -292.870104 
L 470.192727 -261.310342 
L 473.236364 -279.531548 
L 476.28 -290.703006 
L 479.323636 -273.314483 
L 482.367273 -267.144876 
L 485.410909 -275.501909 
L 488.454545 -298.992329 
L 491.498182 -285.201909 
L 494.541818 -286.370043 
L 497.585455 -296.362407 
L 500.629091 -285.760519 
L 503.672727 -239.121479 
L 506.716364 -267.691377 
L 509.76 -263.652395 
L 512.803636 -231.830839 
L 515.847273 -275.450751 
L 518.890909 -284.635401 
L 521.934545 -267.380649 
L 524.978182 -278.078187 
L 528.021818 -292.944193 
L 531.065455 -301.012468 
L 534.109091 -295.111169 
L 537.152727 -276.464874 
L 540.196364 -293.5004 
L 543.24 -292.110263 
L 546.283636 -287.732129 
L 549.327273 -290.553593 
L 552.370909 -262.968312 
L 555.414545 -282.756978 
L 558.458182 -283.121116 
L 561.501818 -280.617662 
L 564.545455 -260.942976 
L 567.589091 -286.220631 
L 570.632727 -287.51816 
L 573.676364 -273.657355 
L 576.72 -269.230984 
L 579.763636 -282.970909 
L 582.807273 -274.405091 
L 585.850909 -273.1073 
L 588.894545 -289.826019 
L 591.938182 -285.39493 
L 594.981818 -279.02524 
L 598.025455 -277.838237 
L 601.069091 -266.704306 
L 604.112727 -271.134429 
L 607.156364 -280.617662 
L 610.2 -282.186494 
L 613.243636 -286.048232 
L 616.287273 -264.325954 
L 619.330909 -277.255881 
L 622.374545 -268.409089 
L 625.418182 -260.520592 
L 628.461818 -238.259221 
L 631.505455 -274.597729 
L 634.549091 -251.813922 
L 637.592727 -264.864523 
L 640.636364 -264.441407 
L 643.68 -259.22451 
L 646.723636 -253.195531 
L 649.767273 -258.490118 
L 652.810909 -264.98923 
L 655.854545 -253.699228 
L 658.898182 -265.642456 
L 661.941818 -253.195531 
L 664.985455 -275.132787 
L 668.029091 -259.681881 
L 671.072727 -259.981499 
L 674.116364 -277.255881 
L 677.16 -278.002944 
L 680.203636 -272.773506 
L 683.247273 -283.687115 
L 686.290909 -271.50832 
L 689.334545 -275.646014 
L 692.378182 -262.848248 
L 695.421818 -277.456585 
L 698.465455 -240.807097 
L 701.509091 -280.617662 
L 704.552727 -250.502686 
L 707.596364 -251.937468 
L 710.64 -269.470704 
L 713.683636 -254.073039 
L 716.727273 -262.530724 
L 719.770909 -278.975862 
L 722.814545 -268.159297 
L 725.858182 -272.224964 
L 728.901818 -270.826782 
L 731.945455 -262.779693 
L 734.989091 -263.50314 
L 738.032727 -288.202507 
L 741.076364 -274.949258 
L 744.12 -275.911169 
L 744.12 -315.916364 
L 744.12 -315.916364 
L 741.076364 -310.041835 
L 738.032727 -323.209484 
L 734.989091 -302.010815 
L 731.945455 -303.790856 
L 728.901818 -309.990304 
L 725.858182 -307.770509 
L 722.814545 -307.610787 
L 719.770909 -316.189997 
L 716.727273 -304.539096 
L 713.683636 -296.99626 
L 710.64 -309.166261 
L 707.596364 -298.267013 
L 704.552727 -293.996611 
L 701.509091 -316.986021 
L 698.465455 -283.324781 
L 695.421818 -313.334817 
L 692.378182 -303.189621 
L 689.334545 -313.43054 
L 686.290909 -312.50036 
L 683.247273 -318.525398 
L 680.203636 -313.114879 
L 677.16 -315.654892 
L 674.116364 -317.597254 
L 671.072727 -303.426054 
L 668.029091 -296.684657 
L 664.985455 -312.114965 
L 661.941818 -297.596046 
L 658.898182 -304.15013 
L 655.854545 -294.330827 
L 652.810909 -305.946501 
L 649.767273 -300.637821 
L 646.723636 -295.203903 
L 643.68 -299.871499 
L 640.636364 -304.52072 
L 637.592727 -306.872895 
L 634.549091 -294.737143 
L 631.505455 -314.00093 
L 628.461818 -281.153229 
L 625.418182 -301.745352 
L 622.374545 -308.750462 
L 619.330909 -315.356067 
L 616.287273 -301.308132 
L 613.243636 -320.803876 
L 610.2 -317.746667 
L 607.156364 -316.924898 
L 604.112727 -309.120047 
L 601.069091 -305.867828 
L 598.025455 -315.69401 
L 594.981818 -317.243382 
L 591.938182 -319.366613 
L 588.894545 -322.566844 
L 585.850909 -311.159801 
L 582.807273 -315.069195 
L 579.763636 -320.622857 
L 576.72 -310.223025 
L 573.676364 -311.44188 
L 570.632727 -321.489843 
L 567.589091 -322.079629 
L 564.545455 -302.664884 
L 561.501818 -316.986021 
L 558.458182 -317.168091 
L 555.414545 -319.125336 
L 552.370909 -302.679351 
L 549.327273 -324.021991 
L 546.283636 -324.946264 
L 543.24 -327.135331 
L 540.196364 -326.480209 
L 537.152727 -313.891879 
L 534.109091 -326.903377 
L 531.065455 -330.297316 
L 528.021818 -326.562004 
L 524.978182 -314.646626 
L 521.934545 -307.091688 
L 518.890909 -321.369009 
L 515.847273 -312.335336 
L 512.803636 -282.33955 
L 509.76 -305.244663 
L 506.716364 -307.464562 
L 503.672727 -282.234397 
L 500.629091 -319.422857 
L 497.585455 -326.836106 
L 494.541818 -321.930216 
L 491.498182 -320.042186 
L 488.454545 -329.939135 
L 485.410909 -314.381637 
L 482.367273 -308.102147 
L 479.323636 -312.264774 
L 476.28 -326.562004 
L 473.236364 -318.631648 
L 470.192727 -304.15013 
L 467.149091 -327.877081 
L 464.105455 -318.880377 
L 461.061818 -313.43054 
L 458.018182 -319.838442 
L 454.974545 -321.799481 
L 451.930909 -327.50296 
L 448.887273 -321.264652 
L 445.843636 -326.364779 
L 442.8 -319.604288 
L 439.756364 -330.226648 
L 436.712727 -320.478781 
L 433.669091 -309.942737 
L 430.625455 -328.803191 
L 427.581818 -313.563117 
L 424.538182 -330.297316 
L 421.494545 -314.481457 
L 418.450909 -326.241834 
L 415.407273 -313.839969 
L 412.363636 -325.179143 
L 409.32 -318.996116 
L 406.276364 -319.567953 
L 403.232727 -314.481457 
L 400.189091 -312.413439 
L 397.145455 -319.366613 
L 394.101818 -322.976104 
L 391.058182 -318.474241 
L 388.014545 -305.475903 
L 384.970909 -312.413439 
L 381.927273 -270.532319 
L 378.883636 -320.328701 
L 375.84 -318.631648 
L 372.796364 -302.380771 
L 369.752727 -331.187433 
L 366.709091 -322.618001 
L 363.665455 -332.848261 
L 360.621818 -317.644272 
L 357.578182 -329.857868 
L 354.534545 -316.459421 
L 351.490909 -318.631648 
L 348.447273 -316.374788 
L 345.403636 -315.916364 
L 342.36 -320.328701 
L 339.316364 -320.56813 
L 336.272727 -306.627232 
L 333.229091 -304.885519 
L 330.185455 -313.839969 
L 327.141818 -312.335336 
L 324.098182 -320.069152 
L 321.054545 -307.770509 
L 318.010909 -293.348341 
L 314.967273 -308.750462 
L 311.923636 -322.357732 
L 308.88 -305.244663 
L 305.836364 -320.622857 
L 302.792727 -325.736303 
L 299.749091 -336.890954 
L 296.705455 -316.678206 
L 293.661818 -321.489843 
L 290.618182 -306.520306 
L 287.574545 -312.707391 
L 284.530909 -324.136609 
L 281.487273 -324.105662 
L 278.443636 -314.00093 
L 275.4 -327.181907 
L 272.356364 -310.873692 
L 269.312727 -327.181907 
L 266.269091 -280.094719 
L 263.225455 -253.624538 
L 260.181818 -182.656925 
L 257.138182 -331.044378 
L 254.094545 -331.665015 
L 251.050909 -324.418971 
L 248.007273 -332.070007 
L 244.963636 -321.711673 
L 241.92 -317.877403 
L 238.876364 -329.324397 
L 235.832727 -330.141213 
L 232.789091 -330.210879 
L 229.745455 -323.949861 
L 226.701818 -330.719045 
L 223.658182 -314.646626 
L 220.614545 -338.475684 
L 217.570909 -327.682597 
L 214.527273 -334.603911 
L 211.483636 -327.320559 
L 208.44 -312.114965 
L 205.396364 -320.328701 
L 202.352727 -323.819058 
L 199.309091 -308.856623 
L 196.265455 -294.330827 
L 193.221818 -323.949861 
L 190.178182 -321.846545 
L 187.134545 -319.396517 
L 184.090909 -327.010241 
L 181.047273 -304.822486 
L 178.003636 -323.191668 
L 174.96 -323.760519 
L 171.916364 -325.148332 
L 168.872727 -318.880377 
L 165.829091 -321.799481 
L 162.785455 -308.242733 
L 159.741818 -305.151511 
L 156.698182 -304.52072 
L 153.654545 -313.246714 
L 150.610909 -310.317259 
L 147.567273 -297.323918 
L 144.523636 -289.442338 
L 141.48 -265.642456 
L 138.436364 -222.856151 
z
" style="stroke: #1f77b4; stroke-opacity: 0.2; stroke-width: 1.5"/>
    </defs>
    <g clip-path="url(#p262584e655)">
     <use xlink:href="#m1208636369" x="0" y="432" style="fill: #1f77b4; fill-opacity: 0.2; stroke: #1f77b4; stroke-opacity: 0.2; stroke-width: 1.5"/>
    </g>
   </g>
   <g id="PolyCollection_2">
    <defs>
     <path id="mb22e1366bc" d="M 138.436364 -365.334545 
L 138.436364 -68.825455 
L 141.48 -68.825455 
L 144.523636 -68.825455 
L 147.567273 -68.825455 
L 150.610909 -68.825455 
L 153.654545 -68.825455 
L 156.698182 -68.825455 
L 159.741818 -68.825455 
L 162.785455 -68.825455 
L 165.829091 -68.825455 
L 168.872727 -68.825455 
L 171.916364 -68.825455 
L 174.96 -68.825455 
L 178.003636 -68.825455 
L 181.047273 -68.825455 
L 184.090909 -68.825455 
L 187.134545 -68.825455 
L 190.178182 -68.825455 
L 193.221818 -68.825455 
L 196.265455 -68.825455 
L 199.309091 -68.825455 
L 202.352727 -68.825455 
L 205.396364 -68.825455 
L 208.44 -68.825455 
L 211.483636 -68.825455 
L 214.527273 -68.825455 
L 217.570909 -68.825455 
L 220.614545 -68.825455 
L 223.658182 -68.825455 
L 226.701818 -68.825455 
L 229.745455 -68.825455 
L 232.789091 -68.825455 
L 235.832727 -68.825455 
L 238.876364 -68.825455 
L 241.92 -68.825455 
L 244.963636 -68.825455 
L 248.007273 -68.825455 
L 251.050909 -68.825455 
L 254.094545 -68.825455 
L 257.138182 -68.825455 
L 260.181818 -68.825455 
L 260.181818 -365.334545 
L 260.181818 -365.334545 
L 257.138182 -365.334545 
L 254.094545 -365.334545 
L 251.050909 -365.334545 
L 248.007273 -365.334545 
L 244.963636 -365.334545 
L 241.92 -365.334545 
L 238.876364 -365.334545 
L 235.832727 -365.334545 
L 232.789091 -365.334545 
L 229.745455 -365.334545 
L 226.701818 -365.334545 
L 223.658182 -365.334545 
L 220.614545 -365.334545 
L 217.570909 -365.334545 
L 214.527273 -365.334545 
L 211.483636 -365.334545 
L 208.44 -365.334545 
L 205.396364 -365.334545 
L 202.352727 -365.334545 
L 199.309091 -365.334545 
L 196.265455 -365.334545 
L 193.221818 -365.334545 
L 190.178182 -365.334545 
L 187.134545 -365.334545 
L 184.090909 -365.334545 
L 181.047273 -365.334545 
L 178.003636 -365.334545 
L 174.96 -365.334545 
L 171.916364 -365.334545 
L 168.872727 -365.334545 
L 165.829091 -365.334545 
L 162.785455 -365.334545 
L 159.741818 -365.334545 
L 156.698182 -365.334545 
L 153.654545 -365.334545 
L 150.610909 -365.334545 
L 147.567273 -365.334545 
L 144.523636 -365.334545 
L 141.48 -365.334545 
L 138.436364 -365.334545 
z
" style="stroke: #008000; stroke-opacity: 0.2; stroke-width: 1.5"/>
    </defs>
    <g clip-path="url(#p262584e655)">
     <use xlink:href="#mb22e1366bc" x="0" y="432" style="fill: #008000; fill-opacity: 0.2; stroke: #008000; stroke-opacity: 0.2; stroke-width: 1.5"/>
    </g>
   </g>
   <g id="PolyCollection_3">
    <defs>
     <path id="mf132b66c7a" d="M 260.181818 -365.334545 
L 260.181818 -68.825455 
L 263.225455 -68.825455 
L 266.269091 -68.825455 
L 269.312727 -68.825455 
L 272.356364 -68.825455 
L 275.4 -68.825455 
L 278.443636 -68.825455 
L 281.487273 -68.825455 
L 284.530909 -68.825455 
L 287.574545 -68.825455 
L 290.618182 -68.825455 
L 293.661818 -68.825455 
L 296.705455 -68.825455 
L 299.749091 -68.825455 
L 302.792727 -68.825455 
L 305.836364 -68.825455 
L 308.88 -68.825455 
L 311.923636 -68.825455 
L 314.967273 -68.825455 
L 318.010909 -68.825455 
L 321.054545 -68.825455 
L 324.098182 -68.825455 
L 327.141818 -68.825455 
L 330.185455 -68.825455 
L 333.229091 -68.825455 
L 336.272727 -68.825455 
L 339.316364 -68.825455 
L 342.36 -68.825455 
L 345.403636 -68.825455 
L 348.447273 -68.825455 
L 351.490909 -68.825455 
L 354.534545 -68.825455 
L 357.578182 -68.825455 
L 360.621818 -68.825455 
L 363.665455 -68.825455 
L 366.709091 -68.825455 
L 369.752727 -68.825455 
L 372.796364 -68.825455 
L 375.84 -68.825455 
L 378.883636 -68.825455 
L 381.927273 -68.825455 
L 381.927273 -365.334545 
L 381.927273 -365.334545 
L 378.883636 -365.334545 
L 375.84 -365.334545 
L 372.796364 -365.334545 
L 369.752727 -365.334545 
L 366.709091 -365.334545 
L 363.665455 -365.334545 
L 360.621818 -365.334545 
L 357.578182 -365.334545 
L 354.534545 -365.334545 
L 351.490909 -365.334545 
L 348.447273 -365.334545 
L 345.403636 -365.334545 
L 342.36 -365.334545 
L 339.316364 -365.334545 
L 336.272727 -365.334545 
L 333.229091 -365.334545 
L 330.185455 -365.334545 
L 327.141818 -365.334545 
L 324.098182 -365.334545 
L 321.054545 -365.334545 
L 318.010909 -365.334545 
L 314.967273 -365.334545 
L 311.923636 -365.334545 
L 308.88 -365.334545 
L 305.836364 -365.334545 
L 302.792727 -365.334545 
L 299.749091 -365.334545 
L 296.705455 -365.334545 
L 293.661818 -365.334545 
L 290.618182 -365.334545 
L 287.574545 -365.334545 
L 284.530909 -365.334545 
L 281.487273 -365.334545 
L 278.443636 -365.334545 
L 275.4 -365.334545 
L 272.356364 -365.334545 
L 269.312727 -365.334545 
L 266.269091 -365.334545 
L 263.225455 -365.334545 
L 260.181818 -365.334545 
z
" style="stroke: #0000ff; stroke-opacity: 0.2; stroke-width: 1.5"/>
    </defs>
    <g clip-path="url(#p262584e655)">
     <use xlink:href="#mf132b66c7a" x="0" y="432" style="fill: #0000ff; fill-opacity: 0.2; stroke: #0000ff; stroke-opacity: 0.2; stroke-width: 1.5"/>
    </g>
   </g>
   <g id="PolyCollection_4">
    <defs>
     <path id="m32edf3daae" d="M 381.927273 -365.334545 
L 381.927273 -68.825455 
L 384.970909 -68.825455 
L 388.014545 -68.825455 
L 391.058182 -68.825455 
L 394.101818 -68.825455 
L 397.145455 -68.825455 
L 400.189091 -68.825455 
L 403.232727 -68.825455 
L 406.276364 -68.825455 
L 409.32 -68.825455 
L 412.363636 -68.825455 
L 415.407273 -68.825455 
L 418.450909 -68.825455 
L 421.494545 -68.825455 
L 424.538182 -68.825455 
L 427.581818 -68.825455 
L 430.625455 -68.825455 
L 433.669091 -68.825455 
L 436.712727 -68.825455 
L 439.756364 -68.825455 
L 442.8 -68.825455 
L 445.843636 -68.825455 
L 448.887273 -68.825455 
L 451.930909 -68.825455 
L 454.974545 -68.825455 
L 458.018182 -68.825455 
L 461.061818 -68.825455 
L 464.105455 -68.825455 
L 467.149091 -68.825455 
L 470.192727 -68.825455 
L 473.236364 -68.825455 
L 476.28 -68.825455 
L 479.323636 -68.825455 
L 482.367273 -68.825455 
L 485.410909 -68.825455 
L 488.454545 -68.825455 
L 491.498182 -68.825455 
L 494.541818 -68.825455 
L 497.585455 -68.825455 
L 500.629091 -68.825455 
L 503.672727 -68.825455 
L 503.672727 -365.334545 
L 503.672727 -365.334545 
L 500.629091 -365.334545 
L 497.585455 -365.334545 
L 494.541818 -365.334545 
L 491.498182 -365.334545 
L 488.454545 -365.334545 
L 485.410909 -365.334545 
L 482.367273 -365.334545 
L 479.323636 -365.334545 
L 476.28 -365.334545 
L 473.236364 -365.334545 
L 470.192727 -365.334545 
L 467.149091 -365.334545 
L 464.105455 -365.334545 
L 461.061818 -365.334545 
L 458.018182 -365.334545 
L 454.974545 -365.334545 
L 451.930909 -365.334545 
L 448.887273 -365.334545 
L 445.843636 -365.334545 
L 442.8 -365.334545 
L 439.756364 -365.334545 
L 436.712727 -365.334545 
L 433.669091 -365.334545 
L 430.625455 -365.334545 
L 427.581818 -365.334545 
L 424.538182 -365.334545 
L 421.494545 -365.334545 
L 418.450909 -365.334545 
L 415.407273 -365.334545 
L 412.363636 -365.334545 
L 409.32 -365.334545 
L 406.276364 -365.334545 
L 403.232727 -365.334545 
L 400.189091 -365.334545 
L 397.145455 -365.334545 
L 394.101818 -365.334545 
L 391.058182 -365.334545 
L 388.014545 -365.334545 
L 384.970909 -365.334545 
L 381.927273 -365.334545 
z
" style="stroke: #008000; stroke-opacity: 0.2; stroke-width: 1.5"/>
    </defs>
    <g clip-path="url(#p262584e655)">
     <use xlink:href="#m32edf3daae" x="0" y="432" style="fill: #008000; fill-opacity: 0.2; stroke: #008000; stroke-opacity: 0.2; stroke-width: 1.5"/>
    </g>
   </g>
   <g id="PolyCollection_5">
    <defs>
     <path id="m84f9db29de" d="M 503.672727 -365.334545 
L 503.672727 -68.825455 
L 506.716364 -68.825455 
L 509.76 -68.825455 
L 512.803636 -68.825455 
L 515.847273 -68.825455 
L 518.890909 -68.825455 
L 521.934545 -68.825455 
L 524.978182 -68.825455 
L 528.021818 -68.825455 
L 531.065455 -68.825455 
L 534.109091 -68.825455 
L 537.152727 -68.825455 
L 540.196364 -68.825455 
L 543.24 -68.825455 
L 546.283636 -68.825455 
L 549.327273 -68.825455 
L 552.370909 -68.825455 
L 555.414545 -68.825455 
L 558.458182 -68.825455 
L 561.501818 -68.825455 
L 564.545455 -68.825455 
L 567.589091 -68.825455 
L 570.632727 -68.825455 
L 573.676364 -68.825455 
L 576.72 -68.825455 
L 579.763636 -68.825455 
L 582.807273 -68.825455 
L 585.850909 -68.825455 
L 588.894545 -68.825455 
L 591.938182 -68.825455 
L 594.981818 -68.825455 
L 598.025455 -68.825455 
L 601.069091 -68.825455 
L 604.112727 -68.825455 
L 607.156364 -68.825455 
L 610.2 -68.825455 
L 613.243636 -68.825455 
L 616.287273 -68.825455 
L 619.330909 -68.825455 
L 622.374545 -68.825455 
L 625.418182 -68.825455 
L 625.418182 -365.334545 
L 625.418182 -365.334545 
L 622.374545 -365.334545 
L 619.330909 -365.334545 
L 616.287273 -365.334545 
L 613.243636 -365.334545 
L 610.2 -365.334545 
L 607.156364 -365.334545 
L 604.112727 -365.334545 
L 601.069091 -365.334545 
L 598.025455 -365.334545 
L 594.981818 -365.334545 
L 591.938182 -365.334545 
L 588.894545 -365.334545 
L 585.850909 -365.334545 
L 582.807273 -365.334545 
L 579.763636 -365.334545 
L 576.72 -365.334545 
L 573.676364 -365.334545 
L 570.632727 -365.334545 
L 567.589091 -365.334545 
L 564.545455 -365.334545 
L 561.501818 -365.334545 
L 558.458182 -365.334545 
L 555.414545 -365.334545 
L 552.370909 -365.334545 
L 549.327273 -365.334545 
L 546.283636 -365.334545 
L 543.24 -365.334545 
L 540.196364 -365.334545 
L 537.152727 -365.334545 
L 534.109091 -365.334545 
L 531.065455 -365.334545 
L 528.021818 -365.334545 
L 524.978182 -365.334545 
L 521.934545 -365.334545 
L 518.890909 -365.334545 
L 515.847273 -365.334545 
L 512.803636 -365.334545 
L 509.76 -365.334545 
L 506.716364 -365.334545 
L 503.672727 -365.334545 
z
" style="stroke: #0000ff; stroke-opacity: 0.2; stroke-width: 1.5"/>
    </defs>
    <g clip-path="url(#p262584e655)">
     <use xlink:href="#m84f9db29de" x="0" y="432" style="fill: #0000ff; fill-opacity: 0.2; stroke: #0000ff; stroke-opacity: 0.2; stroke-width: 1.5"/>
    </g>
   </g>
   <g id="PolyCollection_6">
    <defs>
     <path id="m2d2e7c0a82" d="M 625.418182 -365.334545 
L 625.418182 -68.825455 
L 628.461818 -68.825455 
L 631.505455 -68.825455 
L 634.549091 -68.825455 
L 637.592727 -68.825455 
L 640.636364 -68.825455 
L 643.68 -68.825455 
L 646.723636 -68.825455 
L 649.767273 -68.825455 
L 652.810909 -68.825455 
L 655.854545 -68.825455 
L 658.898182 -68.825455 
L 661.941818 -68.825455 
L 664.985455 -68.825455 
L 668.029091 -68.825455 
L 671.072727 -68.825455 
L 674.116364 -68.825455 
L 677.16 -68.825455 
L 680.203636 -68.825455 
L 683.247273 -68.825455 
L 686.290909 -68.825455 
L 689.334545 -68.825455 
L 692.378182 -68.825455 
L 695.421818 -68.825455 
L 698.465455 -68.825455 
L 701.509091 -68.825455 
L 704.552727 -68.825455 
L 707.596364 -68.825455 
L 710.64 -68.825455 
L 713.683636 -68.825455 
L 716.727273 -68.825455 
L 719.770909 -68.825455 
L 722.814545 -68.825455 
L 725.858182 -68.825455 
L 728.901818 -68.825455 
L 731.945455 -68.825455 
L 734.989091 -68.825455 
L 738.032727 -68.825455 
L 741.076364 -68.825455 
L 744.12 -68.825455 
L 747.163636 -68.825455 
L 747.163636 -365.334545 
L 747.163636 -365.334545 
L 744.12 -365.334545 
L 741.076364 -365.334545 
L 738.032727 -365.334545 
L 734.989091 -365.334545 
L 731.945455 -365.334545 
L 728.901818 -365.334545 
L 725.858182 -365.334545 
L 722.814545 -365.334545 
L 719.770909 -365.334545 
L 716.727273 -365.334545 
L 713.683636 -365.334545 
L 710.64 -365.334545 
L 707.596364 -365.334545 
L 704.552727 -365.334545 
L 701.509091 -365.334545 
L 698.465455 -365.334545 
L 695.421818 -365.334545 
L 692.378182 -365.334545 
L 689.334545 -365.334545 
L 686.290909 -365.334545 
L 683.247273 -365.334545 
L 680.203636 -365.334545 
L 677.16 -365.334545 
L 674.116364 -365.334545 
L 671.072727 -365.334545 
L 668.029091 -365.334545 
L 664.985455 -365.334545 
L 661.941818 -365.334545 
L 658.898182 -365.334545 
L 655.854545 -365.334545 
L 652.810909 -365.334545 
L 649.767273 -365.334545 
L 646.723636 -365.334545 
L 643.68 -365.334545 
L 640.636364 -365.334545 
L 637.592727 -365.334545 
L 634.549091 -365.334545 
L 631.505455 -365.334545 
L 628.461818 -365.334545 
L 625.418182 -365.334545 
z
" style="stroke: #ff0000; stroke-opacity: 0.2; stroke-width: 1.5"/>
    </defs>
    <g clip-path="url(#p262584e655)">
     <use xlink:href="#m2d2e7c0a82" x="0" y="432" style="fill: #ff0000; fill-opacity: 0.2; stroke: #ff0000; stroke-opacity: 0.2; stroke-width: 1.5"/>
    </g>
   </g>
   <g id="matplotlib.axis_1">
    <g id="xtick_1">
     <g id="line2d_1">
      <defs>
       <path id="m9a00b408b4" d="M 0 0 
L 0 9 
" style="stroke: #000000; stroke-width: 1.875"/>
      </defs>
      <g>
       <use xlink:href="#m9a00b408b4" x="138.436364" y="378" style="stroke: #000000; stroke-width: 1.875"/>
      </g>
     </g>
     <g id="text_1">
      <!-- 0 -->
      <g transform="translate(133.187301 403.037422)scale(0.165 -0.165)">
       <defs>
        <path id="DejaVuSans-30" d="M 2034 4250 
Q 1547 4250 1301 3770 
Q 1056 3291 1056 2328 
Q 1056 1369 1301 889 
Q 1547 409 2034 409 
Q 2525 409 2770 889 
Q 3016 1369 3016 2328 
Q 3016 3291 2770 3770 
Q 2525 4250 2034 4250 
z
M 2034 4750 
Q 2819 4750 3233 4129 
Q 3647 3509 3647 2328 
Q 3647 1150 3233 529 
Q 2819 -91 2034 -91 
Q 1250 -91 836 529 
Q 422 1150 422 2328 
Q 422 3509 836 4129 
Q 1250 4750 2034 4750 
z
" transform="scale(0.015625)"/>
       </defs>
       <use xlink:href="#DejaVuSans-30"/>
      </g>
     </g>
    </g>
    <g id="xtick_2">
     <g id="line2d_2">
      <g>
       <use xlink:href="#m9a00b408b4" x="214.527273" y="378" style="stroke: #000000; stroke-width: 1.875"/>
      </g>
     </g>
     <g id="text_2">
      <!-- 25 -->
      <g transform="translate(204.029148 403.037422)scale(0.165 -0.165)">
       <defs>
        <path id="DejaVuSans-32" d="M 1228 531 
L 3431 531 
L 3431 0 
L 469 0 
L 469 531 
Q 828 903 1448 1529 
Q 2069 2156 2228 2338 
Q 2531 2678 2651 2914 
Q 2772 3150 2772 3378 
Q 2772 3750 2511 3984 
Q 2250 4219 1831 4219 
Q 1534 4219 1204 4116 
Q 875 4013 500 3803 
L 500 4441 
Q 881 4594 1212 4672 
Q 1544 4750 1819 4750 
Q 2544 4750 2975 4387 
Q 3406 4025 3406 3419 
Q 3406 3131 3298 2873 
Q 3191 2616 2906 2266 
Q 2828 2175 2409 1742 
Q 1991 1309 1228 531 
z
" transform="scale(0.015625)"/>
        <path id="DejaVuSans-35" d="M 691 4666 
L 3169 4666 
L 3169 4134 
L 1269 4134 
L 1269 2991 
Q 1406 3038 1543 3061 
Q 1681 3084 1819 3084 
Q 2600 3084 3056 2656 
Q 3513 2228 3513 1497 
Q 3513 744 3044 326 
Q 2575 -91 1722 -91 
Q 1428 -91 1123 -41 
Q 819 9 494 109 
L 494 744 
Q 775 591 1075 516 
Q 1375 441 1709 441 
Q 2250 441 2565 725 
Q 2881 1009 2881 1497 
Q 2881 1984 2565 2268 
Q 2250 2553 1709 2553 
Q 1456 2553 1204 2497 
Q 953 2441 691 2322 
L 691 4666 
z
" transform="scale(0.015625)"/>
       </defs>
       <use xlink:href="#DejaVuSans-32"/>
       <use xlink:href="#DejaVuSans-35" x="63.623047"/>
      </g>
     </g>
    </g>
    <g id="xtick_3">
     <g id="line2d_3">
      <g>
       <use xlink:href="#m9a00b408b4" x="290.618182" y="378" style="stroke: #000000; stroke-width: 1.875"/>
      </g>
     </g>
     <g id="text_3">
      <!-- 50 -->
      <g transform="translate(280.120057 403.037422)scale(0.165 -0.165)">
       <use xlink:href="#DejaVuSans-35"/>
       <use xlink:href="#DejaVuSans-30" x="63.623047"/>
      </g>
     </g>
    </g>
    <g id="xtick_4">
     <g id="line2d_4">
      <g>
       <use xlink:href="#m9a00b408b4" x="366.709091" y="378" style="stroke: #000000; stroke-width: 1.875"/>
      </g>
     </g>
     <g id="text_4">
      <!-- 75 -->
      <g transform="translate(356.210966 403.037422)scale(0.165 -0.165)">
       <defs>
        <path id="DejaVuSans-37" d="M 525 4666 
L 3525 4666 
L 3525 4397 
L 1831 0 
L 1172 0 
L 2766 4134 
L 525 4134 
L 525 4666 
z
" transform="scale(0.015625)"/>
       </defs>
       <use xlink:href="#DejaVuSans-37"/>
       <use xlink:href="#DejaVuSans-35" x="63.623047"/>
      </g>
     </g>
    </g>
    <g id="xtick_5">
     <g id="line2d_5">
      <g>
       <use xlink:href="#m9a00b408b4" x="442.8" y="378" style="stroke: #000000; stroke-width: 1.875"/>
      </g>
     </g>
     <g id="text_5">
      <!-- 100 -->
      <g transform="translate(427.052813 403.037422)scale(0.165 -0.165)">
       <defs>
        <path id="DejaVuSans-31" d="M 794 531 
L 1825 531 
L 1825 4091 
L 703 3866 
L 703 4441 
L 1819 4666 
L 2450 4666 
L 2450 531 
L 3481 531 
L 3481 0 
L 794 0 
L 794 531 
z
" transform="scale(0.015625)"/>
       </defs>
       <use xlink:href="#DejaVuSans-31"/>
       <use xlink:href="#DejaVuSans-30" x="63.623047"/>
       <use xlink:href="#DejaVuSans-30" x="127.246094"/>
      </g>
     </g>
    </g>
    <g id="xtick_6">
     <g id="line2d_6">
      <g>
       <use xlink:href="#m9a00b408b4" x="518.890909" y="378" style="stroke: #000000; stroke-width: 1.875"/>
      </g>
     </g>
     <g id="text_6">
      <!-- 125 -->
      <g transform="translate(503.143722 403.037422)scale(0.165 -0.165)">
       <use xlink:href="#DejaVuSans-31"/>
       <use xlink:href="#DejaVuSans-32" x="63.623047"/>
       <use xlink:href="#DejaVuSans-35" x="127.246094"/>
      </g>
     </g>
    </g>
    <g id="xtick_7">
     <g id="line2d_7">
      <g>
       <use xlink:href="#m9a00b408b4" x="594.981818" y="378" style="stroke: #000000; stroke-width: 1.875"/>
      </g>
     </g>
     <g id="text_7">
      <!-- 150 -->
      <g transform="translate(579.234631 403.037422)scale(0.165 -0.165)">
       <use xlink:href="#DejaVuSans-31"/>
       <use xlink:href="#DejaVuSans-35" x="63.623047"/>
       <use xlink:href="#DejaVuSans-30" x="127.246094"/>
      </g>
     </g>
    </g>
    <g id="xtick_8">
     <g id="line2d_8">
      <g>
       <use xlink:href="#m9a00b408b4" x="671.072727" y="378" style="stroke: #000000; stroke-width: 1.875"/>
      </g>
     </g>
     <g id="text_8">
      <!-- 175 -->
      <g transform="translate(655.32554 403.037422)scale(0.165 -0.165)">
       <use xlink:href="#DejaVuSans-31"/>
       <use xlink:href="#DejaVuSans-37" x="63.623047"/>
       <use xlink:href="#DejaVuSans-35" x="127.246094"/>
      </g>
     </g>
    </g>
    <g id="xtick_9">
     <g id="line2d_9">
      <g>
       <use xlink:href="#m9a00b408b4" x="747.163636" y="378" style="stroke: #000000; stroke-width: 1.875"/>
      </g>
     </g>
     <g id="text_9">
      <!-- 200 -->
      <g transform="translate(731.416449 403.037422)scale(0.165 -0.165)">
       <use xlink:href="#DejaVuSans-32"/>
       <use xlink:href="#DejaVuSans-30" x="63.623047"/>
       <use xlink:href="#DejaVuSans-30" x="127.246094"/>
      </g>
     </g>
    </g>
    <g id="text_10">
     <!-- trial -->
     <g transform="translate(425.055938 424.146094)scale(0.18 -0.18)">
      <defs>
       <path id="DejaVuSans-74" d="M 1172 4494 
L 1172 3500 
L 2356 3500 
L 2356 3053 
L 1172 3053 
L 1172 1153 
Q 1172 725 1289 603 
Q 1406 481 1766 481 
L 2356 481 
L 2356 0 
L 1766 0 
Q 1100 0 847 248 
Q 594 497 594 1153 
L 594 3053 
L 172 3053 
L 172 3500 
L 594 3500 
L 594 4494 
L 1172 4494 
z
" transform="scale(0.015625)"/>
       <path id="DejaVuSans-72" d="M 2631 2963 
Q 2534 3019 2420 3045 
Q 2306 3072 2169 3072 
Q 1681 3072 1420 2755 
Q 1159 2438 1159 1844 
L 1159 0 
L 581 0 
L 581 3500 
L 1159 3500 
L 1159 2956 
Q 1341 3275 1631 3429 
Q 1922 3584 2338 3584 
Q 2397 3584 2469 3576 
Q 2541 3569 2628 3553 
L 2631 2963 
z
" transform="scale(0.015625)"/>
       <path id="DejaVuSans-69" d="M 603 3500 
L 1178 3500 
L 1178 0 
L 603 0 
L 603 3500 
z
M 603 4863 
L 1178 4863 
L 1178 4134 
L 603 4134 
L 603 4863 
z
" transform="scale(0.015625)"/>
       <path id="DejaVuSans-61" d="M 2194 1759 
Q 1497 1759 1228 1600 
Q 959 1441 959 1056 
Q 959 750 1161 570 
Q 1363 391 1709 391 
Q 2188 391 2477 730 
Q 2766 1069 2766 1631 
L 2766 1759 
L 2194 1759 
z
M 3341 1997 
L 3341 0 
L 2766 0 
L 2766 531 
Q 2569 213 2275 61 
Q 1981 -91 1556 -91 
Q 1019 -91 701 211 
Q 384 513 384 1019 
Q 384 1609 779 1909 
Q 1175 2209 1959 2209 
L 2766 2209 
L 2766 2266 
Q 2766 2663 2505 2880 
Q 2244 3097 1772 3097 
Q 1472 3097 1187 3025 
Q 903 2953 641 2809 
L 641 3341 
Q 956 3463 1253 3523 
Q 1550 3584 1831 3584 
Q 2591 3584 2966 3190 
Q 3341 2797 3341 1997 
z
" transform="scale(0.015625)"/>
       <path id="DejaVuSans-6c" d="M 603 4863 
L 1178 4863 
L 1178 0 
L 603 0 
L 603 4863 
z
" transform="scale(0.015625)"/>
      </defs>
      <use xlink:href="#DejaVuSans-74"/>
      <use xlink:href="#DejaVuSans-72" x="39.208984"/>
      <use xlink:href="#DejaVuSans-69" x="80.322266"/>
      <use xlink:href="#DejaVuSans-61" x="108.105469"/>
      <use xlink:href="#DejaVuSans-6c" x="169.384766"/>
     </g>
    </g>
   </g>
   <g id="matplotlib.axis_2">
    <g id="ytick_1">
     <g id="line2d_10">
      <defs>
       <path id="mdb61fb3c6d" d="M 0 0 
L -9 0 
" style="stroke: #000000; stroke-width: 1.875"/>
      </defs>
      <g>
       <use xlink:href="#mdb61fb3c6d" x="108" y="363.174545" style="stroke: #000000; stroke-width: 1.875"/>
      </g>
     </g>
     <g id="text_11">
      <!-- 0.0 -->
      <g transform="translate(69.259844 369.443256)scale(0.165 -0.165)">
       <defs>
        <path id="DejaVuSans-2e" d="M 684 794 
L 1344 794 
L 1344 0 
L 684 0 
L 684 794 
z
" transform="scale(0.015625)"/>
       </defs>
       <use xlink:href="#DejaVuSans-30"/>
       <use xlink:href="#DejaVuSans-2e" x="63.623047"/>
       <use xlink:href="#DejaVuSans-30" x="95.410156"/>
      </g>
     </g>
    </g>
    <g id="ytick_2">
     <g id="line2d_11">
      <g>
       <use xlink:href="#mdb61fb3c6d" x="108" y="306.696623" style="stroke: #000000; stroke-width: 1.875"/>
      </g>
     </g>
     <g id="text_12">
      <!-- 0.2 -->
      <g transform="translate(69.259844 312.965334)scale(0.165 -0.165)">
       <use xlink:href="#DejaVuSans-30"/>
       <use xlink:href="#DejaVuSans-2e" x="63.623047"/>
       <use xlink:href="#DejaVuSans-32" x="95.410156"/>
      </g>
     </g>
    </g>
    <g id="ytick_3">
     <g id="line2d_12">
      <g>
       <use xlink:href="#mdb61fb3c6d" x="108" y="250.218701" style="stroke: #000000; stroke-width: 1.875"/>
      </g>
     </g>
     <g id="text_13">
      <!-- 0.4 -->
      <g transform="translate(69.259844 256.487412)scale(0.165 -0.165)">
       <defs>
        <path id="DejaVuSans-34" d="M 2419 4116 
L 825 1625 
L 2419 1625 
L 2419 4116 
z
M 2253 4666 
L 3047 4666 
L 3047 1625 
L 3713 1625 
L 3713 1100 
L 3047 1100 
L 3047 0 
L 2419 0 
L 2419 1100 
L 313 1100 
L 313 1709 
L 2253 4666 
z
" transform="scale(0.015625)"/>
       </defs>
       <use xlink:href="#DejaVuSans-30"/>
       <use xlink:href="#DejaVuSans-2e" x="63.623047"/>
       <use xlink:href="#DejaVuSans-34" x="95.410156"/>
      </g>
     </g>
    </g>
    <g id="ytick_4">
     <g id="line2d_13">
      <g>
       <use xlink:href="#mdb61fb3c6d" x="108" y="193.740779" style="stroke: #000000; stroke-width: 1.875"/>
      </g>
     </g>
     <g id="text_14">
      <!-- 0.6 -->
      <g transform="translate(69.259844 200.00949)scale(0.165 -0.165)">
       <defs>
        <path id="DejaVuSans-36" d="M 2113 2584 
Q 1688 2584 1439 2293 
Q 1191 2003 1191 1497 
Q 1191 994 1439 701 
Q 1688 409 2113 409 
Q 2538 409 2786 701 
Q 3034 994 3034 1497 
Q 3034 2003 2786 2293 
Q 2538 2584 2113 2584 
z
M 3366 4563 
L 3366 3988 
Q 3128 4100 2886 4159 
Q 2644 4219 2406 4219 
Q 1781 4219 1451 3797 
Q 1122 3375 1075 2522 
Q 1259 2794 1537 2939 
Q 1816 3084 2150 3084 
Q 2853 3084 3261 2657 
Q 3669 2231 3669 1497 
Q 3669 778 3244 343 
Q 2819 -91 2113 -91 
Q 1303 -91 875 529 
Q 447 1150 447 2328 
Q 447 3434 972 4092 
Q 1497 4750 2381 4750 
Q 2619 4750 2861 4703 
Q 3103 4656 3366 4563 
z
" transform="scale(0.015625)"/>
       </defs>
       <use xlink:href="#DejaVuSans-30"/>
       <use xlink:href="#DejaVuSans-2e" x="63.623047"/>
       <use xlink:href="#DejaVuSans-36" x="95.410156"/>
      </g>
     </g>
    </g>
    <g id="ytick_5">
     <g id="line2d_14">
      <g>
       <use xlink:href="#mdb61fb3c6d" x="108" y="137.262857" style="stroke: #000000; stroke-width: 1.875"/>
      </g>
     </g>
     <g id="text_15">
      <!-- 0.8 -->
      <g transform="translate(69.259844 143.531568)scale(0.165 -0.165)">
       <defs>
        <path id="DejaVuSans-38" d="M 2034 2216 
Q 1584 2216 1326 1975 
Q 1069 1734 1069 1313 
Q 1069 891 1326 650 
Q 1584 409 2034 409 
Q 2484 409 2743 651 
Q 3003 894 3003 1313 
Q 3003 1734 2745 1975 
Q 2488 2216 2034 2216 
z
M 1403 2484 
Q 997 2584 770 2862 
Q 544 3141 544 3541 
Q 544 4100 942 4425 
Q 1341 4750 2034 4750 
Q 2731 4750 3128 4425 
Q 3525 4100 3525 3541 
Q 3525 3141 3298 2862 
Q 3072 2584 2669 2484 
Q 3125 2378 3379 2068 
Q 3634 1759 3634 1313 
Q 3634 634 3220 271 
Q 2806 -91 2034 -91 
Q 1263 -91 848 271 
Q 434 634 434 1313 
Q 434 1759 690 2068 
Q 947 2378 1403 2484 
z
M 1172 3481 
Q 1172 3119 1398 2916 
Q 1625 2713 2034 2713 
Q 2441 2713 2670 2916 
Q 2900 3119 2900 3481 
Q 2900 3844 2670 4047 
Q 2441 4250 2034 4250 
Q 1625 4250 1398 4047 
Q 1172 3844 1172 3481 
z
" transform="scale(0.015625)"/>
       </defs>
       <use xlink:href="#DejaVuSans-30"/>
       <use xlink:href="#DejaVuSans-2e" x="63.623047"/>
       <use xlink:href="#DejaVuSans-38" x="95.410156"/>
      </g>
     </g>
    </g>
    <g id="ytick_6">
     <g id="line2d_15">
      <g>
       <use xlink:href="#mdb61fb3c6d" x="108" y="80.784935" style="stroke: #000000; stroke-width: 1.875"/>
      </g>
     </g>
     <g id="text_16">
      <!-- 1.0 -->
      <g transform="translate(69.259844 87.053646)scale(0.165 -0.165)">
       <use xlink:href="#DejaVuSans-31"/>
       <use xlink:href="#DejaVuSans-2e" x="63.623047"/>
       <use xlink:href="#DejaVuSans-30" x="95.410156"/>
      </g>
     </g>
    </g>
    <g id="text_17">
     <!-- prediction accuracy -->
     <g transform="translate(61.516406 303.537656)rotate(-90)scale(0.18 -0.18)">
      <defs>
       <path id="DejaVuSans-70" d="M 1159 525 
L 1159 -1331 
L 581 -1331 
L 581 3500 
L 1159 3500 
L 1159 2969 
Q 1341 3281 1617 3432 
Q 1894 3584 2278 3584 
Q 2916 3584 3314 3078 
Q 3713 2572 3713 1747 
Q 3713 922 3314 415 
Q 2916 -91 2278 -91 
Q 1894 -91 1617 61 
Q 1341 213 1159 525 
z
M 3116 1747 
Q 3116 2381 2855 2742 
Q 2594 3103 2138 3103 
Q 1681 3103 1420 2742 
Q 1159 2381 1159 1747 
Q 1159 1113 1420 752 
Q 1681 391 2138 391 
Q 2594 391 2855 752 
Q 3116 1113 3116 1747 
z
" transform="scale(0.015625)"/>
       <path id="DejaVuSans-65" d="M 3597 1894 
L 3597 1613 
L 953 1613 
Q 991 1019 1311 708 
Q 1631 397 2203 397 
Q 2534 397 2845 478 
Q 3156 559 3463 722 
L 3463 178 
Q 3153 47 2828 -22 
Q 2503 -91 2169 -91 
Q 1331 -91 842 396 
Q 353 884 353 1716 
Q 353 2575 817 3079 
Q 1281 3584 2069 3584 
Q 2775 3584 3186 3129 
Q 3597 2675 3597 1894 
z
M 3022 2063 
Q 3016 2534 2758 2815 
Q 2500 3097 2075 3097 
Q 1594 3097 1305 2825 
Q 1016 2553 972 2059 
L 3022 2063 
z
" transform="scale(0.015625)"/>
       <path id="DejaVuSans-64" d="M 2906 2969 
L 2906 4863 
L 3481 4863 
L 3481 0 
L 2906 0 
L 2906 525 
Q 2725 213 2448 61 
Q 2172 -91 1784 -91 
Q 1150 -91 751 415 
Q 353 922 353 1747 
Q 353 2572 751 3078 
Q 1150 3584 1784 3584 
Q 2172 3584 2448 3432 
Q 2725 3281 2906 2969 
z
M 947 1747 
Q 947 1113 1208 752 
Q 1469 391 1925 391 
Q 2381 391 2643 752 
Q 2906 1113 2906 1747 
Q 2906 2381 2643 2742 
Q 2381 3103 1925 3103 
Q 1469 3103 1208 2742 
Q 947 2381 947 1747 
z
" transform="scale(0.015625)"/>
       <path id="DejaVuSans-63" d="M 3122 3366 
L 3122 2828 
Q 2878 2963 2633 3030 
Q 2388 3097 2138 3097 
Q 1578 3097 1268 2742 
Q 959 2388 959 1747 
Q 959 1106 1268 751 
Q 1578 397 2138 397 
Q 2388 397 2633 464 
Q 2878 531 3122 666 
L 3122 134 
Q 2881 22 2623 -34 
Q 2366 -91 2075 -91 
Q 1284 -91 818 406 
Q 353 903 353 1747 
Q 353 2603 823 3093 
Q 1294 3584 2113 3584 
Q 2378 3584 2631 3529 
Q 2884 3475 3122 3366 
z
" transform="scale(0.015625)"/>
       <path id="DejaVuSans-6f" d="M 1959 3097 
Q 1497 3097 1228 2736 
Q 959 2375 959 1747 
Q 959 1119 1226 758 
Q 1494 397 1959 397 
Q 2419 397 2687 759 
Q 2956 1122 2956 1747 
Q 2956 2369 2687 2733 
Q 2419 3097 1959 3097 
z
M 1959 3584 
Q 2709 3584 3137 3096 
Q 3566 2609 3566 1747 
Q 3566 888 3137 398 
Q 2709 -91 1959 -91 
Q 1206 -91 779 398 
Q 353 888 353 1747 
Q 353 2609 779 3096 
Q 1206 3584 1959 3584 
z
" transform="scale(0.015625)"/>
       <path id="DejaVuSans-6e" d="M 3513 2113 
L 3513 0 
L 2938 0 
L 2938 2094 
Q 2938 2591 2744 2837 
Q 2550 3084 2163 3084 
Q 1697 3084 1428 2787 
Q 1159 2491 1159 1978 
L 1159 0 
L 581 0 
L 581 3500 
L 1159 3500 
L 1159 2956 
Q 1366 3272 1645 3428 
Q 1925 3584 2291 3584 
Q 2894 3584 3203 3211 
Q 3513 2838 3513 2113 
z
" transform="scale(0.015625)"/>
       <path id="DejaVuSans-20" transform="scale(0.015625)"/>
       <path id="DejaVuSans-75" d="M 544 1381 
L 544 3500 
L 1119 3500 
L 1119 1403 
Q 1119 906 1312 657 
Q 1506 409 1894 409 
Q 2359 409 2629 706 
Q 2900 1003 2900 1516 
L 2900 3500 
L 3475 3500 
L 3475 0 
L 2900 0 
L 2900 538 
Q 2691 219 2414 64 
Q 2138 -91 1772 -91 
Q 1169 -91 856 284 
Q 544 659 544 1381 
z
M 1991 3584 
L 1991 3584 
z
" transform="scale(0.015625)"/>
       <path id="DejaVuSans-79" d="M 2059 -325 
Q 1816 -950 1584 -1140 
Q 1353 -1331 966 -1331 
L 506 -1331 
L 506 -850 
L 844 -850 
Q 1081 -850 1212 -737 
Q 1344 -625 1503 -206 
L 1606 56 
L 191 3500 
L 800 3500 
L 1894 763 
L 2988 3500 
L 3597 3500 
L 2059 -325 
z
" transform="scale(0.015625)"/>
      </defs>
      <use xlink:href="#DejaVuSans-70"/>
      <use xlink:href="#DejaVuSans-72" x="63.476562"/>
      <use xlink:href="#DejaVuSans-65" x="102.339844"/>
      <use xlink:href="#DejaVuSans-64" x="163.863281"/>
      <use xlink:href="#DejaVuSans-69" x="227.339844"/>
      <use xlink:href="#DejaVuSans-63" x="255.123047"/>
      <use xlink:href="#DejaVuSans-74" x="310.103516"/>
      <use xlink:href="#DejaVuSans-69" x="349.3125"/>
      <use xlink:href="#DejaVuSans-6f" x="377.095703"/>
      <use xlink:href="#DejaVuSans-6e" x="438.277344"/>
      <use xlink:href="#DejaVuSans-20" x="501.65625"/>
      <use xlink:href="#DejaVuSans-61" x="533.443359"/>
      <use xlink:href="#DejaVuSans-63" x="594.722656"/>
      <use xlink:href="#DejaVuSans-63" x="649.703125"/>
      <use xlink:href="#DejaVuSans-75" x="704.683594"/>
      <use xlink:href="#DejaVuSans-72" x="768.0625"/>
      <use xlink:href="#DejaVuSans-61" x="809.175781"/>
      <use xlink:href="#DejaVuSans-63" x="870.455078"/>
      <use xlink:href="#DejaVuSans-79" x="925.435547"/>
     </g>
    </g>
   </g>
   <g id="line2d_16">
    <path d="M 138.436364 234.815632 
L 141.48 189.890012 
L 144.523636 164.619351 
L 147.567273 154.076895 
L 150.610909 139.210372 
L 153.654545 140.110483 
L 156.698182 147.491142 
L 162.785455 142.173981 
L 165.829091 125.888831 
L 168.872727 130.36479 
L 171.916364 122.057263 
L 174.96 125.888831 
L 178.003636 123.897853 
L 181.047273 145.331132 
L 184.090909 121.126308 
L 187.134545 130.501416 
L 190.178182 128.22639 
L 193.221818 123.630255 
L 196.265455 157.984972 
L 202.352727 125.040023 
L 205.396364 129.320649 
L 208.44 139.435085 
L 211.483636 119.885035 
L 214.527273 111.930848 
L 217.570909 119.292609 
L 220.614545 106.263697 
L 223.658182 133.606013 
L 226.701818 114.944969 
L 229.745455 123.630255 
L 232.789091 118.12571 
L 235.832727 116.610483 
L 238.876364 120.188137 
L 241.92 129.810909 
L 244.963636 127.147408 
L 248.007273 116.681919 
L 251.050909 122.009696 
L 254.094545 115.540579 
L 257.138182 115.075102 
L 260.181818 271.233742 
L 263.225455 201.215798 
L 266.269091 172.82303 
L 269.312727 120.840199 
L 272.356364 138.112149 
L 275.4 120.840199 
L 278.443636 135.511604 
L 281.487273 123.708156 
L 284.530909 123.336794 
L 287.574545 138.546446 
L 290.618182 145.795493 
L 293.661818 127.495998 
L 296.705455 131.574433 
L 299.749091 107.386855 
L 302.792727 123.249538 
L 305.836364 130.203117 
L 308.88 146.456937 
L 311.923636 126.132172 
L 314.967273 142.35861 
L 318.010909 159.483679 
L 324.098182 128.542002 
L 327.141818 138.081378 
L 330.185455 136.847578 
L 333.229091 146.97 
L 336.272727 144.48184 
L 339.316364 128.944404 
L 342.36 129.320649 
L 345.403636 132.69479 
L 348.447273 132.128501 
L 351.490909 130.746174 
L 354.534545 132.918402 
L 357.578182 118.753286 
L 360.621818 132.128501 
L 363.665455 112.926842 
L 366.709091 125.803569 
L 369.752727 114.831909 
L 372.796364 148.7283 
L 375.84 132.918402 
L 378.883636 129.320649 
L 381.927273 183.879555 
L 384.970909 138.987374 
L 388.014545 144.42203 
L 391.058182 131.942473 
L 394.101818 125.496623 
L 397.145455 129.619229 
L 400.189091 136.831728 
L 403.232727 135.885347 
L 406.276364 131.907192 
L 409.32 130.060974 
L 412.363636 120.840199 
L 415.407273 136.847578 
L 418.450909 123.047326 
L 421.494545 135.885347 
L 424.538182 118.436883 
L 427.581818 137.262857 
L 430.625455 118.885121 
L 433.669091 139.435085 
L 436.712727 126.889361 
L 439.756364 115.129617 
L 442.8 127.147408 
L 445.843636 121.449039 
L 448.887273 127.84987 
L 451.930909 119.586561 
L 454.974545 125.888831 
L 458.018182 129.810909 
L 461.061818 136.467393 
L 464.105455 132.520436 
L 467.149091 120.459508 
L 470.192727 149.243022 
L 473.236364 132.918402 
L 476.28 123.367495 
L 479.323636 139.210372 
L 482.367273 143.298666 
L 485.410909 138.081378 
L 488.454545 117.534268 
L 491.498182 128.461103 
L 494.541818 126.803983 
L 497.585455 119.384954 
L 500.629091 127.538182 
L 503.672727 171.322062 
L 506.716364 144.42203 
L 509.76 146.456937 
L 512.803636 174.914805 
L 515.847273 136.035076 
L 518.890909 128.997795 
L 521.934545 144.763831 
L 524.978182 135.637593 
L 528.021818 121.126308 
L 531.065455 116.345108 
L 534.109091 120.057662 
L 537.152727 134.771184 
L 540.196364 122.009696 
L 543.24 122.377203 
L 546.283636 124.56627 
L 549.327273 124.712208 
L 552.370909 149.176169 
L 555.414545 132.128501 
L 558.458182 130.854015 
L 561.501818 132.128501 
L 564.545455 150.225003 
L 567.589091 127.84987 
L 570.632727 127.495998 
L 573.676364 138.456053 
L 576.72 142.272995 
L 579.763636 130.203117 
L 582.807273 137.262857 
L 585.850909 138.865068 
L 588.894545 125.803569 
L 591.938182 129.619229 
L 594.981818 133.865689 
L 598.025455 134.149901 
L 601.069091 144.683314 
L 604.112727 139.791719 
L 607.156364 133.22872 
L 610.2 130.987532 
L 613.243636 128.573946 
L 616.287273 148.123996 
L 619.330909 134.573432 
L 622.374545 142.35861 
L 625.418182 148.80579 
L 628.461818 172.318119 
L 631.505455 137.70067 
L 634.549091 157.594909 
L 637.592727 146.131291 
L 640.636364 147.491142 
L 643.68 151.382338 
L 646.723636 155.466485 
L 649.767273 152.43603 
L 652.810909 145.454311 
L 655.854545 157.984972 
L 658.898182 147.103707 
L 661.941818 155.466485 
L 664.985455 139.435085 
L 668.029091 152.842974 
L 671.072727 150.296224 
L 674.116364 134.573432 
L 677.16 135.171082 
L 680.203636 139.055807 
L 683.247273 129.896172 
L 686.290909 139.99566 
L 689.334545 136.467393 
L 692.378182 148.020557 
L 695.421818 135.576949 
L 698.465455 169.960602 
L 701.509091 132.128501 
L 704.552727 157.800283 
L 707.596364 155.794675 
L 710.64 142.712481 
L 713.683636 155.335792 
L 716.727273 148.46509 
L 719.770909 133.322537 
L 722.814545 143.076761 
L 725.858182 142.002263 
L 728.901818 140.560838 
L 731.945455 149.765603 
L 734.989091 149.243022 
L 738.032727 125.127105 
L 741.076364 138.4996 
L 744.12 134.90961 
L 744.12 134.90961 
" clip-path="url(#p262584e655)" style="fill: none; stroke: #1f77b4; stroke-width: 2.25; stroke-linecap: square"/>
   </g>
   <g id="line2d_17">
    <path d="M 108 221.97974 
L 777.6 221.97974 
" clip-path="url(#p262584e655)" style="fill: none; stroke: #000000; stroke-width: 2.25; stroke-linecap: square"/>
   </g>
   <g id="patch_3">
    <path d="M 108 378 
L 108 51.84 
" style="fill: none; stroke: #000000; stroke-width: 1.875; stroke-linejoin: miter; stroke-linecap: square"/>
   </g>
   <g id="patch_4">
    <path d="M 777.6 378 
L 777.6 51.84 
" style="fill: none; stroke: #000000; stroke-width: 1.875; stroke-linejoin: miter; stroke-linecap: square"/>
   </g>
   <g id="patch_5">
    <path d="M 108 378 
L 777.6 378 
" style="fill: none; stroke: #000000; stroke-width: 1.875; stroke-linejoin: miter; stroke-linecap: square"/>
   </g>
   <g id="patch_6">
    <path d="M 108 51.84 
L 777.6 51.84 
" style="fill: none; stroke: #000000; stroke-width: 1.875; stroke-linejoin: miter; stroke-linecap: square"/>
   </g>
  </g>
 </g>
 <defs>
  <clipPath id="p262584e655">
   <rect x="108" y="51.84" width="669.6" height="326.16"/>
  </clipPath>
 </defs>
</svg>
