<?xml version="1.0" encoding="utf-8" standalone="no"?>
<!DOCTYPE svg PUBLIC "-//W3C//DTD SVG 1.1//EN"
  "http://www.w3.org/Graphics/SVG/1.1/DTD/svg11.dtd">
<!-- Created with matplotlib (https://matplotlib.org/) -->
<svg height="432pt" version="1.1" viewBox="0 0 864 432" width="864pt" xmlns="http://www.w3.org/2000/svg" xmlns:xlink="http://www.w3.org/1999/xlink">
 <metadata>
  <rdf:RDF xmlns:cc="http://creativecommons.org/ns#" xmlns:dc="http://purl.org/dc/elements/1.1/" xmlns:rdf="http://www.w3.org/1999/02/22-rdf-syntax-ns#">
   <cc:Work>
    <dc:type rdf:resource="http://purl.org/dc/dcmitype/StillImage"/>
    <dc:date>2023-04-16T12:03:25.599875</dc:date>
    <dc:format>image/svg+xml</dc:format>
    <dc:creator>
     <cc:Agent>
      <dc:title>Matplotlib v3.3.4, https://matplotlib.org/</dc:title>
     </cc:Agent>
    </dc:creator>
   </cc:Work>
  </rdf:RDF>
 </metadata>
 <defs>
  <style type="text/css">*{stroke-linecap:butt;stroke-linejoin:round;}</style>
 </defs>
 <g id="figure_1">
  <g id="patch_1">
   <path d="M 0 432 
L 864 432 
L 864 0 
L 0 0 
z
" style="fill:none;"/>
  </g>
  <g id="axes_1">
   <g id="patch_2">
    <path d="M 108 378 
L 777.6 378 
L 777.6 51.84 
L 108 51.84 
z
" style="fill:#ffffff;"/>
   </g>
   <g id="PolyCollection_1">
    <defs>
     <path d="M 138.436364 -249.981054 
L 138.436364 -170.059466 
L 141.48 -207.705591 
L 144.523636 -260.121642 
L 147.567273 -210.02026 
L 150.610909 -246.457629 
L 153.654545 -258.708124 
L 156.698182 -219.433247 
L 159.741818 -255.202597 
L 162.785455 -285.324156 
L 165.829091 -253.464815 
L 168.872727 -275.014694 
L 171.916364 -247.480106 
L 174.96 -275.911169 
L 178.003636 -290.703006 
L 181.047273 -212.497362 
L 184.090909 -279.421096 
L 187.134545 -261.363825 
L 190.178182 -319.125336 
L 193.221818 -274.634832 
L 196.265455 -235.233618 
L 199.309091 -291.033673 
L 202.352727 -248.527934 
L 205.396364 -253.99897 
L 208.44 -278.340327 
L 211.483636 -255.202597 
L 214.527273 -248.970551 
L 217.570909 -258.796647 
L 220.614545 -270.532319 
L 223.658182 -253.66229 
L 226.701818 -290.030649 
L 229.745455 -272.145974 
L 232.789091 -287.277795 
L 235.832727 -308.590218 
L 238.876364 -265.062302 
L 241.92 -281.856213 
L 244.963636 -240.276289 
L 248.007273 -257.085195 
L 251.050909 -278.340327 
L 254.094545 -234.364192 
L 257.138182 -308.856623 
L 260.181818 -145.305974 
L 263.225455 -207.627127 
L 266.269091 -176.133506 
L 269.312727 -258.796647 
L 272.356364 -241.13098 
L 275.4 -224.13974 
L 278.443636 -223.340524 
L 281.487273 -244.101764 
L 284.530909 -286.810417 
L 287.574545 -273.696348 
L 290.618182 -230.190946 
L 293.661818 -247.480106 
L 296.705455 -290.307502 
L 299.749091 -246.62632 
L 302.792727 -244.652948 
L 305.836364 -306.627232 
L 308.88 -278.002944 
L 311.923636 -282.058426 
L 314.967273 -280.617662 
L 318.010909 -275.187093 
L 321.054545 -282.058426 
L 324.098182 -298.566155 
L 327.141818 -266.498182 
L 330.185455 -283.687115 
L 333.229091 -278.183269 
L 336.272727 -290.703006 
L 339.316364 -271.204675 
L 342.36 -283.052056 
L 345.403636 -291.764621 
L 348.447273 -265.489647 
L 351.490909 -263.257645 
L 354.534545 -279.334073 
L 357.578182 -295.66301 
L 360.621818 -305.005856 
L 363.665455 -286.048232 
L 366.709091 -290.307502 
L 369.752727 -258.796647 
L 372.796364 -241.717053 
L 375.84 -262.314632 
L 378.883636 -272.773506 
L 381.927273 -262.039398 
L 384.970909 -240.150223 
L 388.014545 -246.853687 
L 391.058182 -255.202597 
L 394.101818 -249.369632 
L 397.145455 -225.708571 
L 400.189091 -268.159297 
L 403.232727 -222.856151 
L 406.276364 -244.249303 
L 409.32 -264.769266 
L 412.363636 -239.232978 
L 415.407273 -243.907013 
L 418.450909 -200.607273 
L 421.494545 -279.2334 
L 424.538182 -264.325954 
L 427.581818 -238.259221 
L 430.625455 -207.138733 
L 433.669091 -243.907013 
L 436.712727 -278.965383 
L 439.756364 -232.793615 
L 442.8 -207.016115 
L 445.843636 -232.081948 
L 448.887273 -260.121642 
L 451.930909 -251.202078 
L 454.974545 -245.318961 
L 458.018182 -248.120445 
L 461.061818 -241.717053 
L 464.105455 -231.55845 
L 467.149091 -288.993625 
L 470.192727 -218.66484 
L 473.236364 -259.006213 
L 476.28 -210.02026 
L 479.323636 -255.30916 
L 482.367273 -251.202078 
L 485.410909 -274.634832 
L 488.454545 -257.085195 
L 491.498182 -237.26838 
L 494.541818 -238.259221 
L 497.585455 -233.124864 
L 500.629091 -290.703006 
L 503.672727 -230.938009 
L 506.716364 -220.105603 
L 509.76 -258.490118 
L 512.803636 -251.548144 
L 515.847273 -275.014694 
L 518.890909 -252.378701 
L 521.934545 -258.895385 
L 524.978182 -279.11559 
L 528.021818 -262.968312 
L 531.065455 -257.085195 
L 534.109091 -253.839337 
L 537.152727 -266.993602 
L 540.196364 -258.796647 
L 543.24 -199.561385 
L 546.283636 -254.932224 
L 549.327273 -204.58969 
L 552.370909 -243.765818 
L 555.414545 -231.742537 
L 558.458182 -249.981054 
L 561.501818 -268.67041 
L 564.545455 -259.006213 
L 567.589091 -242.965714 
L 570.632727 -227.359973 
L 573.676364 -199.934917 
L 576.72 -218.66484 
L 579.763636 -221.315844 
L 582.807273 -251.855758 
L 585.850909 -228.66863 
L 588.894545 -244.652948 
L 591.938182 -239.155696 
L 594.981818 -257.085195 
L 598.025455 -252.992592 
L 601.069091 -212.788785 
L 604.112727 -237.26838 
L 607.156364 -287.821479 
L 610.2 -190.640581 
L 613.243636 -258.708124 
L 616.287273 -233.124864 
L 619.330909 -276.621583 
L 622.374545 -245.318961 
L 625.418182 -265.489647 
L 628.461818 -212.587438 
L 631.505455 -280.617662 
L 634.549091 -265.965371 
L 637.592727 -235.481618 
L 640.636364 -244.652948 
L 643.68 -241.717053 
L 646.723636 -262.314632 
L 649.767273 -262.314632 
L 652.810909 -267.544069 
L 655.854545 -276.295372 
L 658.898182 -251.0123 
L 661.941818 -243.907013 
L 664.985455 -241.13098 
L 668.029091 -304.921686 
L 671.072727 -306.918655 
L 674.116364 -231.742537 
L 677.16 -238.259221 
L 680.203636 -217.199657 
L 683.247273 -274.587468 
L 686.290909 -262.968312 
L 689.334545 -275.448924 
L 692.378182 -250.361633 
L 695.421818 -289.089351 
L 698.465455 -264.325954 
L 701.509091 -271.947806 
L 704.552727 -242.222584 
L 707.596364 -212.587438 
L 710.64 -279.334073 
L 713.683636 -243.393577 
L 716.727273 -241.396883 
L 719.770909 -267.544069 
L 722.814545 -239.232978 
L 725.858182 -287.035608 
L 728.901818 -260.637265 
L 731.945455 -273.696348 
L 734.989091 -278.183269 
L 738.032727 -255.278237 
L 741.076364 -251.202078 
L 744.12 -243.907013 
L 744.12 -306.173922 
L 744.12 -306.173922 
L 741.076364 -315.916364 
L 738.032727 -315.916364 
L 734.989091 -331.739919 
L 731.945455 -329.06686 
L 728.901818 -324.574536 
L 725.858182 -334.100543 
L 722.814545 -307.395987 
L 719.770909 -325.067879 
L 716.727273 -309.379567 
L 713.683636 -310.140213 
L 710.64 -330.677639 
L 707.596364 -284.46843 
L 704.552727 -301.673028 
L 701.509091 -326.444046 
L 698.465455 -320.803876 
L 695.421818 -339.919481 
L 692.378182 -315.916364 
L 689.334545 -326.001707 
L 686.290909 -327.682597 
L 683.247273 -333.565714 
L 680.203636 -284.207361 
L 677.16 -305.005856 
L 674.116364 -302.33994 
L 671.072727 -345.678014 
L 668.029091 -346.585727 
L 664.985455 -303.352419 
L 661.941818 -311.680519 
L 658.898182 -310.223025 
L 655.854545 -333.925905 
L 652.810909 -325.067879 
L 649.767273 -325.067879 
L 646.723636 -325.067879 
L 643.68 -310.873692 
L 640.636364 -308.590218 
L 637.592727 -295.66301 
L 634.549091 -324.574536 
L 631.505455 -334.923357 
L 628.461818 -284.46843 
L 625.418182 -321.085102 
L 622.374545 -310.033247 
L 619.330909 -329.902642 
L 616.287273 -305.005856 
L 613.243636 -317.13356 
L 610.2 -262.760672 
L 607.156364 -339.688958 
L 604.112727 -301.673028 
L 601.069091 -284.770451 
L 598.025455 -320.520542 
L 594.981818 -321.799481 
L 591.938182 -301.908942 
L 588.894545 -313.918324 
L 585.850909 -303.262112 
L 582.807273 -314.609004 
L 579.763636 -294.737143 
L 576.72 -299.347585 
L 573.676364 -275.574991 
L 570.632727 -296.718824 
L 567.589091 -308.856623 
L 564.545455 -322.399799 
L 561.501818 -325.148332 
L 558.458182 -313.918324 
L 555.414545 -302.33994 
L 552.370909 -311.680519 
L 549.327273 -280.617662 
L 546.283636 -315.315535 
L 543.24 -272.773506 
L 540.196364 -320.408926 
L 537.152727 -326.444046 
L 534.109091 -317.13356 
L 531.065455 -317.992758 
L 528.021818 -320.328701 
L 524.978182 -333.190196 
L 521.934545 -318.631648 
L 518.890909 -313.563117 
L 515.847273 -324.320816 
L 512.803636 -317.992758 
L 509.76 -313.282132 
L 506.716364 -290.703006 
L 503.672727 -298.920693 
L 500.629091 -336.08705 
L 497.585455 -299.871499 
L 494.541818 -306.032727 
L 491.498182 -301.673028 
L 488.454545 -323.529809 
L 485.410909 -327.283742 
L 482.367273 -315.916364 
L 479.323636 -314.051527 
L 476.28 -286.048232 
L 473.236364 -322.399799 
L 470.192727 -293.584532 
L 467.149091 -336.856271 
L 464.105455 -298.566155 
L 461.061818 -311.017768 
L 458.018182 -310.873692 
L 454.974545 -307.091688 
L 451.930909 -321.799481 
L 448.887273 -319.332367 
L 445.843636 -293.854675 
L 442.8 -285.12388 
L 439.756364 -301.113682 
L 436.712727 -333.190196 
L 433.669091 -311.680519 
L 430.625455 -282.058426 
L 427.581818 -306.032727 
L 424.538182 -324.062218 
L 421.494545 -334.603911 
L 418.450909 -271.204675 
L 415.407273 -306.173922 
L 412.363636 -302.527201 
L 409.32 -328.162852 
L 406.276364 -304.15013 
L 403.232727 -299.871499 
L 400.189091 -323.529809 
L 397.145455 -293.691255 
L 394.101818 -309.551024 
L 391.058182 -322.976104 
L 388.014545 -314.53511 
L 384.970909 -300.788349 
L 381.927273 -321.489843 
L 378.883636 -330.297316 
L 375.84 -325.067879 
L 372.796364 -310.873692 
L 369.752727 -320.408926 
L 366.709091 -340.140963 
L 363.665455 -334.923357 
L 360.621818 -346.080708 
L 357.578182 -337.327051 
L 354.534545 -330.677639 
L 351.490909 -318.8097 
L 348.447273 -326.001707 
L 345.403636 -336.352454 
L 342.36 -336.608706 
L 339.316364 -322.976104 
L 336.272727 -344.491503 
L 333.229091 -331.739919 
L 330.185455 -338.937256 
L 327.141818 -322.976104 
L 324.098182 -341.642536 
L 321.054545 -334.069981 
L 318.010909 -329.492787 
L 314.967273 -331.044378 
L 311.923636 -334.069981 
L 308.88 -335.526753 
L 305.836364 -346.260861 
L 302.792727 -308.590218 
L 299.749091 -314.609004 
L 296.705455 -340.140963 
L 293.661818 -316.636745 
L 290.618182 -300.788349 
L 287.574545 -329.06686 
L 284.530909 -336.352454 
L 281.487273 -307.395987 
L 278.443636 -292.605901 
L 275.4 -290.030649 
L 272.356364 -308.138684 
L 269.312727 -320.408926 
L 266.269091 -249.554805 
L 263.225455 -274.634832 
L 260.181818 -221.786494 
L 257.138182 -346.508571 
L 254.094545 -297.780134 
L 251.050909 -328.441709 
L 248.007273 -319.838442 
L 244.963636 -305.83102 
L 241.92 -331.39825 
L 238.876364 -327.283742 
L 235.832727 -345.886959 
L 232.789091 -340.558853 
L 229.745455 -328.623896 
L 226.701818 -337.095584 
L 223.658182 -315.274569 
L 220.614545 -328.162852 
L 217.570909 -320.408926 
L 214.527273 -312.264774 
L 211.483636 -317.328312 
L 208.44 -328.441709 
L 205.396364 -309.551024 
L 202.352727 -310.140213 
L 199.309091 -337.327051 
L 196.265455 -300.788349 
L 193.221818 -327.283742 
L 190.178182 -351.215065 
L 187.134545 -325.543282 
L 184.090909 -332.070007 
L 181.047273 -281.856213 
L 178.003636 -344.491503 
L 174.96 -327.682597 
L 171.916364 -316.636745 
L 168.872727 -324.320816 
L 165.829091 -313.336843 
L 162.785455 -337.095584 
L 159.741818 -322.976104 
L 156.698182 -285.324156 
L 153.654545 -317.13356 
L 150.610909 -305.668354 
L 147.567273 -283.363117 
L 144.523636 -319.332367 
L 141.48 -272.516321 
L 138.436364 -249.981054 
z
" id="m385d61f479" style="stroke:#800080;stroke-opacity:0.2;stroke-width:1.5;"/>
    </defs>
    <g clip-path="url(#pf332725b79)">
     <use style="fill:#800080;fill-opacity:0.2;stroke:#800080;stroke-opacity:0.2;stroke-width:1.5;" x="0" xlink:href="#m385d61f479" y="432"/>
    </g>
   </g>
   <g id="PolyCollection_2">
    <defs>
     <path d="M 138.436364 -365.334545 
L 138.436364 -68.825455 
L 141.48 -68.825455 
L 144.523636 -68.825455 
L 147.567273 -68.825455 
L 150.610909 -68.825455 
L 153.654545 -68.825455 
L 156.698182 -68.825455 
L 159.741818 -68.825455 
L 162.785455 -68.825455 
L 165.829091 -68.825455 
L 168.872727 -68.825455 
L 171.916364 -68.825455 
L 174.96 -68.825455 
L 178.003636 -68.825455 
L 181.047273 -68.825455 
L 184.090909 -68.825455 
L 187.134545 -68.825455 
L 190.178182 -68.825455 
L 193.221818 -68.825455 
L 196.265455 -68.825455 
L 199.309091 -68.825455 
L 202.352727 -68.825455 
L 205.396364 -68.825455 
L 208.44 -68.825455 
L 211.483636 -68.825455 
L 214.527273 -68.825455 
L 217.570909 -68.825455 
L 220.614545 -68.825455 
L 223.658182 -68.825455 
L 226.701818 -68.825455 
L 229.745455 -68.825455 
L 232.789091 -68.825455 
L 235.832727 -68.825455 
L 238.876364 -68.825455 
L 241.92 -68.825455 
L 244.963636 -68.825455 
L 248.007273 -68.825455 
L 251.050909 -68.825455 
L 254.094545 -68.825455 
L 257.138182 -68.825455 
L 260.181818 -68.825455 
L 260.181818 -365.334545 
L 260.181818 -365.334545 
L 257.138182 -365.334545 
L 254.094545 -365.334545 
L 251.050909 -365.334545 
L 248.007273 -365.334545 
L 244.963636 -365.334545 
L 241.92 -365.334545 
L 238.876364 -365.334545 
L 235.832727 -365.334545 
L 232.789091 -365.334545 
L 229.745455 -365.334545 
L 226.701818 -365.334545 
L 223.658182 -365.334545 
L 220.614545 -365.334545 
L 217.570909 -365.334545 
L 214.527273 -365.334545 
L 211.483636 -365.334545 
L 208.44 -365.334545 
L 205.396364 -365.334545 
L 202.352727 -365.334545 
L 199.309091 -365.334545 
L 196.265455 -365.334545 
L 193.221818 -365.334545 
L 190.178182 -365.334545 
L 187.134545 -365.334545 
L 184.090909 -365.334545 
L 181.047273 -365.334545 
L 178.003636 -365.334545 
L 174.96 -365.334545 
L 171.916364 -365.334545 
L 168.872727 -365.334545 
L 165.829091 -365.334545 
L 162.785455 -365.334545 
L 159.741818 -365.334545 
L 156.698182 -365.334545 
L 153.654545 -365.334545 
L 150.610909 -365.334545 
L 147.567273 -365.334545 
L 144.523636 -365.334545 
L 141.48 -365.334545 
L 138.436364 -365.334545 
z
" id="m82cc45e6c8" style="stroke:#0000ff;stroke-opacity:0.2;stroke-width:1.5;"/>
    </defs>
    <g clip-path="url(#pf332725b79)">
     <use style="fill:#0000ff;fill-opacity:0.2;stroke:#0000ff;stroke-opacity:0.2;stroke-width:1.5;" x="0" xlink:href="#m82cc45e6c8" y="432"/>
    </g>
   </g>
   <g id="PolyCollection_3">
    <defs>
     <path d="M 260.181818 -365.334545 
L 260.181818 -68.825455 
L 263.225455 -68.825455 
L 266.269091 -68.825455 
L 269.312727 -68.825455 
L 272.356364 -68.825455 
L 275.4 -68.825455 
L 278.443636 -68.825455 
L 281.487273 -68.825455 
L 284.530909 -68.825455 
L 287.574545 -68.825455 
L 290.618182 -68.825455 
L 293.661818 -68.825455 
L 296.705455 -68.825455 
L 299.749091 -68.825455 
L 302.792727 -68.825455 
L 305.836364 -68.825455 
L 308.88 -68.825455 
L 311.923636 -68.825455 
L 314.967273 -68.825455 
L 318.010909 -68.825455 
L 321.054545 -68.825455 
L 324.098182 -68.825455 
L 327.141818 -68.825455 
L 330.185455 -68.825455 
L 333.229091 -68.825455 
L 336.272727 -68.825455 
L 339.316364 -68.825455 
L 342.36 -68.825455 
L 345.403636 -68.825455 
L 348.447273 -68.825455 
L 351.490909 -68.825455 
L 354.534545 -68.825455 
L 357.578182 -68.825455 
L 360.621818 -68.825455 
L 363.665455 -68.825455 
L 366.709091 -68.825455 
L 369.752727 -68.825455 
L 372.796364 -68.825455 
L 375.84 -68.825455 
L 378.883636 -68.825455 
L 381.927273 -68.825455 
L 381.927273 -365.334545 
L 381.927273 -365.334545 
L 378.883636 -365.334545 
L 375.84 -365.334545 
L 372.796364 -365.334545 
L 369.752727 -365.334545 
L 366.709091 -365.334545 
L 363.665455 -365.334545 
L 360.621818 -365.334545 
L 357.578182 -365.334545 
L 354.534545 -365.334545 
L 351.490909 -365.334545 
L 348.447273 -365.334545 
L 345.403636 -365.334545 
L 342.36 -365.334545 
L 339.316364 -365.334545 
L 336.272727 -365.334545 
L 333.229091 -365.334545 
L 330.185455 -365.334545 
L 327.141818 -365.334545 
L 324.098182 -365.334545 
L 321.054545 -365.334545 
L 318.010909 -365.334545 
L 314.967273 -365.334545 
L 311.923636 -365.334545 
L 308.88 -365.334545 
L 305.836364 -365.334545 
L 302.792727 -365.334545 
L 299.749091 -365.334545 
L 296.705455 -365.334545 
L 293.661818 -365.334545 
L 290.618182 -365.334545 
L 287.574545 -365.334545 
L 284.530909 -365.334545 
L 281.487273 -365.334545 
L 278.443636 -365.334545 
L 275.4 -365.334545 
L 272.356364 -365.334545 
L 269.312727 -365.334545 
L 266.269091 -365.334545 
L 263.225455 -365.334545 
L 260.181818 -365.334545 
z
" id="m94226ef476" style="stroke:#008000;stroke-opacity:0.2;stroke-width:1.5;"/>
    </defs>
    <g clip-path="url(#pf332725b79)">
     <use style="fill:#008000;fill-opacity:0.2;stroke:#008000;stroke-opacity:0.2;stroke-width:1.5;" x="0" xlink:href="#m94226ef476" y="432"/>
    </g>
   </g>
   <g id="PolyCollection_4">
    <defs>
     <path d="M 381.927273 -365.334545 
L 381.927273 -68.825455 
L 384.970909 -68.825455 
L 388.014545 -68.825455 
L 391.058182 -68.825455 
L 394.101818 -68.825455 
L 397.145455 -68.825455 
L 400.189091 -68.825455 
L 403.232727 -68.825455 
L 406.276364 -68.825455 
L 409.32 -68.825455 
L 412.363636 -68.825455 
L 415.407273 -68.825455 
L 418.450909 -68.825455 
L 421.494545 -68.825455 
L 424.538182 -68.825455 
L 427.581818 -68.825455 
L 430.625455 -68.825455 
L 433.669091 -68.825455 
L 436.712727 -68.825455 
L 439.756364 -68.825455 
L 442.8 -68.825455 
L 445.843636 -68.825455 
L 448.887273 -68.825455 
L 451.930909 -68.825455 
L 454.974545 -68.825455 
L 458.018182 -68.825455 
L 461.061818 -68.825455 
L 464.105455 -68.825455 
L 467.149091 -68.825455 
L 470.192727 -68.825455 
L 473.236364 -68.825455 
L 476.28 -68.825455 
L 479.323636 -68.825455 
L 482.367273 -68.825455 
L 485.410909 -68.825455 
L 488.454545 -68.825455 
L 491.498182 -68.825455 
L 494.541818 -68.825455 
L 497.585455 -68.825455 
L 500.629091 -68.825455 
L 503.672727 -68.825455 
L 503.672727 -365.334545 
L 503.672727 -365.334545 
L 500.629091 -365.334545 
L 497.585455 -365.334545 
L 494.541818 -365.334545 
L 491.498182 -365.334545 
L 488.454545 -365.334545 
L 485.410909 -365.334545 
L 482.367273 -365.334545 
L 479.323636 -365.334545 
L 476.28 -365.334545 
L 473.236364 -365.334545 
L 470.192727 -365.334545 
L 467.149091 -365.334545 
L 464.105455 -365.334545 
L 461.061818 -365.334545 
L 458.018182 -365.334545 
L 454.974545 -365.334545 
L 451.930909 -365.334545 
L 448.887273 -365.334545 
L 445.843636 -365.334545 
L 442.8 -365.334545 
L 439.756364 -365.334545 
L 436.712727 -365.334545 
L 433.669091 -365.334545 
L 430.625455 -365.334545 
L 427.581818 -365.334545 
L 424.538182 -365.334545 
L 421.494545 -365.334545 
L 418.450909 -365.334545 
L 415.407273 -365.334545 
L 412.363636 -365.334545 
L 409.32 -365.334545 
L 406.276364 -365.334545 
L 403.232727 -365.334545 
L 400.189091 -365.334545 
L 397.145455 -365.334545 
L 394.101818 -365.334545 
L 391.058182 -365.334545 
L 388.014545 -365.334545 
L 384.970909 -365.334545 
L 381.927273 -365.334545 
z
" id="m792a6d95fb" style="stroke:#800080;stroke-opacity:0.2;stroke-width:1.5;"/>
    </defs>
    <g clip-path="url(#pf332725b79)">
     <use style="fill:#800080;fill-opacity:0.2;stroke:#800080;stroke-opacity:0.2;stroke-width:1.5;" x="0" xlink:href="#m792a6d95fb" y="432"/>
    </g>
   </g>
   <g id="PolyCollection_5">
    <defs>
     <path d="M 503.672727 -365.334545 
L 503.672727 -68.825455 
L 506.716364 -68.825455 
L 509.76 -68.825455 
L 512.803636 -68.825455 
L 515.847273 -68.825455 
L 518.890909 -68.825455 
L 521.934545 -68.825455 
L 524.978182 -68.825455 
L 528.021818 -68.825455 
L 531.065455 -68.825455 
L 534.109091 -68.825455 
L 537.152727 -68.825455 
L 540.196364 -68.825455 
L 543.24 -68.825455 
L 546.283636 -68.825455 
L 549.327273 -68.825455 
L 552.370909 -68.825455 
L 555.414545 -68.825455 
L 558.458182 -68.825455 
L 561.501818 -68.825455 
L 564.545455 -68.825455 
L 567.589091 -68.825455 
L 570.632727 -68.825455 
L 573.676364 -68.825455 
L 576.72 -68.825455 
L 579.763636 -68.825455 
L 582.807273 -68.825455 
L 585.850909 -68.825455 
L 588.894545 -68.825455 
L 591.938182 -68.825455 
L 594.981818 -68.825455 
L 598.025455 -68.825455 
L 601.069091 -68.825455 
L 604.112727 -68.825455 
L 607.156364 -68.825455 
L 610.2 -68.825455 
L 613.243636 -68.825455 
L 616.287273 -68.825455 
L 619.330909 -68.825455 
L 622.374545 -68.825455 
L 625.418182 -68.825455 
L 625.418182 -365.334545 
L 625.418182 -365.334545 
L 622.374545 -365.334545 
L 619.330909 -365.334545 
L 616.287273 -365.334545 
L 613.243636 -365.334545 
L 610.2 -365.334545 
L 607.156364 -365.334545 
L 604.112727 -365.334545 
L 601.069091 -365.334545 
L 598.025455 -365.334545 
L 594.981818 -365.334545 
L 591.938182 -365.334545 
L 588.894545 -365.334545 
L 585.850909 -365.334545 
L 582.807273 -365.334545 
L 579.763636 -365.334545 
L 576.72 -365.334545 
L 573.676364 -365.334545 
L 570.632727 -365.334545 
L 567.589091 -365.334545 
L 564.545455 -365.334545 
L 561.501818 -365.334545 
L 558.458182 -365.334545 
L 555.414545 -365.334545 
L 552.370909 -365.334545 
L 549.327273 -365.334545 
L 546.283636 -365.334545 
L 543.24 -365.334545 
L 540.196364 -365.334545 
L 537.152727 -365.334545 
L 534.109091 -365.334545 
L 531.065455 -365.334545 
L 528.021818 -365.334545 
L 524.978182 -365.334545 
L 521.934545 -365.334545 
L 518.890909 -365.334545 
L 515.847273 -365.334545 
L 512.803636 -365.334545 
L 509.76 -365.334545 
L 506.716364 -365.334545 
L 503.672727 -365.334545 
z
" id="m07e3a8e3d5" style="stroke:#800080;stroke-opacity:0.2;stroke-width:1.5;"/>
    </defs>
    <g clip-path="url(#pf332725b79)">
     <use style="fill:#800080;fill-opacity:0.2;stroke:#800080;stroke-opacity:0.2;stroke-width:1.5;" x="0" xlink:href="#m07e3a8e3d5" y="432"/>
    </g>
   </g>
   <g id="PolyCollection_6">
    <defs>
     <path d="M 625.418182 -365.334545 
L 625.418182 -68.825455 
L 628.461818 -68.825455 
L 631.505455 -68.825455 
L 634.549091 -68.825455 
L 637.592727 -68.825455 
L 640.636364 -68.825455 
L 643.68 -68.825455 
L 646.723636 -68.825455 
L 649.767273 -68.825455 
L 652.810909 -68.825455 
L 655.854545 -68.825455 
L 658.898182 -68.825455 
L 661.941818 -68.825455 
L 664.985455 -68.825455 
L 668.029091 -68.825455 
L 671.072727 -68.825455 
L 674.116364 -68.825455 
L 677.16 -68.825455 
L 680.203636 -68.825455 
L 683.247273 -68.825455 
L 686.290909 -68.825455 
L 689.334545 -68.825455 
L 692.378182 -68.825455 
L 695.421818 -68.825455 
L 698.465455 -68.825455 
L 701.509091 -68.825455 
L 704.552727 -68.825455 
L 707.596364 -68.825455 
L 710.64 -68.825455 
L 713.683636 -68.825455 
L 716.727273 -68.825455 
L 719.770909 -68.825455 
L 722.814545 -68.825455 
L 725.858182 -68.825455 
L 728.901818 -68.825455 
L 731.945455 -68.825455 
L 734.989091 -68.825455 
L 738.032727 -68.825455 
L 741.076364 -68.825455 
L 744.12 -68.825455 
L 747.163636 -68.825455 
L 747.163636 -365.334545 
L 747.163636 -365.334545 
L 744.12 -365.334545 
L 741.076364 -365.334545 
L 738.032727 -365.334545 
L 734.989091 -365.334545 
L 731.945455 -365.334545 
L 728.901818 -365.334545 
L 725.858182 -365.334545 
L 722.814545 -365.334545 
L 719.770909 -365.334545 
L 716.727273 -365.334545 
L 713.683636 -365.334545 
L 710.64 -365.334545 
L 707.596364 -365.334545 
L 704.552727 -365.334545 
L 701.509091 -365.334545 
L 698.465455 -365.334545 
L 695.421818 -365.334545 
L 692.378182 -365.334545 
L 689.334545 -365.334545 
L 686.290909 -365.334545 
L 683.247273 -365.334545 
L 680.203636 -365.334545 
L 677.16 -365.334545 
L 674.116364 -365.334545 
L 671.072727 -365.334545 
L 668.029091 -365.334545 
L 664.985455 -365.334545 
L 661.941818 -365.334545 
L 658.898182 -365.334545 
L 655.854545 -365.334545 
L 652.810909 -365.334545 
L 649.767273 -365.334545 
L 646.723636 -365.334545 
L 643.68 -365.334545 
L 640.636364 -365.334545 
L 637.592727 -365.334545 
L 634.549091 -365.334545 
L 631.505455 -365.334545 
L 628.461818 -365.334545 
L 625.418182 -365.334545 
z
" id="m34c6776949" style="stroke:#ff0000;stroke-opacity:0.2;stroke-width:1.5;"/>
    </defs>
    <g clip-path="url(#pf332725b79)">
     <use style="fill:#ff0000;fill-opacity:0.2;stroke:#ff0000;stroke-opacity:0.2;stroke-width:1.5;" x="0" xlink:href="#m34c6776949" y="432"/>
    </g>
   </g>
   <g id="matplotlib.axis_1">
    <g id="xtick_1">
     <g id="line2d_1">
      <defs>
       <path d="M 0 0 
L 0 9 
" id="m5a39e665bb" style="stroke:#000000;stroke-width:1.875;"/>
      </defs>
      <g>
       <use style="stroke:#000000;stroke-width:1.875;" x="138.436364" xlink:href="#m5a39e665bb" y="378"/>
      </g>
     </g>
     <g id="text_1">
      <!-- 0 -->
      <g transform="translate(133.187301 403.037422)scale(0.165 -0.165)">
       <defs>
        <path d="M 31.78125 66.40625 
Q 24.171875 66.40625 20.328125 58.90625 
Q 16.5 51.421875 16.5 36.375 
Q 16.5 21.390625 20.328125 13.890625 
Q 24.171875 6.390625 31.78125 6.390625 
Q 39.453125 6.390625 43.28125 13.890625 
Q 47.125 21.390625 47.125 36.375 
Q 47.125 51.421875 43.28125 58.90625 
Q 39.453125 66.40625 31.78125 66.40625 
z
M 31.78125 74.21875 
Q 44.046875 74.21875 50.515625 64.515625 
Q 56.984375 54.828125 56.984375 36.375 
Q 56.984375 17.96875 50.515625 8.265625 
Q 44.046875 -1.421875 31.78125 -1.421875 
Q 19.53125 -1.421875 13.0625 8.265625 
Q 6.59375 17.96875 6.59375 36.375 
Q 6.59375 54.828125 13.0625 64.515625 
Q 19.53125 74.21875 31.78125 74.21875 
z
" id="DejaVuSans-48"/>
       </defs>
       <use xlink:href="#DejaVuSans-48"/>
      </g>
     </g>
    </g>
    <g id="xtick_2">
     <g id="line2d_2">
      <g>
       <use style="stroke:#000000;stroke-width:1.875;" x="214.527273" xlink:href="#m5a39e665bb" y="378"/>
      </g>
     </g>
     <g id="text_2">
      <!-- 25 -->
      <g transform="translate(204.029148 403.037422)scale(0.165 -0.165)">
       <defs>
        <path d="M 19.1875 8.296875 
L 53.609375 8.296875 
L 53.609375 0 
L 7.328125 0 
L 7.328125 8.296875 
Q 12.9375 14.109375 22.625 23.890625 
Q 32.328125 33.6875 34.8125 36.53125 
Q 39.546875 41.84375 41.421875 45.53125 
Q 43.3125 49.21875 43.3125 52.78125 
Q 43.3125 58.59375 39.234375 62.25 
Q 35.15625 65.921875 28.609375 65.921875 
Q 23.96875 65.921875 18.8125 64.3125 
Q 13.671875 62.703125 7.8125 59.421875 
L 7.8125 69.390625 
Q 13.765625 71.78125 18.9375 73 
Q 24.125 74.21875 28.421875 74.21875 
Q 39.75 74.21875 46.484375 68.546875 
Q 53.21875 62.890625 53.21875 53.421875 
Q 53.21875 48.921875 51.53125 44.890625 
Q 49.859375 40.875 45.40625 35.40625 
Q 44.1875 33.984375 37.640625 27.21875 
Q 31.109375 20.453125 19.1875 8.296875 
z
" id="DejaVuSans-50"/>
        <path d="M 10.796875 72.90625 
L 49.515625 72.90625 
L 49.515625 64.59375 
L 19.828125 64.59375 
L 19.828125 46.734375 
Q 21.96875 47.46875 24.109375 47.828125 
Q 26.265625 48.1875 28.421875 48.1875 
Q 40.625 48.1875 47.75 41.5 
Q 54.890625 34.8125 54.890625 23.390625 
Q 54.890625 11.625 47.5625 5.09375 
Q 40.234375 -1.421875 26.90625 -1.421875 
Q 22.3125 -1.421875 17.546875 -0.640625 
Q 12.796875 0.140625 7.71875 1.703125 
L 7.71875 11.625 
Q 12.109375 9.234375 16.796875 8.0625 
Q 21.484375 6.890625 26.703125 6.890625 
Q 35.15625 6.890625 40.078125 11.328125 
Q 45.015625 15.765625 45.015625 23.390625 
Q 45.015625 31 40.078125 35.4375 
Q 35.15625 39.890625 26.703125 39.890625 
Q 22.75 39.890625 18.8125 39.015625 
Q 14.890625 38.140625 10.796875 36.28125 
z
" id="DejaVuSans-53"/>
       </defs>
       <use xlink:href="#DejaVuSans-50"/>
       <use x="63.623047" xlink:href="#DejaVuSans-53"/>
      </g>
     </g>
    </g>
    <g id="xtick_3">
     <g id="line2d_3">
      <g>
       <use style="stroke:#000000;stroke-width:1.875;" x="290.618182" xlink:href="#m5a39e665bb" y="378"/>
      </g>
     </g>
     <g id="text_3">
      <!-- 50 -->
      <g transform="translate(280.120057 403.037422)scale(0.165 -0.165)">
       <use xlink:href="#DejaVuSans-53"/>
       <use x="63.623047" xlink:href="#DejaVuSans-48"/>
      </g>
     </g>
    </g>
    <g id="xtick_4">
     <g id="line2d_4">
      <g>
       <use style="stroke:#000000;stroke-width:1.875;" x="366.709091" xlink:href="#m5a39e665bb" y="378"/>
      </g>
     </g>
     <g id="text_4">
      <!-- 75 -->
      <g transform="translate(356.210966 403.037422)scale(0.165 -0.165)">
       <defs>
        <path d="M 8.203125 72.90625 
L 55.078125 72.90625 
L 55.078125 68.703125 
L 28.609375 0 
L 18.3125 0 
L 43.21875 64.59375 
L 8.203125 64.59375 
z
" id="DejaVuSans-55"/>
       </defs>
       <use xlink:href="#DejaVuSans-55"/>
       <use x="63.623047" xlink:href="#DejaVuSans-53"/>
      </g>
     </g>
    </g>
    <g id="xtick_5">
     <g id="line2d_5">
      <g>
       <use style="stroke:#000000;stroke-width:1.875;" x="442.8" xlink:href="#m5a39e665bb" y="378"/>
      </g>
     </g>
     <g id="text_5">
      <!-- 100 -->
      <g transform="translate(427.052813 403.037422)scale(0.165 -0.165)">
       <defs>
        <path d="M 12.40625 8.296875 
L 28.515625 8.296875 
L 28.515625 63.921875 
L 10.984375 60.40625 
L 10.984375 69.390625 
L 28.421875 72.90625 
L 38.28125 72.90625 
L 38.28125 8.296875 
L 54.390625 8.296875 
L 54.390625 0 
L 12.40625 0 
z
" id="DejaVuSans-49"/>
       </defs>
       <use xlink:href="#DejaVuSans-49"/>
       <use x="63.623047" xlink:href="#DejaVuSans-48"/>
       <use x="127.246094" xlink:href="#DejaVuSans-48"/>
      </g>
     </g>
    </g>
    <g id="xtick_6">
     <g id="line2d_6">
      <g>
       <use style="stroke:#000000;stroke-width:1.875;" x="518.890909" xlink:href="#m5a39e665bb" y="378"/>
      </g>
     </g>
     <g id="text_6">
      <!-- 125 -->
      <g transform="translate(503.143722 403.037422)scale(0.165 -0.165)">
       <use xlink:href="#DejaVuSans-49"/>
       <use x="63.623047" xlink:href="#DejaVuSans-50"/>
       <use x="127.246094" xlink:href="#DejaVuSans-53"/>
      </g>
     </g>
    </g>
    <g id="xtick_7">
     <g id="line2d_7">
      <g>
       <use style="stroke:#000000;stroke-width:1.875;" x="594.981818" xlink:href="#m5a39e665bb" y="378"/>
      </g>
     </g>
     <g id="text_7">
      <!-- 150 -->
      <g transform="translate(579.234631 403.037422)scale(0.165 -0.165)">
       <use xlink:href="#DejaVuSans-49"/>
       <use x="63.623047" xlink:href="#DejaVuSans-53"/>
       <use x="127.246094" xlink:href="#DejaVuSans-48"/>
      </g>
     </g>
    </g>
    <g id="xtick_8">
     <g id="line2d_8">
      <g>
       <use style="stroke:#000000;stroke-width:1.875;" x="671.072727" xlink:href="#m5a39e665bb" y="378"/>
      </g>
     </g>
     <g id="text_8">
      <!-- 175 -->
      <g transform="translate(655.32554 403.037422)scale(0.165 -0.165)">
       <use xlink:href="#DejaVuSans-49"/>
       <use x="63.623047" xlink:href="#DejaVuSans-55"/>
       <use x="127.246094" xlink:href="#DejaVuSans-53"/>
      </g>
     </g>
    </g>
    <g id="xtick_9">
     <g id="line2d_9">
      <g>
       <use style="stroke:#000000;stroke-width:1.875;" x="747.163636" xlink:href="#m5a39e665bb" y="378"/>
      </g>
     </g>
     <g id="text_9">
      <!-- 200 -->
      <g transform="translate(731.416449 403.037422)scale(0.165 -0.165)">
       <use xlink:href="#DejaVuSans-50"/>
       <use x="63.623047" xlink:href="#DejaVuSans-48"/>
       <use x="127.246094" xlink:href="#DejaVuSans-48"/>
      </g>
     </g>
    </g>
    <g id="text_10">
     <!-- trial -->
     <g transform="translate(425.055938 424.146094)scale(0.18 -0.18)">
      <defs>
       <path d="M 18.3125 70.21875 
L 18.3125 54.6875 
L 36.8125 54.6875 
L 36.8125 47.703125 
L 18.3125 47.703125 
L 18.3125 18.015625 
Q 18.3125 11.328125 20.140625 9.421875 
Q 21.96875 7.515625 27.59375 7.515625 
L 36.8125 7.515625 
L 36.8125 0 
L 27.59375 0 
Q 17.1875 0 13.234375 3.875 
Q 9.28125 7.765625 9.28125 18.015625 
L 9.28125 47.703125 
L 2.6875 47.703125 
L 2.6875 54.6875 
L 9.28125 54.6875 
L 9.28125 70.21875 
z
" id="DejaVuSans-116"/>
       <path d="M 41.109375 46.296875 
Q 39.59375 47.171875 37.8125 47.578125 
Q 36.03125 48 33.890625 48 
Q 26.265625 48 22.1875 43.046875 
Q 18.109375 38.09375 18.109375 28.8125 
L 18.109375 0 
L 9.078125 0 
L 9.078125 54.6875 
L 18.109375 54.6875 
L 18.109375 46.1875 
Q 20.953125 51.171875 25.484375 53.578125 
Q 30.03125 56 36.53125 56 
Q 37.453125 56 38.578125 55.875 
Q 39.703125 55.765625 41.0625 55.515625 
z
" id="DejaVuSans-114"/>
       <path d="M 9.421875 54.6875 
L 18.40625 54.6875 
L 18.40625 0 
L 9.421875 0 
z
M 9.421875 75.984375 
L 18.40625 75.984375 
L 18.40625 64.59375 
L 9.421875 64.59375 
z
" id="DejaVuSans-105"/>
       <path d="M 34.28125 27.484375 
Q 23.390625 27.484375 19.1875 25 
Q 14.984375 22.515625 14.984375 16.5 
Q 14.984375 11.71875 18.140625 8.90625 
Q 21.296875 6.109375 26.703125 6.109375 
Q 34.1875 6.109375 38.703125 11.40625 
Q 43.21875 16.703125 43.21875 25.484375 
L 43.21875 27.484375 
z
M 52.203125 31.203125 
L 52.203125 0 
L 43.21875 0 
L 43.21875 8.296875 
Q 40.140625 3.328125 35.546875 0.953125 
Q 30.953125 -1.421875 24.3125 -1.421875 
Q 15.921875 -1.421875 10.953125 3.296875 
Q 6 8.015625 6 15.921875 
Q 6 25.140625 12.171875 29.828125 
Q 18.359375 34.515625 30.609375 34.515625 
L 43.21875 34.515625 
L 43.21875 35.40625 
Q 43.21875 41.609375 39.140625 45 
Q 35.0625 48.390625 27.6875 48.390625 
Q 23 48.390625 18.546875 47.265625 
Q 14.109375 46.140625 10.015625 43.890625 
L 10.015625 52.203125 
Q 14.9375 54.109375 19.578125 55.046875 
Q 24.21875 56 28.609375 56 
Q 40.484375 56 46.34375 49.84375 
Q 52.203125 43.703125 52.203125 31.203125 
z
" id="DejaVuSans-97"/>
       <path d="M 9.421875 75.984375 
L 18.40625 75.984375 
L 18.40625 0 
L 9.421875 0 
z
" id="DejaVuSans-108"/>
      </defs>
      <use xlink:href="#DejaVuSans-116"/>
      <use x="39.208984" xlink:href="#DejaVuSans-114"/>
      <use x="80.322266" xlink:href="#DejaVuSans-105"/>
      <use x="108.105469" xlink:href="#DejaVuSans-97"/>
      <use x="169.384766" xlink:href="#DejaVuSans-108"/>
     </g>
    </g>
   </g>
   <g id="matplotlib.axis_2">
    <g id="ytick_1">
     <g id="line2d_10">
      <defs>
       <path d="M 0 0 
L -9 0 
" id="m951376f776" style="stroke:#000000;stroke-width:1.875;"/>
      </defs>
      <g>
       <use style="stroke:#000000;stroke-width:1.875;" x="108" xlink:href="#m951376f776" y="363.174545"/>
      </g>
     </g>
     <g id="text_11">
      <!-- 0.0 -->
      <g transform="translate(69.259844 369.443256)scale(0.165 -0.165)">
       <defs>
        <path d="M 10.6875 12.40625 
L 21 12.40625 
L 21 0 
L 10.6875 0 
z
" id="DejaVuSans-46"/>
       </defs>
       <use xlink:href="#DejaVuSans-48"/>
       <use x="63.623047" xlink:href="#DejaVuSans-46"/>
       <use x="95.410156" xlink:href="#DejaVuSans-48"/>
      </g>
     </g>
    </g>
    <g id="ytick_2">
     <g id="line2d_11">
      <g>
       <use style="stroke:#000000;stroke-width:1.875;" x="108" xlink:href="#m951376f776" y="306.696623"/>
      </g>
     </g>
     <g id="text_12">
      <!-- 0.2 -->
      <g transform="translate(69.259844 312.965334)scale(0.165 -0.165)">
       <use xlink:href="#DejaVuSans-48"/>
       <use x="63.623047" xlink:href="#DejaVuSans-46"/>
       <use x="95.410156" xlink:href="#DejaVuSans-50"/>
      </g>
     </g>
    </g>
    <g id="ytick_3">
     <g id="line2d_12">
      <g>
       <use style="stroke:#000000;stroke-width:1.875;" x="108" xlink:href="#m951376f776" y="250.218701"/>
      </g>
     </g>
     <g id="text_13">
      <!-- 0.4 -->
      <g transform="translate(69.259844 256.487412)scale(0.165 -0.165)">
       <defs>
        <path d="M 37.796875 64.3125 
L 12.890625 25.390625 
L 37.796875 25.390625 
z
M 35.203125 72.90625 
L 47.609375 72.90625 
L 47.609375 25.390625 
L 58.015625 25.390625 
L 58.015625 17.1875 
L 47.609375 17.1875 
L 47.609375 0 
L 37.796875 0 
L 37.796875 17.1875 
L 4.890625 17.1875 
L 4.890625 26.703125 
z
" id="DejaVuSans-52"/>
       </defs>
       <use xlink:href="#DejaVuSans-48"/>
       <use x="63.623047" xlink:href="#DejaVuSans-46"/>
       <use x="95.410156" xlink:href="#DejaVuSans-52"/>
      </g>
     </g>
    </g>
    <g id="ytick_4">
     <g id="line2d_13">
      <g>
       <use style="stroke:#000000;stroke-width:1.875;" x="108" xlink:href="#m951376f776" y="193.740779"/>
      </g>
     </g>
     <g id="text_14">
      <!-- 0.6 -->
      <g transform="translate(69.259844 200.00949)scale(0.165 -0.165)">
       <defs>
        <path d="M 33.015625 40.375 
Q 26.375 40.375 22.484375 35.828125 
Q 18.609375 31.296875 18.609375 23.390625 
Q 18.609375 15.53125 22.484375 10.953125 
Q 26.375 6.390625 33.015625 6.390625 
Q 39.65625 6.390625 43.53125 10.953125 
Q 47.40625 15.53125 47.40625 23.390625 
Q 47.40625 31.296875 43.53125 35.828125 
Q 39.65625 40.375 33.015625 40.375 
z
M 52.59375 71.296875 
L 52.59375 62.3125 
Q 48.875 64.0625 45.09375 64.984375 
Q 41.3125 65.921875 37.59375 65.921875 
Q 27.828125 65.921875 22.671875 59.328125 
Q 17.53125 52.734375 16.796875 39.40625 
Q 19.671875 43.65625 24.015625 45.921875 
Q 28.375 48.1875 33.59375 48.1875 
Q 44.578125 48.1875 50.953125 41.515625 
Q 57.328125 34.859375 57.328125 23.390625 
Q 57.328125 12.15625 50.6875 5.359375 
Q 44.046875 -1.421875 33.015625 -1.421875 
Q 20.359375 -1.421875 13.671875 8.265625 
Q 6.984375 17.96875 6.984375 36.375 
Q 6.984375 53.65625 15.1875 63.9375 
Q 23.390625 74.21875 37.203125 74.21875 
Q 40.921875 74.21875 44.703125 73.484375 
Q 48.484375 72.75 52.59375 71.296875 
z
" id="DejaVuSans-54"/>
       </defs>
       <use xlink:href="#DejaVuSans-48"/>
       <use x="63.623047" xlink:href="#DejaVuSans-46"/>
       <use x="95.410156" xlink:href="#DejaVuSans-54"/>
      </g>
     </g>
    </g>
    <g id="ytick_5">
     <g id="line2d_14">
      <g>
       <use style="stroke:#000000;stroke-width:1.875;" x="108" xlink:href="#m951376f776" y="137.262857"/>
      </g>
     </g>
     <g id="text_15">
      <!-- 0.8 -->
      <g transform="translate(69.259844 143.531568)scale(0.165 -0.165)">
       <defs>
        <path d="M 31.78125 34.625 
Q 24.75 34.625 20.71875 30.859375 
Q 16.703125 27.09375 16.703125 20.515625 
Q 16.703125 13.921875 20.71875 10.15625 
Q 24.75 6.390625 31.78125 6.390625 
Q 38.8125 6.390625 42.859375 10.171875 
Q 46.921875 13.96875 46.921875 20.515625 
Q 46.921875 27.09375 42.890625 30.859375 
Q 38.875 34.625 31.78125 34.625 
z
M 21.921875 38.8125 
Q 15.578125 40.375 12.03125 44.71875 
Q 8.5 49.078125 8.5 55.328125 
Q 8.5 64.0625 14.71875 69.140625 
Q 20.953125 74.21875 31.78125 74.21875 
Q 42.671875 74.21875 48.875 69.140625 
Q 55.078125 64.0625 55.078125 55.328125 
Q 55.078125 49.078125 51.53125 44.71875 
Q 48 40.375 41.703125 38.8125 
Q 48.828125 37.15625 52.796875 32.3125 
Q 56.78125 27.484375 56.78125 20.515625 
Q 56.78125 9.90625 50.3125 4.234375 
Q 43.84375 -1.421875 31.78125 -1.421875 
Q 19.734375 -1.421875 13.25 4.234375 
Q 6.78125 9.90625 6.78125 20.515625 
Q 6.78125 27.484375 10.78125 32.3125 
Q 14.796875 37.15625 21.921875 38.8125 
z
M 18.3125 54.390625 
Q 18.3125 48.734375 21.84375 45.5625 
Q 25.390625 42.390625 31.78125 42.390625 
Q 38.140625 42.390625 41.71875 45.5625 
Q 45.3125 48.734375 45.3125 54.390625 
Q 45.3125 60.0625 41.71875 63.234375 
Q 38.140625 66.40625 31.78125 66.40625 
Q 25.390625 66.40625 21.84375 63.234375 
Q 18.3125 60.0625 18.3125 54.390625 
z
" id="DejaVuSans-56"/>
       </defs>
       <use xlink:href="#DejaVuSans-48"/>
       <use x="63.623047" xlink:href="#DejaVuSans-46"/>
       <use x="95.410156" xlink:href="#DejaVuSans-56"/>
      </g>
     </g>
    </g>
    <g id="ytick_6">
     <g id="line2d_15">
      <g>
       <use style="stroke:#000000;stroke-width:1.875;" x="108" xlink:href="#m951376f776" y="80.784935"/>
      </g>
     </g>
     <g id="text_16">
      <!-- 1.0 -->
      <g transform="translate(69.259844 87.053646)scale(0.165 -0.165)">
       <use xlink:href="#DejaVuSans-49"/>
       <use x="63.623047" xlink:href="#DejaVuSans-46"/>
       <use x="95.410156" xlink:href="#DejaVuSans-48"/>
      </g>
     </g>
    </g>
    <g id="text_17">
     <!-- prediction accuracy -->
     <g transform="translate(61.516406 303.537656)rotate(-90)scale(0.18 -0.18)">
      <defs>
       <path d="M 18.109375 8.203125 
L 18.109375 -20.796875 
L 9.078125 -20.796875 
L 9.078125 54.6875 
L 18.109375 54.6875 
L 18.109375 46.390625 
Q 20.953125 51.265625 25.265625 53.625 
Q 29.59375 56 35.59375 56 
Q 45.5625 56 51.78125 48.09375 
Q 58.015625 40.1875 58.015625 27.296875 
Q 58.015625 14.40625 51.78125 6.484375 
Q 45.5625 -1.421875 35.59375 -1.421875 
Q 29.59375 -1.421875 25.265625 0.953125 
Q 20.953125 3.328125 18.109375 8.203125 
z
M 48.6875 27.296875 
Q 48.6875 37.203125 44.609375 42.84375 
Q 40.53125 48.484375 33.40625 48.484375 
Q 26.265625 48.484375 22.1875 42.84375 
Q 18.109375 37.203125 18.109375 27.296875 
Q 18.109375 17.390625 22.1875 11.75 
Q 26.265625 6.109375 33.40625 6.109375 
Q 40.53125 6.109375 44.609375 11.75 
Q 48.6875 17.390625 48.6875 27.296875 
z
" id="DejaVuSans-112"/>
       <path d="M 56.203125 29.59375 
L 56.203125 25.203125 
L 14.890625 25.203125 
Q 15.484375 15.921875 20.484375 11.0625 
Q 25.484375 6.203125 34.421875 6.203125 
Q 39.59375 6.203125 44.453125 7.46875 
Q 49.3125 8.734375 54.109375 11.28125 
L 54.109375 2.78125 
Q 49.265625 0.734375 44.1875 -0.34375 
Q 39.109375 -1.421875 33.890625 -1.421875 
Q 20.796875 -1.421875 13.15625 6.1875 
Q 5.515625 13.8125 5.515625 26.8125 
Q 5.515625 40.234375 12.765625 48.109375 
Q 20.015625 56 32.328125 56 
Q 43.359375 56 49.78125 48.890625 
Q 56.203125 41.796875 56.203125 29.59375 
z
M 47.21875 32.234375 
Q 47.125 39.59375 43.09375 43.984375 
Q 39.0625 48.390625 32.421875 48.390625 
Q 24.90625 48.390625 20.390625 44.140625 
Q 15.875 39.890625 15.1875 32.171875 
z
" id="DejaVuSans-101"/>
       <path d="M 45.40625 46.390625 
L 45.40625 75.984375 
L 54.390625 75.984375 
L 54.390625 0 
L 45.40625 0 
L 45.40625 8.203125 
Q 42.578125 3.328125 38.25 0.953125 
Q 33.9375 -1.421875 27.875 -1.421875 
Q 17.96875 -1.421875 11.734375 6.484375 
Q 5.515625 14.40625 5.515625 27.296875 
Q 5.515625 40.1875 11.734375 48.09375 
Q 17.96875 56 27.875 56 
Q 33.9375 56 38.25 53.625 
Q 42.578125 51.265625 45.40625 46.390625 
z
M 14.796875 27.296875 
Q 14.796875 17.390625 18.875 11.75 
Q 22.953125 6.109375 30.078125 6.109375 
Q 37.203125 6.109375 41.296875 11.75 
Q 45.40625 17.390625 45.40625 27.296875 
Q 45.40625 37.203125 41.296875 42.84375 
Q 37.203125 48.484375 30.078125 48.484375 
Q 22.953125 48.484375 18.875 42.84375 
Q 14.796875 37.203125 14.796875 27.296875 
z
" id="DejaVuSans-100"/>
       <path d="M 48.78125 52.59375 
L 48.78125 44.1875 
Q 44.96875 46.296875 41.140625 47.34375 
Q 37.3125 48.390625 33.40625 48.390625 
Q 24.65625 48.390625 19.8125 42.84375 
Q 14.984375 37.3125 14.984375 27.296875 
Q 14.984375 17.28125 19.8125 11.734375 
Q 24.65625 6.203125 33.40625 6.203125 
Q 37.3125 6.203125 41.140625 7.25 
Q 44.96875 8.296875 48.78125 10.40625 
L 48.78125 2.09375 
Q 45.015625 0.34375 40.984375 -0.53125 
Q 36.96875 -1.421875 32.421875 -1.421875 
Q 20.0625 -1.421875 12.78125 6.34375 
Q 5.515625 14.109375 5.515625 27.296875 
Q 5.515625 40.671875 12.859375 48.328125 
Q 20.21875 56 33.015625 56 
Q 37.15625 56 41.109375 55.140625 
Q 45.0625 54.296875 48.78125 52.59375 
z
" id="DejaVuSans-99"/>
       <path d="M 30.609375 48.390625 
Q 23.390625 48.390625 19.1875 42.75 
Q 14.984375 37.109375 14.984375 27.296875 
Q 14.984375 17.484375 19.15625 11.84375 
Q 23.34375 6.203125 30.609375 6.203125 
Q 37.796875 6.203125 41.984375 11.859375 
Q 46.1875 17.53125 46.1875 27.296875 
Q 46.1875 37.015625 41.984375 42.703125 
Q 37.796875 48.390625 30.609375 48.390625 
z
M 30.609375 56 
Q 42.328125 56 49.015625 48.375 
Q 55.71875 40.765625 55.71875 27.296875 
Q 55.71875 13.875 49.015625 6.21875 
Q 42.328125 -1.421875 30.609375 -1.421875 
Q 18.84375 -1.421875 12.171875 6.21875 
Q 5.515625 13.875 5.515625 27.296875 
Q 5.515625 40.765625 12.171875 48.375 
Q 18.84375 56 30.609375 56 
z
" id="DejaVuSans-111"/>
       <path d="M 54.890625 33.015625 
L 54.890625 0 
L 45.90625 0 
L 45.90625 32.71875 
Q 45.90625 40.484375 42.875 44.328125 
Q 39.84375 48.1875 33.796875 48.1875 
Q 26.515625 48.1875 22.3125 43.546875 
Q 18.109375 38.921875 18.109375 30.90625 
L 18.109375 0 
L 9.078125 0 
L 9.078125 54.6875 
L 18.109375 54.6875 
L 18.109375 46.1875 
Q 21.34375 51.125 25.703125 53.5625 
Q 30.078125 56 35.796875 56 
Q 45.21875 56 50.046875 50.171875 
Q 54.890625 44.34375 54.890625 33.015625 
z
" id="DejaVuSans-110"/>
       <path id="DejaVuSans-32"/>
       <path d="M 8.5 21.578125 
L 8.5 54.6875 
L 17.484375 54.6875 
L 17.484375 21.921875 
Q 17.484375 14.15625 20.5 10.265625 
Q 23.53125 6.390625 29.59375 6.390625 
Q 36.859375 6.390625 41.078125 11.03125 
Q 45.3125 15.671875 45.3125 23.6875 
L 45.3125 54.6875 
L 54.296875 54.6875 
L 54.296875 0 
L 45.3125 0 
L 45.3125 8.40625 
Q 42.046875 3.421875 37.71875 1 
Q 33.40625 -1.421875 27.6875 -1.421875 
Q 18.265625 -1.421875 13.375 4.4375 
Q 8.5 10.296875 8.5 21.578125 
z
M 31.109375 56 
z
" id="DejaVuSans-117"/>
       <path d="M 32.171875 -5.078125 
Q 28.375 -14.84375 24.75 -17.8125 
Q 21.140625 -20.796875 15.09375 -20.796875 
L 7.90625 -20.796875 
L 7.90625 -13.28125 
L 13.1875 -13.28125 
Q 16.890625 -13.28125 18.9375 -11.515625 
Q 21 -9.765625 23.484375 -3.21875 
L 25.09375 0.875 
L 2.984375 54.6875 
L 12.5 54.6875 
L 29.59375 11.921875 
L 46.6875 54.6875 
L 56.203125 54.6875 
z
" id="DejaVuSans-121"/>
      </defs>
      <use xlink:href="#DejaVuSans-112"/>
      <use x="63.476562" xlink:href="#DejaVuSans-114"/>
      <use x="102.339844" xlink:href="#DejaVuSans-101"/>
      <use x="163.863281" xlink:href="#DejaVuSans-100"/>
      <use x="227.339844" xlink:href="#DejaVuSans-105"/>
      <use x="255.123047" xlink:href="#DejaVuSans-99"/>
      <use x="310.103516" xlink:href="#DejaVuSans-116"/>
      <use x="349.3125" xlink:href="#DejaVuSans-105"/>
      <use x="377.095703" xlink:href="#DejaVuSans-111"/>
      <use x="438.277344" xlink:href="#DejaVuSans-110"/>
      <use x="501.65625" xlink:href="#DejaVuSans-32"/>
      <use x="533.443359" xlink:href="#DejaVuSans-97"/>
      <use x="594.722656" xlink:href="#DejaVuSans-99"/>
      <use x="649.703125" xlink:href="#DejaVuSans-99"/>
      <use x="704.683594" xlink:href="#DejaVuSans-117"/>
      <use x="768.0625" xlink:href="#DejaVuSans-114"/>
      <use x="809.175781" xlink:href="#DejaVuSans-97"/>
      <use x="870.455078" xlink:href="#DejaVuSans-99"/>
      <use x="925.435547" xlink:href="#DejaVuSans-121"/>
     </g>
    </g>
   </g>
   <g id="line2d_16">
    <path clip-path="url(#pf332725b79)" d="M 138.436364 219.315687 
L 141.48 191.889044 
L 144.523636 139.99566 
L 147.567273 185.37368 
L 150.610909 158.214344 
L 153.654545 144.079158 
L 156.698182 179.621299 
L 159.741818 142.910649 
L 162.785455 118.436883 
L 165.829091 145.951768 
L 168.872727 130.091058 
L 171.916364 149.941574 
L 174.96 127.84987 
L 178.003636 114.402746 
L 181.047273 179.869009 
L 184.090909 123.861316 
L 187.134545 138.546446 
L 190.178182 93.620826 
L 193.221818 128.647581 
L 196.265455 161.467681 
L 199.309091 117.819638 
L 202.352727 152.665927 
L 205.396364 150.225003 
L 208.44 126.331646 
L 211.483636 142.910649 
L 214.527273 153.816731 
L 217.570909 142.397214 
L 220.614545 132.652415 
L 223.658182 147.53157 
L 226.701818 118.436883 
L 229.745455 131.615065 
L 232.789091 118.081676 
L 235.832727 102.097358 
L 238.876364 133.433845 
L 241.92 125.372768 
L 244.963636 156.425009 
L 248.007273 143.538182 
L 251.050909 126.331646 
L 254.094545 163.554304 
L 257.138182 104.317403 
L 260.181818 245.512208 
L 263.225455 190.86902 
L 266.269091 216.331948 
L 269.312727 142.397214 
L 272.356364 157.365168 
L 275.4 174.914805 
L 278.443636 171.362735 
L 281.487273 153.816731 
L 284.530909 120.418565 
L 287.574545 130.618396 
L 290.618182 166.510353 
L 293.661818 149.941574 
L 296.705455 114.007242 
L 299.749091 148.767619 
L 302.792727 155.378417 
L 305.836364 105.555954 
L 308.88 122.620433 
L 311.923636 121.126308 
L 314.967273 121.126308 
L 318.010909 129.66006 
L 321.054545 121.126308 
L 324.098182 109.502523 
L 327.141818 137.262857 
L 330.185455 117.618363 
L 333.229091 124.604013 
L 336.272727 114.402746 
L 339.316364 132.556364 
L 342.36 119.735226 
L 345.403636 115.464361 
L 348.447273 136.254323 
L 351.490909 140.966327 
L 357.578182 113.1903 
L 360.621818 106.456718 
L 363.665455 118.798921 
L 366.709091 114.007242 
L 369.752727 142.397214 
L 372.796364 155.704628 
L 375.84 138.308745 
L 378.883636 127.84987 
L 381.927273 140.235379 
L 384.970909 161.467681 
L 388.014545 148.312885 
L 391.058182 142.910649 
L 394.101818 150.225003 
L 397.145455 169.685368 
L 400.189091 136.155447 
L 403.232727 168.068996 
L 406.276364 157.800283 
L 409.32 132.652415 
L 412.363636 158.685517 
L 415.407273 154.206234 
L 418.450909 193.740779 
L 421.494545 125.081345 
L 424.538182 135.090629 
L 430.625455 184.519894 
L 436.712727 122.842962 
L 439.756364 162.769016 
L 442.8 182.925858 
L 445.843636 169.031688 
L 448.887273 139.99566 
L 451.930909 145.499221 
L 454.974545 155.794675 
L 458.018182 152.502931 
L 461.061818 149.941574 
L 464.105455 166.937698 
L 467.149091 119.075052 
L 470.192727 172.993787 
L 473.236364 138.415468 
L 476.28 183.965754 
L 479.323636 144.722205 
L 482.367273 145.499221 
L 485.410909 128.647581 
L 488.454545 141.692498 
L 491.498182 160.052194 
L 494.541818 159.854026 
L 497.585455 162.93464 
L 500.629091 116.083636 
L 503.672727 164.455931 
L 506.716364 176.595696 
L 509.76 144.00649 
L 512.803636 147.229549 
L 515.847273 130.091058 
L 518.890909 146.675844 
L 521.934545 140.521199 
L 524.978182 122.842962 
L 528.021818 138.145325 
L 531.065455 141.692498 
L 534.109091 144.079158 
L 537.152727 135.281176 
L 540.196364 142.397214 
L 543.24 195.832554 
L 546.283636 146.87612 
L 549.327273 189.396324 
L 552.370909 154.206234 
L 555.414545 162.243477 
L 558.458182 144.722205 
L 561.501818 132.918402 
L 564.545455 138.415468 
L 567.589091 156.088831 
L 570.632727 169.960602 
L 573.676364 196.766382 
L 576.72 172.993787 
L 579.763636 171.14961 
L 582.807273 148.767619 
L 585.850909 166.034629 
L 588.894545 150.050311 
L 591.938182 161.467681 
L 594.981818 139.616104 
L 598.025455 142.173981 
L 601.069091 180.451856 
L 604.112727 160.052194 
L 607.156364 115.363255 
L 610.2 202.600061 
L 613.243636 144.079158 
L 616.287273 162.93464 
L 619.330909 128.737888 
L 622.374545 151.382338 
L 625.418182 136.254323 
L 628.461818 183.472066 
L 631.505455 124.229491 
L 634.549091 134.065994 
L 637.592727 164.113017 
L 640.636364 155.378417 
L 643.68 155.704628 
L 646.723636 138.308745 
L 649.767273 138.308745 
L 652.810909 133.079307 
L 655.854545 126.889361 
L 658.898182 149.105002 
L 661.941818 154.206234 
L 664.985455 157.365168 
L 668.029091 103.931624 
L 671.072727 102.93314 
L 674.116364 162.243477 
L 677.16 157.800283 
L 680.203636 181.296491 
L 683.247273 127.84987 
L 686.290909 133.732987 
L 689.334545 131.211651 
L 692.378182 146.339666 
L 695.421818 114.671688 
L 698.465455 137.262857 
L 701.509091 130.326972 
L 704.552727 160.052194 
L 707.596364 183.472066 
L 710.64 126.994144 
L 713.683636 152.665927 
L 716.727273 153.997056 
L 719.770909 133.079307 
L 722.814545 158.685517 
L 725.858182 119.292609 
L 728.901818 139.394099 
L 731.945455 130.618396 
L 734.989091 124.604013 
L 738.032727 146.339666 
L 741.076364 145.499221 
L 744.12 154.206234 
L 744.12 154.206234 
" style="fill:none;stroke:#800080;stroke-linecap:square;stroke-width:2.25;"/>
   </g>
   <g id="line2d_17">
    <path clip-path="url(#pf332725b79)" d="M 108 221.97974 
L 777.6 221.97974 
" style="fill:none;stroke:#000000;stroke-linecap:square;stroke-width:2.25;"/>
   </g>
   <g id="patch_3">
    <path d="M 108 378 
L 108 51.84 
" style="fill:none;stroke:#000000;stroke-linecap:square;stroke-linejoin:miter;stroke-width:1.875;"/>
   </g>
   <g id="patch_4">
    <path d="M 777.6 378 
L 777.6 51.84 
" style="fill:none;stroke:#000000;stroke-linecap:square;stroke-linejoin:miter;stroke-width:1.875;"/>
   </g>
   <g id="patch_5">
    <path d="M 108 378 
L 777.6 378 
" style="fill:none;stroke:#000000;stroke-linecap:square;stroke-linejoin:miter;stroke-width:1.875;"/>
   </g>
   <g id="patch_6">
    <path d="M 108 51.84 
L 777.6 51.84 
" style="fill:none;stroke:#000000;stroke-linecap:square;stroke-linejoin:miter;stroke-width:1.875;"/>
   </g>
  </g>
 </g>
 <defs>
  <clipPath id="pf332725b79">
   <rect height="326.16" width="669.6" x="108" y="51.84"/>
  </clipPath>
 </defs>
</svg>
