<?xml version="1.0" encoding="utf-8" standalone="no"?>
<!DOCTYPE svg PUBLIC "-//W3C//DTD SVG 1.1//EN"
  "http://www.w3.org/Graphics/SVG/1.1/DTD/svg11.dtd">
<svg xmlns:xlink="http://www.w3.org/1999/xlink" width="864pt" height="432pt" viewBox="0 0 864 432" xmlns="http://www.w3.org/2000/svg" version="1.1">
 <metadata>
  <rdf:RDF xmlns:dc="http://purl.org/dc/elements/1.1/" xmlns:cc="http://creativecommons.org/ns#" xmlns:rdf="http://www.w3.org/1999/02/22-rdf-syntax-ns#">
   <cc:Work>
    <dc:type rdf:resource="http://purl.org/dc/dcmitype/StillImage"/>
    <dc:date>2023-05-02T17:26:43.772197</dc:date>
    <dc:format>image/svg+xml</dc:format>
    <dc:creator>
     <cc:Agent>
      <dc:title>Matplotlib v3.5.1, https://matplotlib.org/</dc:title>
     </cc:Agent>
    </dc:creator>
   </cc:Work>
  </rdf:RDF>
 </metadata>
 <defs>
  <style type="text/css">*{stroke-linejoin: round; stroke-linecap: butt}</style>
 </defs>
 <g id="figure_1">
  <g id="patch_1">
   <path d="M 0 432 
L 864 432 
L 864 0 
L 0 0 
L 0 432 
z
" style="fill: none"/>
  </g>
  <g id="axes_1">
   <g id="patch_2">
    <path d="M 108 378 
L 777.6 378 
L 777.6 51.84 
L 108 51.84 
z
" style="fill: #ffffff"/>
   </g>
   <g id="PolyCollection_1">
    <defs>
     <path id="m0627c8373d" d="M 276.960594 -75.143544 
L 273.839406 -75.143544 
L 273.447091 -78.074766 
L 272.981732 -81.005988 
L 272.436676 -83.937211 
L 271.806387 -86.868433 
L 271.086899 -89.799655 
L 270.276268 -92.730877 
L 269.374984 -95.6621 
L 268.386306 -98.593322 
L 267.316505 -101.524544 
L 266.174956 -104.455766 
L 264.974077 -107.386988 
L 263.729092 -110.318211 
L 262.457619 -113.249433 
L 261.179096 -116.180655 
L 259.914073 -119.111877 
L 258.68342 -122.0431 
L 257.507485 -124.974322 
L 256.405281 -127.905544 
L 255.393736 -130.836766 
L 254.487083 -133.767989 
L 253.696409 -136.699211 
L 253.029408 -139.630433 
L 252.490335 -142.561655 
L 252.080157 -145.492878 
L 251.796868 -148.4241 
L 251.635935 -151.355322 
L 251.590805 -154.286544 
L 251.653439 -157.217767 
L 251.814798 -160.148989 
L 252.065232 -163.080211 
L 252.394753 -166.011433 
L 252.793149 -168.942655 
L 253.249941 -171.873878 
L 253.754203 -174.8051 
L 254.294254 -177.736322 
L 254.85727 -180.667544 
L 255.428865 -183.598767 
L 255.992678 -186.529989 
L 256.530026 -189.461211 
L 257.019669 -192.392433 
L 257.437709 -195.323656 
L 257.757669 -198.254878 
L 257.950756 -201.1861 
L 257.986308 -204.117322 
L 257.832419 -207.048545 
L 257.456715 -209.979767 
L 256.827247 -212.910989 
L 255.913452 -215.842211 
L 254.68714 -218.773434 
L 253.123451 -221.704656 
L 251.201732 -224.635878 
L 248.906302 -227.5671 
L 246.227056 -230.498322 
L 243.159922 -233.429545 
L 239.707144 -236.360767 
L 235.877434 -239.291989 
L 231.686013 -242.223211 
L 227.154593 -245.154434 
L 222.311361 -248.085656 
L 217.190987 -251.016878 
L 211.834716 -253.9481 
L 206.29054 -256.879323 
L 200.613438 -259.810545 
L 194.865632 -262.741767 
L 189.116774 -265.672989 
L 183.443969 -268.604212 
L 177.931482 -271.535434 
L 172.670025 -274.466656 
L 167.755502 -277.397878 
L 163.287125 -280.329101 
L 159.36489 -283.260323 
L 156.086438 -286.191545 
L 153.543415 -289.122767 
L 151.817505 -292.053989 
L 150.976381 -294.985212 
L 151.069848 -297.916434 
L 152.126479 -300.847656 
L 154.151035 -303.778878 
L 157.122917 -306.710101 
L 160.995826 -309.641323 
L 165.698722 -312.572545 
L 171.13809 -315.503767 
L 177.201383 -318.43499 
L 183.761448 -321.366212 
L 190.68166 -324.297434 
L 197.821421 -327.228656 
L 205.041679 -330.159879 
L 212.210131 -333.091101 
L 219.2058 -336.022323 
L 225.922744 -338.953545 
L 232.272753 -341.884768 
L 238.186934 -344.81599 
L 243.616219 -347.747212 
L 248.530854 -350.678434 
L 252.919043 -353.609657 
L 256.784906 -356.540879 
L 260.145985 -359.472101 
L 263.030489 -362.403323 
L 265.474485 -365.334545 
L 285.325515 -365.334545 
L 285.325515 -365.334545 
L 287.769511 -362.403323 
L 290.654015 -359.472101 
L 294.015094 -356.540879 
L 297.880957 -353.609657 
L 302.269146 -350.678434 
L 307.183781 -347.747212 
L 312.613066 -344.81599 
L 318.527247 -341.884768 
L 324.877256 -338.953545 
L 331.5942 -336.022323 
L 338.589869 -333.091101 
L 345.758321 -330.159879 
L 352.978579 -327.228656 
L 360.11834 -324.297434 
L 367.038552 -321.366212 
L 373.598617 -318.43499 
L 379.66191 -315.503767 
L 385.101278 -312.572545 
L 389.804174 -309.641323 
L 393.677083 -306.710101 
L 396.648965 -303.778878 
L 398.673521 -300.847656 
L 399.730152 -297.916434 
L 399.823619 -294.985212 
L 398.982495 -292.053989 
L 397.256585 -289.122767 
L 394.713562 -286.191545 
L 391.43511 -283.260323 
L 387.512875 -280.329101 
L 383.044498 -277.397878 
L 378.129975 -274.466656 
L 372.868518 -271.535434 
L 367.356031 -268.604212 
L 361.683226 -265.672989 
L 355.934368 -262.741767 
L 350.186562 -259.810545 
L 344.50946 -256.879323 
L 338.965284 -253.9481 
L 333.609013 -251.016878 
L 328.488639 -248.085656 
L 323.645407 -245.154434 
L 319.113987 -242.223211 
L 314.922566 -239.291989 
L 311.092856 -236.360767 
L 307.640078 -233.429545 
L 304.572944 -230.498322 
L 301.893698 -227.5671 
L 299.598268 -224.635878 
L 297.676549 -221.704656 
L 296.11286 -218.773434 
L 294.886548 -215.842211 
L 293.972753 -212.910989 
L 293.343285 -209.979767 
L 292.967581 -207.048545 
L 292.813692 -204.117322 
L 292.849244 -201.1861 
L 293.042331 -198.254878 
L 293.362291 -195.323656 
L 293.780331 -192.392433 
L 294.269974 -189.461211 
L 294.807322 -186.529989 
L 295.371135 -183.598767 
L 295.94273 -180.667544 
L 296.505746 -177.736322 
L 297.045797 -174.8051 
L 297.550059 -171.873878 
L 298.006851 -168.942655 
L 298.405247 -166.011433 
L 298.734768 -163.080211 
L 298.985202 -160.148989 
L 299.146561 -157.217767 
L 299.209195 -154.286544 
L 299.164065 -151.355322 
L 299.003132 -148.4241 
L 298.719843 -145.492878 
L 298.309665 -142.561655 
L 297.770592 -139.630433 
L 297.103591 -136.699211 
L 296.312917 -133.767989 
L 295.406264 -130.836766 
L 294.394719 -127.905544 
L 293.292515 -124.974322 
L 292.11658 -122.0431 
L 290.885927 -119.111877 
L 289.620904 -116.180655 
L 288.342381 -113.249433 
L 287.070908 -110.318211 
L 285.825923 -107.386988 
L 284.625044 -104.455766 
L 283.483495 -101.524544 
L 282.413694 -98.593322 
L 281.425016 -95.6621 
L 280.523732 -92.730877 
L 279.713101 -89.799655 
L 278.993613 -86.868433 
L 278.363324 -83.937211 
L 277.818268 -81.005988 
L 277.352909 -78.074766 
L 276.960594 -75.143544 
z
" style="stroke: #3f3f3f; stroke-width: 2.25"/>
    </defs>
    <g clip-path="url(#pfd42d68089)">
     <use xlink:href="#m0627c8373d" x="0" y="432" style="fill: #3274a1; stroke: #3f3f3f; stroke-width: 2.25"/>
    </g>
   </g>
   <g id="PolyCollection_2">
    <defs>
     <path id="m5d42623e55" d="M 612.018147 -68.825455 
L 608.381853 -68.825455 
L 607.780804 -71.701627 
L 607.028673 -74.577799 
L 606.102866 -77.453971 
L 604.981405 -80.330143 
L 603.643804 -83.206315 
L 602.071797 -86.082487 
L 600.249802 -88.958659 
L 598.165016 -91.834831 
L 595.807047 -94.711003 
L 593.167115 -97.587175 
L 590.236894 -100.463347 
L 587.007185 -103.339519 
L 583.466698 -106.215691 
L 579.601266 -109.091863 
L 575.393825 -111.968035 
L 570.825449 -114.844207 
L 565.877602 -117.72038 
L 560.535632 -120.596552 
L 554.79329 -123.472724 
L 548.657906 -126.348896 
L 542.15564 -129.225068 
L 535.336145 -132.10124 
L 528.275941 -134.977412 
L 521.079872 -137.853584 
L 513.880192 -140.729756 
L 506.833054 -143.605928 
L 500.112452 -146.4821 
L 493.901969 -149.358272 
L 488.384895 -152.234444 
L 483.73352 -155.110616 
L 480.098446 -157.986788 
L 477.598842 -160.86296 
L 476.314447 -163.739132 
L 476.28 -166.615304 
L 477.482589 -169.491477 
L 479.862163 -172.367649 
L 483.315192 -175.243821 
L 487.701232 -178.119993 
L 492.851883 -180.996165 
L 498.581442 -183.872337 
L 504.698388 -186.748509 
L 511.016756 -189.624681 
L 517.366432 -192.500853 
L 523.601541 -195.377025 
L 529.606238 -198.253197 
L 535.29751 -201.129369 
L 540.624922 -204.005541 
L 545.567556 -206.881713 
L 550.128708 -209.757885 
L 554.329132 -212.634057 
L 558.19975 -215.510229 
L 561.77471 -218.386401 
L 565.08559 -221.262574 
L 568.157288 -224.138746 
L 571.005866 -227.014918 
L 573.638345 -229.89109 
L 576.05413 -232.767262 
L 578.247636 -235.643434 
L 580.211503 -238.519606 
L 581.93985 -241.395778 
L 583.431072 -244.27195 
L 584.689814 -247.148122 
L 585.727956 -250.024294 
L 586.564583 -252.900466 
L 587.225068 -255.776638 
L 587.739504 -258.65281 
L 588.140756 -261.528982 
L 588.462416 -264.405154 
L 588.736908 -267.281326 
L 588.993926 -270.157499 
L 589.259325 -273.033671 
L 589.554478 -275.909843 
L 589.896103 -278.786015 
L 590.296438 -281.662187 
L 590.76369 -284.538359 
L 591.30261 -287.414531 
L 591.915092 -290.290703 
L 592.600698 -293.166875 
L 593.357054 -296.043047 
L 594.180086 -298.919219 
L 595.064119 -301.795391 
L 596.00188 -304.671563 
L 596.984459 -307.547735 
L 598.001314 -310.423907 
L 599.040369 -313.300079 
L 600.08825 -316.176251 
L 601.130684 -319.052423 
L 602.153039 -321.928596 
L 603.140973 -324.804768 
L 604.081118 -327.68094 
L 604.961747 -330.557112 
L 605.773336 -333.433284 
L 606.508975 -336.309456 
L 607.164577 -339.185628 
L 607.738893 -342.0618 
L 608.23332 -344.937972 
L 608.651553 -347.814144 
L 608.999121 -350.690316 
L 609.282858 -353.566488 
L 611.117142 -353.566488 
L 611.117142 -353.566488 
L 611.400879 -350.690316 
L 611.748447 -347.814144 
L 612.16668 -344.937972 
L 612.661107 -342.0618 
L 613.235423 -339.185628 
L 613.891025 -336.309456 
L 614.626664 -333.433284 
L 615.438253 -330.557112 
L 616.318882 -327.68094 
L 617.259027 -324.804768 
L 618.246961 -321.928596 
L 619.269316 -319.052423 
L 620.31175 -316.176251 
L 621.359631 -313.300079 
L 622.398686 -310.423907 
L 623.415541 -307.547735 
L 624.39812 -304.671563 
L 625.335881 -301.795391 
L 626.219914 -298.919219 
L 627.042946 -296.043047 
L 627.799302 -293.166875 
L 628.484908 -290.290703 
L 629.09739 -287.414531 
L 629.63631 -284.538359 
L 630.103562 -281.662187 
L 630.503897 -278.786015 
L 630.845522 -275.909843 
L 631.140675 -273.033671 
L 631.406074 -270.157499 
L 631.663092 -267.281326 
L 631.937584 -264.405154 
L 632.259244 -261.528982 
L 632.660496 -258.65281 
L 633.174932 -255.776638 
L 633.835417 -252.900466 
L 634.672044 -250.024294 
L 635.710186 -247.148122 
L 636.968928 -244.27195 
L 638.46015 -241.395778 
L 640.188497 -238.519606 
L 642.152364 -235.643434 
L 644.34587 -232.767262 
L 646.761655 -229.89109 
L 649.394134 -227.014918 
L 652.242712 -224.138746 
L 655.31441 -221.262574 
L 658.62529 -218.386401 
L 662.20025 -215.510229 
L 666.070868 -212.634057 
L 670.271292 -209.757885 
L 674.832444 -206.881713 
L 679.775078 -204.005541 
L 685.10249 -201.129369 
L 690.793762 -198.253197 
L 696.798459 -195.377025 
L 703.033568 -192.500853 
L 709.383244 -189.624681 
L 715.701612 -186.748509 
L 721.818558 -183.872337 
L 727.548117 -180.996165 
L 732.698768 -178.119993 
L 737.084808 -175.243821 
L 740.537837 -172.367649 
L 742.917411 -169.491477 
L 744.12 -166.615304 
L 744.085553 -163.739132 
L 742.801158 -160.86296 
L 740.301554 -157.986788 
L 736.66648 -155.110616 
L 732.015105 -152.234444 
L 726.498031 -149.358272 
L 720.287548 -146.4821 
L 713.566946 -143.605928 
L 706.519808 -140.729756 
L 699.320128 -137.853584 
L 692.124059 -134.977412 
L 685.063855 -132.10124 
L 678.24436 -129.225068 
L 671.742094 -126.348896 
L 665.60671 -123.472724 
L 659.864368 -120.596552 
L 654.522398 -117.72038 
L 649.574551 -114.844207 
L 645.006175 -111.968035 
L 640.798734 -109.091863 
L 636.933302 -106.215691 
L 633.392815 -103.339519 
L 630.163106 -100.463347 
L 627.232885 -97.587175 
L 624.592953 -94.711003 
L 622.234984 -91.834831 
L 620.150198 -88.958659 
L 618.328203 -86.082487 
L 616.756196 -83.206315 
L 615.418595 -80.330143 
L 614.297134 -77.453971 
L 613.371327 -74.577799 
L 612.619196 -71.701627 
L 612.018147 -68.825455 
z
" style="stroke: #3f3f3f; stroke-width: 2.25"/>
    </defs>
    <g clip-path="url(#pfd42d68089)">
     <use xlink:href="#m5d42623e55" x="0" y="432" style="fill: #e1812c; stroke: #3f3f3f; stroke-width: 2.25"/>
    </g>
   </g>
   <g id="matplotlib.axis_1">
    <g id="xtick_1">
     <g id="line2d_1">
      <defs>
       <path id="mcaab579f17" d="M 0 0 
L 0 9 
" style="stroke: #000000; stroke-width: 1.875"/>
      </defs>
      <g>
       <use xlink:href="#mcaab579f17" x="275.4" y="378" style="stroke: #000000; stroke-width: 1.875"/>
      </g>
     </g>
     <g id="text_1">
      <!-- blocked -->
      <g transform="translate(243.494414 403.037422)scale(0.165 -0.165)">
       <defs>
        <path id="DejaVuSans-62" d="M 3116 1747 
Q 3116 2381 2855 2742 
Q 2594 3103 2138 3103 
Q 1681 3103 1420 2742 
Q 1159 2381 1159 1747 
Q 1159 1113 1420 752 
Q 1681 391 2138 391 
Q 2594 391 2855 752 
Q 3116 1113 3116 1747 
z
M 1159 2969 
Q 1341 3281 1617 3432 
Q 1894 3584 2278 3584 
Q 2916 3584 3314 3078 
Q 3713 2572 3713 1747 
Q 3713 922 3314 415 
Q 2916 -91 2278 -91 
Q 1894 -91 1617 61 
Q 1341 213 1159 525 
L 1159 0 
L 581 0 
L 581 4863 
L 1159 4863 
L 1159 2969 
z
" transform="scale(0.015625)"/>
        <path id="DejaVuSans-6c" d="M 603 4863 
L 1178 4863 
L 1178 0 
L 603 0 
L 603 4863 
z
" transform="scale(0.015625)"/>
        <path id="DejaVuSans-6f" d="M 1959 3097 
Q 1497 3097 1228 2736 
Q 959 2375 959 1747 
Q 959 1119 1226 758 
Q 1494 397 1959 397 
Q 2419 397 2687 759 
Q 2956 1122 2956 1747 
Q 2956 2369 2687 2733 
Q 2419 3097 1959 3097 
z
M 1959 3584 
Q 2709 3584 3137 3096 
Q 3566 2609 3566 1747 
Q 3566 888 3137 398 
Q 2709 -91 1959 -91 
Q 1206 -91 779 398 
Q 353 888 353 1747 
Q 353 2609 779 3096 
Q 1206 3584 1959 3584 
z
" transform="scale(0.015625)"/>
        <path id="DejaVuSans-63" d="M 3122 3366 
L 3122 2828 
Q 2878 2963 2633 3030 
Q 2388 3097 2138 3097 
Q 1578 3097 1268 2742 
Q 959 2388 959 1747 
Q 959 1106 1268 751 
Q 1578 397 2138 397 
Q 2388 397 2633 464 
Q 2878 531 3122 666 
L 3122 134 
Q 2881 22 2623 -34 
Q 2366 -91 2075 -91 
Q 1284 -91 818 406 
Q 353 903 353 1747 
Q 353 2603 823 3093 
Q 1294 3584 2113 3584 
Q 2378 3584 2631 3529 
Q 2884 3475 3122 3366 
z
" transform="scale(0.015625)"/>
        <path id="DejaVuSans-6b" d="M 581 4863 
L 1159 4863 
L 1159 1991 
L 2875 3500 
L 3609 3500 
L 1753 1863 
L 3688 0 
L 2938 0 
L 1159 1709 
L 1159 0 
L 581 0 
L 581 4863 
z
" transform="scale(0.015625)"/>
        <path id="DejaVuSans-65" d="M 3597 1894 
L 3597 1613 
L 953 1613 
Q 991 1019 1311 708 
Q 1631 397 2203 397 
Q 2534 397 2845 478 
Q 3156 559 3463 722 
L 3463 178 
Q 3153 47 2828 -22 
Q 2503 -91 2169 -91 
Q 1331 -91 842 396 
Q 353 884 353 1716 
Q 353 2575 817 3079 
Q 1281 3584 2069 3584 
Q 2775 3584 3186 3129 
Q 3597 2675 3597 1894 
z
M 3022 2063 
Q 3016 2534 2758 2815 
Q 2500 3097 2075 3097 
Q 1594 3097 1305 2825 
Q 1016 2553 972 2059 
L 3022 2063 
z
" transform="scale(0.015625)"/>
        <path id="DejaVuSans-64" d="M 2906 2969 
L 2906 4863 
L 3481 4863 
L 3481 0 
L 2906 0 
L 2906 525 
Q 2725 213 2448 61 
Q 2172 -91 1784 -91 
Q 1150 -91 751 415 
Q 353 922 353 1747 
Q 353 2572 751 3078 
Q 1150 3584 1784 3584 
Q 2172 3584 2448 3432 
Q 2725 3281 2906 2969 
z
M 947 1747 
Q 947 1113 1208 752 
Q 1469 391 1925 391 
Q 2381 391 2643 752 
Q 2906 1113 2906 1747 
Q 2906 2381 2643 2742 
Q 2381 3103 1925 3103 
Q 1469 3103 1208 2742 
Q 947 2381 947 1747 
z
" transform="scale(0.015625)"/>
       </defs>
       <use xlink:href="#DejaVuSans-62"/>
       <use xlink:href="#DejaVuSans-6c" x="63.476562"/>
       <use xlink:href="#DejaVuSans-6f" x="91.259766"/>
       <use xlink:href="#DejaVuSans-63" x="152.441406"/>
       <use xlink:href="#DejaVuSans-6b" x="207.421875"/>
       <use xlink:href="#DejaVuSans-65" x="261.707031"/>
       <use xlink:href="#DejaVuSans-64" x="323.230469"/>
      </g>
     </g>
    </g>
    <g id="xtick_2">
     <g id="line2d_2">
      <g>
       <use xlink:href="#mcaab579f17" x="610.2" y="378" style="stroke: #000000; stroke-width: 1.875"/>
      </g>
     </g>
     <g id="text_2">
      <!-- interleaved -->
      <g transform="translate(563.356758 403.037422)scale(0.165 -0.165)">
       <defs>
        <path id="DejaVuSans-69" d="M 603 3500 
L 1178 3500 
L 1178 0 
L 603 0 
L 603 3500 
z
M 603 4863 
L 1178 4863 
L 1178 4134 
L 603 4134 
L 603 4863 
z
" transform="scale(0.015625)"/>
        <path id="DejaVuSans-6e" d="M 3513 2113 
L 3513 0 
L 2938 0 
L 2938 2094 
Q 2938 2591 2744 2837 
Q 2550 3084 2163 3084 
Q 1697 3084 1428 2787 
Q 1159 2491 1159 1978 
L 1159 0 
L 581 0 
L 581 3500 
L 1159 3500 
L 1159 2956 
Q 1366 3272 1645 3428 
Q 1925 3584 2291 3584 
Q 2894 3584 3203 3211 
Q 3513 2838 3513 2113 
z
" transform="scale(0.015625)"/>
        <path id="DejaVuSans-74" d="M 1172 4494 
L 1172 3500 
L 2356 3500 
L 2356 3053 
L 1172 3053 
L 1172 1153 
Q 1172 725 1289 603 
Q 1406 481 1766 481 
L 2356 481 
L 2356 0 
L 1766 0 
Q 1100 0 847 248 
Q 594 497 594 1153 
L 594 3053 
L 172 3053 
L 172 3500 
L 594 3500 
L 594 4494 
L 1172 4494 
z
" transform="scale(0.015625)"/>
        <path id="DejaVuSans-72" d="M 2631 2963 
Q 2534 3019 2420 3045 
Q 2306 3072 2169 3072 
Q 1681 3072 1420 2755 
Q 1159 2438 1159 1844 
L 1159 0 
L 581 0 
L 581 3500 
L 1159 3500 
L 1159 2956 
Q 1341 3275 1631 3429 
Q 1922 3584 2338 3584 
Q 2397 3584 2469 3576 
Q 2541 3569 2628 3553 
L 2631 2963 
z
" transform="scale(0.015625)"/>
        <path id="DejaVuSans-61" d="M 2194 1759 
Q 1497 1759 1228 1600 
Q 959 1441 959 1056 
Q 959 750 1161 570 
Q 1363 391 1709 391 
Q 2188 391 2477 730 
Q 2766 1069 2766 1631 
L 2766 1759 
L 2194 1759 
z
M 3341 1997 
L 3341 0 
L 2766 0 
L 2766 531 
Q 2569 213 2275 61 
Q 1981 -91 1556 -91 
Q 1019 -91 701 211 
Q 384 513 384 1019 
Q 384 1609 779 1909 
Q 1175 2209 1959 2209 
L 2766 2209 
L 2766 2266 
Q 2766 2663 2505 2880 
Q 2244 3097 1772 3097 
Q 1472 3097 1187 3025 
Q 903 2953 641 2809 
L 641 3341 
Q 956 3463 1253 3523 
Q 1550 3584 1831 3584 
Q 2591 3584 2966 3190 
Q 3341 2797 3341 1997 
z
" transform="scale(0.015625)"/>
        <path id="DejaVuSans-76" d="M 191 3500 
L 800 3500 
L 1894 563 
L 2988 3500 
L 3597 3500 
L 2284 0 
L 1503 0 
L 191 3500 
z
" transform="scale(0.015625)"/>
       </defs>
       <use xlink:href="#DejaVuSans-69"/>
       <use xlink:href="#DejaVuSans-6e" x="27.783203"/>
       <use xlink:href="#DejaVuSans-74" x="91.162109"/>
       <use xlink:href="#DejaVuSans-65" x="130.371094"/>
       <use xlink:href="#DejaVuSans-72" x="191.894531"/>
       <use xlink:href="#DejaVuSans-6c" x="233.007812"/>
       <use xlink:href="#DejaVuSans-65" x="260.791016"/>
       <use xlink:href="#DejaVuSans-61" x="322.314453"/>
       <use xlink:href="#DejaVuSans-76" x="383.59375"/>
       <use xlink:href="#DejaVuSans-65" x="442.773438"/>
       <use xlink:href="#DejaVuSans-64" x="504.296875"/>
      </g>
     </g>
    </g>
    <g id="text_3">
     <!-- condition -->
     <g transform="translate(401.187656 424.146094)scale(0.18 -0.18)">
      <use xlink:href="#DejaVuSans-63"/>
      <use xlink:href="#DejaVuSans-6f" x="54.980469"/>
      <use xlink:href="#DejaVuSans-6e" x="116.162109"/>
      <use xlink:href="#DejaVuSans-64" x="179.541016"/>
      <use xlink:href="#DejaVuSans-69" x="243.017578"/>
      <use xlink:href="#DejaVuSans-74" x="270.800781"/>
      <use xlink:href="#DejaVuSans-69" x="310.009766"/>
      <use xlink:href="#DejaVuSans-6f" x="337.792969"/>
      <use xlink:href="#DejaVuSans-6e" x="398.974609"/>
     </g>
    </g>
   </g>
   <g id="matplotlib.axis_2">
    <g id="ytick_1">
     <g id="line2d_3">
      <defs>
       <path id="m49cc77baf4" d="M 0 0 
L -9 0 
" style="stroke: #000000; stroke-width: 1.875"/>
      </defs>
      <g>
       <use xlink:href="#m49cc77baf4" x="108" y="354.232016" style="stroke: #000000; stroke-width: 1.875"/>
      </g>
     </g>
     <g id="text_4">
      <!-- 0.2 -->
      <g transform="translate(69.259844 360.500727)scale(0.165 -0.165)">
       <defs>
        <path id="DejaVuSans-30" d="M 2034 4250 
Q 1547 4250 1301 3770 
Q 1056 3291 1056 2328 
Q 1056 1369 1301 889 
Q 1547 409 2034 409 
Q 2525 409 2770 889 
Q 3016 1369 3016 2328 
Q 3016 3291 2770 3770 
Q 2525 4250 2034 4250 
z
M 2034 4750 
Q 2819 4750 3233 4129 
Q 3647 3509 3647 2328 
Q 3647 1150 3233 529 
Q 2819 -91 2034 -91 
Q 1250 -91 836 529 
Q 422 1150 422 2328 
Q 422 3509 836 4129 
Q 1250 4750 2034 4750 
z
" transform="scale(0.015625)"/>
        <path id="DejaVuSans-2e" d="M 684 794 
L 1344 794 
L 1344 0 
L 684 0 
L 684 794 
z
" transform="scale(0.015625)"/>
        <path id="DejaVuSans-32" d="M 1228 531 
L 3431 531 
L 3431 0 
L 469 0 
L 469 531 
Q 828 903 1448 1529 
Q 2069 2156 2228 2338 
Q 2531 2678 2651 2914 
Q 2772 3150 2772 3378 
Q 2772 3750 2511 3984 
Q 2250 4219 1831 4219 
Q 1534 4219 1204 4116 
Q 875 4013 500 3803 
L 500 4441 
Q 881 4594 1212 4672 
Q 1544 4750 1819 4750 
Q 2544 4750 2975 4387 
Q 3406 4025 3406 3419 
Q 3406 3131 3298 2873 
Q 3191 2616 2906 2266 
Q 2828 2175 2409 1742 
Q 1991 1309 1228 531 
z
" transform="scale(0.015625)"/>
       </defs>
       <use xlink:href="#DejaVuSans-30"/>
       <use xlink:href="#DejaVuSans-2e" x="63.623047"/>
       <use xlink:href="#DejaVuSans-32" x="95.410156"/>
      </g>
     </g>
    </g>
    <g id="ytick_2">
     <g id="line2d_4">
      <g>
       <use xlink:href="#m49cc77baf4" x="108" y="296.219848" style="stroke: #000000; stroke-width: 1.875"/>
      </g>
     </g>
     <g id="text_5">
      <!-- 0.4 -->
      <g transform="translate(69.259844 302.488559)scale(0.165 -0.165)">
       <defs>
        <path id="DejaVuSans-34" d="M 2419 4116 
L 825 1625 
L 2419 1625 
L 2419 4116 
z
M 2253 4666 
L 3047 4666 
L 3047 1625 
L 3713 1625 
L 3713 1100 
L 3047 1100 
L 3047 0 
L 2419 0 
L 2419 1100 
L 313 1100 
L 313 1709 
L 2253 4666 
z
" transform="scale(0.015625)"/>
       </defs>
       <use xlink:href="#DejaVuSans-30"/>
       <use xlink:href="#DejaVuSans-2e" x="63.623047"/>
       <use xlink:href="#DejaVuSans-34" x="95.410156"/>
      </g>
     </g>
    </g>
    <g id="ytick_3">
     <g id="line2d_5">
      <g>
       <use xlink:href="#m49cc77baf4" x="108" y="238.207679" style="stroke: #000000; stroke-width: 1.875"/>
      </g>
     </g>
     <g id="text_6">
      <!-- 0.6 -->
      <g transform="translate(69.259844 244.47639)scale(0.165 -0.165)">
       <defs>
        <path id="DejaVuSans-36" d="M 2113 2584 
Q 1688 2584 1439 2293 
Q 1191 2003 1191 1497 
Q 1191 994 1439 701 
Q 1688 409 2113 409 
Q 2538 409 2786 701 
Q 3034 994 3034 1497 
Q 3034 2003 2786 2293 
Q 2538 2584 2113 2584 
z
M 3366 4563 
L 3366 3988 
Q 3128 4100 2886 4159 
Q 2644 4219 2406 4219 
Q 1781 4219 1451 3797 
Q 1122 3375 1075 2522 
Q 1259 2794 1537 2939 
Q 1816 3084 2150 3084 
Q 2853 3084 3261 2657 
Q 3669 2231 3669 1497 
Q 3669 778 3244 343 
Q 2819 -91 2113 -91 
Q 1303 -91 875 529 
Q 447 1150 447 2328 
Q 447 3434 972 4092 
Q 1497 4750 2381 4750 
Q 2619 4750 2861 4703 
Q 3103 4656 3366 4563 
z
" transform="scale(0.015625)"/>
       </defs>
       <use xlink:href="#DejaVuSans-30"/>
       <use xlink:href="#DejaVuSans-2e" x="63.623047"/>
       <use xlink:href="#DejaVuSans-36" x="95.410156"/>
      </g>
     </g>
    </g>
    <g id="ytick_4">
     <g id="line2d_6">
      <g>
       <use xlink:href="#m49cc77baf4" x="108" y="180.195511" style="stroke: #000000; stroke-width: 1.875"/>
      </g>
     </g>
     <g id="text_7">
      <!-- 0.8 -->
      <g transform="translate(69.259844 186.464222)scale(0.165 -0.165)">
       <defs>
        <path id="DejaVuSans-38" d="M 2034 2216 
Q 1584 2216 1326 1975 
Q 1069 1734 1069 1313 
Q 1069 891 1326 650 
Q 1584 409 2034 409 
Q 2484 409 2743 651 
Q 3003 894 3003 1313 
Q 3003 1734 2745 1975 
Q 2488 2216 2034 2216 
z
M 1403 2484 
Q 997 2584 770 2862 
Q 544 3141 544 3541 
Q 544 4100 942 4425 
Q 1341 4750 2034 4750 
Q 2731 4750 3128 4425 
Q 3525 4100 3525 3541 
Q 3525 3141 3298 2862 
Q 3072 2584 2669 2484 
Q 3125 2378 3379 2068 
Q 3634 1759 3634 1313 
Q 3634 634 3220 271 
Q 2806 -91 2034 -91 
Q 1263 -91 848 271 
Q 434 634 434 1313 
Q 434 1759 690 2068 
Q 947 2378 1403 2484 
z
M 1172 3481 
Q 1172 3119 1398 2916 
Q 1625 2713 2034 2713 
Q 2441 2713 2670 2916 
Q 2900 3119 2900 3481 
Q 2900 3844 2670 4047 
Q 2441 4250 2034 4250 
Q 1625 4250 1398 4047 
Q 1172 3844 1172 3481 
z
" transform="scale(0.015625)"/>
       </defs>
       <use xlink:href="#DejaVuSans-30"/>
       <use xlink:href="#DejaVuSans-2e" x="63.623047"/>
       <use xlink:href="#DejaVuSans-38" x="95.410156"/>
      </g>
     </g>
    </g>
    <g id="ytick_5">
     <g id="line2d_7">
      <g>
       <use xlink:href="#m49cc77baf4" x="108" y="122.183342" style="stroke: #000000; stroke-width: 1.875"/>
      </g>
     </g>
     <g id="text_8">
      <!-- 1.0 -->
      <g transform="translate(69.259844 128.452053)scale(0.165 -0.165)">
       <defs>
        <path id="DejaVuSans-31" d="M 794 531 
L 1825 531 
L 1825 4091 
L 703 3866 
L 703 4441 
L 1819 4666 
L 2450 4666 
L 2450 531 
L 3481 531 
L 3481 0 
L 794 0 
L 794 531 
z
" transform="scale(0.015625)"/>
       </defs>
       <use xlink:href="#DejaVuSans-31"/>
       <use xlink:href="#DejaVuSans-2e" x="63.623047"/>
       <use xlink:href="#DejaVuSans-30" x="95.410156"/>
      </g>
     </g>
    </g>
    <g id="ytick_6">
     <g id="line2d_8">
      <g>
       <use xlink:href="#m49cc77baf4" x="108" y="64.171174" style="stroke: #000000; stroke-width: 1.875"/>
      </g>
     </g>
     <g id="text_9">
      <!-- 1.2 -->
      <g transform="translate(69.259844 70.439885)scale(0.165 -0.165)">
       <use xlink:href="#DejaVuSans-31"/>
       <use xlink:href="#DejaVuSans-2e" x="63.623047"/>
       <use xlink:href="#DejaVuSans-32" x="95.410156"/>
      </g>
     </g>
    </g>
    <g id="text_10">
     <!-- prediction accuracy -->
     <g transform="translate(61.516406 303.537656)rotate(-90)scale(0.18 -0.18)">
      <defs>
       <path id="DejaVuSans-70" d="M 1159 525 
L 1159 -1331 
L 581 -1331 
L 581 3500 
L 1159 3500 
L 1159 2969 
Q 1341 3281 1617 3432 
Q 1894 3584 2278 3584 
Q 2916 3584 3314 3078 
Q 3713 2572 3713 1747 
Q 3713 922 3314 415 
Q 2916 -91 2278 -91 
Q 1894 -91 1617 61 
Q 1341 213 1159 525 
z
M 3116 1747 
Q 3116 2381 2855 2742 
Q 2594 3103 2138 3103 
Q 1681 3103 1420 2742 
Q 1159 2381 1159 1747 
Q 1159 1113 1420 752 
Q 1681 391 2138 391 
Q 2594 391 2855 752 
Q 3116 1113 3116 1747 
z
" transform="scale(0.015625)"/>
       <path id="DejaVuSans-20" transform="scale(0.015625)"/>
       <path id="DejaVuSans-75" d="M 544 1381 
L 544 3500 
L 1119 3500 
L 1119 1403 
Q 1119 906 1312 657 
Q 1506 409 1894 409 
Q 2359 409 2629 706 
Q 2900 1003 2900 1516 
L 2900 3500 
L 3475 3500 
L 3475 0 
L 2900 0 
L 2900 538 
Q 2691 219 2414 64 
Q 2138 -91 1772 -91 
Q 1169 -91 856 284 
Q 544 659 544 1381 
z
M 1991 3584 
L 1991 3584 
z
" transform="scale(0.015625)"/>
       <path id="DejaVuSans-79" d="M 2059 -325 
Q 1816 -950 1584 -1140 
Q 1353 -1331 966 -1331 
L 506 -1331 
L 506 -850 
L 844 -850 
Q 1081 -850 1212 -737 
Q 1344 -625 1503 -206 
L 1606 56 
L 191 3500 
L 800 3500 
L 1894 763 
L 2988 3500 
L 3597 3500 
L 2059 -325 
z
" transform="scale(0.015625)"/>
      </defs>
      <use xlink:href="#DejaVuSans-70"/>
      <use xlink:href="#DejaVuSans-72" x="63.476562"/>
      <use xlink:href="#DejaVuSans-65" x="102.339844"/>
      <use xlink:href="#DejaVuSans-64" x="163.863281"/>
      <use xlink:href="#DejaVuSans-69" x="227.339844"/>
      <use xlink:href="#DejaVuSans-63" x="255.123047"/>
      <use xlink:href="#DejaVuSans-74" x="310.103516"/>
      <use xlink:href="#DejaVuSans-69" x="349.3125"/>
      <use xlink:href="#DejaVuSans-6f" x="377.095703"/>
      <use xlink:href="#DejaVuSans-6e" x="438.277344"/>
      <use xlink:href="#DejaVuSans-20" x="501.65625"/>
      <use xlink:href="#DejaVuSans-61" x="533.443359"/>
      <use xlink:href="#DejaVuSans-63" x="594.722656"/>
      <use xlink:href="#DejaVuSans-63" x="649.703125"/>
      <use xlink:href="#DejaVuSans-75" x="704.683594"/>
      <use xlink:href="#DejaVuSans-72" x="768.0625"/>
      <use xlink:href="#DejaVuSans-61" x="809.175781"/>
      <use xlink:href="#DejaVuSans-63" x="870.455078"/>
      <use xlink:href="#DejaVuSans-79" x="925.435547"/>
     </g>
    </g>
   </g>
   <g id="line2d_9">
    <path d="M 275.4 232.20642 
L 275.4 122.183342 
" clip-path="url(#pfd42d68089)" style="fill: none; stroke: #3f3f3f; stroke-width: 2.25; stroke-linecap: square"/>
   </g>
   <g id="line2d_10">
    <path d="M 275.4 170.526816 
L 275.4 122.183342 
" clip-path="url(#pfd42d68089)" style="fill: none; stroke: #3f3f3f; stroke-width: 6.75; stroke-linecap: square"/>
   </g>
   <g id="line2d_11">
    <path d="M 610.2 319.424715 
L 610.2 168.967349 
" clip-path="url(#pfd42d68089)" style="fill: none; stroke: #3f3f3f; stroke-width: 2.25; stroke-linecap: square"/>
   </g>
   <g id="line2d_12">
    <path d="M 610.2 278.985713 
L 610.2 233.013041 
" clip-path="url(#pfd42d68089)" style="fill: none; stroke: #3f3f3f; stroke-width: 6.75; stroke-linecap: square"/>
   </g>
   <g id="patch_3">
    <path d="M 108 378 
L 108 51.84 
" style="fill: none; stroke: #000000; stroke-width: 1.875; stroke-linejoin: miter; stroke-linecap: square"/>
   </g>
   <g id="patch_4">
    <path d="M 777.6 378 
L 777.6 51.84 
" style="fill: none; stroke: #000000; stroke-width: 1.875; stroke-linejoin: miter; stroke-linecap: square"/>
   </g>
   <g id="patch_5">
    <path d="M 108 378 
L 777.6 378 
" style="fill: none; stroke: #000000; stroke-width: 1.875; stroke-linejoin: miter; stroke-linecap: square"/>
   </g>
   <g id="patch_6">
    <path d="M 108 51.84 
L 777.6 51.84 
" style="fill: none; stroke: #000000; stroke-width: 1.875; stroke-linejoin: miter; stroke-linecap: square"/>
   </g>
   <g id="PathCollection_1">
    <defs>
     <path id="mdfe747f28c" d="M 0 2.25 
C 0.596707 2.25 1.169055 2.012926 1.59099 1.59099 
C 2.012926 1.169055 2.25 0.596707 2.25 0 
C 2.25 -0.596707 2.012926 -1.169055 1.59099 -1.59099 
C 1.169055 -2.012926 0.596707 -2.25 0 -2.25 
C -0.596707 -2.25 -1.169055 -2.012926 -1.59099 -1.59099 
C -2.012926 -1.169055 -2.25 -0.596707 -2.25 0 
C -2.25 0.596707 -2.012926 1.169055 -1.59099 1.59099 
C -1.169055 2.012926 -0.596707 2.25 0 2.25 
z
" style="stroke: #3f3f3f; stroke-width: 1.5"/>
    </defs>
    <g clip-path="url(#pfd42d68089)">
     <use xlink:href="#mdfe747f28c" x="275.4" y="133.785776" style="fill: #ffffff; stroke: #3f3f3f; stroke-width: 1.5"/>
    </g>
   </g>
   <g id="PathCollection_2">
    <g clip-path="url(#pfd42d68089)">
     <use xlink:href="#mdfe747f28c" x="610.2" y="261.842266" style="fill: #ffffff; stroke: #3f3f3f; stroke-width: 1.5"/>
    </g>
   </g>
  </g>
 </g>
 <defs>
  <clipPath id="pfd42d68089">
   <rect x="108" y="51.84" width="669.6" height="326.16"/>
  </clipPath>
 </defs>
</svg>
