<?xml version="1.0" encoding="utf-8" standalone="no"?>
<!DOCTYPE svg PUBLIC "-//W3C//DTD SVG 1.1//EN"
  "http://www.w3.org/Graphics/SVG/1.1/DTD/svg11.dtd">
<svg xmlns:xlink="http://www.w3.org/1999/xlink" width="864pt" height="432pt" viewBox="0 0 864 432" xmlns="http://www.w3.org/2000/svg" version="1.1">
 <metadata>
  <rdf:RDF xmlns:dc="http://purl.org/dc/elements/1.1/" xmlns:cc="http://creativecommons.org/ns#" xmlns:rdf="http://www.w3.org/1999/02/22-rdf-syntax-ns#">
   <cc:Work>
    <dc:type rdf:resource="http://purl.org/dc/dcmitype/StillImage"/>
    <dc:date>2023-05-02T17:26:43.029679</dc:date>
    <dc:format>image/svg+xml</dc:format>
    <dc:creator>
     <cc:Agent>
      <dc:title>Matplotlib v3.5.1, https://matplotlib.org/</dc:title>
     </cc:Agent>
    </dc:creator>
   </cc:Work>
  </rdf:RDF>
 </metadata>
 <defs>
  <style type="text/css">*{stroke-linejoin: round; stroke-linecap: butt}</style>
 </defs>
 <g id="figure_1">
  <g id="patch_1">
   <path d="M 0 432 
L 864 432 
L 864 0 
L 0 0 
L 0 432 
z
" style="fill: none"/>
  </g>
  <g id="axes_1">
   <g id="patch_2">
    <path d="M 108 378 
L 777.6 378 
L 777.6 51.84 
L 108 51.84 
z
" style="fill: #ffffff"/>
   </g>
   <g id="PolyCollection_1">
    <defs>
     <path id="m6c6b64910d" d="M 138.436364 -224.13974 
L 138.436364 -158.248831 
L 141.48 -219.757833 
L 144.523636 -166.575704 
L 147.567273 -195.413901 
L 150.610909 -148.247532 
L 153.654545 -158.001121 
L 156.698182 -146.726037 
L 159.741818 -152.923062 
L 162.785455 -180.807541 
L 165.829091 -155.714565 
L 168.872727 -169.337011 
L 171.916364 -217.199657 
L 174.96 -187.958571 
L 178.003636 -170.309221 
L 181.047273 -186.839023 
L 184.090909 -142.681199 
L 187.134545 -242.222584 
L 190.178182 -152.153536 
L 193.221818 -156.463609 
L 196.265455 -207.848032 
L 199.309091 -201.714683 
L 202.352727 -146.726037 
L 205.396364 -212.334929 
L 208.44 -153.990575 
L 211.483636 -192.370909 
L 214.527273 -149.5082 
L 217.570909 -194.331948 
L 220.614545 -193.268334 
L 223.658182 -192.680547 
L 226.701818 -168.492376 
L 229.745455 -199.159121 
L 232.789091 -174.123275 
L 235.832727 -222.478625 
L 238.876364 -171.512586 
L 241.92 -173.414199 
L 244.963636 -165.896883 
L 248.007273 -204.977588 
L 251.050909 -155.714565 
L 254.094545 -183.695805 
L 257.138182 -154.550872 
L 260.181818 -178.137562 
L 263.225455 -194.331948 
L 266.269091 -192.370909 
L 269.312727 -179.962881 
L 272.356364 -186.017143 
L 275.4 -158.47295 
L 278.443636 -177.436843 
L 281.487273 -114.209499 
L 284.530909 -179.133896 
L 287.574545 -161.610612 
L 290.618182 -220.881399 
L 293.661818 -184.806902 
L 296.705455 -237.416267 
L 299.749091 -175.938755 
L 302.792727 -216.536943 
L 305.836364 -175.387572 
L 308.88 -162.955325 
L 311.923636 -151.594823 
L 314.967273 -200.282687 
L 318.010909 -169.979942 
L 321.054545 -224.13974 
L 324.098182 -189.102511 
L 327.141818 -179.76423 
L 330.185455 -169.979942 
L 333.229091 -214.29889 
L 336.272727 -189.849573 
L 339.316364 -193.268334 
L 342.36 -186.125754 
L 345.403636 -177.074805 
L 348.447273 -166.575704 
L 351.490909 -170.485714 
L 354.534545 -159.95041 
L 357.578182 -207.779072 
L 360.621818 -203.076253 
L 363.665455 -212.192488 
L 366.709091 -240.276289 
L 369.752727 -174.123275 
L 372.796364 -178.90954 
L 375.84 -210.02026 
L 378.883636 -180.807541 
L 381.927273 -171.069969 
L 384.970909 -181.781299 
L 388.014545 -158.47295 
L 391.058182 -172.006274 
L 394.101818 -193.268334 
L 397.145455 -203.076253 
L 400.189091 -171.140531 
L 403.232727 -191.603546 
L 406.276364 -214.29889 
L 409.32 -185.103529 
L 412.363636 -245.318961 
L 415.407273 -194.766178 
L 418.450909 -172.863732 
L 421.494545 -135.833159 
L 424.538182 -224.771956 
L 427.581818 -164.339587 
L 430.625455 -199.788752 
L 433.669091 -177.436843 
L 436.712727 -196.356246 
L 439.756364 -153.990575 
L 442.8 -218.734627 
L 445.843636 -159.593544 
L 448.887273 -177.436843 
L 451.930909 -185.676328 
L 454.974545 -196.099645 
L 458.018182 -177.436843 
L 461.061818 -153.046917 
L 464.105455 -180.604675 
L 467.149091 -201.195584 
L 470.192727 -165.896883 
L 473.236364 -191.801575 
L 476.28 -178.137562 
L 479.323636 -181.781299 
L 482.367273 -169.02822 
L 485.410909 -232.314176 
L 488.454545 -207.543158 
L 491.498182 -198.814323 
L 494.541818 -226.222942 
L 497.585455 -180.069847 
L 500.629091 -177.817936 
L 503.672727 -159.918877 
L 506.716364 -192.050012 
L 509.76 -226.222942 
L 512.803636 -189.849573 
L 515.847273 -192.905738 
L 518.890909 -201.610863 
L 521.934545 -180.807541 
L 524.978182 -220.105603 
L 528.021818 -212.413392 
L 531.065455 -221.226197 
L 534.109091 -201.714683 
L 537.152727 -199.934917 
L 540.196364 -212.261447 
L 543.24 -158.47295 
L 546.283636 -181.781299 
L 549.327273 -173.270927 
L 552.370909 -185.676328 
L 555.414545 -196.177632 
L 558.458182 -212.261447 
L 561.501818 -152.65987 
L 564.545455 -196.356246 
L 567.589091 -207.543158 
L 570.632727 -205.313766 
L 573.676364 -196.356246 
L 576.72 -207.138733 
L 579.763636 -136.598961 
L 582.807273 -209.902597 
L 585.850909 -169.337011 
L 588.894545 -210.02026 
L 591.938182 -186.125754 
L 594.981818 -207.507471 
L 598.025455 -165.896883 
L 601.069091 -159.403254 
L 604.112727 -205.151473 
L 607.156364 -179.76423 
L 610.2 -185.676328 
L 613.243636 -186.043783 
L 616.287273 -177.436843 
L 619.330909 -219.433247 
L 622.374545 -212.413392 
L 625.418182 -174.721558 
L 628.461818 -158.47295 
L 631.505455 -187.246904 
L 634.549091 -151.594823 
L 637.592727 -239.232978 
L 640.636364 -193.817577 
L 643.68 -186.915655 
L 646.723636 -228.66863 
L 649.767273 -192.122327 
L 652.810909 -195.413901 
L 655.854545 -200.282687 
L 658.898182 -171.069969 
L 661.941818 -176.402449 
L 664.985455 -174.123275 
L 668.029091 -172.235734 
L 671.072727 -169.678887 
L 674.116364 -159.764482 
L 677.16 -172.560413 
L 680.203636 -179.929564 
L 683.247273 -197.184368 
L 686.290909 -185.367199 
L 689.334545 -191.801575 
L 692.378182 -226.222942 
L 695.421818 -236.494286 
L 698.465455 -175.300226 
L 701.509091 -186.839023 
L 704.552727 -194.331948 
L 707.596364 -189.102511 
L 710.64 -192.050012 
L 713.683636 -207.356207 
L 716.727273 -203.076253 
L 719.770909 -212.497362 
L 722.814545 -191.238687 
L 725.858182 -207.627127 
L 728.901818 -198.446915 
L 731.945455 -223.684273 
L 734.989091 -198.446915 
L 738.032727 -200.910917 
L 741.076364 -177.074805 
L 744.12 -186.915655 
L 744.12 -258.796647 
L 744.12 -258.796647 
L 741.076364 -247.672208 
L 738.032727 -273.785656 
L 734.989091 -263.257645 
L 731.945455 -287.449669 
L 728.901818 -268.002717 
L 725.858182 -279.421096 
L 722.814545 -265.965371 
L 719.770909 -281.856213 
L 716.727273 -272.516321 
L 713.683636 -281.949689 
L 710.64 -269.06536 
L 707.596364 -262.314632 
L 704.552727 -257.085195 
L 701.509091 -250.165947 
L 698.465455 -240.110956 
L 695.421818 -298.267013 
L 692.378182 -295.66301 
L 689.334545 -260.121642 
L 686.290909 -257.085195 
L 683.247273 -269.06536 
L 680.203636 -249.369632 
L 677.16 -253.243159 
L 674.116364 -236.344715 
L 671.072727 -240.276289 
L 668.029091 -235.87283 
L 664.985455 -245.917244 
L 661.941818 -243.638071 
L 658.898182 -239.232978 
L 655.854545 -273.314483 
L 652.810909 -263.57691 
L 649.767273 -255.759422 
L 646.723636 -292.605901 
L 643.68 -258.796647 
L 640.636364 -263.257645 
L 637.592727 -302.648921 
L 634.549091 -219.879552 
L 631.505455 -255.566971 
L 628.461818 -225.708571 
L 625.418182 -237.572857 
L 622.374545 -284.207361 
L 619.330909 -285.324156 
L 616.287273 -258.895385 
L 613.243636 -260.637265 
L 610.2 -253.839337 
L 607.156364 -250.361633 
L 604.112727 -273.314483 
L 601.069091 -239.324842 
L 598.025455 -236.494286 
L 594.981818 -274.634832 
L 591.938182 -255.637043 
L 588.894545 -273.785656 
L 585.850909 -241.13098 
L 582.807273 -275.911169 
L 579.763636 -215.668052 
L 576.72 -287.821479 
L 573.676364 -264.676313 
L 570.632727 -271.204675 
L 567.589091 -276.90201 
L 564.545455 -264.676313 
L 561.501818 -218.844935 
L 558.458182 -279.497069 
L 555.414545 -273.696348 
L 552.370909 -258.708124 
L 549.327273 -239.1296 
L 546.283636 -253.66229 
L 543.24 -230.190946 
L 540.196364 -279.497069 
L 537.152727 -275.574991 
L 534.109091 -268.159297 
L 531.065455 -288.461818 
L 528.021818 -279.421096 
L 524.978182 -290.703006 
L 521.934545 -248.970551 
L 518.890909 -264.006509 
L 515.847273 -261.363825 
L 512.803636 -260.446976 
L 509.76 -291.033673 
L 506.716364 -263.931004 
L 503.672727 -232.793615 
L 500.629091 -247.300643 
L 497.585455 -248.527934 
L 494.541818 -291.033673 
L 491.498182 -266.049944 
L 488.454545 -276.90201 
L 485.410909 -296.842679 
L 482.367273 -241.902958 
L 479.323636 -258.796647 
L 476.28 -251.0123 
L 473.236364 -264.676313 
L 470.192727 -232.081948 
L 467.149091 -271.792987 
L 464.105455 -262.968312 
L 461.061818 -227.359973 
L 458.018182 -242.603676 
L 454.974545 -259.73674 
L 451.930909 -253.961057 
L 448.887273 -242.603676 
L 445.843636 -230.190946 
L 442.8 -280.617662 
L 439.756364 -225.708571 
L 436.712727 -269.230984 
L 433.669091 -246.948132 
L 430.625455 -265.270401 
L 427.581818 -234.93699 
L 424.538182 -287.99351 
L 421.494545 -198.054598 
L 418.450909 -242.222584 
L 415.407273 -265.489647 
L 412.363636 -305.83102 
L 409.32 -257.085195 
L 406.276364 -282.756978 
L 403.232727 -257.085195 
L 400.189091 -240.714783 
L 397.145455 -277.145659 
L 394.101818 -269.848567 
L 391.058182 -248.034246 
L 388.014545 -230.190946 
L 384.970909 -251.292587 
L 381.927273 -239.232978 
L 378.883636 -258.708124 
L 375.84 -276.028831 
L 372.796364 -255.489773 
L 369.752727 -250.703509 
L 366.709091 -305.83102 
L 363.665455 -277.359321 
L 360.621818 -277.145659 
L 357.578182 -275.014694 
L 354.534545 -225.225854 
L 351.490909 -249.554805 
L 348.447273 -237.173107 
L 345.403636 -243.083377 
L 342.36 -246.948132 
L 339.316364 -260.276038 
L 336.272727 -261.56757 
L 333.229091 -278.478347 
L 330.185455 -241.631037 
L 327.141818 -255.404304 
L 324.098182 -267.544069 
L 321.054545 -290.030649 
L 318.010909 -237.416267 
L 314.967273 -273.314483 
L 311.923636 -224.626619 
L 308.88 -232.314176 
L 305.836364 -249.981054 
L 302.792727 -286.048232 
L 299.749091 -248.970551 
L 296.705455 -296.423051 
L 293.661818 -255.404304 
L 290.618182 -286.048232 
L 287.574545 -226.156809 
L 284.530909 -245.429269 
L 281.487273 -179.76423 
L 278.443636 -246.948132 
L 275.4 -225.708571 
L 272.356364 -255.637043 
L 269.312727 -252.806564 
L 266.269091 -262.968312 
L 263.225455 -266.049944 
L 260.181818 -246.457629 
L 257.138182 -225.148275 
L 254.094545 -260.276038 
L 251.050909 -225.225854 
L 248.007273 -275.574991 
L 244.963636 -236.494286 
L 241.92 -246.62632 
L 238.876364 -239.970673 
L 235.832727 -288.923239 
L 232.789091 -245.917244 
L 229.745455 -268.67041 
L 226.701818 -234.93699 
L 223.658182 -262.039398 
L 220.614545 -265.062302 
L 217.570909 -257.085195 
L 214.527273 -218.088534 
L 211.483636 -262.968312 
L 208.44 -225.708571 
L 205.396364 -277.145659 
L 202.352727 -219.757833 
L 199.309091 -279.2334 
L 196.265455 -268.67041 
L 193.221818 -224.626619 
L 190.178182 -221.593604 
L 187.134545 -311.581435 
L 184.090909 -212.192488 
L 181.047273 -250.060578 
L 178.003636 -236.494286 
L 174.96 -258.555974 
L 171.916364 -284.207361 
L 168.872727 -236.464372 
L 165.829091 -225.225854 
L 162.785455 -248.970551 
L 159.741818 -227.359973 
L 156.698182 -214.889046 
L 153.654545 -227.359973 
L 150.610909 -218.844935 
L 147.567273 -263.57691 
L 144.523636 -242.603676 
L 141.48 -287.920842 
L 138.436364 -224.13974 
z
" style="stroke: #008000; stroke-opacity: 0.2; stroke-width: 1.5"/>
    </defs>
    <g clip-path="url(#p08f4afc48c)">
     <use xlink:href="#m6c6b64910d" x="0" y="432" style="fill: #008000; fill-opacity: 0.2; stroke: #008000; stroke-opacity: 0.2; stroke-width: 1.5"/>
    </g>
   </g>
   <g id="PolyCollection_2">
    <defs>
     <path id="m99e9696777" d="M 138.436364 -365.334545 
L 138.436364 -68.825455 
L 141.48 -68.825455 
L 144.523636 -68.825455 
L 147.567273 -68.825455 
L 150.610909 -68.825455 
L 153.654545 -68.825455 
L 156.698182 -68.825455 
L 159.741818 -68.825455 
L 162.785455 -68.825455 
L 165.829091 -68.825455 
L 168.872727 -68.825455 
L 171.916364 -68.825455 
L 174.96 -68.825455 
L 178.003636 -68.825455 
L 181.047273 -68.825455 
L 184.090909 -68.825455 
L 187.134545 -68.825455 
L 190.178182 -68.825455 
L 193.221818 -68.825455 
L 196.265455 -68.825455 
L 199.309091 -68.825455 
L 202.352727 -68.825455 
L 205.396364 -68.825455 
L 208.44 -68.825455 
L 211.483636 -68.825455 
L 214.527273 -68.825455 
L 217.570909 -68.825455 
L 220.614545 -68.825455 
L 223.658182 -68.825455 
L 226.701818 -68.825455 
L 229.745455 -68.825455 
L 232.789091 -68.825455 
L 235.832727 -68.825455 
L 238.876364 -68.825455 
L 241.92 -68.825455 
L 244.963636 -68.825455 
L 248.007273 -68.825455 
L 251.050909 -68.825455 
L 254.094545 -68.825455 
L 257.138182 -68.825455 
L 260.181818 -68.825455 
L 260.181818 -365.334545 
L 260.181818 -365.334545 
L 257.138182 -365.334545 
L 254.094545 -365.334545 
L 251.050909 -365.334545 
L 248.007273 -365.334545 
L 244.963636 -365.334545 
L 241.92 -365.334545 
L 238.876364 -365.334545 
L 235.832727 -365.334545 
L 232.789091 -365.334545 
L 229.745455 -365.334545 
L 226.701818 -365.334545 
L 223.658182 -365.334545 
L 220.614545 -365.334545 
L 217.570909 -365.334545 
L 214.527273 -365.334545 
L 211.483636 -365.334545 
L 208.44 -365.334545 
L 205.396364 -365.334545 
L 202.352727 -365.334545 
L 199.309091 -365.334545 
L 196.265455 -365.334545 
L 193.221818 -365.334545 
L 190.178182 -365.334545 
L 187.134545 -365.334545 
L 184.090909 -365.334545 
L 181.047273 -365.334545 
L 178.003636 -365.334545 
L 174.96 -365.334545 
L 171.916364 -365.334545 
L 168.872727 -365.334545 
L 165.829091 -365.334545 
L 162.785455 -365.334545 
L 159.741818 -365.334545 
L 156.698182 -365.334545 
L 153.654545 -365.334545 
L 150.610909 -365.334545 
L 147.567273 -365.334545 
L 144.523636 -365.334545 
L 141.48 -365.334545 
L 138.436364 -365.334545 
z
" style="stroke: #ffd700; stroke-opacity: 0.2; stroke-width: 1.5"/>
    </defs>
    <g clip-path="url(#p08f4afc48c)">
     <use xlink:href="#m99e9696777" x="0" y="432" style="fill: #ffd700; fill-opacity: 0.2; stroke: #ffd700; stroke-opacity: 0.2; stroke-width: 1.5"/>
    </g>
   </g>
   <g id="PolyCollection_3">
    <defs>
     <path id="m6569bf4a16" d="M 260.181818 -365.334545 
L 260.181818 -68.825455 
L 263.225455 -68.825455 
L 266.269091 -68.825455 
L 269.312727 -68.825455 
L 272.356364 -68.825455 
L 275.4 -68.825455 
L 278.443636 -68.825455 
L 281.487273 -68.825455 
L 284.530909 -68.825455 
L 287.574545 -68.825455 
L 290.618182 -68.825455 
L 293.661818 -68.825455 
L 296.705455 -68.825455 
L 299.749091 -68.825455 
L 302.792727 -68.825455 
L 305.836364 -68.825455 
L 308.88 -68.825455 
L 311.923636 -68.825455 
L 314.967273 -68.825455 
L 318.010909 -68.825455 
L 321.054545 -68.825455 
L 324.098182 -68.825455 
L 327.141818 -68.825455 
L 330.185455 -68.825455 
L 333.229091 -68.825455 
L 336.272727 -68.825455 
L 339.316364 -68.825455 
L 342.36 -68.825455 
L 345.403636 -68.825455 
L 348.447273 -68.825455 
L 351.490909 -68.825455 
L 354.534545 -68.825455 
L 357.578182 -68.825455 
L 360.621818 -68.825455 
L 363.665455 -68.825455 
L 366.709091 -68.825455 
L 369.752727 -68.825455 
L 372.796364 -68.825455 
L 375.84 -68.825455 
L 378.883636 -68.825455 
L 381.927273 -68.825455 
L 381.927273 -365.334545 
L 381.927273 -365.334545 
L 378.883636 -365.334545 
L 375.84 -365.334545 
L 372.796364 -365.334545 
L 369.752727 -365.334545 
L 366.709091 -365.334545 
L 363.665455 -365.334545 
L 360.621818 -365.334545 
L 357.578182 -365.334545 
L 354.534545 -365.334545 
L 351.490909 -365.334545 
L 348.447273 -365.334545 
L 345.403636 -365.334545 
L 342.36 -365.334545 
L 339.316364 -365.334545 
L 336.272727 -365.334545 
L 333.229091 -365.334545 
L 330.185455 -365.334545 
L 327.141818 -365.334545 
L 324.098182 -365.334545 
L 321.054545 -365.334545 
L 318.010909 -365.334545 
L 314.967273 -365.334545 
L 311.923636 -365.334545 
L 308.88 -365.334545 
L 305.836364 -365.334545 
L 302.792727 -365.334545 
L 299.749091 -365.334545 
L 296.705455 -365.334545 
L 293.661818 -365.334545 
L 290.618182 -365.334545 
L 287.574545 -365.334545 
L 284.530909 -365.334545 
L 281.487273 -365.334545 
L 278.443636 -365.334545 
L 275.4 -365.334545 
L 272.356364 -365.334545 
L 269.312727 -365.334545 
L 266.269091 -365.334545 
L 263.225455 -365.334545 
L 260.181818 -365.334545 
z
" style="stroke: #ffd700; stroke-opacity: 0.2; stroke-width: 1.5"/>
    </defs>
    <g clip-path="url(#p08f4afc48c)">
     <use xlink:href="#m6569bf4a16" x="0" y="432" style="fill: #ffd700; fill-opacity: 0.2; stroke: #ffd700; stroke-opacity: 0.2; stroke-width: 1.5"/>
    </g>
   </g>
   <g id="PolyCollection_4">
    <defs>
     <path id="m4772ea0d7f" d="M 381.927273 -365.334545 
L 381.927273 -68.825455 
L 384.970909 -68.825455 
L 388.014545 -68.825455 
L 391.058182 -68.825455 
L 394.101818 -68.825455 
L 397.145455 -68.825455 
L 400.189091 -68.825455 
L 403.232727 -68.825455 
L 406.276364 -68.825455 
L 409.32 -68.825455 
L 412.363636 -68.825455 
L 415.407273 -68.825455 
L 418.450909 -68.825455 
L 421.494545 -68.825455 
L 424.538182 -68.825455 
L 427.581818 -68.825455 
L 430.625455 -68.825455 
L 433.669091 -68.825455 
L 436.712727 -68.825455 
L 439.756364 -68.825455 
L 442.8 -68.825455 
L 445.843636 -68.825455 
L 448.887273 -68.825455 
L 451.930909 -68.825455 
L 454.974545 -68.825455 
L 458.018182 -68.825455 
L 461.061818 -68.825455 
L 464.105455 -68.825455 
L 467.149091 -68.825455 
L 470.192727 -68.825455 
L 473.236364 -68.825455 
L 476.28 -68.825455 
L 479.323636 -68.825455 
L 482.367273 -68.825455 
L 485.410909 -68.825455 
L 488.454545 -68.825455 
L 491.498182 -68.825455 
L 494.541818 -68.825455 
L 497.585455 -68.825455 
L 500.629091 -68.825455 
L 503.672727 -68.825455 
L 503.672727 -365.334545 
L 503.672727 -365.334545 
L 500.629091 -365.334545 
L 497.585455 -365.334545 
L 494.541818 -365.334545 
L 491.498182 -365.334545 
L 488.454545 -365.334545 
L 485.410909 -365.334545 
L 482.367273 -365.334545 
L 479.323636 -365.334545 
L 476.28 -365.334545 
L 473.236364 -365.334545 
L 470.192727 -365.334545 
L 467.149091 -365.334545 
L 464.105455 -365.334545 
L 461.061818 -365.334545 
L 458.018182 -365.334545 
L 454.974545 -365.334545 
L 451.930909 -365.334545 
L 448.887273 -365.334545 
L 445.843636 -365.334545 
L 442.8 -365.334545 
L 439.756364 -365.334545 
L 436.712727 -365.334545 
L 433.669091 -365.334545 
L 430.625455 -365.334545 
L 427.581818 -365.334545 
L 424.538182 -365.334545 
L 421.494545 -365.334545 
L 418.450909 -365.334545 
L 415.407273 -365.334545 
L 412.363636 -365.334545 
L 409.32 -365.334545 
L 406.276364 -365.334545 
L 403.232727 -365.334545 
L 400.189091 -365.334545 
L 397.145455 -365.334545 
L 394.101818 -365.334545 
L 391.058182 -365.334545 
L 388.014545 -365.334545 
L 384.970909 -365.334545 
L 381.927273 -365.334545 
z
" style="stroke: #ffd700; stroke-opacity: 0.2; stroke-width: 1.5"/>
    </defs>
    <g clip-path="url(#p08f4afc48c)">
     <use xlink:href="#m4772ea0d7f" x="0" y="432" style="fill: #ffd700; fill-opacity: 0.2; stroke: #ffd700; stroke-opacity: 0.2; stroke-width: 1.5"/>
    </g>
   </g>
   <g id="PolyCollection_5">
    <defs>
     <path id="m76edbcbfdc" d="M 503.672727 -365.334545 
L 503.672727 -68.825455 
L 506.716364 -68.825455 
L 509.76 -68.825455 
L 512.803636 -68.825455 
L 515.847273 -68.825455 
L 518.890909 -68.825455 
L 521.934545 -68.825455 
L 524.978182 -68.825455 
L 528.021818 -68.825455 
L 531.065455 -68.825455 
L 534.109091 -68.825455 
L 537.152727 -68.825455 
L 540.196364 -68.825455 
L 543.24 -68.825455 
L 546.283636 -68.825455 
L 549.327273 -68.825455 
L 552.370909 -68.825455 
L 555.414545 -68.825455 
L 558.458182 -68.825455 
L 561.501818 -68.825455 
L 564.545455 -68.825455 
L 567.589091 -68.825455 
L 570.632727 -68.825455 
L 573.676364 -68.825455 
L 576.72 -68.825455 
L 579.763636 -68.825455 
L 582.807273 -68.825455 
L 585.850909 -68.825455 
L 588.894545 -68.825455 
L 591.938182 -68.825455 
L 594.981818 -68.825455 
L 598.025455 -68.825455 
L 601.069091 -68.825455 
L 604.112727 -68.825455 
L 607.156364 -68.825455 
L 610.2 -68.825455 
L 613.243636 -68.825455 
L 616.287273 -68.825455 
L 619.330909 -68.825455 
L 622.374545 -68.825455 
L 625.418182 -68.825455 
L 625.418182 -365.334545 
L 625.418182 -365.334545 
L 622.374545 -365.334545 
L 619.330909 -365.334545 
L 616.287273 -365.334545 
L 613.243636 -365.334545 
L 610.2 -365.334545 
L 607.156364 -365.334545 
L 604.112727 -365.334545 
L 601.069091 -365.334545 
L 598.025455 -365.334545 
L 594.981818 -365.334545 
L 591.938182 -365.334545 
L 588.894545 -365.334545 
L 585.850909 -365.334545 
L 582.807273 -365.334545 
L 579.763636 -365.334545 
L 576.72 -365.334545 
L 573.676364 -365.334545 
L 570.632727 -365.334545 
L 567.589091 -365.334545 
L 564.545455 -365.334545 
L 561.501818 -365.334545 
L 558.458182 -365.334545 
L 555.414545 -365.334545 
L 552.370909 -365.334545 
L 549.327273 -365.334545 
L 546.283636 -365.334545 
L 543.24 -365.334545 
L 540.196364 -365.334545 
L 537.152727 -365.334545 
L 534.109091 -365.334545 
L 531.065455 -365.334545 
L 528.021818 -365.334545 
L 524.978182 -365.334545 
L 521.934545 -365.334545 
L 518.890909 -365.334545 
L 515.847273 -365.334545 
L 512.803636 -365.334545 
L 509.76 -365.334545 
L 506.716364 -365.334545 
L 503.672727 -365.334545 
z
" style="stroke: #ffd700; stroke-opacity: 0.2; stroke-width: 1.5"/>
    </defs>
    <g clip-path="url(#p08f4afc48c)">
     <use xlink:href="#m76edbcbfdc" x="0" y="432" style="fill: #ffd700; fill-opacity: 0.2; stroke: #ffd700; stroke-opacity: 0.2; stroke-width: 1.5"/>
    </g>
   </g>
   <g id="PolyCollection_6">
    <defs>
     <path id="m3e06360ff2" d="M 625.418182 -365.334545 
L 625.418182 -68.825455 
L 628.461818 -68.825455 
L 631.505455 -68.825455 
L 634.549091 -68.825455 
L 637.592727 -68.825455 
L 640.636364 -68.825455 
L 643.68 -68.825455 
L 646.723636 -68.825455 
L 649.767273 -68.825455 
L 652.810909 -68.825455 
L 655.854545 -68.825455 
L 658.898182 -68.825455 
L 661.941818 -68.825455 
L 664.985455 -68.825455 
L 668.029091 -68.825455 
L 671.072727 -68.825455 
L 674.116364 -68.825455 
L 677.16 -68.825455 
L 680.203636 -68.825455 
L 683.247273 -68.825455 
L 686.290909 -68.825455 
L 689.334545 -68.825455 
L 692.378182 -68.825455 
L 695.421818 -68.825455 
L 698.465455 -68.825455 
L 701.509091 -68.825455 
L 704.552727 -68.825455 
L 707.596364 -68.825455 
L 710.64 -68.825455 
L 713.683636 -68.825455 
L 716.727273 -68.825455 
L 719.770909 -68.825455 
L 722.814545 -68.825455 
L 725.858182 -68.825455 
L 728.901818 -68.825455 
L 731.945455 -68.825455 
L 734.989091 -68.825455 
L 738.032727 -68.825455 
L 741.076364 -68.825455 
L 744.12 -68.825455 
L 747.163636 -68.825455 
L 747.163636 -365.334545 
L 747.163636 -365.334545 
L 744.12 -365.334545 
L 741.076364 -365.334545 
L 738.032727 -365.334545 
L 734.989091 -365.334545 
L 731.945455 -365.334545 
L 728.901818 -365.334545 
L 725.858182 -365.334545 
L 722.814545 -365.334545 
L 719.770909 -365.334545 
L 716.727273 -365.334545 
L 713.683636 -365.334545 
L 710.64 -365.334545 
L 707.596364 -365.334545 
L 704.552727 -365.334545 
L 701.509091 -365.334545 
L 698.465455 -365.334545 
L 695.421818 -365.334545 
L 692.378182 -365.334545 
L 689.334545 -365.334545 
L 686.290909 -365.334545 
L 683.247273 -365.334545 
L 680.203636 -365.334545 
L 677.16 -365.334545 
L 674.116364 -365.334545 
L 671.072727 -365.334545 
L 668.029091 -365.334545 
L 664.985455 -365.334545 
L 661.941818 -365.334545 
L 658.898182 -365.334545 
L 655.854545 -365.334545 
L 652.810909 -365.334545 
L 649.767273 -365.334545 
L 646.723636 -365.334545 
L 643.68 -365.334545 
L 640.636364 -365.334545 
L 637.592727 -365.334545 
L 634.549091 -365.334545 
L 631.505455 -365.334545 
L 628.461818 -365.334545 
L 625.418182 -365.334545 
z
" style="stroke: #ff0000; stroke-opacity: 0.2; stroke-width: 1.5"/>
    </defs>
    <g clip-path="url(#p08f4afc48c)">
     <use xlink:href="#m3e06360ff2" x="0" y="432" style="fill: #ff0000; fill-opacity: 0.2; stroke: #ff0000; stroke-opacity: 0.2; stroke-width: 1.5"/>
    </g>
   </g>
   <g id="matplotlib.axis_1">
    <g id="xtick_1">
     <g id="line2d_1">
      <defs>
       <path id="mb8b348ecf9" d="M 0 0 
L 0 9 
" style="stroke: #000000; stroke-width: 1.875"/>
      </defs>
      <g>
       <use xlink:href="#mb8b348ecf9" x="138.436364" y="378" style="stroke: #000000; stroke-width: 1.875"/>
      </g>
     </g>
     <g id="text_1">
      <!-- 0 -->
      <g transform="translate(133.187301 403.037422)scale(0.165 -0.165)">
       <defs>
        <path id="DejaVuSans-30" d="M 2034 4250 
Q 1547 4250 1301 3770 
Q 1056 3291 1056 2328 
Q 1056 1369 1301 889 
Q 1547 409 2034 409 
Q 2525 409 2770 889 
Q 3016 1369 3016 2328 
Q 3016 3291 2770 3770 
Q 2525 4250 2034 4250 
z
M 2034 4750 
Q 2819 4750 3233 4129 
Q 3647 3509 3647 2328 
Q 3647 1150 3233 529 
Q 2819 -91 2034 -91 
Q 1250 -91 836 529 
Q 422 1150 422 2328 
Q 422 3509 836 4129 
Q 1250 4750 2034 4750 
z
" transform="scale(0.015625)"/>
       </defs>
       <use xlink:href="#DejaVuSans-30"/>
      </g>
     </g>
    </g>
    <g id="xtick_2">
     <g id="line2d_2">
      <g>
       <use xlink:href="#mb8b348ecf9" x="214.527273" y="378" style="stroke: #000000; stroke-width: 1.875"/>
      </g>
     </g>
     <g id="text_2">
      <!-- 25 -->
      <g transform="translate(204.029148 403.037422)scale(0.165 -0.165)">
       <defs>
        <path id="DejaVuSans-32" d="M 1228 531 
L 3431 531 
L 3431 0 
L 469 0 
L 469 531 
Q 828 903 1448 1529 
Q 2069 2156 2228 2338 
Q 2531 2678 2651 2914 
Q 2772 3150 2772 3378 
Q 2772 3750 2511 3984 
Q 2250 4219 1831 4219 
Q 1534 4219 1204 4116 
Q 875 4013 500 3803 
L 500 4441 
Q 881 4594 1212 4672 
Q 1544 4750 1819 4750 
Q 2544 4750 2975 4387 
Q 3406 4025 3406 3419 
Q 3406 3131 3298 2873 
Q 3191 2616 2906 2266 
Q 2828 2175 2409 1742 
Q 1991 1309 1228 531 
z
" transform="scale(0.015625)"/>
        <path id="DejaVuSans-35" d="M 691 4666 
L 3169 4666 
L 3169 4134 
L 1269 4134 
L 1269 2991 
Q 1406 3038 1543 3061 
Q 1681 3084 1819 3084 
Q 2600 3084 3056 2656 
Q 3513 2228 3513 1497 
Q 3513 744 3044 326 
Q 2575 -91 1722 -91 
Q 1428 -91 1123 -41 
Q 819 9 494 109 
L 494 744 
Q 775 591 1075 516 
Q 1375 441 1709 441 
Q 2250 441 2565 725 
Q 2881 1009 2881 1497 
Q 2881 1984 2565 2268 
Q 2250 2553 1709 2553 
Q 1456 2553 1204 2497 
Q 953 2441 691 2322 
L 691 4666 
z
" transform="scale(0.015625)"/>
       </defs>
       <use xlink:href="#DejaVuSans-32"/>
       <use xlink:href="#DejaVuSans-35" x="63.623047"/>
      </g>
     </g>
    </g>
    <g id="xtick_3">
     <g id="line2d_3">
      <g>
       <use xlink:href="#mb8b348ecf9" x="290.618182" y="378" style="stroke: #000000; stroke-width: 1.875"/>
      </g>
     </g>
     <g id="text_3">
      <!-- 50 -->
      <g transform="translate(280.120057 403.037422)scale(0.165 -0.165)">
       <use xlink:href="#DejaVuSans-35"/>
       <use xlink:href="#DejaVuSans-30" x="63.623047"/>
      </g>
     </g>
    </g>
    <g id="xtick_4">
     <g id="line2d_4">
      <g>
       <use xlink:href="#mb8b348ecf9" x="366.709091" y="378" style="stroke: #000000; stroke-width: 1.875"/>
      </g>
     </g>
     <g id="text_4">
      <!-- 75 -->
      <g transform="translate(356.210966 403.037422)scale(0.165 -0.165)">
       <defs>
        <path id="DejaVuSans-37" d="M 525 4666 
L 3525 4666 
L 3525 4397 
L 1831 0 
L 1172 0 
L 2766 4134 
L 525 4134 
L 525 4666 
z
" transform="scale(0.015625)"/>
       </defs>
       <use xlink:href="#DejaVuSans-37"/>
       <use xlink:href="#DejaVuSans-35" x="63.623047"/>
      </g>
     </g>
    </g>
    <g id="xtick_5">
     <g id="line2d_5">
      <g>
       <use xlink:href="#mb8b348ecf9" x="442.8" y="378" style="stroke: #000000; stroke-width: 1.875"/>
      </g>
     </g>
     <g id="text_5">
      <!-- 100 -->
      <g transform="translate(427.052813 403.037422)scale(0.165 -0.165)">
       <defs>
        <path id="DejaVuSans-31" d="M 794 531 
L 1825 531 
L 1825 4091 
L 703 3866 
L 703 4441 
L 1819 4666 
L 2450 4666 
L 2450 531 
L 3481 531 
L 3481 0 
L 794 0 
L 794 531 
z
" transform="scale(0.015625)"/>
       </defs>
       <use xlink:href="#DejaVuSans-31"/>
       <use xlink:href="#DejaVuSans-30" x="63.623047"/>
       <use xlink:href="#DejaVuSans-30" x="127.246094"/>
      </g>
     </g>
    </g>
    <g id="xtick_6">
     <g id="line2d_6">
      <g>
       <use xlink:href="#mb8b348ecf9" x="518.890909" y="378" style="stroke: #000000; stroke-width: 1.875"/>
      </g>
     </g>
     <g id="text_6">
      <!-- 125 -->
      <g transform="translate(503.143722 403.037422)scale(0.165 -0.165)">
       <use xlink:href="#DejaVuSans-31"/>
       <use xlink:href="#DejaVuSans-32" x="63.623047"/>
       <use xlink:href="#DejaVuSans-35" x="127.246094"/>
      </g>
     </g>
    </g>
    <g id="xtick_7">
     <g id="line2d_7">
      <g>
       <use xlink:href="#mb8b348ecf9" x="594.981818" y="378" style="stroke: #000000; stroke-width: 1.875"/>
      </g>
     </g>
     <g id="text_7">
      <!-- 150 -->
      <g transform="translate(579.234631 403.037422)scale(0.165 -0.165)">
       <use xlink:href="#DejaVuSans-31"/>
       <use xlink:href="#DejaVuSans-35" x="63.623047"/>
       <use xlink:href="#DejaVuSans-30" x="127.246094"/>
      </g>
     </g>
    </g>
    <g id="xtick_8">
     <g id="line2d_8">
      <g>
       <use xlink:href="#mb8b348ecf9" x="671.072727" y="378" style="stroke: #000000; stroke-width: 1.875"/>
      </g>
     </g>
     <g id="text_8">
      <!-- 175 -->
      <g transform="translate(655.32554 403.037422)scale(0.165 -0.165)">
       <use xlink:href="#DejaVuSans-31"/>
       <use xlink:href="#DejaVuSans-37" x="63.623047"/>
       <use xlink:href="#DejaVuSans-35" x="127.246094"/>
      </g>
     </g>
    </g>
    <g id="xtick_9">
     <g id="line2d_9">
      <g>
       <use xlink:href="#mb8b348ecf9" x="747.163636" y="378" style="stroke: #000000; stroke-width: 1.875"/>
      </g>
     </g>
     <g id="text_9">
      <!-- 200 -->
      <g transform="translate(731.416449 403.037422)scale(0.165 -0.165)">
       <use xlink:href="#DejaVuSans-32"/>
       <use xlink:href="#DejaVuSans-30" x="63.623047"/>
       <use xlink:href="#DejaVuSans-30" x="127.246094"/>
      </g>
     </g>
    </g>
    <g id="text_10">
     <!-- trial -->
     <g transform="translate(425.055938 424.146094)scale(0.18 -0.18)">
      <defs>
       <path id="DejaVuSans-74" d="M 1172 4494 
L 1172 3500 
L 2356 3500 
L 2356 3053 
L 1172 3053 
L 1172 1153 
Q 1172 725 1289 603 
Q 1406 481 1766 481 
L 2356 481 
L 2356 0 
L 1766 0 
Q 1100 0 847 248 
Q 594 497 594 1153 
L 594 3053 
L 172 3053 
L 172 3500 
L 594 3500 
L 594 4494 
L 1172 4494 
z
" transform="scale(0.015625)"/>
       <path id="DejaVuSans-72" d="M 2631 2963 
Q 2534 3019 2420 3045 
Q 2306 3072 2169 3072 
Q 1681 3072 1420 2755 
Q 1159 2438 1159 1844 
L 1159 0 
L 581 0 
L 581 3500 
L 1159 3500 
L 1159 2956 
Q 1341 3275 1631 3429 
Q 1922 3584 2338 3584 
Q 2397 3584 2469 3576 
Q 2541 3569 2628 3553 
L 2631 2963 
z
" transform="scale(0.015625)"/>
       <path id="DejaVuSans-69" d="M 603 3500 
L 1178 3500 
L 1178 0 
L 603 0 
L 603 3500 
z
M 603 4863 
L 1178 4863 
L 1178 4134 
L 603 4134 
L 603 4863 
z
" transform="scale(0.015625)"/>
       <path id="DejaVuSans-61" d="M 2194 1759 
Q 1497 1759 1228 1600 
Q 959 1441 959 1056 
Q 959 750 1161 570 
Q 1363 391 1709 391 
Q 2188 391 2477 730 
Q 2766 1069 2766 1631 
L 2766 1759 
L 2194 1759 
z
M 3341 1997 
L 3341 0 
L 2766 0 
L 2766 531 
Q 2569 213 2275 61 
Q 1981 -91 1556 -91 
Q 1019 -91 701 211 
Q 384 513 384 1019 
Q 384 1609 779 1909 
Q 1175 2209 1959 2209 
L 2766 2209 
L 2766 2266 
Q 2766 2663 2505 2880 
Q 2244 3097 1772 3097 
Q 1472 3097 1187 3025 
Q 903 2953 641 2809 
L 641 3341 
Q 956 3463 1253 3523 
Q 1550 3584 1831 3584 
Q 2591 3584 2966 3190 
Q 3341 2797 3341 1997 
z
" transform="scale(0.015625)"/>
       <path id="DejaVuSans-6c" d="M 603 4863 
L 1178 4863 
L 1178 0 
L 603 0 
L 603 4863 
z
" transform="scale(0.015625)"/>
      </defs>
      <use xlink:href="#DejaVuSans-74"/>
      <use xlink:href="#DejaVuSans-72" x="39.208984"/>
      <use xlink:href="#DejaVuSans-69" x="80.322266"/>
      <use xlink:href="#DejaVuSans-61" x="108.105469"/>
      <use xlink:href="#DejaVuSans-6c" x="169.384766"/>
     </g>
    </g>
   </g>
   <g id="matplotlib.axis_2">
    <g id="ytick_1">
     <g id="line2d_10">
      <defs>
       <path id="m7ff4f546fe" d="M 0 0 
L -9 0 
" style="stroke: #000000; stroke-width: 1.875"/>
      </defs>
      <g>
       <use xlink:href="#m7ff4f546fe" x="108" y="363.174545" style="stroke: #000000; stroke-width: 1.875"/>
      </g>
     </g>
     <g id="text_11">
      <!-- 0.0 -->
      <g transform="translate(69.259844 369.443256)scale(0.165 -0.165)">
       <defs>
        <path id="DejaVuSans-2e" d="M 684 794 
L 1344 794 
L 1344 0 
L 684 0 
L 684 794 
z
" transform="scale(0.015625)"/>
       </defs>
       <use xlink:href="#DejaVuSans-30"/>
       <use xlink:href="#DejaVuSans-2e" x="63.623047"/>
       <use xlink:href="#DejaVuSans-30" x="95.410156"/>
      </g>
     </g>
    </g>
    <g id="ytick_2">
     <g id="line2d_11">
      <g>
       <use xlink:href="#m7ff4f546fe" x="108" y="306.696623" style="stroke: #000000; stroke-width: 1.875"/>
      </g>
     </g>
     <g id="text_12">
      <!-- 0.2 -->
      <g transform="translate(69.259844 312.965334)scale(0.165 -0.165)">
       <use xlink:href="#DejaVuSans-30"/>
       <use xlink:href="#DejaVuSans-2e" x="63.623047"/>
       <use xlink:href="#DejaVuSans-32" x="95.410156"/>
      </g>
     </g>
    </g>
    <g id="ytick_3">
     <g id="line2d_12">
      <g>
       <use xlink:href="#m7ff4f546fe" x="108" y="250.218701" style="stroke: #000000; stroke-width: 1.875"/>
      </g>
     </g>
     <g id="text_13">
      <!-- 0.4 -->
      <g transform="translate(69.259844 256.487412)scale(0.165 -0.165)">
       <defs>
        <path id="DejaVuSans-34" d="M 2419 4116 
L 825 1625 
L 2419 1625 
L 2419 4116 
z
M 2253 4666 
L 3047 4666 
L 3047 1625 
L 3713 1625 
L 3713 1100 
L 3047 1100 
L 3047 0 
L 2419 0 
L 2419 1100 
L 313 1100 
L 313 1709 
L 2253 4666 
z
" transform="scale(0.015625)"/>
       </defs>
       <use xlink:href="#DejaVuSans-30"/>
       <use xlink:href="#DejaVuSans-2e" x="63.623047"/>
       <use xlink:href="#DejaVuSans-34" x="95.410156"/>
      </g>
     </g>
    </g>
    <g id="ytick_4">
     <g id="line2d_13">
      <g>
       <use xlink:href="#m7ff4f546fe" x="108" y="193.740779" style="stroke: #000000; stroke-width: 1.875"/>
      </g>
     </g>
     <g id="text_14">
      <!-- 0.6 -->
      <g transform="translate(69.259844 200.00949)scale(0.165 -0.165)">
       <defs>
        <path id="DejaVuSans-36" d="M 2113 2584 
Q 1688 2584 1439 2293 
Q 1191 2003 1191 1497 
Q 1191 994 1439 701 
Q 1688 409 2113 409 
Q 2538 409 2786 701 
Q 3034 994 3034 1497 
Q 3034 2003 2786 2293 
Q 2538 2584 2113 2584 
z
M 3366 4563 
L 3366 3988 
Q 3128 4100 2886 4159 
Q 2644 4219 2406 4219 
Q 1781 4219 1451 3797 
Q 1122 3375 1075 2522 
Q 1259 2794 1537 2939 
Q 1816 3084 2150 3084 
Q 2853 3084 3261 2657 
Q 3669 2231 3669 1497 
Q 3669 778 3244 343 
Q 2819 -91 2113 -91 
Q 1303 -91 875 529 
Q 447 1150 447 2328 
Q 447 3434 972 4092 
Q 1497 4750 2381 4750 
Q 2619 4750 2861 4703 
Q 3103 4656 3366 4563 
z
" transform="scale(0.015625)"/>
       </defs>
       <use xlink:href="#DejaVuSans-30"/>
       <use xlink:href="#DejaVuSans-2e" x="63.623047"/>
       <use xlink:href="#DejaVuSans-36" x="95.410156"/>
      </g>
     </g>
    </g>
    <g id="ytick_5">
     <g id="line2d_14">
      <g>
       <use xlink:href="#m7ff4f546fe" x="108" y="137.262857" style="stroke: #000000; stroke-width: 1.875"/>
      </g>
     </g>
     <g id="text_15">
      <!-- 0.8 -->
      <g transform="translate(69.259844 143.531568)scale(0.165 -0.165)">
       <defs>
        <path id="DejaVuSans-38" d="M 2034 2216 
Q 1584 2216 1326 1975 
Q 1069 1734 1069 1313 
Q 1069 891 1326 650 
Q 1584 409 2034 409 
Q 2484 409 2743 651 
Q 3003 894 3003 1313 
Q 3003 1734 2745 1975 
Q 2488 2216 2034 2216 
z
M 1403 2484 
Q 997 2584 770 2862 
Q 544 3141 544 3541 
Q 544 4100 942 4425 
Q 1341 4750 2034 4750 
Q 2731 4750 3128 4425 
Q 3525 4100 3525 3541 
Q 3525 3141 3298 2862 
Q 3072 2584 2669 2484 
Q 3125 2378 3379 2068 
Q 3634 1759 3634 1313 
Q 3634 634 3220 271 
Q 2806 -91 2034 -91 
Q 1263 -91 848 271 
Q 434 634 434 1313 
Q 434 1759 690 2068 
Q 947 2378 1403 2484 
z
M 1172 3481 
Q 1172 3119 1398 2916 
Q 1625 2713 2034 2713 
Q 2441 2713 2670 2916 
Q 2900 3119 2900 3481 
Q 2900 3844 2670 4047 
Q 2441 4250 2034 4250 
Q 1625 4250 1398 4047 
Q 1172 3844 1172 3481 
z
" transform="scale(0.015625)"/>
       </defs>
       <use xlink:href="#DejaVuSans-30"/>
       <use xlink:href="#DejaVuSans-2e" x="63.623047"/>
       <use xlink:href="#DejaVuSans-38" x="95.410156"/>
      </g>
     </g>
    </g>
    <g id="ytick_6">
     <g id="line2d_15">
      <g>
       <use xlink:href="#m7ff4f546fe" x="108" y="80.784935" style="stroke: #000000; stroke-width: 1.875"/>
      </g>
     </g>
     <g id="text_16">
      <!-- 1.0 -->
      <g transform="translate(69.259844 87.053646)scale(0.165 -0.165)">
       <use xlink:href="#DejaVuSans-31"/>
       <use xlink:href="#DejaVuSans-2e" x="63.623047"/>
       <use xlink:href="#DejaVuSans-30" x="95.410156"/>
      </g>
     </g>
    </g>
    <g id="text_17">
     <!-- prediction accuracy -->
     <g transform="translate(61.516406 303.537656)rotate(-90)scale(0.18 -0.18)">
      <defs>
       <path id="DejaVuSans-70" d="M 1159 525 
L 1159 -1331 
L 581 -1331 
L 581 3500 
L 1159 3500 
L 1159 2969 
Q 1341 3281 1617 3432 
Q 1894 3584 2278 3584 
Q 2916 3584 3314 3078 
Q 3713 2572 3713 1747 
Q 3713 922 3314 415 
Q 2916 -91 2278 -91 
Q 1894 -91 1617 61 
Q 1341 213 1159 525 
z
M 3116 1747 
Q 3116 2381 2855 2742 
Q 2594 3103 2138 3103 
Q 1681 3103 1420 2742 
Q 1159 2381 1159 1747 
Q 1159 1113 1420 752 
Q 1681 391 2138 391 
Q 2594 391 2855 752 
Q 3116 1113 3116 1747 
z
" transform="scale(0.015625)"/>
       <path id="DejaVuSans-65" d="M 3597 1894 
L 3597 1613 
L 953 1613 
Q 991 1019 1311 708 
Q 1631 397 2203 397 
Q 2534 397 2845 478 
Q 3156 559 3463 722 
L 3463 178 
Q 3153 47 2828 -22 
Q 2503 -91 2169 -91 
Q 1331 -91 842 396 
Q 353 884 353 1716 
Q 353 2575 817 3079 
Q 1281 3584 2069 3584 
Q 2775 3584 3186 3129 
Q 3597 2675 3597 1894 
z
M 3022 2063 
Q 3016 2534 2758 2815 
Q 2500 3097 2075 3097 
Q 1594 3097 1305 2825 
Q 1016 2553 972 2059 
L 3022 2063 
z
" transform="scale(0.015625)"/>
       <path id="DejaVuSans-64" d="M 2906 2969 
L 2906 4863 
L 3481 4863 
L 3481 0 
L 2906 0 
L 2906 525 
Q 2725 213 2448 61 
Q 2172 -91 1784 -91 
Q 1150 -91 751 415 
Q 353 922 353 1747 
Q 353 2572 751 3078 
Q 1150 3584 1784 3584 
Q 2172 3584 2448 3432 
Q 2725 3281 2906 2969 
z
M 947 1747 
Q 947 1113 1208 752 
Q 1469 391 1925 391 
Q 2381 391 2643 752 
Q 2906 1113 2906 1747 
Q 2906 2381 2643 2742 
Q 2381 3103 1925 3103 
Q 1469 3103 1208 2742 
Q 947 2381 947 1747 
z
" transform="scale(0.015625)"/>
       <path id="DejaVuSans-63" d="M 3122 3366 
L 3122 2828 
Q 2878 2963 2633 3030 
Q 2388 3097 2138 3097 
Q 1578 3097 1268 2742 
Q 959 2388 959 1747 
Q 959 1106 1268 751 
Q 1578 397 2138 397 
Q 2388 397 2633 464 
Q 2878 531 3122 666 
L 3122 134 
Q 2881 22 2623 -34 
Q 2366 -91 2075 -91 
Q 1284 -91 818 406 
Q 353 903 353 1747 
Q 353 2603 823 3093 
Q 1294 3584 2113 3584 
Q 2378 3584 2631 3529 
Q 2884 3475 3122 3366 
z
" transform="scale(0.015625)"/>
       <path id="DejaVuSans-6f" d="M 1959 3097 
Q 1497 3097 1228 2736 
Q 959 2375 959 1747 
Q 959 1119 1226 758 
Q 1494 397 1959 397 
Q 2419 397 2687 759 
Q 2956 1122 2956 1747 
Q 2956 2369 2687 2733 
Q 2419 3097 1959 3097 
z
M 1959 3584 
Q 2709 3584 3137 3096 
Q 3566 2609 3566 1747 
Q 3566 888 3137 398 
Q 2709 -91 1959 -91 
Q 1206 -91 779 398 
Q 353 888 353 1747 
Q 353 2609 779 3096 
Q 1206 3584 1959 3584 
z
" transform="scale(0.015625)"/>
       <path id="DejaVuSans-6e" d="M 3513 2113 
L 3513 0 
L 2938 0 
L 2938 2094 
Q 2938 2591 2744 2837 
Q 2550 3084 2163 3084 
Q 1697 3084 1428 2787 
Q 1159 2491 1159 1978 
L 1159 0 
L 581 0 
L 581 3500 
L 1159 3500 
L 1159 2956 
Q 1366 3272 1645 3428 
Q 1925 3584 2291 3584 
Q 2894 3584 3203 3211 
Q 3513 2838 3513 2113 
z
" transform="scale(0.015625)"/>
       <path id="DejaVuSans-20" transform="scale(0.015625)"/>
       <path id="DejaVuSans-75" d="M 544 1381 
L 544 3500 
L 1119 3500 
L 1119 1403 
Q 1119 906 1312 657 
Q 1506 409 1894 409 
Q 2359 409 2629 706 
Q 2900 1003 2900 1516 
L 2900 3500 
L 3475 3500 
L 3475 0 
L 2900 0 
L 2900 538 
Q 2691 219 2414 64 
Q 2138 -91 1772 -91 
Q 1169 -91 856 284 
Q 544 659 544 1381 
z
M 1991 3584 
L 1991 3584 
z
" transform="scale(0.015625)"/>
       <path id="DejaVuSans-79" d="M 2059 -325 
Q 1816 -950 1584 -1140 
Q 1353 -1331 966 -1331 
L 506 -1331 
L 506 -850 
L 844 -850 
Q 1081 -850 1212 -737 
Q 1344 -625 1503 -206 
L 1606 56 
L 191 3500 
L 800 3500 
L 1894 763 
L 2988 3500 
L 3597 3500 
L 2059 -325 
z
" transform="scale(0.015625)"/>
      </defs>
      <use xlink:href="#DejaVuSans-70"/>
      <use xlink:href="#DejaVuSans-72" x="63.476562"/>
      <use xlink:href="#DejaVuSans-65" x="102.339844"/>
      <use xlink:href="#DejaVuSans-64" x="163.863281"/>
      <use xlink:href="#DejaVuSans-69" x="227.339844"/>
      <use xlink:href="#DejaVuSans-63" x="255.123047"/>
      <use xlink:href="#DejaVuSans-74" x="310.103516"/>
      <use xlink:href="#DejaVuSans-69" x="349.3125"/>
      <use xlink:href="#DejaVuSans-6f" x="377.095703"/>
      <use xlink:href="#DejaVuSans-6e" x="438.277344"/>
      <use xlink:href="#DejaVuSans-20" x="501.65625"/>
      <use xlink:href="#DejaVuSans-61" x="533.443359"/>
      <use xlink:href="#DejaVuSans-63" x="594.722656"/>
      <use xlink:href="#DejaVuSans-63" x="649.703125"/>
      <use xlink:href="#DejaVuSans-75" x="704.683594"/>
      <use xlink:href="#DejaVuSans-72" x="768.0625"/>
      <use xlink:href="#DejaVuSans-61" x="809.175781"/>
      <use xlink:href="#DejaVuSans-63" x="870.455078"/>
      <use xlink:href="#DejaVuSans-79" x="925.435547"/>
     </g>
    </g>
   </g>
   <g id="line2d_16">
    <path d="M 138.436364 240.805714 
L 141.48 178.160663 
L 144.523636 227.41031 
L 147.567273 202.504595 
L 150.610909 248.453766 
L 153.654545 239.319453 
L 156.698182 251.192459 
L 159.741818 244.273657 
L 162.785455 217.110954 
L 165.829091 241.52979 
L 168.872727 229.159137 
L 171.916364 181.296491 
L 174.96 208.742727 
L 178.003636 226.392078 
L 181.047273 215.657585 
L 184.090909 254.563157 
L 187.134545 155.09799 
L 190.178182 242.811761 
L 193.221818 241.454886 
L 196.265455 193.740779 
L 199.309091 191.525959 
L 202.352727 246.323672 
L 205.396364 187.259706 
L 208.44 242.150427 
L 211.483636 204.33039 
L 214.527273 250.218701 
L 217.570909 206.291429 
L 220.614545 205.227814 
L 223.658182 204.640027 
L 226.701818 230.285317 
L 229.745455 198.085235 
L 232.789091 224.372873 
L 235.832727 176.299068 
L 238.876364 226.258371 
L 241.92 221.97974 
L 244.963636 230.804416 
L 248.007273 191.723711 
L 251.050909 241.52979 
L 254.094545 210.014079 
L 257.138182 242.150427 
L 263.225455 201.809054 
L 266.269091 204.33039 
L 269.312727 217.70111 
L 272.356364 211.118601 
L 275.4 237.668052 
L 278.443636 219.807512 
L 281.487273 287.534471 
L 284.530909 217.567403 
L 287.574545 238.116289 
L 290.618182 180.707413 
L 293.661818 211.894397 
L 296.705455 165.080341 
L 299.749091 221.97974 
L 302.792727 180.707413 
L 305.836364 219.315687 
L 308.88 234.365249 
L 311.923636 241.454886 
L 314.967273 192.767022 
L 318.010909 228.301896 
L 321.054545 174.914805 
L 324.098182 206.291429 
L 327.141818 211.894397 
L 330.185455 228.301896 
L 333.229091 183.472066 
L 336.272727 206.291429 
L 339.316364 205.227814 
L 342.36 215.463057 
L 345.403636 221.97974 
L 348.447273 227.41031 
L 351.490909 221.97974 
L 354.534545 241.52979 
L 357.578182 188.361929 
L 360.621818 191.889044 
L 363.665455 185.051868 
L 366.709091 161.467681 
L 369.752727 219.586608 
L 372.796364 214.800343 
L 375.84 189.034286 
L 378.883636 212.242167 
L 381.927273 226.848527 
L 384.970909 215.463057 
L 388.014545 237.668052 
L 391.058182 221.97974 
L 394.101818 200.44155 
L 397.145455 191.889044 
L 400.189091 224.026042 
L 403.232727 207.65563 
L 406.276364 183.472066 
L 409.32 213.674163 
L 412.363636 156.425009 
L 415.407273 201.809054 
L 418.450909 224.456842 
L 421.494545 262.662989 
L 424.538182 173.509882 
L 427.581818 230.285317 
L 430.625455 199.470423 
L 433.669091 219.807512 
L 436.712727 199.206385 
L 439.756364 242.150427 
L 442.8 182.268701 
L 445.843636 237.107755 
L 448.887273 224.151968 
L 451.930909 212.242167 
L 454.974545 204.081807 
L 458.018182 219.807512 
L 461.061818 244.273657 
L 464.105455 210.213506 
L 467.149091 195.505714 
L 470.192727 235.216753 
L 473.236364 203.761056 
L 476.28 217.425069 
L 479.323636 214.278205 
L 482.367273 226.534411 
L 485.410909 165.006398 
L 488.454545 189.777416 
L 491.498182 201.809054 
L 494.541818 173.371693 
L 497.585455 217.70111 
L 500.629091 219.502638 
L 503.672727 235.643754 
L 509.76 173.371693 
L 512.803636 206.851725 
L 515.847273 204.865218 
L 518.890909 201.215798 
L 521.934545 217.110954 
L 524.978182 176.595696 
L 528.021818 186.082756 
L 531.065455 174.914805 
L 534.109091 197.06301 
L 537.152727 191.723711 
L 540.196364 183.879555 
L 543.24 237.668052 
L 546.283636 214.278205 
L 549.327273 223.913916 
L 552.370909 207.373381 
L 555.414545 197.06301 
L 558.458182 183.879555 
L 561.501818 248.453766 
L 564.545455 199.206385 
L 567.589091 189.777416 
L 570.632727 193.740779 
L 573.676364 199.206385 
L 576.72 184.519894 
L 579.763636 255.866494 
L 582.807273 189.034286 
L 585.850909 224.372873 
L 588.894545 190.097042 
L 591.938182 211.118601 
L 594.981818 190.86902 
L 598.025455 230.804416 
L 601.069091 235.300005 
L 604.112727 192.767022 
L 607.156364 216.937069 
L 610.2 212.242167 
L 613.243636 208.659476 
L 616.287273 216.549171 
L 619.330909 179.621299 
L 622.374545 181.296491 
L 625.418182 225.901818 
L 628.461818 242.150427 
L 631.505455 208.315727 
L 634.549091 246.323672 
L 637.592727 158.685517 
L 640.636364 201.14772 
L 643.68 209.143849 
L 646.723636 171.362735 
L 649.767273 208.059126 
L 652.810909 202.504595 
L 655.854545 197.635808 
L 658.898182 226.848527 
L 661.941818 224.220928 
L 664.985455 219.586608 
L 668.029091 227.945718 
L 671.072727 227.022412 
L 674.116364 233.945402 
L 677.16 219.098214 
L 680.203636 215.035733 
L 683.247273 198.875136 
L 686.290909 210.773803 
L 689.334545 208.315727 
L 692.378182 168.742355 
L 695.421818 164.619351 
L 698.465455 224.294409 
L 701.509091 211.442814 
L 704.552727 206.291429 
L 707.596364 206.291429 
L 710.64 198.875136 
L 713.683636 187.347052 
L 716.727273 191.889044 
L 719.770909 184.823213 
L 722.814545 203.33137 
L 725.858182 186.082756 
L 728.901818 196.518382 
L 731.945455 176.433029 
L 734.989091 201.14772 
L 738.032727 194.651713 
L 741.076364 221.97974 
L 744.12 209.143849 
L 744.12 209.143849 
" clip-path="url(#p08f4afc48c)" style="fill: none; stroke: #008000; stroke-width: 2.25; stroke-linecap: square"/>
   </g>
   <g id="line2d_17">
    <path d="M 108 221.97974 
L 777.6 221.97974 
" clip-path="url(#p08f4afc48c)" style="fill: none; stroke: #000000; stroke-width: 2.25; stroke-linecap: square"/>
   </g>
   <g id="patch_3">
    <path d="M 108 378 
L 108 51.84 
" style="fill: none; stroke: #000000; stroke-width: 1.875; stroke-linejoin: miter; stroke-linecap: square"/>
   </g>
   <g id="patch_4">
    <path d="M 777.6 378 
L 777.6 51.84 
" style="fill: none; stroke: #000000; stroke-width: 1.875; stroke-linejoin: miter; stroke-linecap: square"/>
   </g>
   <g id="patch_5">
    <path d="M 108 378 
L 777.6 378 
" style="fill: none; stroke: #000000; stroke-width: 1.875; stroke-linejoin: miter; stroke-linecap: square"/>
   </g>
   <g id="patch_6">
    <path d="M 108 51.84 
L 777.6 51.84 
" style="fill: none; stroke: #000000; stroke-width: 1.875; stroke-linejoin: miter; stroke-linecap: square"/>
   </g>
  </g>
 </g>
 <defs>
  <clipPath id="p08f4afc48c">
   <rect x="108" y="51.84" width="669.6" height="326.16"/>
  </clipPath>
 </defs>
</svg>
