<?xml version="1.0" encoding="utf-8" standalone="no"?>
<!DOCTYPE svg PUBLIC "-//W3C//DTD SVG 1.1//EN"
  "http://www.w3.org/Graphics/SVG/1.1/DTD/svg11.dtd">
<svg xmlns:xlink="http://www.w3.org/1999/xlink" width="864pt" height="432pt" viewBox="0 0 864 432" xmlns="http://www.w3.org/2000/svg" version="1.1">
 <metadata>
  <rdf:RDF xmlns:dc="http://purl.org/dc/elements/1.1/" xmlns:cc="http://creativecommons.org/ns#" xmlns:rdf="http://www.w3.org/1999/02/22-rdf-syntax-ns#">
   <cc:Work>
    <dc:type rdf:resource="http://purl.org/dc/dcmitype/StillImage"/>
    <dc:date>2023-05-02T17:27:11.295687</dc:date>
    <dc:format>image/svg+xml</dc:format>
    <dc:creator>
     <cc:Agent>
      <dc:title>Matplotlib v3.5.1, https://matplotlib.org/</dc:title>
     </cc:Agent>
    </dc:creator>
   </cc:Work>
  </rdf:RDF>
 </metadata>
 <defs>
  <style type="text/css">*{stroke-linejoin: round; stroke-linecap: butt}</style>
 </defs>
 <g id="figure_1">
  <g id="patch_1">
   <path d="M 0 432 
L 864 432 
L 864 0 
L 0 0 
L 0 432 
z
" style="fill: none"/>
  </g>
  <g id="axes_1">
   <g id="patch_2">
    <path d="M 108 378 
L 777.6 378 
L 777.6 51.84 
L 108 51.84 
z
" style="fill: #ffffff"/>
   </g>
   <g id="PolyCollection_1">
    <defs>
     <path id="m9a4c9fe05c" d="M 138.436364 -252.60282 
L 138.436364 -189.737514 
L 141.48 -239.232978 
L 144.523636 -250.703509 
L 147.567273 -246.948132 
L 150.610909 -283.979443 
L 153.654545 -287.920842 
L 156.698182 -216.964267 
L 159.741818 -251.0123 
L 162.785455 -275.574991 
L 165.829091 -273.848048 
L 168.872727 -288.923239 
L 171.916364 -294.737143 
L 174.96 -261.363825 
L 178.003636 -281.949689 
L 181.047273 -314.180362 
L 184.090909 -301.381604 
L 187.134545 -278.478347 
L 190.178182 -282.894998 
L 193.221818 -290.392687 
L 196.265455 -287.920842 
L 199.309091 -306.196431 
L 202.352727 -314.777696 
L 205.396364 -278.002944 
L 208.44 -298.566155 
L 211.483636 -306.627232 
L 214.527273 -310.140213 
L 217.570909 -316.459421 
L 220.614545 -257.085195 
L 223.658182 -314.907829 
L 226.701818 -313.563117 
L 229.745455 -287.035608 
L 232.789091 -328.803191 
L 235.832727 -304.15013 
L 238.876364 -298.566155 
L 241.92 -309.435291 
L 244.963636 -284.207361 
L 248.007273 -309.238231 
L 251.050909 -314.180362 
L 254.094545 -288.461818 
L 257.138182 -318.26961 
L 260.181818 -120.16902 
L 263.225455 -218.325837 
L 266.269091 -246.62632 
L 269.312727 -276.205325 
L 272.356364 -262.704889 
L 275.4 -277.145659 
L 278.443636 -308.138684 
L 281.487273 -282.894998 
L 284.530909 -286.048232 
L 287.574545 -305.668354 
L 290.618182 -262.968312 
L 293.661818 -282.756978 
L 296.705455 -300.788349 
L 299.749091 -278.478347 
L 302.792727 -297.426568 
L 305.836364 -310.223025 
L 308.88 -298.566155 
L 311.923636 -261.56757 
L 314.967273 -278.340327 
L 318.010909 -306.391317 
L 321.054545 -304.852592 
L 324.098182 -307.770509 
L 327.141818 -316.535639 
L 330.185455 -280.617662 
L 333.229091 -285.324156 
L 336.272727 -293.854675 
L 339.316364 -287.920842 
L 342.36 -313.563117 
L 345.403636 -283.052056 
L 348.447273 -302.679351 
L 351.490909 -300.292348 
L 354.534545 -320.803876 
L 357.578182 -311.504026 
L 360.621818 -310.109158 
L 363.665455 -287.035608 
L 366.709091 -306.391317 
L 369.752727 -275.574991 
L 372.796364 -264.676313 
L 375.84 -305.534393 
L 378.883636 -327.283742 
L 381.927273 -203.698104 
L 384.970909 -303.352419 
L 388.014545 -287.449669 
L 391.058182 -286.288601 
L 394.101818 -303.426054 
L 397.145455 -253.99897 
L 400.189091 -319.332367 
L 403.232727 -300.637821 
L 406.276364 -303.426054 
L 409.32 -317.992758 
L 412.363636 -318.8097 
L 415.407273 -301.113682 
L 418.450909 -281.816486 
L 421.494545 -316.535639 
L 424.538182 -295.66301 
L 427.581818 -299.081598 
L 430.625455 -299.443636 
L 433.669091 -315.356067 
L 436.712727 -284.207361 
L 439.756364 -309.797922 
L 442.8 -315.356067 
L 445.843636 -302.805417 
L 448.887273 -288.923239 
L 451.930909 -316.986021 
L 454.974545 -277.793766 
L 458.018182 -296.559011 
L 461.061818 -318.941967 
L 464.105455 -281.703776 
L 467.149091 -293.189803 
L 470.192727 -285.324156 
L 473.236364 -313.563117 
L 476.28 -308.42876 
L 479.323636 -308.138684 
L 482.367273 -309.687181 
L 485.410909 -316.535639 
L 488.454545 -320.328701 
L 491.498182 -304.921686 
L 494.541818 -303.426054 
L 497.585455 -304.15013 
L 500.629091 -303.262112 
L 503.672727 -242.965714 
L 506.716364 -292.789628 
L 509.76 -294.737143 
L 512.803636 -301.113682 
L 515.847273 -324.062218 
L 518.890909 -276.90201 
L 521.934545 -302.527201 
L 524.978182 -302.679351 
L 528.021818 -305.534393 
L 531.065455 -293.77989 
L 534.109091 -301.908942 
L 537.152727 -303.487243 
L 540.196364 -309.687181 
L 543.24 -296.423051 
L 546.283636 -277.145659 
L 549.327273 -327.682597 
L 552.370909 -299.443636 
L 555.414545 -320.832968 
L 558.458182 -336.352454 
L 561.501818 -287.449669 
L 564.545455 -303.487243 
L 567.589091 -309.551024 
L 570.632727 -307.770509 
L 573.676364 -316.986021 
L 576.72 -271.293477 
L 579.763636 -306.98138 
L 582.807273 -330.75205 
L 585.850909 -322.497477 
L 588.894545 -272.516321 
L 591.938182 -304.15013 
L 594.981818 -293.691255 
L 598.025455 -292.789628 
L 601.069091 -298.566155 
L 604.112727 -307.770509 
L 607.156364 -292.208281 
L 610.2 -258.708124 
L 613.243636 -302.33994 
L 616.287273 -330.75205 
L 619.330909 -318.26961 
L 622.374545 -308.42876 
L 625.418182 -276.621583 
L 628.461818 -281.774997 
L 631.505455 -294.737143 
L 634.549091 -288.923239 
L 637.592727 -259.73674 
L 640.636364 -273.314483 
L 643.68 -296.559011 
L 646.723636 -270.532319 
L 649.767273 -299.081598 
L 652.810909 -313.839969 
L 655.854545 -279.497069 
L 658.898182 -301.908942 
L 661.941818 -281.856213 
L 664.985455 -277.359321 
L 668.029091 -303.352419 
L 671.072727 -275.911169 
L 674.116364 -287.035608 
L 677.16 -291.890473 
L 680.203636 -271.134429 
L 683.247273 -290.392687 
L 686.290909 -271.947806 
L 689.334545 -315.916364 
L 692.378182 -265.062302 
L 695.421818 -262.968312 
L 698.465455 -319.332367 
L 701.509091 -299.443636 
L 704.552727 -280.617662 
L 707.596364 -268.445696 
L 710.64 -262.039398 
L 713.683636 -278.478347 
L 716.727273 -295.745677 
L 719.770909 -326.871133 
L 722.814545 -309.687181 
L 725.858182 -298.566155 
L 728.901818 -287.449669 
L 731.945455 -283.232381 
L 734.989091 -262.704889 
L 738.032727 -261.56757 
L 741.076364 -301.908942 
L 744.12 -273.014865 
L 744.12 -325.148332 
L 744.12 -325.148332 
L 741.076364 -342.250315 
L 738.032727 -319.838442 
L 734.989091 -317.496903 
L 731.945455 -335.526753 
L 728.901818 -337.551052 
L 725.858182 -341.642536 
L 722.814545 -347.062277 
L 719.770909 -351.215065 
L 716.727273 -341.129722 
L 713.683636 -325.543282 
L 710.64 -321.489843 
L 707.596364 -326.871133 
L 704.552727 -329.263685 
L 701.509091 -341.802078 
L 698.465455 -351.215065 
L 695.421818 -320.328701 
L 692.378182 -322.497477 
L 689.334545 -346.802727 
L 686.290909 -326.444046 
L 683.247273 -338.181698 
L 680.203636 -321.711673 
L 677.16 -337.551052 
L 674.116364 -334.100543 
L 671.072727 -327.682597 
L 668.029091 -346.4288 
L 664.985455 -325.148332 
L 661.941818 -331.39825 
L 658.898182 -342.250315 
L 655.854545 -328.803191 
L 652.810909 -347.062277 
L 649.767273 -338.29031 
L 646.723636 -326.001707 
L 643.68 -337.551052 
L 640.636364 -326.871133 
L 637.592727 -315.419199 
L 634.549091 -334.603911 
L 631.505455 -336.154286 
L 628.461818 -332.697713 
L 625.418182 -329.902642 
L 622.374545 -342.657804 
L 619.330909 -351.215065 
L 616.287273 -351.215065 
L 613.243636 -345.784496 
L 610.2 -317.13356 
L 607.156364 -338.570754 
L 604.112727 -346.870609 
L 601.069091 -341.642536 
L 598.025455 -336.608706 
L 594.981818 -340.75619 
L 591.938182 -342.657804 
L 588.894545 -328.068376 
L 585.850909 -351.215065 
L 582.807273 -351.215065 
L 579.763636 -342.39039 
L 576.72 -329.902642 
L 573.676364 -346.936434 
L 570.632727 -346.870609 
L 567.589091 -346.585727 
L 564.545455 -339.28311 
L 561.501818 -337.551052 
L 558.458182 -351.215065 
L 555.414545 -351.215065 
L 552.370909 -341.802078 
L 549.327273 -351.215065 
L 546.283636 -328.068376 
L 543.24 -338.570754 
L 540.196364 -347.062277 
L 537.152727 -339.382543 
L 534.109091 -342.250315 
L 531.065455 -336.856271 
L 528.021818 -342.909488 
L 524.978182 -342.39039 
L 521.934545 -346.346279 
L 518.890909 -331.39825 
L 515.847273 -351.215065 
L 512.803636 -342.105723 
L 509.76 -340.946352 
L 506.716364 -341.477492 
L 503.672727 -308.856623 
L 500.629091 -345.886959 
L 497.585455 -346.508571 
L 494.541818 -342.526154 
L 491.498182 -341.956389 
L 488.454545 -351.215065 
L 485.410909 -351.215065 
L 482.367273 -347.062277 
L 479.323636 -341.762192 
L 476.28 -346.936434 
L 473.236364 -346.508571 
L 470.192727 -332.389091 
L 467.149091 -335.741662 
L 464.105455 -329.492787 
L 461.061818 -347.180928 
L 458.018182 -337.664918 
L 454.974545 -334.271688 
L 451.930909 -346.936434 
L 448.887273 -334.603911 
L 445.843636 -343.14679 
L 442.8 -346.73269 
L 439.756364 -343.684675 
L 436.712727 -336.856271 
L 433.669091 -346.73269 
L 430.625455 -341.802078 
L 427.581818 -338.181698 
L 424.538182 -337.327051 
L 421.494545 -351.215065 
L 418.450909 -329.902642 
L 415.407273 -342.105723 
L 412.363636 -351.215065 
L 409.32 -351.215065 
L 406.276364 -342.526154 
L 403.232727 -342.785524 
L 400.189091 -351.215065 
L 397.145455 -314.180362 
L 394.101818 -342.526154 
L 391.058182 -332.697713 
L 388.014545 -337.551052 
L 384.970909 -346.4288 
L 381.927273 -275.349199 
L 378.883636 -351.215065 
L 375.84 -342.909488 
L 372.796364 -319.332367 
L 369.752727 -331.044378 
L 366.709091 -346.73269 
L 363.665455 -329.821913 
L 360.621818 -346.660394 
L 357.578182 -346.802727 
L 354.534545 -351.215065 
L 351.490909 -341.956389 
L 348.447273 -342.39039 
L 345.403636 -331.739919 
L 342.36 -346.508571 
L 339.316364 -336.608706 
L 336.272727 -337.978052 
L 333.229091 -337.095584 
L 330.185455 -329.153377 
L 327.141818 -351.215065 
L 324.098182 -346.870609 
L 321.054545 -342.785524 
L 318.010909 -346.73269 
L 314.967273 -328.441709 
L 311.923636 -319.838442 
L 308.88 -341.642536 
L 305.836364 -346.660394 
L 302.792727 -337.767941 
L 299.749091 -325.650248 
L 296.705455 -346.172393 
L 293.661818 -329.821913 
L 290.618182 -315.916364 
L 287.574545 -346.660394 
L 284.530909 -333.837243 
L 281.487273 -332.99638 
L 278.443636 -346.4288 
L 275.4 -328.068376 
L 272.356364 -321.711673 
L 269.312727 -329.153377 
L 266.269091 -309.379567 
L 263.225455 -284.770451 
L 260.181818 -184.348477 
L 257.138182 -351.215065 
L 254.094545 -337.767941 
L 251.050909 -346.585727 
L 248.007273 -343.582913 
L 244.963636 -332.070007 
L 241.92 -346.585727 
L 238.876364 -341.642536 
L 235.832727 -342.657804 
L 232.789091 -351.215065 
L 229.745455 -334.100543 
L 226.701818 -346.508571 
L 223.658182 -347.180928 
L 220.614545 -312.707391 
L 217.570909 -346.870609 
L 214.527273 -346.209067 
L 211.483636 -346.260861 
L 208.44 -341.642536 
L 205.396364 -335.526753 
L 202.352727 -346.660394 
L 199.309091 -343.029859 
L 196.265455 -336.608706 
L 193.221818 -338.181698 
L 190.178182 -332.99638 
L 187.134545 -329.821913 
L 184.090909 -338.7567 
L 181.047273 -346.585727 
L 178.003636 -335.230747 
L 174.96 -316.986021 
L 171.916364 -341.802078 
L 168.872727 -334.603911 
L 165.829091 -324.136609 
L 162.785455 -331.044378 
L 159.741818 -310.336891 
L 156.698182 -286.404335 
L 153.654545 -331.739919 
L 150.610909 -333.285566 
L 147.567273 -307.770509 
L 144.523636 -312.924948 
L 141.48 -302.527201 
L 138.436364 -252.60282 
z
" style="stroke: #800080; stroke-opacity: 0.2; stroke-width: 1.5"/>
    </defs>
    <g clip-path="url(#pbd69d31219)">
     <use xlink:href="#m9a4c9fe05c" x="0" y="432" style="fill: #800080; fill-opacity: 0.2; stroke: #800080; stroke-opacity: 0.2; stroke-width: 1.5"/>
    </g>
   </g>
   <g id="PolyCollection_2">
    <defs>
     <path id="m005a333360" d="M 138.436364 -365.334545 
L 138.436364 -68.825455 
L 141.48 -68.825455 
L 144.523636 -68.825455 
L 147.567273 -68.825455 
L 150.610909 -68.825455 
L 153.654545 -68.825455 
L 156.698182 -68.825455 
L 159.741818 -68.825455 
L 162.785455 -68.825455 
L 165.829091 -68.825455 
L 168.872727 -68.825455 
L 171.916364 -68.825455 
L 174.96 -68.825455 
L 178.003636 -68.825455 
L 181.047273 -68.825455 
L 184.090909 -68.825455 
L 187.134545 -68.825455 
L 190.178182 -68.825455 
L 193.221818 -68.825455 
L 196.265455 -68.825455 
L 199.309091 -68.825455 
L 202.352727 -68.825455 
L 205.396364 -68.825455 
L 208.44 -68.825455 
L 211.483636 -68.825455 
L 214.527273 -68.825455 
L 217.570909 -68.825455 
L 220.614545 -68.825455 
L 223.658182 -68.825455 
L 226.701818 -68.825455 
L 229.745455 -68.825455 
L 232.789091 -68.825455 
L 235.832727 -68.825455 
L 238.876364 -68.825455 
L 241.92 -68.825455 
L 244.963636 -68.825455 
L 248.007273 -68.825455 
L 251.050909 -68.825455 
L 254.094545 -68.825455 
L 257.138182 -68.825455 
L 260.181818 -68.825455 
L 260.181818 -365.334545 
L 260.181818 -365.334545 
L 257.138182 -365.334545 
L 254.094545 -365.334545 
L 251.050909 -365.334545 
L 248.007273 -365.334545 
L 244.963636 -365.334545 
L 241.92 -365.334545 
L 238.876364 -365.334545 
L 235.832727 -365.334545 
L 232.789091 -365.334545 
L 229.745455 -365.334545 
L 226.701818 -365.334545 
L 223.658182 -365.334545 
L 220.614545 -365.334545 
L 217.570909 -365.334545 
L 214.527273 -365.334545 
L 211.483636 -365.334545 
L 208.44 -365.334545 
L 205.396364 -365.334545 
L 202.352727 -365.334545 
L 199.309091 -365.334545 
L 196.265455 -365.334545 
L 193.221818 -365.334545 
L 190.178182 -365.334545 
L 187.134545 -365.334545 
L 184.090909 -365.334545 
L 181.047273 -365.334545 
L 178.003636 -365.334545 
L 174.96 -365.334545 
L 171.916364 -365.334545 
L 168.872727 -365.334545 
L 165.829091 -365.334545 
L 162.785455 -365.334545 
L 159.741818 -365.334545 
L 156.698182 -365.334545 
L 153.654545 -365.334545 
L 150.610909 -365.334545 
L 147.567273 -365.334545 
L 144.523636 -365.334545 
L 141.48 -365.334545 
L 138.436364 -365.334545 
z
" style="stroke: #008000; stroke-opacity: 0.2; stroke-width: 1.5"/>
    </defs>
    <g clip-path="url(#pbd69d31219)">
     <use xlink:href="#m005a333360" x="0" y="432" style="fill: #008000; fill-opacity: 0.2; stroke: #008000; stroke-opacity: 0.2; stroke-width: 1.5"/>
    </g>
   </g>
   <g id="PolyCollection_3">
    <defs>
     <path id="m791c96aa35" d="M 260.181818 -365.334545 
L 260.181818 -68.825455 
L 263.225455 -68.825455 
L 266.269091 -68.825455 
L 269.312727 -68.825455 
L 272.356364 -68.825455 
L 275.4 -68.825455 
L 278.443636 -68.825455 
L 281.487273 -68.825455 
L 284.530909 -68.825455 
L 287.574545 -68.825455 
L 290.618182 -68.825455 
L 293.661818 -68.825455 
L 296.705455 -68.825455 
L 299.749091 -68.825455 
L 302.792727 -68.825455 
L 305.836364 -68.825455 
L 308.88 -68.825455 
L 311.923636 -68.825455 
L 314.967273 -68.825455 
L 318.010909 -68.825455 
L 321.054545 -68.825455 
L 324.098182 -68.825455 
L 327.141818 -68.825455 
L 330.185455 -68.825455 
L 333.229091 -68.825455 
L 336.272727 -68.825455 
L 339.316364 -68.825455 
L 342.36 -68.825455 
L 345.403636 -68.825455 
L 348.447273 -68.825455 
L 351.490909 -68.825455 
L 354.534545 -68.825455 
L 357.578182 -68.825455 
L 360.621818 -68.825455 
L 363.665455 -68.825455 
L 366.709091 -68.825455 
L 369.752727 -68.825455 
L 372.796364 -68.825455 
L 375.84 -68.825455 
L 378.883636 -68.825455 
L 381.927273 -68.825455 
L 381.927273 -365.334545 
L 381.927273 -365.334545 
L 378.883636 -365.334545 
L 375.84 -365.334545 
L 372.796364 -365.334545 
L 369.752727 -365.334545 
L 366.709091 -365.334545 
L 363.665455 -365.334545 
L 360.621818 -365.334545 
L 357.578182 -365.334545 
L 354.534545 -365.334545 
L 351.490909 -365.334545 
L 348.447273 -365.334545 
L 345.403636 -365.334545 
L 342.36 -365.334545 
L 339.316364 -365.334545 
L 336.272727 -365.334545 
L 333.229091 -365.334545 
L 330.185455 -365.334545 
L 327.141818 -365.334545 
L 324.098182 -365.334545 
L 321.054545 -365.334545 
L 318.010909 -365.334545 
L 314.967273 -365.334545 
L 311.923636 -365.334545 
L 308.88 -365.334545 
L 305.836364 -365.334545 
L 302.792727 -365.334545 
L 299.749091 -365.334545 
L 296.705455 -365.334545 
L 293.661818 -365.334545 
L 290.618182 -365.334545 
L 287.574545 -365.334545 
L 284.530909 -365.334545 
L 281.487273 -365.334545 
L 278.443636 -365.334545 
L 275.4 -365.334545 
L 272.356364 -365.334545 
L 269.312727 -365.334545 
L 266.269091 -365.334545 
L 263.225455 -365.334545 
L 260.181818 -365.334545 
z
" style="stroke: #0000ff; stroke-opacity: 0.2; stroke-width: 1.5"/>
    </defs>
    <g clip-path="url(#pbd69d31219)">
     <use xlink:href="#m791c96aa35" x="0" y="432" style="fill: #0000ff; fill-opacity: 0.2; stroke: #0000ff; stroke-opacity: 0.2; stroke-width: 1.5"/>
    </g>
   </g>
   <g id="PolyCollection_4">
    <defs>
     <path id="m5ca5e3f447" d="M 381.927273 -365.334545 
L 381.927273 -68.825455 
L 384.970909 -68.825455 
L 388.014545 -68.825455 
L 391.058182 -68.825455 
L 394.101818 -68.825455 
L 397.145455 -68.825455 
L 400.189091 -68.825455 
L 403.232727 -68.825455 
L 406.276364 -68.825455 
L 409.32 -68.825455 
L 412.363636 -68.825455 
L 415.407273 -68.825455 
L 418.450909 -68.825455 
L 421.494545 -68.825455 
L 424.538182 -68.825455 
L 427.581818 -68.825455 
L 430.625455 -68.825455 
L 433.669091 -68.825455 
L 436.712727 -68.825455 
L 439.756364 -68.825455 
L 442.8 -68.825455 
L 445.843636 -68.825455 
L 448.887273 -68.825455 
L 451.930909 -68.825455 
L 454.974545 -68.825455 
L 458.018182 -68.825455 
L 461.061818 -68.825455 
L 464.105455 -68.825455 
L 467.149091 -68.825455 
L 470.192727 -68.825455 
L 473.236364 -68.825455 
L 476.28 -68.825455 
L 479.323636 -68.825455 
L 482.367273 -68.825455 
L 485.410909 -68.825455 
L 488.454545 -68.825455 
L 491.498182 -68.825455 
L 494.541818 -68.825455 
L 497.585455 -68.825455 
L 500.629091 -68.825455 
L 503.672727 -68.825455 
L 503.672727 -365.334545 
L 503.672727 -365.334545 
L 500.629091 -365.334545 
L 497.585455 -365.334545 
L 494.541818 -365.334545 
L 491.498182 -365.334545 
L 488.454545 -365.334545 
L 485.410909 -365.334545 
L 482.367273 -365.334545 
L 479.323636 -365.334545 
L 476.28 -365.334545 
L 473.236364 -365.334545 
L 470.192727 -365.334545 
L 467.149091 -365.334545 
L 464.105455 -365.334545 
L 461.061818 -365.334545 
L 458.018182 -365.334545 
L 454.974545 -365.334545 
L 451.930909 -365.334545 
L 448.887273 -365.334545 
L 445.843636 -365.334545 
L 442.8 -365.334545 
L 439.756364 -365.334545 
L 436.712727 -365.334545 
L 433.669091 -365.334545 
L 430.625455 -365.334545 
L 427.581818 -365.334545 
L 424.538182 -365.334545 
L 421.494545 -365.334545 
L 418.450909 -365.334545 
L 415.407273 -365.334545 
L 412.363636 -365.334545 
L 409.32 -365.334545 
L 406.276364 -365.334545 
L 403.232727 -365.334545 
L 400.189091 -365.334545 
L 397.145455 -365.334545 
L 394.101818 -365.334545 
L 391.058182 -365.334545 
L 388.014545 -365.334545 
L 384.970909 -365.334545 
L 381.927273 -365.334545 
z
" style="stroke: #008000; stroke-opacity: 0.2; stroke-width: 1.5"/>
    </defs>
    <g clip-path="url(#pbd69d31219)">
     <use xlink:href="#m5ca5e3f447" x="0" y="432" style="fill: #008000; fill-opacity: 0.2; stroke: #008000; stroke-opacity: 0.2; stroke-width: 1.5"/>
    </g>
   </g>
   <g id="PolyCollection_5">
    <defs>
     <path id="mf892b32a69" d="M 503.672727 -365.334545 
L 503.672727 -68.825455 
L 506.716364 -68.825455 
L 509.76 -68.825455 
L 512.803636 -68.825455 
L 515.847273 -68.825455 
L 518.890909 -68.825455 
L 521.934545 -68.825455 
L 524.978182 -68.825455 
L 528.021818 -68.825455 
L 531.065455 -68.825455 
L 534.109091 -68.825455 
L 537.152727 -68.825455 
L 540.196364 -68.825455 
L 543.24 -68.825455 
L 546.283636 -68.825455 
L 549.327273 -68.825455 
L 552.370909 -68.825455 
L 555.414545 -68.825455 
L 558.458182 -68.825455 
L 561.501818 -68.825455 
L 564.545455 -68.825455 
L 567.589091 -68.825455 
L 570.632727 -68.825455 
L 573.676364 -68.825455 
L 576.72 -68.825455 
L 579.763636 -68.825455 
L 582.807273 -68.825455 
L 585.850909 -68.825455 
L 588.894545 -68.825455 
L 591.938182 -68.825455 
L 594.981818 -68.825455 
L 598.025455 -68.825455 
L 601.069091 -68.825455 
L 604.112727 -68.825455 
L 607.156364 -68.825455 
L 610.2 -68.825455 
L 613.243636 -68.825455 
L 616.287273 -68.825455 
L 619.330909 -68.825455 
L 622.374545 -68.825455 
L 625.418182 -68.825455 
L 625.418182 -365.334545 
L 625.418182 -365.334545 
L 622.374545 -365.334545 
L 619.330909 -365.334545 
L 616.287273 -365.334545 
L 613.243636 -365.334545 
L 610.2 -365.334545 
L 607.156364 -365.334545 
L 604.112727 -365.334545 
L 601.069091 -365.334545 
L 598.025455 -365.334545 
L 594.981818 -365.334545 
L 591.938182 -365.334545 
L 588.894545 -365.334545 
L 585.850909 -365.334545 
L 582.807273 -365.334545 
L 579.763636 -365.334545 
L 576.72 -365.334545 
L 573.676364 -365.334545 
L 570.632727 -365.334545 
L 567.589091 -365.334545 
L 564.545455 -365.334545 
L 561.501818 -365.334545 
L 558.458182 -365.334545 
L 555.414545 -365.334545 
L 552.370909 -365.334545 
L 549.327273 -365.334545 
L 546.283636 -365.334545 
L 543.24 -365.334545 
L 540.196364 -365.334545 
L 537.152727 -365.334545 
L 534.109091 -365.334545 
L 531.065455 -365.334545 
L 528.021818 -365.334545 
L 524.978182 -365.334545 
L 521.934545 -365.334545 
L 518.890909 -365.334545 
L 515.847273 -365.334545 
L 512.803636 -365.334545 
L 509.76 -365.334545 
L 506.716364 -365.334545 
L 503.672727 -365.334545 
z
" style="stroke: #0000ff; stroke-opacity: 0.2; stroke-width: 1.5"/>
    </defs>
    <g clip-path="url(#pbd69d31219)">
     <use xlink:href="#mf892b32a69" x="0" y="432" style="fill: #0000ff; fill-opacity: 0.2; stroke: #0000ff; stroke-opacity: 0.2; stroke-width: 1.5"/>
    </g>
   </g>
   <g id="PolyCollection_6">
    <defs>
     <path id="mc0e8fe3571" d="M 625.418182 -365.334545 
L 625.418182 -68.825455 
L 628.461818 -68.825455 
L 631.505455 -68.825455 
L 634.549091 -68.825455 
L 637.592727 -68.825455 
L 640.636364 -68.825455 
L 643.68 -68.825455 
L 646.723636 -68.825455 
L 649.767273 -68.825455 
L 652.810909 -68.825455 
L 655.854545 -68.825455 
L 658.898182 -68.825455 
L 661.941818 -68.825455 
L 664.985455 -68.825455 
L 668.029091 -68.825455 
L 671.072727 -68.825455 
L 674.116364 -68.825455 
L 677.16 -68.825455 
L 680.203636 -68.825455 
L 683.247273 -68.825455 
L 686.290909 -68.825455 
L 689.334545 -68.825455 
L 692.378182 -68.825455 
L 695.421818 -68.825455 
L 698.465455 -68.825455 
L 701.509091 -68.825455 
L 704.552727 -68.825455 
L 707.596364 -68.825455 
L 710.64 -68.825455 
L 713.683636 -68.825455 
L 716.727273 -68.825455 
L 719.770909 -68.825455 
L 722.814545 -68.825455 
L 725.858182 -68.825455 
L 728.901818 -68.825455 
L 731.945455 -68.825455 
L 734.989091 -68.825455 
L 738.032727 -68.825455 
L 741.076364 -68.825455 
L 744.12 -68.825455 
L 747.163636 -68.825455 
L 747.163636 -365.334545 
L 747.163636 -365.334545 
L 744.12 -365.334545 
L 741.076364 -365.334545 
L 738.032727 -365.334545 
L 734.989091 -365.334545 
L 731.945455 -365.334545 
L 728.901818 -365.334545 
L 725.858182 -365.334545 
L 722.814545 -365.334545 
L 719.770909 -365.334545 
L 716.727273 -365.334545 
L 713.683636 -365.334545 
L 710.64 -365.334545 
L 707.596364 -365.334545 
L 704.552727 -365.334545 
L 701.509091 -365.334545 
L 698.465455 -365.334545 
L 695.421818 -365.334545 
L 692.378182 -365.334545 
L 689.334545 -365.334545 
L 686.290909 -365.334545 
L 683.247273 -365.334545 
L 680.203636 -365.334545 
L 677.16 -365.334545 
L 674.116364 -365.334545 
L 671.072727 -365.334545 
L 668.029091 -365.334545 
L 664.985455 -365.334545 
L 661.941818 -365.334545 
L 658.898182 -365.334545 
L 655.854545 -365.334545 
L 652.810909 -365.334545 
L 649.767273 -365.334545 
L 646.723636 -365.334545 
L 643.68 -365.334545 
L 640.636364 -365.334545 
L 637.592727 -365.334545 
L 634.549091 -365.334545 
L 631.505455 -365.334545 
L 628.461818 -365.334545 
L 625.418182 -365.334545 
z
" style="stroke: #ff0000; stroke-opacity: 0.2; stroke-width: 1.5"/>
    </defs>
    <g clip-path="url(#pbd69d31219)">
     <use xlink:href="#mc0e8fe3571" x="0" y="432" style="fill: #ff0000; fill-opacity: 0.2; stroke: #ff0000; stroke-opacity: 0.2; stroke-width: 1.5"/>
    </g>
   </g>
   <g id="matplotlib.axis_1">
    <g id="xtick_1">
     <g id="line2d_1">
      <defs>
       <path id="m60c140bb30" d="M 0 0 
L 0 9 
" style="stroke: #000000; stroke-width: 1.875"/>
      </defs>
      <g>
       <use xlink:href="#m60c140bb30" x="138.436364" y="378" style="stroke: #000000; stroke-width: 1.875"/>
      </g>
     </g>
     <g id="text_1">
      <!-- 0 -->
      <g transform="translate(133.187301 403.037422)scale(0.165 -0.165)">
       <defs>
        <path id="DejaVuSans-30" d="M 2034 4250 
Q 1547 4250 1301 3770 
Q 1056 3291 1056 2328 
Q 1056 1369 1301 889 
Q 1547 409 2034 409 
Q 2525 409 2770 889 
Q 3016 1369 3016 2328 
Q 3016 3291 2770 3770 
Q 2525 4250 2034 4250 
z
M 2034 4750 
Q 2819 4750 3233 4129 
Q 3647 3509 3647 2328 
Q 3647 1150 3233 529 
Q 2819 -91 2034 -91 
Q 1250 -91 836 529 
Q 422 1150 422 2328 
Q 422 3509 836 4129 
Q 1250 4750 2034 4750 
z
" transform="scale(0.015625)"/>
       </defs>
       <use xlink:href="#DejaVuSans-30"/>
      </g>
     </g>
    </g>
    <g id="xtick_2">
     <g id="line2d_2">
      <g>
       <use xlink:href="#m60c140bb30" x="214.527273" y="378" style="stroke: #000000; stroke-width: 1.875"/>
      </g>
     </g>
     <g id="text_2">
      <!-- 25 -->
      <g transform="translate(204.029148 403.037422)scale(0.165 -0.165)">
       <defs>
        <path id="DejaVuSans-32" d="M 1228 531 
L 3431 531 
L 3431 0 
L 469 0 
L 469 531 
Q 828 903 1448 1529 
Q 2069 2156 2228 2338 
Q 2531 2678 2651 2914 
Q 2772 3150 2772 3378 
Q 2772 3750 2511 3984 
Q 2250 4219 1831 4219 
Q 1534 4219 1204 4116 
Q 875 4013 500 3803 
L 500 4441 
Q 881 4594 1212 4672 
Q 1544 4750 1819 4750 
Q 2544 4750 2975 4387 
Q 3406 4025 3406 3419 
Q 3406 3131 3298 2873 
Q 3191 2616 2906 2266 
Q 2828 2175 2409 1742 
Q 1991 1309 1228 531 
z
" transform="scale(0.015625)"/>
        <path id="DejaVuSans-35" d="M 691 4666 
L 3169 4666 
L 3169 4134 
L 1269 4134 
L 1269 2991 
Q 1406 3038 1543 3061 
Q 1681 3084 1819 3084 
Q 2600 3084 3056 2656 
Q 3513 2228 3513 1497 
Q 3513 744 3044 326 
Q 2575 -91 1722 -91 
Q 1428 -91 1123 -41 
Q 819 9 494 109 
L 494 744 
Q 775 591 1075 516 
Q 1375 441 1709 441 
Q 2250 441 2565 725 
Q 2881 1009 2881 1497 
Q 2881 1984 2565 2268 
Q 2250 2553 1709 2553 
Q 1456 2553 1204 2497 
Q 953 2441 691 2322 
L 691 4666 
z
" transform="scale(0.015625)"/>
       </defs>
       <use xlink:href="#DejaVuSans-32"/>
       <use xlink:href="#DejaVuSans-35" x="63.623047"/>
      </g>
     </g>
    </g>
    <g id="xtick_3">
     <g id="line2d_3">
      <g>
       <use xlink:href="#m60c140bb30" x="290.618182" y="378" style="stroke: #000000; stroke-width: 1.875"/>
      </g>
     </g>
     <g id="text_3">
      <!-- 50 -->
      <g transform="translate(280.120057 403.037422)scale(0.165 -0.165)">
       <use xlink:href="#DejaVuSans-35"/>
       <use xlink:href="#DejaVuSans-30" x="63.623047"/>
      </g>
     </g>
    </g>
    <g id="xtick_4">
     <g id="line2d_4">
      <g>
       <use xlink:href="#m60c140bb30" x="366.709091" y="378" style="stroke: #000000; stroke-width: 1.875"/>
      </g>
     </g>
     <g id="text_4">
      <!-- 75 -->
      <g transform="translate(356.210966 403.037422)scale(0.165 -0.165)">
       <defs>
        <path id="DejaVuSans-37" d="M 525 4666 
L 3525 4666 
L 3525 4397 
L 1831 0 
L 1172 0 
L 2766 4134 
L 525 4134 
L 525 4666 
z
" transform="scale(0.015625)"/>
       </defs>
       <use xlink:href="#DejaVuSans-37"/>
       <use xlink:href="#DejaVuSans-35" x="63.623047"/>
      </g>
     </g>
    </g>
    <g id="xtick_5">
     <g id="line2d_5">
      <g>
       <use xlink:href="#m60c140bb30" x="442.8" y="378" style="stroke: #000000; stroke-width: 1.875"/>
      </g>
     </g>
     <g id="text_5">
      <!-- 100 -->
      <g transform="translate(427.052813 403.037422)scale(0.165 -0.165)">
       <defs>
        <path id="DejaVuSans-31" d="M 794 531 
L 1825 531 
L 1825 4091 
L 703 3866 
L 703 4441 
L 1819 4666 
L 2450 4666 
L 2450 531 
L 3481 531 
L 3481 0 
L 794 0 
L 794 531 
z
" transform="scale(0.015625)"/>
       </defs>
       <use xlink:href="#DejaVuSans-31"/>
       <use xlink:href="#DejaVuSans-30" x="63.623047"/>
       <use xlink:href="#DejaVuSans-30" x="127.246094"/>
      </g>
     </g>
    </g>
    <g id="xtick_6">
     <g id="line2d_6">
      <g>
       <use xlink:href="#m60c140bb30" x="518.890909" y="378" style="stroke: #000000; stroke-width: 1.875"/>
      </g>
     </g>
     <g id="text_6">
      <!-- 125 -->
      <g transform="translate(503.143722 403.037422)scale(0.165 -0.165)">
       <use xlink:href="#DejaVuSans-31"/>
       <use xlink:href="#DejaVuSans-32" x="63.623047"/>
       <use xlink:href="#DejaVuSans-35" x="127.246094"/>
      </g>
     </g>
    </g>
    <g id="xtick_7">
     <g id="line2d_7">
      <g>
       <use xlink:href="#m60c140bb30" x="594.981818" y="378" style="stroke: #000000; stroke-width: 1.875"/>
      </g>
     </g>
     <g id="text_7">
      <!-- 150 -->
      <g transform="translate(579.234631 403.037422)scale(0.165 -0.165)">
       <use xlink:href="#DejaVuSans-31"/>
       <use xlink:href="#DejaVuSans-35" x="63.623047"/>
       <use xlink:href="#DejaVuSans-30" x="127.246094"/>
      </g>
     </g>
    </g>
    <g id="xtick_8">
     <g id="line2d_8">
      <g>
       <use xlink:href="#m60c140bb30" x="671.072727" y="378" style="stroke: #000000; stroke-width: 1.875"/>
      </g>
     </g>
     <g id="text_8">
      <!-- 175 -->
      <g transform="translate(655.32554 403.037422)scale(0.165 -0.165)">
       <use xlink:href="#DejaVuSans-31"/>
       <use xlink:href="#DejaVuSans-37" x="63.623047"/>
       <use xlink:href="#DejaVuSans-35" x="127.246094"/>
      </g>
     </g>
    </g>
    <g id="xtick_9">
     <g id="line2d_9">
      <g>
       <use xlink:href="#m60c140bb30" x="747.163636" y="378" style="stroke: #000000; stroke-width: 1.875"/>
      </g>
     </g>
     <g id="text_9">
      <!-- 200 -->
      <g transform="translate(731.416449 403.037422)scale(0.165 -0.165)">
       <use xlink:href="#DejaVuSans-32"/>
       <use xlink:href="#DejaVuSans-30" x="63.623047"/>
       <use xlink:href="#DejaVuSans-30" x="127.246094"/>
      </g>
     </g>
    </g>
    <g id="text_10">
     <!-- trial -->
     <g transform="translate(425.055938 424.146094)scale(0.18 -0.18)">
      <defs>
       <path id="DejaVuSans-74" d="M 1172 4494 
L 1172 3500 
L 2356 3500 
L 2356 3053 
L 1172 3053 
L 1172 1153 
Q 1172 725 1289 603 
Q 1406 481 1766 481 
L 2356 481 
L 2356 0 
L 1766 0 
Q 1100 0 847 248 
Q 594 497 594 1153 
L 594 3053 
L 172 3053 
L 172 3500 
L 594 3500 
L 594 4494 
L 1172 4494 
z
" transform="scale(0.015625)"/>
       <path id="DejaVuSans-72" d="M 2631 2963 
Q 2534 3019 2420 3045 
Q 2306 3072 2169 3072 
Q 1681 3072 1420 2755 
Q 1159 2438 1159 1844 
L 1159 0 
L 581 0 
L 581 3500 
L 1159 3500 
L 1159 2956 
Q 1341 3275 1631 3429 
Q 1922 3584 2338 3584 
Q 2397 3584 2469 3576 
Q 2541 3569 2628 3553 
L 2631 2963 
z
" transform="scale(0.015625)"/>
       <path id="DejaVuSans-69" d="M 603 3500 
L 1178 3500 
L 1178 0 
L 603 0 
L 603 3500 
z
M 603 4863 
L 1178 4863 
L 1178 4134 
L 603 4134 
L 603 4863 
z
" transform="scale(0.015625)"/>
       <path id="DejaVuSans-61" d="M 2194 1759 
Q 1497 1759 1228 1600 
Q 959 1441 959 1056 
Q 959 750 1161 570 
Q 1363 391 1709 391 
Q 2188 391 2477 730 
Q 2766 1069 2766 1631 
L 2766 1759 
L 2194 1759 
z
M 3341 1997 
L 3341 0 
L 2766 0 
L 2766 531 
Q 2569 213 2275 61 
Q 1981 -91 1556 -91 
Q 1019 -91 701 211 
Q 384 513 384 1019 
Q 384 1609 779 1909 
Q 1175 2209 1959 2209 
L 2766 2209 
L 2766 2266 
Q 2766 2663 2505 2880 
Q 2244 3097 1772 3097 
Q 1472 3097 1187 3025 
Q 903 2953 641 2809 
L 641 3341 
Q 956 3463 1253 3523 
Q 1550 3584 1831 3584 
Q 2591 3584 2966 3190 
Q 3341 2797 3341 1997 
z
" transform="scale(0.015625)"/>
       <path id="DejaVuSans-6c" d="M 603 4863 
L 1178 4863 
L 1178 0 
L 603 0 
L 603 4863 
z
" transform="scale(0.015625)"/>
      </defs>
      <use xlink:href="#DejaVuSans-74"/>
      <use xlink:href="#DejaVuSans-72" x="39.208984"/>
      <use xlink:href="#DejaVuSans-69" x="80.322266"/>
      <use xlink:href="#DejaVuSans-61" x="108.105469"/>
      <use xlink:href="#DejaVuSans-6c" x="169.384766"/>
     </g>
    </g>
   </g>
   <g id="matplotlib.axis_2">
    <g id="ytick_1">
     <g id="line2d_10">
      <defs>
       <path id="md69a5b4e04" d="M 0 0 
L -9 0 
" style="stroke: #000000; stroke-width: 1.875"/>
      </defs>
      <g>
       <use xlink:href="#md69a5b4e04" x="108" y="363.174545" style="stroke: #000000; stroke-width: 1.875"/>
      </g>
     </g>
     <g id="text_11">
      <!-- 0.0 -->
      <g transform="translate(69.259844 369.443256)scale(0.165 -0.165)">
       <defs>
        <path id="DejaVuSans-2e" d="M 684 794 
L 1344 794 
L 1344 0 
L 684 0 
L 684 794 
z
" transform="scale(0.015625)"/>
       </defs>
       <use xlink:href="#DejaVuSans-30"/>
       <use xlink:href="#DejaVuSans-2e" x="63.623047"/>
       <use xlink:href="#DejaVuSans-30" x="95.410156"/>
      </g>
     </g>
    </g>
    <g id="ytick_2">
     <g id="line2d_11">
      <g>
       <use xlink:href="#md69a5b4e04" x="108" y="306.696623" style="stroke: #000000; stroke-width: 1.875"/>
      </g>
     </g>
     <g id="text_12">
      <!-- 0.2 -->
      <g transform="translate(69.259844 312.965334)scale(0.165 -0.165)">
       <use xlink:href="#DejaVuSans-30"/>
       <use xlink:href="#DejaVuSans-2e" x="63.623047"/>
       <use xlink:href="#DejaVuSans-32" x="95.410156"/>
      </g>
     </g>
    </g>
    <g id="ytick_3">
     <g id="line2d_12">
      <g>
       <use xlink:href="#md69a5b4e04" x="108" y="250.218701" style="stroke: #000000; stroke-width: 1.875"/>
      </g>
     </g>
     <g id="text_13">
      <!-- 0.4 -->
      <g transform="translate(69.259844 256.487412)scale(0.165 -0.165)">
       <defs>
        <path id="DejaVuSans-34" d="M 2419 4116 
L 825 1625 
L 2419 1625 
L 2419 4116 
z
M 2253 4666 
L 3047 4666 
L 3047 1625 
L 3713 1625 
L 3713 1100 
L 3047 1100 
L 3047 0 
L 2419 0 
L 2419 1100 
L 313 1100 
L 313 1709 
L 2253 4666 
z
" transform="scale(0.015625)"/>
       </defs>
       <use xlink:href="#DejaVuSans-30"/>
       <use xlink:href="#DejaVuSans-2e" x="63.623047"/>
       <use xlink:href="#DejaVuSans-34" x="95.410156"/>
      </g>
     </g>
    </g>
    <g id="ytick_4">
     <g id="line2d_13">
      <g>
       <use xlink:href="#md69a5b4e04" x="108" y="193.740779" style="stroke: #000000; stroke-width: 1.875"/>
      </g>
     </g>
     <g id="text_14">
      <!-- 0.6 -->
      <g transform="translate(69.259844 200.00949)scale(0.165 -0.165)">
       <defs>
        <path id="DejaVuSans-36" d="M 2113 2584 
Q 1688 2584 1439 2293 
Q 1191 2003 1191 1497 
Q 1191 994 1439 701 
Q 1688 409 2113 409 
Q 2538 409 2786 701 
Q 3034 994 3034 1497 
Q 3034 2003 2786 2293 
Q 2538 2584 2113 2584 
z
M 3366 4563 
L 3366 3988 
Q 3128 4100 2886 4159 
Q 2644 4219 2406 4219 
Q 1781 4219 1451 3797 
Q 1122 3375 1075 2522 
Q 1259 2794 1537 2939 
Q 1816 3084 2150 3084 
Q 2853 3084 3261 2657 
Q 3669 2231 3669 1497 
Q 3669 778 3244 343 
Q 2819 -91 2113 -91 
Q 1303 -91 875 529 
Q 447 1150 447 2328 
Q 447 3434 972 4092 
Q 1497 4750 2381 4750 
Q 2619 4750 2861 4703 
Q 3103 4656 3366 4563 
z
" transform="scale(0.015625)"/>
       </defs>
       <use xlink:href="#DejaVuSans-30"/>
       <use xlink:href="#DejaVuSans-2e" x="63.623047"/>
       <use xlink:href="#DejaVuSans-36" x="95.410156"/>
      </g>
     </g>
    </g>
    <g id="ytick_5">
     <g id="line2d_14">
      <g>
       <use xlink:href="#md69a5b4e04" x="108" y="137.262857" style="stroke: #000000; stroke-width: 1.875"/>
      </g>
     </g>
     <g id="text_15">
      <!-- 0.8 -->
      <g transform="translate(69.259844 143.531568)scale(0.165 -0.165)">
       <defs>
        <path id="DejaVuSans-38" d="M 2034 2216 
Q 1584 2216 1326 1975 
Q 1069 1734 1069 1313 
Q 1069 891 1326 650 
Q 1584 409 2034 409 
Q 2484 409 2743 651 
Q 3003 894 3003 1313 
Q 3003 1734 2745 1975 
Q 2488 2216 2034 2216 
z
M 1403 2484 
Q 997 2584 770 2862 
Q 544 3141 544 3541 
Q 544 4100 942 4425 
Q 1341 4750 2034 4750 
Q 2731 4750 3128 4425 
Q 3525 4100 3525 3541 
Q 3525 3141 3298 2862 
Q 3072 2584 2669 2484 
Q 3125 2378 3379 2068 
Q 3634 1759 3634 1313 
Q 3634 634 3220 271 
Q 2806 -91 2034 -91 
Q 1263 -91 848 271 
Q 434 634 434 1313 
Q 434 1759 690 2068 
Q 947 2378 1403 2484 
z
M 1172 3481 
Q 1172 3119 1398 2916 
Q 1625 2713 2034 2713 
Q 2441 2713 2670 2916 
Q 2900 3119 2900 3481 
Q 2900 3844 2670 4047 
Q 2441 4250 2034 4250 
Q 1625 4250 1398 4047 
Q 1172 3844 1172 3481 
z
" transform="scale(0.015625)"/>
       </defs>
       <use xlink:href="#DejaVuSans-30"/>
       <use xlink:href="#DejaVuSans-2e" x="63.623047"/>
       <use xlink:href="#DejaVuSans-38" x="95.410156"/>
      </g>
     </g>
    </g>
    <g id="ytick_6">
     <g id="line2d_15">
      <g>
       <use xlink:href="#md69a5b4e04" x="108" y="80.784935" style="stroke: #000000; stroke-width: 1.875"/>
      </g>
     </g>
     <g id="text_16">
      <!-- 1.0 -->
      <g transform="translate(69.259844 87.053646)scale(0.165 -0.165)">
       <use xlink:href="#DejaVuSans-31"/>
       <use xlink:href="#DejaVuSans-2e" x="63.623047"/>
       <use xlink:href="#DejaVuSans-30" x="95.410156"/>
      </g>
     </g>
    </g>
    <g id="text_17">
     <!-- prediction accuracy -->
     <g transform="translate(61.516406 303.537656)rotate(-90)scale(0.18 -0.18)">
      <defs>
       <path id="DejaVuSans-70" d="M 1159 525 
L 1159 -1331 
L 581 -1331 
L 581 3500 
L 1159 3500 
L 1159 2969 
Q 1341 3281 1617 3432 
Q 1894 3584 2278 3584 
Q 2916 3584 3314 3078 
Q 3713 2572 3713 1747 
Q 3713 922 3314 415 
Q 2916 -91 2278 -91 
Q 1894 -91 1617 61 
Q 1341 213 1159 525 
z
M 3116 1747 
Q 3116 2381 2855 2742 
Q 2594 3103 2138 3103 
Q 1681 3103 1420 2742 
Q 1159 2381 1159 1747 
Q 1159 1113 1420 752 
Q 1681 391 2138 391 
Q 2594 391 2855 752 
Q 3116 1113 3116 1747 
z
" transform="scale(0.015625)"/>
       <path id="DejaVuSans-65" d="M 3597 1894 
L 3597 1613 
L 953 1613 
Q 991 1019 1311 708 
Q 1631 397 2203 397 
Q 2534 397 2845 478 
Q 3156 559 3463 722 
L 3463 178 
Q 3153 47 2828 -22 
Q 2503 -91 2169 -91 
Q 1331 -91 842 396 
Q 353 884 353 1716 
Q 353 2575 817 3079 
Q 1281 3584 2069 3584 
Q 2775 3584 3186 3129 
Q 3597 2675 3597 1894 
z
M 3022 2063 
Q 3016 2534 2758 2815 
Q 2500 3097 2075 3097 
Q 1594 3097 1305 2825 
Q 1016 2553 972 2059 
L 3022 2063 
z
" transform="scale(0.015625)"/>
       <path id="DejaVuSans-64" d="M 2906 2969 
L 2906 4863 
L 3481 4863 
L 3481 0 
L 2906 0 
L 2906 525 
Q 2725 213 2448 61 
Q 2172 -91 1784 -91 
Q 1150 -91 751 415 
Q 353 922 353 1747 
Q 353 2572 751 3078 
Q 1150 3584 1784 3584 
Q 2172 3584 2448 3432 
Q 2725 3281 2906 2969 
z
M 947 1747 
Q 947 1113 1208 752 
Q 1469 391 1925 391 
Q 2381 391 2643 752 
Q 2906 1113 2906 1747 
Q 2906 2381 2643 2742 
Q 2381 3103 1925 3103 
Q 1469 3103 1208 2742 
Q 947 2381 947 1747 
z
" transform="scale(0.015625)"/>
       <path id="DejaVuSans-63" d="M 3122 3366 
L 3122 2828 
Q 2878 2963 2633 3030 
Q 2388 3097 2138 3097 
Q 1578 3097 1268 2742 
Q 959 2388 959 1747 
Q 959 1106 1268 751 
Q 1578 397 2138 397 
Q 2388 397 2633 464 
Q 2878 531 3122 666 
L 3122 134 
Q 2881 22 2623 -34 
Q 2366 -91 2075 -91 
Q 1284 -91 818 406 
Q 353 903 353 1747 
Q 353 2603 823 3093 
Q 1294 3584 2113 3584 
Q 2378 3584 2631 3529 
Q 2884 3475 3122 3366 
z
" transform="scale(0.015625)"/>
       <path id="DejaVuSans-6f" d="M 1959 3097 
Q 1497 3097 1228 2736 
Q 959 2375 959 1747 
Q 959 1119 1226 758 
Q 1494 397 1959 397 
Q 2419 397 2687 759 
Q 2956 1122 2956 1747 
Q 2956 2369 2687 2733 
Q 2419 3097 1959 3097 
z
M 1959 3584 
Q 2709 3584 3137 3096 
Q 3566 2609 3566 1747 
Q 3566 888 3137 398 
Q 2709 -91 1959 -91 
Q 1206 -91 779 398 
Q 353 888 353 1747 
Q 353 2609 779 3096 
Q 1206 3584 1959 3584 
z
" transform="scale(0.015625)"/>
       <path id="DejaVuSans-6e" d="M 3513 2113 
L 3513 0 
L 2938 0 
L 2938 2094 
Q 2938 2591 2744 2837 
Q 2550 3084 2163 3084 
Q 1697 3084 1428 2787 
Q 1159 2491 1159 1978 
L 1159 0 
L 581 0 
L 581 3500 
L 1159 3500 
L 1159 2956 
Q 1366 3272 1645 3428 
Q 1925 3584 2291 3584 
Q 2894 3584 3203 3211 
Q 3513 2838 3513 2113 
z
" transform="scale(0.015625)"/>
       <path id="DejaVuSans-20" transform="scale(0.015625)"/>
       <path id="DejaVuSans-75" d="M 544 1381 
L 544 3500 
L 1119 3500 
L 1119 1403 
Q 1119 906 1312 657 
Q 1506 409 1894 409 
Q 2359 409 2629 706 
Q 2900 1003 2900 1516 
L 2900 3500 
L 3475 3500 
L 3475 0 
L 2900 0 
L 2900 538 
Q 2691 219 2414 64 
Q 2138 -91 1772 -91 
Q 1169 -91 856 284 
Q 544 659 544 1381 
z
M 1991 3584 
L 1991 3584 
z
" transform="scale(0.015625)"/>
       <path id="DejaVuSans-79" d="M 2059 -325 
Q 1816 -950 1584 -1140 
Q 1353 -1331 966 -1331 
L 506 -1331 
L 506 -850 
L 844 -850 
Q 1081 -850 1212 -737 
Q 1344 -625 1503 -206 
L 1606 56 
L 191 3500 
L 800 3500 
L 1894 763 
L 2988 3500 
L 3597 3500 
L 2059 -325 
z
" transform="scale(0.015625)"/>
      </defs>
      <use xlink:href="#DejaVuSans-70"/>
      <use xlink:href="#DejaVuSans-72" x="63.476562"/>
      <use xlink:href="#DejaVuSans-65" x="102.339844"/>
      <use xlink:href="#DejaVuSans-64" x="163.863281"/>
      <use xlink:href="#DejaVuSans-69" x="227.339844"/>
      <use xlink:href="#DejaVuSans-63" x="255.123047"/>
      <use xlink:href="#DejaVuSans-74" x="310.103516"/>
      <use xlink:href="#DejaVuSans-69" x="349.3125"/>
      <use xlink:href="#DejaVuSans-6f" x="377.095703"/>
      <use xlink:href="#DejaVuSans-6e" x="438.277344"/>
      <use xlink:href="#DejaVuSans-20" x="501.65625"/>
      <use xlink:href="#DejaVuSans-61" x="533.443359"/>
      <use xlink:href="#DejaVuSans-63" x="594.722656"/>
      <use xlink:href="#DejaVuSans-63" x="649.703125"/>
      <use xlink:href="#DejaVuSans-75" x="704.683594"/>
      <use xlink:href="#DejaVuSans-72" x="768.0625"/>
      <use xlink:href="#DejaVuSans-61" x="809.175781"/>
      <use xlink:href="#DejaVuSans-63" x="870.455078"/>
      <use xlink:href="#DejaVuSans-79" x="925.435547"/>
     </g>
    </g>
   </g>
   <g id="line2d_16">
    <path d="M 138.436364 210.773803 
L 141.48 158.685517 
L 144.523636 147.792639 
L 147.567273 154.640679 
L 150.610909 121.126308 
L 153.654545 119.735226 
L 156.698182 178.00103 
L 159.741818 149.105002 
L 162.785455 126.16898 
L 165.829091 131.073496 
L 168.872727 118.160031 
L 171.916364 113.73039 
L 174.96 140.685762 
L 178.003636 123.409782 
L 181.047273 99.302287 
L 184.090909 109.854454 
L 187.134545 127.84987 
L 193.221818 115.540579 
L 196.265455 119.735226 
L 199.309091 105.340553 
L 202.352727 99.00362 
L 205.396364 122.620433 
L 208.44 109.502523 
L 211.483636 100.60175 
L 214.527273 101.322361 
L 217.570909 98.162757 
L 220.614545 144.964392 
L 223.658182 100.955622 
L 226.701818 99.610909 
L 229.745455 119.292609 
L 232.789091 89.749685 
L 235.832727 106.456718 
L 238.876364 109.502523 
L 241.92 103.931624 
L 244.963636 119.075052 
L 248.007273 103.68139 
L 251.050909 99.302287 
L 254.094545 116.643933 
L 257.138182 94.904416 
L 260.181818 277.601936 
L 263.225455 180.451856 
L 266.269091 153.997056 
L 269.312727 129.320649 
L 272.356364 139.791719 
L 275.4 127.078314 
L 278.443636 104.716258 
L 281.487273 121.776975 
L 284.530909 119.885035 
L 287.574545 103.558291 
L 290.618182 142.557662 
L 293.661818 123.57124 
L 296.705455 105.998293 
L 299.749091 127.84987 
L 302.792727 112.161558 
L 305.836364 103.558291 
L 308.88 109.502523 
L 311.923636 139.055807 
L 314.967273 126.331646 
L 318.010909 103.196809 
L 321.054545 106.073557 
L 324.098182 102.507213 
L 327.141818 95.647546 
L 330.185455 124.908312 
L 333.229091 118.436883 
L 336.272727 116.083636 
L 339.316364 119.735226 
L 342.36 99.610909 
L 345.403636 124.604013 
L 348.447273 107.258961 
L 351.490909 108.560962 
L 354.534545 93.818302 
L 357.578182 102.846623 
L 360.621818 103.558291 
L 363.665455 123.57124 
L 366.709091 103.196809 
L 369.752727 126.16898 
L 372.796364 139.99566 
L 375.84 105.701665 
L 378.883636 90.357464 
L 381.927273 190.368963 
L 384.970909 104.716258 
L 388.014545 117.222304 
L 391.058182 122.448976 
L 394.101818 106.851668 
L 397.145455 145.595665 
L 400.189091 94.448948 
L 403.232727 110.288327 
L 406.276364 106.851668 
L 409.32 97.396089 
L 412.363636 94.672949 
L 415.407273 108.112962 
L 418.450909 123.409782 
L 421.494545 95.647546 
L 424.538182 113.1903 
L 427.581818 111.196124 
L 430.625455 109.023896 
L 433.669091 98.714434 
L 436.712727 119.075052 
L 439.756364 103.376104 
L 442.8 98.714434 
L 445.843636 109.023896 
L 448.887273 118.160031 
L 451.930909 97.899457 
L 454.974545 125.967273 
L 458.018182 112.667633 
L 461.061818 96.921484 
L 464.105455 124.229491 
L 467.149091 115.600093 
L 470.192727 123.143377 
L 473.236364 99.610909 
L 479.323636 104.716258 
L 482.367273 101.548877 
L 485.410909 95.647546 
L 488.454545 94.021948 
L 491.498182 103.931624 
L 494.541818 106.851668 
L 497.585455 104.317403 
L 500.629091 107.425464 
L 503.672727 156.088831 
L 506.716364 114.86644 
L 509.76 111.591074 
L 512.803636 108.112962 
L 515.847273 91.646074 
L 518.890909 125.372768 
L 521.934545 105.128867 
L 524.978182 107.258961 
L 528.021818 105.701665 
L 531.065455 114.288787 
L 534.109091 107.679184 
L 537.152727 108.626164 
L 540.196364 101.548877 
L 546.283636 127.078314 
L 549.327273 90.197922 
L 552.370909 109.023896 
L 555.414545 95.91295 
L 558.458182 85.739139 
L 561.501818 117.222304 
L 564.545455 108.626164 
L 567.589091 103.931624 
L 570.632727 102.507213 
L 573.676364 97.899457 
L 576.72 128.737888 
L 579.763636 107.258961 
L 582.807273 88.970141 
L 585.850909 95.143729 
L 588.894545 131.707652 
L 591.938182 106.456718 
L 594.981818 112.161558 
L 598.025455 114.86644 
L 601.069091 109.502523 
L 604.112727 102.507213 
L 607.156364 114.503097 
L 610.2 144.079158 
L 613.243636 107.937782 
L 616.287273 88.970141 
L 619.330909 94.904416 
L 622.374545 106.456718 
L 625.418182 128.737888 
L 628.461818 122.448976 
L 631.505455 114.671688 
L 634.549091 118.160031 
L 637.592727 144.42203 
L 640.636364 129.472799 
L 643.68 112.667633 
L 646.723636 131.211651 
L 649.767273 111.196124 
L 652.810909 101.548877 
L 655.854545 125.608683 
L 658.898182 107.679184 
L 661.941818 120.418565 
L 664.985455 128.573946 
L 668.029091 104.716258 
L 671.072727 127.84987 
L 674.116364 119.292609 
L 677.16 117.222304 
L 680.203636 131.362179 
L 683.247273 115.540579 
L 686.290909 130.326972 
L 689.334545 98.434286 
L 692.378182 138.22011 
L 695.421818 138.145325 
L 698.465455 94.448948 
L 701.509091 109.023896 
L 704.552727 124.908312 
L 707.596364 134.341585 
L 710.64 135.281176 
L 713.683636 127.84987 
L 716.727273 111.040965 
L 719.770909 90.522508 
L 722.814545 101.548877 
L 728.901818 117.222304 
L 731.945455 122.620433 
L 734.989091 139.791719 
L 738.032727 139.055807 
L 741.076364 107.679184 
L 744.12 132.918402 
L 744.12 132.918402 
" clip-path="url(#pbd69d31219)" style="fill: none; stroke: #800080; stroke-width: 2.25; stroke-linecap: square"/>
   </g>
   <g id="line2d_17">
    <path d="M 108 221.97974 
L 777.6 221.97974 
" clip-path="url(#pbd69d31219)" style="fill: none; stroke: #000000; stroke-width: 2.25; stroke-linecap: square"/>
   </g>
   <g id="patch_3">
    <path d="M 108 378 
L 108 51.84 
" style="fill: none; stroke: #000000; stroke-width: 1.875; stroke-linejoin: miter; stroke-linecap: square"/>
   </g>
   <g id="patch_4">
    <path d="M 777.6 378 
L 777.6 51.84 
" style="fill: none; stroke: #000000; stroke-width: 1.875; stroke-linejoin: miter; stroke-linecap: square"/>
   </g>
   <g id="patch_5">
    <path d="M 108 378 
L 777.6 378 
" style="fill: none; stroke: #000000; stroke-width: 1.875; stroke-linejoin: miter; stroke-linecap: square"/>
   </g>
   <g id="patch_6">
    <path d="M 108 51.84 
L 777.6 51.84 
" style="fill: none; stroke: #000000; stroke-width: 1.875; stroke-linejoin: miter; stroke-linecap: square"/>
   </g>
  </g>
 </g>
 <defs>
  <clipPath id="pbd69d31219">
   <rect x="108" y="51.84" width="669.6" height="326.16"/>
  </clipPath>
 </defs>
</svg>
