<?xml version="1.0" encoding="utf-8" standalone="no"?>
<!DOCTYPE svg PUBLIC "-//W3C//DTD SVG 1.1//EN"
  "http://www.w3.org/Graphics/SVG/1.1/DTD/svg11.dtd">
<svg xmlns:xlink="http://www.w3.org/1999/xlink" width="864pt" height="432pt" viewBox="0 0 864 432" xmlns="http://www.w3.org/2000/svg" version="1.1">
 <metadata>
  <rdf:RDF xmlns:dc="http://purl.org/dc/elements/1.1/" xmlns:cc="http://creativecommons.org/ns#" xmlns:rdf="http://www.w3.org/1999/02/22-rdf-syntax-ns#">
   <cc:Work>
    <dc:type rdf:resource="http://purl.org/dc/dcmitype/StillImage"/>
    <dc:date>2023-05-02T17:26:43.619829</dc:date>
    <dc:format>image/svg+xml</dc:format>
    <dc:creator>
     <cc:Agent>
      <dc:title>Matplotlib v3.5.1, https://matplotlib.org/</dc:title>
     </cc:Agent>
    </dc:creator>
   </cc:Work>
  </rdf:RDF>
 </metadata>
 <defs>
  <style type="text/css">*{stroke-linejoin: round; stroke-linecap: butt}</style>
 </defs>
 <g id="figure_1">
  <g id="patch_1">
   <path d="M 0 432 
L 864 432 
L 864 0 
L 0 0 
L 0 432 
z
" style="fill: none"/>
  </g>
  <g id="axes_1">
   <g id="patch_2">
    <path d="M 108 378 
L 777.6 378 
L 777.6 51.84 
L 108 51.84 
z
" style="fill: #ffffff"/>
   </g>
   <g id="PolyCollection_1">
    <defs>
     <path id="mf31816f107" d="M 276.567573 -134.168044 
L 274.232427 -134.168044 
L 273.929291 -136.307864 
L 273.56892 -138.447684 
L 273.146521 -140.587505 
L 272.658464 -142.727325 
L 272.102696 -144.867145 
L 271.479149 -147.006966 
L 270.790098 -149.146786 
L 270.040446 -151.286606 
L 269.23789 -153.426427 
L 268.392953 -155.566247 
L 267.518844 -157.706067 
L 266.631143 -159.845888 
L 265.747304 -161.985708 
L 264.886001 -164.125528 
L 264.066326 -166.265349 
L 263.306908 -168.405169 
L 262.624979 -170.544989 
L 262.035471 -172.68481 
L 261.550193 -174.82463 
L 261.177162 -176.96445 
L 260.920133 -179.104271 
L 260.778382 -181.244091 
L 260.746749 -183.383911 
L 260.815962 -185.523732 
L 260.973216 -187.663552 
L 261.202956 -189.803372 
L 261.487825 -191.943193 
L 261.80967 -194.083013 
L 262.150548 -196.222833 
L 262.493625 -198.362654 
L 262.823894 -200.502474 
L 263.128649 -202.642294 
L 263.397659 -204.782115 
L 263.623048 -206.921935 
L 263.798867 -209.061755 
L 263.920431 -211.201576 
L 263.983472 -213.341396 
L 263.983215 -215.481216 
L 263.913463 -217.621037 
L 263.765816 -219.760857 
L 263.529088 -221.900677 
L 263.189023 -224.040498 
L 262.728314 -226.180318 
L 262.126969 -228.320138 
L 261.362964 -230.459959 
L 260.413127 -232.599779 
L 259.254174 -234.739599 
L 257.863774 -236.87942 
L 256.221545 -239.01924 
L 254.30988 -241.15906 
L 252.114517 -243.298881 
L 249.624822 -245.438701 
L 246.833775 -247.578521 
L 243.737698 -249.718342 
L 240.335801 -251.858162 
L 236.629677 -253.997982 
L 232.622858 -256.137803 
L 228.320582 -258.277623 
L 223.729903 -260.417443 
L 218.860222 -262.557264 
L 213.72431 -264.697084 
L 208.339792 -266.836904 
L 202.731025 -268.976725 
L 196.931223 -271.116545 
L 190.98461 -273.256365 
L 184.948378 -275.396186 
L 178.894133 -277.536006 
L 172.908601 -279.675826 
L 167.093309 -281.815647 
L 161.563097 -283.955467 
L 156.443353 -286.095287 
L 151.865979 -288.235108 
L 147.964255 -290.374928 
L 144.866816 -292.514748 
L 142.691135 -294.654569 
L 141.536932 -296.794389 
L 141.48 -298.934209 
L 142.566941 -301.07403 
L 144.81124 -303.21385 
L 148.19105 -305.35367 
L 152.648905 -307.493491 
L 158.093453 -309.633311 
L 164.403121 -311.773131 
L 171.431475 -313.912952 
L 179.013914 -316.052772 
L 186.975214 -318.192592 
L 195.137399 -320.332413 
L 203.327404 -322.472233 
L 211.384035 -324.612054 
L 219.163813 -326.751874 
L 226.545405 -328.891694 
L 233.432472 -331.031515 
L 239.754911 -333.171335 
L 245.46857 -335.311155 
L 250.553647 -337.450976 
L 255.012037 -339.590796 
L 258.863945 -341.730616 
L 262.144076 -343.870437 
L 264.897731 -346.010257 
L 285.902269 -346.010257 
L 285.902269 -346.010257 
L 288.655924 -343.870437 
L 291.936055 -341.730616 
L 295.787963 -339.590796 
L 300.246353 -337.450976 
L 305.33143 -335.311155 
L 311.045089 -333.171335 
L 317.367528 -331.031515 
L 324.254595 -328.891694 
L 331.636187 -326.751874 
L 339.415965 -324.612054 
L 347.472596 -322.472233 
L 355.662601 -320.332413 
L 363.824786 -318.192592 
L 371.786086 -316.052772 
L 379.368525 -313.912952 
L 386.396879 -311.773131 
L 392.706547 -309.633311 
L 398.151095 -307.493491 
L 402.60895 -305.35367 
L 405.98876 -303.21385 
L 408.233059 -301.07403 
L 409.32 -298.934209 
L 409.263068 -296.794389 
L 408.108865 -294.654569 
L 405.933184 -292.514748 
L 402.835745 -290.374928 
L 398.934021 -288.235108 
L 394.356647 -286.095287 
L 389.236903 -283.955467 
L 383.706691 -281.815647 
L 377.891399 -279.675826 
L 371.905867 -277.536006 
L 365.851622 -275.396186 
L 359.81539 -273.256365 
L 353.868777 -271.116545 
L 348.068975 -268.976725 
L 342.460208 -266.836904 
L 337.07569 -264.697084 
L 331.939778 -262.557264 
L 327.070097 -260.417443 
L 322.479418 -258.277623 
L 318.177142 -256.137803 
L 314.170323 -253.997982 
L 310.464199 -251.858162 
L 307.062302 -249.718342 
L 303.966225 -247.578521 
L 301.175178 -245.438701 
L 298.685483 -243.298881 
L 296.49012 -241.15906 
L 294.578455 -239.01924 
L 292.936226 -236.87942 
L 291.545826 -234.739599 
L 290.386873 -232.599779 
L 289.437036 -230.459959 
L 288.673031 -228.320138 
L 288.071686 -226.180318 
L 287.610977 -224.040498 
L 287.270912 -221.900677 
L 287.034184 -219.760857 
L 286.886537 -217.621037 
L 286.816785 -215.481216 
L 286.816528 -213.341396 
L 286.879569 -211.201576 
L 287.001133 -209.061755 
L 287.176952 -206.921935 
L 287.402341 -204.782115 
L 287.671351 -202.642294 
L 287.976106 -200.502474 
L 288.306375 -198.362654 
L 288.649452 -196.222833 
L 288.99033 -194.083013 
L 289.312175 -191.943193 
L 289.597044 -189.803372 
L 289.826784 -187.663552 
L 289.984038 -185.523732 
L 290.053251 -183.383911 
L 290.021618 -181.244091 
L 289.879867 -179.104271 
L 289.622838 -176.96445 
L 289.249807 -174.82463 
L 288.764529 -172.68481 
L 288.175021 -170.544989 
L 287.493092 -168.405169 
L 286.733674 -166.265349 
L 285.913999 -164.125528 
L 285.052696 -161.985708 
L 284.168857 -159.845888 
L 283.281156 -157.706067 
L 282.407047 -155.566247 
L 281.56211 -153.426427 
L 280.759554 -151.286606 
L 280.009902 -149.146786 
L 279.320851 -147.006966 
L 278.697304 -144.867145 
L 278.141536 -142.727325 
L 277.653479 -140.587505 
L 277.23108 -138.447684 
L 276.870709 -136.307864 
L 276.567573 -134.168044 
z
" style="stroke: #3f3f3f; stroke-width: 2.25"/>
    </defs>
    <g clip-path="url(#pefa4e8bde3)">
     <use xlink:href="#mf31816f107" x="0" y="432" style="fill: #3274a1; stroke: #3f3f3f; stroke-width: 2.25"/>
    </g>
   </g>
   <g id="PolyCollection_2">
    <defs>
     <path id="m1997588a0b" d="M 611.654435 -68.825455 
L 608.745565 -68.825455 
L 608.394106 -71.820496 
L 607.978934 -74.815537 
L 607.493666 -77.810579 
L 606.932298 -80.80562 
L 606.289385 -83.800661 
L 605.560175 -86.795702 
L 604.740706 -89.790744 
L 603.827839 -92.785785 
L 602.819218 -95.780826 
L 601.713167 -98.775868 
L 600.508511 -101.770909 
L 599.204346 -104.76595 
L 597.799777 -107.760992 
L 596.293659 -110.756033 
L 594.684366 -113.751074 
L 592.969641 -116.746116 
L 591.146554 -119.741157 
L 589.211597 -122.736198 
L 587.160951 -125.73124 
L 584.99092 -128.726281 
L 582.698537 -131.721322 
L 580.282303 -134.716364 
L 577.743042 -137.711405 
L 575.084791 -140.706446 
L 572.315687 -143.701488 
L 569.448751 -146.696529 
L 566.502528 -149.69157 
L 563.501484 -152.686612 
L 560.476136 -155.681653 
L 557.462844 -158.676694 
L 554.503263 -161.671736 
L 551.64345 -164.666777 
L 548.932643 -167.661818 
L 546.421759 -170.65686 
L 544.161682 -173.651901 
L 542.2014 -176.646942 
L 540.586099 -179.641983 
L 539.35531 -182.637025 
L 538.541182 -185.632066 
L 538.167005 -188.627107 
L 538.246031 -191.622149 
L 538.780682 -194.61719 
L 539.762169 -197.612231 
L 541.170558 -200.607273 
L 542.975276 -203.602314 
L 545.136039 -206.597355 
L 547.604146 -209.592397 
L 550.32409 -212.587438 
L 553.235401 -215.582479 
L 556.274628 -218.577521 
L 559.377385 -221.572562 
L 562.48036 -224.567603 
L 565.523199 -227.562645 
L 568.450205 -230.557686 
L 571.211793 -233.552727 
L 573.765642 -236.547769 
L 576.077547 -239.54281 
L 578.121945 -242.537851 
L 579.882138 -245.532893 
L 581.35023 -248.527934 
L 582.526819 -251.522975 
L 583.42047 -254.518017 
L 584.047033 -257.513058 
L 584.428826 -260.508099 
L 584.593719 -263.50314 
L 584.574165 -266.498182 
L 584.406173 -269.493223 
L 584.128256 -272.488264 
L 583.78036 -275.483306 
L 583.402773 -278.478347 
L 583.035034 -281.473388 
L 582.71485 -284.46843 
L 582.477043 -287.463471 
L 582.352553 -290.458512 
L 582.367531 -293.453554 
L 582.542565 -296.448595 
L 582.892075 -299.443636 
L 583.423926 -302.438678 
L 584.139273 -305.433719 
L 585.032688 -308.42876 
L 586.092542 -311.423802 
L 587.301657 -314.418843 
L 588.638184 -317.413884 
L 590.076666 -320.408926 
L 591.589226 -323.403967 
L 593.146817 -326.399008 
L 594.720454 -329.39405 
L 596.282368 -332.389091 
L 597.807014 -335.384132 
L 599.271901 -338.379174 
L 600.658186 -341.374215 
L 601.951048 -344.369256 
L 603.139821 -347.364298 
L 604.217913 -350.359339 
L 605.182541 -353.35438 
L 606.034322 -356.349421 
L 606.776761 -359.344463 
L 607.415678 -362.339504 
L 607.95862 -365.334545 
L 612.44138 -365.334545 
L 612.44138 -365.334545 
L 612.984322 -362.339504 
L 613.623239 -359.344463 
L 614.365678 -356.349421 
L 615.217459 -353.35438 
L 616.182087 -350.359339 
L 617.260179 -347.364298 
L 618.448952 -344.369256 
L 619.741814 -341.374215 
L 621.128099 -338.379174 
L 622.592986 -335.384132 
L 624.117632 -332.389091 
L 625.679546 -329.39405 
L 627.253183 -326.399008 
L 628.810774 -323.403967 
L 630.323334 -320.408926 
L 631.761816 -317.413884 
L 633.098343 -314.418843 
L 634.307458 -311.423802 
L 635.367312 -308.42876 
L 636.260727 -305.433719 
L 636.976074 -302.438678 
L 637.507925 -299.443636 
L 637.857435 -296.448595 
L 638.032469 -293.453554 
L 638.047447 -290.458512 
L 637.922957 -287.463471 
L 637.68515 -284.46843 
L 637.364966 -281.473388 
L 636.997227 -278.478347 
L 636.61964 -275.483306 
L 636.271744 -272.488264 
L 635.993827 -269.493223 
L 635.825835 -266.498182 
L 635.806281 -263.50314 
L 635.971174 -260.508099 
L 636.352967 -257.513058 
L 636.97953 -254.518017 
L 637.873181 -251.522975 
L 639.04977 -248.527934 
L 640.517862 -245.532893 
L 642.278055 -242.537851 
L 644.322453 -239.54281 
L 646.634358 -236.547769 
L 649.188207 -233.552727 
L 651.949795 -230.557686 
L 654.876801 -227.562645 
L 657.91964 -224.567603 
L 661.022615 -221.572562 
L 664.125372 -218.577521 
L 667.164599 -215.582479 
L 670.07591 -212.587438 
L 672.795854 -209.592397 
L 675.263961 -206.597355 
L 677.424724 -203.602314 
L 679.229442 -200.607273 
L 680.637831 -197.612231 
L 681.619318 -194.61719 
L 682.153969 -191.622149 
L 682.232995 -188.627107 
L 681.858818 -185.632066 
L 681.04469 -182.637025 
L 679.813901 -179.641983 
L 678.1986 -176.646942 
L 676.238318 -173.651901 
L 673.978241 -170.65686 
L 671.467357 -167.661818 
L 668.75655 -164.666777 
L 665.896737 -161.671736 
L 662.937156 -158.676694 
L 659.923864 -155.681653 
L 656.898516 -152.686612 
L 653.897472 -149.69157 
L 650.951249 -146.696529 
L 648.084313 -143.701488 
L 645.315209 -140.706446 
L 642.656958 -137.711405 
L 640.117697 -134.716364 
L 637.701463 -131.721322 
L 635.40908 -128.726281 
L 633.239049 -125.73124 
L 631.188403 -122.736198 
L 629.253446 -119.741157 
L 627.430359 -116.746116 
L 625.715634 -113.751074 
L 624.106341 -110.756033 
L 622.600223 -107.760992 
L 621.195654 -104.76595 
L 619.891489 -101.770909 
L 618.686833 -98.775868 
L 617.580782 -95.780826 
L 616.572161 -92.785785 
L 615.659294 -89.790744 
L 614.839825 -86.795702 
L 614.110615 -83.800661 
L 613.467702 -80.80562 
L 612.906334 -77.810579 
L 612.421066 -74.815537 
L 612.005894 -71.820496 
L 611.654435 -68.825455 
z
" style="stroke: #3f3f3f; stroke-width: 2.25"/>
    </defs>
    <g clip-path="url(#pefa4e8bde3)">
     <use xlink:href="#m1997588a0b" x="0" y="432" style="fill: #e1812c; stroke: #3f3f3f; stroke-width: 2.25"/>
    </g>
   </g>
   <g id="matplotlib.axis_1">
    <g id="xtick_1">
     <g id="line2d_1">
      <defs>
       <path id="md3787bb239" d="M 0 0 
L 0 9 
" style="stroke: #000000; stroke-width: 1.875"/>
      </defs>
      <g>
       <use xlink:href="#md3787bb239" x="275.4" y="378" style="stroke: #000000; stroke-width: 1.875"/>
      </g>
     </g>
     <g id="text_1">
      <!-- blocked_rep -->
      <g transform="translate(225.849727 403.037422)scale(0.165 -0.165)">
       <defs>
        <path id="DejaVuSans-62" d="M 3116 1747 
Q 3116 2381 2855 2742 
Q 2594 3103 2138 3103 
Q 1681 3103 1420 2742 
Q 1159 2381 1159 1747 
Q 1159 1113 1420 752 
Q 1681 391 2138 391 
Q 2594 391 2855 752 
Q 3116 1113 3116 1747 
z
M 1159 2969 
Q 1341 3281 1617 3432 
Q 1894 3584 2278 3584 
Q 2916 3584 3314 3078 
Q 3713 2572 3713 1747 
Q 3713 922 3314 415 
Q 2916 -91 2278 -91 
Q 1894 -91 1617 61 
Q 1341 213 1159 525 
L 1159 0 
L 581 0 
L 581 4863 
L 1159 4863 
L 1159 2969 
z
" transform="scale(0.015625)"/>
        <path id="DejaVuSans-6c" d="M 603 4863 
L 1178 4863 
L 1178 0 
L 603 0 
L 603 4863 
z
" transform="scale(0.015625)"/>
        <path id="DejaVuSans-6f" d="M 1959 3097 
Q 1497 3097 1228 2736 
Q 959 2375 959 1747 
Q 959 1119 1226 758 
Q 1494 397 1959 397 
Q 2419 397 2687 759 
Q 2956 1122 2956 1747 
Q 2956 2369 2687 2733 
Q 2419 3097 1959 3097 
z
M 1959 3584 
Q 2709 3584 3137 3096 
Q 3566 2609 3566 1747 
Q 3566 888 3137 398 
Q 2709 -91 1959 -91 
Q 1206 -91 779 398 
Q 353 888 353 1747 
Q 353 2609 779 3096 
Q 1206 3584 1959 3584 
z
" transform="scale(0.015625)"/>
        <path id="DejaVuSans-63" d="M 3122 3366 
L 3122 2828 
Q 2878 2963 2633 3030 
Q 2388 3097 2138 3097 
Q 1578 3097 1268 2742 
Q 959 2388 959 1747 
Q 959 1106 1268 751 
Q 1578 397 2138 397 
Q 2388 397 2633 464 
Q 2878 531 3122 666 
L 3122 134 
Q 2881 22 2623 -34 
Q 2366 -91 2075 -91 
Q 1284 -91 818 406 
Q 353 903 353 1747 
Q 353 2603 823 3093 
Q 1294 3584 2113 3584 
Q 2378 3584 2631 3529 
Q 2884 3475 3122 3366 
z
" transform="scale(0.015625)"/>
        <path id="DejaVuSans-6b" d="M 581 4863 
L 1159 4863 
L 1159 1991 
L 2875 3500 
L 3609 3500 
L 1753 1863 
L 3688 0 
L 2938 0 
L 1159 1709 
L 1159 0 
L 581 0 
L 581 4863 
z
" transform="scale(0.015625)"/>
        <path id="DejaVuSans-65" d="M 3597 1894 
L 3597 1613 
L 953 1613 
Q 991 1019 1311 708 
Q 1631 397 2203 397 
Q 2534 397 2845 478 
Q 3156 559 3463 722 
L 3463 178 
Q 3153 47 2828 -22 
Q 2503 -91 2169 -91 
Q 1331 -91 842 396 
Q 353 884 353 1716 
Q 353 2575 817 3079 
Q 1281 3584 2069 3584 
Q 2775 3584 3186 3129 
Q 3597 2675 3597 1894 
z
M 3022 2063 
Q 3016 2534 2758 2815 
Q 2500 3097 2075 3097 
Q 1594 3097 1305 2825 
Q 1016 2553 972 2059 
L 3022 2063 
z
" transform="scale(0.015625)"/>
        <path id="DejaVuSans-64" d="M 2906 2969 
L 2906 4863 
L 3481 4863 
L 3481 0 
L 2906 0 
L 2906 525 
Q 2725 213 2448 61 
Q 2172 -91 1784 -91 
Q 1150 -91 751 415 
Q 353 922 353 1747 
Q 353 2572 751 3078 
Q 1150 3584 1784 3584 
Q 2172 3584 2448 3432 
Q 2725 3281 2906 2969 
z
M 947 1747 
Q 947 1113 1208 752 
Q 1469 391 1925 391 
Q 2381 391 2643 752 
Q 2906 1113 2906 1747 
Q 2906 2381 2643 2742 
Q 2381 3103 1925 3103 
Q 1469 3103 1208 2742 
Q 947 2381 947 1747 
z
" transform="scale(0.015625)"/>
        <path id="DejaVuSans-5f" d="M 3263 -1063 
L 3263 -1509 
L -63 -1509 
L -63 -1063 
L 3263 -1063 
z
" transform="scale(0.015625)"/>
        <path id="DejaVuSans-72" d="M 2631 2963 
Q 2534 3019 2420 3045 
Q 2306 3072 2169 3072 
Q 1681 3072 1420 2755 
Q 1159 2438 1159 1844 
L 1159 0 
L 581 0 
L 581 3500 
L 1159 3500 
L 1159 2956 
Q 1341 3275 1631 3429 
Q 1922 3584 2338 3584 
Q 2397 3584 2469 3576 
Q 2541 3569 2628 3553 
L 2631 2963 
z
" transform="scale(0.015625)"/>
        <path id="DejaVuSans-70" d="M 1159 525 
L 1159 -1331 
L 581 -1331 
L 581 3500 
L 1159 3500 
L 1159 2969 
Q 1341 3281 1617 3432 
Q 1894 3584 2278 3584 
Q 2916 3584 3314 3078 
Q 3713 2572 3713 1747 
Q 3713 922 3314 415 
Q 2916 -91 2278 -91 
Q 1894 -91 1617 61 
Q 1341 213 1159 525 
z
M 3116 1747 
Q 3116 2381 2855 2742 
Q 2594 3103 2138 3103 
Q 1681 3103 1420 2742 
Q 1159 2381 1159 1747 
Q 1159 1113 1420 752 
Q 1681 391 2138 391 
Q 2594 391 2855 752 
Q 3116 1113 3116 1747 
z
" transform="scale(0.015625)"/>
       </defs>
       <use xlink:href="#DejaVuSans-62"/>
       <use xlink:href="#DejaVuSans-6c" x="63.476562"/>
       <use xlink:href="#DejaVuSans-6f" x="91.259766"/>
       <use xlink:href="#DejaVuSans-63" x="152.441406"/>
       <use xlink:href="#DejaVuSans-6b" x="207.421875"/>
       <use xlink:href="#DejaVuSans-65" x="261.707031"/>
       <use xlink:href="#DejaVuSans-64" x="323.230469"/>
       <use xlink:href="#DejaVuSans-5f" x="386.707031"/>
       <use xlink:href="#DejaVuSans-72" x="436.707031"/>
       <use xlink:href="#DejaVuSans-65" x="475.570312"/>
       <use xlink:href="#DejaVuSans-70" x="537.09375"/>
      </g>
     </g>
    </g>
    <g id="xtick_2">
     <g id="line2d_2">
      <g>
       <use xlink:href="#md3787bb239" x="610.2" y="378" style="stroke: #000000; stroke-width: 1.875"/>
      </g>
     </g>
     <g id="text_2">
      <!-- interleaved_rep -->
      <g transform="translate(545.71207 403.037422)scale(0.165 -0.165)">
       <defs>
        <path id="DejaVuSans-69" d="M 603 3500 
L 1178 3500 
L 1178 0 
L 603 0 
L 603 3500 
z
M 603 4863 
L 1178 4863 
L 1178 4134 
L 603 4134 
L 603 4863 
z
" transform="scale(0.015625)"/>
        <path id="DejaVuSans-6e" d="M 3513 2113 
L 3513 0 
L 2938 0 
L 2938 2094 
Q 2938 2591 2744 2837 
Q 2550 3084 2163 3084 
Q 1697 3084 1428 2787 
Q 1159 2491 1159 1978 
L 1159 0 
L 581 0 
L 581 3500 
L 1159 3500 
L 1159 2956 
Q 1366 3272 1645 3428 
Q 1925 3584 2291 3584 
Q 2894 3584 3203 3211 
Q 3513 2838 3513 2113 
z
" transform="scale(0.015625)"/>
        <path id="DejaVuSans-74" d="M 1172 4494 
L 1172 3500 
L 2356 3500 
L 2356 3053 
L 1172 3053 
L 1172 1153 
Q 1172 725 1289 603 
Q 1406 481 1766 481 
L 2356 481 
L 2356 0 
L 1766 0 
Q 1100 0 847 248 
Q 594 497 594 1153 
L 594 3053 
L 172 3053 
L 172 3500 
L 594 3500 
L 594 4494 
L 1172 4494 
z
" transform="scale(0.015625)"/>
        <path id="DejaVuSans-61" d="M 2194 1759 
Q 1497 1759 1228 1600 
Q 959 1441 959 1056 
Q 959 750 1161 570 
Q 1363 391 1709 391 
Q 2188 391 2477 730 
Q 2766 1069 2766 1631 
L 2766 1759 
L 2194 1759 
z
M 3341 1997 
L 3341 0 
L 2766 0 
L 2766 531 
Q 2569 213 2275 61 
Q 1981 -91 1556 -91 
Q 1019 -91 701 211 
Q 384 513 384 1019 
Q 384 1609 779 1909 
Q 1175 2209 1959 2209 
L 2766 2209 
L 2766 2266 
Q 2766 2663 2505 2880 
Q 2244 3097 1772 3097 
Q 1472 3097 1187 3025 
Q 903 2953 641 2809 
L 641 3341 
Q 956 3463 1253 3523 
Q 1550 3584 1831 3584 
Q 2591 3584 2966 3190 
Q 3341 2797 3341 1997 
z
" transform="scale(0.015625)"/>
        <path id="DejaVuSans-76" d="M 191 3500 
L 800 3500 
L 1894 563 
L 2988 3500 
L 3597 3500 
L 2284 0 
L 1503 0 
L 191 3500 
z
" transform="scale(0.015625)"/>
       </defs>
       <use xlink:href="#DejaVuSans-69"/>
       <use xlink:href="#DejaVuSans-6e" x="27.783203"/>
       <use xlink:href="#DejaVuSans-74" x="91.162109"/>
       <use xlink:href="#DejaVuSans-65" x="130.371094"/>
       <use xlink:href="#DejaVuSans-72" x="191.894531"/>
       <use xlink:href="#DejaVuSans-6c" x="233.007812"/>
       <use xlink:href="#DejaVuSans-65" x="260.791016"/>
       <use xlink:href="#DejaVuSans-61" x="322.314453"/>
       <use xlink:href="#DejaVuSans-76" x="383.59375"/>
       <use xlink:href="#DejaVuSans-65" x="442.773438"/>
       <use xlink:href="#DejaVuSans-64" x="504.296875"/>
       <use xlink:href="#DejaVuSans-5f" x="567.773438"/>
       <use xlink:href="#DejaVuSans-72" x="617.773438"/>
       <use xlink:href="#DejaVuSans-65" x="656.636719"/>
       <use xlink:href="#DejaVuSans-70" x="718.160156"/>
      </g>
     </g>
    </g>
    <g id="text_3">
     <!-- condition -->
     <g transform="translate(401.187656 424.605)scale(0.18 -0.18)">
      <use xlink:href="#DejaVuSans-63"/>
      <use xlink:href="#DejaVuSans-6f" x="54.980469"/>
      <use xlink:href="#DejaVuSans-6e" x="116.162109"/>
      <use xlink:href="#DejaVuSans-64" x="179.541016"/>
      <use xlink:href="#DejaVuSans-69" x="243.017578"/>
      <use xlink:href="#DejaVuSans-74" x="270.800781"/>
      <use xlink:href="#DejaVuSans-69" x="310.009766"/>
      <use xlink:href="#DejaVuSans-6f" x="337.792969"/>
      <use xlink:href="#DejaVuSans-6e" x="398.974609"/>
     </g>
    </g>
   </g>
   <g id="matplotlib.axis_2">
    <g id="ytick_1">
     <g id="line2d_3">
      <defs>
       <path id="mecb115b23b" d="M 0 0 
L -9 0 
" style="stroke: #000000; stroke-width: 1.875"/>
      </defs>
      <g>
       <use xlink:href="#mecb115b23b" x="108" y="366.295988" style="stroke: #000000; stroke-width: 1.875"/>
      </g>
     </g>
     <g id="text_4">
      <!-- 0.0 -->
      <g transform="translate(69.259844 372.564699)scale(0.165 -0.165)">
       <defs>
        <path id="DejaVuSans-30" d="M 2034 4250 
Q 1547 4250 1301 3770 
Q 1056 3291 1056 2328 
Q 1056 1369 1301 889 
Q 1547 409 2034 409 
Q 2525 409 2770 889 
Q 3016 1369 3016 2328 
Q 3016 3291 2770 3770 
Q 2525 4250 2034 4250 
z
M 2034 4750 
Q 2819 4750 3233 4129 
Q 3647 3509 3647 2328 
Q 3647 1150 3233 529 
Q 2819 -91 2034 -91 
Q 1250 -91 836 529 
Q 422 1150 422 2328 
Q 422 3509 836 4129 
Q 1250 4750 2034 4750 
z
" transform="scale(0.015625)"/>
        <path id="DejaVuSans-2e" d="M 684 794 
L 1344 794 
L 1344 0 
L 684 0 
L 684 794 
z
" transform="scale(0.015625)"/>
       </defs>
       <use xlink:href="#DejaVuSans-30"/>
       <use xlink:href="#DejaVuSans-2e" x="63.623047"/>
       <use xlink:href="#DejaVuSans-30" x="95.410156"/>
      </g>
     </g>
    </g>
    <g id="ytick_2">
     <g id="line2d_4">
      <g>
       <use xlink:href="#mecb115b23b" x="108" y="317.855672" style="stroke: #000000; stroke-width: 1.875"/>
      </g>
     </g>
     <g id="text_5">
      <!-- 0.2 -->
      <g transform="translate(69.259844 324.124383)scale(0.165 -0.165)">
       <defs>
        <path id="DejaVuSans-32" d="M 1228 531 
L 3431 531 
L 3431 0 
L 469 0 
L 469 531 
Q 828 903 1448 1529 
Q 2069 2156 2228 2338 
Q 2531 2678 2651 2914 
Q 2772 3150 2772 3378 
Q 2772 3750 2511 3984 
Q 2250 4219 1831 4219 
Q 1534 4219 1204 4116 
Q 875 4013 500 3803 
L 500 4441 
Q 881 4594 1212 4672 
Q 1544 4750 1819 4750 
Q 2544 4750 2975 4387 
Q 3406 4025 3406 3419 
Q 3406 3131 3298 2873 
Q 3191 2616 2906 2266 
Q 2828 2175 2409 1742 
Q 1991 1309 1228 531 
z
" transform="scale(0.015625)"/>
       </defs>
       <use xlink:href="#DejaVuSans-30"/>
       <use xlink:href="#DejaVuSans-2e" x="63.623047"/>
       <use xlink:href="#DejaVuSans-32" x="95.410156"/>
      </g>
     </g>
    </g>
    <g id="ytick_3">
     <g id="line2d_5">
      <g>
       <use xlink:href="#mecb115b23b" x="108" y="269.415356" style="stroke: #000000; stroke-width: 1.875"/>
      </g>
     </g>
     <g id="text_6">
      <!-- 0.4 -->
      <g transform="translate(69.259844 275.684067)scale(0.165 -0.165)">
       <defs>
        <path id="DejaVuSans-34" d="M 2419 4116 
L 825 1625 
L 2419 1625 
L 2419 4116 
z
M 2253 4666 
L 3047 4666 
L 3047 1625 
L 3713 1625 
L 3713 1100 
L 3047 1100 
L 3047 0 
L 2419 0 
L 2419 1100 
L 313 1100 
L 313 1709 
L 2253 4666 
z
" transform="scale(0.015625)"/>
       </defs>
       <use xlink:href="#DejaVuSans-30"/>
       <use xlink:href="#DejaVuSans-2e" x="63.623047"/>
       <use xlink:href="#DejaVuSans-34" x="95.410156"/>
      </g>
     </g>
    </g>
    <g id="ytick_4">
     <g id="line2d_6">
      <g>
       <use xlink:href="#mecb115b23b" x="108" y="220.97504" style="stroke: #000000; stroke-width: 1.875"/>
      </g>
     </g>
     <g id="text_7">
      <!-- 0.6 -->
      <g transform="translate(69.259844 227.24375)scale(0.165 -0.165)">
       <defs>
        <path id="DejaVuSans-36" d="M 2113 2584 
Q 1688 2584 1439 2293 
Q 1191 2003 1191 1497 
Q 1191 994 1439 701 
Q 1688 409 2113 409 
Q 2538 409 2786 701 
Q 3034 994 3034 1497 
Q 3034 2003 2786 2293 
Q 2538 2584 2113 2584 
z
M 3366 4563 
L 3366 3988 
Q 3128 4100 2886 4159 
Q 2644 4219 2406 4219 
Q 1781 4219 1451 3797 
Q 1122 3375 1075 2522 
Q 1259 2794 1537 2939 
Q 1816 3084 2150 3084 
Q 2853 3084 3261 2657 
Q 3669 2231 3669 1497 
Q 3669 778 3244 343 
Q 2819 -91 2113 -91 
Q 1303 -91 875 529 
Q 447 1150 447 2328 
Q 447 3434 972 4092 
Q 1497 4750 2381 4750 
Q 2619 4750 2861 4703 
Q 3103 4656 3366 4563 
z
" transform="scale(0.015625)"/>
       </defs>
       <use xlink:href="#DejaVuSans-30"/>
       <use xlink:href="#DejaVuSans-2e" x="63.623047"/>
       <use xlink:href="#DejaVuSans-36" x="95.410156"/>
      </g>
     </g>
    </g>
    <g id="ytick_5">
     <g id="line2d_7">
      <g>
       <use xlink:href="#mecb115b23b" x="108" y="172.534723" style="stroke: #000000; stroke-width: 1.875"/>
      </g>
     </g>
     <g id="text_8">
      <!-- 0.8 -->
      <g transform="translate(69.259844 178.803434)scale(0.165 -0.165)">
       <defs>
        <path id="DejaVuSans-38" d="M 2034 2216 
Q 1584 2216 1326 1975 
Q 1069 1734 1069 1313 
Q 1069 891 1326 650 
Q 1584 409 2034 409 
Q 2484 409 2743 651 
Q 3003 894 3003 1313 
Q 3003 1734 2745 1975 
Q 2488 2216 2034 2216 
z
M 1403 2484 
Q 997 2584 770 2862 
Q 544 3141 544 3541 
Q 544 4100 942 4425 
Q 1341 4750 2034 4750 
Q 2731 4750 3128 4425 
Q 3525 4100 3525 3541 
Q 3525 3141 3298 2862 
Q 3072 2584 2669 2484 
Q 3125 2378 3379 2068 
Q 3634 1759 3634 1313 
Q 3634 634 3220 271 
Q 2806 -91 2034 -91 
Q 1263 -91 848 271 
Q 434 634 434 1313 
Q 434 1759 690 2068 
Q 947 2378 1403 2484 
z
M 1172 3481 
Q 1172 3119 1398 2916 
Q 1625 2713 2034 2713 
Q 2441 2713 2670 2916 
Q 2900 3119 2900 3481 
Q 2900 3844 2670 4047 
Q 2441 4250 2034 4250 
Q 1625 4250 1398 4047 
Q 1172 3844 1172 3481 
z
" transform="scale(0.015625)"/>
       </defs>
       <use xlink:href="#DejaVuSans-30"/>
       <use xlink:href="#DejaVuSans-2e" x="63.623047"/>
       <use xlink:href="#DejaVuSans-38" x="95.410156"/>
      </g>
     </g>
    </g>
    <g id="ytick_6">
     <g id="line2d_8">
      <g>
       <use xlink:href="#mecb115b23b" x="108" y="124.094407" style="stroke: #000000; stroke-width: 1.875"/>
      </g>
     </g>
     <g id="text_9">
      <!-- 1.0 -->
      <g transform="translate(69.259844 130.363118)scale(0.165 -0.165)">
       <defs>
        <path id="DejaVuSans-31" d="M 794 531 
L 1825 531 
L 1825 4091 
L 703 3866 
L 703 4441 
L 1819 4666 
L 2450 4666 
L 2450 531 
L 3481 531 
L 3481 0 
L 794 0 
L 794 531 
z
" transform="scale(0.015625)"/>
       </defs>
       <use xlink:href="#DejaVuSans-31"/>
       <use xlink:href="#DejaVuSans-2e" x="63.623047"/>
       <use xlink:href="#DejaVuSans-30" x="95.410156"/>
      </g>
     </g>
    </g>
    <g id="ytick_7">
     <g id="line2d_9">
      <g>
       <use xlink:href="#mecb115b23b" x="108" y="75.654091" style="stroke: #000000; stroke-width: 1.875"/>
      </g>
     </g>
     <g id="text_10">
      <!-- 1.2 -->
      <g transform="translate(69.259844 81.922802)scale(0.165 -0.165)">
       <use xlink:href="#DejaVuSans-31"/>
       <use xlink:href="#DejaVuSans-2e" x="63.623047"/>
       <use xlink:href="#DejaVuSans-32" x="95.410156"/>
      </g>
     </g>
    </g>
    <g id="text_11">
     <!-- prediction accuracy -->
     <g transform="translate(61.516406 303.537656)rotate(-90)scale(0.18 -0.18)">
      <defs>
       <path id="DejaVuSans-20" transform="scale(0.015625)"/>
       <path id="DejaVuSans-75" d="M 544 1381 
L 544 3500 
L 1119 3500 
L 1119 1403 
Q 1119 906 1312 657 
Q 1506 409 1894 409 
Q 2359 409 2629 706 
Q 2900 1003 2900 1516 
L 2900 3500 
L 3475 3500 
L 3475 0 
L 2900 0 
L 2900 538 
Q 2691 219 2414 64 
Q 2138 -91 1772 -91 
Q 1169 -91 856 284 
Q 544 659 544 1381 
z
M 1991 3584 
L 1991 3584 
z
" transform="scale(0.015625)"/>
       <path id="DejaVuSans-79" d="M 2059 -325 
Q 1816 -950 1584 -1140 
Q 1353 -1331 966 -1331 
L 506 -1331 
L 506 -850 
L 844 -850 
Q 1081 -850 1212 -737 
Q 1344 -625 1503 -206 
L 1606 56 
L 191 3500 
L 800 3500 
L 1894 763 
L 2988 3500 
L 3597 3500 
L 2059 -325 
z
" transform="scale(0.015625)"/>
      </defs>
      <use xlink:href="#DejaVuSans-70"/>
      <use xlink:href="#DejaVuSans-72" x="63.476562"/>
      <use xlink:href="#DejaVuSans-65" x="102.339844"/>
      <use xlink:href="#DejaVuSans-64" x="163.863281"/>
      <use xlink:href="#DejaVuSans-69" x="227.339844"/>
      <use xlink:href="#DejaVuSans-63" x="255.123047"/>
      <use xlink:href="#DejaVuSans-74" x="310.103516"/>
      <use xlink:href="#DejaVuSans-69" x="349.3125"/>
      <use xlink:href="#DejaVuSans-6f" x="377.095703"/>
      <use xlink:href="#DejaVuSans-6e" x="438.277344"/>
      <use xlink:href="#DejaVuSans-20" x="501.65625"/>
      <use xlink:href="#DejaVuSans-61" x="533.443359"/>
      <use xlink:href="#DejaVuSans-63" x="594.722656"/>
      <use xlink:href="#DejaVuSans-63" x="649.703125"/>
      <use xlink:href="#DejaVuSans-75" x="704.683594"/>
      <use xlink:href="#DejaVuSans-72" x="768.0625"/>
      <use xlink:href="#DejaVuSans-61" x="809.175781"/>
      <use xlink:href="#DejaVuSans-63" x="870.455078"/>
      <use xlink:href="#DejaVuSans-79" x="925.435547"/>
     </g>
    </g>
   </g>
   <g id="line2d_10">
    <path d="M 275.4 173.959438 
L 275.4 124.094407 
" clip-path="url(#pefa4e8bde3)" style="fill: none; stroke: #3f3f3f; stroke-width: 2.25; stroke-linecap: square"/>
   </g>
   <g id="line2d_11">
    <path d="M 275.4 157.384018 
L 275.4 124.094407 
" clip-path="url(#pefa4e8bde3)" style="fill: none; stroke: #3f3f3f; stroke-width: 6.75; stroke-linecap: square"/>
   </g>
   <g id="line2d_12">
    <path d="M 610.2 305.745593 
L 610.2 124.094407 
" clip-path="url(#pefa4e8bde3)" style="fill: none; stroke: #3f3f3f; stroke-width: 2.25; stroke-linecap: square"/>
   </g>
   <g id="line2d_13">
    <path d="M 610.2 254.814657 
L 610.2 200.324967 
" clip-path="url(#pefa4e8bde3)" style="fill: none; stroke: #3f3f3f; stroke-width: 6.75; stroke-linecap: square"/>
   </g>
   <g id="patch_3">
    <path d="M 108 378 
L 108 51.84 
" style="fill: none; stroke: #000000; stroke-width: 1.875; stroke-linejoin: miter; stroke-linecap: square"/>
   </g>
   <g id="patch_4">
    <path d="M 777.6 378 
L 777.6 51.84 
" style="fill: none; stroke: #000000; stroke-width: 1.875; stroke-linejoin: miter; stroke-linecap: square"/>
   </g>
   <g id="patch_5">
    <path d="M 108 378 
L 777.6 378 
" style="fill: none; stroke: #000000; stroke-width: 1.875; stroke-linejoin: miter; stroke-linecap: square"/>
   </g>
   <g id="patch_6">
    <path d="M 108 51.84 
L 777.6 51.84 
" style="fill: none; stroke: #000000; stroke-width: 1.875; stroke-linejoin: miter; stroke-linecap: square"/>
   </g>
   <g id="PathCollection_1">
    <defs>
     <path id="m85c7d77e2a" d="M 0 2.25 
C 0.596707 2.25 1.169055 2.012926 1.59099 1.59099 
C 2.012926 1.169055 2.25 0.596707 2.25 0 
C 2.25 -0.596707 2.012926 -1.169055 1.59099 -1.59099 
C 1.169055 -2.012926 0.596707 -2.25 0 -2.25 
C -0.596707 -2.25 -1.169055 -2.012926 -1.59099 -1.59099 
C -2.012926 -1.169055 -2.25 -0.596707 -2.25 0 
C -2.25 0.596707 -2.012926 1.169055 -1.59099 1.59099 
C -1.169055 2.012926 -0.596707 2.25 0 2.25 
z
" style="stroke: #3f3f3f; stroke-width: 1.5"/>
    </defs>
    <g clip-path="url(#pefa4e8bde3)">
     <use xlink:href="#m85c7d77e2a" x="275.4" y="136.507238" style="fill: #ffffff; stroke: #3f3f3f; stroke-width: 1.5"/>
    </g>
   </g>
   <g id="PathCollection_2">
    <g clip-path="url(#pefa4e8bde3)">
     <use xlink:href="#m85c7d77e2a" x="610.2" y="236.833476" style="fill: #ffffff; stroke: #3f3f3f; stroke-width: 1.5"/>
    </g>
   </g>
  </g>
 </g>
 <defs>
  <clipPath id="pefa4e8bde3">
   <rect x="108" y="51.84" width="669.6" height="326.16"/>
  </clipPath>
 </defs>
</svg>
