<?xml version="1.0" encoding="utf-8" standalone="no"?>
<!DOCTYPE svg PUBLIC "-//W3C//DTD SVG 1.1//EN"
  "http://www.w3.org/Graphics/SVG/1.1/DTD/svg11.dtd">
<svg xmlns:xlink="http://www.w3.org/1999/xlink" width="864pt" height="432pt" viewBox="0 0 864 432" xmlns="http://www.w3.org/2000/svg" version="1.1">
 <metadata>
  <rdf:RDF xmlns:dc="http://purl.org/dc/elements/1.1/" xmlns:cc="http://creativecommons.org/ns#" xmlns:rdf="http://www.w3.org/1999/02/22-rdf-syntax-ns#">
   <cc:Work>
    <dc:type rdf:resource="http://purl.org/dc/dcmitype/StillImage"/>
    <dc:date>2023-05-02T17:26:34.716750</dc:date>
    <dc:format>image/svg+xml</dc:format>
    <dc:creator>
     <cc:Agent>
      <dc:title>Matplotlib v3.5.1, https://matplotlib.org/</dc:title>
     </cc:Agent>
    </dc:creator>
   </cc:Work>
  </rdf:RDF>
 </metadata>
 <defs>
  <style type="text/css">*{stroke-linejoin: round; stroke-linecap: butt}</style>
 </defs>
 <g id="figure_1">
  <g id="patch_1">
   <path d="M 0 432 
L 864 432 
L 864 0 
L 0 0 
L 0 432 
z
" style="fill: none"/>
  </g>
  <g id="axes_1">
   <g id="patch_2">
    <path d="M 108 378 
L 777.6 378 
L 777.6 51.84 
L 108 51.84 
z
" style="fill: #ffffff"/>
   </g>
   <g id="PolyCollection_1">
    <defs>
     <path id="m963352d8ef" d="M 138.436364 -284.53974 
L 138.436364 -217.864416 
L 141.48 -133.371651 
L 144.523636 -158.47295 
L 147.567273 -188.74433 
L 150.610909 -148.473806 
L 153.654545 -141.85725 
L 156.698182 -239.089778 
L 159.741818 -150.060822 
L 162.785455 -193.076883 
L 165.829091 -198.873301 
L 168.872727 -191.801575 
L 171.916364 -172.863732 
L 174.96 -169.979942 
L 178.003636 -203.881355 
L 181.047273 -189.188239 
L 184.090909 -185.103529 
L 187.134545 -167.047928 
L 190.178182 -188.841039 
L 193.221818 -187.133037 
L 196.265455 -127.250891 
L 199.309091 -221.593604 
L 202.352727 -180.190371 
L 205.396364 -181.007629 
L 208.44 -141.562172 
L 211.483636 -225.148275 
L 214.527273 -174.721558 
L 217.570909 -185.546494 
L 220.614545 -193.883711 
L 223.658182 -194.331948 
L 226.701818 -155.111169 
L 229.745455 -200.349383 
L 232.789091 -136.808139 
L 235.832727 -194.331948 
L 238.876364 -183.307729 
L 241.92 -184.558901 
L 244.963636 -181.680445 
L 248.007273 -165.432427 
L 251.050909 -216.536943 
L 254.094545 -194.814665 
L 257.138182 -201.462999 
L 260.181818 -197.184368 
L 263.225455 -169.979942 
L 266.269091 -190.40987 
L 269.312727 -201.951985 
L 272.356364 -180.295038 
L 275.4 -204.703665 
L 278.443636 -239.089778 
L 281.487273 -154.770119 
L 284.530909 -209.922208 
L 287.574545 -186.125754 
L 290.618182 -202.496063 
L 293.661818 -222.531192 
L 296.705455 -193.516971 
L 299.749091 -189.849573 
L 302.792727 -171.920074 
L 305.836364 -192.905738 
L 308.88 -200.076964 
L 311.923636 -180.190371 
L 314.967273 -161.484545 
L 318.010909 -178.251429 
L 321.054545 -186.487792 
L 324.098182 -203.503576 
L 327.141818 -183.435925 
L 330.185455 -180.069847 
L 333.229091 -210.02026 
L 336.272727 -180.295038 
L 339.316364 -186.487792 
L 342.36 -168.492376 
L 345.403636 -217.199657 
L 348.447273 -214.726753 
L 351.490909 -178.643636 
L 354.534545 -218.95664 
L 357.578182 -208.186561 
L 360.621818 -157.072208 
L 363.665455 -193.883711 
L 366.709091 -168.747932 
L 369.752727 -184.875979 
L 372.796364 -190.40987 
L 375.84 -194.660555 
L 378.883636 -188.482069 
L 381.927273 -188.145008 
L 384.970909 -164.281097 
L 388.014545 -207.932168 
L 391.058182 -210.02026 
L 394.101818 -227.918193 
L 397.145455 -245.845807 
L 400.189091 -178.251429 
L 403.232727 -187.123805 
L 406.276364 -189.311688 
L 409.32 -175.675577 
L 412.363636 -197.561895 
L 415.407273 -228.238944 
L 418.450909 -189.849573 
L 421.494545 -181.781299 
L 424.538182 -213.836336 
L 427.581818 -196.783247 
L 430.625455 -223.940874 
L 433.669091 -213.643021 
L 436.712727 -218.325837 
L 439.756364 -159.764482 
L 442.8 -197.184368 
L 445.843636 -131.578701 
L 448.887273 -168.043426 
L 451.930909 -180.950741 
L 454.974545 -213.55013 
L 458.018182 -204.054282 
L 461.061818 -201.714683 
L 464.105455 -204.372468 
L 467.149091 -173.713024 
L 470.192727 -226.431864 
L 473.236364 -175.300226 
L 476.28 -197.917848 
L 479.323636 -182.624253 
L 482.367273 -192.370909 
L 485.410909 -194.331948 
L 488.454545 -205.465589 
L 491.498182 -195.268564 
L 494.541818 -166.877403 
L 497.585455 -188.145008 
L 500.629091 -217.451565 
L 503.672727 -190.939881 
L 506.716364 -174.721558 
L 509.76 -188.145008 
L 512.803636 -217.864416 
L 515.847273 -173.713024 
L 518.890909 -228.436973 
L 521.934545 -211.807536 
L 524.978182 -177.139278 
L 528.021818 -193.883711 
L 531.065455 -156.034011 
L 534.109091 -202.388108 
L 537.152727 -126.185844 
L 540.196364 -196.24238 
L 543.24 -204.519163 
L 546.283636 -191.194286 
L 549.327273 -183.546234 
L 552.370909 -186.487792 
L 555.414545 -176.213053 
L 558.458182 -221.786494 
L 561.501818 -172.487463 
L 564.545455 -180.190371 
L 567.589091 -205.465589 
L 570.632727 -184.01069 
L 573.676364 -202.840863 
L 576.72 -174.721558 
L 579.763636 -196.099645 
L 582.807273 -190.47021 
L 585.850909 -188.74433 
L 588.894545 -197.184368 
L 591.938182 -189.849573 
L 594.981818 -233.096127 
L 598.025455 -195.064757 
L 601.069091 -164.473548 
L 604.112727 -214.726753 
L 607.156364 -223.684273 
L 610.2 -165.64475 
L 613.243636 -175.179983 
L 616.287273 -215.668052 
L 619.330909 -239.653737 
L 622.374545 -194.755956 
L 625.418182 -184.348477 
L 628.461818 -195.900779 
L 631.505455 -189.256318 
L 634.549091 -181.781299 
L 637.592727 -176.213053 
L 640.636364 -219.188754 
L 643.68 -177.436843 
L 646.723636 -187.429091 
L 649.767273 -171.140531 
L 652.810909 -179.491653 
L 655.854545 -165.64475 
L 658.898182 -184.16769 
L 661.941818 -218.577521 
L 664.985455 -158.189255 
L 668.029091 -203.881355 
L 671.072727 -200.349383 
L 674.116364 -220.265493 
L 677.16 -185.910581 
L 680.203636 -212.008919 
L 683.247273 -191.801575 
L 686.290909 -168.043426 
L 689.334545 -169.979942 
L 692.378182 -203.076253 
L 695.421818 -183.41834 
L 698.465455 -185.367199 
L 701.509091 -201.714683 
L 704.552727 -182.624253 
L 707.596364 -203.698104 
L 710.64 -210.02026 
L 713.683636 -200.349383 
L 716.727273 -223.684273 
L 719.770909 -145.405688 
L 722.814545 -180.069847 
L 725.858182 -198.155974 
L 728.901818 -241.193139 
L 731.945455 -193.409106 
L 734.989091 -243.827467 
L 738.032727 -227.427838 
L 741.076364 -161.610612 
L 744.12 -193.817577 
L 744.12 -267.886983 
L 744.12 -267.886983 
L 741.076364 -226.156809 
L 738.032727 -281.58475 
L 734.989091 -303.487243 
L 731.945455 -259.85372 
L 728.901818 -296.204102 
L 725.858182 -261.007273 
L 722.814545 -252.806564 
L 719.770909 -212.413392 
L 716.727273 -292.00434 
L 713.683636 -266.111347 
L 710.64 -275.911169 
L 707.596364 -271.134429 
L 704.552727 -250.060578 
L 701.509091 -268.159297 
L 698.465455 -252.60282 
L 695.421818 -248.899989 
L 692.378182 -272.516321 
L 689.334545 -237.416267 
L 686.290909 -229.100639 
L 683.247273 -260.121642 
L 680.203636 -275.646014 
L 677.16 -255.30916 
L 674.116364 -275.451999 
L 671.072727 -262.339705 
L 668.029091 -273.455607 
L 664.985455 -215.471452 
L 661.941818 -278.478347 
L 658.898182 -247.804785 
L 655.854545 -230.190946 
L 652.810909 -240.548866 
L 649.767273 -240.714783 
L 646.723636 -266.498182 
L 643.68 -255.637043 
L 640.636364 -277.867114 
L 637.592727 -239.850148 
L 634.549091 -251.292587 
L 631.505455 -255.700932 
L 628.461818 -259.438442 
L 625.418182 -252.806564 
L 622.374545 -259.629245 
L 619.330909 -298.920693 
L 616.287273 -275.911169 
L 613.243636 -233.858344 
L 610.2 -230.190946 
L 607.156364 -292.00434 
L 604.112727 -285.324156 
L 601.069091 -237.348287 
L 598.025455 -254.608093 
L 594.981818 -292.208281 
L 591.938182 -250.361633 
L 588.894545 -265.642456 
L 585.850909 -254.506294 
L 582.807273 -264.325954 
L 579.763636 -259.73674 
L 576.72 -241.396883 
L 573.676364 -274.634832 
L 570.632727 -247.176787 
L 567.589091 -273.785656 
L 564.545455 -243.827467 
L 561.501818 -236.8294 
L 558.458182 -284.53974 
L 555.414545 -239.850148 
L 552.370909 -249.339091 
L 549.327273 -254.143636 
L 546.283636 -261.791688 
L 543.24 -266.864922 
L 540.196364 -260.121642 
L 537.152727 -187.958571 
L 534.109091 -263.445321 
L 531.065455 -222.478625 
L 528.021818 -258.429907 
L 524.978182 -239.1296 
L 521.934545 -272.57492 
L 518.890909 -289.826019 
L 515.847273 -238.259221 
L 512.803636 -280.617662 
L 509.76 -251.782104 
L 506.716364 -237.474805 
L 503.672727 -251.997094 
L 500.629091 -276.90201 
L 497.585455 -259.73674 
L 494.541818 -229.630649 
L 491.498182 -262.704889 
L 488.454545 -273.785656 
L 485.410909 -266.049944 
L 482.367273 -262.968312 
L 479.323636 -250.060578 
L 476.28 -262.464045 
L 473.236364 -240.110956 
L 470.192727 -285.201909 
L 467.149091 -242.293358 
L 464.105455 -268.380779 
L 461.061818 -264.110328 
L 458.018182 -267.691377 
L 454.974545 -273.557922 
L 451.930909 -247.395355 
L 448.887273 -229.100639 
L 445.843636 -194.331948 
L 442.8 -265.642456 
L 439.756364 -231.55845 
L 436.712727 -284.770451 
L 433.669091 -273.186357 
L 430.625455 -287.57797 
L 427.581818 -263.07862 
L 424.538182 -278.709624 
L 421.494545 -251.292587 
L 418.450909 -248.527934 
L 415.407273 -292.00434 
L 412.363636 -268.159297 
L 409.32 -236.73279 
L 406.276364 -253.32 
L 403.232727 -251.997094 
L 400.189091 -241.789091 
L 397.145455 -304.852592 
L 394.101818 -291.555288 
L 391.058182 -269.470704 
L 388.014545 -271.668696 
L 384.970909 -231.895511 
L 381.927273 -251.782104 
L 378.883636 -255.489773 
L 375.84 -259.629245 
L 372.796364 -253.163117 
L 369.752727 -246.769593 
L 366.709091 -242.603676 
L 363.665455 -258.429907 
L 360.621818 -227.66961 
L 357.578182 -266.864922 
L 354.534545 -276.238836 
L 351.490909 -241.396883 
L 348.447273 -280.617662 
L 345.403636 -284.207361 
L 342.36 -234.93699 
L 339.316364 -249.241039 
L 336.272727 -243.461135 
L 333.229091 -272.773506 
L 330.185455 -248.527934 
L 327.141818 -249.731299 
L 324.098182 -273.014865 
L 321.054545 -253.163117 
L 318.010909 -241.789091 
L 314.967273 -232.081948 
L 311.923636 -243.827467 
L 308.88 -263.714059 
L 305.836364 -261.363825 
L 302.792727 -243.638071 
L 299.749091 -254.39577 
L 296.705455 -259.530126 
L 293.661818 -279.724024 
L 290.618182 -262.039398 
L 287.574545 -255.637043 
L 284.530909 -272.773506 
L 281.487273 -216.159164 
L 278.443636 -301.381604 
L 275.4 -260.571486 
L 272.356364 -247.176787 
L 269.312727 -262.464045 
L 266.269091 -253.163117 
L 263.225455 -237.416267 
L 260.181818 -255.862729 
L 257.138182 -269.921086 
L 254.094545 -259.981499 
L 251.050909 -286.048232 
L 248.007273 -228.691415 
L 244.963636 -246.428349 
L 241.92 -258.628307 
L 238.876364 -248.181018 
L 235.832727 -257.085195 
L 232.789091 -210.02026 
L 229.745455 -266.111347 
L 226.701818 -217.864416 
L 223.658182 -257.085195 
L 220.614545 -262.464045 
L 217.570909 -245.78961 
L 214.527273 -237.572857 
L 211.483636 -290.829072 
L 208.44 -205.741629 
L 205.396364 -242.901242 
L 202.352727 -243.827467 
L 199.309091 -286.404335 
L 196.265455 -195.413901 
L 193.221818 -251.0123 
L 190.178182 -248.848831 
L 187.134545 -232.529577 
L 184.090909 -251.548144 
L 181.047273 -263.257645 
L 178.003636 -269.363004 
L 174.96 -241.631037 
L 171.916364 -232.407068 
L 168.872727 -260.121642 
L 165.829091 -262.13229 
L 162.785455 -257.085195 
L 159.741818 -211.954435 
L 156.698182 -297.228816 
L 153.654545 -214.889046 
L 150.610909 -213.640639 
L 147.567273 -250.637943 
L 144.523636 -230.190946 
L 141.48 -193.883711 
L 138.436364 -284.53974 
z
" style="stroke: #008000; stroke-opacity: 0.2; stroke-width: 1.5"/>
    </defs>
    <g clip-path="url(#p42fe3235b7)">
     <use xlink:href="#m963352d8ef" x="0" y="432" style="fill: #008000; fill-opacity: 0.2; stroke: #008000; stroke-opacity: 0.2; stroke-width: 1.5"/>
    </g>
   </g>
   <g id="PolyCollection_2">
    <defs>
     <path id="m4bd29a3fdf" d="M 138.436364 -365.334545 
L 138.436364 -68.825455 
L 141.48 -68.825455 
L 144.523636 -68.825455 
L 147.567273 -68.825455 
L 150.610909 -68.825455 
L 153.654545 -68.825455 
L 156.698182 -68.825455 
L 159.741818 -68.825455 
L 162.785455 -68.825455 
L 165.829091 -68.825455 
L 168.872727 -68.825455 
L 171.916364 -68.825455 
L 174.96 -68.825455 
L 178.003636 -68.825455 
L 181.047273 -68.825455 
L 184.090909 -68.825455 
L 187.134545 -68.825455 
L 190.178182 -68.825455 
L 193.221818 -68.825455 
L 196.265455 -68.825455 
L 199.309091 -68.825455 
L 202.352727 -68.825455 
L 205.396364 -68.825455 
L 208.44 -68.825455 
L 211.483636 -68.825455 
L 214.527273 -68.825455 
L 217.570909 -68.825455 
L 220.614545 -68.825455 
L 223.658182 -68.825455 
L 226.701818 -68.825455 
L 229.745455 -68.825455 
L 232.789091 -68.825455 
L 235.832727 -68.825455 
L 238.876364 -68.825455 
L 241.92 -68.825455 
L 244.963636 -68.825455 
L 248.007273 -68.825455 
L 251.050909 -68.825455 
L 254.094545 -68.825455 
L 257.138182 -68.825455 
L 260.181818 -68.825455 
L 260.181818 -365.334545 
L 260.181818 -365.334545 
L 257.138182 -365.334545 
L 254.094545 -365.334545 
L 251.050909 -365.334545 
L 248.007273 -365.334545 
L 244.963636 -365.334545 
L 241.92 -365.334545 
L 238.876364 -365.334545 
L 235.832727 -365.334545 
L 232.789091 -365.334545 
L 229.745455 -365.334545 
L 226.701818 -365.334545 
L 223.658182 -365.334545 
L 220.614545 -365.334545 
L 217.570909 -365.334545 
L 214.527273 -365.334545 
L 211.483636 -365.334545 
L 208.44 -365.334545 
L 205.396364 -365.334545 
L 202.352727 -365.334545 
L 199.309091 -365.334545 
L 196.265455 -365.334545 
L 193.221818 -365.334545 
L 190.178182 -365.334545 
L 187.134545 -365.334545 
L 184.090909 -365.334545 
L 181.047273 -365.334545 
L 178.003636 -365.334545 
L 174.96 -365.334545 
L 171.916364 -365.334545 
L 168.872727 -365.334545 
L 165.829091 -365.334545 
L 162.785455 -365.334545 
L 159.741818 -365.334545 
L 156.698182 -365.334545 
L 153.654545 -365.334545 
L 150.610909 -365.334545 
L 147.567273 -365.334545 
L 144.523636 -365.334545 
L 141.48 -365.334545 
L 138.436364 -365.334545 
z
" style="stroke: #ffd700; stroke-opacity: 0.2; stroke-width: 1.5"/>
    </defs>
    <g clip-path="url(#p42fe3235b7)">
     <use xlink:href="#m4bd29a3fdf" x="0" y="432" style="fill: #ffd700; fill-opacity: 0.2; stroke: #ffd700; stroke-opacity: 0.2; stroke-width: 1.5"/>
    </g>
   </g>
   <g id="PolyCollection_3">
    <defs>
     <path id="m6b6bb916fd" d="M 260.181818 -365.334545 
L 260.181818 -68.825455 
L 263.225455 -68.825455 
L 266.269091 -68.825455 
L 269.312727 -68.825455 
L 272.356364 -68.825455 
L 275.4 -68.825455 
L 278.443636 -68.825455 
L 281.487273 -68.825455 
L 284.530909 -68.825455 
L 287.574545 -68.825455 
L 290.618182 -68.825455 
L 293.661818 -68.825455 
L 296.705455 -68.825455 
L 299.749091 -68.825455 
L 302.792727 -68.825455 
L 305.836364 -68.825455 
L 308.88 -68.825455 
L 311.923636 -68.825455 
L 314.967273 -68.825455 
L 318.010909 -68.825455 
L 321.054545 -68.825455 
L 324.098182 -68.825455 
L 327.141818 -68.825455 
L 330.185455 -68.825455 
L 333.229091 -68.825455 
L 336.272727 -68.825455 
L 339.316364 -68.825455 
L 342.36 -68.825455 
L 345.403636 -68.825455 
L 348.447273 -68.825455 
L 351.490909 -68.825455 
L 354.534545 -68.825455 
L 357.578182 -68.825455 
L 360.621818 -68.825455 
L 363.665455 -68.825455 
L 366.709091 -68.825455 
L 369.752727 -68.825455 
L 372.796364 -68.825455 
L 375.84 -68.825455 
L 378.883636 -68.825455 
L 381.927273 -68.825455 
L 381.927273 -365.334545 
L 381.927273 -365.334545 
L 378.883636 -365.334545 
L 375.84 -365.334545 
L 372.796364 -365.334545 
L 369.752727 -365.334545 
L 366.709091 -365.334545 
L 363.665455 -365.334545 
L 360.621818 -365.334545 
L 357.578182 -365.334545 
L 354.534545 -365.334545 
L 351.490909 -365.334545 
L 348.447273 -365.334545 
L 345.403636 -365.334545 
L 342.36 -365.334545 
L 339.316364 -365.334545 
L 336.272727 -365.334545 
L 333.229091 -365.334545 
L 330.185455 -365.334545 
L 327.141818 -365.334545 
L 324.098182 -365.334545 
L 321.054545 -365.334545 
L 318.010909 -365.334545 
L 314.967273 -365.334545 
L 311.923636 -365.334545 
L 308.88 -365.334545 
L 305.836364 -365.334545 
L 302.792727 -365.334545 
L 299.749091 -365.334545 
L 296.705455 -365.334545 
L 293.661818 -365.334545 
L 290.618182 -365.334545 
L 287.574545 -365.334545 
L 284.530909 -365.334545 
L 281.487273 -365.334545 
L 278.443636 -365.334545 
L 275.4 -365.334545 
L 272.356364 -365.334545 
L 269.312727 -365.334545 
L 266.269091 -365.334545 
L 263.225455 -365.334545 
L 260.181818 -365.334545 
z
" style="stroke: #ffd700; stroke-opacity: 0.2; stroke-width: 1.5"/>
    </defs>
    <g clip-path="url(#p42fe3235b7)">
     <use xlink:href="#m6b6bb916fd" x="0" y="432" style="fill: #ffd700; fill-opacity: 0.2; stroke: #ffd700; stroke-opacity: 0.2; stroke-width: 1.5"/>
    </g>
   </g>
   <g id="PolyCollection_4">
    <defs>
     <path id="m9bd3976bad" d="M 381.927273 -365.334545 
L 381.927273 -68.825455 
L 384.970909 -68.825455 
L 388.014545 -68.825455 
L 391.058182 -68.825455 
L 394.101818 -68.825455 
L 397.145455 -68.825455 
L 400.189091 -68.825455 
L 403.232727 -68.825455 
L 406.276364 -68.825455 
L 409.32 -68.825455 
L 412.363636 -68.825455 
L 415.407273 -68.825455 
L 418.450909 -68.825455 
L 421.494545 -68.825455 
L 424.538182 -68.825455 
L 427.581818 -68.825455 
L 430.625455 -68.825455 
L 433.669091 -68.825455 
L 436.712727 -68.825455 
L 439.756364 -68.825455 
L 442.8 -68.825455 
L 445.843636 -68.825455 
L 448.887273 -68.825455 
L 451.930909 -68.825455 
L 454.974545 -68.825455 
L 458.018182 -68.825455 
L 461.061818 -68.825455 
L 464.105455 -68.825455 
L 467.149091 -68.825455 
L 470.192727 -68.825455 
L 473.236364 -68.825455 
L 476.28 -68.825455 
L 479.323636 -68.825455 
L 482.367273 -68.825455 
L 485.410909 -68.825455 
L 488.454545 -68.825455 
L 491.498182 -68.825455 
L 494.541818 -68.825455 
L 497.585455 -68.825455 
L 500.629091 -68.825455 
L 503.672727 -68.825455 
L 503.672727 -365.334545 
L 503.672727 -365.334545 
L 500.629091 -365.334545 
L 497.585455 -365.334545 
L 494.541818 -365.334545 
L 491.498182 -365.334545 
L 488.454545 -365.334545 
L 485.410909 -365.334545 
L 482.367273 -365.334545 
L 479.323636 -365.334545 
L 476.28 -365.334545 
L 473.236364 -365.334545 
L 470.192727 -365.334545 
L 467.149091 -365.334545 
L 464.105455 -365.334545 
L 461.061818 -365.334545 
L 458.018182 -365.334545 
L 454.974545 -365.334545 
L 451.930909 -365.334545 
L 448.887273 -365.334545 
L 445.843636 -365.334545 
L 442.8 -365.334545 
L 439.756364 -365.334545 
L 436.712727 -365.334545 
L 433.669091 -365.334545 
L 430.625455 -365.334545 
L 427.581818 -365.334545 
L 424.538182 -365.334545 
L 421.494545 -365.334545 
L 418.450909 -365.334545 
L 415.407273 -365.334545 
L 412.363636 -365.334545 
L 409.32 -365.334545 
L 406.276364 -365.334545 
L 403.232727 -365.334545 
L 400.189091 -365.334545 
L 397.145455 -365.334545 
L 394.101818 -365.334545 
L 391.058182 -365.334545 
L 388.014545 -365.334545 
L 384.970909 -365.334545 
L 381.927273 -365.334545 
z
" style="stroke: #ffd700; stroke-opacity: 0.2; stroke-width: 1.5"/>
    </defs>
    <g clip-path="url(#p42fe3235b7)">
     <use xlink:href="#m9bd3976bad" x="0" y="432" style="fill: #ffd700; fill-opacity: 0.2; stroke: #ffd700; stroke-opacity: 0.2; stroke-width: 1.5"/>
    </g>
   </g>
   <g id="PolyCollection_5">
    <defs>
     <path id="ma2326a3c4f" d="M 503.672727 -365.334545 
L 503.672727 -68.825455 
L 506.716364 -68.825455 
L 509.76 -68.825455 
L 512.803636 -68.825455 
L 515.847273 -68.825455 
L 518.890909 -68.825455 
L 521.934545 -68.825455 
L 524.978182 -68.825455 
L 528.021818 -68.825455 
L 531.065455 -68.825455 
L 534.109091 -68.825455 
L 537.152727 -68.825455 
L 540.196364 -68.825455 
L 543.24 -68.825455 
L 546.283636 -68.825455 
L 549.327273 -68.825455 
L 552.370909 -68.825455 
L 555.414545 -68.825455 
L 558.458182 -68.825455 
L 561.501818 -68.825455 
L 564.545455 -68.825455 
L 567.589091 -68.825455 
L 570.632727 -68.825455 
L 573.676364 -68.825455 
L 576.72 -68.825455 
L 579.763636 -68.825455 
L 582.807273 -68.825455 
L 585.850909 -68.825455 
L 588.894545 -68.825455 
L 591.938182 -68.825455 
L 594.981818 -68.825455 
L 598.025455 -68.825455 
L 601.069091 -68.825455 
L 604.112727 -68.825455 
L 607.156364 -68.825455 
L 610.2 -68.825455 
L 613.243636 -68.825455 
L 616.287273 -68.825455 
L 619.330909 -68.825455 
L 622.374545 -68.825455 
L 625.418182 -68.825455 
L 625.418182 -365.334545 
L 625.418182 -365.334545 
L 622.374545 -365.334545 
L 619.330909 -365.334545 
L 616.287273 -365.334545 
L 613.243636 -365.334545 
L 610.2 -365.334545 
L 607.156364 -365.334545 
L 604.112727 -365.334545 
L 601.069091 -365.334545 
L 598.025455 -365.334545 
L 594.981818 -365.334545 
L 591.938182 -365.334545 
L 588.894545 -365.334545 
L 585.850909 -365.334545 
L 582.807273 -365.334545 
L 579.763636 -365.334545 
L 576.72 -365.334545 
L 573.676364 -365.334545 
L 570.632727 -365.334545 
L 567.589091 -365.334545 
L 564.545455 -365.334545 
L 561.501818 -365.334545 
L 558.458182 -365.334545 
L 555.414545 -365.334545 
L 552.370909 -365.334545 
L 549.327273 -365.334545 
L 546.283636 -365.334545 
L 543.24 -365.334545 
L 540.196364 -365.334545 
L 537.152727 -365.334545 
L 534.109091 -365.334545 
L 531.065455 -365.334545 
L 528.021818 -365.334545 
L 524.978182 -365.334545 
L 521.934545 -365.334545 
L 518.890909 -365.334545 
L 515.847273 -365.334545 
L 512.803636 -365.334545 
L 509.76 -365.334545 
L 506.716364 -365.334545 
L 503.672727 -365.334545 
z
" style="stroke: #ffd700; stroke-opacity: 0.2; stroke-width: 1.5"/>
    </defs>
    <g clip-path="url(#p42fe3235b7)">
     <use xlink:href="#ma2326a3c4f" x="0" y="432" style="fill: #ffd700; fill-opacity: 0.2; stroke: #ffd700; stroke-opacity: 0.2; stroke-width: 1.5"/>
    </g>
   </g>
   <g id="PolyCollection_6">
    <defs>
     <path id="m7da3e3af86" d="M 625.418182 -365.334545 
L 625.418182 -68.825455 
L 628.461818 -68.825455 
L 631.505455 -68.825455 
L 634.549091 -68.825455 
L 637.592727 -68.825455 
L 640.636364 -68.825455 
L 643.68 -68.825455 
L 646.723636 -68.825455 
L 649.767273 -68.825455 
L 652.810909 -68.825455 
L 655.854545 -68.825455 
L 658.898182 -68.825455 
L 661.941818 -68.825455 
L 664.985455 -68.825455 
L 668.029091 -68.825455 
L 671.072727 -68.825455 
L 674.116364 -68.825455 
L 677.16 -68.825455 
L 680.203636 -68.825455 
L 683.247273 -68.825455 
L 686.290909 -68.825455 
L 689.334545 -68.825455 
L 692.378182 -68.825455 
L 695.421818 -68.825455 
L 698.465455 -68.825455 
L 701.509091 -68.825455 
L 704.552727 -68.825455 
L 707.596364 -68.825455 
L 710.64 -68.825455 
L 713.683636 -68.825455 
L 716.727273 -68.825455 
L 719.770909 -68.825455 
L 722.814545 -68.825455 
L 725.858182 -68.825455 
L 728.901818 -68.825455 
L 731.945455 -68.825455 
L 734.989091 -68.825455 
L 738.032727 -68.825455 
L 741.076364 -68.825455 
L 744.12 -68.825455 
L 747.163636 -68.825455 
L 747.163636 -365.334545 
L 747.163636 -365.334545 
L 744.12 -365.334545 
L 741.076364 -365.334545 
L 738.032727 -365.334545 
L 734.989091 -365.334545 
L 731.945455 -365.334545 
L 728.901818 -365.334545 
L 725.858182 -365.334545 
L 722.814545 -365.334545 
L 719.770909 -365.334545 
L 716.727273 -365.334545 
L 713.683636 -365.334545 
L 710.64 -365.334545 
L 707.596364 -365.334545 
L 704.552727 -365.334545 
L 701.509091 -365.334545 
L 698.465455 -365.334545 
L 695.421818 -365.334545 
L 692.378182 -365.334545 
L 689.334545 -365.334545 
L 686.290909 -365.334545 
L 683.247273 -365.334545 
L 680.203636 -365.334545 
L 677.16 -365.334545 
L 674.116364 -365.334545 
L 671.072727 -365.334545 
L 668.029091 -365.334545 
L 664.985455 -365.334545 
L 661.941818 -365.334545 
L 658.898182 -365.334545 
L 655.854545 -365.334545 
L 652.810909 -365.334545 
L 649.767273 -365.334545 
L 646.723636 -365.334545 
L 643.68 -365.334545 
L 640.636364 -365.334545 
L 637.592727 -365.334545 
L 634.549091 -365.334545 
L 631.505455 -365.334545 
L 628.461818 -365.334545 
L 625.418182 -365.334545 
z
" style="stroke: #ff0000; stroke-opacity: 0.2; stroke-width: 1.5"/>
    </defs>
    <g clip-path="url(#p42fe3235b7)">
     <use xlink:href="#m7da3e3af86" x="0" y="432" style="fill: #ff0000; fill-opacity: 0.2; stroke: #ff0000; stroke-opacity: 0.2; stroke-width: 1.5"/>
    </g>
   </g>
   <g id="matplotlib.axis_1">
    <g id="xtick_1">
     <g id="line2d_1">
      <defs>
       <path id="m28aa52539c" d="M 0 0 
L 0 9 
" style="stroke: #000000; stroke-width: 1.875"/>
      </defs>
      <g>
       <use xlink:href="#m28aa52539c" x="138.436364" y="378" style="stroke: #000000; stroke-width: 1.875"/>
      </g>
     </g>
     <g id="text_1">
      <!-- 0 -->
      <g transform="translate(133.187301 403.037422)scale(0.165 -0.165)">
       <defs>
        <path id="DejaVuSans-30" d="M 2034 4250 
Q 1547 4250 1301 3770 
Q 1056 3291 1056 2328 
Q 1056 1369 1301 889 
Q 1547 409 2034 409 
Q 2525 409 2770 889 
Q 3016 1369 3016 2328 
Q 3016 3291 2770 3770 
Q 2525 4250 2034 4250 
z
M 2034 4750 
Q 2819 4750 3233 4129 
Q 3647 3509 3647 2328 
Q 3647 1150 3233 529 
Q 2819 -91 2034 -91 
Q 1250 -91 836 529 
Q 422 1150 422 2328 
Q 422 3509 836 4129 
Q 1250 4750 2034 4750 
z
" transform="scale(0.015625)"/>
       </defs>
       <use xlink:href="#DejaVuSans-30"/>
      </g>
     </g>
    </g>
    <g id="xtick_2">
     <g id="line2d_2">
      <g>
       <use xlink:href="#m28aa52539c" x="214.527273" y="378" style="stroke: #000000; stroke-width: 1.875"/>
      </g>
     </g>
     <g id="text_2">
      <!-- 25 -->
      <g transform="translate(204.029148 403.037422)scale(0.165 -0.165)">
       <defs>
        <path id="DejaVuSans-32" d="M 1228 531 
L 3431 531 
L 3431 0 
L 469 0 
L 469 531 
Q 828 903 1448 1529 
Q 2069 2156 2228 2338 
Q 2531 2678 2651 2914 
Q 2772 3150 2772 3378 
Q 2772 3750 2511 3984 
Q 2250 4219 1831 4219 
Q 1534 4219 1204 4116 
Q 875 4013 500 3803 
L 500 4441 
Q 881 4594 1212 4672 
Q 1544 4750 1819 4750 
Q 2544 4750 2975 4387 
Q 3406 4025 3406 3419 
Q 3406 3131 3298 2873 
Q 3191 2616 2906 2266 
Q 2828 2175 2409 1742 
Q 1991 1309 1228 531 
z
" transform="scale(0.015625)"/>
        <path id="DejaVuSans-35" d="M 691 4666 
L 3169 4666 
L 3169 4134 
L 1269 4134 
L 1269 2991 
Q 1406 3038 1543 3061 
Q 1681 3084 1819 3084 
Q 2600 3084 3056 2656 
Q 3513 2228 3513 1497 
Q 3513 744 3044 326 
Q 2575 -91 1722 -91 
Q 1428 -91 1123 -41 
Q 819 9 494 109 
L 494 744 
Q 775 591 1075 516 
Q 1375 441 1709 441 
Q 2250 441 2565 725 
Q 2881 1009 2881 1497 
Q 2881 1984 2565 2268 
Q 2250 2553 1709 2553 
Q 1456 2553 1204 2497 
Q 953 2441 691 2322 
L 691 4666 
z
" transform="scale(0.015625)"/>
       </defs>
       <use xlink:href="#DejaVuSans-32"/>
       <use xlink:href="#DejaVuSans-35" x="63.623047"/>
      </g>
     </g>
    </g>
    <g id="xtick_3">
     <g id="line2d_3">
      <g>
       <use xlink:href="#m28aa52539c" x="290.618182" y="378" style="stroke: #000000; stroke-width: 1.875"/>
      </g>
     </g>
     <g id="text_3">
      <!-- 50 -->
      <g transform="translate(280.120057 403.037422)scale(0.165 -0.165)">
       <use xlink:href="#DejaVuSans-35"/>
       <use xlink:href="#DejaVuSans-30" x="63.623047"/>
      </g>
     </g>
    </g>
    <g id="xtick_4">
     <g id="line2d_4">
      <g>
       <use xlink:href="#m28aa52539c" x="366.709091" y="378" style="stroke: #000000; stroke-width: 1.875"/>
      </g>
     </g>
     <g id="text_4">
      <!-- 75 -->
      <g transform="translate(356.210966 403.037422)scale(0.165 -0.165)">
       <defs>
        <path id="DejaVuSans-37" d="M 525 4666 
L 3525 4666 
L 3525 4397 
L 1831 0 
L 1172 0 
L 2766 4134 
L 525 4134 
L 525 4666 
z
" transform="scale(0.015625)"/>
       </defs>
       <use xlink:href="#DejaVuSans-37"/>
       <use xlink:href="#DejaVuSans-35" x="63.623047"/>
      </g>
     </g>
    </g>
    <g id="xtick_5">
     <g id="line2d_5">
      <g>
       <use xlink:href="#m28aa52539c" x="442.8" y="378" style="stroke: #000000; stroke-width: 1.875"/>
      </g>
     </g>
     <g id="text_5">
      <!-- 100 -->
      <g transform="translate(427.052813 403.037422)scale(0.165 -0.165)">
       <defs>
        <path id="DejaVuSans-31" d="M 794 531 
L 1825 531 
L 1825 4091 
L 703 3866 
L 703 4441 
L 1819 4666 
L 2450 4666 
L 2450 531 
L 3481 531 
L 3481 0 
L 794 0 
L 794 531 
z
" transform="scale(0.015625)"/>
       </defs>
       <use xlink:href="#DejaVuSans-31"/>
       <use xlink:href="#DejaVuSans-30" x="63.623047"/>
       <use xlink:href="#DejaVuSans-30" x="127.246094"/>
      </g>
     </g>
    </g>
    <g id="xtick_6">
     <g id="line2d_6">
      <g>
       <use xlink:href="#m28aa52539c" x="518.890909" y="378" style="stroke: #000000; stroke-width: 1.875"/>
      </g>
     </g>
     <g id="text_6">
      <!-- 125 -->
      <g transform="translate(503.143722 403.037422)scale(0.165 -0.165)">
       <use xlink:href="#DejaVuSans-31"/>
       <use xlink:href="#DejaVuSans-32" x="63.623047"/>
       <use xlink:href="#DejaVuSans-35" x="127.246094"/>
      </g>
     </g>
    </g>
    <g id="xtick_7">
     <g id="line2d_7">
      <g>
       <use xlink:href="#m28aa52539c" x="594.981818" y="378" style="stroke: #000000; stroke-width: 1.875"/>
      </g>
     </g>
     <g id="text_7">
      <!-- 150 -->
      <g transform="translate(579.234631 403.037422)scale(0.165 -0.165)">
       <use xlink:href="#DejaVuSans-31"/>
       <use xlink:href="#DejaVuSans-35" x="63.623047"/>
       <use xlink:href="#DejaVuSans-30" x="127.246094"/>
      </g>
     </g>
    </g>
    <g id="xtick_8">
     <g id="line2d_8">
      <g>
       <use xlink:href="#m28aa52539c" x="671.072727" y="378" style="stroke: #000000; stroke-width: 1.875"/>
      </g>
     </g>
     <g id="text_8">
      <!-- 175 -->
      <g transform="translate(655.32554 403.037422)scale(0.165 -0.165)">
       <use xlink:href="#DejaVuSans-31"/>
       <use xlink:href="#DejaVuSans-37" x="63.623047"/>
       <use xlink:href="#DejaVuSans-35" x="127.246094"/>
      </g>
     </g>
    </g>
    <g id="xtick_9">
     <g id="line2d_9">
      <g>
       <use xlink:href="#m28aa52539c" x="747.163636" y="378" style="stroke: #000000; stroke-width: 1.875"/>
      </g>
     </g>
     <g id="text_9">
      <!-- 200 -->
      <g transform="translate(731.416449 403.037422)scale(0.165 -0.165)">
       <use xlink:href="#DejaVuSans-32"/>
       <use xlink:href="#DejaVuSans-30" x="63.623047"/>
       <use xlink:href="#DejaVuSans-30" x="127.246094"/>
      </g>
     </g>
    </g>
    <g id="text_10">
     <!-- trial -->
     <g transform="translate(425.055938 424.146094)scale(0.18 -0.18)">
      <defs>
       <path id="DejaVuSans-74" d="M 1172 4494 
L 1172 3500 
L 2356 3500 
L 2356 3053 
L 1172 3053 
L 1172 1153 
Q 1172 725 1289 603 
Q 1406 481 1766 481 
L 2356 481 
L 2356 0 
L 1766 0 
Q 1100 0 847 248 
Q 594 497 594 1153 
L 594 3053 
L 172 3053 
L 172 3500 
L 594 3500 
L 594 4494 
L 1172 4494 
z
" transform="scale(0.015625)"/>
       <path id="DejaVuSans-72" d="M 2631 2963 
Q 2534 3019 2420 3045 
Q 2306 3072 2169 3072 
Q 1681 3072 1420 2755 
Q 1159 2438 1159 1844 
L 1159 0 
L 581 0 
L 581 3500 
L 1159 3500 
L 1159 2956 
Q 1341 3275 1631 3429 
Q 1922 3584 2338 3584 
Q 2397 3584 2469 3576 
Q 2541 3569 2628 3553 
L 2631 2963 
z
" transform="scale(0.015625)"/>
       <path id="DejaVuSans-69" d="M 603 3500 
L 1178 3500 
L 1178 0 
L 603 0 
L 603 3500 
z
M 603 4863 
L 1178 4863 
L 1178 4134 
L 603 4134 
L 603 4863 
z
" transform="scale(0.015625)"/>
       <path id="DejaVuSans-61" d="M 2194 1759 
Q 1497 1759 1228 1600 
Q 959 1441 959 1056 
Q 959 750 1161 570 
Q 1363 391 1709 391 
Q 2188 391 2477 730 
Q 2766 1069 2766 1631 
L 2766 1759 
L 2194 1759 
z
M 3341 1997 
L 3341 0 
L 2766 0 
L 2766 531 
Q 2569 213 2275 61 
Q 1981 -91 1556 -91 
Q 1019 -91 701 211 
Q 384 513 384 1019 
Q 384 1609 779 1909 
Q 1175 2209 1959 2209 
L 2766 2209 
L 2766 2266 
Q 2766 2663 2505 2880 
Q 2244 3097 1772 3097 
Q 1472 3097 1187 3025 
Q 903 2953 641 2809 
L 641 3341 
Q 956 3463 1253 3523 
Q 1550 3584 1831 3584 
Q 2591 3584 2966 3190 
Q 3341 2797 3341 1997 
z
" transform="scale(0.015625)"/>
       <path id="DejaVuSans-6c" d="M 603 4863 
L 1178 4863 
L 1178 0 
L 603 0 
L 603 4863 
z
" transform="scale(0.015625)"/>
      </defs>
      <use xlink:href="#DejaVuSans-74"/>
      <use xlink:href="#DejaVuSans-72" x="39.208984"/>
      <use xlink:href="#DejaVuSans-69" x="80.322266"/>
      <use xlink:href="#DejaVuSans-61" x="108.105469"/>
      <use xlink:href="#DejaVuSans-6c" x="169.384766"/>
     </g>
    </g>
   </g>
   <g id="matplotlib.axis_2">
    <g id="ytick_1">
     <g id="line2d_10">
      <defs>
       <path id="mb78cc35d20" d="M 0 0 
L -9 0 
" style="stroke: #000000; stroke-width: 1.875"/>
      </defs>
      <g>
       <use xlink:href="#mb78cc35d20" x="108" y="363.174545" style="stroke: #000000; stroke-width: 1.875"/>
      </g>
     </g>
     <g id="text_11">
      <!-- 0.0 -->
      <g transform="translate(69.259844 369.443256)scale(0.165 -0.165)">
       <defs>
        <path id="DejaVuSans-2e" d="M 684 794 
L 1344 794 
L 1344 0 
L 684 0 
L 684 794 
z
" transform="scale(0.015625)"/>
       </defs>
       <use xlink:href="#DejaVuSans-30"/>
       <use xlink:href="#DejaVuSans-2e" x="63.623047"/>
       <use xlink:href="#DejaVuSans-30" x="95.410156"/>
      </g>
     </g>
    </g>
    <g id="ytick_2">
     <g id="line2d_11">
      <g>
       <use xlink:href="#mb78cc35d20" x="108" y="306.696623" style="stroke: #000000; stroke-width: 1.875"/>
      </g>
     </g>
     <g id="text_12">
      <!-- 0.2 -->
      <g transform="translate(69.259844 312.965334)scale(0.165 -0.165)">
       <use xlink:href="#DejaVuSans-30"/>
       <use xlink:href="#DejaVuSans-2e" x="63.623047"/>
       <use xlink:href="#DejaVuSans-32" x="95.410156"/>
      </g>
     </g>
    </g>
    <g id="ytick_3">
     <g id="line2d_12">
      <g>
       <use xlink:href="#mb78cc35d20" x="108" y="250.218701" style="stroke: #000000; stroke-width: 1.875"/>
      </g>
     </g>
     <g id="text_13">
      <!-- 0.4 -->
      <g transform="translate(69.259844 256.487412)scale(0.165 -0.165)">
       <defs>
        <path id="DejaVuSans-34" d="M 2419 4116 
L 825 1625 
L 2419 1625 
L 2419 4116 
z
M 2253 4666 
L 3047 4666 
L 3047 1625 
L 3713 1625 
L 3713 1100 
L 3047 1100 
L 3047 0 
L 2419 0 
L 2419 1100 
L 313 1100 
L 313 1709 
L 2253 4666 
z
" transform="scale(0.015625)"/>
       </defs>
       <use xlink:href="#DejaVuSans-30"/>
       <use xlink:href="#DejaVuSans-2e" x="63.623047"/>
       <use xlink:href="#DejaVuSans-34" x="95.410156"/>
      </g>
     </g>
    </g>
    <g id="ytick_4">
     <g id="line2d_13">
      <g>
       <use xlink:href="#mb78cc35d20" x="108" y="193.740779" style="stroke: #000000; stroke-width: 1.875"/>
      </g>
     </g>
     <g id="text_14">
      <!-- 0.6 -->
      <g transform="translate(69.259844 200.00949)scale(0.165 -0.165)">
       <defs>
        <path id="DejaVuSans-36" d="M 2113 2584 
Q 1688 2584 1439 2293 
Q 1191 2003 1191 1497 
Q 1191 994 1439 701 
Q 1688 409 2113 409 
Q 2538 409 2786 701 
Q 3034 994 3034 1497 
Q 3034 2003 2786 2293 
Q 2538 2584 2113 2584 
z
M 3366 4563 
L 3366 3988 
Q 3128 4100 2886 4159 
Q 2644 4219 2406 4219 
Q 1781 4219 1451 3797 
Q 1122 3375 1075 2522 
Q 1259 2794 1537 2939 
Q 1816 3084 2150 3084 
Q 2853 3084 3261 2657 
Q 3669 2231 3669 1497 
Q 3669 778 3244 343 
Q 2819 -91 2113 -91 
Q 1303 -91 875 529 
Q 447 1150 447 2328 
Q 447 3434 972 4092 
Q 1497 4750 2381 4750 
Q 2619 4750 2861 4703 
Q 3103 4656 3366 4563 
z
" transform="scale(0.015625)"/>
       </defs>
       <use xlink:href="#DejaVuSans-30"/>
       <use xlink:href="#DejaVuSans-2e" x="63.623047"/>
       <use xlink:href="#DejaVuSans-36" x="95.410156"/>
      </g>
     </g>
    </g>
    <g id="ytick_5">
     <g id="line2d_14">
      <g>
       <use xlink:href="#mb78cc35d20" x="108" y="137.262857" style="stroke: #000000; stroke-width: 1.875"/>
      </g>
     </g>
     <g id="text_15">
      <!-- 0.8 -->
      <g transform="translate(69.259844 143.531568)scale(0.165 -0.165)">
       <defs>
        <path id="DejaVuSans-38" d="M 2034 2216 
Q 1584 2216 1326 1975 
Q 1069 1734 1069 1313 
Q 1069 891 1326 650 
Q 1584 409 2034 409 
Q 2484 409 2743 651 
Q 3003 894 3003 1313 
Q 3003 1734 2745 1975 
Q 2488 2216 2034 2216 
z
M 1403 2484 
Q 997 2584 770 2862 
Q 544 3141 544 3541 
Q 544 4100 942 4425 
Q 1341 4750 2034 4750 
Q 2731 4750 3128 4425 
Q 3525 4100 3525 3541 
Q 3525 3141 3298 2862 
Q 3072 2584 2669 2484 
Q 3125 2378 3379 2068 
Q 3634 1759 3634 1313 
Q 3634 634 3220 271 
Q 2806 -91 2034 -91 
Q 1263 -91 848 271 
Q 434 634 434 1313 
Q 434 1759 690 2068 
Q 947 2378 1403 2484 
z
M 1172 3481 
Q 1172 3119 1398 2916 
Q 1625 2713 2034 2713 
Q 2441 2713 2670 2916 
Q 2900 3119 2900 3481 
Q 2900 3844 2670 4047 
Q 2441 4250 2034 4250 
Q 1625 4250 1398 4047 
Q 1172 3844 1172 3481 
z
" transform="scale(0.015625)"/>
       </defs>
       <use xlink:href="#DejaVuSans-30"/>
       <use xlink:href="#DejaVuSans-2e" x="63.623047"/>
       <use xlink:href="#DejaVuSans-38" x="95.410156"/>
      </g>
     </g>
    </g>
    <g id="ytick_6">
     <g id="line2d_15">
      <g>
       <use xlink:href="#mb78cc35d20" x="108" y="80.784935" style="stroke: #000000; stroke-width: 1.875"/>
      </g>
     </g>
     <g id="text_16">
      <!-- 1.0 -->
      <g transform="translate(69.259844 87.053646)scale(0.165 -0.165)">
       <use xlink:href="#DejaVuSans-31"/>
       <use xlink:href="#DejaVuSans-2e" x="63.623047"/>
       <use xlink:href="#DejaVuSans-30" x="95.410156"/>
      </g>
     </g>
    </g>
    <g id="text_17">
     <!-- prediction accuracy -->
     <g transform="translate(61.516406 303.537656)rotate(-90)scale(0.18 -0.18)">
      <defs>
       <path id="DejaVuSans-70" d="M 1159 525 
L 1159 -1331 
L 581 -1331 
L 581 3500 
L 1159 3500 
L 1159 2969 
Q 1341 3281 1617 3432 
Q 1894 3584 2278 3584 
Q 2916 3584 3314 3078 
Q 3713 2572 3713 1747 
Q 3713 922 3314 415 
Q 2916 -91 2278 -91 
Q 1894 -91 1617 61 
Q 1341 213 1159 525 
z
M 3116 1747 
Q 3116 2381 2855 2742 
Q 2594 3103 2138 3103 
Q 1681 3103 1420 2742 
Q 1159 2381 1159 1747 
Q 1159 1113 1420 752 
Q 1681 391 2138 391 
Q 2594 391 2855 752 
Q 3116 1113 3116 1747 
z
" transform="scale(0.015625)"/>
       <path id="DejaVuSans-65" d="M 3597 1894 
L 3597 1613 
L 953 1613 
Q 991 1019 1311 708 
Q 1631 397 2203 397 
Q 2534 397 2845 478 
Q 3156 559 3463 722 
L 3463 178 
Q 3153 47 2828 -22 
Q 2503 -91 2169 -91 
Q 1331 -91 842 396 
Q 353 884 353 1716 
Q 353 2575 817 3079 
Q 1281 3584 2069 3584 
Q 2775 3584 3186 3129 
Q 3597 2675 3597 1894 
z
M 3022 2063 
Q 3016 2534 2758 2815 
Q 2500 3097 2075 3097 
Q 1594 3097 1305 2825 
Q 1016 2553 972 2059 
L 3022 2063 
z
" transform="scale(0.015625)"/>
       <path id="DejaVuSans-64" d="M 2906 2969 
L 2906 4863 
L 3481 4863 
L 3481 0 
L 2906 0 
L 2906 525 
Q 2725 213 2448 61 
Q 2172 -91 1784 -91 
Q 1150 -91 751 415 
Q 353 922 353 1747 
Q 353 2572 751 3078 
Q 1150 3584 1784 3584 
Q 2172 3584 2448 3432 
Q 2725 3281 2906 2969 
z
M 947 1747 
Q 947 1113 1208 752 
Q 1469 391 1925 391 
Q 2381 391 2643 752 
Q 2906 1113 2906 1747 
Q 2906 2381 2643 2742 
Q 2381 3103 1925 3103 
Q 1469 3103 1208 2742 
Q 947 2381 947 1747 
z
" transform="scale(0.015625)"/>
       <path id="DejaVuSans-63" d="M 3122 3366 
L 3122 2828 
Q 2878 2963 2633 3030 
Q 2388 3097 2138 3097 
Q 1578 3097 1268 2742 
Q 959 2388 959 1747 
Q 959 1106 1268 751 
Q 1578 397 2138 397 
Q 2388 397 2633 464 
Q 2878 531 3122 666 
L 3122 134 
Q 2881 22 2623 -34 
Q 2366 -91 2075 -91 
Q 1284 -91 818 406 
Q 353 903 353 1747 
Q 353 2603 823 3093 
Q 1294 3584 2113 3584 
Q 2378 3584 2631 3529 
Q 2884 3475 3122 3366 
z
" transform="scale(0.015625)"/>
       <path id="DejaVuSans-6f" d="M 1959 3097 
Q 1497 3097 1228 2736 
Q 959 2375 959 1747 
Q 959 1119 1226 758 
Q 1494 397 1959 397 
Q 2419 397 2687 759 
Q 2956 1122 2956 1747 
Q 2956 2369 2687 2733 
Q 2419 3097 1959 3097 
z
M 1959 3584 
Q 2709 3584 3137 3096 
Q 3566 2609 3566 1747 
Q 3566 888 3137 398 
Q 2709 -91 1959 -91 
Q 1206 -91 779 398 
Q 353 888 353 1747 
Q 353 2609 779 3096 
Q 1206 3584 1959 3584 
z
" transform="scale(0.015625)"/>
       <path id="DejaVuSans-6e" d="M 3513 2113 
L 3513 0 
L 2938 0 
L 2938 2094 
Q 2938 2591 2744 2837 
Q 2550 3084 2163 3084 
Q 1697 3084 1428 2787 
Q 1159 2491 1159 1978 
L 1159 0 
L 581 0 
L 581 3500 
L 1159 3500 
L 1159 2956 
Q 1366 3272 1645 3428 
Q 1925 3584 2291 3584 
Q 2894 3584 3203 3211 
Q 3513 2838 3513 2113 
z
" transform="scale(0.015625)"/>
       <path id="DejaVuSans-20" transform="scale(0.015625)"/>
       <path id="DejaVuSans-75" d="M 544 1381 
L 544 3500 
L 1119 3500 
L 1119 1403 
Q 1119 906 1312 657 
Q 1506 409 1894 409 
Q 2359 409 2629 706 
Q 2900 1003 2900 1516 
L 2900 3500 
L 3475 3500 
L 3475 0 
L 2900 0 
L 2900 538 
Q 2691 219 2414 64 
Q 2138 -91 1772 -91 
Q 1169 -91 856 284 
Q 544 659 544 1381 
z
M 1991 3584 
L 1991 3584 
z
" transform="scale(0.015625)"/>
       <path id="DejaVuSans-79" d="M 2059 -325 
Q 1816 -950 1584 -1140 
Q 1353 -1331 966 -1331 
L 506 -1331 
L 506 -850 
L 844 -850 
Q 1081 -850 1212 -737 
Q 1344 -625 1503 -206 
L 1606 56 
L 191 3500 
L 800 3500 
L 1894 763 
L 2988 3500 
L 3597 3500 
L 2059 -325 
z
" transform="scale(0.015625)"/>
      </defs>
      <use xlink:href="#DejaVuSans-70"/>
      <use xlink:href="#DejaVuSans-72" x="63.476562"/>
      <use xlink:href="#DejaVuSans-65" x="102.339844"/>
      <use xlink:href="#DejaVuSans-64" x="163.863281"/>
      <use xlink:href="#DejaVuSans-69" x="227.339844"/>
      <use xlink:href="#DejaVuSans-63" x="255.123047"/>
      <use xlink:href="#DejaVuSans-74" x="310.103516"/>
      <use xlink:href="#DejaVuSans-69" x="349.3125"/>
      <use xlink:href="#DejaVuSans-6f" x="377.095703"/>
      <use xlink:href="#DejaVuSans-6e" x="438.277344"/>
      <use xlink:href="#DejaVuSans-20" x="501.65625"/>
      <use xlink:href="#DejaVuSans-61" x="533.443359"/>
      <use xlink:href="#DejaVuSans-63" x="594.722656"/>
      <use xlink:href="#DejaVuSans-63" x="649.703125"/>
      <use xlink:href="#DejaVuSans-75" x="704.683594"/>
      <use xlink:href="#DejaVuSans-72" x="768.0625"/>
      <use xlink:href="#DejaVuSans-61" x="809.175781"/>
      <use xlink:href="#DejaVuSans-63" x="870.455078"/>
      <use xlink:href="#DejaVuSans-79" x="925.435547"/>
     </g>
    </g>
   </g>
   <g id="line2d_16">
    <path d="M 138.436364 178.836883 
L 141.48 266.35525 
L 144.523636 237.668052 
L 147.567273 212.308863 
L 150.610909 250.942777 
L 153.654545 256.061245 
L 156.698182 163.840703 
L 159.741818 254.860722 
L 162.785455 205.036364 
L 165.829091 199.685824 
L 168.872727 203.761056 
L 171.916364 229.411046 
L 174.96 224.087125 
L 178.003636 195.37782 
L 181.047273 205.777058 
L 184.090909 213.674163 
L 187.134545 232.211248 
L 190.178182 211.39013 
L 193.221818 212.870398 
L 196.265455 270.667604 
L 199.309091 178.00103 
L 202.352727 219.991081 
L 205.396364 220.045565 
L 208.44 260.487414 
L 211.483636 171.553024 
L 214.527273 225.901818 
L 217.570909 216.331948 
L 220.614545 205.843191 
L 223.658182 206.291429 
L 226.701818 245.512208 
L 229.745455 196.83546 
L 232.789091 258.585801 
L 235.832727 206.291429 
L 238.876364 214.347589 
L 241.92 210.406396 
L 244.963636 217.945603 
L 248.007273 233.126699 
L 251.050909 180.707413 
L 254.094545 202.42969 
L 257.138182 196.307957 
L 260.181818 205.476451 
L 263.225455 228.301896 
L 266.269091 210.213506 
L 269.312727 197.774917 
L 272.356364 218.264087 
L 275.4 199.318846 
L 278.443636 163.840703 
L 281.487273 244.489057 
L 284.530909 190.603117 
L 287.574545 211.118601 
L 290.618182 199.685824 
L 293.661818 180.872392 
L 296.705455 205.476451 
L 299.749091 209.877328 
L 302.792727 224.220928 
L 305.836364 204.865218 
L 308.88 200.104489 
L 311.923636 219.991081 
L 314.967273 235.216753 
L 318.010909 221.97974 
L 321.054545 210.213506 
L 324.098182 193.740779 
L 327.141818 217.567403 
L 330.185455 217.70111 
L 333.229091 190.603117 
L 336.272727 218.264087 
L 339.316364 214.135584 
L 342.36 230.285317 
L 345.403636 181.296491 
L 348.447273 184.327792 
L 351.490909 221.97974 
L 354.534545 184.446944 
L 357.578182 198.141656 
L 360.621818 239.629091 
L 363.665455 205.843191 
L 366.709091 224.151968 
L 369.752727 216.177214 
L 372.796364 210.213506 
L 375.84 206.715437 
L 378.883636 210.014079 
L 381.927273 212.036444 
L 384.970909 231.923036 
L 388.014545 192.149852 
L 391.058182 192.254518 
L 394.101818 172.26326 
L 397.145455 156.650801 
L 400.189091 221.97974 
L 403.232727 214.347589 
L 406.276364 212.566753 
L 409.32 225.795816 
L 412.363636 201.215798 
L 415.407273 171.878358 
L 418.450909 212.811246 
L 421.494545 215.463057 
L 424.538182 183.818982 
L 427.581818 199.918052 
L 430.625455 176.240578 
L 433.669091 188.538865 
L 436.712727 176.299068 
L 439.756364 238.731666 
L 442.8 200.586588 
L 445.843636 269.044675 
L 448.887273 233.427968 
L 451.930909 217.826952 
L 454.974545 186.681039 
L 458.018182 196.12717 
L 461.061818 197.06301 
L 464.105455 193.740779 
L 467.149091 226.013878 
L 470.192727 176.137271 
L 473.236364 224.294409 
L 476.28 201.809054 
L 479.323636 215.657585 
L 482.367273 204.33039 
L 485.410909 201.809054 
L 488.454545 190.097042 
L 491.498182 203.013274 
L 494.541818 233.745974 
L 497.585455 208.059126 
L 500.629091 184.823213 
L 503.672727 210.531513 
L 506.716364 225.901818 
L 509.76 212.036444 
L 512.803636 182.758961 
L 515.847273 226.013878 
L 518.890909 174.914805 
L 521.934545 191.596048 
L 524.978182 223.913916 
L 528.021818 205.843191 
L 531.065455 242.743682 
L 534.109091 199.083285 
L 537.152727 274.927792 
L 540.196364 203.761056 
L 543.24 194.474259 
L 546.283636 203.153766 
L 549.327273 213.155065 
L 552.370909 214.135584 
L 555.414545 223.968399 
L 558.458182 178.836883 
L 561.501818 227.341568 
L 564.545455 219.991081 
L 567.589091 190.097042 
L 570.632727 214.548435 
L 573.676364 190.86902 
L 576.72 221.97974 
L 579.763636 204.081807 
L 582.807273 206.774146 
L 585.850909 208.440512 
L 588.894545 200.586588 
L 591.938182 211.894397 
L 594.981818 169.295111 
L 598.025455 207.117129 
L 601.069091 231.089083 
L 604.112727 184.327792 
L 607.156364 176.433029 
L 610.2 234.082152 
L 613.243636 227.480837 
L 616.287273 186.21039 
L 619.330909 160.969639 
L 622.374545 206.715437 
L 625.418182 213.422479 
L 628.461818 204.33039 
L 631.505455 209.521375 
L 634.549091 215.463057 
L 637.592727 223.968399 
L 640.636364 183.472066 
L 643.68 215.463057 
L 646.723636 205.036364 
L 649.767273 228.118645 
L 652.810909 221.97974 
L 655.854545 234.082152 
L 658.898182 216.013763 
L 661.941818 183.472066 
L 664.985455 245.214328 
L 668.029091 191.285217 
L 671.072727 200.703811 
L 674.116364 184.098207 
L 677.16 213.987581 
L 680.203636 188.172533 
L 683.247273 203.761056 
L 686.290909 233.427968 
L 689.334545 228.301896 
L 692.378182 196.518382 
L 695.421818 215.840836 
L 698.465455 210.773803 
L 701.509091 197.06301 
L 704.552727 215.657585 
L 707.596364 194.583733 
L 710.64 189.034286 
L 713.683636 196.83546 
L 716.727273 171.878358 
L 719.770909 253.09046 
L 722.814545 213.422479 
L 725.858182 202.369351 
L 728.901818 161.467681 
L 731.945455 205.368587 
L 734.989091 156.353986 
L 738.032727 177.493706 
L 741.076364 238.116289 
L 744.12 201.14772 
L 744.12 201.14772 
" clip-path="url(#p42fe3235b7)" style="fill: none; stroke: #008000; stroke-width: 2.25; stroke-linecap: square"/>
   </g>
   <g id="line2d_17">
    <path d="M 108 221.97974 
L 777.6 221.97974 
" clip-path="url(#p42fe3235b7)" style="fill: none; stroke: #000000; stroke-width: 2.25; stroke-linecap: square"/>
   </g>
   <g id="patch_3">
    <path d="M 108 378 
L 108 51.84 
" style="fill: none; stroke: #000000; stroke-width: 1.875; stroke-linejoin: miter; stroke-linecap: square"/>
   </g>
   <g id="patch_4">
    <path d="M 777.6 378 
L 777.6 51.84 
" style="fill: none; stroke: #000000; stroke-width: 1.875; stroke-linejoin: miter; stroke-linecap: square"/>
   </g>
   <g id="patch_5">
    <path d="M 108 378 
L 777.6 378 
" style="fill: none; stroke: #000000; stroke-width: 1.875; stroke-linejoin: miter; stroke-linecap: square"/>
   </g>
   <g id="patch_6">
    <path d="M 108 51.84 
L 777.6 51.84 
" style="fill: none; stroke: #000000; stroke-width: 1.875; stroke-linejoin: miter; stroke-linecap: square"/>
   </g>
  </g>
 </g>
 <defs>
  <clipPath id="p42fe3235b7">
   <rect x="108" y="51.84" width="669.6" height="326.16"/>
  </clipPath>
 </defs>
</svg>
