<?xml version="1.0" encoding="utf-8" standalone="no"?>
<!DOCTYPE svg PUBLIC "-//W3C//DTD SVG 1.1//EN"
  "http://www.w3.org/Graphics/SVG/1.1/DTD/svg11.dtd">
<svg xmlns:xlink="http://www.w3.org/1999/xlink" width="864pt" height="432pt" viewBox="0 0 864 432" xmlns="http://www.w3.org/2000/svg" version="1.1">
 <metadata>
  <rdf:RDF xmlns:dc="http://purl.org/dc/elements/1.1/" xmlns:cc="http://creativecommons.org/ns#" xmlns:rdf="http://www.w3.org/1999/02/22-rdf-syntax-ns#">
   <cc:Work>
    <dc:type rdf:resource="http://purl.org/dc/dcmitype/StillImage"/>
    <dc:date>2023-05-02T17:27:19.837683</dc:date>
    <dc:format>image/svg+xml</dc:format>
    <dc:creator>
     <cc:Agent>
      <dc:title>Matplotlib v3.5.1, https://matplotlib.org/</dc:title>
     </cc:Agent>
    </dc:creator>
   </cc:Work>
  </rdf:RDF>
 </metadata>
 <defs>
  <style type="text/css">*{stroke-linejoin: round; stroke-linecap: butt}</style>
 </defs>
 <g id="figure_1">
  <g id="patch_1">
   <path d="M 0 432 
L 864 432 
L 864 0 
L 0 0 
L 0 432 
z
" style="fill: none"/>
  </g>
  <g id="axes_1">
   <g id="patch_2">
    <path d="M 108 378 
L 777.6 378 
L 777.6 51.84 
L 108 51.84 
z
" style="fill: #ffffff"/>
   </g>
   <g id="PolyCollection_1">
    <defs>
     <path id="mbced0563fd" d="M 138.436364 -239.354698 
L 138.436364 -171.069969 
L 141.48 -261.177798 
L 144.523636 -266.049944 
L 147.567273 -255.700932 
L 150.610909 -257.085195 
L 153.654545 -268.937001 
L 156.698182 -271.792987 
L 159.741818 -267.380649 
L 162.785455 -255.489773 
L 165.829091 -291.94811 
L 168.872727 -293.918622 
L 171.916364 -281.774997 
L 174.96 -302.805417 
L 178.003636 -280.617662 
L 181.047273 -262.464045 
L 184.090909 -288.461818 
L 187.134545 -276.695584 
L 190.178182 -269.363004 
L 193.221818 -293.189803 
L 196.265455 -245.845807 
L 199.309091 -248.120445 
L 202.352727 -298.77128 
L 205.396364 -282.634731 
L 208.44 -253.99897 
L 211.483636 -283.77874 
L 214.527273 -304.15013 
L 217.570909 -273.455607 
L 220.614545 -306.839555 
L 223.658182 -281.640813 
L 226.701818 -297.426568 
L 229.745455 -287.206753 
L 232.789091 -298.566155 
L 235.832727 -297.90891 
L 238.876364 -281.774997 
L 241.92 -278.600594 
L 244.963636 -308.663206 
L 248.007273 -300.292348 
L 251.050909 -284.333315 
L 254.094545 -302.103828 
L 257.138182 -289.321452 
L 260.181818 -141.700193 
L 263.225455 -221.985921 
L 266.269091 -214.173048 
L 269.312727 -289.321452 
L 272.356364 -269.363004 
L 275.4 -288.461818 
L 278.443636 -265.270401 
L 281.487273 -295.66301 
L 284.530909 -292.383896 
L 287.574545 -266.919659 
L 290.618182 -251.548144 
L 293.661818 -299.871499 
L 296.705455 -246.948132 
L 299.749091 -288.461818 
L 302.792727 -269.363004 
L 305.836364 -255.489773 
L 308.88 -258.708124 
L 311.923636 -302.103828 
L 314.967273 -244.101764 
L 318.010909 -223.146964 
L 321.054545 -266.049944 
L 324.098182 -275.349199 
L 327.141818 -271.077473 
L 330.185455 -272.312086 
L 333.229091 -258.628307 
L 336.272727 -262.464045 
L 339.316364 -255.637043 
L 342.36 -270.532319 
L 345.403636 -264.615584 
L 348.447273 -278.807473 
L 351.490909 -258.555974 
L 354.534545 -255.566971 
L 357.578182 -307.395987 
L 360.621818 -280.617662 
L 363.665455 -286.810417 
L 366.709091 -269.363004 
L 369.752727 -298.011225 
L 372.796364 -241.631037 
L 375.84 -277.359321 
L 378.883636 -270.532319 
L 381.927273 -243.638071 
L 384.970909 -276.205325 
L 388.014545 -254.275348 
L 391.058182 -289.442338 
L 394.101818 -281.703776 
L 397.145455 -288.993625 
L 400.189091 -283.052056 
L 403.232727 -265.965371 
L 406.276364 -281.856213 
L 409.32 -277.716399 
L 412.363636 -288.923239 
L 415.407273 -240.906623 
L 418.450909 -282.5257 
L 421.494545 -269.230984 
L 424.538182 -296.423051 
L 427.581818 -257.085195 
L 430.625455 -282.894998 
L 433.669091 -257.085195 
L 436.712727 -280.617662 
L 439.756364 -297.694602 
L 442.8 -296.317682 
L 445.843636 -294.737143 
L 448.887273 -296.423051 
L 451.930909 -294.737143 
L 454.974545 -274.893549 
L 458.018182 -271.077473 
L 461.061818 -272.312086 
L 464.105455 -280.617662 
L 467.149091 -278.340327 
L 470.192727 -265.937885 
L 473.236364 -274.566456 
L 476.28 -276.205325 
L 479.323636 -244.101764 
L 482.367273 -236.519864 
L 485.410909 -286.668868 
L 488.454545 -296.305974 
L 491.498182 -275.817039 
L 494.541818 -278.600594 
L 497.585455 -292.383896 
L 500.629091 -274.199717 
L 503.672727 -227.134782 
L 506.716364 -247.395355 
L 509.76 -254.143636 
L 512.803636 -215.062931 
L 515.847273 -261.177798 
L 518.890909 -284.441688 
L 521.934545 -219.433247 
L 524.978182 -283.600651 
L 528.021818 -277.145659 
L 531.065455 -287.99351 
L 534.109091 -297.694602 
L 537.152727 -279.623333 
L 540.196364 -290.157852 
L 543.24 -277.716399 
L 546.283636 -296.317682 
L 549.327273 -272.773506 
L 552.370909 -264.325954 
L 555.414545 -268.159297 
L 558.458182 -257.085195 
L 561.501818 -283.77874 
L 564.545455 -238.259221 
L 567.589091 -270.532319 
L 570.632727 -273.014865 
L 573.676364 -259.85372 
L 576.72 -268.67041 
L 579.763636 -267.77125 
L 582.807273 -286.048232 
L 585.850909 -286.048232 
L 588.894545 -283.77874 
L 591.938182 -283.77874 
L 594.981818 -261.56757 
L 598.025455 -275.014694 
L 601.069091 -264.006509 
L 604.112727 -265.270401 
L 607.156364 -270.532319 
L 610.2 -277.359321 
L 613.243636 -274.199717 
L 616.287273 -248.120445 
L 619.330909 -269.230984 
L 622.374545 -249.731299 
L 625.418182 -266.498182 
L 628.461818 -238.259221 
L 631.505455 -283.77874 
L 634.549091 -266.919659 
L 637.592727 -273.785656 
L 640.636364 -255.637043 
L 643.68 -247.395355 
L 646.723636 -247.176787 
L 649.767273 -238.259221 
L 652.810909 -227.66961 
L 655.854545 -237.474805 
L 658.898182 -242.603676 
L 661.941818 -244.101764 
L 664.985455 -277.54821 
L 668.029091 -244.807386 
L 671.072727 -254.143636 
L 674.116364 -276.621583 
L 677.16 -274.566456 
L 680.203636 -277.145659 
L 683.247273 -258.490118 
L 686.290909 -289.602786 
L 689.334545 -289.826019 
L 692.378182 -257.085195 
L 695.421818 -284.53974 
L 698.465455 -212.413392 
L 701.509091 -247.395355 
L 704.552727 -232.916715 
L 707.596364 -258.490118 
L 710.64 -277.145659 
L 713.683636 -241.902958 
L 716.727273 -242.603676 
L 719.770909 -258.708124 
L 722.814545 -252.992592 
L 725.858182 -243.242567 
L 728.901818 -269.921086 
L 731.945455 -267.380649 
L 734.989091 -262.464045 
L 738.032727 -267.886983 
L 741.076364 -257.085195 
L 744.12 -278.183269 
L 744.12 -331.739919 
L 744.12 -331.739919 
L 741.076364 -312.814357 
L 738.032727 -323.439038 
L 734.989091 -314.907829 
L 731.945455 -320.328701 
L 728.901818 -321.264652 
L 725.858182 -301.381604 
L 722.814545 -310.289034 
L 719.770909 -317.13356 
L 716.727273 -307.770509 
L 713.683636 -305.668354 
L 710.64 -328.068376 
L 707.596364 -309.067362 
L 704.552727 -293.973928 
L 701.509091 -305.534393 
L 698.465455 -274.634832 
L 695.421818 -327.682597 
L 692.378182 -311.994286 
L 689.334545 -334.844653 
L 686.290909 -340.946352 
L 683.247273 -313.282132 
L 680.203636 -328.068376 
L 677.16 -327.010241 
L 674.116364 -329.902642 
L 671.072727 -311.504026 
L 668.029091 -298.011225 
L 664.985455 -326.761762 
L 661.941818 -302.527201 
L 658.898182 -303.426054 
L 655.854545 -296.305974 
L 652.810909 -293.854675 
L 649.767273 -298.77128 
L 646.723636 -306.627232 
L 643.68 -305.534393 
L 640.636364 -312.114965 
L 637.592727 -323.887038 
L 634.549091 -321.711673 
L 631.505455 -330.141213 
L 628.461818 -294.737143 
L 625.418182 -318.941967 
L 622.374545 -307.091688 
L 619.330909 -323.887038 
L 616.287273 -306.503377 
L 613.243636 -325.543282 
L 610.2 -325.148332 
L 607.156364 -322.976104 
L 604.112727 -318.474241 
L 601.069091 -317.992758 
L 598.025455 -328.803191 
L 594.981818 -319.838442 
L 591.938182 -330.141213 
L 588.894545 -330.141213 
L 585.850909 -333.837243 
L 582.807273 -333.837243 
L 579.763636 -323.439038 
L 576.72 -325.148332 
L 573.676364 -313.839969 
L 570.632727 -325.148332 
L 567.589091 -324.320816 
L 564.545455 -304.15013 
L 561.501818 -330.141213 
L 558.458182 -312.707391 
L 555.414545 -322.145546 
L 552.370909 -320.803876 
L 549.327273 -323.760519 
L 546.283636 -338.570754 
L 543.24 -324.136609 
L 540.196364 -332.134686 
L 537.152727 -327.351154 
L 534.109091 -335.950762 
L 531.065455 -334.355984 
L 528.021818 -328.068376 
L 524.978182 -327.351154 
L 521.934545 -290.030649 
L 518.890909 -331.604675 
L 515.847273 -318.474241 
L 512.803636 -285.660334 
L 509.76 -311.614334 
L 506.716364 -309.687181 
L 503.672727 -291.314238 
L 500.629091 -321.875885 
L 497.585455 -335.526753 
L 494.541818 -327.010241 
L 491.498182 -321.093506 
L 488.454545 -339.448831 
L 485.410909 -331.145232 
L 482.367273 -293.918622 
L 479.323636 -307.395987 
L 476.28 -324.741039 
L 473.236364 -322.976104 
L 470.192727 -319.838442 
L 467.149091 -332.99638 
L 464.105455 -326.298335 
L 461.061818 -326.298335 
L 458.018182 -320.686458 
L 454.974545 -324.502534 
L 451.930909 -333.945854 
L 448.887273 -338.570754 
L 445.843636 -337.095584 
L 442.8 -338.570754 
L 439.756364 -335.950762 
L 436.712727 -328.921148 
L 433.669091 -312.814357 
L 430.625455 -332.99638 
L 427.581818 -316.986021 
L 424.538182 -338.570754 
L 421.494545 -328.441709 
L 418.450909 -328.31861 
L 415.407273 -307.091688 
L 412.363636 -334.603911 
L 409.32 -320.364967 
L 406.276364 -336.352454 
L 403.232727 -324.574536 
L 400.189091 -331.739919 
L 397.145455 -336.856271 
L 394.101818 -329.492787 
L 391.058182 -333.565714 
L 388.014545 -313.282132 
L 384.970909 -324.741039 
L 381.927273 -301.908942 
L 378.883636 -324.320816 
L 375.84 -329.492787 
L 372.796364 -300.637821 
L 369.752727 -338.937256 
L 366.709091 -322.566844 
L 363.665455 -336.352454 
L 360.621818 -330.451123 
L 357.578182 -346.346279 
L 354.534545 -310.223025 
L 351.490909 -311.504026 
L 348.447273 -325.872408 
L 345.403636 -317.328312 
L 342.36 -324.320816 
L 339.316364 -312.114965 
L 336.272727 -314.907829 
L 333.229091 -314.180362 
L 330.185455 -322.145546 
L 327.141818 -320.686458 
L 324.098182 -325.926443 
L 321.054545 -319.838442 
L 318.010909 -285.03 
L 314.967273 -307.395987 
L 311.923636 -343.029859 
L 308.88 -317.13356 
L 305.836364 -317.711213 
L 302.792727 -322.566844 
L 299.749091 -337.767941 
L 296.705455 -307.770509 
L 293.661818 -338.379174 
L 290.618182 -309.687181 
L 287.574545 -317.496903 
L 284.530909 -335.526753 
L 281.487273 -337.327051 
L 278.443636 -318.474241 
L 275.4 -335.526753 
L 272.356364 -318.474241 
L 269.312727 -331.873311 
L 266.269091 -280.617662 
L 263.225455 -288.993625 
L 260.181818 -210.02026 
L 257.138182 -331.873311 
L 254.094545 -339.039571 
L 251.050909 -328.921148 
L 248.007273 -341.956389 
L 244.963636 -343.478363 
L 241.92 -331.044378 
L 238.876364 -332.697713 
L 235.832727 -338.937256 
L 232.789091 -341.642536 
L 229.745455 -332.389091 
L 226.701818 -337.767941 
L 223.658182 -330.75205 
L 220.614545 -343.14679 
L 217.570909 -326.659447 
L 214.527273 -342.657804 
L 211.483636 -330.246583 
L 208.44 -314.180362 
L 205.396364 -331.044378 
L 202.352727 -339.112653 
L 199.309091 -306.391317 
L 196.265455 -309.067362 
L 193.221818 -335.741662 
L 190.178182 -322.566844 
L 187.134545 -327.682597 
L 184.090909 -331.604675 
L 181.047273 -314.907829 
L 178.003636 -333.565714 
L 174.96 -339.112653 
L 171.916364 -332.697713 
L 168.872727 -338.937256 
L 165.829091 -330.297316 
L 162.785455 -312.924948 
L 159.741818 -324.741039 
L 156.698182 -324.741039 
L 153.654545 -325.543282 
L 150.610909 -313.563117 
L 147.567273 -313.839969 
L 144.523636 -319.838442 
L 141.48 -318.474241 
L 138.436364 -239.354698 
z
" style="stroke: #800080; stroke-opacity: 0.2; stroke-width: 1.5"/>
    </defs>
    <g clip-path="url(#peede1ba2ed)">
     <use xlink:href="#mbced0563fd" x="0" y="432" style="fill: #800080; fill-opacity: 0.2; stroke: #800080; stroke-opacity: 0.2; stroke-width: 1.5"/>
    </g>
   </g>
   <g id="PolyCollection_2">
    <defs>
     <path id="mdc93ad54fc" d="M 138.436364 -365.334545 
L 138.436364 -68.825455 
L 141.48 -68.825455 
L 144.523636 -68.825455 
L 147.567273 -68.825455 
L 150.610909 -68.825455 
L 153.654545 -68.825455 
L 156.698182 -68.825455 
L 159.741818 -68.825455 
L 162.785455 -68.825455 
L 165.829091 -68.825455 
L 168.872727 -68.825455 
L 171.916364 -68.825455 
L 174.96 -68.825455 
L 178.003636 -68.825455 
L 181.047273 -68.825455 
L 184.090909 -68.825455 
L 187.134545 -68.825455 
L 190.178182 -68.825455 
L 193.221818 -68.825455 
L 196.265455 -68.825455 
L 199.309091 -68.825455 
L 202.352727 -68.825455 
L 205.396364 -68.825455 
L 208.44 -68.825455 
L 211.483636 -68.825455 
L 214.527273 -68.825455 
L 217.570909 -68.825455 
L 220.614545 -68.825455 
L 223.658182 -68.825455 
L 226.701818 -68.825455 
L 229.745455 -68.825455 
L 232.789091 -68.825455 
L 235.832727 -68.825455 
L 238.876364 -68.825455 
L 241.92 -68.825455 
L 244.963636 -68.825455 
L 248.007273 -68.825455 
L 251.050909 -68.825455 
L 254.094545 -68.825455 
L 257.138182 -68.825455 
L 260.181818 -68.825455 
L 260.181818 -365.334545 
L 260.181818 -365.334545 
L 257.138182 -365.334545 
L 254.094545 -365.334545 
L 251.050909 -365.334545 
L 248.007273 -365.334545 
L 244.963636 -365.334545 
L 241.92 -365.334545 
L 238.876364 -365.334545 
L 235.832727 -365.334545 
L 232.789091 -365.334545 
L 229.745455 -365.334545 
L 226.701818 -365.334545 
L 223.658182 -365.334545 
L 220.614545 -365.334545 
L 217.570909 -365.334545 
L 214.527273 -365.334545 
L 211.483636 -365.334545 
L 208.44 -365.334545 
L 205.396364 -365.334545 
L 202.352727 -365.334545 
L 199.309091 -365.334545 
L 196.265455 -365.334545 
L 193.221818 -365.334545 
L 190.178182 -365.334545 
L 187.134545 -365.334545 
L 184.090909 -365.334545 
L 181.047273 -365.334545 
L 178.003636 -365.334545 
L 174.96 -365.334545 
L 171.916364 -365.334545 
L 168.872727 -365.334545 
L 165.829091 -365.334545 
L 162.785455 -365.334545 
L 159.741818 -365.334545 
L 156.698182 -365.334545 
L 153.654545 -365.334545 
L 150.610909 -365.334545 
L 147.567273 -365.334545 
L 144.523636 -365.334545 
L 141.48 -365.334545 
L 138.436364 -365.334545 
z
" style="stroke: #008000; stroke-opacity: 0.2; stroke-width: 1.5"/>
    </defs>
    <g clip-path="url(#peede1ba2ed)">
     <use xlink:href="#mdc93ad54fc" x="0" y="432" style="fill: #008000; fill-opacity: 0.2; stroke: #008000; stroke-opacity: 0.2; stroke-width: 1.5"/>
    </g>
   </g>
   <g id="PolyCollection_3">
    <defs>
     <path id="mc00c71adf8" d="M 260.181818 -365.334545 
L 260.181818 -68.825455 
L 263.225455 -68.825455 
L 266.269091 -68.825455 
L 269.312727 -68.825455 
L 272.356364 -68.825455 
L 275.4 -68.825455 
L 278.443636 -68.825455 
L 281.487273 -68.825455 
L 284.530909 -68.825455 
L 287.574545 -68.825455 
L 290.618182 -68.825455 
L 293.661818 -68.825455 
L 296.705455 -68.825455 
L 299.749091 -68.825455 
L 302.792727 -68.825455 
L 305.836364 -68.825455 
L 308.88 -68.825455 
L 311.923636 -68.825455 
L 314.967273 -68.825455 
L 318.010909 -68.825455 
L 321.054545 -68.825455 
L 324.098182 -68.825455 
L 327.141818 -68.825455 
L 330.185455 -68.825455 
L 333.229091 -68.825455 
L 336.272727 -68.825455 
L 339.316364 -68.825455 
L 342.36 -68.825455 
L 345.403636 -68.825455 
L 348.447273 -68.825455 
L 351.490909 -68.825455 
L 354.534545 -68.825455 
L 357.578182 -68.825455 
L 360.621818 -68.825455 
L 363.665455 -68.825455 
L 366.709091 -68.825455 
L 369.752727 -68.825455 
L 372.796364 -68.825455 
L 375.84 -68.825455 
L 378.883636 -68.825455 
L 381.927273 -68.825455 
L 381.927273 -365.334545 
L 381.927273 -365.334545 
L 378.883636 -365.334545 
L 375.84 -365.334545 
L 372.796364 -365.334545 
L 369.752727 -365.334545 
L 366.709091 -365.334545 
L 363.665455 -365.334545 
L 360.621818 -365.334545 
L 357.578182 -365.334545 
L 354.534545 -365.334545 
L 351.490909 -365.334545 
L 348.447273 -365.334545 
L 345.403636 -365.334545 
L 342.36 -365.334545 
L 339.316364 -365.334545 
L 336.272727 -365.334545 
L 333.229091 -365.334545 
L 330.185455 -365.334545 
L 327.141818 -365.334545 
L 324.098182 -365.334545 
L 321.054545 -365.334545 
L 318.010909 -365.334545 
L 314.967273 -365.334545 
L 311.923636 -365.334545 
L 308.88 -365.334545 
L 305.836364 -365.334545 
L 302.792727 -365.334545 
L 299.749091 -365.334545 
L 296.705455 -365.334545 
L 293.661818 -365.334545 
L 290.618182 -365.334545 
L 287.574545 -365.334545 
L 284.530909 -365.334545 
L 281.487273 -365.334545 
L 278.443636 -365.334545 
L 275.4 -365.334545 
L 272.356364 -365.334545 
L 269.312727 -365.334545 
L 266.269091 -365.334545 
L 263.225455 -365.334545 
L 260.181818 -365.334545 
z
" style="stroke: #0000ff; stroke-opacity: 0.2; stroke-width: 1.5"/>
    </defs>
    <g clip-path="url(#peede1ba2ed)">
     <use xlink:href="#mc00c71adf8" x="0" y="432" style="fill: #0000ff; fill-opacity: 0.2; stroke: #0000ff; stroke-opacity: 0.2; stroke-width: 1.5"/>
    </g>
   </g>
   <g id="PolyCollection_4">
    <defs>
     <path id="m3ce25762b9" d="M 381.927273 -365.334545 
L 381.927273 -68.825455 
L 384.970909 -68.825455 
L 388.014545 -68.825455 
L 391.058182 -68.825455 
L 394.101818 -68.825455 
L 397.145455 -68.825455 
L 400.189091 -68.825455 
L 403.232727 -68.825455 
L 406.276364 -68.825455 
L 409.32 -68.825455 
L 412.363636 -68.825455 
L 415.407273 -68.825455 
L 418.450909 -68.825455 
L 421.494545 -68.825455 
L 424.538182 -68.825455 
L 427.581818 -68.825455 
L 430.625455 -68.825455 
L 433.669091 -68.825455 
L 436.712727 -68.825455 
L 439.756364 -68.825455 
L 442.8 -68.825455 
L 445.843636 -68.825455 
L 448.887273 -68.825455 
L 451.930909 -68.825455 
L 454.974545 -68.825455 
L 458.018182 -68.825455 
L 461.061818 -68.825455 
L 464.105455 -68.825455 
L 467.149091 -68.825455 
L 470.192727 -68.825455 
L 473.236364 -68.825455 
L 476.28 -68.825455 
L 479.323636 -68.825455 
L 482.367273 -68.825455 
L 485.410909 -68.825455 
L 488.454545 -68.825455 
L 491.498182 -68.825455 
L 494.541818 -68.825455 
L 497.585455 -68.825455 
L 500.629091 -68.825455 
L 503.672727 -68.825455 
L 503.672727 -365.334545 
L 503.672727 -365.334545 
L 500.629091 -365.334545 
L 497.585455 -365.334545 
L 494.541818 -365.334545 
L 491.498182 -365.334545 
L 488.454545 -365.334545 
L 485.410909 -365.334545 
L 482.367273 -365.334545 
L 479.323636 -365.334545 
L 476.28 -365.334545 
L 473.236364 -365.334545 
L 470.192727 -365.334545 
L 467.149091 -365.334545 
L 464.105455 -365.334545 
L 461.061818 -365.334545 
L 458.018182 -365.334545 
L 454.974545 -365.334545 
L 451.930909 -365.334545 
L 448.887273 -365.334545 
L 445.843636 -365.334545 
L 442.8 -365.334545 
L 439.756364 -365.334545 
L 436.712727 -365.334545 
L 433.669091 -365.334545 
L 430.625455 -365.334545 
L 427.581818 -365.334545 
L 424.538182 -365.334545 
L 421.494545 -365.334545 
L 418.450909 -365.334545 
L 415.407273 -365.334545 
L 412.363636 -365.334545 
L 409.32 -365.334545 
L 406.276364 -365.334545 
L 403.232727 -365.334545 
L 400.189091 -365.334545 
L 397.145455 -365.334545 
L 394.101818 -365.334545 
L 391.058182 -365.334545 
L 388.014545 -365.334545 
L 384.970909 -365.334545 
L 381.927273 -365.334545 
z
" style="stroke: #008000; stroke-opacity: 0.2; stroke-width: 1.5"/>
    </defs>
    <g clip-path="url(#peede1ba2ed)">
     <use xlink:href="#m3ce25762b9" x="0" y="432" style="fill: #008000; fill-opacity: 0.2; stroke: #008000; stroke-opacity: 0.2; stroke-width: 1.5"/>
    </g>
   </g>
   <g id="PolyCollection_5">
    <defs>
     <path id="m7eacb4abf4" d="M 503.672727 -365.334545 
L 503.672727 -68.825455 
L 506.716364 -68.825455 
L 509.76 -68.825455 
L 512.803636 -68.825455 
L 515.847273 -68.825455 
L 518.890909 -68.825455 
L 521.934545 -68.825455 
L 524.978182 -68.825455 
L 528.021818 -68.825455 
L 531.065455 -68.825455 
L 534.109091 -68.825455 
L 537.152727 -68.825455 
L 540.196364 -68.825455 
L 543.24 -68.825455 
L 546.283636 -68.825455 
L 549.327273 -68.825455 
L 552.370909 -68.825455 
L 555.414545 -68.825455 
L 558.458182 -68.825455 
L 561.501818 -68.825455 
L 564.545455 -68.825455 
L 567.589091 -68.825455 
L 570.632727 -68.825455 
L 573.676364 -68.825455 
L 576.72 -68.825455 
L 579.763636 -68.825455 
L 582.807273 -68.825455 
L 585.850909 -68.825455 
L 588.894545 -68.825455 
L 591.938182 -68.825455 
L 594.981818 -68.825455 
L 598.025455 -68.825455 
L 601.069091 -68.825455 
L 604.112727 -68.825455 
L 607.156364 -68.825455 
L 610.2 -68.825455 
L 613.243636 -68.825455 
L 616.287273 -68.825455 
L 619.330909 -68.825455 
L 622.374545 -68.825455 
L 625.418182 -68.825455 
L 625.418182 -365.334545 
L 625.418182 -365.334545 
L 622.374545 -365.334545 
L 619.330909 -365.334545 
L 616.287273 -365.334545 
L 613.243636 -365.334545 
L 610.2 -365.334545 
L 607.156364 -365.334545 
L 604.112727 -365.334545 
L 601.069091 -365.334545 
L 598.025455 -365.334545 
L 594.981818 -365.334545 
L 591.938182 -365.334545 
L 588.894545 -365.334545 
L 585.850909 -365.334545 
L 582.807273 -365.334545 
L 579.763636 -365.334545 
L 576.72 -365.334545 
L 573.676364 -365.334545 
L 570.632727 -365.334545 
L 567.589091 -365.334545 
L 564.545455 -365.334545 
L 561.501818 -365.334545 
L 558.458182 -365.334545 
L 555.414545 -365.334545 
L 552.370909 -365.334545 
L 549.327273 -365.334545 
L 546.283636 -365.334545 
L 543.24 -365.334545 
L 540.196364 -365.334545 
L 537.152727 -365.334545 
L 534.109091 -365.334545 
L 531.065455 -365.334545 
L 528.021818 -365.334545 
L 524.978182 -365.334545 
L 521.934545 -365.334545 
L 518.890909 -365.334545 
L 515.847273 -365.334545 
L 512.803636 -365.334545 
L 509.76 -365.334545 
L 506.716364 -365.334545 
L 503.672727 -365.334545 
z
" style="stroke: #0000ff; stroke-opacity: 0.2; stroke-width: 1.5"/>
    </defs>
    <g clip-path="url(#peede1ba2ed)">
     <use xlink:href="#m7eacb4abf4" x="0" y="432" style="fill: #0000ff; fill-opacity: 0.2; stroke: #0000ff; stroke-opacity: 0.2; stroke-width: 1.5"/>
    </g>
   </g>
   <g id="PolyCollection_6">
    <defs>
     <path id="m504995d5ed" d="M 625.418182 -365.334545 
L 625.418182 -68.825455 
L 628.461818 -68.825455 
L 631.505455 -68.825455 
L 634.549091 -68.825455 
L 637.592727 -68.825455 
L 640.636364 -68.825455 
L 643.68 -68.825455 
L 646.723636 -68.825455 
L 649.767273 -68.825455 
L 652.810909 -68.825455 
L 655.854545 -68.825455 
L 658.898182 -68.825455 
L 661.941818 -68.825455 
L 664.985455 -68.825455 
L 668.029091 -68.825455 
L 671.072727 -68.825455 
L 674.116364 -68.825455 
L 677.16 -68.825455 
L 680.203636 -68.825455 
L 683.247273 -68.825455 
L 686.290909 -68.825455 
L 689.334545 -68.825455 
L 692.378182 -68.825455 
L 695.421818 -68.825455 
L 698.465455 -68.825455 
L 701.509091 -68.825455 
L 704.552727 -68.825455 
L 707.596364 -68.825455 
L 710.64 -68.825455 
L 713.683636 -68.825455 
L 716.727273 -68.825455 
L 719.770909 -68.825455 
L 722.814545 -68.825455 
L 725.858182 -68.825455 
L 728.901818 -68.825455 
L 731.945455 -68.825455 
L 734.989091 -68.825455 
L 738.032727 -68.825455 
L 741.076364 -68.825455 
L 744.12 -68.825455 
L 747.163636 -68.825455 
L 747.163636 -365.334545 
L 747.163636 -365.334545 
L 744.12 -365.334545 
L 741.076364 -365.334545 
L 738.032727 -365.334545 
L 734.989091 -365.334545 
L 731.945455 -365.334545 
L 728.901818 -365.334545 
L 725.858182 -365.334545 
L 722.814545 -365.334545 
L 719.770909 -365.334545 
L 716.727273 -365.334545 
L 713.683636 -365.334545 
L 710.64 -365.334545 
L 707.596364 -365.334545 
L 704.552727 -365.334545 
L 701.509091 -365.334545 
L 698.465455 -365.334545 
L 695.421818 -365.334545 
L 692.378182 -365.334545 
L 689.334545 -365.334545 
L 686.290909 -365.334545 
L 683.247273 -365.334545 
L 680.203636 -365.334545 
L 677.16 -365.334545 
L 674.116364 -365.334545 
L 671.072727 -365.334545 
L 668.029091 -365.334545 
L 664.985455 -365.334545 
L 661.941818 -365.334545 
L 658.898182 -365.334545 
L 655.854545 -365.334545 
L 652.810909 -365.334545 
L 649.767273 -365.334545 
L 646.723636 -365.334545 
L 643.68 -365.334545 
L 640.636364 -365.334545 
L 637.592727 -365.334545 
L 634.549091 -365.334545 
L 631.505455 -365.334545 
L 628.461818 -365.334545 
L 625.418182 -365.334545 
z
" style="stroke: #ff0000; stroke-opacity: 0.2; stroke-width: 1.5"/>
    </defs>
    <g clip-path="url(#peede1ba2ed)">
     <use xlink:href="#m504995d5ed" x="0" y="432" style="fill: #ff0000; fill-opacity: 0.2; stroke: #ff0000; stroke-opacity: 0.2; stroke-width: 1.5"/>
    </g>
   </g>
   <g id="matplotlib.axis_1">
    <g id="xtick_1">
     <g id="line2d_1">
      <defs>
       <path id="m45dffeff39" d="M 0 0 
L 0 9 
" style="stroke: #000000; stroke-width: 1.875"/>
      </defs>
      <g>
       <use xlink:href="#m45dffeff39" x="138.436364" y="378" style="stroke: #000000; stroke-width: 1.875"/>
      </g>
     </g>
     <g id="text_1">
      <!-- 0 -->
      <g transform="translate(133.187301 403.037422)scale(0.165 -0.165)">
       <defs>
        <path id="DejaVuSans-30" d="M 2034 4250 
Q 1547 4250 1301 3770 
Q 1056 3291 1056 2328 
Q 1056 1369 1301 889 
Q 1547 409 2034 409 
Q 2525 409 2770 889 
Q 3016 1369 3016 2328 
Q 3016 3291 2770 3770 
Q 2525 4250 2034 4250 
z
M 2034 4750 
Q 2819 4750 3233 4129 
Q 3647 3509 3647 2328 
Q 3647 1150 3233 529 
Q 2819 -91 2034 -91 
Q 1250 -91 836 529 
Q 422 1150 422 2328 
Q 422 3509 836 4129 
Q 1250 4750 2034 4750 
z
" transform="scale(0.015625)"/>
       </defs>
       <use xlink:href="#DejaVuSans-30"/>
      </g>
     </g>
    </g>
    <g id="xtick_2">
     <g id="line2d_2">
      <g>
       <use xlink:href="#m45dffeff39" x="214.527273" y="378" style="stroke: #000000; stroke-width: 1.875"/>
      </g>
     </g>
     <g id="text_2">
      <!-- 25 -->
      <g transform="translate(204.029148 403.037422)scale(0.165 -0.165)">
       <defs>
        <path id="DejaVuSans-32" d="M 1228 531 
L 3431 531 
L 3431 0 
L 469 0 
L 469 531 
Q 828 903 1448 1529 
Q 2069 2156 2228 2338 
Q 2531 2678 2651 2914 
Q 2772 3150 2772 3378 
Q 2772 3750 2511 3984 
Q 2250 4219 1831 4219 
Q 1534 4219 1204 4116 
Q 875 4013 500 3803 
L 500 4441 
Q 881 4594 1212 4672 
Q 1544 4750 1819 4750 
Q 2544 4750 2975 4387 
Q 3406 4025 3406 3419 
Q 3406 3131 3298 2873 
Q 3191 2616 2906 2266 
Q 2828 2175 2409 1742 
Q 1991 1309 1228 531 
z
" transform="scale(0.015625)"/>
        <path id="DejaVuSans-35" d="M 691 4666 
L 3169 4666 
L 3169 4134 
L 1269 4134 
L 1269 2991 
Q 1406 3038 1543 3061 
Q 1681 3084 1819 3084 
Q 2600 3084 3056 2656 
Q 3513 2228 3513 1497 
Q 3513 744 3044 326 
Q 2575 -91 1722 -91 
Q 1428 -91 1123 -41 
Q 819 9 494 109 
L 494 744 
Q 775 591 1075 516 
Q 1375 441 1709 441 
Q 2250 441 2565 725 
Q 2881 1009 2881 1497 
Q 2881 1984 2565 2268 
Q 2250 2553 1709 2553 
Q 1456 2553 1204 2497 
Q 953 2441 691 2322 
L 691 4666 
z
" transform="scale(0.015625)"/>
       </defs>
       <use xlink:href="#DejaVuSans-32"/>
       <use xlink:href="#DejaVuSans-35" x="63.623047"/>
      </g>
     </g>
    </g>
    <g id="xtick_3">
     <g id="line2d_3">
      <g>
       <use xlink:href="#m45dffeff39" x="290.618182" y="378" style="stroke: #000000; stroke-width: 1.875"/>
      </g>
     </g>
     <g id="text_3">
      <!-- 50 -->
      <g transform="translate(280.120057 403.037422)scale(0.165 -0.165)">
       <use xlink:href="#DejaVuSans-35"/>
       <use xlink:href="#DejaVuSans-30" x="63.623047"/>
      </g>
     </g>
    </g>
    <g id="xtick_4">
     <g id="line2d_4">
      <g>
       <use xlink:href="#m45dffeff39" x="366.709091" y="378" style="stroke: #000000; stroke-width: 1.875"/>
      </g>
     </g>
     <g id="text_4">
      <!-- 75 -->
      <g transform="translate(356.210966 403.037422)scale(0.165 -0.165)">
       <defs>
        <path id="DejaVuSans-37" d="M 525 4666 
L 3525 4666 
L 3525 4397 
L 1831 0 
L 1172 0 
L 2766 4134 
L 525 4134 
L 525 4666 
z
" transform="scale(0.015625)"/>
       </defs>
       <use xlink:href="#DejaVuSans-37"/>
       <use xlink:href="#DejaVuSans-35" x="63.623047"/>
      </g>
     </g>
    </g>
    <g id="xtick_5">
     <g id="line2d_5">
      <g>
       <use xlink:href="#m45dffeff39" x="442.8" y="378" style="stroke: #000000; stroke-width: 1.875"/>
      </g>
     </g>
     <g id="text_5">
      <!-- 100 -->
      <g transform="translate(427.052813 403.037422)scale(0.165 -0.165)">
       <defs>
        <path id="DejaVuSans-31" d="M 794 531 
L 1825 531 
L 1825 4091 
L 703 3866 
L 703 4441 
L 1819 4666 
L 2450 4666 
L 2450 531 
L 3481 531 
L 3481 0 
L 794 0 
L 794 531 
z
" transform="scale(0.015625)"/>
       </defs>
       <use xlink:href="#DejaVuSans-31"/>
       <use xlink:href="#DejaVuSans-30" x="63.623047"/>
       <use xlink:href="#DejaVuSans-30" x="127.246094"/>
      </g>
     </g>
    </g>
    <g id="xtick_6">
     <g id="line2d_6">
      <g>
       <use xlink:href="#m45dffeff39" x="518.890909" y="378" style="stroke: #000000; stroke-width: 1.875"/>
      </g>
     </g>
     <g id="text_6">
      <!-- 125 -->
      <g transform="translate(503.143722 403.037422)scale(0.165 -0.165)">
       <use xlink:href="#DejaVuSans-31"/>
       <use xlink:href="#DejaVuSans-32" x="63.623047"/>
       <use xlink:href="#DejaVuSans-35" x="127.246094"/>
      </g>
     </g>
    </g>
    <g id="xtick_7">
     <g id="line2d_7">
      <g>
       <use xlink:href="#m45dffeff39" x="594.981818" y="378" style="stroke: #000000; stroke-width: 1.875"/>
      </g>
     </g>
     <g id="text_7">
      <!-- 150 -->
      <g transform="translate(579.234631 403.037422)scale(0.165 -0.165)">
       <use xlink:href="#DejaVuSans-31"/>
       <use xlink:href="#DejaVuSans-35" x="63.623047"/>
       <use xlink:href="#DejaVuSans-30" x="127.246094"/>
      </g>
     </g>
    </g>
    <g id="xtick_8">
     <g id="line2d_8">
      <g>
       <use xlink:href="#m45dffeff39" x="671.072727" y="378" style="stroke: #000000; stroke-width: 1.875"/>
      </g>
     </g>
     <g id="text_8">
      <!-- 175 -->
      <g transform="translate(655.32554 403.037422)scale(0.165 -0.165)">
       <use xlink:href="#DejaVuSans-31"/>
       <use xlink:href="#DejaVuSans-37" x="63.623047"/>
       <use xlink:href="#DejaVuSans-35" x="127.246094"/>
      </g>
     </g>
    </g>
    <g id="xtick_9">
     <g id="line2d_9">
      <g>
       <use xlink:href="#m45dffeff39" x="747.163636" y="378" style="stroke: #000000; stroke-width: 1.875"/>
      </g>
     </g>
     <g id="text_9">
      <!-- 200 -->
      <g transform="translate(731.416449 403.037422)scale(0.165 -0.165)">
       <use xlink:href="#DejaVuSans-32"/>
       <use xlink:href="#DejaVuSans-30" x="63.623047"/>
       <use xlink:href="#DejaVuSans-30" x="127.246094"/>
      </g>
     </g>
    </g>
    <g id="text_10">
     <!-- trial -->
     <g transform="translate(425.055938 424.146094)scale(0.18 -0.18)">
      <defs>
       <path id="DejaVuSans-74" d="M 1172 4494 
L 1172 3500 
L 2356 3500 
L 2356 3053 
L 1172 3053 
L 1172 1153 
Q 1172 725 1289 603 
Q 1406 481 1766 481 
L 2356 481 
L 2356 0 
L 1766 0 
Q 1100 0 847 248 
Q 594 497 594 1153 
L 594 3053 
L 172 3053 
L 172 3500 
L 594 3500 
L 594 4494 
L 1172 4494 
z
" transform="scale(0.015625)"/>
       <path id="DejaVuSans-72" d="M 2631 2963 
Q 2534 3019 2420 3045 
Q 2306 3072 2169 3072 
Q 1681 3072 1420 2755 
Q 1159 2438 1159 1844 
L 1159 0 
L 581 0 
L 581 3500 
L 1159 3500 
L 1159 2956 
Q 1341 3275 1631 3429 
Q 1922 3584 2338 3584 
Q 2397 3584 2469 3576 
Q 2541 3569 2628 3553 
L 2631 2963 
z
" transform="scale(0.015625)"/>
       <path id="DejaVuSans-69" d="M 603 3500 
L 1178 3500 
L 1178 0 
L 603 0 
L 603 3500 
z
M 603 4863 
L 1178 4863 
L 1178 4134 
L 603 4134 
L 603 4863 
z
" transform="scale(0.015625)"/>
       <path id="DejaVuSans-61" d="M 2194 1759 
Q 1497 1759 1228 1600 
Q 959 1441 959 1056 
Q 959 750 1161 570 
Q 1363 391 1709 391 
Q 2188 391 2477 730 
Q 2766 1069 2766 1631 
L 2766 1759 
L 2194 1759 
z
M 3341 1997 
L 3341 0 
L 2766 0 
L 2766 531 
Q 2569 213 2275 61 
Q 1981 -91 1556 -91 
Q 1019 -91 701 211 
Q 384 513 384 1019 
Q 384 1609 779 1909 
Q 1175 2209 1959 2209 
L 2766 2209 
L 2766 2266 
Q 2766 2663 2505 2880 
Q 2244 3097 1772 3097 
Q 1472 3097 1187 3025 
Q 903 2953 641 2809 
L 641 3341 
Q 956 3463 1253 3523 
Q 1550 3584 1831 3584 
Q 2591 3584 2966 3190 
Q 3341 2797 3341 1997 
z
" transform="scale(0.015625)"/>
       <path id="DejaVuSans-6c" d="M 603 4863 
L 1178 4863 
L 1178 0 
L 603 0 
L 603 4863 
z
" transform="scale(0.015625)"/>
      </defs>
      <use xlink:href="#DejaVuSans-74"/>
      <use xlink:href="#DejaVuSans-72" x="39.208984"/>
      <use xlink:href="#DejaVuSans-69" x="80.322266"/>
      <use xlink:href="#DejaVuSans-61" x="108.105469"/>
      <use xlink:href="#DejaVuSans-6c" x="169.384766"/>
     </g>
    </g>
   </g>
   <g id="matplotlib.axis_2">
    <g id="ytick_1">
     <g id="line2d_10">
      <defs>
       <path id="mc7ce481a7c" d="M 0 0 
L -9 0 
" style="stroke: #000000; stroke-width: 1.875"/>
      </defs>
      <g>
       <use xlink:href="#mc7ce481a7c" x="108" y="363.174545" style="stroke: #000000; stroke-width: 1.875"/>
      </g>
     </g>
     <g id="text_11">
      <!-- 0.0 -->
      <g transform="translate(69.259844 369.443256)scale(0.165 -0.165)">
       <defs>
        <path id="DejaVuSans-2e" d="M 684 794 
L 1344 794 
L 1344 0 
L 684 0 
L 684 794 
z
" transform="scale(0.015625)"/>
       </defs>
       <use xlink:href="#DejaVuSans-30"/>
       <use xlink:href="#DejaVuSans-2e" x="63.623047"/>
       <use xlink:href="#DejaVuSans-30" x="95.410156"/>
      </g>
     </g>
    </g>
    <g id="ytick_2">
     <g id="line2d_11">
      <g>
       <use xlink:href="#mc7ce481a7c" x="108" y="306.696623" style="stroke: #000000; stroke-width: 1.875"/>
      </g>
     </g>
     <g id="text_12">
      <!-- 0.2 -->
      <g transform="translate(69.259844 312.965334)scale(0.165 -0.165)">
       <use xlink:href="#DejaVuSans-30"/>
       <use xlink:href="#DejaVuSans-2e" x="63.623047"/>
       <use xlink:href="#DejaVuSans-32" x="95.410156"/>
      </g>
     </g>
    </g>
    <g id="ytick_3">
     <g id="line2d_12">
      <g>
       <use xlink:href="#mc7ce481a7c" x="108" y="250.218701" style="stroke: #000000; stroke-width: 1.875"/>
      </g>
     </g>
     <g id="text_13">
      <!-- 0.4 -->
      <g transform="translate(69.259844 256.487412)scale(0.165 -0.165)">
       <defs>
        <path id="DejaVuSans-34" d="M 2419 4116 
L 825 1625 
L 2419 1625 
L 2419 4116 
z
M 2253 4666 
L 3047 4666 
L 3047 1625 
L 3713 1625 
L 3713 1100 
L 3047 1100 
L 3047 0 
L 2419 0 
L 2419 1100 
L 313 1100 
L 313 1709 
L 2253 4666 
z
" transform="scale(0.015625)"/>
       </defs>
       <use xlink:href="#DejaVuSans-30"/>
       <use xlink:href="#DejaVuSans-2e" x="63.623047"/>
       <use xlink:href="#DejaVuSans-34" x="95.410156"/>
      </g>
     </g>
    </g>
    <g id="ytick_4">
     <g id="line2d_13">
      <g>
       <use xlink:href="#mc7ce481a7c" x="108" y="193.740779" style="stroke: #000000; stroke-width: 1.875"/>
      </g>
     </g>
     <g id="text_14">
      <!-- 0.6 -->
      <g transform="translate(69.259844 200.00949)scale(0.165 -0.165)">
       <defs>
        <path id="DejaVuSans-36" d="M 2113 2584 
Q 1688 2584 1439 2293 
Q 1191 2003 1191 1497 
Q 1191 994 1439 701 
Q 1688 409 2113 409 
Q 2538 409 2786 701 
Q 3034 994 3034 1497 
Q 3034 2003 2786 2293 
Q 2538 2584 2113 2584 
z
M 3366 4563 
L 3366 3988 
Q 3128 4100 2886 4159 
Q 2644 4219 2406 4219 
Q 1781 4219 1451 3797 
Q 1122 3375 1075 2522 
Q 1259 2794 1537 2939 
Q 1816 3084 2150 3084 
Q 2853 3084 3261 2657 
Q 3669 2231 3669 1497 
Q 3669 778 3244 343 
Q 2819 -91 2113 -91 
Q 1303 -91 875 529 
Q 447 1150 447 2328 
Q 447 3434 972 4092 
Q 1497 4750 2381 4750 
Q 2619 4750 2861 4703 
Q 3103 4656 3366 4563 
z
" transform="scale(0.015625)"/>
       </defs>
       <use xlink:href="#DejaVuSans-30"/>
       <use xlink:href="#DejaVuSans-2e" x="63.623047"/>
       <use xlink:href="#DejaVuSans-36" x="95.410156"/>
      </g>
     </g>
    </g>
    <g id="ytick_5">
     <g id="line2d_14">
      <g>
       <use xlink:href="#mc7ce481a7c" x="108" y="137.262857" style="stroke: #000000; stroke-width: 1.875"/>
      </g>
     </g>
     <g id="text_15">
      <!-- 0.8 -->
      <g transform="translate(69.259844 143.531568)scale(0.165 -0.165)">
       <defs>
        <path id="DejaVuSans-38" d="M 2034 2216 
Q 1584 2216 1326 1975 
Q 1069 1734 1069 1313 
Q 1069 891 1326 650 
Q 1584 409 2034 409 
Q 2484 409 2743 651 
Q 3003 894 3003 1313 
Q 3003 1734 2745 1975 
Q 2488 2216 2034 2216 
z
M 1403 2484 
Q 997 2584 770 2862 
Q 544 3141 544 3541 
Q 544 4100 942 4425 
Q 1341 4750 2034 4750 
Q 2731 4750 3128 4425 
Q 3525 4100 3525 3541 
Q 3525 3141 3298 2862 
Q 3072 2584 2669 2484 
Q 3125 2378 3379 2068 
Q 3634 1759 3634 1313 
Q 3634 634 3220 271 
Q 2806 -91 2034 -91 
Q 1263 -91 848 271 
Q 434 634 434 1313 
Q 434 1759 690 2068 
Q 947 2378 1403 2484 
z
M 1172 3481 
Q 1172 3119 1398 2916 
Q 1625 2713 2034 2713 
Q 2441 2713 2670 2916 
Q 2900 3119 2900 3481 
Q 2900 3844 2670 4047 
Q 2441 4250 2034 4250 
Q 1625 4250 1398 4047 
Q 1172 3844 1172 3481 
z
" transform="scale(0.015625)"/>
       </defs>
       <use xlink:href="#DejaVuSans-30"/>
       <use xlink:href="#DejaVuSans-2e" x="63.623047"/>
       <use xlink:href="#DejaVuSans-38" x="95.410156"/>
      </g>
     </g>
    </g>
    <g id="ytick_6">
     <g id="line2d_15">
      <g>
       <use xlink:href="#mc7ce481a7c" x="108" y="80.784935" style="stroke: #000000; stroke-width: 1.875"/>
      </g>
     </g>
     <g id="text_16">
      <!-- 1.0 -->
      <g transform="translate(69.259844 87.053646)scale(0.165 -0.165)">
       <use xlink:href="#DejaVuSans-31"/>
       <use xlink:href="#DejaVuSans-2e" x="63.623047"/>
       <use xlink:href="#DejaVuSans-30" x="95.410156"/>
      </g>
     </g>
    </g>
    <g id="text_17">
     <!-- prediction accuracy -->
     <g transform="translate(61.516406 303.537656)rotate(-90)scale(0.18 -0.18)">
      <defs>
       <path id="DejaVuSans-70" d="M 1159 525 
L 1159 -1331 
L 581 -1331 
L 581 3500 
L 1159 3500 
L 1159 2969 
Q 1341 3281 1617 3432 
Q 1894 3584 2278 3584 
Q 2916 3584 3314 3078 
Q 3713 2572 3713 1747 
Q 3713 922 3314 415 
Q 2916 -91 2278 -91 
Q 1894 -91 1617 61 
Q 1341 213 1159 525 
z
M 3116 1747 
Q 3116 2381 2855 2742 
Q 2594 3103 2138 3103 
Q 1681 3103 1420 2742 
Q 1159 2381 1159 1747 
Q 1159 1113 1420 752 
Q 1681 391 2138 391 
Q 2594 391 2855 752 
Q 3116 1113 3116 1747 
z
" transform="scale(0.015625)"/>
       <path id="DejaVuSans-65" d="M 3597 1894 
L 3597 1613 
L 953 1613 
Q 991 1019 1311 708 
Q 1631 397 2203 397 
Q 2534 397 2845 478 
Q 3156 559 3463 722 
L 3463 178 
Q 3153 47 2828 -22 
Q 2503 -91 2169 -91 
Q 1331 -91 842 396 
Q 353 884 353 1716 
Q 353 2575 817 3079 
Q 1281 3584 2069 3584 
Q 2775 3584 3186 3129 
Q 3597 2675 3597 1894 
z
M 3022 2063 
Q 3016 2534 2758 2815 
Q 2500 3097 2075 3097 
Q 1594 3097 1305 2825 
Q 1016 2553 972 2059 
L 3022 2063 
z
" transform="scale(0.015625)"/>
       <path id="DejaVuSans-64" d="M 2906 2969 
L 2906 4863 
L 3481 4863 
L 3481 0 
L 2906 0 
L 2906 525 
Q 2725 213 2448 61 
Q 2172 -91 1784 -91 
Q 1150 -91 751 415 
Q 353 922 353 1747 
Q 353 2572 751 3078 
Q 1150 3584 1784 3584 
Q 2172 3584 2448 3432 
Q 2725 3281 2906 2969 
z
M 947 1747 
Q 947 1113 1208 752 
Q 1469 391 1925 391 
Q 2381 391 2643 752 
Q 2906 1113 2906 1747 
Q 2906 2381 2643 2742 
Q 2381 3103 1925 3103 
Q 1469 3103 1208 2742 
Q 947 2381 947 1747 
z
" transform="scale(0.015625)"/>
       <path id="DejaVuSans-63" d="M 3122 3366 
L 3122 2828 
Q 2878 2963 2633 3030 
Q 2388 3097 2138 3097 
Q 1578 3097 1268 2742 
Q 959 2388 959 1747 
Q 959 1106 1268 751 
Q 1578 397 2138 397 
Q 2388 397 2633 464 
Q 2878 531 3122 666 
L 3122 134 
Q 2881 22 2623 -34 
Q 2366 -91 2075 -91 
Q 1284 -91 818 406 
Q 353 903 353 1747 
Q 353 2603 823 3093 
Q 1294 3584 2113 3584 
Q 2378 3584 2631 3529 
Q 2884 3475 3122 3366 
z
" transform="scale(0.015625)"/>
       <path id="DejaVuSans-6f" d="M 1959 3097 
Q 1497 3097 1228 2736 
Q 959 2375 959 1747 
Q 959 1119 1226 758 
Q 1494 397 1959 397 
Q 2419 397 2687 759 
Q 2956 1122 2956 1747 
Q 2956 2369 2687 2733 
Q 2419 3097 1959 3097 
z
M 1959 3584 
Q 2709 3584 3137 3096 
Q 3566 2609 3566 1747 
Q 3566 888 3137 398 
Q 2709 -91 1959 -91 
Q 1206 -91 779 398 
Q 353 888 353 1747 
Q 353 2609 779 3096 
Q 1206 3584 1959 3584 
z
" transform="scale(0.015625)"/>
       <path id="DejaVuSans-6e" d="M 3513 2113 
L 3513 0 
L 2938 0 
L 2938 2094 
Q 2938 2591 2744 2837 
Q 2550 3084 2163 3084 
Q 1697 3084 1428 2787 
Q 1159 2491 1159 1978 
L 1159 0 
L 581 0 
L 581 3500 
L 1159 3500 
L 1159 2956 
Q 1366 3272 1645 3428 
Q 1925 3584 2291 3584 
Q 2894 3584 3203 3211 
Q 3513 2838 3513 2113 
z
" transform="scale(0.015625)"/>
       <path id="DejaVuSans-20" transform="scale(0.015625)"/>
       <path id="DejaVuSans-75" d="M 544 1381 
L 544 3500 
L 1119 3500 
L 1119 1403 
Q 1119 906 1312 657 
Q 1506 409 1894 409 
Q 2359 409 2629 706 
Q 2900 1003 2900 1516 
L 2900 3500 
L 3475 3500 
L 3475 0 
L 2900 0 
L 2900 538 
Q 2691 219 2414 64 
Q 2138 -91 1772 -91 
Q 1169 -91 856 284 
Q 544 659 544 1381 
z
M 1991 3584 
L 1991 3584 
z
" transform="scale(0.015625)"/>
       <path id="DejaVuSans-79" d="M 2059 -325 
Q 1816 -950 1584 -1140 
Q 1353 -1331 966 -1331 
L 506 -1331 
L 506 -850 
L 844 -850 
Q 1081 -850 1212 -737 
Q 1344 -625 1503 -206 
L 1606 56 
L 191 3500 
L 800 3500 
L 1894 763 
L 2988 3500 
L 3597 3500 
L 2059 -325 
z
" transform="scale(0.015625)"/>
      </defs>
      <use xlink:href="#DejaVuSans-70"/>
      <use xlink:href="#DejaVuSans-72" x="63.476562"/>
      <use xlink:href="#DejaVuSans-65" x="102.339844"/>
      <use xlink:href="#DejaVuSans-64" x="163.863281"/>
      <use xlink:href="#DejaVuSans-69" x="227.339844"/>
      <use xlink:href="#DejaVuSans-63" x="255.123047"/>
      <use xlink:href="#DejaVuSans-74" x="310.103516"/>
      <use xlink:href="#DejaVuSans-69" x="349.3125"/>
      <use xlink:href="#DejaVuSans-6f" x="377.095703"/>
      <use xlink:href="#DejaVuSans-6e" x="438.277344"/>
      <use xlink:href="#DejaVuSans-20" x="501.65625"/>
      <use xlink:href="#DejaVuSans-61" x="533.443359"/>
      <use xlink:href="#DejaVuSans-63" x="594.722656"/>
      <use xlink:href="#DejaVuSans-63" x="649.703125"/>
      <use xlink:href="#DejaVuSans-75" x="704.683594"/>
      <use xlink:href="#DejaVuSans-72" x="768.0625"/>
      <use xlink:href="#DejaVuSans-61" x="809.175781"/>
      <use xlink:href="#DejaVuSans-63" x="870.455078"/>
      <use xlink:href="#DejaVuSans-79" x="925.435547"/>
     </g>
    </g>
   </g>
   <g id="line2d_16">
    <path d="M 138.436364 226.848527 
L 141.48 142.173981 
L 144.523636 139.055807 
L 147.567273 147.229549 
L 150.610909 144.793247 
L 153.654545 132.128501 
L 156.698182 133.732987 
L 159.741818 133.732987 
L 162.785455 147.792639 
L 165.829091 119.134141 
L 168.872727 113.525759 
L 171.916364 122.448976 
L 174.96 109.023896 
L 181.047273 141.296994 
L 184.090909 120.005714 
L 187.134545 127.84987 
L 190.178182 133.988775 
L 193.221818 115.600093 
L 196.265455 152.43603 
L 199.309091 152.502931 
L 202.352727 113.058033 
L 205.396364 125.160445 
L 208.44 145.595665 
L 211.483636 122.932638 
L 214.527273 106.456718 
L 217.570909 129.896172 
L 220.614545 104.989759 
L 223.658182 125.803569 
L 226.701818 112.161558 
L 229.745455 122.202078 
L 232.789091 109.502523 
L 235.832727 113.525759 
L 238.876364 122.448976 
L 241.92 125.160445 
L 244.963636 103.99504 
L 248.007273 108.560962 
L 251.050909 125.372768 
L 254.094545 109.433156 
L 257.138182 119.468443 
L 260.181818 258.417109 
L 263.225455 176.510227 
L 266.269091 184.604645 
L 269.312727 119.468443 
L 272.356364 138.081378 
L 275.4 120.005714 
L 278.443636 138.081378 
L 281.487273 113.1903 
L 284.530909 116.083636 
L 287.574545 139.791719 
L 290.618182 151.382338 
L 293.661818 110.735348 
L 296.705455 154.640679 
L 299.749091 116.643933 
L 302.792727 133.988775 
L 305.836364 143.006375 
L 308.88 144.079158 
L 311.923636 109.433156 
L 314.967273 153.816731 
L 318.010909 177.856364 
L 321.054545 139.055807 
L 324.098182 131.362179 
L 327.141818 134.209996 
L 330.185455 134.771184 
L 333.229091 145.595665 
L 336.272727 141.296994 
L 339.316364 145.951768 
L 342.36 134.573432 
L 345.403636 141.028052 
L 348.447273 127.84987 
L 351.490909 146.97 
L 354.534545 149.105002 
L 357.578182 105.128867 
L 360.621818 126.465607 
L 363.665455 120.418565 
L 366.709091 133.988775 
L 369.752727 113.525759 
L 372.796364 160.865571 
L 375.84 128.573946 
L 378.883636 134.573432 
L 381.927273 156.985306 
L 384.970909 129.320649 
L 388.014545 148.22126 
L 391.058182 120.495974 
L 394.101818 124.229491 
L 397.145455 119.075052 
L 400.189091 124.604013 
L 403.232727 134.065994 
L 406.276364 120.418565 
L 409.32 131.073496 
L 412.363636 118.160031 
L 415.407273 155.794675 
L 418.450909 126.577845 
L 421.494545 130.886318 
L 424.538182 114.503097 
L 427.581818 144.964392 
L 430.625455 121.776975 
L 433.669091 144.964392 
L 436.712727 125.372768 
L 439.756364 115.129617 
L 442.8 114.503097 
L 445.843636 113.73039 
L 448.887273 114.503097 
L 451.930909 115.540579 
L 454.974545 130.393921 
L 458.018182 134.209996 
L 461.061818 130.618396 
L 464.105455 126.465607 
L 467.149091 121.776975 
L 470.192727 139.055807 
L 473.236364 133.22872 
L 476.28 129.320649 
L 479.323636 153.816731 
L 482.367273 166.729599 
L 485.410909 121.126308 
L 488.454545 112.161558 
L 491.498182 133.497662 
L 494.541818 129.194583 
L 497.585455 116.083636 
L 500.629091 132.128501 
L 503.672727 170.636175 
L 506.716364 151.382338 
L 509.76 146.97 
L 512.803636 181.638367 
L 515.847273 142.173981 
L 518.890909 123.927792 
L 521.934545 174.914805 
L 524.978182 124.535438 
L 528.021818 127.078314 
L 531.065455 118.717868 
L 534.109091 115.129617 
L 537.152727 128.512757 
L 540.196364 118.945693 
L 543.24 131.073496 
L 546.283636 114.503097 
L 549.327273 131.771948 
L 552.370909 137.262857 
L 555.414545 134.771184 
L 558.458182 144.964392 
L 561.501818 122.932638 
L 564.545455 160.795325 
L 567.589091 134.573432 
L 570.632727 132.918402 
L 573.676364 143.076761 
L 576.72 132.918402 
L 579.763636 136.33699 
L 582.807273 119.885035 
L 585.850909 119.885035 
L 588.894545 122.932638 
L 591.938182 122.932638 
L 594.981818 139.055807 
L 598.025455 130.091058 
L 601.069091 138.923972 
L 604.112727 138.081378 
L 610.2 128.573946 
L 613.243636 132.128501 
L 616.287273 152.502931 
L 619.330909 135.440989 
L 622.374545 151.382338 
L 625.418182 137.262857 
L 628.461818 163.619221 
L 631.505455 122.932638 
L 634.549091 135.576949 
L 637.592727 130.886318 
L 640.636364 145.951768 
L 643.68 151.382338 
L 646.723636 155.09799 
L 649.767273 161.467681 
L 652.810909 169.031688 
L 655.854545 163.148571 
L 658.898182 158.985135 
L 661.941818 158.685517 
L 664.985455 125.803569 
L 668.029091 158.544393 
L 671.072727 146.97 
L 674.116364 128.737888 
L 677.16 129.194583 
L 680.203636 127.078314 
L 683.247273 144.00649 
L 686.290909 116.725431 
L 689.334545 117.618363 
L 692.378182 147.46026 
L 695.421818 123.927792 
L 698.465455 190.86902 
L 701.509091 155.535126 
L 704.552727 168.554679 
L 707.596364 148.22126 
L 710.64 127.078314 
L 713.683636 158.214344 
L 716.727273 156.812907 
L 719.770909 144.079158 
L 722.814545 150.359187 
L 725.858182 159.687914 
L 728.901818 136.407131 
L 731.945455 138.145325 
L 734.989091 141.296994 
L 738.032727 131.707652 
L 741.076364 144.964392 
L 744.12 124.604013 
L 744.12 124.604013 
" clip-path="url(#peede1ba2ed)" style="fill: none; stroke: #800080; stroke-width: 2.25; stroke-linecap: square"/>
   </g>
   <g id="line2d_17">
    <path d="M 108 221.97974 
L 777.6 221.97974 
" clip-path="url(#peede1ba2ed)" style="fill: none; stroke: #000000; stroke-width: 2.25; stroke-linecap: square"/>
   </g>
   <g id="patch_3">
    <path d="M 108 378 
L 108 51.84 
" style="fill: none; stroke: #000000; stroke-width: 1.875; stroke-linejoin: miter; stroke-linecap: square"/>
   </g>
   <g id="patch_4">
    <path d="M 777.6 378 
L 777.6 51.84 
" style="fill: none; stroke: #000000; stroke-width: 1.875; stroke-linejoin: miter; stroke-linecap: square"/>
   </g>
   <g id="patch_5">
    <path d="M 108 378 
L 777.6 378 
" style="fill: none; stroke: #000000; stroke-width: 1.875; stroke-linejoin: miter; stroke-linecap: square"/>
   </g>
   <g id="patch_6">
    <path d="M 108 51.84 
L 777.6 51.84 
" style="fill: none; stroke: #000000; stroke-width: 1.875; stroke-linejoin: miter; stroke-linecap: square"/>
   </g>
  </g>
 </g>
 <defs>
  <clipPath id="peede1ba2ed">
   <rect x="108" y="51.84" width="669.6" height="326.16"/>
  </clipPath>
 </defs>
</svg>
