<?xml version="1.0" encoding="utf-8" standalone="no"?>
<!DOCTYPE svg PUBLIC "-//W3C//DTD SVG 1.1//EN"
  "http://www.w3.org/Graphics/SVG/1.1/DTD/svg11.dtd">
<svg xmlns:xlink="http://www.w3.org/1999/xlink" width="864pt" height="432pt" viewBox="0 0 864 432" xmlns="http://www.w3.org/2000/svg" version="1.1">
 <metadata>
  <rdf:RDF xmlns:dc="http://purl.org/dc/elements/1.1/" xmlns:cc="http://creativecommons.org/ns#" xmlns:rdf="http://www.w3.org/1999/02/22-rdf-syntax-ns#">
   <cc:Work>
    <dc:type rdf:resource="http://purl.org/dc/dcmitype/StillImage"/>
    <dc:date>2023-05-02T17:28:59.146163</dc:date>
    <dc:format>image/svg+xml</dc:format>
    <dc:creator>
     <cc:Agent>
      <dc:title>Matplotlib v3.5.1, https://matplotlib.org/</dc:title>
     </cc:Agent>
    </dc:creator>
   </cc:Work>
  </rdf:RDF>
 </metadata>
 <defs>
  <style type="text/css">*{stroke-linejoin: round; stroke-linecap: butt}</style>
 </defs>
 <g id="figure_1">
  <g id="patch_1">
   <path d="M 0 432 
L 864 432 
L 864 0 
L 0 0 
L 0 432 
z
" style="fill: none"/>
  </g>
  <g id="axes_1">
   <g id="patch_2">
    <path d="M 108 378 
L 777.6 378 
L 777.6 51.84 
L 108 51.84 
z
" style="fill: #ffffff"/>
   </g>
   <g id="PolyCollection_1">
    <defs>
     <path id="m95140f15e7" d="M 276.341224 -98.263636 
L 274.458776 -98.263636 
L 274.209814 -100.739211 
L 273.916849 -103.214785 
L 273.578591 -105.69036 
L 273.19563 -108.165934 
L 272.770817 -110.641509 
L 272.30954 -113.117083 
L 271.819858 -115.592658 
L 271.312432 -118.068233 
L 270.800243 -120.543807 
L 270.29807 -123.019382 
L 269.821745 -125.494956 
L 269.38723 -127.970531 
L 269.009568 -130.446105 
L 268.70179 -132.92168 
L 268.473875 -135.397254 
L 268.331859 -137.872829 
L 268.277172 -140.348403 
L 268.306282 -142.823978 
L 268.410685 -145.299552 
L 268.577249 -147.775127 
L 268.788897 -150.250701 
L 269.025573 -152.726276 
L 269.265413 -155.20185 
L 269.486029 -157.677425 
L 269.665798 -160.152999 
L 269.785069 -162.628574 
L 269.827178 -165.104148 
L 269.77923 -167.579723 
L 269.632581 -170.055297 
L 269.383014 -172.530872 
L 269.030621 -175.006446 
L 268.579428 -177.482021 
L 268.03682 -179.957596 
L 267.412853 -182.43317 
L 266.71952 -184.908745 
L 265.970064 -187.384319 
L 265.178389 -189.859894 
L 264.358624 -192.335468 
L 263.524837 -194.811043 
L 262.690889 -197.286617 
L 261.870357 -199.762192 
L 261.076454 -202.237766 
L 260.321847 -204.713341 
L 259.618281 -207.188915 
L 258.975923 -209.66449 
L 258.402414 -212.140064 
L 257.901613 -214.615639 
L 257.472116 -217.091213 
L 257.105663 -219.566788 
L 256.785601 -222.042362 
L 256.485586 -224.517937 
L 256.168712 -226.993511 
L 255.787257 -229.469086 
L 255.283151 -231.94466 
L 254.589261 -234.420235 
L 253.631492 -236.895809 
L 252.331635 -239.371384 
L 250.610858 -241.846959 
L 248.393661 -244.322533 
L 245.612104 -246.798108 
L 242.210095 -249.273682 
L 238.147544 -251.749257 
L 233.404173 -254.224831 
L 227.982831 -256.700406 
L 221.912132 -259.17598 
L 215.248302 -261.651555 
L 208.076086 -264.127129 
L 200.508591 -266.602704 
L 192.685952 -269.078278 
L 184.77272 -271.553853 
L 176.953892 -274.029427 
L 169.429562 -276.505002 
L 162.408263 -278.980576 
L 156.09914 -281.456151 
L 150.703237 -283.931725 
L 146.404307 -286.4073 
L 143.359641 -288.882874 
L 141.691532 -291.358449 
L 141.48 -293.834023 
L 142.757396 -296.309598 
L 145.505417 -298.785172 
L 149.654883 -301.260747 
L 155.088446 -303.736321 
L 161.646145 -306.211896 
L 169.133451 -308.687471 
L 177.33127 -311.163045 
L 186.007144 -313.63862 
L 194.926817 -316.114194 
L 203.865332 -318.589769 
L 212.616862 -321.065343 
L 221.002653 -323.540918 
L 228.876658 -326.016492 
L 236.128648 -328.492067 
L 242.684866 -330.967641 
L 248.506432 -333.443216 
L 253.585934 -335.91879 
L 257.942685 -338.394365 
L 261.6172 -340.869939 
L 264.665412 -343.345514 
L 286.134588 -343.345514 
L 286.134588 -343.345514 
L 289.1828 -340.869939 
L 292.857315 -338.394365 
L 297.214066 -335.91879 
L 302.293568 -333.443216 
L 308.115134 -330.967641 
L 314.671352 -328.492067 
L 321.923342 -326.016492 
L 329.797347 -323.540918 
L 338.183138 -321.065343 
L 346.934668 -318.589769 
L 355.873183 -316.114194 
L 364.792856 -313.63862 
L 373.46873 -311.163045 
L 381.666549 -308.687471 
L 389.153855 -306.211896 
L 395.711554 -303.736321 
L 401.145117 -301.260747 
L 405.294583 -298.785172 
L 408.042604 -296.309598 
L 409.32 -293.834023 
L 409.108468 -291.358449 
L 407.440359 -288.882874 
L 404.395693 -286.4073 
L 400.096763 -283.931725 
L 394.70086 -281.456151 
L 388.391737 -278.980576 
L 381.370438 -276.505002 
L 373.846108 -274.029427 
L 366.02728 -271.553853 
L 358.114048 -269.078278 
L 350.291409 -266.602704 
L 342.723914 -264.127129 
L 335.551698 -261.651555 
L 328.887868 -259.17598 
L 322.817169 -256.700406 
L 317.395827 -254.224831 
L 312.652456 -251.749257 
L 308.589905 -249.273682 
L 305.187896 -246.798108 
L 302.406339 -244.322533 
L 300.189142 -241.846959 
L 298.468365 -239.371384 
L 297.168508 -236.895809 
L 296.210739 -234.420235 
L 295.516849 -231.94466 
L 295.012743 -229.469086 
L 294.631288 -226.993511 
L 294.314414 -224.517937 
L 294.014399 -222.042362 
L 293.694337 -219.566788 
L 293.327884 -217.091213 
L 292.898387 -214.615639 
L 292.397586 -212.140064 
L 291.824077 -209.66449 
L 291.181719 -207.188915 
L 290.478153 -204.713341 
L 289.723546 -202.237766 
L 288.929643 -199.762192 
L 288.109111 -197.286617 
L 287.275163 -194.811043 
L 286.441376 -192.335468 
L 285.621611 -189.859894 
L 284.829936 -187.384319 
L 284.08048 -184.908745 
L 283.387147 -182.43317 
L 282.76318 -179.957596 
L 282.220572 -177.482021 
L 281.769379 -175.006446 
L 281.416986 -172.530872 
L 281.167419 -170.055297 
L 281.02077 -167.579723 
L 280.972822 -165.104148 
L 281.014931 -162.628574 
L 281.134202 -160.152999 
L 281.313971 -157.677425 
L 281.534587 -155.20185 
L 281.774427 -152.726276 
L 282.011103 -150.250701 
L 282.222751 -147.775127 
L 282.389315 -145.299552 
L 282.493718 -142.823978 
L 282.522828 -140.348403 
L 282.468141 -137.872829 
L 282.326125 -135.397254 
L 282.09821 -132.92168 
L 281.790432 -130.446105 
L 281.41277 -127.970531 
L 280.978255 -125.494956 
L 280.50193 -123.019382 
L 279.999757 -120.543807 
L 279.487568 -118.068233 
L 278.980142 -115.592658 
L 278.49046 -113.117083 
L 278.029183 -110.641509 
L 277.60437 -108.165934 
L 277.221409 -105.69036 
L 276.883151 -103.214785 
L 276.590186 -100.739211 
L 276.341224 -98.263636 
z
" style="stroke: #3f3f3f; stroke-width: 2.25"/>
    </defs>
    <g clip-path="url(#p6a73dabd4e)">
     <use xlink:href="#m95140f15e7" x="0" y="432" style="fill: #3274a1; stroke: #3f3f3f; stroke-width: 2.25"/>
    </g>
   </g>
   <g id="PolyCollection_2">
    <defs>
     <path id="m2c26814da2" d="M 611.83911 -68.825455 
L 608.56089 -68.825455 
L 608.161631 -71.820496 
L 607.684765 -74.815537 
L 607.120197 -77.810579 
L 606.457645 -80.80562 
L 605.6869 -83.800661 
L 604.798125 -86.795702 
L 603.782193 -89.790744 
L 602.631049 -92.785785 
L 601.338091 -95.780826 
L 599.898553 -98.775868 
L 598.309874 -101.770909 
L 596.572038 -104.76595 
L 594.687873 -107.760992 
L 592.663282 -110.756033 
L 590.507411 -113.751074 
L 588.232721 -116.746116 
L 585.854979 -119.741157 
L 583.39314 -122.736198 
L 580.869143 -125.73124 
L 578.3076 -128.726281 
L 575.735408 -131.721322 
L 573.181271 -134.716364 
L 570.675164 -137.711405 
L 568.24773 -140.706446 
L 565.929654 -143.701488 
L 563.750999 -146.696529 
L 561.74054 -149.69157 
L 559.925106 -152.686612 
L 558.328949 -155.681653 
L 556.973143 -158.676694 
L 555.875041 -161.671736 
L 555.047807 -164.666777 
L 554.500013 -167.661818 
L 554.23534 -170.65686 
L 554.25238 -173.651901 
L 554.544546 -176.646942 
L 555.100104 -179.641983 
L 555.902324 -182.637025 
L 556.929759 -185.632066 
L 558.156639 -188.627107 
L 559.553379 -191.622149 
L 561.087192 -194.61719 
L 562.722786 -197.612231 
L 564.423135 -200.607273 
L 566.150299 -203.602314 
L 567.866279 -206.597355 
L 569.53387 -209.592397 
L 571.117513 -212.587438 
L 572.584103 -215.582479 
L 573.903753 -218.577521 
L 575.050485 -221.572562 
L 576.002845 -224.567603 
L 576.74442 -227.562645 
L 577.264261 -230.557686 
L 577.557188 -233.552727 
L 577.623985 -236.547769 
L 577.471468 -239.54281 
L 577.112424 -242.537851 
L 576.565413 -245.532893 
L 575.854428 -248.527934 
L 575.0084 -251.522975 
L 574.060569 -254.518017 
L 573.047697 -257.513058 
L 572.009149 -260.508099 
L 570.985851 -263.50314 
L 570.019155 -266.498182 
L 569.149638 -269.493223 
L 568.415867 -272.488264 
L 567.853199 -275.483306 
L 567.492639 -278.478347 
L 567.359823 -281.473388 
L 567.474175 -284.46843 
L 567.84827 -287.463471 
L 568.487452 -290.458512 
L 569.389717 -293.453554 
L 570.545882 -296.448595 
L 571.94002 -299.443636 
L 573.55015 -302.438678 
L 575.349152 -305.433719 
L 577.305838 -308.42876 
L 579.386155 -311.423802 
L 581.554434 -314.418843 
L 583.774638 -317.413884 
L 586.011551 -320.408926 
L 588.231849 -323.403967 
L 590.405017 -326.399008 
L 592.504086 -329.39405 
L 594.506161 -332.389091 
L 596.392738 -335.384132 
L 598.149824 -338.379174 
L 599.767867 -341.374215 
L 601.241521 -344.369256 
L 602.569284 -347.364298 
L 603.753037 -350.359339 
L 604.797514 -353.35438 
L 605.709746 -356.349421 
L 606.498501 -359.344463 
L 607.173751 -362.339504 
L 607.746177 -365.334545 
L 612.653823 -365.334545 
L 612.653823 -365.334545 
L 613.226249 -362.339504 
L 613.901499 -359.344463 
L 614.690254 -356.349421 
L 615.602486 -353.35438 
L 616.646963 -350.359339 
L 617.830716 -347.364298 
L 619.158479 -344.369256 
L 620.632133 -341.374215 
L 622.250176 -338.379174 
L 624.007262 -335.384132 
L 625.893839 -332.389091 
L 627.895914 -329.39405 
L 629.994983 -326.399008 
L 632.168151 -323.403967 
L 634.388449 -320.408926 
L 636.625362 -317.413884 
L 638.845566 -314.418843 
L 641.013845 -311.423802 
L 643.094162 -308.42876 
L 645.050848 -305.433719 
L 646.84985 -302.438678 
L 648.45998 -299.443636 
L 649.854118 -296.448595 
L 651.010283 -293.453554 
L 651.912548 -290.458512 
L 652.55173 -287.463471 
L 652.925825 -284.46843 
L 653.040177 -281.473388 
L 652.907361 -278.478347 
L 652.546801 -275.483306 
L 651.984133 -272.488264 
L 651.250362 -269.493223 
L 650.380845 -266.498182 
L 649.414149 -263.50314 
L 648.390851 -260.508099 
L 647.352303 -257.513058 
L 646.339431 -254.518017 
L 645.3916 -251.522975 
L 644.545572 -248.527934 
L 643.834587 -245.532893 
L 643.287576 -242.537851 
L 642.928532 -239.54281 
L 642.776015 -236.547769 
L 642.842812 -233.552727 
L 643.135739 -230.557686 
L 643.65558 -227.562645 
L 644.397155 -224.567603 
L 645.349515 -221.572562 
L 646.496247 -218.577521 
L 647.815897 -215.582479 
L 649.282487 -212.587438 
L 650.86613 -209.592397 
L 652.533721 -206.597355 
L 654.249701 -203.602314 
L 655.976865 -200.607273 
L 657.677214 -197.612231 
L 659.312808 -194.61719 
L 660.846621 -191.622149 
L 662.243361 -188.627107 
L 663.470241 -185.632066 
L 664.497676 -182.637025 
L 665.299896 -179.641983 
L 665.855454 -176.646942 
L 666.14762 -173.651901 
L 666.16466 -170.65686 
L 665.899987 -167.661818 
L 665.352193 -164.666777 
L 664.524959 -161.671736 
L 663.426857 -158.676694 
L 662.071051 -155.681653 
L 660.474894 -152.686612 
L 658.65946 -149.69157 
L 656.649001 -146.696529 
L 654.470346 -143.701488 
L 652.15227 -140.706446 
L 649.724836 -137.711405 
L 647.218729 -134.716364 
L 644.664592 -131.721322 
L 642.0924 -128.726281 
L 639.530857 -125.73124 
L 637.00686 -122.736198 
L 634.545021 -119.741157 
L 632.167279 -116.746116 
L 629.892589 -113.751074 
L 627.736718 -110.756033 
L 625.712127 -107.760992 
L 623.827962 -104.76595 
L 622.090126 -101.770909 
L 620.501447 -98.775868 
L 619.061909 -95.780826 
L 617.768951 -92.785785 
L 616.617807 -89.790744 
L 615.601875 -86.795702 
L 614.7131 -83.800661 
L 613.942355 -80.80562 
L 613.279803 -77.810579 
L 612.715235 -74.815537 
L 612.238369 -71.820496 
L 611.83911 -68.825455 
z
" style="stroke: #3f3f3f; stroke-width: 2.25"/>
    </defs>
    <g clip-path="url(#p6a73dabd4e)">
     <use xlink:href="#m2c26814da2" x="0" y="432" style="fill: #e1812c; stroke: #3f3f3f; stroke-width: 2.25"/>
    </g>
   </g>
   <g id="matplotlib.axis_1">
    <g id="xtick_1">
     <g id="line2d_1">
      <defs>
       <path id="mba4021ca22" d="M 0 0 
L 0 9 
" style="stroke: #000000; stroke-width: 1.875"/>
      </defs>
      <g>
       <use xlink:href="#mba4021ca22" x="275.4" y="378" style="stroke: #000000; stroke-width: 1.875"/>
      </g>
     </g>
     <g id="text_1">
      <!-- blocked_rep -->
      <g transform="translate(225.849727 403.037422)scale(0.165 -0.165)">
       <defs>
        <path id="DejaVuSans-62" d="M 3116 1747 
Q 3116 2381 2855 2742 
Q 2594 3103 2138 3103 
Q 1681 3103 1420 2742 
Q 1159 2381 1159 1747 
Q 1159 1113 1420 752 
Q 1681 391 2138 391 
Q 2594 391 2855 752 
Q 3116 1113 3116 1747 
z
M 1159 2969 
Q 1341 3281 1617 3432 
Q 1894 3584 2278 3584 
Q 2916 3584 3314 3078 
Q 3713 2572 3713 1747 
Q 3713 922 3314 415 
Q 2916 -91 2278 -91 
Q 1894 -91 1617 61 
Q 1341 213 1159 525 
L 1159 0 
L 581 0 
L 581 4863 
L 1159 4863 
L 1159 2969 
z
" transform="scale(0.015625)"/>
        <path id="DejaVuSans-6c" d="M 603 4863 
L 1178 4863 
L 1178 0 
L 603 0 
L 603 4863 
z
" transform="scale(0.015625)"/>
        <path id="DejaVuSans-6f" d="M 1959 3097 
Q 1497 3097 1228 2736 
Q 959 2375 959 1747 
Q 959 1119 1226 758 
Q 1494 397 1959 397 
Q 2419 397 2687 759 
Q 2956 1122 2956 1747 
Q 2956 2369 2687 2733 
Q 2419 3097 1959 3097 
z
M 1959 3584 
Q 2709 3584 3137 3096 
Q 3566 2609 3566 1747 
Q 3566 888 3137 398 
Q 2709 -91 1959 -91 
Q 1206 -91 779 398 
Q 353 888 353 1747 
Q 353 2609 779 3096 
Q 1206 3584 1959 3584 
z
" transform="scale(0.015625)"/>
        <path id="DejaVuSans-63" d="M 3122 3366 
L 3122 2828 
Q 2878 2963 2633 3030 
Q 2388 3097 2138 3097 
Q 1578 3097 1268 2742 
Q 959 2388 959 1747 
Q 959 1106 1268 751 
Q 1578 397 2138 397 
Q 2388 397 2633 464 
Q 2878 531 3122 666 
L 3122 134 
Q 2881 22 2623 -34 
Q 2366 -91 2075 -91 
Q 1284 -91 818 406 
Q 353 903 353 1747 
Q 353 2603 823 3093 
Q 1294 3584 2113 3584 
Q 2378 3584 2631 3529 
Q 2884 3475 3122 3366 
z
" transform="scale(0.015625)"/>
        <path id="DejaVuSans-6b" d="M 581 4863 
L 1159 4863 
L 1159 1991 
L 2875 3500 
L 3609 3500 
L 1753 1863 
L 3688 0 
L 2938 0 
L 1159 1709 
L 1159 0 
L 581 0 
L 581 4863 
z
" transform="scale(0.015625)"/>
        <path id="DejaVuSans-65" d="M 3597 1894 
L 3597 1613 
L 953 1613 
Q 991 1019 1311 708 
Q 1631 397 2203 397 
Q 2534 397 2845 478 
Q 3156 559 3463 722 
L 3463 178 
Q 3153 47 2828 -22 
Q 2503 -91 2169 -91 
Q 1331 -91 842 396 
Q 353 884 353 1716 
Q 353 2575 817 3079 
Q 1281 3584 2069 3584 
Q 2775 3584 3186 3129 
Q 3597 2675 3597 1894 
z
M 3022 2063 
Q 3016 2534 2758 2815 
Q 2500 3097 2075 3097 
Q 1594 3097 1305 2825 
Q 1016 2553 972 2059 
L 3022 2063 
z
" transform="scale(0.015625)"/>
        <path id="DejaVuSans-64" d="M 2906 2969 
L 2906 4863 
L 3481 4863 
L 3481 0 
L 2906 0 
L 2906 525 
Q 2725 213 2448 61 
Q 2172 -91 1784 -91 
Q 1150 -91 751 415 
Q 353 922 353 1747 
Q 353 2572 751 3078 
Q 1150 3584 1784 3584 
Q 2172 3584 2448 3432 
Q 2725 3281 2906 2969 
z
M 947 1747 
Q 947 1113 1208 752 
Q 1469 391 1925 391 
Q 2381 391 2643 752 
Q 2906 1113 2906 1747 
Q 2906 2381 2643 2742 
Q 2381 3103 1925 3103 
Q 1469 3103 1208 2742 
Q 947 2381 947 1747 
z
" transform="scale(0.015625)"/>
        <path id="DejaVuSans-5f" d="M 3263 -1063 
L 3263 -1509 
L -63 -1509 
L -63 -1063 
L 3263 -1063 
z
" transform="scale(0.015625)"/>
        <path id="DejaVuSans-72" d="M 2631 2963 
Q 2534 3019 2420 3045 
Q 2306 3072 2169 3072 
Q 1681 3072 1420 2755 
Q 1159 2438 1159 1844 
L 1159 0 
L 581 0 
L 581 3500 
L 1159 3500 
L 1159 2956 
Q 1341 3275 1631 3429 
Q 1922 3584 2338 3584 
Q 2397 3584 2469 3576 
Q 2541 3569 2628 3553 
L 2631 2963 
z
" transform="scale(0.015625)"/>
        <path id="DejaVuSans-70" d="M 1159 525 
L 1159 -1331 
L 581 -1331 
L 581 3500 
L 1159 3500 
L 1159 2969 
Q 1341 3281 1617 3432 
Q 1894 3584 2278 3584 
Q 2916 3584 3314 3078 
Q 3713 2572 3713 1747 
Q 3713 922 3314 415 
Q 2916 -91 2278 -91 
Q 1894 -91 1617 61 
Q 1341 213 1159 525 
z
M 3116 1747 
Q 3116 2381 2855 2742 
Q 2594 3103 2138 3103 
Q 1681 3103 1420 2742 
Q 1159 2381 1159 1747 
Q 1159 1113 1420 752 
Q 1681 391 2138 391 
Q 2594 391 2855 752 
Q 3116 1113 3116 1747 
z
" transform="scale(0.015625)"/>
       </defs>
       <use xlink:href="#DejaVuSans-62"/>
       <use xlink:href="#DejaVuSans-6c" x="63.476562"/>
       <use xlink:href="#DejaVuSans-6f" x="91.259766"/>
       <use xlink:href="#DejaVuSans-63" x="152.441406"/>
       <use xlink:href="#DejaVuSans-6b" x="207.421875"/>
       <use xlink:href="#DejaVuSans-65" x="261.707031"/>
       <use xlink:href="#DejaVuSans-64" x="323.230469"/>
       <use xlink:href="#DejaVuSans-5f" x="386.707031"/>
       <use xlink:href="#DejaVuSans-72" x="436.707031"/>
       <use xlink:href="#DejaVuSans-65" x="475.570312"/>
       <use xlink:href="#DejaVuSans-70" x="537.09375"/>
      </g>
     </g>
    </g>
    <g id="xtick_2">
     <g id="line2d_2">
      <g>
       <use xlink:href="#mba4021ca22" x="610.2" y="378" style="stroke: #000000; stroke-width: 1.875"/>
      </g>
     </g>
     <g id="text_2">
      <!-- interleaved_rep -->
      <g transform="translate(545.71207 403.037422)scale(0.165 -0.165)">
       <defs>
        <path id="DejaVuSans-69" d="M 603 3500 
L 1178 3500 
L 1178 0 
L 603 0 
L 603 3500 
z
M 603 4863 
L 1178 4863 
L 1178 4134 
L 603 4134 
L 603 4863 
z
" transform="scale(0.015625)"/>
        <path id="DejaVuSans-6e" d="M 3513 2113 
L 3513 0 
L 2938 0 
L 2938 2094 
Q 2938 2591 2744 2837 
Q 2550 3084 2163 3084 
Q 1697 3084 1428 2787 
Q 1159 2491 1159 1978 
L 1159 0 
L 581 0 
L 581 3500 
L 1159 3500 
L 1159 2956 
Q 1366 3272 1645 3428 
Q 1925 3584 2291 3584 
Q 2894 3584 3203 3211 
Q 3513 2838 3513 2113 
z
" transform="scale(0.015625)"/>
        <path id="DejaVuSans-74" d="M 1172 4494 
L 1172 3500 
L 2356 3500 
L 2356 3053 
L 1172 3053 
L 1172 1153 
Q 1172 725 1289 603 
Q 1406 481 1766 481 
L 2356 481 
L 2356 0 
L 1766 0 
Q 1100 0 847 248 
Q 594 497 594 1153 
L 594 3053 
L 172 3053 
L 172 3500 
L 594 3500 
L 594 4494 
L 1172 4494 
z
" transform="scale(0.015625)"/>
        <path id="DejaVuSans-61" d="M 2194 1759 
Q 1497 1759 1228 1600 
Q 959 1441 959 1056 
Q 959 750 1161 570 
Q 1363 391 1709 391 
Q 2188 391 2477 730 
Q 2766 1069 2766 1631 
L 2766 1759 
L 2194 1759 
z
M 3341 1997 
L 3341 0 
L 2766 0 
L 2766 531 
Q 2569 213 2275 61 
Q 1981 -91 1556 -91 
Q 1019 -91 701 211 
Q 384 513 384 1019 
Q 384 1609 779 1909 
Q 1175 2209 1959 2209 
L 2766 2209 
L 2766 2266 
Q 2766 2663 2505 2880 
Q 2244 3097 1772 3097 
Q 1472 3097 1187 3025 
Q 903 2953 641 2809 
L 641 3341 
Q 956 3463 1253 3523 
Q 1550 3584 1831 3584 
Q 2591 3584 2966 3190 
Q 3341 2797 3341 1997 
z
" transform="scale(0.015625)"/>
        <path id="DejaVuSans-76" d="M 191 3500 
L 800 3500 
L 1894 563 
L 2988 3500 
L 3597 3500 
L 2284 0 
L 1503 0 
L 191 3500 
z
" transform="scale(0.015625)"/>
       </defs>
       <use xlink:href="#DejaVuSans-69"/>
       <use xlink:href="#DejaVuSans-6e" x="27.783203"/>
       <use xlink:href="#DejaVuSans-74" x="91.162109"/>
       <use xlink:href="#DejaVuSans-65" x="130.371094"/>
       <use xlink:href="#DejaVuSans-72" x="191.894531"/>
       <use xlink:href="#DejaVuSans-6c" x="233.007812"/>
       <use xlink:href="#DejaVuSans-65" x="260.791016"/>
       <use xlink:href="#DejaVuSans-61" x="322.314453"/>
       <use xlink:href="#DejaVuSans-76" x="383.59375"/>
       <use xlink:href="#DejaVuSans-65" x="442.773438"/>
       <use xlink:href="#DejaVuSans-64" x="504.296875"/>
       <use xlink:href="#DejaVuSans-5f" x="567.773438"/>
       <use xlink:href="#DejaVuSans-72" x="617.773438"/>
       <use xlink:href="#DejaVuSans-65" x="656.636719"/>
       <use xlink:href="#DejaVuSans-70" x="718.160156"/>
      </g>
     </g>
    </g>
    <g id="text_3">
     <!-- condition -->
     <g transform="translate(401.187656 424.605)scale(0.18 -0.18)">
      <use xlink:href="#DejaVuSans-63"/>
      <use xlink:href="#DejaVuSans-6f" x="54.980469"/>
      <use xlink:href="#DejaVuSans-6e" x="116.162109"/>
      <use xlink:href="#DejaVuSans-64" x="179.541016"/>
      <use xlink:href="#DejaVuSans-69" x="243.017578"/>
      <use xlink:href="#DejaVuSans-74" x="270.800781"/>
      <use xlink:href="#DejaVuSans-69" x="310.009766"/>
      <use xlink:href="#DejaVuSans-6f" x="337.792969"/>
      <use xlink:href="#DejaVuSans-6e" x="398.974609"/>
     </g>
    </g>
   </g>
   <g id="matplotlib.axis_2">
    <g id="ytick_1">
     <g id="line2d_3">
      <defs>
       <path id="mc6d7522574" d="M 0 0 
L -9 0 
" style="stroke: #000000; stroke-width: 1.875"/>
      </defs>
      <g>
       <use xlink:href="#mc6d7522574" x="108" y="354.478209" style="stroke: #000000; stroke-width: 1.875"/>
      </g>
     </g>
     <g id="text_4">
      <!-- 0.2 -->
      <g transform="translate(69.259844 360.74692)scale(0.165 -0.165)">
       <defs>
        <path id="DejaVuSans-30" d="M 2034 4250 
Q 1547 4250 1301 3770 
Q 1056 3291 1056 2328 
Q 1056 1369 1301 889 
Q 1547 409 2034 409 
Q 2525 409 2770 889 
Q 3016 1369 3016 2328 
Q 3016 3291 2770 3770 
Q 2525 4250 2034 4250 
z
M 2034 4750 
Q 2819 4750 3233 4129 
Q 3647 3509 3647 2328 
Q 3647 1150 3233 529 
Q 2819 -91 2034 -91 
Q 1250 -91 836 529 
Q 422 1150 422 2328 
Q 422 3509 836 4129 
Q 1250 4750 2034 4750 
z
" transform="scale(0.015625)"/>
        <path id="DejaVuSans-2e" d="M 684 794 
L 1344 794 
L 1344 0 
L 684 0 
L 684 794 
z
" transform="scale(0.015625)"/>
        <path id="DejaVuSans-32" d="M 1228 531 
L 3431 531 
L 3431 0 
L 469 0 
L 469 531 
Q 828 903 1448 1529 
Q 2069 2156 2228 2338 
Q 2531 2678 2651 2914 
Q 2772 3150 2772 3378 
Q 2772 3750 2511 3984 
Q 2250 4219 1831 4219 
Q 1534 4219 1204 4116 
Q 875 4013 500 3803 
L 500 4441 
Q 881 4594 1212 4672 
Q 1544 4750 1819 4750 
Q 2544 4750 2975 4387 
Q 3406 4025 3406 3419 
Q 3406 3131 3298 2873 
Q 3191 2616 2906 2266 
Q 2828 2175 2409 1742 
Q 1991 1309 1228 531 
z
" transform="scale(0.015625)"/>
       </defs>
       <use xlink:href="#DejaVuSans-30"/>
       <use xlink:href="#DejaVuSans-2e" x="63.623047"/>
       <use xlink:href="#DejaVuSans-32" x="95.410156"/>
      </g>
     </g>
    </g>
    <g id="ytick_2">
     <g id="line2d_4">
      <g>
       <use xlink:href="#mc6d7522574" x="108" y="298.253319" style="stroke: #000000; stroke-width: 1.875"/>
      </g>
     </g>
     <g id="text_5">
      <!-- 0.4 -->
      <g transform="translate(69.259844 304.52203)scale(0.165 -0.165)">
       <defs>
        <path id="DejaVuSans-34" d="M 2419 4116 
L 825 1625 
L 2419 1625 
L 2419 4116 
z
M 2253 4666 
L 3047 4666 
L 3047 1625 
L 3713 1625 
L 3713 1100 
L 3047 1100 
L 3047 0 
L 2419 0 
L 2419 1100 
L 313 1100 
L 313 1709 
L 2253 4666 
z
" transform="scale(0.015625)"/>
       </defs>
       <use xlink:href="#DejaVuSans-30"/>
       <use xlink:href="#DejaVuSans-2e" x="63.623047"/>
       <use xlink:href="#DejaVuSans-34" x="95.410156"/>
      </g>
     </g>
    </g>
    <g id="ytick_3">
     <g id="line2d_5">
      <g>
       <use xlink:href="#mc6d7522574" x="108" y="242.028429" style="stroke: #000000; stroke-width: 1.875"/>
      </g>
     </g>
     <g id="text_6">
      <!-- 0.6 -->
      <g transform="translate(69.259844 248.29714)scale(0.165 -0.165)">
       <defs>
        <path id="DejaVuSans-36" d="M 2113 2584 
Q 1688 2584 1439 2293 
Q 1191 2003 1191 1497 
Q 1191 994 1439 701 
Q 1688 409 2113 409 
Q 2538 409 2786 701 
Q 3034 994 3034 1497 
Q 3034 2003 2786 2293 
Q 2538 2584 2113 2584 
z
M 3366 4563 
L 3366 3988 
Q 3128 4100 2886 4159 
Q 2644 4219 2406 4219 
Q 1781 4219 1451 3797 
Q 1122 3375 1075 2522 
Q 1259 2794 1537 2939 
Q 1816 3084 2150 3084 
Q 2853 3084 3261 2657 
Q 3669 2231 3669 1497 
Q 3669 778 3244 343 
Q 2819 -91 2113 -91 
Q 1303 -91 875 529 
Q 447 1150 447 2328 
Q 447 3434 972 4092 
Q 1497 4750 2381 4750 
Q 2619 4750 2861 4703 
Q 3103 4656 3366 4563 
z
" transform="scale(0.015625)"/>
       </defs>
       <use xlink:href="#DejaVuSans-30"/>
       <use xlink:href="#DejaVuSans-2e" x="63.623047"/>
       <use xlink:href="#DejaVuSans-36" x="95.410156"/>
      </g>
     </g>
    </g>
    <g id="ytick_4">
     <g id="line2d_6">
      <g>
       <use xlink:href="#mc6d7522574" x="108" y="185.803539" style="stroke: #000000; stroke-width: 1.875"/>
      </g>
     </g>
     <g id="text_7">
      <!-- 0.8 -->
      <g transform="translate(69.259844 192.07225)scale(0.165 -0.165)">
       <defs>
        <path id="DejaVuSans-38" d="M 2034 2216 
Q 1584 2216 1326 1975 
Q 1069 1734 1069 1313 
Q 1069 891 1326 650 
Q 1584 409 2034 409 
Q 2484 409 2743 651 
Q 3003 894 3003 1313 
Q 3003 1734 2745 1975 
Q 2488 2216 2034 2216 
z
M 1403 2484 
Q 997 2584 770 2862 
Q 544 3141 544 3541 
Q 544 4100 942 4425 
Q 1341 4750 2034 4750 
Q 2731 4750 3128 4425 
Q 3525 4100 3525 3541 
Q 3525 3141 3298 2862 
Q 3072 2584 2669 2484 
Q 3125 2378 3379 2068 
Q 3634 1759 3634 1313 
Q 3634 634 3220 271 
Q 2806 -91 2034 -91 
Q 1263 -91 848 271 
Q 434 634 434 1313 
Q 434 1759 690 2068 
Q 947 2378 1403 2484 
z
M 1172 3481 
Q 1172 3119 1398 2916 
Q 1625 2713 2034 2713 
Q 2441 2713 2670 2916 
Q 2900 3119 2900 3481 
Q 2900 3844 2670 4047 
Q 2441 4250 2034 4250 
Q 1625 4250 1398 4047 
Q 1172 3844 1172 3481 
z
" transform="scale(0.015625)"/>
       </defs>
       <use xlink:href="#DejaVuSans-30"/>
       <use xlink:href="#DejaVuSans-2e" x="63.623047"/>
       <use xlink:href="#DejaVuSans-38" x="95.410156"/>
      </g>
     </g>
    </g>
    <g id="ytick_5">
     <g id="line2d_7">
      <g>
       <use xlink:href="#mc6d7522574" x="108" y="129.578649" style="stroke: #000000; stroke-width: 1.875"/>
      </g>
     </g>
     <g id="text_8">
      <!-- 1.0 -->
      <g transform="translate(69.259844 135.84736)scale(0.165 -0.165)">
       <defs>
        <path id="DejaVuSans-31" d="M 794 531 
L 1825 531 
L 1825 4091 
L 703 3866 
L 703 4441 
L 1819 4666 
L 2450 4666 
L 2450 531 
L 3481 531 
L 3481 0 
L 794 0 
L 794 531 
z
" transform="scale(0.015625)"/>
       </defs>
       <use xlink:href="#DejaVuSans-31"/>
       <use xlink:href="#DejaVuSans-2e" x="63.623047"/>
       <use xlink:href="#DejaVuSans-30" x="95.410156"/>
      </g>
     </g>
    </g>
    <g id="ytick_6">
     <g id="line2d_8">
      <g>
       <use xlink:href="#mc6d7522574" x="108" y="73.353759" style="stroke: #000000; stroke-width: 1.875"/>
      </g>
     </g>
     <g id="text_9">
      <!-- 1.2 -->
      <g transform="translate(69.259844 79.62247)scale(0.165 -0.165)">
       <use xlink:href="#DejaVuSans-31"/>
       <use xlink:href="#DejaVuSans-2e" x="63.623047"/>
       <use xlink:href="#DejaVuSans-32" x="95.410156"/>
      </g>
     </g>
    </g>
    <g id="text_10">
     <!-- prediction accuracy -->
     <g transform="translate(61.516406 303.537656)rotate(-90)scale(0.18 -0.18)">
      <defs>
       <path id="DejaVuSans-20" transform="scale(0.015625)"/>
       <path id="DejaVuSans-75" d="M 544 1381 
L 544 3500 
L 1119 3500 
L 1119 1403 
Q 1119 906 1312 657 
Q 1506 409 1894 409 
Q 2359 409 2629 706 
Q 2900 1003 2900 1516 
L 2900 3500 
L 3475 3500 
L 3475 0 
L 2900 0 
L 2900 538 
Q 2691 219 2414 64 
Q 2138 -91 1772 -91 
Q 1169 -91 856 284 
Q 544 659 544 1381 
z
M 1991 3584 
L 1991 3584 
z
" transform="scale(0.015625)"/>
       <path id="DejaVuSans-79" d="M 2059 -325 
Q 1816 -950 1584 -1140 
Q 1353 -1331 966 -1331 
L 506 -1331 
L 506 -850 
L 844 -850 
Q 1081 -850 1212 -737 
Q 1344 -625 1503 -206 
L 1606 56 
L 191 3500 
L 800 3500 
L 1894 763 
L 2988 3500 
L 3597 3500 
L 2059 -325 
z
" transform="scale(0.015625)"/>
      </defs>
      <use xlink:href="#DejaVuSans-70"/>
      <use xlink:href="#DejaVuSans-72" x="63.476562"/>
      <use xlink:href="#DejaVuSans-65" x="102.339844"/>
      <use xlink:href="#DejaVuSans-64" x="163.863281"/>
      <use xlink:href="#DejaVuSans-69" x="227.339844"/>
      <use xlink:href="#DejaVuSans-63" x="255.123047"/>
      <use xlink:href="#DejaVuSans-74" x="310.103516"/>
      <use xlink:href="#DejaVuSans-69" x="349.3125"/>
      <use xlink:href="#DejaVuSans-6f" x="377.095703"/>
      <use xlink:href="#DejaVuSans-6e" x="438.277344"/>
      <use xlink:href="#DejaVuSans-20" x="501.65625"/>
      <use xlink:href="#DejaVuSans-61" x="533.443359"/>
      <use xlink:href="#DejaVuSans-63" x="594.722656"/>
      <use xlink:href="#DejaVuSans-63" x="649.703125"/>
      <use xlink:href="#DejaVuSans-75" x="704.683594"/>
      <use xlink:href="#DejaVuSans-72" x="768.0625"/>
      <use xlink:href="#DejaVuSans-61" x="809.175781"/>
      <use xlink:href="#DejaVuSans-63" x="870.455078"/>
      <use xlink:href="#DejaVuSans-79" x="925.435547"/>
     </g>
    </g>
   </g>
   <g id="line2d_9">
    <path d="M 275.4 165.852772 
L 275.4 129.578649 
" clip-path="url(#p6a73dabd4e)" style="fill: none; stroke: #3f3f3f; stroke-width: 2.25; stroke-linecap: square"/>
   </g>
   <g id="line2d_10">
    <path d="M 275.4 156.372035 
L 275.4 129.578649 
" clip-path="url(#p6a73dabd4e)" style="fill: none; stroke: #3f3f3f; stroke-width: 6.75; stroke-linecap: square"/>
   </g>
   <g id="line2d_11">
    <path d="M 610.2 300.261351 
L 610.2 129.578649 
" clip-path="url(#p6a73dabd4e)" style="fill: none; stroke: #3f3f3f; stroke-width: 2.25; stroke-linecap: square"/>
   </g>
   <g id="line2d_12">
    <path d="M 610.2 264.151701 
L 610.2 149.485861 
" clip-path="url(#p6a73dabd4e)" style="fill: none; stroke: #3f3f3f; stroke-width: 6.75; stroke-linecap: square"/>
   </g>
   <g id="patch_3">
    <path d="M 108 378 
L 108 51.84 
" style="fill: none; stroke: #000000; stroke-width: 1.875; stroke-linejoin: miter; stroke-linecap: square"/>
   </g>
   <g id="patch_4">
    <path d="M 777.6 378 
L 777.6 51.84 
" style="fill: none; stroke: #000000; stroke-width: 1.875; stroke-linejoin: miter; stroke-linecap: square"/>
   </g>
   <g id="patch_5">
    <path d="M 108 378 
L 777.6 378 
" style="fill: none; stroke: #000000; stroke-width: 1.875; stroke-linejoin: miter; stroke-linecap: square"/>
   </g>
   <g id="patch_6">
    <path d="M 108 51.84 
L 777.6 51.84 
" style="fill: none; stroke: #000000; stroke-width: 1.875; stroke-linejoin: miter; stroke-linecap: square"/>
   </g>
   <g id="PathCollection_1">
    <defs>
     <path id="m099c9e800c" d="M 0 2.25 
C 0.596707 2.25 1.169055 2.012926 1.59099 1.59099 
C 2.012926 1.169055 2.25 0.596707 2.25 0 
C 2.25 -0.596707 2.012926 -1.169055 1.59099 -1.59099 
C 1.169055 -2.012926 0.596707 -2.25 0 -2.25 
C -0.596707 -2.25 -1.169055 -2.012926 -1.59099 -1.59099 
C -2.012926 -1.169055 -2.25 -0.596707 -2.25 0 
C -2.25 0.596707 -2.012926 1.169055 -1.59099 1.59099 
C -1.169055 2.012926 -0.596707 2.25 0 2.25 
z
" style="stroke: #3f3f3f; stroke-width: 1.5"/>
    </defs>
    <g clip-path="url(#p6a73dabd4e)">
     <use xlink:href="#m099c9e800c" x="275.4" y="140.190897" style="fill: #ffffff; stroke: #3f3f3f; stroke-width: 1.5"/>
    </g>
   </g>
   <g id="PathCollection_2">
    <g clip-path="url(#p6a73dabd4e)">
     <use xlink:href="#m099c9e800c" x="610.2" y="238.052227" style="fill: #ffffff; stroke: #3f3f3f; stroke-width: 1.5"/>
    </g>
   </g>
  </g>
 </g>
 <defs>
  <clipPath id="p6a73dabd4e">
   <rect x="108" y="51.84" width="669.6" height="326.16"/>
  </clipPath>
 </defs>
</svg>
