<?xml version="1.0" encoding="utf-8" standalone="no"?>
<!DOCTYPE svg PUBLIC "-//W3C//DTD SVG 1.1//EN"
  "http://www.w3.org/Graphics/SVG/1.1/DTD/svg11.dtd">
<!-- Created with matplotlib (https://matplotlib.org/) -->
<svg height="432pt" version="1.1" viewBox="0 0 864 432" width="864pt" xmlns="http://www.w3.org/2000/svg" xmlns:xlink="http://www.w3.org/1999/xlink">
 <metadata>
  <rdf:RDF xmlns:cc="http://creativecommons.org/ns#" xmlns:dc="http://purl.org/dc/elements/1.1/" xmlns:rdf="http://www.w3.org/1999/02/22-rdf-syntax-ns#">
   <cc:Work>
    <dc:type rdf:resource="http://purl.org/dc/dcmitype/StillImage"/>
    <dc:date>2023-04-16T12:01:23.206033</dc:date>
    <dc:format>image/svg+xml</dc:format>
    <dc:creator>
     <cc:Agent>
      <dc:title>Matplotlib v3.3.4, https://matplotlib.org/</dc:title>
     </cc:Agent>
    </dc:creator>
   </cc:Work>
  </rdf:RDF>
 </metadata>
 <defs>
  <style type="text/css">*{stroke-linecap:butt;stroke-linejoin:round;}</style>
 </defs>
 <g id="figure_1">
  <g id="patch_1">
   <path d="M 0 432 
L 864 432 
L 864 0 
L 0 0 
z
" style="fill:none;"/>
  </g>
  <g id="axes_1">
   <g id="patch_2">
    <path d="M 108 378 
L 777.6 378 
L 777.6 51.84 
L 108 51.84 
z
" style="fill:#ffffff;"/>
   </g>
   <g id="PolyCollection_1">
    <defs>
     <path d="M 138.436364 -257.202857 
L 138.436364 -191.076623 
L 141.48 -189.256318 
L 144.523636 -205.986122 
L 147.567273 -144.853427 
L 150.610909 -212.334929 
L 153.654545 -134.716364 
L 156.698182 -250.703509 
L 159.741818 -221.985921 
L 162.785455 -249.369632 
L 165.829091 -181.781299 
L 168.872727 -226.772186 
L 171.916364 -204.054282 
L 174.96 -205.741629 
L 178.003636 -246.948132 
L 181.047273 -206.098182 
L 184.090909 -183.695805 
L 187.134545 -210.02026 
L 190.178182 -183.695805 
L 193.221818 -204.977588 
L 196.265455 -220.557186 
L 199.309091 -184.806902 
L 202.352727 -178.137562 
L 205.396364 -198.054598 
L 208.44 -207.507471 
L 211.483636 -171.512586 
L 214.527273 -172.368312 
L 217.570909 -241.13098 
L 220.614545 -168.184762 
L 223.658182 -243.242567 
L 226.701818 -190.545114 
L 229.745455 -235.481618 
L 232.789091 -204.977588 
L 235.832727 -223.684273 
L 238.876364 -145.474063 
L 241.92 -242.603676 
L 244.963636 -136.439868 
L 248.007273 -229.100639 
L 251.050909 -178.409482 
L 254.094545 -205.313766 
L 257.138182 -185.367199 
L 260.181818 -220.881399 
L 263.225455 -187.958571 
L 266.269091 -214.574931 
L 269.312727 -150.809535 
L 272.356364 -201.462999 
L 275.4 -190.545114 
L 278.443636 -193.817577 
L 281.487273 -165.64475 
L 284.530909 -243.827467 
L 287.574545 -199.483334 
L 290.618182 -235.481618 
L 293.661818 -214.726753 
L 296.705455 -187.246904 
L 299.749091 -229.495405 
L 302.792727 -183.695805 
L 305.836364 -232.190321 
L 308.88 -207.627127 
L 311.923636 -195.900779 
L 314.967273 -212.334929 
L 318.010909 -195.268564 
L 321.054545 -245.917244 
L 324.098182 -201.951985 
L 327.141818 -227.134782 
L 330.185455 -194.331948 
L 333.229091 -224.34437 
L 336.272727 -180.950741 
L 339.316364 -215.062931 
L 342.36 -180.950741 
L 345.403636 -216.342415 
L 348.447273 -164.550746 
L 351.490909 -212.684313 
L 354.534545 -243.638071 
L 357.578182 -243.242567 
L 360.621818 -195.268564 
L 363.665455 -237.416267 
L 366.709091 -190.948424 
L 369.752727 -233.552727 
L 372.796364 -204.137143 
L 375.84 -231.55845 
L 378.883636 -241.13098 
L 381.927273 -212.127645 
L 384.970909 -212.261447 
L 388.014545 -218.325837 
L 391.058182 -242.965714 
L 394.101818 -193.268334 
L 397.145455 -195.696149 
L 400.189091 -246.327495 
L 403.232727 -192.612681 
L 406.276364 -254.143636 
L 409.32 -185.676328 
L 412.363636 -201.951985 
L 415.407273 -218.844935 
L 418.450909 -275.911169 
L 421.494545 -190.47021 
L 424.538182 -234.93699 
L 427.581818 -186.125754 
L 430.625455 -223.684273 
L 433.669091 -189.849573 
L 436.712727 -244.740294 
L 439.756364 -227.66961 
L 442.8 -219.433247 
L 445.843636 -227.66961 
L 448.887273 -230.190946 
L 451.930909 -236.03671 
L 454.974545 -221.593604 
L 458.018182 -235.692043 
L 461.061818 -230.784202 
L 464.105455 -174.721558 
L 467.149091 -216.743822 
L 470.192727 -202.588954 
L 473.236364 -265.642456 
L 476.28 -220.251767 
L 479.323636 -210.02026 
L 482.367273 -198.814323 
L 485.410909 -220.105603 
L 488.454545 -216.159164 
L 491.498182 -230.85228 
L 494.541818 -189.188239 
L 497.585455 -274.566456 
L 500.629091 -226.963636 
L 503.672727 -212.497362 
L 506.716364 -202.028101 
L 509.76 -220.557186 
L 512.803636 -237.26838 
L 515.847273 -236.494286 
L 518.890909 -200.910917 
L 521.934545 -230.190946 
L 524.978182 -198.054598 
L 528.021818 -228.846234 
L 531.065455 -216.536943 
L 534.109091 -249.731299 
L 537.152727 -183.873074 
L 540.196364 -228.238944 
L 543.24 -213.942338 
L 546.283636 -175.387572 
L 549.327273 -213.836336 
L 552.370909 -184.806902 
L 555.414545 -201.195584 
L 558.458182 -221.114137 
L 561.501818 -190.545114 
L 564.545455 -233.552727 
L 567.589091 -222.478625 
L 570.632727 -238.259221 
L 573.676364 -205.607922 
L 576.72 -189.849573 
L 579.763636 -241.13098 
L 582.807273 -205.741629 
L 585.850909 -249.554805 
L 588.894545 -227.027816 
L 591.938182 -212.066561 
L 594.981818 -228.66863 
L 598.025455 -205.607922 
L 601.069091 -220.557186 
L 604.112727 -231.55845 
L 607.156364 -233.552727 
L 610.2 -212.413392 
L 613.243636 -199.788752 
L 616.287273 -216.631763 
L 619.330909 -257.085195 
L 622.374545 -210.02026 
L 625.418182 -186.915655 
L 628.461818 -234.364192 
L 631.505455 -212.127645 
L 634.549091 -199.934917 
L 637.592727 -248.899989 
L 640.636364 -230.85228 
L 643.68 -244.101764 
L 646.723636 -198.814323 
L 649.767273 -220.881399 
L 652.810909 -212.261447 
L 655.854545 -198.446915 
L 658.898182 -255.404304 
L 661.941818 -236.344715 
L 664.985455 -252.60282 
L 668.029091 -184.08652 
L 671.072727 -201.714683 
L 674.116364 -254.39577 
L 677.16 -212.587438 
L 680.203636 -189.188239 
L 683.247273 -207.453081 
L 686.290909 -191.194286 
L 689.334545 -252.806564 
L 692.378182 -215.986237 
L 695.421818 -218.66484 
L 698.465455 -225.225854 
L 701.509091 -247.672208 
L 704.552727 -223.257273 
L 707.596364 -178.90954 
L 710.64 -212.192488 
L 713.683636 -218.325837 
L 716.727273 -245.917244 
L 719.770909 -220.881399 
L 722.814545 -239.232978 
L 725.858182 -226.631413 
L 728.901818 -257.085195 
L 731.945455 -219.963556 
L 734.989091 -263.57691 
L 738.032727 -224.771956 
L 741.076364 -204.372468 
L 744.12 -192.370909 
L 744.12 -274.734545 
L 744.12 -274.734545 
L 741.076364 -272.145974 
L 738.032727 -287.99351 
L 734.989091 -317.25528 
L 731.945455 -283.600651 
L 728.901818 -310.873692 
L 725.858182 -288.923239 
L 722.814545 -302.527201 
L 719.770909 -286.048232 
L 716.727273 -303.352419 
L 713.683636 -290.307502 
L 710.64 -281.703776 
L 707.596364 -250.703509 
L 704.552727 -289.442338 
L 701.509091 -308.856623 
L 698.465455 -286.048232 
L 695.421818 -287.821479 
L 692.378182 -279.623333 
L 689.334545 -308.535726 
L 686.290909 -266.498182 
L 683.247273 -274.199717 
L 680.203636 -258.628307 
L 677.16 -284.46843 
L 674.116364 -306.839555 
L 671.072727 -268.159297 
L 668.029091 -264.769266 
L 664.985455 -310.873692 
L 661.941818 -298.566155 
L 658.898182 -315.916364 
L 655.854545 -267.886983 
L 652.810909 -279.497069 
L 649.767273 -296.909371 
L 646.723636 -275.014694 
L 643.68 -307.395987 
L 640.636364 -295.66301 
L 637.592727 -306.196431 
L 634.549091 -270.532319 
L 631.505455 -279.56397 
L 628.461818 -297.658415 
L 625.418182 -263.931004 
L 622.374545 -276.464874 
L 619.330909 -312.707391 
L 616.287273 -283.979443 
L 613.243636 -265.270401 
L 610.2 -284.207361 
L 607.156364 -296.305974 
L 604.112727 -293.899547 
L 601.069091 -283.77874 
L 598.025455 -271.792987 
L 594.981818 -297.934006 
L 591.938182 -277.54821 
L 588.894545 -287.035608 
L 585.850909 -302.267532 
L 582.807273 -269.921086 
L 579.763636 -308.138684 
L 576.72 -260.446976 
L 573.676364 -271.792987 
L 570.632727 -299.081598 
L 567.589091 -284.770451 
L 564.545455 -294.737143 
L 561.501818 -263.57691 
L 558.458182 -283.979443 
L 555.414545 -271.792987 
L 552.370909 -255.404304 
L 549.327273 -274.988951 
L 546.283636 -249.981054 
L 543.24 -280.617662 
L 540.196364 -296.559011 
L 537.152727 -262.314632 
L 534.109091 -311.504026 
L 531.065455 -277.359321 
L 528.021818 -290.030649 
L 524.978182 -265.062302 
L 521.934545 -292.944193 
L 518.890909 -269.230984 
L 515.847273 -298.267013 
L 512.803636 -301.673028 
L 509.76 -283.77874 
L 506.716364 -276.621583 
L 503.672727 -281.856213 
L 500.629091 -300.384935 
L 497.585455 -323.076957 
L 494.541818 -258.628307 
L 491.498182 -300.292348 
L 488.454545 -281.640813 
L 485.410909 -290.703006 
L 482.367273 -266.162004 
L 479.323636 -278.340327 
L 476.28 -285.733416 
L 473.236364 -321.264652 
L 470.192727 -271.947806 
L 467.149091 -283.979443 
L 464.105455 -245.445028 
L 461.061818 -293.076028 
L 458.018182 -299.871499 
L 454.974545 -286.404335 
L 451.930909 -298.920693 
L 448.887273 -292.944193 
L 445.843636 -289.442338 
L 442.8 -285.324156 
L 439.756364 -293.854675 
L 436.712727 -309.551024 
L 433.669091 -254.39577 
L 430.625455 -287.449669 
L 427.581818 -251.401199 
L 424.538182 -297.228816 
L 421.494545 -259.981499 
L 418.450909 -327.682597 
L 415.407273 -285.03 
L 412.363636 -266.498182 
L 409.32 -258.708124 
L 406.276364 -307.091688 
L 403.232727 -254.506294 
L 400.189091 -302.906271 
L 397.145455 -265.270401 
L 394.101818 -269.848567 
L 391.058182 -308.856623 
L 388.014545 -284.770451 
L 384.970909 -279.497069 
L 381.927273 -279.56397 
L 378.883636 -308.138684 
L 375.84 -293.77989 
L 372.796364 -280.617662 
L 369.752727 -299.443636 
L 366.709091 -258.490118 
L 363.665455 -296.423051 
L 360.621818 -258.595487 
L 357.578182 -301.381604 
L 354.534545 -306.391317 
L 351.490909 -287.277795 
L 348.447273 -236.344715 
L 345.403636 -283.77874 
L 342.36 -247.395355 
L 339.316364 -285.660334 
L 336.272727 -247.395355 
L 333.229091 -289.826019 
L 330.185455 -267.544069 
L 327.141818 -291.314238 
L 324.098182 -266.498182 
L 321.054545 -308.138684 
L 318.010909 -262.704889 
L 314.967273 -281.774997 
L 311.923636 -266.498182 
L 308.88 -274.634832 
L 305.836364 -296.718824 
L 302.792727 -255.60943 
L 299.749091 -292.789628 
L 296.705455 -260.121642 
L 293.661818 -285.324156 
L 290.618182 -300.292348 
L 287.574545 -262.704889 
L 284.530909 -299.509925 
L 281.487273 -230.190946 
L 278.443636 -267.886983 
L 275.4 -258.708124 
L 272.356364 -269.921086 
L 269.312727 -223.684273 
L 266.269091 -282.894998 
L 263.225455 -258.555974 
L 260.181818 -286.048232 
L 257.138182 -257.085195 
L 254.094545 -275.911169 
L 251.050909 -245.845807 
L 248.007273 -286.341776 
L 244.963636 -204.054282 
L 241.92 -307.770509 
L 238.876364 -210.02026 
L 235.832727 -292.00434 
L 232.789091 -270.532319 
L 229.745455 -300.292348 
L 226.701818 -258.708124 
L 223.658182 -301.381604 
L 220.614545 -241.396883 
L 217.570909 -308.138684 
L 214.527273 -247.672208 
L 211.483636 -248.527934 
L 208.44 -274.754488 
L 205.396364 -269.848567 
L 202.352727 -251.0123 
L 199.309091 -255.404304 
L 196.265455 -287.99351 
L 193.221818 -275.574991 
L 190.178182 -250.703509 
L 187.134545 -280.617662 
L 184.090909 -250.703509 
L 181.047273 -268.851429 
L 178.003636 -303.534665 
L 174.96 -269.921086 
L 171.916364 -267.691377 
L 168.872727 -293.77989 
L 165.829091 -257.085195 
L 162.785455 -314.180362 
L 159.741818 -288.993625 
L 156.698182 -312.924948 
L 153.654545 -205.313766 
L 150.610909 -277.145659 
L 147.567273 -220.881399 
L 144.523636 -270.532319 
L 141.48 -251.548144 
L 138.436364 -257.202857 
z
" id="mf49db35dc7" style="stroke:#800080;stroke-opacity:0.2;stroke-width:1.5;"/>
    </defs>
    <g clip-path="url(#p62f22e1b21)">
     <use style="fill:#800080;fill-opacity:0.2;stroke:#800080;stroke-opacity:0.2;stroke-width:1.5;" x="0" xlink:href="#mf49db35dc7" y="432"/>
    </g>
   </g>
   <g id="PolyCollection_2">
    <defs>
     <path d="M 138.436364 -365.334545 
L 138.436364 -68.825455 
L 141.48 -68.825455 
L 144.523636 -68.825455 
L 147.567273 -68.825455 
L 150.610909 -68.825455 
L 153.654545 -68.825455 
L 156.698182 -68.825455 
L 159.741818 -68.825455 
L 162.785455 -68.825455 
L 165.829091 -68.825455 
L 168.872727 -68.825455 
L 171.916364 -68.825455 
L 174.96 -68.825455 
L 178.003636 -68.825455 
L 181.047273 -68.825455 
L 184.090909 -68.825455 
L 187.134545 -68.825455 
L 190.178182 -68.825455 
L 193.221818 -68.825455 
L 196.265455 -68.825455 
L 199.309091 -68.825455 
L 202.352727 -68.825455 
L 205.396364 -68.825455 
L 208.44 -68.825455 
L 211.483636 -68.825455 
L 214.527273 -68.825455 
L 217.570909 -68.825455 
L 220.614545 -68.825455 
L 223.658182 -68.825455 
L 226.701818 -68.825455 
L 229.745455 -68.825455 
L 232.789091 -68.825455 
L 235.832727 -68.825455 
L 238.876364 -68.825455 
L 241.92 -68.825455 
L 244.963636 -68.825455 
L 248.007273 -68.825455 
L 251.050909 -68.825455 
L 254.094545 -68.825455 
L 257.138182 -68.825455 
L 260.181818 -68.825455 
L 260.181818 -365.334545 
L 260.181818 -365.334545 
L 257.138182 -365.334545 
L 254.094545 -365.334545 
L 251.050909 -365.334545 
L 248.007273 -365.334545 
L 244.963636 -365.334545 
L 241.92 -365.334545 
L 238.876364 -365.334545 
L 235.832727 -365.334545 
L 232.789091 -365.334545 
L 229.745455 -365.334545 
L 226.701818 -365.334545 
L 223.658182 -365.334545 
L 220.614545 -365.334545 
L 217.570909 -365.334545 
L 214.527273 -365.334545 
L 211.483636 -365.334545 
L 208.44 -365.334545 
L 205.396364 -365.334545 
L 202.352727 -365.334545 
L 199.309091 -365.334545 
L 196.265455 -365.334545 
L 193.221818 -365.334545 
L 190.178182 -365.334545 
L 187.134545 -365.334545 
L 184.090909 -365.334545 
L 181.047273 -365.334545 
L 178.003636 -365.334545 
L 174.96 -365.334545 
L 171.916364 -365.334545 
L 168.872727 -365.334545 
L 165.829091 -365.334545 
L 162.785455 -365.334545 
L 159.741818 -365.334545 
L 156.698182 -365.334545 
L 153.654545 -365.334545 
L 150.610909 -365.334545 
L 147.567273 -365.334545 
L 144.523636 -365.334545 
L 141.48 -365.334545 
L 138.436364 -365.334545 
z
" id="m77b5f2b091" style="stroke:#800080;stroke-opacity:0.2;stroke-width:1.5;"/>
    </defs>
    <g clip-path="url(#p62f22e1b21)">
     <use style="fill:#800080;fill-opacity:0.2;stroke:#800080;stroke-opacity:0.2;stroke-width:1.5;" x="0" xlink:href="#m77b5f2b091" y="432"/>
    </g>
   </g>
   <g id="PolyCollection_3">
    <defs>
     <path d="M 260.181818 -365.334545 
L 260.181818 -68.825455 
L 263.225455 -68.825455 
L 266.269091 -68.825455 
L 269.312727 -68.825455 
L 272.356364 -68.825455 
L 275.4 -68.825455 
L 278.443636 -68.825455 
L 281.487273 -68.825455 
L 284.530909 -68.825455 
L 287.574545 -68.825455 
L 290.618182 -68.825455 
L 293.661818 -68.825455 
L 296.705455 -68.825455 
L 299.749091 -68.825455 
L 302.792727 -68.825455 
L 305.836364 -68.825455 
L 308.88 -68.825455 
L 311.923636 -68.825455 
L 314.967273 -68.825455 
L 318.010909 -68.825455 
L 321.054545 -68.825455 
L 324.098182 -68.825455 
L 327.141818 -68.825455 
L 330.185455 -68.825455 
L 333.229091 -68.825455 
L 336.272727 -68.825455 
L 339.316364 -68.825455 
L 342.36 -68.825455 
L 345.403636 -68.825455 
L 348.447273 -68.825455 
L 351.490909 -68.825455 
L 354.534545 -68.825455 
L 357.578182 -68.825455 
L 360.621818 -68.825455 
L 363.665455 -68.825455 
L 366.709091 -68.825455 
L 369.752727 -68.825455 
L 372.796364 -68.825455 
L 375.84 -68.825455 
L 378.883636 -68.825455 
L 381.927273 -68.825455 
L 381.927273 -365.334545 
L 381.927273 -365.334545 
L 378.883636 -365.334545 
L 375.84 -365.334545 
L 372.796364 -365.334545 
L 369.752727 -365.334545 
L 366.709091 -365.334545 
L 363.665455 -365.334545 
L 360.621818 -365.334545 
L 357.578182 -365.334545 
L 354.534545 -365.334545 
L 351.490909 -365.334545 
L 348.447273 -365.334545 
L 345.403636 -365.334545 
L 342.36 -365.334545 
L 339.316364 -365.334545 
L 336.272727 -365.334545 
L 333.229091 -365.334545 
L 330.185455 -365.334545 
L 327.141818 -365.334545 
L 324.098182 -365.334545 
L 321.054545 -365.334545 
L 318.010909 -365.334545 
L 314.967273 -365.334545 
L 311.923636 -365.334545 
L 308.88 -365.334545 
L 305.836364 -365.334545 
L 302.792727 -365.334545 
L 299.749091 -365.334545 
L 296.705455 -365.334545 
L 293.661818 -365.334545 
L 290.618182 -365.334545 
L 287.574545 -365.334545 
L 284.530909 -365.334545 
L 281.487273 -365.334545 
L 278.443636 -365.334545 
L 275.4 -365.334545 
L 272.356364 -365.334545 
L 269.312727 -365.334545 
L 266.269091 -365.334545 
L 263.225455 -365.334545 
L 260.181818 -365.334545 
z
" id="m4e3777bd9b" style="stroke:#800080;stroke-opacity:0.2;stroke-width:1.5;"/>
    </defs>
    <g clip-path="url(#p62f22e1b21)">
     <use style="fill:#800080;fill-opacity:0.2;stroke:#800080;stroke-opacity:0.2;stroke-width:1.5;" x="0" xlink:href="#m4e3777bd9b" y="432"/>
    </g>
   </g>
   <g id="PolyCollection_4">
    <defs>
     <path d="M 381.927273 -365.334545 
L 381.927273 -68.825455 
L 384.970909 -68.825455 
L 388.014545 -68.825455 
L 391.058182 -68.825455 
L 394.101818 -68.825455 
L 397.145455 -68.825455 
L 400.189091 -68.825455 
L 403.232727 -68.825455 
L 406.276364 -68.825455 
L 409.32 -68.825455 
L 412.363636 -68.825455 
L 415.407273 -68.825455 
L 418.450909 -68.825455 
L 421.494545 -68.825455 
L 424.538182 -68.825455 
L 427.581818 -68.825455 
L 430.625455 -68.825455 
L 433.669091 -68.825455 
L 436.712727 -68.825455 
L 439.756364 -68.825455 
L 442.8 -68.825455 
L 445.843636 -68.825455 
L 448.887273 -68.825455 
L 451.930909 -68.825455 
L 454.974545 -68.825455 
L 458.018182 -68.825455 
L 461.061818 -68.825455 
L 464.105455 -68.825455 
L 467.149091 -68.825455 
L 470.192727 -68.825455 
L 473.236364 -68.825455 
L 476.28 -68.825455 
L 479.323636 -68.825455 
L 482.367273 -68.825455 
L 485.410909 -68.825455 
L 488.454545 -68.825455 
L 491.498182 -68.825455 
L 494.541818 -68.825455 
L 497.585455 -68.825455 
L 500.629091 -68.825455 
L 503.672727 -68.825455 
L 503.672727 -365.334545 
L 503.672727 -365.334545 
L 500.629091 -365.334545 
L 497.585455 -365.334545 
L 494.541818 -365.334545 
L 491.498182 -365.334545 
L 488.454545 -365.334545 
L 485.410909 -365.334545 
L 482.367273 -365.334545 
L 479.323636 -365.334545 
L 476.28 -365.334545 
L 473.236364 -365.334545 
L 470.192727 -365.334545 
L 467.149091 -365.334545 
L 464.105455 -365.334545 
L 461.061818 -365.334545 
L 458.018182 -365.334545 
L 454.974545 -365.334545 
L 451.930909 -365.334545 
L 448.887273 -365.334545 
L 445.843636 -365.334545 
L 442.8 -365.334545 
L 439.756364 -365.334545 
L 436.712727 -365.334545 
L 433.669091 -365.334545 
L 430.625455 -365.334545 
L 427.581818 -365.334545 
L 424.538182 -365.334545 
L 421.494545 -365.334545 
L 418.450909 -365.334545 
L 415.407273 -365.334545 
L 412.363636 -365.334545 
L 409.32 -365.334545 
L 406.276364 -365.334545 
L 403.232727 -365.334545 
L 400.189091 -365.334545 
L 397.145455 -365.334545 
L 394.101818 -365.334545 
L 391.058182 -365.334545 
L 388.014545 -365.334545 
L 384.970909 -365.334545 
L 381.927273 -365.334545 
z
" id="mc1f9773de7" style="stroke:#800080;stroke-opacity:0.2;stroke-width:1.5;"/>
    </defs>
    <g clip-path="url(#p62f22e1b21)">
     <use style="fill:#800080;fill-opacity:0.2;stroke:#800080;stroke-opacity:0.2;stroke-width:1.5;" x="0" xlink:href="#mc1f9773de7" y="432"/>
    </g>
   </g>
   <g id="PolyCollection_5">
    <defs>
     <path d="M 503.672727 -365.334545 
L 503.672727 -68.825455 
L 506.716364 -68.825455 
L 509.76 -68.825455 
L 512.803636 -68.825455 
L 515.847273 -68.825455 
L 518.890909 -68.825455 
L 521.934545 -68.825455 
L 524.978182 -68.825455 
L 528.021818 -68.825455 
L 531.065455 -68.825455 
L 534.109091 -68.825455 
L 537.152727 -68.825455 
L 540.196364 -68.825455 
L 543.24 -68.825455 
L 546.283636 -68.825455 
L 549.327273 -68.825455 
L 552.370909 -68.825455 
L 555.414545 -68.825455 
L 558.458182 -68.825455 
L 561.501818 -68.825455 
L 564.545455 -68.825455 
L 567.589091 -68.825455 
L 570.632727 -68.825455 
L 573.676364 -68.825455 
L 576.72 -68.825455 
L 579.763636 -68.825455 
L 582.807273 -68.825455 
L 585.850909 -68.825455 
L 588.894545 -68.825455 
L 591.938182 -68.825455 
L 594.981818 -68.825455 
L 598.025455 -68.825455 
L 601.069091 -68.825455 
L 604.112727 -68.825455 
L 607.156364 -68.825455 
L 610.2 -68.825455 
L 613.243636 -68.825455 
L 616.287273 -68.825455 
L 619.330909 -68.825455 
L 622.374545 -68.825455 
L 625.418182 -68.825455 
L 625.418182 -365.334545 
L 625.418182 -365.334545 
L 622.374545 -365.334545 
L 619.330909 -365.334545 
L 616.287273 -365.334545 
L 613.243636 -365.334545 
L 610.2 -365.334545 
L 607.156364 -365.334545 
L 604.112727 -365.334545 
L 601.069091 -365.334545 
L 598.025455 -365.334545 
L 594.981818 -365.334545 
L 591.938182 -365.334545 
L 588.894545 -365.334545 
L 585.850909 -365.334545 
L 582.807273 -365.334545 
L 579.763636 -365.334545 
L 576.72 -365.334545 
L 573.676364 -365.334545 
L 570.632727 -365.334545 
L 567.589091 -365.334545 
L 564.545455 -365.334545 
L 561.501818 -365.334545 
L 558.458182 -365.334545 
L 555.414545 -365.334545 
L 552.370909 -365.334545 
L 549.327273 -365.334545 
L 546.283636 -365.334545 
L 543.24 -365.334545 
L 540.196364 -365.334545 
L 537.152727 -365.334545 
L 534.109091 -365.334545 
L 531.065455 -365.334545 
L 528.021818 -365.334545 
L 524.978182 -365.334545 
L 521.934545 -365.334545 
L 518.890909 -365.334545 
L 515.847273 -365.334545 
L 512.803636 -365.334545 
L 509.76 -365.334545 
L 506.716364 -365.334545 
L 503.672727 -365.334545 
z
" id="m6d39f8cefd" style="stroke:#800080;stroke-opacity:0.2;stroke-width:1.5;"/>
    </defs>
    <g clip-path="url(#p62f22e1b21)">
     <use style="fill:#800080;fill-opacity:0.2;stroke:#800080;stroke-opacity:0.2;stroke-width:1.5;" x="0" xlink:href="#m6d39f8cefd" y="432"/>
    </g>
   </g>
   <g id="PolyCollection_6">
    <defs>
     <path d="M 625.418182 -365.334545 
L 625.418182 -68.825455 
L 628.461818 -68.825455 
L 631.505455 -68.825455 
L 634.549091 -68.825455 
L 637.592727 -68.825455 
L 640.636364 -68.825455 
L 643.68 -68.825455 
L 646.723636 -68.825455 
L 649.767273 -68.825455 
L 652.810909 -68.825455 
L 655.854545 -68.825455 
L 658.898182 -68.825455 
L 661.941818 -68.825455 
L 664.985455 -68.825455 
L 668.029091 -68.825455 
L 671.072727 -68.825455 
L 674.116364 -68.825455 
L 677.16 -68.825455 
L 680.203636 -68.825455 
L 683.247273 -68.825455 
L 686.290909 -68.825455 
L 689.334545 -68.825455 
L 692.378182 -68.825455 
L 695.421818 -68.825455 
L 698.465455 -68.825455 
L 701.509091 -68.825455 
L 704.552727 -68.825455 
L 707.596364 -68.825455 
L 710.64 -68.825455 
L 713.683636 -68.825455 
L 716.727273 -68.825455 
L 719.770909 -68.825455 
L 722.814545 -68.825455 
L 725.858182 -68.825455 
L 728.901818 -68.825455 
L 731.945455 -68.825455 
L 734.989091 -68.825455 
L 738.032727 -68.825455 
L 741.076364 -68.825455 
L 744.12 -68.825455 
L 747.163636 -68.825455 
L 747.163636 -365.334545 
L 747.163636 -365.334545 
L 744.12 -365.334545 
L 741.076364 -365.334545 
L 738.032727 -365.334545 
L 734.989091 -365.334545 
L 731.945455 -365.334545 
L 728.901818 -365.334545 
L 725.858182 -365.334545 
L 722.814545 -365.334545 
L 719.770909 -365.334545 
L 716.727273 -365.334545 
L 713.683636 -365.334545 
L 710.64 -365.334545 
L 707.596364 -365.334545 
L 704.552727 -365.334545 
L 701.509091 -365.334545 
L 698.465455 -365.334545 
L 695.421818 -365.334545 
L 692.378182 -365.334545 
L 689.334545 -365.334545 
L 686.290909 -365.334545 
L 683.247273 -365.334545 
L 680.203636 -365.334545 
L 677.16 -365.334545 
L 674.116364 -365.334545 
L 671.072727 -365.334545 
L 668.029091 -365.334545 
L 664.985455 -365.334545 
L 661.941818 -365.334545 
L 658.898182 -365.334545 
L 655.854545 -365.334545 
L 652.810909 -365.334545 
L 649.767273 -365.334545 
L 646.723636 -365.334545 
L 643.68 -365.334545 
L 640.636364 -365.334545 
L 637.592727 -365.334545 
L 634.549091 -365.334545 
L 631.505455 -365.334545 
L 628.461818 -365.334545 
L 625.418182 -365.334545 
z
" id="m377e98a2dc" style="stroke:#ff0000;stroke-opacity:0.2;stroke-width:1.5;"/>
    </defs>
    <g clip-path="url(#p62f22e1b21)">
     <use style="fill:#ff0000;fill-opacity:0.2;stroke:#ff0000;stroke-opacity:0.2;stroke-width:1.5;" x="0" xlink:href="#m377e98a2dc" y="432"/>
    </g>
   </g>
   <g id="matplotlib.axis_1">
    <g id="xtick_1">
     <g id="line2d_1">
      <defs>
       <path d="M 0 0 
L 0 9 
" id="mc4baf0ab9f" style="stroke:#000000;stroke-width:1.875;"/>
      </defs>
      <g>
       <use style="stroke:#000000;stroke-width:1.875;" x="138.436364" xlink:href="#mc4baf0ab9f" y="378"/>
      </g>
     </g>
     <g id="text_1">
      <!-- 0 -->
      <g transform="translate(133.187301 403.037422)scale(0.165 -0.165)">
       <defs>
        <path d="M 31.78125 66.40625 
Q 24.171875 66.40625 20.328125 58.90625 
Q 16.5 51.421875 16.5 36.375 
Q 16.5 21.390625 20.328125 13.890625 
Q 24.171875 6.390625 31.78125 6.390625 
Q 39.453125 6.390625 43.28125 13.890625 
Q 47.125 21.390625 47.125 36.375 
Q 47.125 51.421875 43.28125 58.90625 
Q 39.453125 66.40625 31.78125 66.40625 
z
M 31.78125 74.21875 
Q 44.046875 74.21875 50.515625 64.515625 
Q 56.984375 54.828125 56.984375 36.375 
Q 56.984375 17.96875 50.515625 8.265625 
Q 44.046875 -1.421875 31.78125 -1.421875 
Q 19.53125 -1.421875 13.0625 8.265625 
Q 6.59375 17.96875 6.59375 36.375 
Q 6.59375 54.828125 13.0625 64.515625 
Q 19.53125 74.21875 31.78125 74.21875 
z
" id="DejaVuSans-48"/>
       </defs>
       <use xlink:href="#DejaVuSans-48"/>
      </g>
     </g>
    </g>
    <g id="xtick_2">
     <g id="line2d_2">
      <g>
       <use style="stroke:#000000;stroke-width:1.875;" x="214.527273" xlink:href="#mc4baf0ab9f" y="378"/>
      </g>
     </g>
     <g id="text_2">
      <!-- 25 -->
      <g transform="translate(204.029148 403.037422)scale(0.165 -0.165)">
       <defs>
        <path d="M 19.1875 8.296875 
L 53.609375 8.296875 
L 53.609375 0 
L 7.328125 0 
L 7.328125 8.296875 
Q 12.9375 14.109375 22.625 23.890625 
Q 32.328125 33.6875 34.8125 36.53125 
Q 39.546875 41.84375 41.421875 45.53125 
Q 43.3125 49.21875 43.3125 52.78125 
Q 43.3125 58.59375 39.234375 62.25 
Q 35.15625 65.921875 28.609375 65.921875 
Q 23.96875 65.921875 18.8125 64.3125 
Q 13.671875 62.703125 7.8125 59.421875 
L 7.8125 69.390625 
Q 13.765625 71.78125 18.9375 73 
Q 24.125 74.21875 28.421875 74.21875 
Q 39.75 74.21875 46.484375 68.546875 
Q 53.21875 62.890625 53.21875 53.421875 
Q 53.21875 48.921875 51.53125 44.890625 
Q 49.859375 40.875 45.40625 35.40625 
Q 44.1875 33.984375 37.640625 27.21875 
Q 31.109375 20.453125 19.1875 8.296875 
z
" id="DejaVuSans-50"/>
        <path d="M 10.796875 72.90625 
L 49.515625 72.90625 
L 49.515625 64.59375 
L 19.828125 64.59375 
L 19.828125 46.734375 
Q 21.96875 47.46875 24.109375 47.828125 
Q 26.265625 48.1875 28.421875 48.1875 
Q 40.625 48.1875 47.75 41.5 
Q 54.890625 34.8125 54.890625 23.390625 
Q 54.890625 11.625 47.5625 5.09375 
Q 40.234375 -1.421875 26.90625 -1.421875 
Q 22.3125 -1.421875 17.546875 -0.640625 
Q 12.796875 0.140625 7.71875 1.703125 
L 7.71875 11.625 
Q 12.109375 9.234375 16.796875 8.0625 
Q 21.484375 6.890625 26.703125 6.890625 
Q 35.15625 6.890625 40.078125 11.328125 
Q 45.015625 15.765625 45.015625 23.390625 
Q 45.015625 31 40.078125 35.4375 
Q 35.15625 39.890625 26.703125 39.890625 
Q 22.75 39.890625 18.8125 39.015625 
Q 14.890625 38.140625 10.796875 36.28125 
z
" id="DejaVuSans-53"/>
       </defs>
       <use xlink:href="#DejaVuSans-50"/>
       <use x="63.623047" xlink:href="#DejaVuSans-53"/>
      </g>
     </g>
    </g>
    <g id="xtick_3">
     <g id="line2d_3">
      <g>
       <use style="stroke:#000000;stroke-width:1.875;" x="290.618182" xlink:href="#mc4baf0ab9f" y="378"/>
      </g>
     </g>
     <g id="text_3">
      <!-- 50 -->
      <g transform="translate(280.120057 403.037422)scale(0.165 -0.165)">
       <use xlink:href="#DejaVuSans-53"/>
       <use x="63.623047" xlink:href="#DejaVuSans-48"/>
      </g>
     </g>
    </g>
    <g id="xtick_4">
     <g id="line2d_4">
      <g>
       <use style="stroke:#000000;stroke-width:1.875;" x="366.709091" xlink:href="#mc4baf0ab9f" y="378"/>
      </g>
     </g>
     <g id="text_4">
      <!-- 75 -->
      <g transform="translate(356.210966 403.037422)scale(0.165 -0.165)">
       <defs>
        <path d="M 8.203125 72.90625 
L 55.078125 72.90625 
L 55.078125 68.703125 
L 28.609375 0 
L 18.3125 0 
L 43.21875 64.59375 
L 8.203125 64.59375 
z
" id="DejaVuSans-55"/>
       </defs>
       <use xlink:href="#DejaVuSans-55"/>
       <use x="63.623047" xlink:href="#DejaVuSans-53"/>
      </g>
     </g>
    </g>
    <g id="xtick_5">
     <g id="line2d_5">
      <g>
       <use style="stroke:#000000;stroke-width:1.875;" x="442.8" xlink:href="#mc4baf0ab9f" y="378"/>
      </g>
     </g>
     <g id="text_5">
      <!-- 100 -->
      <g transform="translate(427.052813 403.037422)scale(0.165 -0.165)">
       <defs>
        <path d="M 12.40625 8.296875 
L 28.515625 8.296875 
L 28.515625 63.921875 
L 10.984375 60.40625 
L 10.984375 69.390625 
L 28.421875 72.90625 
L 38.28125 72.90625 
L 38.28125 8.296875 
L 54.390625 8.296875 
L 54.390625 0 
L 12.40625 0 
z
" id="DejaVuSans-49"/>
       </defs>
       <use xlink:href="#DejaVuSans-49"/>
       <use x="63.623047" xlink:href="#DejaVuSans-48"/>
       <use x="127.246094" xlink:href="#DejaVuSans-48"/>
      </g>
     </g>
    </g>
    <g id="xtick_6">
     <g id="line2d_6">
      <g>
       <use style="stroke:#000000;stroke-width:1.875;" x="518.890909" xlink:href="#mc4baf0ab9f" y="378"/>
      </g>
     </g>
     <g id="text_6">
      <!-- 125 -->
      <g transform="translate(503.143722 403.037422)scale(0.165 -0.165)">
       <use xlink:href="#DejaVuSans-49"/>
       <use x="63.623047" xlink:href="#DejaVuSans-50"/>
       <use x="127.246094" xlink:href="#DejaVuSans-53"/>
      </g>
     </g>
    </g>
    <g id="xtick_7">
     <g id="line2d_7">
      <g>
       <use style="stroke:#000000;stroke-width:1.875;" x="594.981818" xlink:href="#mc4baf0ab9f" y="378"/>
      </g>
     </g>
     <g id="text_7">
      <!-- 150 -->
      <g transform="translate(579.234631 403.037422)scale(0.165 -0.165)">
       <use xlink:href="#DejaVuSans-49"/>
       <use x="63.623047" xlink:href="#DejaVuSans-53"/>
       <use x="127.246094" xlink:href="#DejaVuSans-48"/>
      </g>
     </g>
    </g>
    <g id="xtick_8">
     <g id="line2d_8">
      <g>
       <use style="stroke:#000000;stroke-width:1.875;" x="671.072727" xlink:href="#mc4baf0ab9f" y="378"/>
      </g>
     </g>
     <g id="text_8">
      <!-- 175 -->
      <g transform="translate(655.32554 403.037422)scale(0.165 -0.165)">
       <use xlink:href="#DejaVuSans-49"/>
       <use x="63.623047" xlink:href="#DejaVuSans-55"/>
       <use x="127.246094" xlink:href="#DejaVuSans-53"/>
      </g>
     </g>
    </g>
    <g id="xtick_9">
     <g id="line2d_9">
      <g>
       <use style="stroke:#000000;stroke-width:1.875;" x="747.163636" xlink:href="#mc4baf0ab9f" y="378"/>
      </g>
     </g>
     <g id="text_9">
      <!-- 200 -->
      <g transform="translate(731.416449 403.037422)scale(0.165 -0.165)">
       <use xlink:href="#DejaVuSans-50"/>
       <use x="63.623047" xlink:href="#DejaVuSans-48"/>
       <use x="127.246094" xlink:href="#DejaVuSans-48"/>
      </g>
     </g>
    </g>
    <g id="text_10">
     <!-- trial -->
     <g transform="translate(425.055938 424.146094)scale(0.18 -0.18)">
      <defs>
       <path d="M 18.3125 70.21875 
L 18.3125 54.6875 
L 36.8125 54.6875 
L 36.8125 47.703125 
L 18.3125 47.703125 
L 18.3125 18.015625 
Q 18.3125 11.328125 20.140625 9.421875 
Q 21.96875 7.515625 27.59375 7.515625 
L 36.8125 7.515625 
L 36.8125 0 
L 27.59375 0 
Q 17.1875 0 13.234375 3.875 
Q 9.28125 7.765625 9.28125 18.015625 
L 9.28125 47.703125 
L 2.6875 47.703125 
L 2.6875 54.6875 
L 9.28125 54.6875 
L 9.28125 70.21875 
z
" id="DejaVuSans-116"/>
       <path d="M 41.109375 46.296875 
Q 39.59375 47.171875 37.8125 47.578125 
Q 36.03125 48 33.890625 48 
Q 26.265625 48 22.1875 43.046875 
Q 18.109375 38.09375 18.109375 28.8125 
L 18.109375 0 
L 9.078125 0 
L 9.078125 54.6875 
L 18.109375 54.6875 
L 18.109375 46.1875 
Q 20.953125 51.171875 25.484375 53.578125 
Q 30.03125 56 36.53125 56 
Q 37.453125 56 38.578125 55.875 
Q 39.703125 55.765625 41.0625 55.515625 
z
" id="DejaVuSans-114"/>
       <path d="M 9.421875 54.6875 
L 18.40625 54.6875 
L 18.40625 0 
L 9.421875 0 
z
M 9.421875 75.984375 
L 18.40625 75.984375 
L 18.40625 64.59375 
L 9.421875 64.59375 
z
" id="DejaVuSans-105"/>
       <path d="M 34.28125 27.484375 
Q 23.390625 27.484375 19.1875 25 
Q 14.984375 22.515625 14.984375 16.5 
Q 14.984375 11.71875 18.140625 8.90625 
Q 21.296875 6.109375 26.703125 6.109375 
Q 34.1875 6.109375 38.703125 11.40625 
Q 43.21875 16.703125 43.21875 25.484375 
L 43.21875 27.484375 
z
M 52.203125 31.203125 
L 52.203125 0 
L 43.21875 0 
L 43.21875 8.296875 
Q 40.140625 3.328125 35.546875 0.953125 
Q 30.953125 -1.421875 24.3125 -1.421875 
Q 15.921875 -1.421875 10.953125 3.296875 
Q 6 8.015625 6 15.921875 
Q 6 25.140625 12.171875 29.828125 
Q 18.359375 34.515625 30.609375 34.515625 
L 43.21875 34.515625 
L 43.21875 35.40625 
Q 43.21875 41.609375 39.140625 45 
Q 35.0625 48.390625 27.6875 48.390625 
Q 23 48.390625 18.546875 47.265625 
Q 14.109375 46.140625 10.015625 43.890625 
L 10.015625 52.203125 
Q 14.9375 54.109375 19.578125 55.046875 
Q 24.21875 56 28.609375 56 
Q 40.484375 56 46.34375 49.84375 
Q 52.203125 43.703125 52.203125 31.203125 
z
" id="DejaVuSans-97"/>
       <path d="M 9.421875 75.984375 
L 18.40625 75.984375 
L 18.40625 0 
L 9.421875 0 
z
" id="DejaVuSans-108"/>
      </defs>
      <use xlink:href="#DejaVuSans-116"/>
      <use x="39.208984" xlink:href="#DejaVuSans-114"/>
      <use x="80.322266" xlink:href="#DejaVuSans-105"/>
      <use x="108.105469" xlink:href="#DejaVuSans-97"/>
      <use x="169.384766" xlink:href="#DejaVuSans-108"/>
     </g>
    </g>
   </g>
   <g id="matplotlib.axis_2">
    <g id="ytick_1">
     <g id="line2d_10">
      <defs>
       <path d="M 0 0 
L -9 0 
" id="mc46f015d74" style="stroke:#000000;stroke-width:1.875;"/>
      </defs>
      <g>
       <use style="stroke:#000000;stroke-width:1.875;" x="108" xlink:href="#mc46f015d74" y="363.174545"/>
      </g>
     </g>
     <g id="text_11">
      <!-- 0.0 -->
      <g transform="translate(69.259844 369.443256)scale(0.165 -0.165)">
       <defs>
        <path d="M 10.6875 12.40625 
L 21 12.40625 
L 21 0 
L 10.6875 0 
z
" id="DejaVuSans-46"/>
       </defs>
       <use xlink:href="#DejaVuSans-48"/>
       <use x="63.623047" xlink:href="#DejaVuSans-46"/>
       <use x="95.410156" xlink:href="#DejaVuSans-48"/>
      </g>
     </g>
    </g>
    <g id="ytick_2">
     <g id="line2d_11">
      <g>
       <use style="stroke:#000000;stroke-width:1.875;" x="108" xlink:href="#mc46f015d74" y="306.696623"/>
      </g>
     </g>
     <g id="text_12">
      <!-- 0.2 -->
      <g transform="translate(69.259844 312.965334)scale(0.165 -0.165)">
       <use xlink:href="#DejaVuSans-48"/>
       <use x="63.623047" xlink:href="#DejaVuSans-46"/>
       <use x="95.410156" xlink:href="#DejaVuSans-50"/>
      </g>
     </g>
    </g>
    <g id="ytick_3">
     <g id="line2d_12">
      <g>
       <use style="stroke:#000000;stroke-width:1.875;" x="108" xlink:href="#mc46f015d74" y="250.218701"/>
      </g>
     </g>
     <g id="text_13">
      <!-- 0.4 -->
      <g transform="translate(69.259844 256.487412)scale(0.165 -0.165)">
       <defs>
        <path d="M 37.796875 64.3125 
L 12.890625 25.390625 
L 37.796875 25.390625 
z
M 35.203125 72.90625 
L 47.609375 72.90625 
L 47.609375 25.390625 
L 58.015625 25.390625 
L 58.015625 17.1875 
L 47.609375 17.1875 
L 47.609375 0 
L 37.796875 0 
L 37.796875 17.1875 
L 4.890625 17.1875 
L 4.890625 26.703125 
z
" id="DejaVuSans-52"/>
       </defs>
       <use xlink:href="#DejaVuSans-48"/>
       <use x="63.623047" xlink:href="#DejaVuSans-46"/>
       <use x="95.410156" xlink:href="#DejaVuSans-52"/>
      </g>
     </g>
    </g>
    <g id="ytick_4">
     <g id="line2d_13">
      <g>
       <use style="stroke:#000000;stroke-width:1.875;" x="108" xlink:href="#mc46f015d74" y="193.740779"/>
      </g>
     </g>
     <g id="text_14">
      <!-- 0.6 -->
      <g transform="translate(69.259844 200.00949)scale(0.165 -0.165)">
       <defs>
        <path d="M 33.015625 40.375 
Q 26.375 40.375 22.484375 35.828125 
Q 18.609375 31.296875 18.609375 23.390625 
Q 18.609375 15.53125 22.484375 10.953125 
Q 26.375 6.390625 33.015625 6.390625 
Q 39.65625 6.390625 43.53125 10.953125 
Q 47.40625 15.53125 47.40625 23.390625 
Q 47.40625 31.296875 43.53125 35.828125 
Q 39.65625 40.375 33.015625 40.375 
z
M 52.59375 71.296875 
L 52.59375 62.3125 
Q 48.875 64.0625 45.09375 64.984375 
Q 41.3125 65.921875 37.59375 65.921875 
Q 27.828125 65.921875 22.671875 59.328125 
Q 17.53125 52.734375 16.796875 39.40625 
Q 19.671875 43.65625 24.015625 45.921875 
Q 28.375 48.1875 33.59375 48.1875 
Q 44.578125 48.1875 50.953125 41.515625 
Q 57.328125 34.859375 57.328125 23.390625 
Q 57.328125 12.15625 50.6875 5.359375 
Q 44.046875 -1.421875 33.015625 -1.421875 
Q 20.359375 -1.421875 13.671875 8.265625 
Q 6.984375 17.96875 6.984375 36.375 
Q 6.984375 53.65625 15.1875 63.9375 
Q 23.390625 74.21875 37.203125 74.21875 
Q 40.921875 74.21875 44.703125 73.484375 
Q 48.484375 72.75 52.59375 71.296875 
z
" id="DejaVuSans-54"/>
       </defs>
       <use xlink:href="#DejaVuSans-48"/>
       <use x="63.623047" xlink:href="#DejaVuSans-46"/>
       <use x="95.410156" xlink:href="#DejaVuSans-54"/>
      </g>
     </g>
    </g>
    <g id="ytick_5">
     <g id="line2d_14">
      <g>
       <use style="stroke:#000000;stroke-width:1.875;" x="108" xlink:href="#mc46f015d74" y="137.262857"/>
      </g>
     </g>
     <g id="text_15">
      <!-- 0.8 -->
      <g transform="translate(69.259844 143.531568)scale(0.165 -0.165)">
       <defs>
        <path d="M 31.78125 34.625 
Q 24.75 34.625 20.71875 30.859375 
Q 16.703125 27.09375 16.703125 20.515625 
Q 16.703125 13.921875 20.71875 10.15625 
Q 24.75 6.390625 31.78125 6.390625 
Q 38.8125 6.390625 42.859375 10.171875 
Q 46.921875 13.96875 46.921875 20.515625 
Q 46.921875 27.09375 42.890625 30.859375 
Q 38.875 34.625 31.78125 34.625 
z
M 21.921875 38.8125 
Q 15.578125 40.375 12.03125 44.71875 
Q 8.5 49.078125 8.5 55.328125 
Q 8.5 64.0625 14.71875 69.140625 
Q 20.953125 74.21875 31.78125 74.21875 
Q 42.671875 74.21875 48.875 69.140625 
Q 55.078125 64.0625 55.078125 55.328125 
Q 55.078125 49.078125 51.53125 44.71875 
Q 48 40.375 41.703125 38.8125 
Q 48.828125 37.15625 52.796875 32.3125 
Q 56.78125 27.484375 56.78125 20.515625 
Q 56.78125 9.90625 50.3125 4.234375 
Q 43.84375 -1.421875 31.78125 -1.421875 
Q 19.734375 -1.421875 13.25 4.234375 
Q 6.78125 9.90625 6.78125 20.515625 
Q 6.78125 27.484375 10.78125 32.3125 
Q 14.796875 37.15625 21.921875 38.8125 
z
M 18.3125 54.390625 
Q 18.3125 48.734375 21.84375 45.5625 
Q 25.390625 42.390625 31.78125 42.390625 
Q 38.140625 42.390625 41.71875 45.5625 
Q 45.3125 48.734375 45.3125 54.390625 
Q 45.3125 60.0625 41.71875 63.234375 
Q 38.140625 66.40625 31.78125 66.40625 
Q 25.390625 66.40625 21.84375 63.234375 
Q 18.3125 60.0625 18.3125 54.390625 
z
" id="DejaVuSans-56"/>
       </defs>
       <use xlink:href="#DejaVuSans-48"/>
       <use x="63.623047" xlink:href="#DejaVuSans-46"/>
       <use x="95.410156" xlink:href="#DejaVuSans-56"/>
      </g>
     </g>
    </g>
    <g id="ytick_6">
     <g id="line2d_15">
      <g>
       <use style="stroke:#000000;stroke-width:1.875;" x="108" xlink:href="#mc46f015d74" y="80.784935"/>
      </g>
     </g>
     <g id="text_16">
      <!-- 1.0 -->
      <g transform="translate(69.259844 87.053646)scale(0.165 -0.165)">
       <use xlink:href="#DejaVuSans-49"/>
       <use x="63.623047" xlink:href="#DejaVuSans-46"/>
       <use x="95.410156" xlink:href="#DejaVuSans-48"/>
      </g>
     </g>
    </g>
    <g id="text_17">
     <!-- prediction accuracy -->
     <g transform="translate(61.516406 303.537656)rotate(-90)scale(0.18 -0.18)">
      <defs>
       <path d="M 18.109375 8.203125 
L 18.109375 -20.796875 
L 9.078125 -20.796875 
L 9.078125 54.6875 
L 18.109375 54.6875 
L 18.109375 46.390625 
Q 20.953125 51.265625 25.265625 53.625 
Q 29.59375 56 35.59375 56 
Q 45.5625 56 51.78125 48.09375 
Q 58.015625 40.1875 58.015625 27.296875 
Q 58.015625 14.40625 51.78125 6.484375 
Q 45.5625 -1.421875 35.59375 -1.421875 
Q 29.59375 -1.421875 25.265625 0.953125 
Q 20.953125 3.328125 18.109375 8.203125 
z
M 48.6875 27.296875 
Q 48.6875 37.203125 44.609375 42.84375 
Q 40.53125 48.484375 33.40625 48.484375 
Q 26.265625 48.484375 22.1875 42.84375 
Q 18.109375 37.203125 18.109375 27.296875 
Q 18.109375 17.390625 22.1875 11.75 
Q 26.265625 6.109375 33.40625 6.109375 
Q 40.53125 6.109375 44.609375 11.75 
Q 48.6875 17.390625 48.6875 27.296875 
z
" id="DejaVuSans-112"/>
       <path d="M 56.203125 29.59375 
L 56.203125 25.203125 
L 14.890625 25.203125 
Q 15.484375 15.921875 20.484375 11.0625 
Q 25.484375 6.203125 34.421875 6.203125 
Q 39.59375 6.203125 44.453125 7.46875 
Q 49.3125 8.734375 54.109375 11.28125 
L 54.109375 2.78125 
Q 49.265625 0.734375 44.1875 -0.34375 
Q 39.109375 -1.421875 33.890625 -1.421875 
Q 20.796875 -1.421875 13.15625 6.1875 
Q 5.515625 13.8125 5.515625 26.8125 
Q 5.515625 40.234375 12.765625 48.109375 
Q 20.015625 56 32.328125 56 
Q 43.359375 56 49.78125 48.890625 
Q 56.203125 41.796875 56.203125 29.59375 
z
M 47.21875 32.234375 
Q 47.125 39.59375 43.09375 43.984375 
Q 39.0625 48.390625 32.421875 48.390625 
Q 24.90625 48.390625 20.390625 44.140625 
Q 15.875 39.890625 15.1875 32.171875 
z
" id="DejaVuSans-101"/>
       <path d="M 45.40625 46.390625 
L 45.40625 75.984375 
L 54.390625 75.984375 
L 54.390625 0 
L 45.40625 0 
L 45.40625 8.203125 
Q 42.578125 3.328125 38.25 0.953125 
Q 33.9375 -1.421875 27.875 -1.421875 
Q 17.96875 -1.421875 11.734375 6.484375 
Q 5.515625 14.40625 5.515625 27.296875 
Q 5.515625 40.1875 11.734375 48.09375 
Q 17.96875 56 27.875 56 
Q 33.9375 56 38.25 53.625 
Q 42.578125 51.265625 45.40625 46.390625 
z
M 14.796875 27.296875 
Q 14.796875 17.390625 18.875 11.75 
Q 22.953125 6.109375 30.078125 6.109375 
Q 37.203125 6.109375 41.296875 11.75 
Q 45.40625 17.390625 45.40625 27.296875 
Q 45.40625 37.203125 41.296875 42.84375 
Q 37.203125 48.484375 30.078125 48.484375 
Q 22.953125 48.484375 18.875 42.84375 
Q 14.796875 37.203125 14.796875 27.296875 
z
" id="DejaVuSans-100"/>
       <path d="M 48.78125 52.59375 
L 48.78125 44.1875 
Q 44.96875 46.296875 41.140625 47.34375 
Q 37.3125 48.390625 33.40625 48.390625 
Q 24.65625 48.390625 19.8125 42.84375 
Q 14.984375 37.3125 14.984375 27.296875 
Q 14.984375 17.28125 19.8125 11.734375 
Q 24.65625 6.203125 33.40625 6.203125 
Q 37.3125 6.203125 41.140625 7.25 
Q 44.96875 8.296875 48.78125 10.40625 
L 48.78125 2.09375 
Q 45.015625 0.34375 40.984375 -0.53125 
Q 36.96875 -1.421875 32.421875 -1.421875 
Q 20.0625 -1.421875 12.78125 6.34375 
Q 5.515625 14.109375 5.515625 27.296875 
Q 5.515625 40.671875 12.859375 48.328125 
Q 20.21875 56 33.015625 56 
Q 37.15625 56 41.109375 55.140625 
Q 45.0625 54.296875 48.78125 52.59375 
z
" id="DejaVuSans-99"/>
       <path d="M 30.609375 48.390625 
Q 23.390625 48.390625 19.1875 42.75 
Q 14.984375 37.109375 14.984375 27.296875 
Q 14.984375 17.484375 19.15625 11.84375 
Q 23.34375 6.203125 30.609375 6.203125 
Q 37.796875 6.203125 41.984375 11.859375 
Q 46.1875 17.53125 46.1875 27.296875 
Q 46.1875 37.015625 41.984375 42.703125 
Q 37.796875 48.390625 30.609375 48.390625 
z
M 30.609375 56 
Q 42.328125 56 49.015625 48.375 
Q 55.71875 40.765625 55.71875 27.296875 
Q 55.71875 13.875 49.015625 6.21875 
Q 42.328125 -1.421875 30.609375 -1.421875 
Q 18.84375 -1.421875 12.171875 6.21875 
Q 5.515625 13.875 5.515625 27.296875 
Q 5.515625 40.765625 12.171875 48.375 
Q 18.84375 56 30.609375 56 
z
" id="DejaVuSans-111"/>
       <path d="M 54.890625 33.015625 
L 54.890625 0 
L 45.90625 0 
L 45.90625 32.71875 
Q 45.90625 40.484375 42.875 44.328125 
Q 39.84375 48.1875 33.796875 48.1875 
Q 26.515625 48.1875 22.3125 43.546875 
Q 18.109375 38.921875 18.109375 30.90625 
L 18.109375 0 
L 9.078125 0 
L 9.078125 54.6875 
L 18.109375 54.6875 
L 18.109375 46.1875 
Q 21.34375 51.125 25.703125 53.5625 
Q 30.078125 56 35.796875 56 
Q 45.21875 56 50.046875 50.171875 
Q 54.890625 44.34375 54.890625 33.015625 
z
" id="DejaVuSans-110"/>
       <path id="DejaVuSans-32"/>
       <path d="M 8.5 21.578125 
L 8.5 54.6875 
L 17.484375 54.6875 
L 17.484375 21.921875 
Q 17.484375 14.15625 20.5 10.265625 
Q 23.53125 6.390625 29.59375 6.390625 
Q 36.859375 6.390625 41.078125 11.03125 
Q 45.3125 15.671875 45.3125 23.6875 
L 45.3125 54.6875 
L 54.296875 54.6875 
L 54.296875 0 
L 45.3125 0 
L 45.3125 8.40625 
Q 42.046875 3.421875 37.71875 1 
Q 33.40625 -1.421875 27.6875 -1.421875 
Q 18.265625 -1.421875 13.375 4.4375 
Q 8.5 10.296875 8.5 21.578125 
z
M 31.109375 56 
z
" id="DejaVuSans-117"/>
       <path d="M 32.171875 -5.078125 
Q 28.375 -14.84375 24.75 -17.8125 
Q 21.140625 -20.796875 15.09375 -20.796875 
L 7.90625 -20.796875 
L 7.90625 -13.28125 
L 13.1875 -13.28125 
Q 16.890625 -13.28125 18.9375 -11.515625 
Q 21 -9.765625 23.484375 -3.21875 
L 25.09375 0.875 
L 2.984375 54.6875 
L 12.5 54.6875 
L 29.59375 11.921875 
L 46.6875 54.6875 
L 56.203125 54.6875 
z
" id="DejaVuSans-121"/>
      </defs>
      <use xlink:href="#DejaVuSans-112"/>
      <use x="63.476562" xlink:href="#DejaVuSans-114"/>
      <use x="102.339844" xlink:href="#DejaVuSans-101"/>
      <use x="163.863281" xlink:href="#DejaVuSans-100"/>
      <use x="227.339844" xlink:href="#DejaVuSans-105"/>
      <use x="255.123047" xlink:href="#DejaVuSans-99"/>
      <use x="310.103516" xlink:href="#DejaVuSans-116"/>
      <use x="349.3125" xlink:href="#DejaVuSans-105"/>
      <use x="377.095703" xlink:href="#DejaVuSans-111"/>
      <use x="438.277344" xlink:href="#DejaVuSans-110"/>
      <use x="501.65625" xlink:href="#DejaVuSans-32"/>
      <use x="533.443359" xlink:href="#DejaVuSans-97"/>
      <use x="594.722656" xlink:href="#DejaVuSans-99"/>
      <use x="649.703125" xlink:href="#DejaVuSans-99"/>
      <use x="704.683594" xlink:href="#DejaVuSans-117"/>
      <use x="768.0625" xlink:href="#DejaVuSans-114"/>
      <use x="809.175781" xlink:href="#DejaVuSans-97"/>
      <use x="870.455078" xlink:href="#DejaVuSans-99"/>
      <use x="925.435547" xlink:href="#DejaVuSans-121"/>
     </g>
    </g>
   </g>
   <g id="line2d_16">
    <path clip-path="url(#p62f22e1b21)" d="M 138.436364 207.86026 
L 141.48 209.521375 
L 144.523636 193.740779 
L 147.567273 249.132587 
L 150.610909 187.259706 
L 153.654545 259.631688 
L 156.698182 147.792639 
L 159.741818 171.723962 
L 162.785455 150.225003 
L 165.829091 212.566753 
L 168.872727 171.723962 
L 171.916364 196.12717 
L 174.96 192.029327 
L 178.003636 154.640679 
L 181.047273 194.525195 
L 184.090909 214.800343 
L 187.134545 186.681039 
L 190.178182 214.800343 
L 193.221818 191.723711 
L 196.265455 177.724652 
L 199.309091 211.894397 
L 202.352727 217.425069 
L 205.396364 195.655285 
L 208.44 190.86902 
L 211.483636 224.546919 
L 214.527273 221.97974 
L 217.570909 157.365168 
L 220.614545 227.209177 
L 223.658182 159.687914 
L 226.701818 207.373381 
L 229.745455 164.113017 
L 232.789091 191.723711 
L 235.832727 171.878358 
L 238.876364 254.252839 
L 241.92 156.812907 
L 244.963636 259.764266 
L 248.007273 172.370755 
L 251.050909 219.872355 
L 254.094545 189.034286 
L 257.138182 210.773803 
L 260.181818 176.362957 
L 263.225455 208.742727 
L 266.269091 180.9877 
L 269.312727 244.753096 
L 272.356364 196.307957 
L 275.4 207.373381 
L 278.443636 201.14772 
L 281.487273 234.082152 
L 284.530909 160.331304 
L 287.574545 198.798504 
L 290.618182 164.113017 
L 293.661818 179.621299 
L 296.705455 208.315727 
L 299.749091 168.42309 
L 302.792727 210.014079 
L 305.836364 169.960602 
L 308.88 190.86902 
L 311.923636 198.447273 
L 314.967273 187.259706 
L 318.010909 203.013274 
L 321.054545 157.365168 
L 324.098182 197.774917 
L 327.141818 170.636175 
L 330.185455 201.061991 
L 333.229091 174.914805 
L 336.272727 217.826952 
L 339.316364 181.638367 
L 342.36 217.826952 
L 345.403636 181.939422 
L 348.447273 233.945402 
L 351.490909 182.018946 
L 354.534545 156.985306 
L 357.578182 159.687914 
L 360.621818 203.013274 
L 363.665455 165.080341 
L 366.709091 207.228044 
L 369.752727 165.501818 
L 372.796364 192.564156 
L 375.84 166.937698 
L 378.883636 157.365168 
L 381.927273 186.154193 
L 384.970909 183.879555 
L 388.014545 180.451856 
L 391.058182 156.088831 
L 394.101818 200.44155 
L 397.145455 199.470423 
L 400.189091 157.433544 
L 403.232727 208.440512 
L 406.276364 151.382338 
L 409.32 207.373381 
L 412.363636 197.774917 
L 415.407273 182.268701 
L 418.450909 127.84987 
L 421.494545 206.774146 
L 424.538182 163.840703 
L 427.581818 215.463057 
L 430.625455 176.433029 
L 433.669091 209.877328 
L 436.712727 154.854341 
L 439.756364 169.031688 
L 442.8 179.621299 
L 445.843636 173.444026 
L 448.887273 170.43243 
L 451.930909 164.455931 
L 454.974545 178.00103 
L 458.018182 162.078914 
L 461.061818 167.993491 
L 464.105455 221.97974 
L 467.149091 179.39718 
L 470.192727 194.73162 
L 473.236364 136.407131 
L 476.28 179.007408 
L 479.323636 185.542371 
L 482.367273 197.326679 
L 485.410909 176.595696 
L 488.454545 183.100011 
L 491.498182 164.113017 
L 494.541818 205.777058 
L 497.585455 129.194583 
L 500.629091 165.501818 
L 503.672727 184.823213 
L 506.716364 192.675158 
L 509.76 177.724652 
L 512.803636 160.052194 
L 515.847273 164.619351 
L 518.890909 194.651713 
L 521.934545 170.43243 
L 524.978182 200.44155 
L 528.021818 170.208312 
L 531.065455 185.051868 
L 534.109091 151.382338 
L 537.152727 206.291429 
L 540.196364 167.323687 
L 543.24 182.758961 
L 546.283636 219.315687 
L 549.327273 187.635058 
L 552.370909 211.894397 
L 558.458182 179.39718 
L 561.501818 207.373381 
L 564.545455 165.501818 
L 567.589091 176.299068 
L 570.632727 163.32959 
L 573.676364 191.093377 
L 576.72 206.851725 
L 579.763636 157.365168 
L 582.807273 192.029327 
L 585.850909 156.088831 
L 588.894545 174.914805 
L 591.938182 187.192614 
L 594.981818 166.034629 
L 598.025455 191.093377 
L 601.069091 177.724652 
L 604.112727 166.937698 
L 607.156364 167.070649 
L 610.2 181.296491 
L 613.243636 199.470423 
L 616.287273 183.879555 
L 619.330909 144.964392 
L 622.374545 188.757433 
L 625.418182 204.009492 
L 628.461818 163.554304 
L 631.505455 186.154193 
L 634.549091 196.766382 
L 637.592727 154.45179 
L 640.636364 168.742355 
L 643.68 153.816731 
L 646.723636 192.844304 
L 649.767273 173.104615 
L 652.810909 183.879555 
L 655.854545 196.518382 
L 658.898182 146.339666 
L 661.941818 162.151433 
L 664.985455 148.020557 
L 668.029091 207.572107 
L 671.072727 197.06301 
L 674.116364 149.365269 
L 677.16 183.472066 
L 680.203636 205.777058 
L 683.247273 188.606423 
L 686.290909 203.153766 
L 689.334545 149.243022 
L 692.378182 180.217896 
L 695.421818 178.756841 
L 698.465455 176.362957 
L 701.509091 151.382338 
L 704.552727 173.444026 
L 707.596364 214.800343 
L 710.64 185.051868 
L 713.683636 174.914805 
L 716.727273 157.365168 
L 719.770909 176.362957 
L 722.814545 158.685517 
L 725.858182 172.14628 
L 728.901818 148.020557 
L 731.945455 180.217896 
L 734.989091 139.210372 
L 738.032727 177.724652 
L 741.076364 193.740779 
L 744.12 198.447273 
L 744.12 198.447273 
" style="fill:none;stroke:#800080;stroke-linecap:square;stroke-width:2.25;"/>
   </g>
   <g id="line2d_17">
    <path clip-path="url(#p62f22e1b21)" d="M 108 221.97974 
L 777.6 221.97974 
" style="fill:none;stroke:#000000;stroke-linecap:square;stroke-width:2.25;"/>
   </g>
   <g id="patch_3">
    <path d="M 108 378 
L 108 51.84 
" style="fill:none;stroke:#000000;stroke-linecap:square;stroke-linejoin:miter;stroke-width:1.875;"/>
   </g>
   <g id="patch_4">
    <path d="M 777.6 378 
L 777.6 51.84 
" style="fill:none;stroke:#000000;stroke-linecap:square;stroke-linejoin:miter;stroke-width:1.875;"/>
   </g>
   <g id="patch_5">
    <path d="M 108 378 
L 777.6 378 
" style="fill:none;stroke:#000000;stroke-linecap:square;stroke-linejoin:miter;stroke-width:1.875;"/>
   </g>
   <g id="patch_6">
    <path d="M 108 51.84 
L 777.6 51.84 
" style="fill:none;stroke:#000000;stroke-linecap:square;stroke-linejoin:miter;stroke-width:1.875;"/>
   </g>
  </g>
 </g>
 <defs>
  <clipPath id="p62f22e1b21">
   <rect height="326.16" width="669.6" x="108" y="51.84"/>
  </clipPath>
 </defs>
</svg>
