<?xml version="1.0" encoding="utf-8" standalone="no"?>
<!DOCTYPE svg PUBLIC "-//W3C//DTD SVG 1.1//EN"
  "http://www.w3.org/Graphics/SVG/1.1/DTD/svg11.dtd">
<svg xmlns:xlink="http://www.w3.org/1999/xlink" width="864pt" height="432pt" viewBox="0 0 864 432" xmlns="http://www.w3.org/2000/svg" version="1.1">
 <metadata>
  <rdf:RDF xmlns:dc="http://purl.org/dc/elements/1.1/" xmlns:cc="http://creativecommons.org/ns#" xmlns:rdf="http://www.w3.org/1999/02/22-rdf-syntax-ns#">
   <cc:Work>
    <dc:type rdf:resource="http://purl.org/dc/dcmitype/StillImage"/>
    <dc:date>2023-05-02T17:21:19.112939</dc:date>
    <dc:format>image/svg+xml</dc:format>
    <dc:creator>
     <cc:Agent>
      <dc:title>Matplotlib v3.5.1, https://matplotlib.org/</dc:title>
     </cc:Agent>
    </dc:creator>
   </cc:Work>
  </rdf:RDF>
 </metadata>
 <defs>
  <style type="text/css">*{stroke-linejoin: round; stroke-linecap: butt}</style>
 </defs>
 <g id="figure_1">
  <g id="patch_1">
   <path d="M 0 432 
L 864 432 
L 864 0 
L 0 0 
L 0 432 
z
" style="fill: none"/>
  </g>
  <g id="axes_1">
   <g id="patch_2">
    <path d="M 108 378 
L 777.6 378 
L 777.6 51.84 
L 108 51.84 
z
" style="fill: #ffffff"/>
   </g>
   <g id="PolyCollection_1">
    <defs>
     <path id="m382da1d7b1" d="M 138.436364 -269.06536 
L 138.436364 -197.184368 
L 141.48 -139.422857 
L 144.523636 -160.186799 
L 147.567273 -147.025654 
L 150.610909 -233.552727 
L 153.654545 -137.145522 
L 156.698182 -200.797051 
L 159.741818 -169.979942 
L 162.785455 -192.680547 
L 165.829091 -182.565714 
L 168.872727 -207.848032 
L 171.916364 -145.840803 
L 174.96 -215.668052 
L 178.003636 -136.988464 
L 181.047273 -216.536943 
L 184.090909 -198.054598 
L 187.134545 -193.268334 
L 190.178182 -176.797953 
L 193.221818 -224.771956 
L 196.265455 -166.201182 
L 199.309091 -205.607922 
L 202.352727 -158.676694 
L 205.396364 -185.103529 
L 208.44 -169.678887 
L 211.483636 -188.145008 
L 214.527273 -161.550401 
L 217.570909 -219.757833 
L 220.614545 -176.646942 
L 223.658182 -203.076253 
L 226.701818 -184.16769 
L 229.745455 -227.359973 
L 232.789091 -188.482069 
L 235.832727 -192.122327 
L 238.876364 -198.814323 
L 241.92 -212.127645 
L 244.963636 -180.069847 
L 248.007273 -212.083876 
L 251.050909 -171.512586 
L 254.094545 -194.814665 
L 257.138182 -201.714683 
L 260.181818 -214.432597 
L 263.225455 -155.364206 
L 266.269091 -226.631413 
L 269.312727 -173.092388 
L 272.356364 -212.192488 
L 275.4 -178.90954 
L 278.443636 -233.201496 
L 281.487273 -171.512586 
L 284.530909 -199.483334 
L 287.574545 -190.545114 
L 290.618182 -212.334929 
L 293.661818 -181.781299 
L 296.705455 -201.851132 
L 299.749091 -181.781299 
L 302.792727 -192.905738 
L 305.836364 -164.403477 
L 308.88 -195.413901 
L 311.923636 -212.587438 
L 314.967273 -233.552727 
L 318.010909 -175.387572 
L 321.054545 -242.222584 
L 324.098182 -156.782874 
L 327.141818 -172.863732 
L 330.185455 -223.257273 
L 333.229091 -225.040984 
L 336.272727 -178.643636 
L 339.316364 -198.873301 
L 342.36 -192.050012 
L 345.403636 -184.558901 
L 348.447273 -160.059021 
L 351.490909 -220.105603 
L 354.534545 -210.02026 
L 357.578182 -197.056009 
L 360.621818 -193.883711 
L 363.665455 -199.159121 
L 366.709091 -188.297982 
L 369.752727 -207.138733 
L 372.796364 -185.103529 
L 375.84 -249.369632 
L 378.883636 -211.902857 
L 381.927273 -207.912875 
L 384.970909 -173.414199 
L 388.014545 -193.268334 
L 391.058182 -181.781299 
L 394.101818 -204.427478 
L 397.145455 -154.770119 
L 400.189091 -212.334929 
L 403.232727 -202.588954 
L 406.276364 -259.85372 
L 409.32 -178.409482 
L 412.363636 -175.233134 
L 415.407273 -194.331948 
L 418.450909 -204.217733 
L 421.494545 -212.261447 
L 424.538182 -179.929564 
L 427.581818 -214.432597 
L 430.625455 -192.370909 
L 433.669091 -186.125754 
L 436.712727 -175.300226 
L 439.756364 -258.895385 
L 442.8 -210.02026 
L 445.843636 -248.120445 
L 448.887273 -254.275348 
L 451.930909 -232.470234 
L 454.974545 -216.743822 
L 458.018182 -204.790823 
L 461.061818 -177.436843 
L 464.105455 -214.29889 
L 467.149091 -188.482069 
L 470.192727 -204.58969 
L 473.236364 -180.190371 
L 476.28 -194.892245 
L 479.323636 -210.02026 
L 482.367273 -188.627107 
L 485.410909 -199.159121 
L 488.454545 -228.881357 
L 491.498182 -225.148275 
L 494.541818 -176.402449 
L 497.585455 -193.076883 
L 500.629091 -190.47021 
L 503.672727 -252.60282 
L 506.716364 -180.604675 
L 509.76 -189.256318 
L 512.803636 -249.731299 
L 515.847273 -203.881355 
L 518.890909 -203.881355 
L 521.934545 -179.133896 
L 524.978182 -205.986122 
L 528.021818 -216.743822 
L 531.065455 -209.906393 
L 534.109091 -247.672208 
L 537.152727 -199.483334 
L 540.196364 -203.881355 
L 543.24 -179.929564 
L 546.283636 -212.008919 
L 549.327273 -197.184368 
L 552.370909 -229.461698 
L 555.414545 -250.060578 
L 558.458182 -205.313766 
L 561.501818 -197.634751 
L 564.545455 -212.497362 
L 567.589091 -222.122672 
L 570.632727 -218.325837 
L 573.676364 -200.607273 
L 576.72 -246.457629 
L 579.763636 -222.405769 
L 582.807273 -228.986726 
L 585.850909 -230.85228 
L 588.894545 -207.848032 
L 591.938182 -231.413412 
L 594.981818 -200.910917 
L 598.025455 -236.62218 
L 601.069091 -180.807541 
L 604.112727 -196.177632 
L 607.156364 -191.603546 
L 610.2 -182.692233 
L 613.243636 -197.077403 
L 616.287273 -214.432597 
L 619.330909 -201.37568 
L 622.374545 -180.715678 
L 625.418182 -192.680547 
L 628.461818 -231.895511 
L 631.505455 -220.881399 
L 634.549091 -212.192488 
L 637.592727 -220.105603 
L 640.636364 -196.699995 
L 643.68 -197.184368 
L 646.723636 -198.814323 
L 649.767273 -229.57031 
L 652.810909 -167.126989 
L 655.854545 -183.41834 
L 658.898182 -237.348287 
L 661.941818 -238.259221 
L 664.985455 -215.315065 
L 668.029091 -177.694081 
L 671.072727 -202.318725 
L 674.116364 -214.432597 
L 677.16 -237.348287 
L 680.203636 -223.257273 
L 683.247273 -185.367199 
L 686.290909 -218.325837 
L 689.334545 -218.577521 
L 692.378182 -202.840863 
L 695.421818 -199.788752 
L 698.465455 -195.413901 
L 701.509091 -129.733018 
L 704.552727 -234.673321 
L 707.596364 -220.251767 
L 710.64 -187.510943 
L 713.683636 -221.593604 
L 716.727273 -218.577521 
L 719.770909 -216.342415 
L 722.814545 -202.028101 
L 725.858182 -250.361633 
L 728.901818 -230.85228 
L 731.945455 -201.37568 
L 734.989091 -220.149452 
L 738.032727 -231.296189 
L 741.076364 -168.492376 
L 744.12 -202.318725 
L 744.12 -274.199717 
L 744.12 -274.199717 
L 741.076364 -246.011092 
L 738.032727 -293.189803 
L 734.989091 -281.640813 
L 731.945455 -276.295372 
L 728.901818 -291.033673 
L 725.858182 -306.839555 
L 722.814545 -276.621583 
L 719.770909 -283.77874 
L 716.727273 -287.035608 
L 713.683636 -291.033673 
L 710.64 -252.992592 
L 707.596364 -281.640813 
L 704.552727 -292.944193 
L 701.509091 -207.251734 
L 698.465455 -263.69863 
L 695.421818 -265.270401 
L 692.378182 -269.968224 
L 689.334545 -278.478347 
L 686.290909 -280.617662 
L 683.247273 -257.085195 
L 680.203636 -285.03 
L 677.16 -301.113682 
L 674.116364 -276.315633 
L 671.072727 -274.199717 
L 668.029091 -247.176787 
L 664.985455 -291.478801 
L 661.941818 -299.081598 
L 658.898182 -301.113682 
L 655.854545 -248.899989 
L 652.810909 -235.692043 
L 649.767273 -290.392687 
L 646.723636 -266.049944 
L 643.68 -269.06536 
L 640.636364 -276.621583 
L 637.592727 -290.703006 
L 634.549091 -277.359321 
L 631.505455 -281.703776 
L 628.461818 -295.532607 
L 625.418182 -266.993602 
L 622.374545 -255.30916 
L 619.330909 -282.058426 
L 616.287273 -276.205325 
L 613.243636 -265.642456 
L 610.2 -251.0123 
L 607.156364 -257.085195 
L 604.112727 -273.696348 
L 601.069091 -253.839337 
L 598.025455 -302.103828 
L 594.981818 -269.344851 
L 591.938182 -291.314238 
L 588.894545 -273.014865 
L 585.850909 -295.66301 
L 582.807273 -287.99351 
L 579.763636 -291.764621 
L 576.72 -310.223025 
L 573.676364 -266.498182 
L 570.632727 -290.307502 
L 567.589091 -286.668868 
L 564.545455 -281.856213 
L 561.501818 -266.993602 
L 558.458182 -271.204675 
L 555.414545 -309.067362 
L 552.370909 -290.392687 
L 549.327273 -274.199717 
L 546.283636 -279.623333 
L 543.24 -249.485365 
L 540.196364 -269.363004 
L 537.152727 -266.919659 
L 534.109091 -308.856623 
L 531.065455 -273.785656 
L 528.021818 -288.461818 
L 524.978182 -274.566456 
L 521.934545 -245.318961 
L 518.890909 -269.363004 
L 515.847273 -269.363004 
L 512.803636 -311.504026 
L 509.76 -255.700932 
L 506.716364 -262.968312 
L 503.672727 -310.873692 
L 500.629091 -255.637043 
L 497.585455 -272.145974 
L 494.541818 -248.120445 
L 491.498182 -290.703006 
L 488.454545 -292.208281 
L 485.410909 -268.67041 
L 482.367273 -257.085195 
L 479.323636 -280.617662 
L 476.28 -270.532319 
L 473.236364 -247.804785 
L 470.192727 -275.187093 
L 467.149091 -260.276038 
L 464.105455 -278.478347 
L 461.061818 -253.464815 
L 458.018182 -278.002944 
L 454.974545 -283.979443 
L 451.930909 -300.384935 
L 448.887273 -313.282132 
L 445.843636 -310.873692 
L 442.8 -276.315633 
L 439.756364 -324.062218 
L 436.712727 -249.369632 
L 433.669091 -255.637043 
L 430.625455 -262.968312 
L 427.581818 -276.205325 
L 424.538182 -249.369632 
L 421.494545 -275.014694 
L 418.450909 -269.979698 
L 415.407273 -261.56757 
L 412.363636 -240.714783 
L 409.32 -245.845807 
L 406.276364 -313.839969 
L 403.232727 -271.947806 
L 400.189091 -286.404335 
L 397.145455 -220.251767 
L 394.101818 -263.289209 
L 391.058182 -251.292587 
L 388.014545 -265.062302 
L 384.970909 -246.62632 
L 381.927273 -275.349199 
L 378.883636 -275.911169 
L 375.84 -309.551024 
L 372.796364 -262.760672 
L 369.752727 -287.821479 
L 366.709091 -264.325954 
L 363.665455 -264.325954 
L 360.621818 -258.429907 
L 357.578182 -263.931004 
L 354.534545 -271.077473 
L 351.490909 -290.703006 
L 348.447273 -225.225854 
L 345.403636 -258.628307 
L 342.36 -263.931004 
L 339.316364 -262.039398 
L 336.272727 -251.855758 
L 333.229091 -297.140459 
L 330.185455 -285.03 
L 327.141818 -247.176787 
L 324.098182 -221.593604 
L 321.054545 -306.627232 
L 318.010909 -249.981054 
L 314.967273 -292.383896 
L 311.923636 -284.46843 
L 308.88 -263.69863 
L 305.836364 -233.914765 
L 302.792727 -261.363825 
L 299.749091 -251.292587 
L 296.705455 -266.498182 
L 293.661818 -257.085195 
L 290.618182 -281.774997 
L 287.574545 -258.708124 
L 284.530909 -271.134429 
L 281.487273 -239.970673 
L 278.443636 -292.31365 
L 275.4 -245.917244 
L 272.356364 -277.359321 
L 269.312727 -238.259221 
L 266.269091 -284.87427 
L 263.225455 -219.129602 
L 260.181818 -280.617662 
L 257.138182 -268.159297 
L 254.094545 -264.325954 
L 251.050909 -239.970673 
L 248.007273 -277.359321 
L 244.963636 -248.527934 
L 241.92 -275.349199 
L 238.876364 -266.049944 
L 235.832727 -255.759422 
L 232.789091 -265.062302 
L 229.745455 -296.718824 
L 226.701818 -247.804785 
L 223.658182 -272.516321 
L 220.614545 -253.66229 
L 217.570909 -287.920842 
L 214.527273 -228.986726 
L 211.483636 -251.782104 
L 208.44 -234.225083 
L 205.396364 -251.548144 
L 202.352727 -222.856151 
L 199.309091 -271.792987 
L 196.265455 -234.364192 
L 193.221818 -287.99351 
L 190.178182 -243.242567 
L 187.134545 -269.848567 
L 184.090909 -274.634832 
L 181.047273 -281.703776 
L 178.003636 -205.151473 
L 174.96 -294.737143 
L 171.916364 -210.02026 
L 168.872727 -273.014865 
L 165.829091 -245.318961 
L 162.785455 -266.993602 
L 159.741818 -233.201496 
L 156.698182 -269.230984 
L 153.654545 -200.910917 
L 150.610909 -296.305974 
L 147.567273 -212.192488 
L 144.523636 -222.478625 
L 141.48 -210.02026 
L 138.436364 -269.06536 
z
" style="stroke: #008000; stroke-opacity: 0.2; stroke-width: 1.5"/>
    </defs>
    <g clip-path="url(#p9eb8f3c05f)">
     <use xlink:href="#m382da1d7b1" x="0" y="432" style="fill: #008000; fill-opacity: 0.2; stroke: #008000; stroke-opacity: 0.2; stroke-width: 1.5"/>
    </g>
   </g>
   <g id="PolyCollection_2">
    <defs>
     <path id="m08d8ce12d9" d="M 138.436364 -365.334545 
L 138.436364 -68.825455 
L 141.48 -68.825455 
L 144.523636 -68.825455 
L 147.567273 -68.825455 
L 150.610909 -68.825455 
L 153.654545 -68.825455 
L 156.698182 -68.825455 
L 159.741818 -68.825455 
L 162.785455 -68.825455 
L 165.829091 -68.825455 
L 168.872727 -68.825455 
L 171.916364 -68.825455 
L 174.96 -68.825455 
L 178.003636 -68.825455 
L 181.047273 -68.825455 
L 184.090909 -68.825455 
L 187.134545 -68.825455 
L 190.178182 -68.825455 
L 193.221818 -68.825455 
L 196.265455 -68.825455 
L 199.309091 -68.825455 
L 202.352727 -68.825455 
L 205.396364 -68.825455 
L 208.44 -68.825455 
L 211.483636 -68.825455 
L 214.527273 -68.825455 
L 217.570909 -68.825455 
L 220.614545 -68.825455 
L 223.658182 -68.825455 
L 226.701818 -68.825455 
L 229.745455 -68.825455 
L 232.789091 -68.825455 
L 235.832727 -68.825455 
L 238.876364 -68.825455 
L 241.92 -68.825455 
L 244.963636 -68.825455 
L 248.007273 -68.825455 
L 251.050909 -68.825455 
L 254.094545 -68.825455 
L 257.138182 -68.825455 
L 260.181818 -68.825455 
L 260.181818 -365.334545 
L 260.181818 -365.334545 
L 257.138182 -365.334545 
L 254.094545 -365.334545 
L 251.050909 -365.334545 
L 248.007273 -365.334545 
L 244.963636 -365.334545 
L 241.92 -365.334545 
L 238.876364 -365.334545 
L 235.832727 -365.334545 
L 232.789091 -365.334545 
L 229.745455 -365.334545 
L 226.701818 -365.334545 
L 223.658182 -365.334545 
L 220.614545 -365.334545 
L 217.570909 -365.334545 
L 214.527273 -365.334545 
L 211.483636 -365.334545 
L 208.44 -365.334545 
L 205.396364 -365.334545 
L 202.352727 -365.334545 
L 199.309091 -365.334545 
L 196.265455 -365.334545 
L 193.221818 -365.334545 
L 190.178182 -365.334545 
L 187.134545 -365.334545 
L 184.090909 -365.334545 
L 181.047273 -365.334545 
L 178.003636 -365.334545 
L 174.96 -365.334545 
L 171.916364 -365.334545 
L 168.872727 -365.334545 
L 165.829091 -365.334545 
L 162.785455 -365.334545 
L 159.741818 -365.334545 
L 156.698182 -365.334545 
L 153.654545 -365.334545 
L 150.610909 -365.334545 
L 147.567273 -365.334545 
L 144.523636 -365.334545 
L 141.48 -365.334545 
L 138.436364 -365.334545 
z
" style="stroke: #800080; stroke-opacity: 0.2; stroke-width: 1.5"/>
    </defs>
    <g clip-path="url(#p9eb8f3c05f)">
     <use xlink:href="#m08d8ce12d9" x="0" y="432" style="fill: #800080; fill-opacity: 0.2; stroke: #800080; stroke-opacity: 0.2; stroke-width: 1.5"/>
    </g>
   </g>
   <g id="PolyCollection_3">
    <defs>
     <path id="m066edbfaaa" d="M 260.181818 -365.334545 
L 260.181818 -68.825455 
L 263.225455 -68.825455 
L 266.269091 -68.825455 
L 269.312727 -68.825455 
L 272.356364 -68.825455 
L 275.4 -68.825455 
L 278.443636 -68.825455 
L 281.487273 -68.825455 
L 284.530909 -68.825455 
L 287.574545 -68.825455 
L 290.618182 -68.825455 
L 293.661818 -68.825455 
L 296.705455 -68.825455 
L 299.749091 -68.825455 
L 302.792727 -68.825455 
L 305.836364 -68.825455 
L 308.88 -68.825455 
L 311.923636 -68.825455 
L 314.967273 -68.825455 
L 318.010909 -68.825455 
L 321.054545 -68.825455 
L 324.098182 -68.825455 
L 327.141818 -68.825455 
L 330.185455 -68.825455 
L 333.229091 -68.825455 
L 336.272727 -68.825455 
L 339.316364 -68.825455 
L 342.36 -68.825455 
L 345.403636 -68.825455 
L 348.447273 -68.825455 
L 351.490909 -68.825455 
L 354.534545 -68.825455 
L 357.578182 -68.825455 
L 360.621818 -68.825455 
L 363.665455 -68.825455 
L 366.709091 -68.825455 
L 369.752727 -68.825455 
L 372.796364 -68.825455 
L 375.84 -68.825455 
L 378.883636 -68.825455 
L 381.927273 -68.825455 
L 381.927273 -365.334545 
L 381.927273 -365.334545 
L 378.883636 -365.334545 
L 375.84 -365.334545 
L 372.796364 -365.334545 
L 369.752727 -365.334545 
L 366.709091 -365.334545 
L 363.665455 -365.334545 
L 360.621818 -365.334545 
L 357.578182 -365.334545 
L 354.534545 -365.334545 
L 351.490909 -365.334545 
L 348.447273 -365.334545 
L 345.403636 -365.334545 
L 342.36 -365.334545 
L 339.316364 -365.334545 
L 336.272727 -365.334545 
L 333.229091 -365.334545 
L 330.185455 -365.334545 
L 327.141818 -365.334545 
L 324.098182 -365.334545 
L 321.054545 -365.334545 
L 318.010909 -365.334545 
L 314.967273 -365.334545 
L 311.923636 -365.334545 
L 308.88 -365.334545 
L 305.836364 -365.334545 
L 302.792727 -365.334545 
L 299.749091 -365.334545 
L 296.705455 -365.334545 
L 293.661818 -365.334545 
L 290.618182 -365.334545 
L 287.574545 -365.334545 
L 284.530909 -365.334545 
L 281.487273 -365.334545 
L 278.443636 -365.334545 
L 275.4 -365.334545 
L 272.356364 -365.334545 
L 269.312727 -365.334545 
L 266.269091 -365.334545 
L 263.225455 -365.334545 
L 260.181818 -365.334545 
z
" style="stroke: #800080; stroke-opacity: 0.2; stroke-width: 1.5"/>
    </defs>
    <g clip-path="url(#p9eb8f3c05f)">
     <use xlink:href="#m066edbfaaa" x="0" y="432" style="fill: #800080; fill-opacity: 0.2; stroke: #800080; stroke-opacity: 0.2; stroke-width: 1.5"/>
    </g>
   </g>
   <g id="PolyCollection_4">
    <defs>
     <path id="m50de3c7326" d="M 381.927273 -365.334545 
L 381.927273 -68.825455 
L 384.970909 -68.825455 
L 388.014545 -68.825455 
L 391.058182 -68.825455 
L 394.101818 -68.825455 
L 397.145455 -68.825455 
L 400.189091 -68.825455 
L 403.232727 -68.825455 
L 406.276364 -68.825455 
L 409.32 -68.825455 
L 412.363636 -68.825455 
L 415.407273 -68.825455 
L 418.450909 -68.825455 
L 421.494545 -68.825455 
L 424.538182 -68.825455 
L 427.581818 -68.825455 
L 430.625455 -68.825455 
L 433.669091 -68.825455 
L 436.712727 -68.825455 
L 439.756364 -68.825455 
L 442.8 -68.825455 
L 445.843636 -68.825455 
L 448.887273 -68.825455 
L 451.930909 -68.825455 
L 454.974545 -68.825455 
L 458.018182 -68.825455 
L 461.061818 -68.825455 
L 464.105455 -68.825455 
L 467.149091 -68.825455 
L 470.192727 -68.825455 
L 473.236364 -68.825455 
L 476.28 -68.825455 
L 479.323636 -68.825455 
L 482.367273 -68.825455 
L 485.410909 -68.825455 
L 488.454545 -68.825455 
L 491.498182 -68.825455 
L 494.541818 -68.825455 
L 497.585455 -68.825455 
L 500.629091 -68.825455 
L 503.672727 -68.825455 
L 503.672727 -365.334545 
L 503.672727 -365.334545 
L 500.629091 -365.334545 
L 497.585455 -365.334545 
L 494.541818 -365.334545 
L 491.498182 -365.334545 
L 488.454545 -365.334545 
L 485.410909 -365.334545 
L 482.367273 -365.334545 
L 479.323636 -365.334545 
L 476.28 -365.334545 
L 473.236364 -365.334545 
L 470.192727 -365.334545 
L 467.149091 -365.334545 
L 464.105455 -365.334545 
L 461.061818 -365.334545 
L 458.018182 -365.334545 
L 454.974545 -365.334545 
L 451.930909 -365.334545 
L 448.887273 -365.334545 
L 445.843636 -365.334545 
L 442.8 -365.334545 
L 439.756364 -365.334545 
L 436.712727 -365.334545 
L 433.669091 -365.334545 
L 430.625455 -365.334545 
L 427.581818 -365.334545 
L 424.538182 -365.334545 
L 421.494545 -365.334545 
L 418.450909 -365.334545 
L 415.407273 -365.334545 
L 412.363636 -365.334545 
L 409.32 -365.334545 
L 406.276364 -365.334545 
L 403.232727 -365.334545 
L 400.189091 -365.334545 
L 397.145455 -365.334545 
L 394.101818 -365.334545 
L 391.058182 -365.334545 
L 388.014545 -365.334545 
L 384.970909 -365.334545 
L 381.927273 -365.334545 
z
" style="stroke: #800080; stroke-opacity: 0.2; stroke-width: 1.5"/>
    </defs>
    <g clip-path="url(#p9eb8f3c05f)">
     <use xlink:href="#m50de3c7326" x="0" y="432" style="fill: #800080; fill-opacity: 0.2; stroke: #800080; stroke-opacity: 0.2; stroke-width: 1.5"/>
    </g>
   </g>
   <g id="PolyCollection_5">
    <defs>
     <path id="m24a2053784" d="M 503.672727 -365.334545 
L 503.672727 -68.825455 
L 506.716364 -68.825455 
L 509.76 -68.825455 
L 512.803636 -68.825455 
L 515.847273 -68.825455 
L 518.890909 -68.825455 
L 521.934545 -68.825455 
L 524.978182 -68.825455 
L 528.021818 -68.825455 
L 531.065455 -68.825455 
L 534.109091 -68.825455 
L 537.152727 -68.825455 
L 540.196364 -68.825455 
L 543.24 -68.825455 
L 546.283636 -68.825455 
L 549.327273 -68.825455 
L 552.370909 -68.825455 
L 555.414545 -68.825455 
L 558.458182 -68.825455 
L 561.501818 -68.825455 
L 564.545455 -68.825455 
L 567.589091 -68.825455 
L 570.632727 -68.825455 
L 573.676364 -68.825455 
L 576.72 -68.825455 
L 579.763636 -68.825455 
L 582.807273 -68.825455 
L 585.850909 -68.825455 
L 588.894545 -68.825455 
L 591.938182 -68.825455 
L 594.981818 -68.825455 
L 598.025455 -68.825455 
L 601.069091 -68.825455 
L 604.112727 -68.825455 
L 607.156364 -68.825455 
L 610.2 -68.825455 
L 613.243636 -68.825455 
L 616.287273 -68.825455 
L 619.330909 -68.825455 
L 622.374545 -68.825455 
L 625.418182 -68.825455 
L 625.418182 -365.334545 
L 625.418182 -365.334545 
L 622.374545 -365.334545 
L 619.330909 -365.334545 
L 616.287273 -365.334545 
L 613.243636 -365.334545 
L 610.2 -365.334545 
L 607.156364 -365.334545 
L 604.112727 -365.334545 
L 601.069091 -365.334545 
L 598.025455 -365.334545 
L 594.981818 -365.334545 
L 591.938182 -365.334545 
L 588.894545 -365.334545 
L 585.850909 -365.334545 
L 582.807273 -365.334545 
L 579.763636 -365.334545 
L 576.72 -365.334545 
L 573.676364 -365.334545 
L 570.632727 -365.334545 
L 567.589091 -365.334545 
L 564.545455 -365.334545 
L 561.501818 -365.334545 
L 558.458182 -365.334545 
L 555.414545 -365.334545 
L 552.370909 -365.334545 
L 549.327273 -365.334545 
L 546.283636 -365.334545 
L 543.24 -365.334545 
L 540.196364 -365.334545 
L 537.152727 -365.334545 
L 534.109091 -365.334545 
L 531.065455 -365.334545 
L 528.021818 -365.334545 
L 524.978182 -365.334545 
L 521.934545 -365.334545 
L 518.890909 -365.334545 
L 515.847273 -365.334545 
L 512.803636 -365.334545 
L 509.76 -365.334545 
L 506.716364 -365.334545 
L 503.672727 -365.334545 
z
" style="stroke: #800080; stroke-opacity: 0.2; stroke-width: 1.5"/>
    </defs>
    <g clip-path="url(#p9eb8f3c05f)">
     <use xlink:href="#m24a2053784" x="0" y="432" style="fill: #800080; fill-opacity: 0.2; stroke: #800080; stroke-opacity: 0.2; stroke-width: 1.5"/>
    </g>
   </g>
   <g id="PolyCollection_6">
    <defs>
     <path id="m5fc59bf245" d="M 625.418182 -365.334545 
L 625.418182 -68.825455 
L 628.461818 -68.825455 
L 631.505455 -68.825455 
L 634.549091 -68.825455 
L 637.592727 -68.825455 
L 640.636364 -68.825455 
L 643.68 -68.825455 
L 646.723636 -68.825455 
L 649.767273 -68.825455 
L 652.810909 -68.825455 
L 655.854545 -68.825455 
L 658.898182 -68.825455 
L 661.941818 -68.825455 
L 664.985455 -68.825455 
L 668.029091 -68.825455 
L 671.072727 -68.825455 
L 674.116364 -68.825455 
L 677.16 -68.825455 
L 680.203636 -68.825455 
L 683.247273 -68.825455 
L 686.290909 -68.825455 
L 689.334545 -68.825455 
L 692.378182 -68.825455 
L 695.421818 -68.825455 
L 698.465455 -68.825455 
L 701.509091 -68.825455 
L 704.552727 -68.825455 
L 707.596364 -68.825455 
L 710.64 -68.825455 
L 713.683636 -68.825455 
L 716.727273 -68.825455 
L 719.770909 -68.825455 
L 722.814545 -68.825455 
L 725.858182 -68.825455 
L 728.901818 -68.825455 
L 731.945455 -68.825455 
L 734.989091 -68.825455 
L 738.032727 -68.825455 
L 741.076364 -68.825455 
L 744.12 -68.825455 
L 747.163636 -68.825455 
L 747.163636 -365.334545 
L 747.163636 -365.334545 
L 744.12 -365.334545 
L 741.076364 -365.334545 
L 738.032727 -365.334545 
L 734.989091 -365.334545 
L 731.945455 -365.334545 
L 728.901818 -365.334545 
L 725.858182 -365.334545 
L 722.814545 -365.334545 
L 719.770909 -365.334545 
L 716.727273 -365.334545 
L 713.683636 -365.334545 
L 710.64 -365.334545 
L 707.596364 -365.334545 
L 704.552727 -365.334545 
L 701.509091 -365.334545 
L 698.465455 -365.334545 
L 695.421818 -365.334545 
L 692.378182 -365.334545 
L 689.334545 -365.334545 
L 686.290909 -365.334545 
L 683.247273 -365.334545 
L 680.203636 -365.334545 
L 677.16 -365.334545 
L 674.116364 -365.334545 
L 671.072727 -365.334545 
L 668.029091 -365.334545 
L 664.985455 -365.334545 
L 661.941818 -365.334545 
L 658.898182 -365.334545 
L 655.854545 -365.334545 
L 652.810909 -365.334545 
L 649.767273 -365.334545 
L 646.723636 -365.334545 
L 643.68 -365.334545 
L 640.636364 -365.334545 
L 637.592727 -365.334545 
L 634.549091 -365.334545 
L 631.505455 -365.334545 
L 628.461818 -365.334545 
L 625.418182 -365.334545 
z
" style="stroke: #ff0000; stroke-opacity: 0.2; stroke-width: 1.5"/>
    </defs>
    <g clip-path="url(#p9eb8f3c05f)">
     <use xlink:href="#m5fc59bf245" x="0" y="432" style="fill: #ff0000; fill-opacity: 0.2; stroke: #ff0000; stroke-opacity: 0.2; stroke-width: 1.5"/>
    </g>
   </g>
   <g id="matplotlib.axis_1">
    <g id="xtick_1">
     <g id="line2d_1">
      <defs>
       <path id="mdb063f3733" d="M 0 0 
L 0 9 
" style="stroke: #000000; stroke-width: 1.875"/>
      </defs>
      <g>
       <use xlink:href="#mdb063f3733" x="138.436364" y="378" style="stroke: #000000; stroke-width: 1.875"/>
      </g>
     </g>
     <g id="text_1">
      <!-- 0 -->
      <g transform="translate(133.187301 403.037422)scale(0.165 -0.165)">
       <defs>
        <path id="DejaVuSans-30" d="M 2034 4250 
Q 1547 4250 1301 3770 
Q 1056 3291 1056 2328 
Q 1056 1369 1301 889 
Q 1547 409 2034 409 
Q 2525 409 2770 889 
Q 3016 1369 3016 2328 
Q 3016 3291 2770 3770 
Q 2525 4250 2034 4250 
z
M 2034 4750 
Q 2819 4750 3233 4129 
Q 3647 3509 3647 2328 
Q 3647 1150 3233 529 
Q 2819 -91 2034 -91 
Q 1250 -91 836 529 
Q 422 1150 422 2328 
Q 422 3509 836 4129 
Q 1250 4750 2034 4750 
z
" transform="scale(0.015625)"/>
       </defs>
       <use xlink:href="#DejaVuSans-30"/>
      </g>
     </g>
    </g>
    <g id="xtick_2">
     <g id="line2d_2">
      <g>
       <use xlink:href="#mdb063f3733" x="214.527273" y="378" style="stroke: #000000; stroke-width: 1.875"/>
      </g>
     </g>
     <g id="text_2">
      <!-- 25 -->
      <g transform="translate(204.029148 403.037422)scale(0.165 -0.165)">
       <defs>
        <path id="DejaVuSans-32" d="M 1228 531 
L 3431 531 
L 3431 0 
L 469 0 
L 469 531 
Q 828 903 1448 1529 
Q 2069 2156 2228 2338 
Q 2531 2678 2651 2914 
Q 2772 3150 2772 3378 
Q 2772 3750 2511 3984 
Q 2250 4219 1831 4219 
Q 1534 4219 1204 4116 
Q 875 4013 500 3803 
L 500 4441 
Q 881 4594 1212 4672 
Q 1544 4750 1819 4750 
Q 2544 4750 2975 4387 
Q 3406 4025 3406 3419 
Q 3406 3131 3298 2873 
Q 3191 2616 2906 2266 
Q 2828 2175 2409 1742 
Q 1991 1309 1228 531 
z
" transform="scale(0.015625)"/>
        <path id="DejaVuSans-35" d="M 691 4666 
L 3169 4666 
L 3169 4134 
L 1269 4134 
L 1269 2991 
Q 1406 3038 1543 3061 
Q 1681 3084 1819 3084 
Q 2600 3084 3056 2656 
Q 3513 2228 3513 1497 
Q 3513 744 3044 326 
Q 2575 -91 1722 -91 
Q 1428 -91 1123 -41 
Q 819 9 494 109 
L 494 744 
Q 775 591 1075 516 
Q 1375 441 1709 441 
Q 2250 441 2565 725 
Q 2881 1009 2881 1497 
Q 2881 1984 2565 2268 
Q 2250 2553 1709 2553 
Q 1456 2553 1204 2497 
Q 953 2441 691 2322 
L 691 4666 
z
" transform="scale(0.015625)"/>
       </defs>
       <use xlink:href="#DejaVuSans-32"/>
       <use xlink:href="#DejaVuSans-35" x="63.623047"/>
      </g>
     </g>
    </g>
    <g id="xtick_3">
     <g id="line2d_3">
      <g>
       <use xlink:href="#mdb063f3733" x="290.618182" y="378" style="stroke: #000000; stroke-width: 1.875"/>
      </g>
     </g>
     <g id="text_3">
      <!-- 50 -->
      <g transform="translate(280.120057 403.037422)scale(0.165 -0.165)">
       <use xlink:href="#DejaVuSans-35"/>
       <use xlink:href="#DejaVuSans-30" x="63.623047"/>
      </g>
     </g>
    </g>
    <g id="xtick_4">
     <g id="line2d_4">
      <g>
       <use xlink:href="#mdb063f3733" x="366.709091" y="378" style="stroke: #000000; stroke-width: 1.875"/>
      </g>
     </g>
     <g id="text_4">
      <!-- 75 -->
      <g transform="translate(356.210966 403.037422)scale(0.165 -0.165)">
       <defs>
        <path id="DejaVuSans-37" d="M 525 4666 
L 3525 4666 
L 3525 4397 
L 1831 0 
L 1172 0 
L 2766 4134 
L 525 4134 
L 525 4666 
z
" transform="scale(0.015625)"/>
       </defs>
       <use xlink:href="#DejaVuSans-37"/>
       <use xlink:href="#DejaVuSans-35" x="63.623047"/>
      </g>
     </g>
    </g>
    <g id="xtick_5">
     <g id="line2d_5">
      <g>
       <use xlink:href="#mdb063f3733" x="442.8" y="378" style="stroke: #000000; stroke-width: 1.875"/>
      </g>
     </g>
     <g id="text_5">
      <!-- 100 -->
      <g transform="translate(427.052813 403.037422)scale(0.165 -0.165)">
       <defs>
        <path id="DejaVuSans-31" d="M 794 531 
L 1825 531 
L 1825 4091 
L 703 3866 
L 703 4441 
L 1819 4666 
L 2450 4666 
L 2450 531 
L 3481 531 
L 3481 0 
L 794 0 
L 794 531 
z
" transform="scale(0.015625)"/>
       </defs>
       <use xlink:href="#DejaVuSans-31"/>
       <use xlink:href="#DejaVuSans-30" x="63.623047"/>
       <use xlink:href="#DejaVuSans-30" x="127.246094"/>
      </g>
     </g>
    </g>
    <g id="xtick_6">
     <g id="line2d_6">
      <g>
       <use xlink:href="#mdb063f3733" x="518.890909" y="378" style="stroke: #000000; stroke-width: 1.875"/>
      </g>
     </g>
     <g id="text_6">
      <!-- 125 -->
      <g transform="translate(503.143722 403.037422)scale(0.165 -0.165)">
       <use xlink:href="#DejaVuSans-31"/>
       <use xlink:href="#DejaVuSans-32" x="63.623047"/>
       <use xlink:href="#DejaVuSans-35" x="127.246094"/>
      </g>
     </g>
    </g>
    <g id="xtick_7">
     <g id="line2d_7">
      <g>
       <use xlink:href="#mdb063f3733" x="594.981818" y="378" style="stroke: #000000; stroke-width: 1.875"/>
      </g>
     </g>
     <g id="text_7">
      <!-- 150 -->
      <g transform="translate(579.234631 403.037422)scale(0.165 -0.165)">
       <use xlink:href="#DejaVuSans-31"/>
       <use xlink:href="#DejaVuSans-35" x="63.623047"/>
       <use xlink:href="#DejaVuSans-30" x="127.246094"/>
      </g>
     </g>
    </g>
    <g id="xtick_8">
     <g id="line2d_8">
      <g>
       <use xlink:href="#mdb063f3733" x="671.072727" y="378" style="stroke: #000000; stroke-width: 1.875"/>
      </g>
     </g>
     <g id="text_8">
      <!-- 175 -->
      <g transform="translate(655.32554 403.037422)scale(0.165 -0.165)">
       <use xlink:href="#DejaVuSans-31"/>
       <use xlink:href="#DejaVuSans-37" x="63.623047"/>
       <use xlink:href="#DejaVuSans-35" x="127.246094"/>
      </g>
     </g>
    </g>
    <g id="xtick_9">
     <g id="line2d_9">
      <g>
       <use xlink:href="#mdb063f3733" x="747.163636" y="378" style="stroke: #000000; stroke-width: 1.875"/>
      </g>
     </g>
     <g id="text_9">
      <!-- 200 -->
      <g transform="translate(731.416449 403.037422)scale(0.165 -0.165)">
       <use xlink:href="#DejaVuSans-32"/>
       <use xlink:href="#DejaVuSans-30" x="63.623047"/>
       <use xlink:href="#DejaVuSans-30" x="127.246094"/>
      </g>
     </g>
    </g>
    <g id="text_10">
     <!-- trial -->
     <g transform="translate(425.055938 424.146094)scale(0.18 -0.18)">
      <defs>
       <path id="DejaVuSans-74" d="M 1172 4494 
L 1172 3500 
L 2356 3500 
L 2356 3053 
L 1172 3053 
L 1172 1153 
Q 1172 725 1289 603 
Q 1406 481 1766 481 
L 2356 481 
L 2356 0 
L 1766 0 
Q 1100 0 847 248 
Q 594 497 594 1153 
L 594 3053 
L 172 3053 
L 172 3500 
L 594 3500 
L 594 4494 
L 1172 4494 
z
" transform="scale(0.015625)"/>
       <path id="DejaVuSans-72" d="M 2631 2963 
Q 2534 3019 2420 3045 
Q 2306 3072 2169 3072 
Q 1681 3072 1420 2755 
Q 1159 2438 1159 1844 
L 1159 0 
L 581 0 
L 581 3500 
L 1159 3500 
L 1159 2956 
Q 1341 3275 1631 3429 
Q 1922 3584 2338 3584 
Q 2397 3584 2469 3576 
Q 2541 3569 2628 3553 
L 2631 2963 
z
" transform="scale(0.015625)"/>
       <path id="DejaVuSans-69" d="M 603 3500 
L 1178 3500 
L 1178 0 
L 603 0 
L 603 3500 
z
M 603 4863 
L 1178 4863 
L 1178 4134 
L 603 4134 
L 603 4863 
z
" transform="scale(0.015625)"/>
       <path id="DejaVuSans-61" d="M 2194 1759 
Q 1497 1759 1228 1600 
Q 959 1441 959 1056 
Q 959 750 1161 570 
Q 1363 391 1709 391 
Q 2188 391 2477 730 
Q 2766 1069 2766 1631 
L 2766 1759 
L 2194 1759 
z
M 3341 1997 
L 3341 0 
L 2766 0 
L 2766 531 
Q 2569 213 2275 61 
Q 1981 -91 1556 -91 
Q 1019 -91 701 211 
Q 384 513 384 1019 
Q 384 1609 779 1909 
Q 1175 2209 1959 2209 
L 2766 2209 
L 2766 2266 
Q 2766 2663 2505 2880 
Q 2244 3097 1772 3097 
Q 1472 3097 1187 3025 
Q 903 2953 641 2809 
L 641 3341 
Q 956 3463 1253 3523 
Q 1550 3584 1831 3584 
Q 2591 3584 2966 3190 
Q 3341 2797 3341 1997 
z
" transform="scale(0.015625)"/>
       <path id="DejaVuSans-6c" d="M 603 4863 
L 1178 4863 
L 1178 0 
L 603 0 
L 603 4863 
z
" transform="scale(0.015625)"/>
      </defs>
      <use xlink:href="#DejaVuSans-74"/>
      <use xlink:href="#DejaVuSans-72" x="39.208984"/>
      <use xlink:href="#DejaVuSans-69" x="80.322266"/>
      <use xlink:href="#DejaVuSans-61" x="108.105469"/>
      <use xlink:href="#DejaVuSans-6c" x="169.384766"/>
     </g>
    </g>
   </g>
   <g id="matplotlib.axis_2">
    <g id="ytick_1">
     <g id="line2d_10">
      <defs>
       <path id="m311993233c" d="M 0 0 
L -9 0 
" style="stroke: #000000; stroke-width: 1.875"/>
      </defs>
      <g>
       <use xlink:href="#m311993233c" x="108" y="363.174545" style="stroke: #000000; stroke-width: 1.875"/>
      </g>
     </g>
     <g id="text_11">
      <!-- 0.0 -->
      <g transform="translate(69.259844 369.443256)scale(0.165 -0.165)">
       <defs>
        <path id="DejaVuSans-2e" d="M 684 794 
L 1344 794 
L 1344 0 
L 684 0 
L 684 794 
z
" transform="scale(0.015625)"/>
       </defs>
       <use xlink:href="#DejaVuSans-30"/>
       <use xlink:href="#DejaVuSans-2e" x="63.623047"/>
       <use xlink:href="#DejaVuSans-30" x="95.410156"/>
      </g>
     </g>
    </g>
    <g id="ytick_2">
     <g id="line2d_11">
      <g>
       <use xlink:href="#m311993233c" x="108" y="306.696623" style="stroke: #000000; stroke-width: 1.875"/>
      </g>
     </g>
     <g id="text_12">
      <!-- 0.2 -->
      <g transform="translate(69.259844 312.965334)scale(0.165 -0.165)">
       <use xlink:href="#DejaVuSans-30"/>
       <use xlink:href="#DejaVuSans-2e" x="63.623047"/>
       <use xlink:href="#DejaVuSans-32" x="95.410156"/>
      </g>
     </g>
    </g>
    <g id="ytick_3">
     <g id="line2d_12">
      <g>
       <use xlink:href="#m311993233c" x="108" y="250.218701" style="stroke: #000000; stroke-width: 1.875"/>
      </g>
     </g>
     <g id="text_13">
      <!-- 0.4 -->
      <g transform="translate(69.259844 256.487412)scale(0.165 -0.165)">
       <defs>
        <path id="DejaVuSans-34" d="M 2419 4116 
L 825 1625 
L 2419 1625 
L 2419 4116 
z
M 2253 4666 
L 3047 4666 
L 3047 1625 
L 3713 1625 
L 3713 1100 
L 3047 1100 
L 3047 0 
L 2419 0 
L 2419 1100 
L 313 1100 
L 313 1709 
L 2253 4666 
z
" transform="scale(0.015625)"/>
       </defs>
       <use xlink:href="#DejaVuSans-30"/>
       <use xlink:href="#DejaVuSans-2e" x="63.623047"/>
       <use xlink:href="#DejaVuSans-34" x="95.410156"/>
      </g>
     </g>
    </g>
    <g id="ytick_4">
     <g id="line2d_13">
      <g>
       <use xlink:href="#m311993233c" x="108" y="193.740779" style="stroke: #000000; stroke-width: 1.875"/>
      </g>
     </g>
     <g id="text_14">
      <!-- 0.6 -->
      <g transform="translate(69.259844 200.00949)scale(0.165 -0.165)">
       <defs>
        <path id="DejaVuSans-36" d="M 2113 2584 
Q 1688 2584 1439 2293 
Q 1191 2003 1191 1497 
Q 1191 994 1439 701 
Q 1688 409 2113 409 
Q 2538 409 2786 701 
Q 3034 994 3034 1497 
Q 3034 2003 2786 2293 
Q 2538 2584 2113 2584 
z
M 3366 4563 
L 3366 3988 
Q 3128 4100 2886 4159 
Q 2644 4219 2406 4219 
Q 1781 4219 1451 3797 
Q 1122 3375 1075 2522 
Q 1259 2794 1537 2939 
Q 1816 3084 2150 3084 
Q 2853 3084 3261 2657 
Q 3669 2231 3669 1497 
Q 3669 778 3244 343 
Q 2819 -91 2113 -91 
Q 1303 -91 875 529 
Q 447 1150 447 2328 
Q 447 3434 972 4092 
Q 1497 4750 2381 4750 
Q 2619 4750 2861 4703 
Q 3103 4656 3366 4563 
z
" transform="scale(0.015625)"/>
       </defs>
       <use xlink:href="#DejaVuSans-30"/>
       <use xlink:href="#DejaVuSans-2e" x="63.623047"/>
       <use xlink:href="#DejaVuSans-36" x="95.410156"/>
      </g>
     </g>
    </g>
    <g id="ytick_5">
     <g id="line2d_14">
      <g>
       <use xlink:href="#m311993233c" x="108" y="137.262857" style="stroke: #000000; stroke-width: 1.875"/>
      </g>
     </g>
     <g id="text_15">
      <!-- 0.8 -->
      <g transform="translate(69.259844 143.531568)scale(0.165 -0.165)">
       <defs>
        <path id="DejaVuSans-38" d="M 2034 2216 
Q 1584 2216 1326 1975 
Q 1069 1734 1069 1313 
Q 1069 891 1326 650 
Q 1584 409 2034 409 
Q 2484 409 2743 651 
Q 3003 894 3003 1313 
Q 3003 1734 2745 1975 
Q 2488 2216 2034 2216 
z
M 1403 2484 
Q 997 2584 770 2862 
Q 544 3141 544 3541 
Q 544 4100 942 4425 
Q 1341 4750 2034 4750 
Q 2731 4750 3128 4425 
Q 3525 4100 3525 3541 
Q 3525 3141 3298 2862 
Q 3072 2584 2669 2484 
Q 3125 2378 3379 2068 
Q 3634 1759 3634 1313 
Q 3634 634 3220 271 
Q 2806 -91 2034 -91 
Q 1263 -91 848 271 
Q 434 634 434 1313 
Q 434 1759 690 2068 
Q 947 2378 1403 2484 
z
M 1172 3481 
Q 1172 3119 1398 2916 
Q 1625 2713 2034 2713 
Q 2441 2713 2670 2916 
Q 2900 3119 2900 3481 
Q 2900 3844 2670 4047 
Q 2441 4250 2034 4250 
Q 1625 4250 1398 4047 
Q 1172 3844 1172 3481 
z
" transform="scale(0.015625)"/>
       </defs>
       <use xlink:href="#DejaVuSans-30"/>
       <use xlink:href="#DejaVuSans-2e" x="63.623047"/>
       <use xlink:href="#DejaVuSans-38" x="95.410156"/>
      </g>
     </g>
    </g>
    <g id="ytick_6">
     <g id="line2d_15">
      <g>
       <use xlink:href="#m311993233c" x="108" y="80.784935" style="stroke: #000000; stroke-width: 1.875"/>
      </g>
     </g>
     <g id="text_16">
      <!-- 1.0 -->
      <g transform="translate(69.259844 87.053646)scale(0.165 -0.165)">
       <use xlink:href="#DejaVuSans-31"/>
       <use xlink:href="#DejaVuSans-2e" x="63.623047"/>
       <use xlink:href="#DejaVuSans-30" x="95.410156"/>
      </g>
     </g>
    </g>
    <g id="text_17">
     <!-- prediction accuracy -->
     <g transform="translate(61.516406 303.537656)rotate(-90)scale(0.18 -0.18)">
      <defs>
       <path id="DejaVuSans-70" d="M 1159 525 
L 1159 -1331 
L 581 -1331 
L 581 3500 
L 1159 3500 
L 1159 2969 
Q 1341 3281 1617 3432 
Q 1894 3584 2278 3584 
Q 2916 3584 3314 3078 
Q 3713 2572 3713 1747 
Q 3713 922 3314 415 
Q 2916 -91 2278 -91 
Q 1894 -91 1617 61 
Q 1341 213 1159 525 
z
M 3116 1747 
Q 3116 2381 2855 2742 
Q 2594 3103 2138 3103 
Q 1681 3103 1420 2742 
Q 1159 2381 1159 1747 
Q 1159 1113 1420 752 
Q 1681 391 2138 391 
Q 2594 391 2855 752 
Q 3116 1113 3116 1747 
z
" transform="scale(0.015625)"/>
       <path id="DejaVuSans-65" d="M 3597 1894 
L 3597 1613 
L 953 1613 
Q 991 1019 1311 708 
Q 1631 397 2203 397 
Q 2534 397 2845 478 
Q 3156 559 3463 722 
L 3463 178 
Q 3153 47 2828 -22 
Q 2503 -91 2169 -91 
Q 1331 -91 842 396 
Q 353 884 353 1716 
Q 353 2575 817 3079 
Q 1281 3584 2069 3584 
Q 2775 3584 3186 3129 
Q 3597 2675 3597 1894 
z
M 3022 2063 
Q 3016 2534 2758 2815 
Q 2500 3097 2075 3097 
Q 1594 3097 1305 2825 
Q 1016 2553 972 2059 
L 3022 2063 
z
" transform="scale(0.015625)"/>
       <path id="DejaVuSans-64" d="M 2906 2969 
L 2906 4863 
L 3481 4863 
L 3481 0 
L 2906 0 
L 2906 525 
Q 2725 213 2448 61 
Q 2172 -91 1784 -91 
Q 1150 -91 751 415 
Q 353 922 353 1747 
Q 353 2572 751 3078 
Q 1150 3584 1784 3584 
Q 2172 3584 2448 3432 
Q 2725 3281 2906 2969 
z
M 947 1747 
Q 947 1113 1208 752 
Q 1469 391 1925 391 
Q 2381 391 2643 752 
Q 2906 1113 2906 1747 
Q 2906 2381 2643 2742 
Q 2381 3103 1925 3103 
Q 1469 3103 1208 2742 
Q 947 2381 947 1747 
z
" transform="scale(0.015625)"/>
       <path id="DejaVuSans-63" d="M 3122 3366 
L 3122 2828 
Q 2878 2963 2633 3030 
Q 2388 3097 2138 3097 
Q 1578 3097 1268 2742 
Q 959 2388 959 1747 
Q 959 1106 1268 751 
Q 1578 397 2138 397 
Q 2388 397 2633 464 
Q 2878 531 3122 666 
L 3122 134 
Q 2881 22 2623 -34 
Q 2366 -91 2075 -91 
Q 1284 -91 818 406 
Q 353 903 353 1747 
Q 353 2603 823 3093 
Q 1294 3584 2113 3584 
Q 2378 3584 2631 3529 
Q 2884 3475 3122 3366 
z
" transform="scale(0.015625)"/>
       <path id="DejaVuSans-6f" d="M 1959 3097 
Q 1497 3097 1228 2736 
Q 959 2375 959 1747 
Q 959 1119 1226 758 
Q 1494 397 1959 397 
Q 2419 397 2687 759 
Q 2956 1122 2956 1747 
Q 2956 2369 2687 2733 
Q 2419 3097 1959 3097 
z
M 1959 3584 
Q 2709 3584 3137 3096 
Q 3566 2609 3566 1747 
Q 3566 888 3137 398 
Q 2709 -91 1959 -91 
Q 1206 -91 779 398 
Q 353 888 353 1747 
Q 353 2609 779 3096 
Q 1206 3584 1959 3584 
z
" transform="scale(0.015625)"/>
       <path id="DejaVuSans-6e" d="M 3513 2113 
L 3513 0 
L 2938 0 
L 2938 2094 
Q 2938 2591 2744 2837 
Q 2550 3084 2163 3084 
Q 1697 3084 1428 2787 
Q 1159 2491 1159 1978 
L 1159 0 
L 581 0 
L 581 3500 
L 1159 3500 
L 1159 2956 
Q 1366 3272 1645 3428 
Q 1925 3584 2291 3584 
Q 2894 3584 3203 3211 
Q 3513 2838 3513 2113 
z
" transform="scale(0.015625)"/>
       <path id="DejaVuSans-20" transform="scale(0.015625)"/>
       <path id="DejaVuSans-75" d="M 544 1381 
L 544 3500 
L 1119 3500 
L 1119 1403 
Q 1119 906 1312 657 
Q 1506 409 1894 409 
Q 2359 409 2629 706 
Q 2900 1003 2900 1516 
L 2900 3500 
L 3475 3500 
L 3475 0 
L 2900 0 
L 2900 538 
Q 2691 219 2414 64 
Q 2138 -91 1772 -91 
Q 1169 -91 856 284 
Q 544 659 544 1381 
z
M 1991 3584 
L 1991 3584 
z
" transform="scale(0.015625)"/>
       <path id="DejaVuSans-79" d="M 2059 -325 
Q 1816 -950 1584 -1140 
Q 1353 -1331 966 -1331 
L 506 -1331 
L 506 -850 
L 844 -850 
Q 1081 -850 1212 -737 
Q 1344 -625 1503 -206 
L 1606 56 
L 191 3500 
L 800 3500 
L 1894 763 
L 2988 3500 
L 3597 3500 
L 2059 -325 
z
" transform="scale(0.015625)"/>
      </defs>
      <use xlink:href="#DejaVuSans-70"/>
      <use xlink:href="#DejaVuSans-72" x="63.476562"/>
      <use xlink:href="#DejaVuSans-65" x="102.339844"/>
      <use xlink:href="#DejaVuSans-64" x="163.863281"/>
      <use xlink:href="#DejaVuSans-69" x="227.339844"/>
      <use xlink:href="#DejaVuSans-63" x="255.123047"/>
      <use xlink:href="#DejaVuSans-74" x="310.103516"/>
      <use xlink:href="#DejaVuSans-69" x="349.3125"/>
      <use xlink:href="#DejaVuSans-6f" x="377.095703"/>
      <use xlink:href="#DejaVuSans-6e" x="438.277344"/>
      <use xlink:href="#DejaVuSans-20" x="501.65625"/>
      <use xlink:href="#DejaVuSans-61" x="533.443359"/>
      <use xlink:href="#DejaVuSans-63" x="594.722656"/>
      <use xlink:href="#DejaVuSans-63" x="649.703125"/>
      <use xlink:href="#DejaVuSans-75" x="704.683594"/>
      <use xlink:href="#DejaVuSans-72" x="768.0625"/>
      <use xlink:href="#DejaVuSans-61" x="809.175781"/>
      <use xlink:href="#DejaVuSans-63" x="870.455078"/>
      <use xlink:href="#DejaVuSans-79" x="925.435547"/>
     </g>
    </g>
   </g>
   <g id="line2d_16">
    <path d="M 138.436364 198.875136 
L 141.48 257.278442 
L 144.523636 238.590894 
L 147.567273 254.563157 
L 150.610909 167.070649 
L 153.654545 262.97178 
L 156.698182 199.206385 
L 159.741818 228.301896 
L 162.785455 199.685824 
L 165.829091 218.057662 
L 168.872727 189.396324 
L 171.916364 256.208784 
L 174.96 176.797403 
L 178.003636 260.930031 
L 181.047273 180.707413 
L 184.090909 195.655285 
L 187.134545 200.44155 
L 190.178182 221.97974 
L 193.221818 173.509882 
L 196.265455 231.717313 
L 199.309091 191.093377 
L 202.352727 239.094262 
L 205.396364 213.674163 
L 208.44 230.048015 
L 211.483636 212.036444 
L 214.527273 236.731436 
L 217.570909 178.160663 
L 220.614545 214.278205 
L 223.658182 191.889044 
L 226.701818 216.013763 
L 229.745455 169.960602 
L 232.789091 205.227814 
L 235.832727 208.059126 
L 238.876364 197.326679 
L 241.92 186.154193 
L 244.963636 217.70111 
L 248.007273 189.396324 
L 251.050909 226.258371 
L 254.094545 202.42969 
L 257.138182 197.06301 
L 260.181818 182.268701 
L 263.225455 244.753096 
L 266.269091 176.299068 
L 269.312727 228.496424 
L 272.356364 189.396324 
L 275.4 219.586608 
L 278.443636 165.080341 
L 281.487273 226.258371 
L 284.530909 194.583733 
L 287.574545 207.373381 
L 290.618182 182.630368 
L 293.661818 212.566753 
L 296.705455 201.809054 
L 299.749091 219.807512 
L 302.792727 204.865218 
L 305.836364 232.840879 
L 308.88 197.635808 
L 311.923636 183.472066 
L 314.967273 167.070649 
L 318.010909 219.315687 
L 321.054545 155.09799 
L 324.098182 242.811761 
L 327.141818 219.502638 
L 330.185455 177.856364 
L 333.229091 170.909279 
L 336.272727 216.750303 
L 339.316364 203.401476 
L 342.36 204.009492 
L 345.403636 210.406396 
L 348.447273 241.52979 
L 351.490909 176.595696 
L 354.534545 191.451134 
L 357.578182 204.009492 
L 360.621818 205.843191 
L 363.665455 198.085235 
L 366.709091 205.688032 
L 369.752727 184.519894 
L 372.796364 208.137112 
L 375.84 150.225003 
L 378.883636 186.21039 
L 381.927273 190.368963 
L 384.970909 221.97974 
L 388.014545 200.44155 
L 391.058182 215.463057 
L 394.101818 198.141656 
L 397.145455 244.489057 
L 400.189091 182.630368 
L 403.232727 194.73162 
L 406.276364 143.076761 
L 409.32 219.872355 
L 412.363636 224.026042 
L 415.407273 201.809054 
L 418.450909 196.83546 
L 421.494545 188.361929 
L 424.538182 219.665071 
L 427.581818 186.681039 
L 430.625455 204.33039 
L 433.669091 211.118601 
L 436.712727 219.665071 
L 439.756364 140.521199 
L 442.8 186.681039 
L 445.843636 152.502931 
L 448.887273 148.22126 
L 451.930909 165.501818 
L 454.974545 179.39718 
L 458.018182 190.603117 
L 461.061818 216.549171 
L 464.105455 183.472066 
L 467.149091 205.227814 
L 470.192727 194.826893 
L 473.236364 216.013763 
L 476.28 201.809054 
L 479.323636 186.681039 
L 482.367273 209.143849 
L 485.410909 198.085235 
L 488.454545 173.509882 
L 491.498182 171.553024 
L 494.541818 219.738553 
L 497.585455 199.388571 
L 500.629091 206.774146 
L 503.672727 148.020557 
L 506.716364 210.213506 
L 509.76 209.521375 
L 512.803636 151.382338 
L 515.847273 195.37782 
L 518.890909 195.37782 
L 521.934545 221.97974 
L 524.978182 189.706642 
L 528.021818 179.39718 
L 531.065455 190.097042 
L 534.109091 151.382338 
L 537.152727 198.798504 
L 540.196364 195.37782 
L 543.24 215.035733 
L 546.283636 184.195215 
L 549.327273 193.740779 
L 552.370909 172.018501 
L 555.414545 148.22126 
L 558.458182 193.740779 
L 561.501818 199.685824 
L 564.545455 184.823213 
L 567.589091 177.60423 
L 570.632727 174.914805 
L 573.676364 198.447273 
L 576.72 153.659673 
L 579.763636 174.914805 
L 582.807273 173.509882 
L 585.850909 168.742355 
L 588.894545 189.396324 
L 591.938182 170.636175 
L 594.981818 194.651713 
L 598.025455 162.636996 
L 601.069091 212.242167 
L 604.112727 197.06301 
L 607.156364 207.65563 
L 610.2 212.870398 
L 613.243636 200.586588 
L 616.287273 186.681039 
L 619.330909 190.282947 
L 622.374545 213.987581 
L 625.418182 199.685824 
L 628.461818 168.285941 
L 631.505455 180.707413 
L 634.549091 185.051868 
L 637.592727 176.595696 
L 640.636364 192.675158 
L 643.68 198.875136 
L 646.723636 197.326679 
L 649.767273 172.018501 
L 652.810909 230.537001 
L 655.854545 215.840836 
L 658.898182 162.769016 
L 661.941818 163.32959 
L 664.985455 178.535185 
L 668.029091 219.502638 
L 671.072727 193.740779 
L 674.116364 186.681039 
L 677.16 162.769016 
L 680.203636 177.856364 
L 683.247273 210.773803 
L 686.290909 184.604645 
L 689.334545 183.472066 
L 692.378182 195.655285 
L 695.421818 199.470423 
L 698.465455 202.504595 
L 701.509091 263.507624 
L 704.552727 165.950056 
L 707.596364 179.007408 
L 710.64 211.748233 
L 713.683636 173.371693 
L 716.727273 179.193436 
L 719.770909 181.939422 
L 722.814545 192.675158 
L 725.858182 153.399406 
L 728.901818 168.742355 
L 731.945455 190.282947 
L 734.989091 179.007408 
L 738.032727 169.757004 
L 741.076364 224.748266 
L 744.12 193.740779 
L 744.12 193.740779 
" clip-path="url(#p9eb8f3c05f)" style="fill: none; stroke: #008000; stroke-width: 2.25; stroke-linecap: square"/>
   </g>
   <g id="line2d_17">
    <path d="M 108 221.97974 
L 777.6 221.97974 
" clip-path="url(#p9eb8f3c05f)" style="fill: none; stroke: #000000; stroke-width: 2.25; stroke-linecap: square"/>
   </g>
   <g id="patch_3">
    <path d="M 108 378 
L 108 51.84 
" style="fill: none; stroke: #000000; stroke-width: 1.875; stroke-linejoin: miter; stroke-linecap: square"/>
   </g>
   <g id="patch_4">
    <path d="M 777.6 378 
L 777.6 51.84 
" style="fill: none; stroke: #000000; stroke-width: 1.875; stroke-linejoin: miter; stroke-linecap: square"/>
   </g>
   <g id="patch_5">
    <path d="M 108 378 
L 777.6 378 
" style="fill: none; stroke: #000000; stroke-width: 1.875; stroke-linejoin: miter; stroke-linecap: square"/>
   </g>
   <g id="patch_6">
    <path d="M 108 51.84 
L 777.6 51.84 
" style="fill: none; stroke: #000000; stroke-width: 1.875; stroke-linejoin: miter; stroke-linecap: square"/>
   </g>
  </g>
 </g>
 <defs>
  <clipPath id="p9eb8f3c05f">
   <rect x="108" y="51.84" width="669.6" height="326.16"/>
  </clipPath>
 </defs>
</svg>
