<?xml version="1.0" encoding="utf-8" standalone="no"?>
<!DOCTYPE svg PUBLIC "-//W3C//DTD SVG 1.1//EN"
  "http://www.w3.org/Graphics/SVG/1.1/DTD/svg11.dtd">
<svg xmlns:xlink="http://www.w3.org/1999/xlink" width="864pt" height="432pt" viewBox="0 0 864 432" xmlns="http://www.w3.org/2000/svg" version="1.1">
 <metadata>
  <rdf:RDF xmlns:dc="http://purl.org/dc/elements/1.1/" xmlns:cc="http://creativecommons.org/ns#" xmlns:rdf="http://www.w3.org/1999/02/22-rdf-syntax-ns#">
   <cc:Work>
    <dc:type rdf:resource="http://purl.org/dc/dcmitype/StillImage"/>
    <dc:date>2023-05-02T17:26:30.564112</dc:date>
    <dc:format>image/svg+xml</dc:format>
    <dc:creator>
     <cc:Agent>
      <dc:title>Matplotlib v3.5.1, https://matplotlib.org/</dc:title>
     </cc:Agent>
    </dc:creator>
   </cc:Work>
  </rdf:RDF>
 </metadata>
 <defs>
  <style type="text/css">*{stroke-linejoin: round; stroke-linecap: butt}</style>
 </defs>
 <g id="figure_1">
  <g id="patch_1">
   <path d="M 0 432 
L 864 432 
L 864 0 
L 0 0 
L 0 432 
z
" style="fill: none"/>
  </g>
  <g id="axes_1">
   <g id="patch_2">
    <path d="M 108 378 
L 777.6 378 
L 777.6 51.84 
L 108 51.84 
z
" style="fill: #ffffff"/>
   </g>
   <g id="PolyCollection_1">
    <defs>
     <path id="mc1bc975557" d="M 138.436364 -217.451565 
L 138.436364 -148.092714 
L 141.48 -242.603676 
L 144.523636 -241.298831 
L 147.567273 -253.66229 
L 150.610909 -226.222942 
L 153.654545 -239.155696 
L 156.698182 -239.324842 
L 159.741818 -264.325954 
L 162.785455 -269.921086 
L 165.829091 -255.404304 
L 168.872727 -258.895385 
L 171.916364 -259.85372 
L 174.96 -257.085195 
L 178.003636 -273.014865 
L 181.047273 -248.970551 
L 184.090909 -266.111347 
L 187.134545 -293.77989 
L 190.178182 -290.703006 
L 193.221818 -308.856623 
L 196.265455 -256.967532 
L 199.309091 -301.673028 
L 202.352727 -266.919659 
L 205.396364 -292.00434 
L 208.44 -304.15013 
L 211.483636 -291.033673 
L 214.527273 -260.276038 
L 217.570909 -285.660334 
L 220.614545 -286.404335 
L 223.658182 -305.83102 
L 226.701818 -337.327051 
L 229.745455 -266.498182 
L 232.789091 -280.617662 
L 235.832727 -312.114965 
L 238.876364 -285.03 
L 241.92 -285.324156 
L 244.963636 -282.058426 
L 248.007273 -289.826019 
L 251.050909 -292.208281 
L 254.094545 -303.487243 
L 257.138182 -322.976104 
L 260.181818 -83.184248 
L 263.225455 -185.103529 
L 266.269091 -244.807386 
L 269.312727 -318.8097 
L 272.356364 -252.378701 
L 275.4 -263.931004 
L 278.443636 -285.324156 
L 281.487273 -292.944193 
L 284.530909 -269.756523 
L 287.574545 -293.854675 
L 290.618182 -310.873692 
L 293.661818 -259.85372 
L 296.705455 -317.496903 
L 299.749091 -290.392687 
L 302.792727 -299.081598 
L 305.836364 -307.395987 
L 308.88 -312.114965 
L 311.923636 -291.764621 
L 314.967273 -300.292348 
L 318.010909 -269.117118 
L 321.054545 -275.014694 
L 324.098182 -311.994286 
L 327.141818 -337.095584 
L 330.185455 -325.03972 
L 333.229091 -310.289034 
L 336.272727 -298.267013 
L 339.316364 -292.789628 
L 342.36 -294.737143 
L 345.403636 -304.15013 
L 348.447273 -278.478347 
L 351.490909 -277.145659 
L 354.534545 -298.502338 
L 357.578182 -310.873692 
L 360.621818 -296.559011 
L 363.665455 -293.77989 
L 366.709091 -227.522532 
L 369.752727 -293.918622 
L 372.796364 -273.314483 
L 375.84 -264.929351 
L 378.883636 -287.449669 
L 381.927273 -190.361598 
L 384.970909 -248.120445 
L 388.014545 -292.789628 
L 391.058182 -306.196431 
L 394.101818 -278.002944 
L 397.145455 -293.584532 
L 400.189091 -301.113682 
L 403.232727 -299.871499 
L 406.276364 -299.081598 
L 409.32 -306.918655 
L 412.363636 -292.208281 
L 415.407273 -278.478347 
L 418.450909 -315.916364 
L 421.494545 -309.551024 
L 424.538182 -286.404335 
L 427.581818 -307.274268 
L 430.625455 -300.788349 
L 433.669091 -315.356067 
L 436.712727 -326.871133 
L 439.756364 -269.848567 
L 442.8 -294.737143 
L 445.843636 -284.770451 
L 448.887273 -304.877497 
L 451.930909 -322.145546 
L 454.974545 -303.426054 
L 458.018182 -293.691255 
L 461.061818 -290.703006 
L 464.105455 -314.180362 
L 467.149091 -307.770509 
L 470.192727 -297.426568 
L 473.236364 -285.03 
L 476.28 -306.918655 
L 479.323636 -304.921686 
L 482.367273 -302.527201 
L 485.410909 -316.535639 
L 488.454545 -334.271688 
L 491.498182 -299.871499 
L 494.541818 -305.83102 
L 497.585455 -308.590218 
L 500.629091 -290.030649 
L 503.672727 -239.970673 
L 506.716364 -280.617662 
L 509.76 -279.497069 
L 512.803636 -258.490118 
L 515.847273 -293.691255 
L 518.890909 -291.033673 
L 521.934545 -263.57691 
L 524.978182 -276.295372 
L 528.021818 -303.426054 
L 531.065455 -314.058537 
L 534.109091 -285.660334 
L 537.152727 -286.048232 
L 540.196364 -291.555288 
L 543.24 -291.033673 
L 546.283636 -289.442338 
L 549.327273 -303.426054 
L 552.370909 -282.894998 
L 555.414545 -309.379567 
L 558.458182 -284.770451 
L 561.501818 -290.392687 
L 564.545455 -294.737143 
L 567.589091 -262.622246 
L 570.632727 -312.707391 
L 573.676364 -320.328701 
L 576.72 -269.06536 
L 579.763636 -285.03 
L 582.807273 -298.267013 
L 585.850909 -290.030649 
L 588.894545 -307.770509 
L 591.938182 -309.379567 
L 594.981818 -306.627232 
L 598.025455 -283.979443 
L 601.069091 -301.113682 
L 604.112727 -266.993602 
L 607.156364 -266.919659 
L 610.2 -293.973928 
L 613.243636 -265.062302 
L 616.287273 -286.668868 
L 619.330909 -278.183269 
L 622.374545 -244.740294 
L 625.418182 -243.242567 
L 628.461818 -225.708571 
L 631.505455 -271.204675 
L 634.549091 -236.519864 
L 637.592727 -252.130991 
L 640.636364 -258.628307 
L 643.68 -246.327495 
L 646.723636 -245.318961 
L 649.767273 -252.130991 
L 652.810909 -293.918622 
L 655.854545 -290.030649 
L 658.898182 -255.202597 
L 661.941818 -255.489773 
L 664.985455 -287.449669 
L 668.029091 -262.968312 
L 671.072727 -261.56757 
L 674.116364 -270.532319 
L 677.16 -277.359321 
L 680.203636 -257.085195 
L 683.247273 -275.911169 
L 686.290909 -260.121642 
L 689.334545 -275.646014 
L 692.378182 -257.085195 
L 695.421818 -240.906623 
L 698.465455 -266.919659 
L 701.509091 -255.700932 
L 704.552727 -271.204675 
L 707.596364 -262.314632 
L 710.64 -277.145659 
L 713.683636 -244.740294 
L 716.727273 -301.113682 
L 719.770909 -277.359321 
L 722.814545 -240.276289 
L 725.858182 -304.852592 
L 728.901818 -263.57691 
L 731.945455 -262.968312 
L 734.989091 -278.340327 
L 738.032727 -261.56757 
L 741.076364 -292.944193 
L 744.12 -267.380649 
L 744.12 -324.741039 
L 744.12 -324.741039 
L 741.076364 -337.767941 
L 738.032727 -319.838442 
L 734.989091 -328.441709 
L 731.945455 -315.916364 
L 728.901818 -317.13356 
L 725.858182 -342.785524 
L 722.814545 -305.83102 
L 719.770909 -325.148332 
L 716.727273 -342.105723 
L 713.683636 -304.921686 
L 710.64 -328.068376 
L 707.596364 -319.838442 
L 704.552727 -322.976104 
L 701.509091 -309.687181 
L 698.465455 -321.711673 
L 695.421818 -302.679351 
L 692.378182 -313.563117 
L 689.334545 -323.373836 
L 686.290909 -319.332367 
L 683.247273 -327.682597 
L 680.203636 -317.092987 
L 677.16 -329.492787 
L 674.116364 -326.001707 
L 671.072727 -315.356067 
L 668.029091 -320.328701 
L 664.985455 -337.551052 
L 661.941818 -317.711213 
L 658.898182 -317.328312 
L 655.854545 -332.506753 
L 652.810909 -338.937256 
L 649.767273 -311.581435 
L 646.723636 -307.201997 
L 643.68 -302.805417 
L 640.636364 -318.8097 
L 637.592727 -316.535639 
L 634.549091 -293.918622 
L 631.505455 -322.976104 
L 628.461818 -293.691255 
L 625.418182 -297.332636 
L 622.374545 -304.921686 
L 619.330909 -331.739919 
L 616.287273 -331.044378 
L 613.243636 -322.497477 
L 610.2 -335.950762 
L 607.156364 -321.711673 
L 604.112727 -321.489843 
L 601.069091 -342.105723 
L 598.025455 -333.285566 
L 594.981818 -346.260861 
L 591.938182 -345.985628 
L 588.894545 -346.870609 
L 585.850909 -337.095584 
L 582.807273 -337.978052 
L 579.763636 -333.565714 
L 576.72 -325.543282 
L 573.676364 -351.215065 
L 570.632727 -346.936434 
L 567.589091 -323.529809 
L 564.545455 -340.946352 
L 561.501818 -333.837243 
L 558.458182 -330.451123 
L 555.414545 -345.985628 
L 552.370909 -337.551052 
L 549.327273 -342.526154 
L 546.283636 -337.978052 
L 543.24 -337.327051 
L 540.196364 -335.305791 
L 537.152727 -334.923357 
L 534.109091 -336.08705 
L 531.065455 -347.499412 
L 528.021818 -342.526154 
L 524.978182 -333.925905 
L 521.934545 -322.002347 
L 518.890909 -337.327051 
L 515.847273 -340.75619 
L 512.803636 -317.496903 
L 509.76 -328.803191 
L 506.716364 -329.153377 
L 503.672727 -304.15013 
L 500.629091 -337.095584 
L 497.585455 -345.886959 
L 494.541818 -346.172393 
L 491.498182 -342.657804 
L 488.454545 -351.215065 
L 485.410909 -351.215065 
L 482.367273 -346.346279 
L 479.323636 -346.585727 
L 476.28 -345.678014 
L 473.236364 -333.565714 
L 470.192727 -337.767941 
L 467.149091 -345.784496 
L 464.105455 -346.585727 
L 461.061818 -341.129722 
L 458.018182 -340.75619 
L 454.974545 -342.526154 
L 451.930909 -351.215065 
L 448.887273 -346.080708 
L 445.843636 -330.451123 
L 442.8 -337.095584 
L 439.756364 -322.497477 
L 436.712727 -351.215065 
L 433.669091 -346.73269 
L 430.625455 -346.172393 
L 427.581818 -346.346279 
L 424.538182 -337.327051 
L 421.494545 -346.585727 
L 418.450909 -346.802727 
L 415.407273 -329.821913 
L 412.363636 -338.570754 
L 409.32 -345.678014 
L 406.276364 -338.29031 
L 403.232727 -338.486139 
L 400.189091 -342.105723 
L 397.145455 -345.452012 
L 394.101818 -330.297316 
L 391.058182 -343.029859 
L 388.014545 -336.608706 
L 384.970909 -306.391317 
L 381.927273 -255.637043 
L 378.883636 -337.551052 
L 375.84 -315.916364 
L 372.796364 -326.871133 
L 369.752727 -338.937256 
L 366.709091 -298.267013 
L 363.665455 -336.856271 
L 360.621818 -342.105723 
L 357.578182 -346.172393 
L 354.534545 -336.154286 
L 351.490909 -328.068376 
L 348.447273 -329.821913 
L 345.403636 -346.508571 
L 342.36 -341.802078 
L 339.316364 -341.477492 
L 336.272727 -337.978052 
L 333.229091 -343.029859 
L 330.185455 -351.215065 
L 327.141818 -351.215065 
L 324.098182 -347.292987 
L 321.054545 -328.803191 
L 318.010909 -323.887038 
L 314.967273 -341.956389 
L 311.923636 -336.352454 
L 308.88 -346.870609 
L 305.836364 -346.346279 
L 302.792727 -338.181698 
L 299.749091 -338.181698 
L 296.705455 -347.000295 
L 293.661818 -317.992758 
L 290.618182 -346.73269 
L 287.574545 -337.978052 
L 284.530909 -329.492787 
L 281.487273 -337.767941 
L 278.443636 -337.095584 
L 275.4 -325.543282 
L 272.356364 -313.680779 
L 269.312727 -351.215065 
L 266.269091 -306.196431 
L 263.225455 -262.622246 
L 260.181818 -126.26063 
L 257.138182 -351.215065 
L 254.094545 -343.260428 
L 251.050909 -338.570754 
L 248.007273 -334.844653 
L 244.963636 -339.688958 
L 241.92 -332.389091 
L 238.876364 -333.565714 
L 235.832727 -346.870609 
L 232.789091 -332.389091 
L 229.745455 -318.26961 
L 226.701818 -351.215065 
L 223.658182 -346.172393 
L 220.614545 -337.327051 
L 217.570909 -336.08705 
L 214.527273 -317.711213 
L 211.483636 -337.327051 
L 208.44 -346.508571 
L 205.396364 -337.551052 
L 202.352727 -321.711673 
L 199.309091 -346.260861 
L 196.265455 -313.563117 
L 193.221818 -341.91974 
L 190.178182 -336.08705 
L 187.134545 -336.975928 
L 184.090909 -316.399907 
L 181.047273 -312.264774 
L 178.003636 -325.148332 
L 174.96 -313.680779 
L 171.916364 -313.943789 
L 168.872727 -318.631648 
L 165.829091 -310.873692 
L 162.785455 -321.264652 
L 159.741818 -320.803876 
L 156.698182 -303.395315 
L 153.654545 -301.908942 
L 150.610909 -291.033673 
L 147.567273 -310.268571 
L 144.523636 -296.305974 
L 141.48 -303.426054 
L 138.436364 -217.451565 
z
" style="stroke: #008000; stroke-opacity: 0.2; stroke-width: 1.5"/>
    </defs>
    <g clip-path="url(#p253b56836b)">
     <use xlink:href="#mc1bc975557" x="0" y="432" style="fill: #008000; fill-opacity: 0.2; stroke: #008000; stroke-opacity: 0.2; stroke-width: 1.5"/>
    </g>
   </g>
   <g id="PolyCollection_2">
    <defs>
     <path id="mddae404260" d="M 138.436364 -365.334545 
L 138.436364 -68.825455 
L 141.48 -68.825455 
L 144.523636 -68.825455 
L 147.567273 -68.825455 
L 150.610909 -68.825455 
L 153.654545 -68.825455 
L 156.698182 -68.825455 
L 159.741818 -68.825455 
L 162.785455 -68.825455 
L 165.829091 -68.825455 
L 168.872727 -68.825455 
L 171.916364 -68.825455 
L 174.96 -68.825455 
L 178.003636 -68.825455 
L 181.047273 -68.825455 
L 184.090909 -68.825455 
L 187.134545 -68.825455 
L 190.178182 -68.825455 
L 193.221818 -68.825455 
L 196.265455 -68.825455 
L 199.309091 -68.825455 
L 202.352727 -68.825455 
L 205.396364 -68.825455 
L 208.44 -68.825455 
L 211.483636 -68.825455 
L 214.527273 -68.825455 
L 217.570909 -68.825455 
L 220.614545 -68.825455 
L 223.658182 -68.825455 
L 226.701818 -68.825455 
L 229.745455 -68.825455 
L 232.789091 -68.825455 
L 235.832727 -68.825455 
L 238.876364 -68.825455 
L 241.92 -68.825455 
L 244.963636 -68.825455 
L 248.007273 -68.825455 
L 251.050909 -68.825455 
L 254.094545 -68.825455 
L 257.138182 -68.825455 
L 260.181818 -68.825455 
L 260.181818 -365.334545 
L 260.181818 -365.334545 
L 257.138182 -365.334545 
L 254.094545 -365.334545 
L 251.050909 -365.334545 
L 248.007273 -365.334545 
L 244.963636 -365.334545 
L 241.92 -365.334545 
L 238.876364 -365.334545 
L 235.832727 -365.334545 
L 232.789091 -365.334545 
L 229.745455 -365.334545 
L 226.701818 -365.334545 
L 223.658182 -365.334545 
L 220.614545 -365.334545 
L 217.570909 -365.334545 
L 214.527273 -365.334545 
L 211.483636 -365.334545 
L 208.44 -365.334545 
L 205.396364 -365.334545 
L 202.352727 -365.334545 
L 199.309091 -365.334545 
L 196.265455 -365.334545 
L 193.221818 -365.334545 
L 190.178182 -365.334545 
L 187.134545 -365.334545 
L 184.090909 -365.334545 
L 181.047273 -365.334545 
L 178.003636 -365.334545 
L 174.96 -365.334545 
L 171.916364 -365.334545 
L 168.872727 -365.334545 
L 165.829091 -365.334545 
L 162.785455 -365.334545 
L 159.741818 -365.334545 
L 156.698182 -365.334545 
L 153.654545 -365.334545 
L 150.610909 -365.334545 
L 147.567273 -365.334545 
L 144.523636 -365.334545 
L 141.48 -365.334545 
L 138.436364 -365.334545 
z
" style="stroke: #008000; stroke-opacity: 0.2; stroke-width: 1.5"/>
    </defs>
    <g clip-path="url(#p253b56836b)">
     <use xlink:href="#mddae404260" x="0" y="432" style="fill: #008000; fill-opacity: 0.2; stroke: #008000; stroke-opacity: 0.2; stroke-width: 1.5"/>
    </g>
   </g>
   <g id="PolyCollection_3">
    <defs>
     <path id="m23cddaaf1a" d="M 260.181818 -365.334545 
L 260.181818 -68.825455 
L 263.225455 -68.825455 
L 266.269091 -68.825455 
L 269.312727 -68.825455 
L 272.356364 -68.825455 
L 275.4 -68.825455 
L 278.443636 -68.825455 
L 281.487273 -68.825455 
L 284.530909 -68.825455 
L 287.574545 -68.825455 
L 290.618182 -68.825455 
L 293.661818 -68.825455 
L 296.705455 -68.825455 
L 299.749091 -68.825455 
L 302.792727 -68.825455 
L 305.836364 -68.825455 
L 308.88 -68.825455 
L 311.923636 -68.825455 
L 314.967273 -68.825455 
L 318.010909 -68.825455 
L 321.054545 -68.825455 
L 324.098182 -68.825455 
L 327.141818 -68.825455 
L 330.185455 -68.825455 
L 333.229091 -68.825455 
L 336.272727 -68.825455 
L 339.316364 -68.825455 
L 342.36 -68.825455 
L 345.403636 -68.825455 
L 348.447273 -68.825455 
L 351.490909 -68.825455 
L 354.534545 -68.825455 
L 357.578182 -68.825455 
L 360.621818 -68.825455 
L 363.665455 -68.825455 
L 366.709091 -68.825455 
L 369.752727 -68.825455 
L 372.796364 -68.825455 
L 375.84 -68.825455 
L 378.883636 -68.825455 
L 381.927273 -68.825455 
L 381.927273 -365.334545 
L 381.927273 -365.334545 
L 378.883636 -365.334545 
L 375.84 -365.334545 
L 372.796364 -365.334545 
L 369.752727 -365.334545 
L 366.709091 -365.334545 
L 363.665455 -365.334545 
L 360.621818 -365.334545 
L 357.578182 -365.334545 
L 354.534545 -365.334545 
L 351.490909 -365.334545 
L 348.447273 -365.334545 
L 345.403636 -365.334545 
L 342.36 -365.334545 
L 339.316364 -365.334545 
L 336.272727 -365.334545 
L 333.229091 -365.334545 
L 330.185455 -365.334545 
L 327.141818 -365.334545 
L 324.098182 -365.334545 
L 321.054545 -365.334545 
L 318.010909 -365.334545 
L 314.967273 -365.334545 
L 311.923636 -365.334545 
L 308.88 -365.334545 
L 305.836364 -365.334545 
L 302.792727 -365.334545 
L 299.749091 -365.334545 
L 296.705455 -365.334545 
L 293.661818 -365.334545 
L 290.618182 -365.334545 
L 287.574545 -365.334545 
L 284.530909 -365.334545 
L 281.487273 -365.334545 
L 278.443636 -365.334545 
L 275.4 -365.334545 
L 272.356364 -365.334545 
L 269.312727 -365.334545 
L 266.269091 -365.334545 
L 263.225455 -365.334545 
L 260.181818 -365.334545 
z
" style="stroke: #0000ff; stroke-opacity: 0.2; stroke-width: 1.5"/>
    </defs>
    <g clip-path="url(#p253b56836b)">
     <use xlink:href="#m23cddaaf1a" x="0" y="432" style="fill: #0000ff; fill-opacity: 0.2; stroke: #0000ff; stroke-opacity: 0.2; stroke-width: 1.5"/>
    </g>
   </g>
   <g id="PolyCollection_4">
    <defs>
     <path id="mcce0221fd8" d="M 381.927273 -365.334545 
L 381.927273 -68.825455 
L 384.970909 -68.825455 
L 388.014545 -68.825455 
L 391.058182 -68.825455 
L 394.101818 -68.825455 
L 397.145455 -68.825455 
L 400.189091 -68.825455 
L 403.232727 -68.825455 
L 406.276364 -68.825455 
L 409.32 -68.825455 
L 412.363636 -68.825455 
L 415.407273 -68.825455 
L 418.450909 -68.825455 
L 421.494545 -68.825455 
L 424.538182 -68.825455 
L 427.581818 -68.825455 
L 430.625455 -68.825455 
L 433.669091 -68.825455 
L 436.712727 -68.825455 
L 439.756364 -68.825455 
L 442.8 -68.825455 
L 445.843636 -68.825455 
L 448.887273 -68.825455 
L 451.930909 -68.825455 
L 454.974545 -68.825455 
L 458.018182 -68.825455 
L 461.061818 -68.825455 
L 464.105455 -68.825455 
L 467.149091 -68.825455 
L 470.192727 -68.825455 
L 473.236364 -68.825455 
L 476.28 -68.825455 
L 479.323636 -68.825455 
L 482.367273 -68.825455 
L 485.410909 -68.825455 
L 488.454545 -68.825455 
L 491.498182 -68.825455 
L 494.541818 -68.825455 
L 497.585455 -68.825455 
L 500.629091 -68.825455 
L 503.672727 -68.825455 
L 503.672727 -365.334545 
L 503.672727 -365.334545 
L 500.629091 -365.334545 
L 497.585455 -365.334545 
L 494.541818 -365.334545 
L 491.498182 -365.334545 
L 488.454545 -365.334545 
L 485.410909 -365.334545 
L 482.367273 -365.334545 
L 479.323636 -365.334545 
L 476.28 -365.334545 
L 473.236364 -365.334545 
L 470.192727 -365.334545 
L 467.149091 -365.334545 
L 464.105455 -365.334545 
L 461.061818 -365.334545 
L 458.018182 -365.334545 
L 454.974545 -365.334545 
L 451.930909 -365.334545 
L 448.887273 -365.334545 
L 445.843636 -365.334545 
L 442.8 -365.334545 
L 439.756364 -365.334545 
L 436.712727 -365.334545 
L 433.669091 -365.334545 
L 430.625455 -365.334545 
L 427.581818 -365.334545 
L 424.538182 -365.334545 
L 421.494545 -365.334545 
L 418.450909 -365.334545 
L 415.407273 -365.334545 
L 412.363636 -365.334545 
L 409.32 -365.334545 
L 406.276364 -365.334545 
L 403.232727 -365.334545 
L 400.189091 -365.334545 
L 397.145455 -365.334545 
L 394.101818 -365.334545 
L 391.058182 -365.334545 
L 388.014545 -365.334545 
L 384.970909 -365.334545 
L 381.927273 -365.334545 
z
" style="stroke: #008000; stroke-opacity: 0.2; stroke-width: 1.5"/>
    </defs>
    <g clip-path="url(#p253b56836b)">
     <use xlink:href="#mcce0221fd8" x="0" y="432" style="fill: #008000; fill-opacity: 0.2; stroke: #008000; stroke-opacity: 0.2; stroke-width: 1.5"/>
    </g>
   </g>
   <g id="PolyCollection_5">
    <defs>
     <path id="m5230c8c58a" d="M 503.672727 -365.334545 
L 503.672727 -68.825455 
L 506.716364 -68.825455 
L 509.76 -68.825455 
L 512.803636 -68.825455 
L 515.847273 -68.825455 
L 518.890909 -68.825455 
L 521.934545 -68.825455 
L 524.978182 -68.825455 
L 528.021818 -68.825455 
L 531.065455 -68.825455 
L 534.109091 -68.825455 
L 537.152727 -68.825455 
L 540.196364 -68.825455 
L 543.24 -68.825455 
L 546.283636 -68.825455 
L 549.327273 -68.825455 
L 552.370909 -68.825455 
L 555.414545 -68.825455 
L 558.458182 -68.825455 
L 561.501818 -68.825455 
L 564.545455 -68.825455 
L 567.589091 -68.825455 
L 570.632727 -68.825455 
L 573.676364 -68.825455 
L 576.72 -68.825455 
L 579.763636 -68.825455 
L 582.807273 -68.825455 
L 585.850909 -68.825455 
L 588.894545 -68.825455 
L 591.938182 -68.825455 
L 594.981818 -68.825455 
L 598.025455 -68.825455 
L 601.069091 -68.825455 
L 604.112727 -68.825455 
L 607.156364 -68.825455 
L 610.2 -68.825455 
L 613.243636 -68.825455 
L 616.287273 -68.825455 
L 619.330909 -68.825455 
L 622.374545 -68.825455 
L 625.418182 -68.825455 
L 625.418182 -365.334545 
L 625.418182 -365.334545 
L 622.374545 -365.334545 
L 619.330909 -365.334545 
L 616.287273 -365.334545 
L 613.243636 -365.334545 
L 610.2 -365.334545 
L 607.156364 -365.334545 
L 604.112727 -365.334545 
L 601.069091 -365.334545 
L 598.025455 -365.334545 
L 594.981818 -365.334545 
L 591.938182 -365.334545 
L 588.894545 -365.334545 
L 585.850909 -365.334545 
L 582.807273 -365.334545 
L 579.763636 -365.334545 
L 576.72 -365.334545 
L 573.676364 -365.334545 
L 570.632727 -365.334545 
L 567.589091 -365.334545 
L 564.545455 -365.334545 
L 561.501818 -365.334545 
L 558.458182 -365.334545 
L 555.414545 -365.334545 
L 552.370909 -365.334545 
L 549.327273 -365.334545 
L 546.283636 -365.334545 
L 543.24 -365.334545 
L 540.196364 -365.334545 
L 537.152727 -365.334545 
L 534.109091 -365.334545 
L 531.065455 -365.334545 
L 528.021818 -365.334545 
L 524.978182 -365.334545 
L 521.934545 -365.334545 
L 518.890909 -365.334545 
L 515.847273 -365.334545 
L 512.803636 -365.334545 
L 509.76 -365.334545 
L 506.716364 -365.334545 
L 503.672727 -365.334545 
z
" style="stroke: #0000ff; stroke-opacity: 0.2; stroke-width: 1.5"/>
    </defs>
    <g clip-path="url(#p253b56836b)">
     <use xlink:href="#m5230c8c58a" x="0" y="432" style="fill: #0000ff; fill-opacity: 0.2; stroke: #0000ff; stroke-opacity: 0.2; stroke-width: 1.5"/>
    </g>
   </g>
   <g id="PolyCollection_6">
    <defs>
     <path id="m3b8630d370" d="M 625.418182 -365.334545 
L 625.418182 -68.825455 
L 628.461818 -68.825455 
L 631.505455 -68.825455 
L 634.549091 -68.825455 
L 637.592727 -68.825455 
L 640.636364 -68.825455 
L 643.68 -68.825455 
L 646.723636 -68.825455 
L 649.767273 -68.825455 
L 652.810909 -68.825455 
L 655.854545 -68.825455 
L 658.898182 -68.825455 
L 661.941818 -68.825455 
L 664.985455 -68.825455 
L 668.029091 -68.825455 
L 671.072727 -68.825455 
L 674.116364 -68.825455 
L 677.16 -68.825455 
L 680.203636 -68.825455 
L 683.247273 -68.825455 
L 686.290909 -68.825455 
L 689.334545 -68.825455 
L 692.378182 -68.825455 
L 695.421818 -68.825455 
L 698.465455 -68.825455 
L 701.509091 -68.825455 
L 704.552727 -68.825455 
L 707.596364 -68.825455 
L 710.64 -68.825455 
L 713.683636 -68.825455 
L 716.727273 -68.825455 
L 719.770909 -68.825455 
L 722.814545 -68.825455 
L 725.858182 -68.825455 
L 728.901818 -68.825455 
L 731.945455 -68.825455 
L 734.989091 -68.825455 
L 738.032727 -68.825455 
L 741.076364 -68.825455 
L 744.12 -68.825455 
L 747.163636 -68.825455 
L 747.163636 -365.334545 
L 747.163636 -365.334545 
L 744.12 -365.334545 
L 741.076364 -365.334545 
L 738.032727 -365.334545 
L 734.989091 -365.334545 
L 731.945455 -365.334545 
L 728.901818 -365.334545 
L 725.858182 -365.334545 
L 722.814545 -365.334545 
L 719.770909 -365.334545 
L 716.727273 -365.334545 
L 713.683636 -365.334545 
L 710.64 -365.334545 
L 707.596364 -365.334545 
L 704.552727 -365.334545 
L 701.509091 -365.334545 
L 698.465455 -365.334545 
L 695.421818 -365.334545 
L 692.378182 -365.334545 
L 689.334545 -365.334545 
L 686.290909 -365.334545 
L 683.247273 -365.334545 
L 680.203636 -365.334545 
L 677.16 -365.334545 
L 674.116364 -365.334545 
L 671.072727 -365.334545 
L 668.029091 -365.334545 
L 664.985455 -365.334545 
L 661.941818 -365.334545 
L 658.898182 -365.334545 
L 655.854545 -365.334545 
L 652.810909 -365.334545 
L 649.767273 -365.334545 
L 646.723636 -365.334545 
L 643.68 -365.334545 
L 640.636364 -365.334545 
L 637.592727 -365.334545 
L 634.549091 -365.334545 
L 631.505455 -365.334545 
L 628.461818 -365.334545 
L 625.418182 -365.334545 
z
" style="stroke: #ff0000; stroke-opacity: 0.2; stroke-width: 1.5"/>
    </defs>
    <g clip-path="url(#p253b56836b)">
     <use xlink:href="#m3b8630d370" x="0" y="432" style="fill: #ff0000; fill-opacity: 0.2; stroke: #ff0000; stroke-opacity: 0.2; stroke-width: 1.5"/>
    </g>
   </g>
   <g id="matplotlib.axis_1">
    <g id="xtick_1">
     <g id="line2d_1">
      <defs>
       <path id="m57003e2a54" d="M 0 0 
L 0 9 
" style="stroke: #000000; stroke-width: 1.875"/>
      </defs>
      <g>
       <use xlink:href="#m57003e2a54" x="138.436364" y="378" style="stroke: #000000; stroke-width: 1.875"/>
      </g>
     </g>
     <g id="text_1">
      <!-- 0 -->
      <g transform="translate(133.187301 403.037422)scale(0.165 -0.165)">
       <defs>
        <path id="DejaVuSans-30" d="M 2034 4250 
Q 1547 4250 1301 3770 
Q 1056 3291 1056 2328 
Q 1056 1369 1301 889 
Q 1547 409 2034 409 
Q 2525 409 2770 889 
Q 3016 1369 3016 2328 
Q 3016 3291 2770 3770 
Q 2525 4250 2034 4250 
z
M 2034 4750 
Q 2819 4750 3233 4129 
Q 3647 3509 3647 2328 
Q 3647 1150 3233 529 
Q 2819 -91 2034 -91 
Q 1250 -91 836 529 
Q 422 1150 422 2328 
Q 422 3509 836 4129 
Q 1250 4750 2034 4750 
z
" transform="scale(0.015625)"/>
       </defs>
       <use xlink:href="#DejaVuSans-30"/>
      </g>
     </g>
    </g>
    <g id="xtick_2">
     <g id="line2d_2">
      <g>
       <use xlink:href="#m57003e2a54" x="214.527273" y="378" style="stroke: #000000; stroke-width: 1.875"/>
      </g>
     </g>
     <g id="text_2">
      <!-- 25 -->
      <g transform="translate(204.029148 403.037422)scale(0.165 -0.165)">
       <defs>
        <path id="DejaVuSans-32" d="M 1228 531 
L 3431 531 
L 3431 0 
L 469 0 
L 469 531 
Q 828 903 1448 1529 
Q 2069 2156 2228 2338 
Q 2531 2678 2651 2914 
Q 2772 3150 2772 3378 
Q 2772 3750 2511 3984 
Q 2250 4219 1831 4219 
Q 1534 4219 1204 4116 
Q 875 4013 500 3803 
L 500 4441 
Q 881 4594 1212 4672 
Q 1544 4750 1819 4750 
Q 2544 4750 2975 4387 
Q 3406 4025 3406 3419 
Q 3406 3131 3298 2873 
Q 3191 2616 2906 2266 
Q 2828 2175 2409 1742 
Q 1991 1309 1228 531 
z
" transform="scale(0.015625)"/>
        <path id="DejaVuSans-35" d="M 691 4666 
L 3169 4666 
L 3169 4134 
L 1269 4134 
L 1269 2991 
Q 1406 3038 1543 3061 
Q 1681 3084 1819 3084 
Q 2600 3084 3056 2656 
Q 3513 2228 3513 1497 
Q 3513 744 3044 326 
Q 2575 -91 1722 -91 
Q 1428 -91 1123 -41 
Q 819 9 494 109 
L 494 744 
Q 775 591 1075 516 
Q 1375 441 1709 441 
Q 2250 441 2565 725 
Q 2881 1009 2881 1497 
Q 2881 1984 2565 2268 
Q 2250 2553 1709 2553 
Q 1456 2553 1204 2497 
Q 953 2441 691 2322 
L 691 4666 
z
" transform="scale(0.015625)"/>
       </defs>
       <use xlink:href="#DejaVuSans-32"/>
       <use xlink:href="#DejaVuSans-35" x="63.623047"/>
      </g>
     </g>
    </g>
    <g id="xtick_3">
     <g id="line2d_3">
      <g>
       <use xlink:href="#m57003e2a54" x="290.618182" y="378" style="stroke: #000000; stroke-width: 1.875"/>
      </g>
     </g>
     <g id="text_3">
      <!-- 50 -->
      <g transform="translate(280.120057 403.037422)scale(0.165 -0.165)">
       <use xlink:href="#DejaVuSans-35"/>
       <use xlink:href="#DejaVuSans-30" x="63.623047"/>
      </g>
     </g>
    </g>
    <g id="xtick_4">
     <g id="line2d_4">
      <g>
       <use xlink:href="#m57003e2a54" x="366.709091" y="378" style="stroke: #000000; stroke-width: 1.875"/>
      </g>
     </g>
     <g id="text_4">
      <!-- 75 -->
      <g transform="translate(356.210966 403.037422)scale(0.165 -0.165)">
       <defs>
        <path id="DejaVuSans-37" d="M 525 4666 
L 3525 4666 
L 3525 4397 
L 1831 0 
L 1172 0 
L 2766 4134 
L 525 4134 
L 525 4666 
z
" transform="scale(0.015625)"/>
       </defs>
       <use xlink:href="#DejaVuSans-37"/>
       <use xlink:href="#DejaVuSans-35" x="63.623047"/>
      </g>
     </g>
    </g>
    <g id="xtick_5">
     <g id="line2d_5">
      <g>
       <use xlink:href="#m57003e2a54" x="442.8" y="378" style="stroke: #000000; stroke-width: 1.875"/>
      </g>
     </g>
     <g id="text_5">
      <!-- 100 -->
      <g transform="translate(427.052813 403.037422)scale(0.165 -0.165)">
       <defs>
        <path id="DejaVuSans-31" d="M 794 531 
L 1825 531 
L 1825 4091 
L 703 3866 
L 703 4441 
L 1819 4666 
L 2450 4666 
L 2450 531 
L 3481 531 
L 3481 0 
L 794 0 
L 794 531 
z
" transform="scale(0.015625)"/>
       </defs>
       <use xlink:href="#DejaVuSans-31"/>
       <use xlink:href="#DejaVuSans-30" x="63.623047"/>
       <use xlink:href="#DejaVuSans-30" x="127.246094"/>
      </g>
     </g>
    </g>
    <g id="xtick_6">
     <g id="line2d_6">
      <g>
       <use xlink:href="#m57003e2a54" x="518.890909" y="378" style="stroke: #000000; stroke-width: 1.875"/>
      </g>
     </g>
     <g id="text_6">
      <!-- 125 -->
      <g transform="translate(503.143722 403.037422)scale(0.165 -0.165)">
       <use xlink:href="#DejaVuSans-31"/>
       <use xlink:href="#DejaVuSans-32" x="63.623047"/>
       <use xlink:href="#DejaVuSans-35" x="127.246094"/>
      </g>
     </g>
    </g>
    <g id="xtick_7">
     <g id="line2d_7">
      <g>
       <use xlink:href="#m57003e2a54" x="594.981818" y="378" style="stroke: #000000; stroke-width: 1.875"/>
      </g>
     </g>
     <g id="text_7">
      <!-- 150 -->
      <g transform="translate(579.234631 403.037422)scale(0.165 -0.165)">
       <use xlink:href="#DejaVuSans-31"/>
       <use xlink:href="#DejaVuSans-35" x="63.623047"/>
       <use xlink:href="#DejaVuSans-30" x="127.246094"/>
      </g>
     </g>
    </g>
    <g id="xtick_8">
     <g id="line2d_8">
      <g>
       <use xlink:href="#m57003e2a54" x="671.072727" y="378" style="stroke: #000000; stroke-width: 1.875"/>
      </g>
     </g>
     <g id="text_8">
      <!-- 175 -->
      <g transform="translate(655.32554 403.037422)scale(0.165 -0.165)">
       <use xlink:href="#DejaVuSans-31"/>
       <use xlink:href="#DejaVuSans-37" x="63.623047"/>
       <use xlink:href="#DejaVuSans-35" x="127.246094"/>
      </g>
     </g>
    </g>
    <g id="xtick_9">
     <g id="line2d_9">
      <g>
       <use xlink:href="#m57003e2a54" x="747.163636" y="378" style="stroke: #000000; stroke-width: 1.875"/>
      </g>
     </g>
     <g id="text_9">
      <!-- 200 -->
      <g transform="translate(731.416449 403.037422)scale(0.165 -0.165)">
       <use xlink:href="#DejaVuSans-32"/>
       <use xlink:href="#DejaVuSans-30" x="63.623047"/>
       <use xlink:href="#DejaVuSans-30" x="127.246094"/>
      </g>
     </g>
    </g>
    <g id="text_10">
     <!-- trial -->
     <g transform="translate(425.055938 424.146094)scale(0.18 -0.18)">
      <defs>
       <path id="DejaVuSans-74" d="M 1172 4494 
L 1172 3500 
L 2356 3500 
L 2356 3053 
L 1172 3053 
L 1172 1153 
Q 1172 725 1289 603 
Q 1406 481 1766 481 
L 2356 481 
L 2356 0 
L 1766 0 
Q 1100 0 847 248 
Q 594 497 594 1153 
L 594 3053 
L 172 3053 
L 172 3500 
L 594 3500 
L 594 4494 
L 1172 4494 
z
" transform="scale(0.015625)"/>
       <path id="DejaVuSans-72" d="M 2631 2963 
Q 2534 3019 2420 3045 
Q 2306 3072 2169 3072 
Q 1681 3072 1420 2755 
Q 1159 2438 1159 1844 
L 1159 0 
L 581 0 
L 581 3500 
L 1159 3500 
L 1159 2956 
Q 1341 3275 1631 3429 
Q 1922 3584 2338 3584 
Q 2397 3584 2469 3576 
Q 2541 3569 2628 3553 
L 2631 2963 
z
" transform="scale(0.015625)"/>
       <path id="DejaVuSans-69" d="M 603 3500 
L 1178 3500 
L 1178 0 
L 603 0 
L 603 3500 
z
M 603 4863 
L 1178 4863 
L 1178 4134 
L 603 4134 
L 603 4863 
z
" transform="scale(0.015625)"/>
       <path id="DejaVuSans-61" d="M 2194 1759 
Q 1497 1759 1228 1600 
Q 959 1441 959 1056 
Q 959 750 1161 570 
Q 1363 391 1709 391 
Q 2188 391 2477 730 
Q 2766 1069 2766 1631 
L 2766 1759 
L 2194 1759 
z
M 3341 1997 
L 3341 0 
L 2766 0 
L 2766 531 
Q 2569 213 2275 61 
Q 1981 -91 1556 -91 
Q 1019 -91 701 211 
Q 384 513 384 1019 
Q 384 1609 779 1909 
Q 1175 2209 1959 2209 
L 2766 2209 
L 2766 2266 
Q 2766 2663 2505 2880 
Q 2244 3097 1772 3097 
Q 1472 3097 1187 3025 
Q 903 2953 641 2809 
L 641 3341 
Q 956 3463 1253 3523 
Q 1550 3584 1831 3584 
Q 2591 3584 2966 3190 
Q 3341 2797 3341 1997 
z
" transform="scale(0.015625)"/>
       <path id="DejaVuSans-6c" d="M 603 4863 
L 1178 4863 
L 1178 0 
L 603 0 
L 603 4863 
z
" transform="scale(0.015625)"/>
      </defs>
      <use xlink:href="#DejaVuSans-74"/>
      <use xlink:href="#DejaVuSans-72" x="39.208984"/>
      <use xlink:href="#DejaVuSans-69" x="80.322266"/>
      <use xlink:href="#DejaVuSans-61" x="108.105469"/>
      <use xlink:href="#DejaVuSans-6c" x="169.384766"/>
     </g>
    </g>
   </g>
   <g id="matplotlib.axis_2">
    <g id="ytick_1">
     <g id="line2d_10">
      <defs>
       <path id="m3e859244a9" d="M 0 0 
L -9 0 
" style="stroke: #000000; stroke-width: 1.875"/>
      </defs>
      <g>
       <use xlink:href="#m3e859244a9" x="108" y="363.174545" style="stroke: #000000; stroke-width: 1.875"/>
      </g>
     </g>
     <g id="text_11">
      <!-- 0.0 -->
      <g transform="translate(69.259844 369.443256)scale(0.165 -0.165)">
       <defs>
        <path id="DejaVuSans-2e" d="M 684 794 
L 1344 794 
L 1344 0 
L 684 0 
L 684 794 
z
" transform="scale(0.015625)"/>
       </defs>
       <use xlink:href="#DejaVuSans-30"/>
       <use xlink:href="#DejaVuSans-2e" x="63.623047"/>
       <use xlink:href="#DejaVuSans-30" x="95.410156"/>
      </g>
     </g>
    </g>
    <g id="ytick_2">
     <g id="line2d_11">
      <g>
       <use xlink:href="#m3e859244a9" x="108" y="306.696623" style="stroke: #000000; stroke-width: 1.875"/>
      </g>
     </g>
     <g id="text_12">
      <!-- 0.2 -->
      <g transform="translate(69.259844 312.965334)scale(0.165 -0.165)">
       <use xlink:href="#DejaVuSans-30"/>
       <use xlink:href="#DejaVuSans-2e" x="63.623047"/>
       <use xlink:href="#DejaVuSans-32" x="95.410156"/>
      </g>
     </g>
    </g>
    <g id="ytick_3">
     <g id="line2d_12">
      <g>
       <use xlink:href="#m3e859244a9" x="108" y="250.218701" style="stroke: #000000; stroke-width: 1.875"/>
      </g>
     </g>
     <g id="text_13">
      <!-- 0.4 -->
      <g transform="translate(69.259844 256.487412)scale(0.165 -0.165)">
       <defs>
        <path id="DejaVuSans-34" d="M 2419 4116 
L 825 1625 
L 2419 1625 
L 2419 4116 
z
M 2253 4666 
L 3047 4666 
L 3047 1625 
L 3713 1625 
L 3713 1100 
L 3047 1100 
L 3047 0 
L 2419 0 
L 2419 1100 
L 313 1100 
L 313 1709 
L 2253 4666 
z
" transform="scale(0.015625)"/>
       </defs>
       <use xlink:href="#DejaVuSans-30"/>
       <use xlink:href="#DejaVuSans-2e" x="63.623047"/>
       <use xlink:href="#DejaVuSans-34" x="95.410156"/>
      </g>
     </g>
    </g>
    <g id="ytick_4">
     <g id="line2d_13">
      <g>
       <use xlink:href="#m3e859244a9" x="108" y="193.740779" style="stroke: #000000; stroke-width: 1.875"/>
      </g>
     </g>
     <g id="text_14">
      <!-- 0.6 -->
      <g transform="translate(69.259844 200.00949)scale(0.165 -0.165)">
       <defs>
        <path id="DejaVuSans-36" d="M 2113 2584 
Q 1688 2584 1439 2293 
Q 1191 2003 1191 1497 
Q 1191 994 1439 701 
Q 1688 409 2113 409 
Q 2538 409 2786 701 
Q 3034 994 3034 1497 
Q 3034 2003 2786 2293 
Q 2538 2584 2113 2584 
z
M 3366 4563 
L 3366 3988 
Q 3128 4100 2886 4159 
Q 2644 4219 2406 4219 
Q 1781 4219 1451 3797 
Q 1122 3375 1075 2522 
Q 1259 2794 1537 2939 
Q 1816 3084 2150 3084 
Q 2853 3084 3261 2657 
Q 3669 2231 3669 1497 
Q 3669 778 3244 343 
Q 2819 -91 2113 -91 
Q 1303 -91 875 529 
Q 447 1150 447 2328 
Q 447 3434 972 4092 
Q 1497 4750 2381 4750 
Q 2619 4750 2861 4703 
Q 3103 4656 3366 4563 
z
" transform="scale(0.015625)"/>
       </defs>
       <use xlink:href="#DejaVuSans-30"/>
       <use xlink:href="#DejaVuSans-2e" x="63.623047"/>
       <use xlink:href="#DejaVuSans-36" x="95.410156"/>
      </g>
     </g>
    </g>
    <g id="ytick_5">
     <g id="line2d_14">
      <g>
       <use xlink:href="#m3e859244a9" x="108" y="137.262857" style="stroke: #000000; stroke-width: 1.875"/>
      </g>
     </g>
     <g id="text_15">
      <!-- 0.8 -->
      <g transform="translate(69.259844 143.531568)scale(0.165 -0.165)">
       <defs>
        <path id="DejaVuSans-38" d="M 2034 2216 
Q 1584 2216 1326 1975 
Q 1069 1734 1069 1313 
Q 1069 891 1326 650 
Q 1584 409 2034 409 
Q 2484 409 2743 651 
Q 3003 894 3003 1313 
Q 3003 1734 2745 1975 
Q 2488 2216 2034 2216 
z
M 1403 2484 
Q 997 2584 770 2862 
Q 544 3141 544 3541 
Q 544 4100 942 4425 
Q 1341 4750 2034 4750 
Q 2731 4750 3128 4425 
Q 3525 4100 3525 3541 
Q 3525 3141 3298 2862 
Q 3072 2584 2669 2484 
Q 3125 2378 3379 2068 
Q 3634 1759 3634 1313 
Q 3634 634 3220 271 
Q 2806 -91 2034 -91 
Q 1263 -91 848 271 
Q 434 634 434 1313 
Q 434 1759 690 2068 
Q 947 2378 1403 2484 
z
M 1172 3481 
Q 1172 3119 1398 2916 
Q 1625 2713 2034 2713 
Q 2441 2713 2670 2916 
Q 2900 3119 2900 3481 
Q 2900 3844 2670 4047 
Q 2441 4250 2034 4250 
Q 1625 4250 1398 4047 
Q 1172 3844 1172 3481 
z
" transform="scale(0.015625)"/>
       </defs>
       <use xlink:href="#DejaVuSans-30"/>
       <use xlink:href="#DejaVuSans-2e" x="63.623047"/>
       <use xlink:href="#DejaVuSans-38" x="95.410156"/>
      </g>
     </g>
    </g>
    <g id="ytick_6">
     <g id="line2d_15">
      <g>
       <use xlink:href="#m3e859244a9" x="108" y="80.784935" style="stroke: #000000; stroke-width: 1.875"/>
      </g>
     </g>
     <g id="text_16">
      <!-- 1.0 -->
      <g transform="translate(69.259844 87.053646)scale(0.165 -0.165)">
       <use xlink:href="#DejaVuSans-31"/>
       <use xlink:href="#DejaVuSans-2e" x="63.623047"/>
       <use xlink:href="#DejaVuSans-30" x="95.410156"/>
      </g>
     </g>
    </g>
    <g id="text_17">
     <!-- prediction accuracy -->
     <g transform="translate(61.516406 303.537656)rotate(-90)scale(0.18 -0.18)">
      <defs>
       <path id="DejaVuSans-70" d="M 1159 525 
L 1159 -1331 
L 581 -1331 
L 581 3500 
L 1159 3500 
L 1159 2969 
Q 1341 3281 1617 3432 
Q 1894 3584 2278 3584 
Q 2916 3584 3314 3078 
Q 3713 2572 3713 1747 
Q 3713 922 3314 415 
Q 2916 -91 2278 -91 
Q 1894 -91 1617 61 
Q 1341 213 1159 525 
z
M 3116 1747 
Q 3116 2381 2855 2742 
Q 2594 3103 2138 3103 
Q 1681 3103 1420 2742 
Q 1159 2381 1159 1747 
Q 1159 1113 1420 752 
Q 1681 391 2138 391 
Q 2594 391 2855 752 
Q 3116 1113 3116 1747 
z
" transform="scale(0.015625)"/>
       <path id="DejaVuSans-65" d="M 3597 1894 
L 3597 1613 
L 953 1613 
Q 991 1019 1311 708 
Q 1631 397 2203 397 
Q 2534 397 2845 478 
Q 3156 559 3463 722 
L 3463 178 
Q 3153 47 2828 -22 
Q 2503 -91 2169 -91 
Q 1331 -91 842 396 
Q 353 884 353 1716 
Q 353 2575 817 3079 
Q 1281 3584 2069 3584 
Q 2775 3584 3186 3129 
Q 3597 2675 3597 1894 
z
M 3022 2063 
Q 3016 2534 2758 2815 
Q 2500 3097 2075 3097 
Q 1594 3097 1305 2825 
Q 1016 2553 972 2059 
L 3022 2063 
z
" transform="scale(0.015625)"/>
       <path id="DejaVuSans-64" d="M 2906 2969 
L 2906 4863 
L 3481 4863 
L 3481 0 
L 2906 0 
L 2906 525 
Q 2725 213 2448 61 
Q 2172 -91 1784 -91 
Q 1150 -91 751 415 
Q 353 922 353 1747 
Q 353 2572 751 3078 
Q 1150 3584 1784 3584 
Q 2172 3584 2448 3432 
Q 2725 3281 2906 2969 
z
M 947 1747 
Q 947 1113 1208 752 
Q 1469 391 1925 391 
Q 2381 391 2643 752 
Q 2906 1113 2906 1747 
Q 2906 2381 2643 2742 
Q 2381 3103 1925 3103 
Q 1469 3103 1208 2742 
Q 947 2381 947 1747 
z
" transform="scale(0.015625)"/>
       <path id="DejaVuSans-63" d="M 3122 3366 
L 3122 2828 
Q 2878 2963 2633 3030 
Q 2388 3097 2138 3097 
Q 1578 3097 1268 2742 
Q 959 2388 959 1747 
Q 959 1106 1268 751 
Q 1578 397 2138 397 
Q 2388 397 2633 464 
Q 2878 531 3122 666 
L 3122 134 
Q 2881 22 2623 -34 
Q 2366 -91 2075 -91 
Q 1284 -91 818 406 
Q 353 903 353 1747 
Q 353 2603 823 3093 
Q 1294 3584 2113 3584 
Q 2378 3584 2631 3529 
Q 2884 3475 3122 3366 
z
" transform="scale(0.015625)"/>
       <path id="DejaVuSans-6f" d="M 1959 3097 
Q 1497 3097 1228 2736 
Q 959 2375 959 1747 
Q 959 1119 1226 758 
Q 1494 397 1959 397 
Q 2419 397 2687 759 
Q 2956 1122 2956 1747 
Q 2956 2369 2687 2733 
Q 2419 3097 1959 3097 
z
M 1959 3584 
Q 2709 3584 3137 3096 
Q 3566 2609 3566 1747 
Q 3566 888 3137 398 
Q 2709 -91 1959 -91 
Q 1206 -91 779 398 
Q 353 888 353 1747 
Q 353 2609 779 3096 
Q 1206 3584 1959 3584 
z
" transform="scale(0.015625)"/>
       <path id="DejaVuSans-6e" d="M 3513 2113 
L 3513 0 
L 2938 0 
L 2938 2094 
Q 2938 2591 2744 2837 
Q 2550 3084 2163 3084 
Q 1697 3084 1428 2787 
Q 1159 2491 1159 1978 
L 1159 0 
L 581 0 
L 581 3500 
L 1159 3500 
L 1159 2956 
Q 1366 3272 1645 3428 
Q 1925 3584 2291 3584 
Q 2894 3584 3203 3211 
Q 3513 2838 3513 2113 
z
" transform="scale(0.015625)"/>
       <path id="DejaVuSans-20" transform="scale(0.015625)"/>
       <path id="DejaVuSans-75" d="M 544 1381 
L 544 3500 
L 1119 3500 
L 1119 1403 
Q 1119 906 1312 657 
Q 1506 409 1894 409 
Q 2359 409 2629 706 
Q 2900 1003 2900 1516 
L 2900 3500 
L 3475 3500 
L 3475 0 
L 2900 0 
L 2900 538 
Q 2691 219 2414 64 
Q 2138 -91 1772 -91 
Q 1169 -91 856 284 
Q 544 659 544 1381 
z
M 1991 3584 
L 1991 3584 
z
" transform="scale(0.015625)"/>
       <path id="DejaVuSans-79" d="M 2059 -325 
Q 1816 -950 1584 -1140 
Q 1353 -1331 966 -1331 
L 506 -1331 
L 506 -850 
L 844 -850 
Q 1081 -850 1212 -737 
Q 1344 -625 1503 -206 
L 1606 56 
L 191 3500 
L 800 3500 
L 1894 763 
L 2988 3500 
L 3597 3500 
L 2059 -325 
z
" transform="scale(0.015625)"/>
      </defs>
      <use xlink:href="#DejaVuSans-70"/>
      <use xlink:href="#DejaVuSans-72" x="63.476562"/>
      <use xlink:href="#DejaVuSans-65" x="102.339844"/>
      <use xlink:href="#DejaVuSans-64" x="163.863281"/>
      <use xlink:href="#DejaVuSans-69" x="227.339844"/>
      <use xlink:href="#DejaVuSans-63" x="255.123047"/>
      <use xlink:href="#DejaVuSans-74" x="310.103516"/>
      <use xlink:href="#DejaVuSans-69" x="349.3125"/>
      <use xlink:href="#DejaVuSans-6f" x="377.095703"/>
      <use xlink:href="#DejaVuSans-6e" x="438.277344"/>
      <use xlink:href="#DejaVuSans-20" x="501.65625"/>
      <use xlink:href="#DejaVuSans-61" x="533.443359"/>
      <use xlink:href="#DejaVuSans-63" x="594.722656"/>
      <use xlink:href="#DejaVuSans-63" x="649.703125"/>
      <use xlink:href="#DejaVuSans-75" x="704.683594"/>
      <use xlink:href="#DejaVuSans-72" x="768.0625"/>
      <use xlink:href="#DejaVuSans-61" x="809.175781"/>
      <use xlink:href="#DejaVuSans-63" x="870.455078"/>
      <use xlink:href="#DejaVuSans-79" x="925.435547"/>
     </g>
    </g>
   </g>
   <g id="line2d_16">
    <path d="M 138.436364 249.227861 
L 141.48 154.640679 
L 144.523636 163.148571 
L 147.567273 147.53157 
L 150.610909 173.371693 
L 153.654545 161.467681 
L 156.698182 155.378417 
L 159.741818 137.262857 
L 162.785455 136.407131 
L 165.829091 146.339666 
L 168.872727 140.521199 
L 171.916364 143.076761 
L 174.96 146.675844 
L 178.003636 132.918402 
L 181.047273 148.947944 
L 184.090909 142.678548 
L 187.134545 114.288787 
L 190.178182 116.083636 
L 193.221818 104.317403 
L 196.265455 146.675844 
L 199.309091 105.555954 
L 202.352727 135.576949 
L 205.396364 117.222304 
L 208.44 104.317403 
L 211.483636 117.819638 
L 214.527273 138.22011 
L 217.570909 121.126308 
L 220.614545 117.819638 
L 223.658182 105.998293 
L 226.701818 85.414273 
L 229.745455 137.262857 
L 232.789091 123.143377 
L 235.832727 102.507213 
L 238.876364 120.495974 
L 241.92 123.143377 
L 244.963636 121.126308 
L 248.007273 117.618363 
L 251.050909 114.503097 
L 254.094545 108.626164 
L 257.138182 92.080519 
L 260.181818 329.670693 
L 263.225455 208.137112 
L 266.269091 154.45179 
L 269.312727 94.672949 
L 272.356364 146.675844 
L 275.4 137.262857 
L 278.443636 118.436883 
L 281.487273 116.643933 
L 284.530909 129.66006 
L 287.574545 116.083636 
L 290.618182 103.196809 
L 293.661818 143.076761 
L 296.705455 97.644016 
L 299.749091 115.540579 
L 302.792727 111.196124 
L 305.836364 105.128867 
L 308.88 102.507213 
L 311.923636 115.464361 
L 314.967273 108.560962 
L 318.010909 135.440989 
L 321.054545 130.091058 
L 324.098182 100.395325 
L 327.141818 85.491429 
L 330.185455 93.818302 
L 333.229091 105.340553 
L 336.272727 111.671299 
L 339.316364 114.86644 
L 342.36 113.73039 
L 345.403636 104.317403 
L 348.447273 127.84987 
L 351.490909 127.078314 
L 354.534545 114.671688 
L 357.578182 100.955622 
L 360.621818 112.667633 
L 363.665455 114.288787 
L 366.709091 169.031688 
L 369.752727 113.525759 
L 372.796364 129.472799 
L 375.84 143.538182 
L 378.883636 117.222304 
L 381.927273 211.118601 
L 384.970909 152.502931 
L 388.014545 114.86644 
L 391.058182 105.340553 
L 394.101818 127.84987 
L 397.145455 109.600201 
L 400.189091 108.112962 
L 403.232727 110.735348 
L 406.276364 111.196124 
L 409.32 102.93314 
L 412.363636 114.503097 
L 415.407273 127.84987 
L 418.450909 98.434286 
L 421.494545 103.931624 
L 424.538182 117.819638 
L 427.581818 105.128867 
L 430.625455 105.998293 
L 433.669091 98.714434 
L 436.712727 90.522508 
L 439.756364 133.433845 
L 442.8 113.73039 
L 445.843636 122.312819 
L 448.887273 106.456718 
L 451.930909 93.2433 
L 454.974545 106.851668 
L 458.018182 112.161558 
L 461.061818 116.083636 
L 464.105455 99.302287 
L 467.149091 102.507213 
L 470.192727 112.161558 
L 473.236364 120.495974 
L 476.28 102.93314 
L 479.323636 103.931624 
L 482.367273 105.128867 
L 488.454545 86.432727 
L 491.498182 110.735348 
L 494.541818 105.998293 
L 497.585455 102.097358 
L 500.629091 118.436883 
L 503.672727 157.800283 
L 506.716364 124.908312 
L 509.76 125.608683 
L 512.803636 144.00649 
L 515.847273 112.161558 
L 518.890909 117.819638 
L 521.934545 139.210372 
L 524.978182 126.889361 
L 528.021818 106.851668 
L 531.065455 99.363199 
L 534.109091 121.126308 
L 540.196364 116.580801 
L 543.24 113.1903 
L 546.283636 116.083636 
L 549.327273 106.851668 
L 552.370909 121.776975 
L 555.414545 101.702684 
L 558.458182 122.312819 
L 561.501818 119.885035 
L 564.545455 111.591074 
L 567.589091 136.155447 
L 570.632727 102.178087 
L 573.676364 94.021948 
L 576.72 132.128501 
L 579.763636 120.495974 
L 582.807273 111.671299 
L 585.850909 118.436883 
L 588.894545 102.507213 
L 591.938182 101.702684 
L 594.981818 105.555954 
L 598.025455 121.126308 
L 601.069091 108.112962 
L 604.112727 135.281176 
L 607.156364 135.576949 
L 610.2 115.129617 
L 613.243636 138.22011 
L 616.287273 121.126308 
L 619.330909 124.604013 
L 622.374545 154.854341 
L 625.418182 159.687914 
L 628.461818 169.685368 
L 631.505455 132.556364 
L 634.549091 166.729599 
L 637.592727 145.189583 
L 640.636364 140.966327 
L 643.68 157.433544 
L 646.723636 151.382338 
L 649.767273 150.143787 
L 652.810909 113.525759 
L 655.854545 118.436883 
L 658.898182 142.910649 
L 661.941818 143.006375 
L 664.985455 117.222304 
L 668.029091 138.145325 
L 671.072727 143.538182 
L 674.116364 131.211651 
L 677.16 128.573946 
L 680.203636 140.685762 
L 683.247273 127.84987 
L 686.290909 139.99566 
L 689.334545 132.490075 
L 692.378182 146.675844 
L 695.421818 160.207013 
L 698.465455 135.576949 
L 701.509091 147.229549 
L 704.552727 132.556364 
L 707.596364 138.308745 
L 710.64 127.078314 
L 713.683636 154.854341 
L 716.727273 108.112962 
L 719.770909 128.573946 
L 722.814545 156.425009 
L 725.858182 106.073557 
L 728.901818 139.210372 
L 731.945455 142.557662 
L 734.989091 126.331646 
L 738.032727 139.055807 
L 741.076364 112.161558 
L 744.12 133.732987 
L 744.12 133.732987 
" clip-path="url(#p253b56836b)" style="fill: none; stroke: #008000; stroke-width: 2.25; stroke-linecap: square"/>
   </g>
   <g id="line2d_17">
    <path d="M 108 221.97974 
L 777.6 221.97974 
" clip-path="url(#p253b56836b)" style="fill: none; stroke: #000000; stroke-width: 2.25; stroke-linecap: square"/>
   </g>
   <g id="patch_3">
    <path d="M 108 378 
L 108 51.84 
" style="fill: none; stroke: #000000; stroke-width: 1.875; stroke-linejoin: miter; stroke-linecap: square"/>
   </g>
   <g id="patch_4">
    <path d="M 777.6 378 
L 777.6 51.84 
" style="fill: none; stroke: #000000; stroke-width: 1.875; stroke-linejoin: miter; stroke-linecap: square"/>
   </g>
   <g id="patch_5">
    <path d="M 108 378 
L 777.6 378 
" style="fill: none; stroke: #000000; stroke-width: 1.875; stroke-linejoin: miter; stroke-linecap: square"/>
   </g>
   <g id="patch_6">
    <path d="M 108 51.84 
L 777.6 51.84 
" style="fill: none; stroke: #000000; stroke-width: 1.875; stroke-linejoin: miter; stroke-linecap: square"/>
   </g>
  </g>
 </g>
 <defs>
  <clipPath id="p253b56836b">
   <rect x="108" y="51.84" width="669.6" height="326.16"/>
  </clipPath>
 </defs>
</svg>
