<?xml version="1.0" encoding="utf-8" standalone="no"?>
<!DOCTYPE svg PUBLIC "-//W3C//DTD SVG 1.1//EN"
  "http://www.w3.org/Graphics/SVG/1.1/DTD/svg11.dtd">
<svg xmlns:xlink="http://www.w3.org/1999/xlink" width="864pt" height="432pt" viewBox="0 0 864 432" xmlns="http://www.w3.org/2000/svg" version="1.1">
 <metadata>
  <rdf:RDF xmlns:dc="http://purl.org/dc/elements/1.1/" xmlns:cc="http://creativecommons.org/ns#" xmlns:rdf="http://www.w3.org/1999/02/22-rdf-syntax-ns#">
   <cc:Work>
    <dc:type rdf:resource="http://purl.org/dc/dcmitype/StillImage"/>
    <dc:date>2023-05-02T17:28:59.295432</dc:date>
    <dc:format>image/svg+xml</dc:format>
    <dc:creator>
     <cc:Agent>
      <dc:title>Matplotlib v3.5.1, https://matplotlib.org/</dc:title>
     </cc:Agent>
    </dc:creator>
   </cc:Work>
  </rdf:RDF>
 </metadata>
 <defs>
  <style type="text/css">*{stroke-linejoin: round; stroke-linecap: butt}</style>
 </defs>
 <g id="figure_1">
  <g id="patch_1">
   <path d="M 0 432 
L 864 432 
L 864 0 
L 0 0 
L 0 432 
z
" style="fill: none"/>
  </g>
  <g id="axes_1">
   <g id="patch_2">
    <path d="M 108 378 
L 777.6 378 
L 777.6 51.84 
L 108 51.84 
z
" style="fill: #ffffff"/>
   </g>
   <g id="PolyCollection_1">
    <defs>
     <path id="m99ba46bf22" d="M 276.134728 -76.306738 
L 274.665272 -76.306738 
L 274.470937 -79.191 
L 274.239335 -82.075262 
L 273.967211 -84.959524 
L 273.651964 -87.843786 
L 273.291859 -90.728048 
L 272.886206 -93.61231 
L 272.435501 -96.496572 
L 271.941496 -99.380834 
L 271.407201 -102.265096 
L 270.836801 -105.149358 
L 270.235487 -108.03362 
L 269.609233 -110.917882 
L 268.96451 -113.802144 
L 268.307985 -116.686406 
L 267.646236 -119.570668 
L 266.9855 -122.45493 
L 266.331503 -125.339192 
L 265.689386 -128.223454 
L 265.063733 -131.107716 
L 264.458715 -133.991978 
L 263.878321 -136.87624 
L 263.32665 -139.760502 
L 262.808226 -142.644764 
L 262.328287 -145.529026 
L 261.89299 -148.413288 
L 261.509504 -151.29755 
L 261.185933 -154.181812 
L 260.93107 -157.066074 
L 260.753966 -159.950336 
L 260.663347 -162.834598 
L 260.666911 -165.71886 
L 260.770573 -168.603122 
L 260.977714 -171.487384 
L 261.288532 -174.371646 
L 261.699542 -177.255908 
L 262.2033 -180.14017 
L 262.788385 -183.024432 
L 263.439658 -185.908694 
L 264.138784 -188.792956 
L 264.864975 -191.677218 
L 265.595907 -194.56148 
L 266.30871 -197.445742 
L 266.98095 -200.330004 
L 267.59151 -203.214266 
L 268.121271 -206.098528 
L 268.553522 -208.98279 
L 268.874036 -211.867052 
L 269.070784 -214.751314 
L 269.133271 -217.635576 
L 269.051538 -220.519838 
L 268.814871 -223.4041 
L 268.410313 -226.288362 
L 267.821112 -229.172624 
L 267.025228 -232.056886 
L 265.994088 -234.941148 
L 264.691758 -237.82541 
L 263.074713 -240.709671 
L 261.092365 -243.593933 
L 258.688494 -246.478195 
L 255.803657 -249.362457 
L 252.378595 -252.246719 
L 248.358574 -255.130981 
L 243.698491 -258.015243 
L 238.368493 -260.899505 
L 232.359734 -263.783767 
L 225.689846 -266.668029 
L 218.407614 -269.552291 
L 210.596351 -272.436553 
L 202.375485 -275.320815 
L 193.899957 -278.205077 
L 185.357163 -281.089339 
L 176.961351 -283.973601 
L 168.945579 -286.857863 
L 161.551609 -289.742125 
L 155.018264 -292.626387 
L 149.569023 -295.510649 
L 145.399706 -298.394911 
L 142.667184 -301.279173 
L 141.48 -304.163435 
L 141.89166 -307.047697 
L 143.897176 -309.931959 
L 147.433137 -312.816221 
L 152.381343 -315.700483 
L 158.575684 -318.584745 
L 165.811718 -321.469007 
L 173.858166 -324.353269 
L 182.469436 -327.237531 
L 191.398206 -330.121793 
L 200.407206 -333.006055 
L 209.279399 -335.890317 
L 217.826021 -338.774579 
L 225.892121 -341.658841 
L 233.359495 -344.543103 
L 240.147138 -347.427365 
L 246.209509 -350.311627 
L 251.533042 -353.195889 
L 256.131415 -356.080151 
L 260.040101 -358.964413 
L 263.310681 -361.848675 
L 287.489319 -361.848675 
L 287.489319 -361.848675 
L 290.759899 -358.964413 
L 294.668585 -356.080151 
L 299.266958 -353.195889 
L 304.590491 -350.311627 
L 310.652862 -347.427365 
L 317.440505 -344.543103 
L 324.907879 -341.658841 
L 332.973979 -338.774579 
L 341.520601 -335.890317 
L 350.392794 -333.006055 
L 359.401794 -330.121793 
L 368.330564 -327.237531 
L 376.941834 -324.353269 
L 384.988282 -321.469007 
L 392.224316 -318.584745 
L 398.418657 -315.700483 
L 403.366863 -312.816221 
L 406.902824 -309.931959 
L 408.90834 -307.047697 
L 409.32 -304.163435 
L 408.132816 -301.279173 
L 405.400294 -298.394911 
L 401.230977 -295.510649 
L 395.781736 -292.626387 
L 389.248391 -289.742125 
L 381.854421 -286.857863 
L 373.838649 -283.973601 
L 365.442837 -281.089339 
L 356.900043 -278.205077 
L 348.424515 -275.320815 
L 340.203649 -272.436553 
L 332.392386 -269.552291 
L 325.110154 -266.668029 
L 318.440266 -263.783767 
L 312.431507 -260.899505 
L 307.101509 -258.015243 
L 302.441426 -255.130981 
L 298.421405 -252.246719 
L 294.996343 -249.362457 
L 292.111506 -246.478195 
L 289.707635 -243.593933 
L 287.725287 -240.709671 
L 286.108242 -237.82541 
L 284.805912 -234.941148 
L 283.774772 -232.056886 
L 282.978888 -229.172624 
L 282.389687 -226.288362 
L 281.985129 -223.4041 
L 281.748462 -220.519838 
L 281.666729 -217.635576 
L 281.729216 -214.751314 
L 281.925964 -211.867052 
L 282.246478 -208.98279 
L 282.678729 -206.098528 
L 283.20849 -203.214266 
L 283.81905 -200.330004 
L 284.49129 -197.445742 
L 285.204093 -194.56148 
L 285.935025 -191.677218 
L 286.661216 -188.792956 
L 287.360342 -185.908694 
L 288.011615 -183.024432 
L 288.5967 -180.14017 
L 289.100458 -177.255908 
L 289.511468 -174.371646 
L 289.822286 -171.487384 
L 290.029427 -168.603122 
L 290.133089 -165.71886 
L 290.136653 -162.834598 
L 290.046034 -159.950336 
L 289.86893 -157.066074 
L 289.614067 -154.181812 
L 289.290496 -151.29755 
L 288.90701 -148.413288 
L 288.471713 -145.529026 
L 287.991774 -142.644764 
L 287.47335 -139.760502 
L 286.921679 -136.87624 
L 286.341285 -133.991978 
L 285.736267 -131.107716 
L 285.110614 -128.223454 
L 284.468497 -125.339192 
L 283.8145 -122.45493 
L 283.153764 -119.570668 
L 282.492015 -116.686406 
L 281.83549 -113.802144 
L 281.190767 -110.917882 
L 280.564513 -108.03362 
L 279.963199 -105.149358 
L 279.392799 -102.265096 
L 278.858504 -99.380834 
L 278.364499 -96.496572 
L 277.913794 -93.61231 
L 277.508141 -90.728048 
L 277.148036 -87.843786 
L 276.832789 -84.959524 
L 276.560665 -82.075262 
L 276.329063 -79.191 
L 276.134728 -76.306738 
z
" style="stroke: #3f3f3f; stroke-width: 2.25"/>
    </defs>
    <g clip-path="url(#pd50d748775)">
     <use xlink:href="#m99ba46bf22" x="0" y="432" style="fill: #3274a1; stroke: #3f3f3f; stroke-width: 2.25"/>
    </g>
   </g>
   <g id="PolyCollection_2">
    <defs>
     <path id="m9dfd80db7c" d="M 612.264599 -68.825455 
L 608.135401 -68.825455 
L 607.524057 -71.820496 
L 606.769555 -74.815537 
L 605.849972 -77.810579 
L 604.743176 -80.80562 
L 603.427721 -83.800661 
L 601.883884 -86.795702 
L 600.09483 -89.790744 
L 598.04782 -92.785785 
L 595.735424 -95.780826 
L 593.156631 -98.775868 
L 590.317791 -101.770909 
L 587.233297 -104.76595 
L 583.925934 -107.760992 
L 580.426846 -110.756033 
L 576.775082 -113.751074 
L 573.016725 -116.746116 
L 569.20363 -119.741157 
L 565.391825 -122.736198 
L 561.639663 -125.73124 
L 558.005827 -128.726281 
L 554.547301 -131.721322 
L 551.317416 -134.716364 
L 548.364085 -137.711405 
L 545.728305 -140.706446 
L 543.442999 -143.701488 
L 541.53224 -146.696529 
L 540.010851 -149.69157 
L 538.884397 -152.686612 
L 538.149505 -155.681653 
L 537.794497 -158.676694 
L 537.800248 -161.671736 
L 538.141242 -164.666777 
L 538.786738 -167.661818 
L 539.702027 -170.65686 
L 540.849699 -173.651901 
L 542.190913 -176.646942 
L 543.686607 -179.641983 
L 545.298637 -182.637025 
L 546.990807 -185.632066 
L 548.729755 -188.627107 
L 550.485689 -191.622149 
L 552.232931 -194.61719 
L 553.950262 -197.612231 
L 555.62105 -200.607273 
L 557.233168 -203.602314 
L 558.778699 -206.597355 
L 560.253466 -209.592397 
L 561.656412 -212.587438 
L 562.988874 -215.582479 
L 564.253821 -218.577521 
L 565.455098 -221.572562 
L 566.596753 -224.567603 
L 567.682483 -227.562645 
L 568.71526 -230.557686 
L 569.697148 -233.552727 
L 570.629326 -236.547769 
L 571.512308 -239.54281 
L 572.346316 -242.537851 
L 573.131762 -245.532893 
L 573.869779 -248.527934 
L 574.562734 -251.522975 
L 575.214651 -254.518017 
L 575.831498 -257.513058 
L 576.421293 -260.508099 
L 576.994009 -263.50314 
L 577.561283 -266.498182 
L 578.135951 -269.493223 
L 578.731445 -272.488264 
L 579.361116 -275.483306 
L 580.037528 -278.478347 
L 580.771794 -281.473388 
L 581.572996 -284.46843 
L 582.44773 -287.463471 
L 583.399805 -290.458512 
L 584.43009 -293.453554 
L 585.536521 -296.448595 
L 586.714242 -299.443636 
L 587.955847 -302.438678 
L 589.251723 -305.433719 
L 590.590431 -308.42876 
L 591.959141 -311.423802 
L 593.344067 -314.418843 
L 594.730915 -317.413884 
L 596.105319 -320.408926 
L 597.453255 -323.403967 
L 598.761438 -326.399008 
L 600.017685 -329.39405 
L 601.211226 -332.389091 
L 602.332975 -335.384132 
L 603.375727 -338.379174 
L 604.334289 -341.374215 
L 605.205524 -344.369256 
L 605.988323 -347.364298 
L 606.683489 -350.359339 
L 607.293555 -353.35438 
L 607.822543 -356.349421 
L 608.275684 -359.344463 
L 608.659107 -362.339504 
L 608.979534 -365.334545 
L 611.420466 -365.334545 
L 611.420466 -365.334545 
L 611.740893 -362.339504 
L 612.124316 -359.344463 
L 612.577457 -356.349421 
L 613.106445 -353.35438 
L 613.716511 -350.359339 
L 614.411677 -347.364298 
L 615.194476 -344.369256 
L 616.065711 -341.374215 
L 617.024273 -338.379174 
L 618.067025 -335.384132 
L 619.188774 -332.389091 
L 620.382315 -329.39405 
L 621.638562 -326.399008 
L 622.946745 -323.403967 
L 624.294681 -320.408926 
L 625.669085 -317.413884 
L 627.055933 -314.418843 
L 628.440859 -311.423802 
L 629.809569 -308.42876 
L 631.148277 -305.433719 
L 632.444153 -302.438678 
L 633.685758 -299.443636 
L 634.863479 -296.448595 
L 635.96991 -293.453554 
L 637.000195 -290.458512 
L 637.95227 -287.463471 
L 638.827004 -284.46843 
L 639.628206 -281.473388 
L 640.362472 -278.478347 
L 641.038884 -275.483306 
L 641.668555 -272.488264 
L 642.264049 -269.493223 
L 642.838717 -266.498182 
L 643.405991 -263.50314 
L 643.978707 -260.508099 
L 644.568502 -257.513058 
L 645.185349 -254.518017 
L 645.837266 -251.522975 
L 646.530221 -248.527934 
L 647.268238 -245.532893 
L 648.053684 -242.537851 
L 648.887692 -239.54281 
L 649.770674 -236.547769 
L 650.702852 -233.552727 
L 651.68474 -230.557686 
L 652.717517 -227.562645 
L 653.803247 -224.567603 
L 654.944902 -221.572562 
L 656.146179 -218.577521 
L 657.411126 -215.582479 
L 658.743588 -212.587438 
L 660.146534 -209.592397 
L 661.621301 -206.597355 
L 663.166832 -203.602314 
L 664.77895 -200.607273 
L 666.449738 -197.612231 
L 668.167069 -194.61719 
L 669.914311 -191.622149 
L 671.670245 -188.627107 
L 673.409193 -185.632066 
L 675.101363 -182.637025 
L 676.713393 -179.641983 
L 678.209087 -176.646942 
L 679.550301 -173.651901 
L 680.697973 -170.65686 
L 681.613262 -167.661818 
L 682.258758 -164.666777 
L 682.599752 -161.671736 
L 682.605503 -158.676694 
L 682.250495 -155.681653 
L 681.515603 -152.686612 
L 680.389149 -149.69157 
L 678.86776 -146.696529 
L 676.957001 -143.701488 
L 674.671695 -140.706446 
L 672.035915 -137.711405 
L 669.082584 -134.716364 
L 665.852699 -131.721322 
L 662.394173 -128.726281 
L 658.760337 -125.73124 
L 655.008175 -122.736198 
L 651.19637 -119.741157 
L 647.383275 -116.746116 
L 643.624918 -113.751074 
L 639.973154 -110.756033 
L 636.474066 -107.760992 
L 633.166703 -104.76595 
L 630.082209 -101.770909 
L 627.243369 -98.775868 
L 624.664576 -95.780826 
L 622.35218 -92.785785 
L 620.30517 -89.790744 
L 618.516116 -86.795702 
L 616.972279 -83.800661 
L 615.656824 -80.80562 
L 614.550028 -77.810579 
L 613.630445 -74.815537 
L 612.875943 -71.820496 
L 612.264599 -68.825455 
z
" style="stroke: #3f3f3f; stroke-width: 2.25"/>
    </defs>
    <g clip-path="url(#pd50d748775)">
     <use xlink:href="#m9dfd80db7c" x="0" y="432" style="fill: #e1812c; stroke: #3f3f3f; stroke-width: 2.25"/>
    </g>
   </g>
   <g id="matplotlib.axis_1">
    <g id="xtick_1">
     <g id="line2d_1">
      <defs>
       <path id="mc5e9a60213" d="M 0 0 
L 0 9 
" style="stroke: #000000; stroke-width: 1.875"/>
      </defs>
      <g>
       <use xlink:href="#mc5e9a60213" x="275.4" y="378" style="stroke: #000000; stroke-width: 1.875"/>
      </g>
     </g>
     <g id="text_1">
      <!-- blocked -->
      <g transform="translate(243.494414 403.037422)scale(0.165 -0.165)">
       <defs>
        <path id="DejaVuSans-62" d="M 3116 1747 
Q 3116 2381 2855 2742 
Q 2594 3103 2138 3103 
Q 1681 3103 1420 2742 
Q 1159 2381 1159 1747 
Q 1159 1113 1420 752 
Q 1681 391 2138 391 
Q 2594 391 2855 752 
Q 3116 1113 3116 1747 
z
M 1159 2969 
Q 1341 3281 1617 3432 
Q 1894 3584 2278 3584 
Q 2916 3584 3314 3078 
Q 3713 2572 3713 1747 
Q 3713 922 3314 415 
Q 2916 -91 2278 -91 
Q 1894 -91 1617 61 
Q 1341 213 1159 525 
L 1159 0 
L 581 0 
L 581 4863 
L 1159 4863 
L 1159 2969 
z
" transform="scale(0.015625)"/>
        <path id="DejaVuSans-6c" d="M 603 4863 
L 1178 4863 
L 1178 0 
L 603 0 
L 603 4863 
z
" transform="scale(0.015625)"/>
        <path id="DejaVuSans-6f" d="M 1959 3097 
Q 1497 3097 1228 2736 
Q 959 2375 959 1747 
Q 959 1119 1226 758 
Q 1494 397 1959 397 
Q 2419 397 2687 759 
Q 2956 1122 2956 1747 
Q 2956 2369 2687 2733 
Q 2419 3097 1959 3097 
z
M 1959 3584 
Q 2709 3584 3137 3096 
Q 3566 2609 3566 1747 
Q 3566 888 3137 398 
Q 2709 -91 1959 -91 
Q 1206 -91 779 398 
Q 353 888 353 1747 
Q 353 2609 779 3096 
Q 1206 3584 1959 3584 
z
" transform="scale(0.015625)"/>
        <path id="DejaVuSans-63" d="M 3122 3366 
L 3122 2828 
Q 2878 2963 2633 3030 
Q 2388 3097 2138 3097 
Q 1578 3097 1268 2742 
Q 959 2388 959 1747 
Q 959 1106 1268 751 
Q 1578 397 2138 397 
Q 2388 397 2633 464 
Q 2878 531 3122 666 
L 3122 134 
Q 2881 22 2623 -34 
Q 2366 -91 2075 -91 
Q 1284 -91 818 406 
Q 353 903 353 1747 
Q 353 2603 823 3093 
Q 1294 3584 2113 3584 
Q 2378 3584 2631 3529 
Q 2884 3475 3122 3366 
z
" transform="scale(0.015625)"/>
        <path id="DejaVuSans-6b" d="M 581 4863 
L 1159 4863 
L 1159 1991 
L 2875 3500 
L 3609 3500 
L 1753 1863 
L 3688 0 
L 2938 0 
L 1159 1709 
L 1159 0 
L 581 0 
L 581 4863 
z
" transform="scale(0.015625)"/>
        <path id="DejaVuSans-65" d="M 3597 1894 
L 3597 1613 
L 953 1613 
Q 991 1019 1311 708 
Q 1631 397 2203 397 
Q 2534 397 2845 478 
Q 3156 559 3463 722 
L 3463 178 
Q 3153 47 2828 -22 
Q 2503 -91 2169 -91 
Q 1331 -91 842 396 
Q 353 884 353 1716 
Q 353 2575 817 3079 
Q 1281 3584 2069 3584 
Q 2775 3584 3186 3129 
Q 3597 2675 3597 1894 
z
M 3022 2063 
Q 3016 2534 2758 2815 
Q 2500 3097 2075 3097 
Q 1594 3097 1305 2825 
Q 1016 2553 972 2059 
L 3022 2063 
z
" transform="scale(0.015625)"/>
        <path id="DejaVuSans-64" d="M 2906 2969 
L 2906 4863 
L 3481 4863 
L 3481 0 
L 2906 0 
L 2906 525 
Q 2725 213 2448 61 
Q 2172 -91 1784 -91 
Q 1150 -91 751 415 
Q 353 922 353 1747 
Q 353 2572 751 3078 
Q 1150 3584 1784 3584 
Q 2172 3584 2448 3432 
Q 2725 3281 2906 2969 
z
M 947 1747 
Q 947 1113 1208 752 
Q 1469 391 1925 391 
Q 2381 391 2643 752 
Q 2906 1113 2906 1747 
Q 2906 2381 2643 2742 
Q 2381 3103 1925 3103 
Q 1469 3103 1208 2742 
Q 947 2381 947 1747 
z
" transform="scale(0.015625)"/>
       </defs>
       <use xlink:href="#DejaVuSans-62"/>
       <use xlink:href="#DejaVuSans-6c" x="63.476562"/>
       <use xlink:href="#DejaVuSans-6f" x="91.259766"/>
       <use xlink:href="#DejaVuSans-63" x="152.441406"/>
       <use xlink:href="#DejaVuSans-6b" x="207.421875"/>
       <use xlink:href="#DejaVuSans-65" x="261.707031"/>
       <use xlink:href="#DejaVuSans-64" x="323.230469"/>
      </g>
     </g>
    </g>
    <g id="xtick_2">
     <g id="line2d_2">
      <g>
       <use xlink:href="#mc5e9a60213" x="610.2" y="378" style="stroke: #000000; stroke-width: 1.875"/>
      </g>
     </g>
     <g id="text_2">
      <!-- interleaved -->
      <g transform="translate(563.356758 403.037422)scale(0.165 -0.165)">
       <defs>
        <path id="DejaVuSans-69" d="M 603 3500 
L 1178 3500 
L 1178 0 
L 603 0 
L 603 3500 
z
M 603 4863 
L 1178 4863 
L 1178 4134 
L 603 4134 
L 603 4863 
z
" transform="scale(0.015625)"/>
        <path id="DejaVuSans-6e" d="M 3513 2113 
L 3513 0 
L 2938 0 
L 2938 2094 
Q 2938 2591 2744 2837 
Q 2550 3084 2163 3084 
Q 1697 3084 1428 2787 
Q 1159 2491 1159 1978 
L 1159 0 
L 581 0 
L 581 3500 
L 1159 3500 
L 1159 2956 
Q 1366 3272 1645 3428 
Q 1925 3584 2291 3584 
Q 2894 3584 3203 3211 
Q 3513 2838 3513 2113 
z
" transform="scale(0.015625)"/>
        <path id="DejaVuSans-74" d="M 1172 4494 
L 1172 3500 
L 2356 3500 
L 2356 3053 
L 1172 3053 
L 1172 1153 
Q 1172 725 1289 603 
Q 1406 481 1766 481 
L 2356 481 
L 2356 0 
L 1766 0 
Q 1100 0 847 248 
Q 594 497 594 1153 
L 594 3053 
L 172 3053 
L 172 3500 
L 594 3500 
L 594 4494 
L 1172 4494 
z
" transform="scale(0.015625)"/>
        <path id="DejaVuSans-72" d="M 2631 2963 
Q 2534 3019 2420 3045 
Q 2306 3072 2169 3072 
Q 1681 3072 1420 2755 
Q 1159 2438 1159 1844 
L 1159 0 
L 581 0 
L 581 3500 
L 1159 3500 
L 1159 2956 
Q 1341 3275 1631 3429 
Q 1922 3584 2338 3584 
Q 2397 3584 2469 3576 
Q 2541 3569 2628 3553 
L 2631 2963 
z
" transform="scale(0.015625)"/>
        <path id="DejaVuSans-61" d="M 2194 1759 
Q 1497 1759 1228 1600 
Q 959 1441 959 1056 
Q 959 750 1161 570 
Q 1363 391 1709 391 
Q 2188 391 2477 730 
Q 2766 1069 2766 1631 
L 2766 1759 
L 2194 1759 
z
M 3341 1997 
L 3341 0 
L 2766 0 
L 2766 531 
Q 2569 213 2275 61 
Q 1981 -91 1556 -91 
Q 1019 -91 701 211 
Q 384 513 384 1019 
Q 384 1609 779 1909 
Q 1175 2209 1959 2209 
L 2766 2209 
L 2766 2266 
Q 2766 2663 2505 2880 
Q 2244 3097 1772 3097 
Q 1472 3097 1187 3025 
Q 903 2953 641 2809 
L 641 3341 
Q 956 3463 1253 3523 
Q 1550 3584 1831 3584 
Q 2591 3584 2966 3190 
Q 3341 2797 3341 1997 
z
" transform="scale(0.015625)"/>
        <path id="DejaVuSans-76" d="M 191 3500 
L 800 3500 
L 1894 563 
L 2988 3500 
L 3597 3500 
L 2284 0 
L 1503 0 
L 191 3500 
z
" transform="scale(0.015625)"/>
       </defs>
       <use xlink:href="#DejaVuSans-69"/>
       <use xlink:href="#DejaVuSans-6e" x="27.783203"/>
       <use xlink:href="#DejaVuSans-74" x="91.162109"/>
       <use xlink:href="#DejaVuSans-65" x="130.371094"/>
       <use xlink:href="#DejaVuSans-72" x="191.894531"/>
       <use xlink:href="#DejaVuSans-6c" x="233.007812"/>
       <use xlink:href="#DejaVuSans-65" x="260.791016"/>
       <use xlink:href="#DejaVuSans-61" x="322.314453"/>
       <use xlink:href="#DejaVuSans-76" x="383.59375"/>
       <use xlink:href="#DejaVuSans-65" x="442.773438"/>
       <use xlink:href="#DejaVuSans-64" x="504.296875"/>
      </g>
     </g>
    </g>
    <g id="text_3">
     <!-- condition -->
     <g transform="translate(401.187656 424.146094)scale(0.18 -0.18)">
      <use xlink:href="#DejaVuSans-63"/>
      <use xlink:href="#DejaVuSans-6f" x="54.980469"/>
      <use xlink:href="#DejaVuSans-6e" x="116.162109"/>
      <use xlink:href="#DejaVuSans-64" x="179.541016"/>
      <use xlink:href="#DejaVuSans-69" x="243.017578"/>
      <use xlink:href="#DejaVuSans-74" x="270.800781"/>
      <use xlink:href="#DejaVuSans-69" x="310.009766"/>
      <use xlink:href="#DejaVuSans-6f" x="337.792969"/>
      <use xlink:href="#DejaVuSans-6e" x="398.974609"/>
     </g>
    </g>
   </g>
   <g id="matplotlib.axis_2">
    <g id="ytick_1">
     <g id="line2d_3">
      <defs>
       <path id="mc9367a4989" d="M 0 0 
L -9 0 
" style="stroke: #000000; stroke-width: 1.875"/>
      </defs>
      <g>
       <use xlink:href="#mc9367a4989" x="108" y="367.744554" style="stroke: #000000; stroke-width: 1.875"/>
      </g>
     </g>
     <g id="text_4">
      <!-- 0.2 -->
      <g transform="translate(69.259844 374.013265)scale(0.165 -0.165)">
       <defs>
        <path id="DejaVuSans-30" d="M 2034 4250 
Q 1547 4250 1301 3770 
Q 1056 3291 1056 2328 
Q 1056 1369 1301 889 
Q 1547 409 2034 409 
Q 2525 409 2770 889 
Q 3016 1369 3016 2328 
Q 3016 3291 2770 3770 
Q 2525 4250 2034 4250 
z
M 2034 4750 
Q 2819 4750 3233 4129 
Q 3647 3509 3647 2328 
Q 3647 1150 3233 529 
Q 2819 -91 2034 -91 
Q 1250 -91 836 529 
Q 422 1150 422 2328 
Q 422 3509 836 4129 
Q 1250 4750 2034 4750 
z
" transform="scale(0.015625)"/>
        <path id="DejaVuSans-2e" d="M 684 794 
L 1344 794 
L 1344 0 
L 684 0 
L 684 794 
z
" transform="scale(0.015625)"/>
        <path id="DejaVuSans-32" d="M 1228 531 
L 3431 531 
L 3431 0 
L 469 0 
L 469 531 
Q 828 903 1448 1529 
Q 2069 2156 2228 2338 
Q 2531 2678 2651 2914 
Q 2772 3150 2772 3378 
Q 2772 3750 2511 3984 
Q 2250 4219 1831 4219 
Q 1534 4219 1204 4116 
Q 875 4013 500 3803 
L 500 4441 
Q 881 4594 1212 4672 
Q 1544 4750 1819 4750 
Q 2544 4750 2975 4387 
Q 3406 4025 3406 3419 
Q 3406 3131 3298 2873 
Q 3191 2616 2906 2266 
Q 2828 2175 2409 1742 
Q 1991 1309 1228 531 
z
" transform="scale(0.015625)"/>
       </defs>
       <use xlink:href="#DejaVuSans-30"/>
       <use xlink:href="#DejaVuSans-2e" x="63.623047"/>
       <use xlink:href="#DejaVuSans-32" x="95.410156"/>
      </g>
     </g>
    </g>
    <g id="ytick_2">
     <g id="line2d_4">
      <g>
       <use xlink:href="#mc9367a4989" x="108" y="305.81565" style="stroke: #000000; stroke-width: 1.875"/>
      </g>
     </g>
     <g id="text_5">
      <!-- 0.4 -->
      <g transform="translate(69.259844 312.08436)scale(0.165 -0.165)">
       <defs>
        <path id="DejaVuSans-34" d="M 2419 4116 
L 825 1625 
L 2419 1625 
L 2419 4116 
z
M 2253 4666 
L 3047 4666 
L 3047 1625 
L 3713 1625 
L 3713 1100 
L 3047 1100 
L 3047 0 
L 2419 0 
L 2419 1100 
L 313 1100 
L 313 1709 
L 2253 4666 
z
" transform="scale(0.015625)"/>
       </defs>
       <use xlink:href="#DejaVuSans-30"/>
       <use xlink:href="#DejaVuSans-2e" x="63.623047"/>
       <use xlink:href="#DejaVuSans-34" x="95.410156"/>
      </g>
     </g>
    </g>
    <g id="ytick_3">
     <g id="line2d_5">
      <g>
       <use xlink:href="#mc9367a4989" x="108" y="243.886745" style="stroke: #000000; stroke-width: 1.875"/>
      </g>
     </g>
     <g id="text_6">
      <!-- 0.6 -->
      <g transform="translate(69.259844 250.155456)scale(0.165 -0.165)">
       <defs>
        <path id="DejaVuSans-36" d="M 2113 2584 
Q 1688 2584 1439 2293 
Q 1191 2003 1191 1497 
Q 1191 994 1439 701 
Q 1688 409 2113 409 
Q 2538 409 2786 701 
Q 3034 994 3034 1497 
Q 3034 2003 2786 2293 
Q 2538 2584 2113 2584 
z
M 3366 4563 
L 3366 3988 
Q 3128 4100 2886 4159 
Q 2644 4219 2406 4219 
Q 1781 4219 1451 3797 
Q 1122 3375 1075 2522 
Q 1259 2794 1537 2939 
Q 1816 3084 2150 3084 
Q 2853 3084 3261 2657 
Q 3669 2231 3669 1497 
Q 3669 778 3244 343 
Q 2819 -91 2113 -91 
Q 1303 -91 875 529 
Q 447 1150 447 2328 
Q 447 3434 972 4092 
Q 1497 4750 2381 4750 
Q 2619 4750 2861 4703 
Q 3103 4656 3366 4563 
z
" transform="scale(0.015625)"/>
       </defs>
       <use xlink:href="#DejaVuSans-30"/>
       <use xlink:href="#DejaVuSans-2e" x="63.623047"/>
       <use xlink:href="#DejaVuSans-36" x="95.410156"/>
      </g>
     </g>
    </g>
    <g id="ytick_4">
     <g id="line2d_6">
      <g>
       <use xlink:href="#mc9367a4989" x="108" y="181.957841" style="stroke: #000000; stroke-width: 1.875"/>
      </g>
     </g>
     <g id="text_7">
      <!-- 0.8 -->
      <g transform="translate(69.259844 188.226552)scale(0.165 -0.165)">
       <defs>
        <path id="DejaVuSans-38" d="M 2034 2216 
Q 1584 2216 1326 1975 
Q 1069 1734 1069 1313 
Q 1069 891 1326 650 
Q 1584 409 2034 409 
Q 2484 409 2743 651 
Q 3003 894 3003 1313 
Q 3003 1734 2745 1975 
Q 2488 2216 2034 2216 
z
M 1403 2484 
Q 997 2584 770 2862 
Q 544 3141 544 3541 
Q 544 4100 942 4425 
Q 1341 4750 2034 4750 
Q 2731 4750 3128 4425 
Q 3525 4100 3525 3541 
Q 3525 3141 3298 2862 
Q 3072 2584 2669 2484 
Q 3125 2378 3379 2068 
Q 3634 1759 3634 1313 
Q 3634 634 3220 271 
Q 2806 -91 2034 -91 
Q 1263 -91 848 271 
Q 434 634 434 1313 
Q 434 1759 690 2068 
Q 947 2378 1403 2484 
z
M 1172 3481 
Q 1172 3119 1398 2916 
Q 1625 2713 2034 2713 
Q 2441 2713 2670 2916 
Q 2900 3119 2900 3481 
Q 2900 3844 2670 4047 
Q 2441 4250 2034 4250 
Q 1625 4250 1398 4047 
Q 1172 3844 1172 3481 
z
" transform="scale(0.015625)"/>
       </defs>
       <use xlink:href="#DejaVuSans-30"/>
       <use xlink:href="#DejaVuSans-2e" x="63.623047"/>
       <use xlink:href="#DejaVuSans-38" x="95.410156"/>
      </g>
     </g>
    </g>
    <g id="ytick_5">
     <g id="line2d_7">
      <g>
       <use xlink:href="#mc9367a4989" x="108" y="120.028937" style="stroke: #000000; stroke-width: 1.875"/>
      </g>
     </g>
     <g id="text_8">
      <!-- 1.0 -->
      <g transform="translate(69.259844 126.297648)scale(0.165 -0.165)">
       <defs>
        <path id="DejaVuSans-31" d="M 794 531 
L 1825 531 
L 1825 4091 
L 703 3866 
L 703 4441 
L 1819 4666 
L 2450 4666 
L 2450 531 
L 3481 531 
L 3481 0 
L 794 0 
L 794 531 
z
" transform="scale(0.015625)"/>
       </defs>
       <use xlink:href="#DejaVuSans-31"/>
       <use xlink:href="#DejaVuSans-2e" x="63.623047"/>
       <use xlink:href="#DejaVuSans-30" x="95.410156"/>
      </g>
     </g>
    </g>
    <g id="ytick_6">
     <g id="line2d_8">
      <g>
       <use xlink:href="#mc9367a4989" x="108" y="58.100033" style="stroke: #000000; stroke-width: 1.875"/>
      </g>
     </g>
     <g id="text_9">
      <!-- 1.2 -->
      <g transform="translate(69.259844 64.368744)scale(0.165 -0.165)">
       <use xlink:href="#DejaVuSans-31"/>
       <use xlink:href="#DejaVuSans-2e" x="63.623047"/>
       <use xlink:href="#DejaVuSans-32" x="95.410156"/>
      </g>
     </g>
    </g>
    <g id="text_10">
     <!-- prediction accuracy -->
     <g transform="translate(61.516406 303.537656)rotate(-90)scale(0.18 -0.18)">
      <defs>
       <path id="DejaVuSans-70" d="M 1159 525 
L 1159 -1331 
L 581 -1331 
L 581 3500 
L 1159 3500 
L 1159 2969 
Q 1341 3281 1617 3432 
Q 1894 3584 2278 3584 
Q 2916 3584 3314 3078 
Q 3713 2572 3713 1747 
Q 3713 922 3314 415 
Q 2916 -91 2278 -91 
Q 1894 -91 1617 61 
Q 1341 213 1159 525 
z
M 3116 1747 
Q 3116 2381 2855 2742 
Q 2594 3103 2138 3103 
Q 1681 3103 1420 2742 
Q 1159 2381 1159 1747 
Q 1159 1113 1420 752 
Q 1681 391 2138 391 
Q 2594 391 2855 752 
Q 3116 1113 3116 1747 
z
" transform="scale(0.015625)"/>
       <path id="DejaVuSans-20" transform="scale(0.015625)"/>
       <path id="DejaVuSans-75" d="M 544 1381 
L 544 3500 
L 1119 3500 
L 1119 1403 
Q 1119 906 1312 657 
Q 1506 409 1894 409 
Q 2359 409 2629 706 
Q 2900 1003 2900 1516 
L 2900 3500 
L 3475 3500 
L 3475 0 
L 2900 0 
L 2900 538 
Q 2691 219 2414 64 
Q 2138 -91 1772 -91 
Q 1169 -91 856 284 
Q 544 659 544 1381 
z
M 1991 3584 
L 1991 3584 
z
" transform="scale(0.015625)"/>
       <path id="DejaVuSans-79" d="M 2059 -325 
Q 1816 -950 1584 -1140 
Q 1353 -1331 966 -1331 
L 506 -1331 
L 506 -850 
L 844 -850 
Q 1081 -850 1212 -737 
Q 1344 -625 1503 -206 
L 1606 56 
L 191 3500 
L 800 3500 
L 1894 763 
L 2988 3500 
L 3597 3500 
L 2059 -325 
z
" transform="scale(0.015625)"/>
      </defs>
      <use xlink:href="#DejaVuSans-70"/>
      <use xlink:href="#DejaVuSans-72" x="63.476562"/>
      <use xlink:href="#DejaVuSans-65" x="102.339844"/>
      <use xlink:href="#DejaVuSans-64" x="163.863281"/>
      <use xlink:href="#DejaVuSans-69" x="227.339844"/>
      <use xlink:href="#DejaVuSans-63" x="255.123047"/>
      <use xlink:href="#DejaVuSans-74" x="310.103516"/>
      <use xlink:href="#DejaVuSans-69" x="349.3125"/>
      <use xlink:href="#DejaVuSans-6f" x="377.095703"/>
      <use xlink:href="#DejaVuSans-6e" x="438.277344"/>
      <use xlink:href="#DejaVuSans-20" x="501.65625"/>
      <use xlink:href="#DejaVuSans-61" x="533.443359"/>
      <use xlink:href="#DejaVuSans-63" x="594.722656"/>
      <use xlink:href="#DejaVuSans-63" x="649.703125"/>
      <use xlink:href="#DejaVuSans-75" x="704.683594"/>
      <use xlink:href="#DejaVuSans-72" x="768.0625"/>
      <use xlink:href="#DejaVuSans-61" x="809.175781"/>
      <use xlink:href="#DejaVuSans-63" x="870.455078"/>
      <use xlink:href="#DejaVuSans-79" x="925.435547"/>
     </g>
    </g>
   </g>
   <g id="line2d_9">
    <path d="M 275.4 149.994536 
L 275.4 120.028937 
" clip-path="url(#pd50d748775)" style="fill: none; stroke: #3f3f3f; stroke-width: 2.25; stroke-linecap: square"/>
   </g>
   <g id="line2d_10">
    <path d="M 275.4 138.795272 
L 275.4 120.028937 
" clip-path="url(#pd50d748775)" style="fill: none; stroke: #3f3f3f; stroke-width: 6.75; stroke-linecap: square"/>
   </g>
   <g id="line2d_11">
    <path d="M 610.2 309.811063 
L 610.2 120.028937 
" clip-path="url(#pd50d748775)" style="fill: none; stroke: #3f3f3f; stroke-width: 2.25; stroke-linecap: square"/>
   </g>
   <g id="line2d_12">
    <path d="M 610.2 282.358742 
L 610.2 196.267171 
" clip-path="url(#pd50d748775)" style="fill: none; stroke: #3f3f3f; stroke-width: 6.75; stroke-linecap: square"/>
   </g>
   <g id="patch_3">
    <path d="M 108 378 
L 108 51.84 
" style="fill: none; stroke: #000000; stroke-width: 1.875; stroke-linejoin: miter; stroke-linecap: square"/>
   </g>
   <g id="patch_4">
    <path d="M 777.6 378 
L 777.6 51.84 
" style="fill: none; stroke: #000000; stroke-width: 1.875; stroke-linejoin: miter; stroke-linecap: square"/>
   </g>
   <g id="patch_5">
    <path d="M 108 378 
L 777.6 378 
" style="fill: none; stroke: #000000; stroke-width: 1.875; stroke-linejoin: miter; stroke-linecap: square"/>
   </g>
   <g id="patch_6">
    <path d="M 108 51.84 
L 777.6 51.84 
" style="fill: none; stroke: #000000; stroke-width: 1.875; stroke-linejoin: miter; stroke-linecap: square"/>
   </g>
   <g id="PathCollection_1">
    <defs>
     <path id="ma86e6a7054" d="M 0 2.25 
C 0.596707 2.25 1.169055 2.012926 1.59099 1.59099 
C 2.012926 1.169055 2.25 0.596707 2.25 0 
C 2.25 -0.596707 2.012926 -1.169055 1.59099 -1.59099 
C 1.169055 -2.012926 0.596707 -2.25 0 -2.25 
C -0.596707 -2.25 -1.169055 -2.012926 -1.59099 -1.59099 
C -2.012926 -1.169055 -2.25 -0.596707 -2.25 0 
C -2.25 0.596707 -2.012926 1.169055 -1.59099 1.59099 
C -1.169055 2.012926 -0.596707 2.25 0 2.25 
z
" style="stroke: #3f3f3f; stroke-width: 1.5"/>
    </defs>
    <g clip-path="url(#pd50d748775)">
     <use xlink:href="#ma86e6a7054" x="275.4" y="130.01747" style="fill: #ffffff; stroke: #3f3f3f; stroke-width: 1.5"/>
    </g>
   </g>
   <g id="PathCollection_2">
    <g clip-path="url(#pd50d748775)">
     <use xlink:href="#ma86e6a7054" x="610.2" y="249.879865" style="fill: #ffffff; stroke: #3f3f3f; stroke-width: 1.5"/>
    </g>
   </g>
  </g>
 </g>
 <defs>
  <clipPath id="pd50d748775">
   <rect x="108" y="51.84" width="669.6" height="326.16"/>
  </clipPath>
 </defs>
</svg>
