<?xml version="1.0" encoding="utf-8" standalone="no"?>
<!DOCTYPE svg PUBLIC "-//W3C//DTD SVG 1.1//EN"
  "http://www.w3.org/Graphics/SVG/1.1/DTD/svg11.dtd">
<svg xmlns:xlink="http://www.w3.org/1999/xlink" width="864pt" height="432pt" viewBox="0 0 864 432" xmlns="http://www.w3.org/2000/svg" version="1.1">
 <metadata>
  <rdf:RDF xmlns:dc="http://purl.org/dc/elements/1.1/" xmlns:cc="http://creativecommons.org/ns#" xmlns:rdf="http://www.w3.org/1999/02/22-rdf-syntax-ns#">
   <cc:Work>
    <dc:type rdf:resource="http://purl.org/dc/dcmitype/StillImage"/>
    <dc:date>2023-05-03T14:20:27.602658</dc:date>
    <dc:format>image/svg+xml</dc:format>
    <dc:creator>
     <cc:Agent>
      <dc:title>Matplotlib v3.5.1, https://matplotlib.org/</dc:title>
     </cc:Agent>
    </dc:creator>
   </cc:Work>
  </rdf:RDF>
 </metadata>
 <defs>
  <style type="text/css">*{stroke-linejoin: round; stroke-linecap: butt}</style>
 </defs>
 <g id="figure_1">
  <g id="patch_1">
   <path d="M 0 432 
L 864 432 
L 864 0 
L 0 0 
L 0 432 
z
" style="fill: none"/>
  </g>
  <g id="axes_1">
   <g id="patch_2">
    <path d="M 108 378 
L 777.6 378 
L 777.6 51.84 
L 108 51.84 
z
" style="fill: #ffffff"/>
   </g>
   <g id="PolyCollection_1">
    <defs>
     <path id="m55f4da7416" d="M 275.844295 -97.739528 
L 274.955705 -97.739528 
L 274.789732 -100.185513 
L 274.577461 -102.631498 
L 274.311999 -105.077483 
L 273.987489 -107.523467 
L 273.599897 -109.969452 
L 273.147832 -112.415437 
L 272.633334 -114.861422 
L 272.062504 -117.307407 
L 271.445896 -119.753392 
L 270.79856 -122.199377 
L 270.139684 -124.645362 
L 269.491799 -127.091347 
L 268.879586 -129.537332 
L 268.328351 -131.983316 
L 267.862308 -134.429301 
L 267.502823 -136.875286 
L 267.2668 -139.321271 
L 267.165374 -141.767256 
L 267.20304 -144.213241 
L 267.37733 -146.659226 
L 267.679032 -149.105211 
L 268.09294 -151.551196 
L 268.59904 -153.997181 
L 269.173981 -156.443166 
L 269.792683 -158.88915 
L 270.429929 -161.335135 
L 271.061762 -163.78112 
L 271.666615 -166.227105 
L 272.226076 -168.67309 
L 272.725278 -171.119075 
L 273.152938 -173.56506 
L 273.501112 -176.011045 
L 273.764744 -178.45703 
L 273.941117 -180.903015 
L 274.029301 -183.348999 
L 274.029695 -185.794984 
L 273.943713 -188.240969 
L 273.773661 -190.686954 
L 273.522815 -193.132939 
L 273.195672 -195.578924 
L 272.798323 -198.024909 
L 272.338886 -200.470894 
L 271.8279 -202.916879 
L 271.27859 -205.362864 
L 270.70692 -207.808848 
L 270.131352 -210.254833 
L 269.572273 -212.700818 
L 269.051104 -215.146803 
L 268.589116 -217.592788 
L 268.206079 -220.038773 
L 267.918852 -222.484758 
L 267.74009 -224.930743 
L 267.677206 -227.376728 
L 267.731693 -229.822713 
L 267.898883 -232.268697 
L 268.1681 -234.714682 
L 268.523108 -237.160667 
L 268.942692 -239.606652 
L 269.40114 -242.052637 
L 269.868378 -244.498622 
L 270.309573 -246.944607 
L 270.684017 -249.390592 
L 270.943288 -251.836577 
L 271.028765 -254.282562 
L 270.868798 -256.728547 
L 270.376012 -259.174531 
L 269.445412 -261.620516 
L 267.954147 -264.066501 
L 265.763831 -266.512486 
L 262.726317 -268.958471 
L 258.693542 -271.404456 
L 253.531647 -273.850441 
L 247.138913 -276.296426 
L 239.466206 -278.742411 
L 230.537825 -281.188396 
L 220.469848 -283.63438 
L 209.482706 -286.080365 
L 197.904756 -288.52635 
L 186.164325 -290.972335 
L 174.768977 -293.41832 
L 164.272563 -295.864305 
L 155.232542 -298.31029 
L 148.16198 -300.756275 
L 143.481879 -303.20226 
L 141.48 -305.648245 
L 142.281807 -308.094229 
L 145.837617 -310.540214 
L 151.927821 -312.986199 
L 160.185417 -315.432184 
L 170.132662 -317.878169 
L 181.226765 -320.324154 
L 192.908559 -322.770139 
L 204.648155 -325.216124 
L 215.982538 -327.662109 
L 226.541758 -330.108094 
L 236.062298 -332.554079 
L 244.388161 -335.000063 
L 251.461692 -337.446048 
L 257.307159 -339.892033 
L 293.492841 -339.892033 
L 293.492841 -339.892033 
L 299.338308 -337.446048 
L 306.411839 -335.000063 
L 314.737702 -332.554079 
L 324.258242 -330.108094 
L 334.817462 -327.662109 
L 346.151845 -325.216124 
L 357.891441 -322.770139 
L 369.573235 -320.324154 
L 380.667338 -317.878169 
L 390.614583 -315.432184 
L 398.872179 -312.986199 
L 404.962383 -310.540214 
L 408.518193 -308.094229 
L 409.32 -305.648245 
L 407.318121 -303.20226 
L 402.63802 -300.756275 
L 395.567458 -298.31029 
L 386.527437 -295.864305 
L 376.031023 -293.41832 
L 364.635675 -290.972335 
L 352.895244 -288.52635 
L 341.317294 -286.080365 
L 330.330152 -283.63438 
L 320.262175 -281.188396 
L 311.333794 -278.742411 
L 303.661087 -276.296426 
L 297.268353 -273.850441 
L 292.106458 -271.404456 
L 288.073683 -268.958471 
L 285.036169 -266.512486 
L 282.845853 -264.066501 
L 281.354588 -261.620516 
L 280.423988 -259.174531 
L 279.931202 -256.728547 
L 279.771235 -254.282562 
L 279.856712 -251.836577 
L 280.115983 -249.390592 
L 280.490427 -246.944607 
L 280.931622 -244.498622 
L 281.39886 -242.052637 
L 281.857308 -239.606652 
L 282.276892 -237.160667 
L 282.6319 -234.714682 
L 282.901117 -232.268697 
L 283.068307 -229.822713 
L 283.122794 -227.376728 
L 283.05991 -224.930743 
L 282.881148 -222.484758 
L 282.593921 -220.038773 
L 282.210884 -217.592788 
L 281.748896 -215.146803 
L 281.227727 -212.700818 
L 280.668648 -210.254833 
L 280.09308 -207.808848 
L 279.52141 -205.362864 
L 278.9721 -202.916879 
L 278.461114 -200.470894 
L 278.001677 -198.024909 
L 277.604328 -195.578924 
L 277.277185 -193.132939 
L 277.026339 -190.686954 
L 276.856287 -188.240969 
L 276.770305 -185.794984 
L 276.770699 -183.348999 
L 276.858883 -180.903015 
L 277.035256 -178.45703 
L 277.298888 -176.011045 
L 277.647062 -173.56506 
L 278.074722 -171.119075 
L 278.573924 -168.67309 
L 279.133385 -166.227105 
L 279.738238 -163.78112 
L 280.370071 -161.335135 
L 281.007317 -158.88915 
L 281.626019 -156.443166 
L 282.20096 -153.997181 
L 282.70706 -151.551196 
L 283.120968 -149.105211 
L 283.42267 -146.659226 
L 283.59696 -144.213241 
L 283.634626 -141.767256 
L 283.5332 -139.321271 
L 283.297177 -136.875286 
L 282.937692 -134.429301 
L 282.471649 -131.983316 
L 281.920414 -129.537332 
L 281.308201 -127.091347 
L 280.660316 -124.645362 
L 280.00144 -122.199377 
L 279.354104 -119.753392 
L 278.737496 -117.307407 
L 278.166666 -114.861422 
L 277.652168 -112.415437 
L 277.200103 -109.969452 
L 276.812511 -107.523467 
L 276.488001 -105.077483 
L 276.222539 -102.631498 
L 276.010268 -100.185513 
L 275.844295 -97.739528 
z
" style="stroke: #3f3f3f; stroke-width: 2.25"/>
    </defs>
    <g clip-path="url(#p96eb4d1aba)">
     <use xlink:href="#m55f4da7416" x="0" y="432" style="fill: #3274a1; stroke: #3f3f3f; stroke-width: 2.25"/>
    </g>
   </g>
   <g id="PolyCollection_2">
    <defs>
     <path id="mf5b708450e" d="M 613.865523 -68.825455 
L 606.534477 -68.825455 
L 605.564473 -71.820496 
L 604.396767 -74.815537 
L 603.00802 -77.810579 
L 601.376639 -80.80562 
L 599.484153 -83.800661 
L 597.316747 -86.795702 
L 594.866867 -89.790744 
L 592.134818 -92.785785 
L 589.130237 -95.780826 
L 585.873334 -98.775868 
L 582.395765 -101.770909 
L 578.741027 -104.76595 
L 574.964278 -107.760992 
L 571.131505 -110.756033 
L 567.318012 -113.751074 
L 563.606246 -116.746116 
L 560.083015 -119.741157 
L 556.836235 -122.736198 
L 553.951339 -125.73124 
L 551.507583 -128.726281 
L 549.574436 -131.721322 
L 548.208307 -134.716364 
L 547.449813 -137.711405 
L 547.32177 -140.706446 
L 547.828053 -143.701488 
L 548.953405 -146.696529 
L 550.664196 -149.69157 
L 552.910094 -152.686612 
L 555.626525 -155.681653 
L 558.737751 -158.676694 
L 562.160369 -161.671736 
L 565.806998 -164.666777 
L 569.589939 -167.661818 
L 573.424575 -170.65686 
L 577.232368 -173.651901 
L 580.94327 -176.646942 
L 584.497511 -179.641983 
L 587.846681 -182.637025 
L 590.95416 -185.632066 
L 593.794915 -188.627107 
L 596.354782 -191.622149 
L 598.629325 -194.61719 
L 600.622391 -197.612231 
L 602.344504 -200.607273 
L 603.811179 -203.602314 
L 605.041286 -206.597355 
L 606.055515 -209.592397 
L 606.875023 -212.587438 
L 607.520284 -215.582479 
L 608.010169 -218.577521 
L 608.361261 -221.572562 
L 608.587391 -224.567603 
L 608.699392 -227.562645 
L 608.705042 -230.557686 
L 608.60918 -233.552727 
L 608.41398 -236.547769 
L 608.119356 -239.54281 
L 607.72349 -242.537851 
L 607.223451 -245.532893 
L 606.615908 -248.527934 
L 605.897888 -251.522975 
L 605.067565 -254.518017 
L 604.125055 -257.513058 
L 603.073154 -260.508099 
L 601.918001 -263.50314 
L 600.669605 -266.498182 
L 599.342199 -269.493223 
L 597.954373 -272.488264 
L 596.52896 -275.483306 
L 595.092652 -278.478347 
L 593.675346 -281.473388 
L 592.30923 -284.46843 
L 591.027647 -287.463471 
L 589.863795 -290.458512 
L 588.849324 -293.453554 
L 588.012926 -296.448595 
L 587.378991 -299.443636 
L 586.966433 -302.438678 
L 586.787755 -305.433719 
L 586.848418 -308.42876 
L 587.146566 -311.423802 
L 587.673124 -314.418843 
L 588.412253 -317.413884 
L 589.342142 -320.408926 
L 590.436079 -323.403967 
L 591.663723 -326.399008 
L 592.992494 -329.39405 
L 594.388999 -332.389091 
L 595.8204 -335.384132 
L 597.255649 -338.379174 
L 598.666537 -341.374215 
L 600.028495 -344.369256 
L 601.321151 -347.364298 
L 602.528608 -350.359339 
L 603.639489 -353.35438 
L 604.64675 -356.349421 
L 605.547325 -359.344463 
L 606.341626 -362.339504 
L 607.032973 -365.334545 
L 613.367027 -365.334545 
L 613.367027 -365.334545 
L 614.058374 -362.339504 
L 614.852675 -359.344463 
L 615.75325 -356.349421 
L 616.760511 -353.35438 
L 617.871392 -350.359339 
L 619.078849 -347.364298 
L 620.371505 -344.369256 
L 621.733463 -341.374215 
L 623.144351 -338.379174 
L 624.5796 -335.384132 
L 626.011001 -332.389091 
L 627.407506 -329.39405 
L 628.736277 -326.399008 
L 629.963921 -323.403967 
L 631.057858 -320.408926 
L 631.987747 -317.413884 
L 632.726876 -314.418843 
L 633.253434 -311.423802 
L 633.551582 -308.42876 
L 633.612245 -305.433719 
L 633.433567 -302.438678 
L 633.021009 -299.443636 
L 632.387074 -296.448595 
L 631.550676 -293.453554 
L 630.536205 -290.458512 
L 629.372353 -287.463471 
L 628.09077 -284.46843 
L 626.724654 -281.473388 
L 625.307348 -278.478347 
L 623.87104 -275.483306 
L 622.445627 -272.488264 
L 621.057801 -269.493223 
L 619.730395 -266.498182 
L 618.481999 -263.50314 
L 617.326846 -260.508099 
L 616.274945 -257.513058 
L 615.332435 -254.518017 
L 614.502112 -251.522975 
L 613.784092 -248.527934 
L 613.176549 -245.532893 
L 612.67651 -242.537851 
L 612.280644 -239.54281 
L 611.98602 -236.547769 
L 611.79082 -233.552727 
L 611.694958 -230.557686 
L 611.700608 -227.562645 
L 611.812609 -224.567603 
L 612.038739 -221.572562 
L 612.389831 -218.577521 
L 612.879716 -215.582479 
L 613.524977 -212.587438 
L 614.344485 -209.592397 
L 615.358714 -206.597355 
L 616.588821 -203.602314 
L 618.055496 -200.607273 
L 619.777609 -197.612231 
L 621.770675 -194.61719 
L 624.045218 -191.622149 
L 626.605085 -188.627107 
L 629.44584 -185.632066 
L 632.553319 -182.637025 
L 635.902489 -179.641983 
L 639.45673 -176.646942 
L 643.167632 -173.651901 
L 646.975425 -170.65686 
L 650.810061 -167.661818 
L 654.593002 -164.666777 
L 658.239631 -161.671736 
L 661.662249 -158.676694 
L 664.773475 -155.681653 
L 667.489906 -152.686612 
L 669.735804 -149.69157 
L 671.446595 -146.696529 
L 672.571947 -143.701488 
L 673.07823 -140.706446 
L 672.950187 -137.711405 
L 672.191693 -134.716364 
L 670.825564 -131.721322 
L 668.892417 -128.726281 
L 666.448661 -125.73124 
L 663.563765 -122.736198 
L 660.316985 -119.741157 
L 656.793754 -116.746116 
L 653.081988 -113.751074 
L 649.268495 -110.756033 
L 645.435722 -107.760992 
L 641.658973 -104.76595 
L 638.004235 -101.770909 
L 634.526666 -98.775868 
L 631.269763 -95.780826 
L 628.265182 -92.785785 
L 625.533133 -89.790744 
L 623.083253 -86.795702 
L 620.915847 -83.800661 
L 619.023361 -80.80562 
L 617.39198 -77.810579 
L 616.003233 -74.815537 
L 614.835527 -71.820496 
L 613.865523 -68.825455 
z
" style="stroke: #3f3f3f; stroke-width: 2.25"/>
    </defs>
    <g clip-path="url(#p96eb4d1aba)">
     <use xlink:href="#mf5b708450e" x="0" y="432" style="fill: #e1812c; stroke: #3f3f3f; stroke-width: 2.25"/>
    </g>
   </g>
   <g id="matplotlib.axis_1">
    <g id="xtick_1">
     <g id="line2d_1">
      <defs>
       <path id="m96e8d61e1d" d="M 0 0 
L 0 9 
" style="stroke: #000000; stroke-width: 1.875"/>
      </defs>
      <g>
       <use xlink:href="#m96e8d61e1d" x="275.4" y="378" style="stroke: #000000; stroke-width: 1.875"/>
      </g>
     </g>
     <g id="text_1">
      <!-- blocked -->
      <g transform="translate(243.494414 403.037422)scale(0.165 -0.165)">
       <defs>
        <path id="DejaVuSans-62" d="M 3116 1747 
Q 3116 2381 2855 2742 
Q 2594 3103 2138 3103 
Q 1681 3103 1420 2742 
Q 1159 2381 1159 1747 
Q 1159 1113 1420 752 
Q 1681 391 2138 391 
Q 2594 391 2855 752 
Q 3116 1113 3116 1747 
z
M 1159 2969 
Q 1341 3281 1617 3432 
Q 1894 3584 2278 3584 
Q 2916 3584 3314 3078 
Q 3713 2572 3713 1747 
Q 3713 922 3314 415 
Q 2916 -91 2278 -91 
Q 1894 -91 1617 61 
Q 1341 213 1159 525 
L 1159 0 
L 581 0 
L 581 4863 
L 1159 4863 
L 1159 2969 
z
" transform="scale(0.015625)"/>
        <path id="DejaVuSans-6c" d="M 603 4863 
L 1178 4863 
L 1178 0 
L 603 0 
L 603 4863 
z
" transform="scale(0.015625)"/>
        <path id="DejaVuSans-6f" d="M 1959 3097 
Q 1497 3097 1228 2736 
Q 959 2375 959 1747 
Q 959 1119 1226 758 
Q 1494 397 1959 397 
Q 2419 397 2687 759 
Q 2956 1122 2956 1747 
Q 2956 2369 2687 2733 
Q 2419 3097 1959 3097 
z
M 1959 3584 
Q 2709 3584 3137 3096 
Q 3566 2609 3566 1747 
Q 3566 888 3137 398 
Q 2709 -91 1959 -91 
Q 1206 -91 779 398 
Q 353 888 353 1747 
Q 353 2609 779 3096 
Q 1206 3584 1959 3584 
z
" transform="scale(0.015625)"/>
        <path id="DejaVuSans-63" d="M 3122 3366 
L 3122 2828 
Q 2878 2963 2633 3030 
Q 2388 3097 2138 3097 
Q 1578 3097 1268 2742 
Q 959 2388 959 1747 
Q 959 1106 1268 751 
Q 1578 397 2138 397 
Q 2388 397 2633 464 
Q 2878 531 3122 666 
L 3122 134 
Q 2881 22 2623 -34 
Q 2366 -91 2075 -91 
Q 1284 -91 818 406 
Q 353 903 353 1747 
Q 353 2603 823 3093 
Q 1294 3584 2113 3584 
Q 2378 3584 2631 3529 
Q 2884 3475 3122 3366 
z
" transform="scale(0.015625)"/>
        <path id="DejaVuSans-6b" d="M 581 4863 
L 1159 4863 
L 1159 1991 
L 2875 3500 
L 3609 3500 
L 1753 1863 
L 3688 0 
L 2938 0 
L 1159 1709 
L 1159 0 
L 581 0 
L 581 4863 
z
" transform="scale(0.015625)"/>
        <path id="DejaVuSans-65" d="M 3597 1894 
L 3597 1613 
L 953 1613 
Q 991 1019 1311 708 
Q 1631 397 2203 397 
Q 2534 397 2845 478 
Q 3156 559 3463 722 
L 3463 178 
Q 3153 47 2828 -22 
Q 2503 -91 2169 -91 
Q 1331 -91 842 396 
Q 353 884 353 1716 
Q 353 2575 817 3079 
Q 1281 3584 2069 3584 
Q 2775 3584 3186 3129 
Q 3597 2675 3597 1894 
z
M 3022 2063 
Q 3016 2534 2758 2815 
Q 2500 3097 2075 3097 
Q 1594 3097 1305 2825 
Q 1016 2553 972 2059 
L 3022 2063 
z
" transform="scale(0.015625)"/>
        <path id="DejaVuSans-64" d="M 2906 2969 
L 2906 4863 
L 3481 4863 
L 3481 0 
L 2906 0 
L 2906 525 
Q 2725 213 2448 61 
Q 2172 -91 1784 -91 
Q 1150 -91 751 415 
Q 353 922 353 1747 
Q 353 2572 751 3078 
Q 1150 3584 1784 3584 
Q 2172 3584 2448 3432 
Q 2725 3281 2906 2969 
z
M 947 1747 
Q 947 1113 1208 752 
Q 1469 391 1925 391 
Q 2381 391 2643 752 
Q 2906 1113 2906 1747 
Q 2906 2381 2643 2742 
Q 2381 3103 1925 3103 
Q 1469 3103 1208 2742 
Q 947 2381 947 1747 
z
" transform="scale(0.015625)"/>
       </defs>
       <use xlink:href="#DejaVuSans-62"/>
       <use xlink:href="#DejaVuSans-6c" x="63.476562"/>
       <use xlink:href="#DejaVuSans-6f" x="91.259766"/>
       <use xlink:href="#DejaVuSans-63" x="152.441406"/>
       <use xlink:href="#DejaVuSans-6b" x="207.421875"/>
       <use xlink:href="#DejaVuSans-65" x="261.707031"/>
       <use xlink:href="#DejaVuSans-64" x="323.230469"/>
      </g>
     </g>
    </g>
    <g id="xtick_2">
     <g id="line2d_2">
      <g>
       <use xlink:href="#m96e8d61e1d" x="610.2" y="378" style="stroke: #000000; stroke-width: 1.875"/>
      </g>
     </g>
     <g id="text_2">
      <!-- interleaved -->
      <g transform="translate(563.356758 403.037422)scale(0.165 -0.165)">
       <defs>
        <path id="DejaVuSans-69" d="M 603 3500 
L 1178 3500 
L 1178 0 
L 603 0 
L 603 3500 
z
M 603 4863 
L 1178 4863 
L 1178 4134 
L 603 4134 
L 603 4863 
z
" transform="scale(0.015625)"/>
        <path id="DejaVuSans-6e" d="M 3513 2113 
L 3513 0 
L 2938 0 
L 2938 2094 
Q 2938 2591 2744 2837 
Q 2550 3084 2163 3084 
Q 1697 3084 1428 2787 
Q 1159 2491 1159 1978 
L 1159 0 
L 581 0 
L 581 3500 
L 1159 3500 
L 1159 2956 
Q 1366 3272 1645 3428 
Q 1925 3584 2291 3584 
Q 2894 3584 3203 3211 
Q 3513 2838 3513 2113 
z
" transform="scale(0.015625)"/>
        <path id="DejaVuSans-74" d="M 1172 4494 
L 1172 3500 
L 2356 3500 
L 2356 3053 
L 1172 3053 
L 1172 1153 
Q 1172 725 1289 603 
Q 1406 481 1766 481 
L 2356 481 
L 2356 0 
L 1766 0 
Q 1100 0 847 248 
Q 594 497 594 1153 
L 594 3053 
L 172 3053 
L 172 3500 
L 594 3500 
L 594 4494 
L 1172 4494 
z
" transform="scale(0.015625)"/>
        <path id="DejaVuSans-72" d="M 2631 2963 
Q 2534 3019 2420 3045 
Q 2306 3072 2169 3072 
Q 1681 3072 1420 2755 
Q 1159 2438 1159 1844 
L 1159 0 
L 581 0 
L 581 3500 
L 1159 3500 
L 1159 2956 
Q 1341 3275 1631 3429 
Q 1922 3584 2338 3584 
Q 2397 3584 2469 3576 
Q 2541 3569 2628 3553 
L 2631 2963 
z
" transform="scale(0.015625)"/>
        <path id="DejaVuSans-61" d="M 2194 1759 
Q 1497 1759 1228 1600 
Q 959 1441 959 1056 
Q 959 750 1161 570 
Q 1363 391 1709 391 
Q 2188 391 2477 730 
Q 2766 1069 2766 1631 
L 2766 1759 
L 2194 1759 
z
M 3341 1997 
L 3341 0 
L 2766 0 
L 2766 531 
Q 2569 213 2275 61 
Q 1981 -91 1556 -91 
Q 1019 -91 701 211 
Q 384 513 384 1019 
Q 384 1609 779 1909 
Q 1175 2209 1959 2209 
L 2766 2209 
L 2766 2266 
Q 2766 2663 2505 2880 
Q 2244 3097 1772 3097 
Q 1472 3097 1187 3025 
Q 903 2953 641 2809 
L 641 3341 
Q 956 3463 1253 3523 
Q 1550 3584 1831 3584 
Q 2591 3584 2966 3190 
Q 3341 2797 3341 1997 
z
" transform="scale(0.015625)"/>
        <path id="DejaVuSans-76" d="M 191 3500 
L 800 3500 
L 1894 563 
L 2988 3500 
L 3597 3500 
L 2284 0 
L 1503 0 
L 191 3500 
z
" transform="scale(0.015625)"/>
       </defs>
       <use xlink:href="#DejaVuSans-69"/>
       <use xlink:href="#DejaVuSans-6e" x="27.783203"/>
       <use xlink:href="#DejaVuSans-74" x="91.162109"/>
       <use xlink:href="#DejaVuSans-65" x="130.371094"/>
       <use xlink:href="#DejaVuSans-72" x="191.894531"/>
       <use xlink:href="#DejaVuSans-6c" x="233.007812"/>
       <use xlink:href="#DejaVuSans-65" x="260.791016"/>
       <use xlink:href="#DejaVuSans-61" x="322.314453"/>
       <use xlink:href="#DejaVuSans-76" x="383.59375"/>
       <use xlink:href="#DejaVuSans-65" x="442.773438"/>
       <use xlink:href="#DejaVuSans-64" x="504.296875"/>
      </g>
     </g>
    </g>
    <g id="text_3">
     <!-- condition -->
     <g transform="translate(401.187656 424.146094)scale(0.18 -0.18)">
      <use xlink:href="#DejaVuSans-63"/>
      <use xlink:href="#DejaVuSans-6f" x="54.980469"/>
      <use xlink:href="#DejaVuSans-6e" x="116.162109"/>
      <use xlink:href="#DejaVuSans-64" x="179.541016"/>
      <use xlink:href="#DejaVuSans-69" x="243.017578"/>
      <use xlink:href="#DejaVuSans-74" x="270.800781"/>
      <use xlink:href="#DejaVuSans-69" x="310.009766"/>
      <use xlink:href="#DejaVuSans-6f" x="337.792969"/>
      <use xlink:href="#DejaVuSans-6e" x="398.974609"/>
     </g>
    </g>
   </g>
   <g id="matplotlib.axis_2">
    <g id="ytick_1">
     <g id="line2d_3">
      <defs>
       <path id="m270a0bf7d0" d="M 0 0 
L -9 0 
" style="stroke: #000000; stroke-width: 1.875"/>
      </defs>
      <g>
       <use xlink:href="#m270a0bf7d0" x="108" y="327.288601" style="stroke: #000000; stroke-width: 1.875"/>
      </g>
     </g>
     <g id="text_4">
      <!-- 0.4 -->
      <g transform="translate(69.259844 333.557312)scale(0.165 -0.165)">
       <defs>
        <path id="DejaVuSans-30" d="M 2034 4250 
Q 1547 4250 1301 3770 
Q 1056 3291 1056 2328 
Q 1056 1369 1301 889 
Q 1547 409 2034 409 
Q 2525 409 2770 889 
Q 3016 1369 3016 2328 
Q 3016 3291 2770 3770 
Q 2525 4250 2034 4250 
z
M 2034 4750 
Q 2819 4750 3233 4129 
Q 3647 3509 3647 2328 
Q 3647 1150 3233 529 
Q 2819 -91 2034 -91 
Q 1250 -91 836 529 
Q 422 1150 422 2328 
Q 422 3509 836 4129 
Q 1250 4750 2034 4750 
z
" transform="scale(0.015625)"/>
        <path id="DejaVuSans-2e" d="M 684 794 
L 1344 794 
L 1344 0 
L 684 0 
L 684 794 
z
" transform="scale(0.015625)"/>
        <path id="DejaVuSans-34" d="M 2419 4116 
L 825 1625 
L 2419 1625 
L 2419 4116 
z
M 2253 4666 
L 3047 4666 
L 3047 1625 
L 3713 1625 
L 3713 1100 
L 3047 1100 
L 3047 0 
L 2419 0 
L 2419 1100 
L 313 1100 
L 313 1709 
L 2253 4666 
z
" transform="scale(0.015625)"/>
       </defs>
       <use xlink:href="#DejaVuSans-30"/>
       <use xlink:href="#DejaVuSans-2e" x="63.623047"/>
       <use xlink:href="#DejaVuSans-34" x="95.410156"/>
      </g>
     </g>
    </g>
    <g id="ytick_2">
     <g id="line2d_4">
      <g>
       <use xlink:href="#m270a0bf7d0" x="108" y="257.889623" style="stroke: #000000; stroke-width: 1.875"/>
      </g>
     </g>
     <g id="text_5">
      <!-- 0.6 -->
      <g transform="translate(69.259844 264.158334)scale(0.165 -0.165)">
       <defs>
        <path id="DejaVuSans-36" d="M 2113 2584 
Q 1688 2584 1439 2293 
Q 1191 2003 1191 1497 
Q 1191 994 1439 701 
Q 1688 409 2113 409 
Q 2538 409 2786 701 
Q 3034 994 3034 1497 
Q 3034 2003 2786 2293 
Q 2538 2584 2113 2584 
z
M 3366 4563 
L 3366 3988 
Q 3128 4100 2886 4159 
Q 2644 4219 2406 4219 
Q 1781 4219 1451 3797 
Q 1122 3375 1075 2522 
Q 1259 2794 1537 2939 
Q 1816 3084 2150 3084 
Q 2853 3084 3261 2657 
Q 3669 2231 3669 1497 
Q 3669 778 3244 343 
Q 2819 -91 2113 -91 
Q 1303 -91 875 529 
Q 447 1150 447 2328 
Q 447 3434 972 4092 
Q 1497 4750 2381 4750 
Q 2619 4750 2861 4703 
Q 3103 4656 3366 4563 
z
" transform="scale(0.015625)"/>
       </defs>
       <use xlink:href="#DejaVuSans-30"/>
       <use xlink:href="#DejaVuSans-2e" x="63.623047"/>
       <use xlink:href="#DejaVuSans-36" x="95.410156"/>
      </g>
     </g>
    </g>
    <g id="ytick_3">
     <g id="line2d_5">
      <g>
       <use xlink:href="#m270a0bf7d0" x="108" y="188.490645" style="stroke: #000000; stroke-width: 1.875"/>
      </g>
     </g>
     <g id="text_6">
      <!-- 0.8 -->
      <g transform="translate(69.259844 194.759356)scale(0.165 -0.165)">
       <defs>
        <path id="DejaVuSans-38" d="M 2034 2216 
Q 1584 2216 1326 1975 
Q 1069 1734 1069 1313 
Q 1069 891 1326 650 
Q 1584 409 2034 409 
Q 2484 409 2743 651 
Q 3003 894 3003 1313 
Q 3003 1734 2745 1975 
Q 2488 2216 2034 2216 
z
M 1403 2484 
Q 997 2584 770 2862 
Q 544 3141 544 3541 
Q 544 4100 942 4425 
Q 1341 4750 2034 4750 
Q 2731 4750 3128 4425 
Q 3525 4100 3525 3541 
Q 3525 3141 3298 2862 
Q 3072 2584 2669 2484 
Q 3125 2378 3379 2068 
Q 3634 1759 3634 1313 
Q 3634 634 3220 271 
Q 2806 -91 2034 -91 
Q 1263 -91 848 271 
Q 434 634 434 1313 
Q 434 1759 690 2068 
Q 947 2378 1403 2484 
z
M 1172 3481 
Q 1172 3119 1398 2916 
Q 1625 2713 2034 2713 
Q 2441 2713 2670 2916 
Q 2900 3119 2900 3481 
Q 2900 3844 2670 4047 
Q 2441 4250 2034 4250 
Q 1625 4250 1398 4047 
Q 1172 3844 1172 3481 
z
" transform="scale(0.015625)"/>
       </defs>
       <use xlink:href="#DejaVuSans-30"/>
       <use xlink:href="#DejaVuSans-2e" x="63.623047"/>
       <use xlink:href="#DejaVuSans-38" x="95.410156"/>
      </g>
     </g>
    </g>
    <g id="ytick_4">
     <g id="line2d_6">
      <g>
       <use xlink:href="#m270a0bf7d0" x="108" y="119.091666" style="stroke: #000000; stroke-width: 1.875"/>
      </g>
     </g>
     <g id="text_7">
      <!-- 1.0 -->
      <g transform="translate(69.259844 125.360377)scale(0.165 -0.165)">
       <defs>
        <path id="DejaVuSans-31" d="M 794 531 
L 1825 531 
L 1825 4091 
L 703 3866 
L 703 4441 
L 1819 4666 
L 2450 4666 
L 2450 531 
L 3481 531 
L 3481 0 
L 794 0 
L 794 531 
z
" transform="scale(0.015625)"/>
       </defs>
       <use xlink:href="#DejaVuSans-31"/>
       <use xlink:href="#DejaVuSans-2e" x="63.623047"/>
       <use xlink:href="#DejaVuSans-30" x="95.410156"/>
      </g>
     </g>
    </g>
    <g id="text_8">
     <!-- prediction accuracy -->
     <g transform="translate(61.516406 303.537656)rotate(-90)scale(0.18 -0.18)">
      <defs>
       <path id="DejaVuSans-70" d="M 1159 525 
L 1159 -1331 
L 581 -1331 
L 581 3500 
L 1159 3500 
L 1159 2969 
Q 1341 3281 1617 3432 
Q 1894 3584 2278 3584 
Q 2916 3584 3314 3078 
Q 3713 2572 3713 1747 
Q 3713 922 3314 415 
Q 2916 -91 2278 -91 
Q 1894 -91 1617 61 
Q 1341 213 1159 525 
z
M 3116 1747 
Q 3116 2381 2855 2742 
Q 2594 3103 2138 3103 
Q 1681 3103 1420 2742 
Q 1159 2381 1159 1747 
Q 1159 1113 1420 752 
Q 1681 391 2138 391 
Q 2594 391 2855 752 
Q 3116 1113 3116 1747 
z
" transform="scale(0.015625)"/>
       <path id="DejaVuSans-20" transform="scale(0.015625)"/>
       <path id="DejaVuSans-75" d="M 544 1381 
L 544 3500 
L 1119 3500 
L 1119 1403 
Q 1119 906 1312 657 
Q 1506 409 1894 409 
Q 2359 409 2629 706 
Q 2900 1003 2900 1516 
L 2900 3500 
L 3475 3500 
L 3475 0 
L 2900 0 
L 2900 538 
Q 2691 219 2414 64 
Q 2138 -91 1772 -91 
Q 1169 -91 856 284 
Q 544 659 544 1381 
z
M 1991 3584 
L 1991 3584 
z
" transform="scale(0.015625)"/>
       <path id="DejaVuSans-79" d="M 2059 -325 
Q 1816 -950 1584 -1140 
Q 1353 -1331 966 -1331 
L 506 -1331 
L 506 -850 
L 844 -850 
Q 1081 -850 1212 -737 
Q 1344 -625 1503 -206 
L 1606 56 
L 191 3500 
L 800 3500 
L 1894 763 
L 2988 3500 
L 3597 3500 
L 2059 -325 
z
" transform="scale(0.015625)"/>
      </defs>
      <use xlink:href="#DejaVuSans-70"/>
      <use xlink:href="#DejaVuSans-72" x="63.476562"/>
      <use xlink:href="#DejaVuSans-65" x="102.339844"/>
      <use xlink:href="#DejaVuSans-64" x="163.863281"/>
      <use xlink:href="#DejaVuSans-69" x="227.339844"/>
      <use xlink:href="#DejaVuSans-63" x="255.123047"/>
      <use xlink:href="#DejaVuSans-74" x="310.103516"/>
      <use xlink:href="#DejaVuSans-69" x="349.3125"/>
      <use xlink:href="#DejaVuSans-6f" x="377.095703"/>
      <use xlink:href="#DejaVuSans-6e" x="438.277344"/>
      <use xlink:href="#DejaVuSans-20" x="501.65625"/>
      <use xlink:href="#DejaVuSans-61" x="533.443359"/>
      <use xlink:href="#DejaVuSans-63" x="594.722656"/>
      <use xlink:href="#DejaVuSans-63" x="649.703125"/>
      <use xlink:href="#DejaVuSans-75" x="704.683594"/>
      <use xlink:href="#DejaVuSans-72" x="768.0625"/>
      <use xlink:href="#DejaVuSans-61" x="809.175781"/>
      <use xlink:href="#DejaVuSans-63" x="870.455078"/>
      <use xlink:href="#DejaVuSans-79" x="925.435547"/>
     </g>
    </g>
   </g>
   <g id="line2d_7">
    <path d="M 275.4 125.842655 
L 275.4 125.808654 
" clip-path="url(#p96eb4d1aba)" style="fill: none; stroke: #3f3f3f; stroke-width: 2.25; stroke-linecap: square"/>
   </g>
   <g id="line2d_8">
    <path d="M 275.4 125.830677 
L 275.4 125.82077 
" clip-path="url(#p96eb4d1aba)" style="fill: none; stroke: #3f3f3f; stroke-width: 6.75; stroke-linecap: square"/>
   </g>
   <g id="line2d_9">
    <path d="M 610.2 304.025144 
L 610.2 125.814856 
" clip-path="url(#p96eb4d1aba)" style="fill: none; stroke: #3f3f3f; stroke-width: 2.25; stroke-linecap: square"/>
   </g>
   <g id="line2d_10">
    <path d="M 610.2 293.760925 
L 610.2 125.836582 
" clip-path="url(#p96eb4d1aba)" style="fill: none; stroke: #3f3f3f; stroke-width: 6.75; stroke-linecap: square"/>
   </g>
   <g id="patch_3">
    <path d="M 108 378 
L 108 51.84 
" style="fill: none; stroke: #000000; stroke-width: 1.875; stroke-linejoin: miter; stroke-linecap: square"/>
   </g>
   <g id="patch_4">
    <path d="M 777.6 378 
L 777.6 51.84 
" style="fill: none; stroke: #000000; stroke-width: 1.875; stroke-linejoin: miter; stroke-linecap: square"/>
   </g>
   <g id="patch_5">
    <path d="M 108 378 
L 777.6 378 
" style="fill: none; stroke: #000000; stroke-width: 1.875; stroke-linejoin: miter; stroke-linecap: square"/>
   </g>
   <g id="patch_6">
    <path d="M 108 51.84 
L 777.6 51.84 
" style="fill: none; stroke: #000000; stroke-width: 1.875; stroke-linejoin: miter; stroke-linecap: square"/>
   </g>
   <g id="PathCollection_1">
    <defs>
     <path id="m7fffc2c24c" d="M 0 2.25 
C 0.596707 2.25 1.169055 2.012926 1.59099 1.59099 
C 2.012926 1.169055 2.25 0.596707 2.25 0 
C 2.25 -0.596707 2.012926 -1.169055 1.59099 -1.59099 
C 1.169055 -2.012926 0.596707 -2.25 0 -2.25 
C -0.596707 -2.25 -1.169055 -2.012926 -1.59099 -1.59099 
C -2.012926 -1.169055 -2.25 -0.596707 -2.25 0 
C -2.25 0.596707 -2.012926 1.169055 -1.59099 1.59099 
C -1.169055 2.012926 -0.596707 2.25 0 2.25 
z
" style="stroke: #3f3f3f; stroke-width: 1.5"/>
    </defs>
    <g clip-path="url(#p96eb4d1aba)">
     <use xlink:href="#m7fffc2c24c" x="275.4" y="125.824548" style="fill: #ffffff; stroke: #3f3f3f; stroke-width: 1.5"/>
    </g>
   </g>
   <g id="PathCollection_2">
    <g clip-path="url(#p96eb4d1aba)">
     <use xlink:href="#m7fffc2c24c" x="610.2" y="290.851418" style="fill: #ffffff; stroke: #3f3f3f; stroke-width: 1.5"/>
    </g>
   </g>
  </g>
 </g>
 <defs>
  <clipPath id="p96eb4d1aba">
   <rect x="108" y="51.84" width="669.6" height="326.16"/>
  </clipPath>
 </defs>
</svg>
