<?xml version="1.0" encoding="utf-8" standalone="no"?>
<!DOCTYPE svg PUBLIC "-//W3C//DTD SVG 1.1//EN"
  "http://www.w3.org/Graphics/SVG/1.1/DTD/svg11.dtd">
<svg xmlns:xlink="http://www.w3.org/1999/xlink" width="864pt" height="432pt" viewBox="0 0 864 432" xmlns="http://www.w3.org/2000/svg" version="1.1">
 <metadata>
  <rdf:RDF xmlns:dc="http://purl.org/dc/elements/1.1/" xmlns:cc="http://creativecommons.org/ns#" xmlns:rdf="http://www.w3.org/1999/02/22-rdf-syntax-ns#">
   <cc:Work>
    <dc:type rdf:resource="http://purl.org/dc/dcmitype/StillImage"/>
    <dc:date>2023-05-03T14:20:21.606911</dc:date>
    <dc:format>image/svg+xml</dc:format>
    <dc:creator>
     <cc:Agent>
      <dc:title>Matplotlib v3.5.1, https://matplotlib.org/</dc:title>
     </cc:Agent>
    </dc:creator>
   </cc:Work>
  </rdf:RDF>
 </metadata>
 <defs>
  <style type="text/css">*{stroke-linejoin: round; stroke-linecap: butt}</style>
 </defs>
 <g id="figure_1">
  <g id="patch_1">
   <path d="M 0 432 
L 864 432 
L 864 0 
L 0 0 
L 0 432 
z
" style="fill: none"/>
  </g>
  <g id="axes_1">
   <g id="patch_2">
    <path d="M 108 378 
L 777.6 378 
L 777.6 51.84 
L 108 51.84 
z
" style="fill: #ffffff"/>
   </g>
   <g id="PolyCollection_1">
    <defs>
     <path id="mf13bdde14f" d="M 275.935666 -192.329968 
L 274.864334 -192.329968 
L 274.685742 -193.751947 
L 274.459855 -195.173926 
L 274.178406 -196.595905 
L 273.832999 -198.017884 
L 273.415542 -199.439863 
L 272.918766 -200.861842 
L 272.336806 -202.283821 
L 271.665822 -203.7058 
L 270.904596 -205.127779 
L 270.055063 -206.549758 
L 269.122707 -207.971737 
L 268.116769 -209.393716 
L 267.050225 -210.815695 
L 265.939495 -212.237674 
L 264.803902 -213.659653 
L 263.664885 -215.081632 
L 262.54504 -216.503611 
L 261.467055 -217.92559 
L 260.45264 -219.347569 
L 259.52156 -220.769548 
L 258.690843 -222.191527 
L 257.974252 -223.613506 
L 257.382039 -225.035485 
L 256.921003 -226.457464 
L 256.594786 -227.879443 
L 256.404359 -229.301422 
L 256.348594 -230.7234 
L 256.424821 -232.145379 
L 256.62929 -233.567358 
L 256.957472 -234.989337 
L 257.404151 -236.411316 
L 257.96334 -237.833295 
L 258.628041 -239.255274 
L 259.389926 -240.677253 
L 260.239026 -242.099232 
L 261.163505 -243.521211 
L 262.149596 -244.94319 
L 263.181735 -246.365169 
L 264.242913 -247.787148 
L 265.31522 -249.209127 
L 266.380538 -250.631106 
L 267.421301 -252.053085 
L 268.421248 -253.475064 
L 269.366097 -254.897043 
L 270.244054 -256.319022 
L 271.046115 -257.741001 
L 271.766133 -259.16298 
L 272.400632 -260.584959 
L 272.948384 -262.006938 
L 273.40976 -263.428917 
L 273.785887 -264.850896 
L 274.077636 -266.272875 
L 274.284462 -267.694854 
L 274.403124 -269.116833 
L 274.426305 -270.538812 
L 274.341157 -271.960791 
L 274.12783 -273.38277 
L 273.758044 -274.804749 
L 273.193829 -276.226728 
L 272.386572 -277.648707 
L 271.276583 -279.070686 
L 269.793399 -280.492665 
L 267.857097 -281.914644 
L 265.380839 -283.336623 
L 262.274851 -284.758602 
L 258.451926 -286.180581 
L 253.834396 -287.60256 
L 248.36233 -289.024539 
L 242.002501 -290.446518 
L 234.757438 -291.868497 
L 226.673709 -293.290476 
L 217.848432 -294.712455 
L 208.433027 -296.134434 
L 198.633284 -297.556413 
L 188.705091 -298.978392 
L 178.945536 -300.400371 
L 169.679535 -301.82235 
L 161.242689 -303.244329 
L 153.961526 -304.666308 
L 148.13272 -306.088287 
L 144.003103 -307.510266 
L 141.752347 -308.932245 
L 141.48 -310.354224 
L 143.198183 -311.776203 
L 146.830699 -313.198182 
L 152.218633 -314.620161 
L 159.131884 -316.04214 
L 167.285455 -317.464119 
L 176.358892 -318.886098 
L 186.01704 -320.308077 
L 195.930248 -321.730056 
L 205.792369 -323.152035 
L 215.335243 -324.574014 
L 224.338864 -325.995993 
L 232.636908 -327.417972 
L 240.117804 -328.839951 
L 246.721926 -330.26193 
L 252.435751 -331.683909 
L 257.283997 -333.105888 
L 293.516003 -333.105888 
L 293.516003 -333.105888 
L 298.364249 -331.683909 
L 304.078074 -330.26193 
L 310.682196 -328.839951 
L 318.163092 -327.417972 
L 326.461136 -325.995993 
L 335.464757 -324.574014 
L 345.007631 -323.152035 
L 354.869752 -321.730056 
L 364.78296 -320.308077 
L 374.441108 -318.886098 
L 383.514545 -317.464119 
L 391.668116 -316.04214 
L 398.581367 -314.620161 
L 403.969301 -313.198182 
L 407.601817 -311.776203 
L 409.32 -310.354224 
L 409.047653 -308.932245 
L 406.796897 -307.510266 
L 402.66728 -306.088287 
L 396.838474 -304.666308 
L 389.557311 -303.244329 
L 381.120465 -301.82235 
L 371.854464 -300.400371 
L 362.094909 -298.978392 
L 352.166716 -297.556413 
L 342.366973 -296.134434 
L 332.951568 -294.712455 
L 324.126291 -293.290476 
L 316.042562 -291.868497 
L 308.797499 -290.446518 
L 302.43767 -289.024539 
L 296.965604 -287.60256 
L 292.348074 -286.180581 
L 288.525149 -284.758602 
L 285.419161 -283.336623 
L 282.942903 -281.914644 
L 281.006601 -280.492665 
L 279.523417 -279.070686 
L 278.413428 -277.648707 
L 277.606171 -276.226728 
L 277.041956 -274.804749 
L 276.67217 -273.38277 
L 276.458843 -271.960791 
L 276.373695 -270.538812 
L 276.396876 -269.116833 
L 276.515538 -267.694854 
L 276.722364 -266.272875 
L 277.014113 -264.850896 
L 277.39024 -263.428917 
L 277.851616 -262.006938 
L 278.399368 -260.584959 
L 279.033867 -259.16298 
L 279.753885 -257.741001 
L 280.555946 -256.319022 
L 281.433903 -254.897043 
L 282.378752 -253.475064 
L 283.378699 -252.053085 
L 284.419462 -250.631106 
L 285.48478 -249.209127 
L 286.557087 -247.787148 
L 287.618265 -246.365169 
L 288.650404 -244.94319 
L 289.636495 -243.521211 
L 290.560974 -242.099232 
L 291.410074 -240.677253 
L 292.171959 -239.255274 
L 292.83666 -237.833295 
L 293.395849 -236.411316 
L 293.842528 -234.989337 
L 294.17071 -233.567358 
L 294.375179 -232.145379 
L 294.451406 -230.7234 
L 294.395641 -229.301422 
L 294.205214 -227.879443 
L 293.878997 -226.457464 
L 293.417961 -225.035485 
L 292.825748 -223.613506 
L 292.109157 -222.191527 
L 291.27844 -220.769548 
L 290.34736 -219.347569 
L 289.332945 -217.92559 
L 288.25496 -216.503611 
L 287.135115 -215.081632 
L 285.996098 -213.659653 
L 284.860505 -212.237674 
L 283.749775 -210.815695 
L 282.683231 -209.393716 
L 281.677293 -207.971737 
L 280.744937 -206.549758 
L 279.895404 -205.127779 
L 279.134178 -203.7058 
L 278.463194 -202.283821 
L 277.881234 -200.861842 
L 277.384458 -199.439863 
L 276.967001 -198.017884 
L 276.621594 -196.595905 
L 276.340145 -195.173926 
L 276.114258 -193.751947 
L 275.935666 -192.329968 
z
" style="stroke: #3f3f3f; stroke-width: 2.25"/>
    </defs>
    <g clip-path="url(#p73016b7eaa)">
     <use xlink:href="#mf13bdde14f" x="0" y="432" style="fill: #3274a1; stroke: #3f3f3f; stroke-width: 2.25"/>
    </g>
   </g>
   <g id="PolyCollection_2">
    <defs>
     <path id="maa17a3fd07" d="M 610.524423 -68.825455 
L 609.875577 -68.825455 
L 609.766472 -71.820496 
L 609.625004 -74.815537 
L 609.443111 -77.810579 
L 609.211255 -80.80562 
L 608.918332 -83.800661 
L 608.551646 -86.795702 
L 608.096974 -89.790744 
L 607.538738 -92.785785 
L 606.860331 -95.780826 
L 606.044594 -98.775868 
L 605.074494 -101.770909 
L 603.933968 -104.76595 
L 602.608964 -107.760992 
L 601.088614 -110.756033 
L 599.366522 -113.751074 
L 597.442065 -116.746116 
L 595.321643 -119.741157 
L 593.019755 -122.736198 
L 590.5598 -125.73124 
L 587.974477 -128.726281 
L 585.305704 -131.721322 
L 582.603969 -134.716364 
L 579.927089 -137.711405 
L 577.338368 -140.706446 
L 574.90424 -143.701488 
L 572.691485 -146.696529 
L 570.764183 -149.69157 
L 569.180602 -152.686612 
L 567.990226 -155.681653 
L 567.231135 -158.676694 
L 566.927943 -161.671736 
L 567.090436 -164.666777 
L 567.713034 -167.661818 
L 568.775104 -170.65686 
L 570.242109 -173.651901 
L 572.067499 -176.646942 
L 574.195194 -179.641983 
L 576.56248 -182.637025 
L 579.103095 -185.632066 
L 581.750305 -188.627107 
L 584.439754 -191.622149 
L 587.111932 -194.61719 
L 589.714134 -197.612231 
L 592.201826 -200.607273 
L 594.539415 -203.602314 
L 596.700417 -206.597355 
L 598.667115 -209.592397 
L 600.429781 -212.587438 
L 601.985569 -215.582479 
L 603.337213 -218.577521 
L 604.491618 -221.572562 
L 605.458459 -224.567603 
L 606.248867 -227.562645 
L 606.874267 -230.557686 
L 607.345421 -233.552727 
L 607.671688 -236.547769 
L 607.860541 -239.54281 
L 607.917328 -242.537851 
L 607.845269 -245.532893 
L 607.645692 -248.527934 
L 607.318472 -251.522975 
L 606.862652 -254.518017 
L 606.277215 -257.513058 
L 605.56196 -260.508099 
L 604.718428 -263.50314 
L 603.75083 -266.498182 
L 602.666889 -269.493223 
L 601.478552 -272.488264 
L 600.202472 -275.483306 
L 598.860226 -278.478347 
L 597.478191 -281.473388 
L 596.087074 -284.46843 
L 594.721069 -287.463471 
L 593.416673 -290.458512 
L 592.211227 -293.453554 
L 591.141247 -296.448595 
L 590.240661 -299.443636 
L 589.539076 -302.438678 
L 589.0602 -305.433719 
L 588.82054 -308.42876 
L 588.828475 -311.423802 
L 589.083786 -314.418843 
L 589.577677 -317.413884 
L 590.293283 -320.408926 
L 591.206636 -323.403967 
L 592.287998 -326.399008 
L 593.503471 -329.39405 
L 594.816752 -332.389091 
L 596.190922 -335.384132 
L 597.590126 -338.379174 
L 598.981067 -341.374215 
L 600.334207 -344.369256 
L 601.624646 -347.364298 
L 602.832643 -350.359339 
L 603.943795 -353.35438 
L 604.948906 -356.349421 
L 605.843596 -359.344463 
L 606.627714 -362.339504 
L 607.304632 -365.334545 
L 613.095368 -365.334545 
L 613.095368 -365.334545 
L 613.772286 -362.339504 
L 614.556404 -359.344463 
L 615.451094 -356.349421 
L 616.456205 -353.35438 
L 617.567357 -350.359339 
L 618.775354 -347.364298 
L 620.065793 -344.369256 
L 621.418933 -341.374215 
L 622.809874 -338.379174 
L 624.209078 -335.384132 
L 625.583248 -332.389091 
L 626.896529 -329.39405 
L 628.112002 -326.399008 
L 629.193364 -323.403967 
L 630.106717 -320.408926 
L 630.822323 -317.413884 
L 631.316214 -314.418843 
L 631.571525 -311.423802 
L 631.57946 -308.42876 
L 631.3398 -305.433719 
L 630.860924 -302.438678 
L 630.159339 -299.443636 
L 629.258753 -296.448595 
L 628.188773 -293.453554 
L 626.983327 -290.458512 
L 625.678931 -287.463471 
L 624.312926 -284.46843 
L 622.921809 -281.473388 
L 621.539774 -278.478347 
L 620.197528 -275.483306 
L 618.921448 -272.488264 
L 617.733111 -269.493223 
L 616.64917 -266.498182 
L 615.681572 -263.50314 
L 614.83804 -260.508099 
L 614.122785 -257.513058 
L 613.537348 -254.518017 
L 613.081528 -251.522975 
L 612.754308 -248.527934 
L 612.554731 -245.532893 
L 612.482672 -242.537851 
L 612.539459 -239.54281 
L 612.728312 -236.547769 
L 613.054579 -233.552727 
L 613.525733 -230.557686 
L 614.151133 -227.562645 
L 614.941541 -224.567603 
L 615.908382 -221.572562 
L 617.062787 -218.577521 
L 618.414431 -215.582479 
L 619.970219 -212.587438 
L 621.732885 -209.592397 
L 623.699583 -206.597355 
L 625.860585 -203.602314 
L 628.198174 -200.607273 
L 630.685866 -197.612231 
L 633.288068 -194.61719 
L 635.960246 -191.622149 
L 638.649695 -188.627107 
L 641.296905 -185.632066 
L 643.83752 -182.637025 
L 646.204806 -179.641983 
L 648.332501 -176.646942 
L 650.157891 -173.651901 
L 651.624896 -170.65686 
L 652.686966 -167.661818 
L 653.309564 -164.666777 
L 653.472057 -161.671736 
L 653.168865 -158.676694 
L 652.409774 -155.681653 
L 651.219398 -152.686612 
L 649.635817 -149.69157 
L 647.708515 -146.696529 
L 645.49576 -143.701488 
L 643.061632 -140.706446 
L 640.472911 -137.711405 
L 637.796031 -134.716364 
L 635.094296 -131.721322 
L 632.425523 -128.726281 
L 629.8402 -125.73124 
L 627.380245 -122.736198 
L 625.078357 -119.741157 
L 622.957935 -116.746116 
L 621.033478 -113.751074 
L 619.311386 -110.756033 
L 617.791036 -107.760992 
L 616.466032 -104.76595 
L 615.325506 -101.770909 
L 614.355406 -98.775868 
L 613.539669 -95.780826 
L 612.861262 -92.785785 
L 612.303026 -89.790744 
L 611.848354 -86.795702 
L 611.481668 -83.800661 
L 611.188745 -80.80562 
L 610.956889 -77.810579 
L 610.774996 -74.815537 
L 610.633528 -71.820496 
L 610.524423 -68.825455 
z
" style="stroke: #3f3f3f; stroke-width: 2.25"/>
    </defs>
    <g clip-path="url(#p73016b7eaa)">
     <use xlink:href="#maa17a3fd07" x="0" y="432" style="fill: #e1812c; stroke: #3f3f3f; stroke-width: 2.25"/>
    </g>
   </g>
   <g id="matplotlib.axis_1">
    <g id="xtick_1">
     <g id="line2d_1">
      <defs>
       <path id="m53f2912371" d="M 0 0 
L 0 9 
" style="stroke: #000000; stroke-width: 1.875"/>
      </defs>
      <g>
       <use xlink:href="#m53f2912371" x="275.4" y="378" style="stroke: #000000; stroke-width: 1.875"/>
      </g>
     </g>
     <g id="text_1">
      <!-- blocked -->
      <g transform="translate(243.494414 403.037422)scale(0.165 -0.165)">
       <defs>
        <path id="DejaVuSans-62" d="M 3116 1747 
Q 3116 2381 2855 2742 
Q 2594 3103 2138 3103 
Q 1681 3103 1420 2742 
Q 1159 2381 1159 1747 
Q 1159 1113 1420 752 
Q 1681 391 2138 391 
Q 2594 391 2855 752 
Q 3116 1113 3116 1747 
z
M 1159 2969 
Q 1341 3281 1617 3432 
Q 1894 3584 2278 3584 
Q 2916 3584 3314 3078 
Q 3713 2572 3713 1747 
Q 3713 922 3314 415 
Q 2916 -91 2278 -91 
Q 1894 -91 1617 61 
Q 1341 213 1159 525 
L 1159 0 
L 581 0 
L 581 4863 
L 1159 4863 
L 1159 2969 
z
" transform="scale(0.015625)"/>
        <path id="DejaVuSans-6c" d="M 603 4863 
L 1178 4863 
L 1178 0 
L 603 0 
L 603 4863 
z
" transform="scale(0.015625)"/>
        <path id="DejaVuSans-6f" d="M 1959 3097 
Q 1497 3097 1228 2736 
Q 959 2375 959 1747 
Q 959 1119 1226 758 
Q 1494 397 1959 397 
Q 2419 397 2687 759 
Q 2956 1122 2956 1747 
Q 2956 2369 2687 2733 
Q 2419 3097 1959 3097 
z
M 1959 3584 
Q 2709 3584 3137 3096 
Q 3566 2609 3566 1747 
Q 3566 888 3137 398 
Q 2709 -91 1959 -91 
Q 1206 -91 779 398 
Q 353 888 353 1747 
Q 353 2609 779 3096 
Q 1206 3584 1959 3584 
z
" transform="scale(0.015625)"/>
        <path id="DejaVuSans-63" d="M 3122 3366 
L 3122 2828 
Q 2878 2963 2633 3030 
Q 2388 3097 2138 3097 
Q 1578 3097 1268 2742 
Q 959 2388 959 1747 
Q 959 1106 1268 751 
Q 1578 397 2138 397 
Q 2388 397 2633 464 
Q 2878 531 3122 666 
L 3122 134 
Q 2881 22 2623 -34 
Q 2366 -91 2075 -91 
Q 1284 -91 818 406 
Q 353 903 353 1747 
Q 353 2603 823 3093 
Q 1294 3584 2113 3584 
Q 2378 3584 2631 3529 
Q 2884 3475 3122 3366 
z
" transform="scale(0.015625)"/>
        <path id="DejaVuSans-6b" d="M 581 4863 
L 1159 4863 
L 1159 1991 
L 2875 3500 
L 3609 3500 
L 1753 1863 
L 3688 0 
L 2938 0 
L 1159 1709 
L 1159 0 
L 581 0 
L 581 4863 
z
" transform="scale(0.015625)"/>
        <path id="DejaVuSans-65" d="M 3597 1894 
L 3597 1613 
L 953 1613 
Q 991 1019 1311 708 
Q 1631 397 2203 397 
Q 2534 397 2845 478 
Q 3156 559 3463 722 
L 3463 178 
Q 3153 47 2828 -22 
Q 2503 -91 2169 -91 
Q 1331 -91 842 396 
Q 353 884 353 1716 
Q 353 2575 817 3079 
Q 1281 3584 2069 3584 
Q 2775 3584 3186 3129 
Q 3597 2675 3597 1894 
z
M 3022 2063 
Q 3016 2534 2758 2815 
Q 2500 3097 2075 3097 
Q 1594 3097 1305 2825 
Q 1016 2553 972 2059 
L 3022 2063 
z
" transform="scale(0.015625)"/>
        <path id="DejaVuSans-64" d="M 2906 2969 
L 2906 4863 
L 3481 4863 
L 3481 0 
L 2906 0 
L 2906 525 
Q 2725 213 2448 61 
Q 2172 -91 1784 -91 
Q 1150 -91 751 415 
Q 353 922 353 1747 
Q 353 2572 751 3078 
Q 1150 3584 1784 3584 
Q 2172 3584 2448 3432 
Q 2725 3281 2906 2969 
z
M 947 1747 
Q 947 1113 1208 752 
Q 1469 391 1925 391 
Q 2381 391 2643 752 
Q 2906 1113 2906 1747 
Q 2906 2381 2643 2742 
Q 2381 3103 1925 3103 
Q 1469 3103 1208 2742 
Q 947 2381 947 1747 
z
" transform="scale(0.015625)"/>
       </defs>
       <use xlink:href="#DejaVuSans-62"/>
       <use xlink:href="#DejaVuSans-6c" x="63.476562"/>
       <use xlink:href="#DejaVuSans-6f" x="91.259766"/>
       <use xlink:href="#DejaVuSans-63" x="152.441406"/>
       <use xlink:href="#DejaVuSans-6b" x="207.421875"/>
       <use xlink:href="#DejaVuSans-65" x="261.707031"/>
       <use xlink:href="#DejaVuSans-64" x="323.230469"/>
      </g>
     </g>
    </g>
    <g id="xtick_2">
     <g id="line2d_2">
      <g>
       <use xlink:href="#m53f2912371" x="610.2" y="378" style="stroke: #000000; stroke-width: 1.875"/>
      </g>
     </g>
     <g id="text_2">
      <!-- interleaved -->
      <g transform="translate(563.356758 403.037422)scale(0.165 -0.165)">
       <defs>
        <path id="DejaVuSans-69" d="M 603 3500 
L 1178 3500 
L 1178 0 
L 603 0 
L 603 3500 
z
M 603 4863 
L 1178 4863 
L 1178 4134 
L 603 4134 
L 603 4863 
z
" transform="scale(0.015625)"/>
        <path id="DejaVuSans-6e" d="M 3513 2113 
L 3513 0 
L 2938 0 
L 2938 2094 
Q 2938 2591 2744 2837 
Q 2550 3084 2163 3084 
Q 1697 3084 1428 2787 
Q 1159 2491 1159 1978 
L 1159 0 
L 581 0 
L 581 3500 
L 1159 3500 
L 1159 2956 
Q 1366 3272 1645 3428 
Q 1925 3584 2291 3584 
Q 2894 3584 3203 3211 
Q 3513 2838 3513 2113 
z
" transform="scale(0.015625)"/>
        <path id="DejaVuSans-74" d="M 1172 4494 
L 1172 3500 
L 2356 3500 
L 2356 3053 
L 1172 3053 
L 1172 1153 
Q 1172 725 1289 603 
Q 1406 481 1766 481 
L 2356 481 
L 2356 0 
L 1766 0 
Q 1100 0 847 248 
Q 594 497 594 1153 
L 594 3053 
L 172 3053 
L 172 3500 
L 594 3500 
L 594 4494 
L 1172 4494 
z
" transform="scale(0.015625)"/>
        <path id="DejaVuSans-72" d="M 2631 2963 
Q 2534 3019 2420 3045 
Q 2306 3072 2169 3072 
Q 1681 3072 1420 2755 
Q 1159 2438 1159 1844 
L 1159 0 
L 581 0 
L 581 3500 
L 1159 3500 
L 1159 2956 
Q 1341 3275 1631 3429 
Q 1922 3584 2338 3584 
Q 2397 3584 2469 3576 
Q 2541 3569 2628 3553 
L 2631 2963 
z
" transform="scale(0.015625)"/>
        <path id="DejaVuSans-61" d="M 2194 1759 
Q 1497 1759 1228 1600 
Q 959 1441 959 1056 
Q 959 750 1161 570 
Q 1363 391 1709 391 
Q 2188 391 2477 730 
Q 2766 1069 2766 1631 
L 2766 1759 
L 2194 1759 
z
M 3341 1997 
L 3341 0 
L 2766 0 
L 2766 531 
Q 2569 213 2275 61 
Q 1981 -91 1556 -91 
Q 1019 -91 701 211 
Q 384 513 384 1019 
Q 384 1609 779 1909 
Q 1175 2209 1959 2209 
L 2766 2209 
L 2766 2266 
Q 2766 2663 2505 2880 
Q 2244 3097 1772 3097 
Q 1472 3097 1187 3025 
Q 903 2953 641 2809 
L 641 3341 
Q 956 3463 1253 3523 
Q 1550 3584 1831 3584 
Q 2591 3584 2966 3190 
Q 3341 2797 3341 1997 
z
" transform="scale(0.015625)"/>
        <path id="DejaVuSans-76" d="M 191 3500 
L 800 3500 
L 1894 563 
L 2988 3500 
L 3597 3500 
L 2284 0 
L 1503 0 
L 191 3500 
z
" transform="scale(0.015625)"/>
       </defs>
       <use xlink:href="#DejaVuSans-69"/>
       <use xlink:href="#DejaVuSans-6e" x="27.783203"/>
       <use xlink:href="#DejaVuSans-74" x="91.162109"/>
       <use xlink:href="#DejaVuSans-65" x="130.371094"/>
       <use xlink:href="#DejaVuSans-72" x="191.894531"/>
       <use xlink:href="#DejaVuSans-6c" x="233.007812"/>
       <use xlink:href="#DejaVuSans-65" x="260.791016"/>
       <use xlink:href="#DejaVuSans-61" x="322.314453"/>
       <use xlink:href="#DejaVuSans-76" x="383.59375"/>
       <use xlink:href="#DejaVuSans-65" x="442.773438"/>
       <use xlink:href="#DejaVuSans-64" x="504.296875"/>
      </g>
     </g>
    </g>
    <g id="text_3">
     <!-- condition -->
     <g transform="translate(401.187656 424.146094)scale(0.18 -0.18)">
      <use xlink:href="#DejaVuSans-63"/>
      <use xlink:href="#DejaVuSans-6f" x="54.980469"/>
      <use xlink:href="#DejaVuSans-6e" x="116.162109"/>
      <use xlink:href="#DejaVuSans-64" x="179.541016"/>
      <use xlink:href="#DejaVuSans-69" x="243.017578"/>
      <use xlink:href="#DejaVuSans-74" x="270.800781"/>
      <use xlink:href="#DejaVuSans-69" x="310.009766"/>
      <use xlink:href="#DejaVuSans-6f" x="337.792969"/>
      <use xlink:href="#DejaVuSans-6e" x="398.974609"/>
     </g>
    </g>
   </g>
   <g id="matplotlib.axis_2">
    <g id="ytick_1">
     <g id="line2d_3">
      <defs>
       <path id="m336c42a65e" d="M 0 0 
L -9 0 
" style="stroke: #000000; stroke-width: 1.875"/>
      </defs>
      <g>
       <use xlink:href="#m336c42a65e" x="108" y="363.082014" style="stroke: #000000; stroke-width: 1.875"/>
      </g>
     </g>
     <g id="text_4">
      <!-- 0.2 -->
      <g transform="translate(69.259844 369.350725)scale(0.165 -0.165)">
       <defs>
        <path id="DejaVuSans-30" d="M 2034 4250 
Q 1547 4250 1301 3770 
Q 1056 3291 1056 2328 
Q 1056 1369 1301 889 
Q 1547 409 2034 409 
Q 2525 409 2770 889 
Q 3016 1369 3016 2328 
Q 3016 3291 2770 3770 
Q 2525 4250 2034 4250 
z
M 2034 4750 
Q 2819 4750 3233 4129 
Q 3647 3509 3647 2328 
Q 3647 1150 3233 529 
Q 2819 -91 2034 -91 
Q 1250 -91 836 529 
Q 422 1150 422 2328 
Q 422 3509 836 4129 
Q 1250 4750 2034 4750 
z
" transform="scale(0.015625)"/>
        <path id="DejaVuSans-2e" d="M 684 794 
L 1344 794 
L 1344 0 
L 684 0 
L 684 794 
z
" transform="scale(0.015625)"/>
        <path id="DejaVuSans-32" d="M 1228 531 
L 3431 531 
L 3431 0 
L 469 0 
L 469 531 
Q 828 903 1448 1529 
Q 2069 2156 2228 2338 
Q 2531 2678 2651 2914 
Q 2772 3150 2772 3378 
Q 2772 3750 2511 3984 
Q 2250 4219 1831 4219 
Q 1534 4219 1204 4116 
Q 875 4013 500 3803 
L 500 4441 
Q 881 4594 1212 4672 
Q 1544 4750 1819 4750 
Q 2544 4750 2975 4387 
Q 3406 4025 3406 3419 
Q 3406 3131 3298 2873 
Q 3191 2616 2906 2266 
Q 2828 2175 2409 1742 
Q 1991 1309 1228 531 
z
" transform="scale(0.015625)"/>
       </defs>
       <use xlink:href="#DejaVuSans-30"/>
       <use xlink:href="#DejaVuSans-2e" x="63.623047"/>
       <use xlink:href="#DejaVuSans-32" x="95.410156"/>
      </g>
     </g>
    </g>
    <g id="ytick_2">
     <g id="line2d_4">
      <g>
       <use xlink:href="#m336c42a65e" x="108" y="301.41337" style="stroke: #000000; stroke-width: 1.875"/>
      </g>
     </g>
     <g id="text_5">
      <!-- 0.4 -->
      <g transform="translate(69.259844 307.682081)scale(0.165 -0.165)">
       <defs>
        <path id="DejaVuSans-34" d="M 2419 4116 
L 825 1625 
L 2419 1625 
L 2419 4116 
z
M 2253 4666 
L 3047 4666 
L 3047 1625 
L 3713 1625 
L 3713 1100 
L 3047 1100 
L 3047 0 
L 2419 0 
L 2419 1100 
L 313 1100 
L 313 1709 
L 2253 4666 
z
" transform="scale(0.015625)"/>
       </defs>
       <use xlink:href="#DejaVuSans-30"/>
       <use xlink:href="#DejaVuSans-2e" x="63.623047"/>
       <use xlink:href="#DejaVuSans-34" x="95.410156"/>
      </g>
     </g>
    </g>
    <g id="ytick_3">
     <g id="line2d_5">
      <g>
       <use xlink:href="#m336c42a65e" x="108" y="239.744726" style="stroke: #000000; stroke-width: 1.875"/>
      </g>
     </g>
     <g id="text_6">
      <!-- 0.6 -->
      <g transform="translate(69.259844 246.013437)scale(0.165 -0.165)">
       <defs>
        <path id="DejaVuSans-36" d="M 2113 2584 
Q 1688 2584 1439 2293 
Q 1191 2003 1191 1497 
Q 1191 994 1439 701 
Q 1688 409 2113 409 
Q 2538 409 2786 701 
Q 3034 994 3034 1497 
Q 3034 2003 2786 2293 
Q 2538 2584 2113 2584 
z
M 3366 4563 
L 3366 3988 
Q 3128 4100 2886 4159 
Q 2644 4219 2406 4219 
Q 1781 4219 1451 3797 
Q 1122 3375 1075 2522 
Q 1259 2794 1537 2939 
Q 1816 3084 2150 3084 
Q 2853 3084 3261 2657 
Q 3669 2231 3669 1497 
Q 3669 778 3244 343 
Q 2819 -91 2113 -91 
Q 1303 -91 875 529 
Q 447 1150 447 2328 
Q 447 3434 972 4092 
Q 1497 4750 2381 4750 
Q 2619 4750 2861 4703 
Q 3103 4656 3366 4563 
z
" transform="scale(0.015625)"/>
       </defs>
       <use xlink:href="#DejaVuSans-30"/>
       <use xlink:href="#DejaVuSans-2e" x="63.623047"/>
       <use xlink:href="#DejaVuSans-36" x="95.410156"/>
      </g>
     </g>
    </g>
    <g id="ytick_4">
     <g id="line2d_6">
      <g>
       <use xlink:href="#m336c42a65e" x="108" y="178.076083" style="stroke: #000000; stroke-width: 1.875"/>
      </g>
     </g>
     <g id="text_7">
      <!-- 0.8 -->
      <g transform="translate(69.259844 184.344794)scale(0.165 -0.165)">
       <defs>
        <path id="DejaVuSans-38" d="M 2034 2216 
Q 1584 2216 1326 1975 
Q 1069 1734 1069 1313 
Q 1069 891 1326 650 
Q 1584 409 2034 409 
Q 2484 409 2743 651 
Q 3003 894 3003 1313 
Q 3003 1734 2745 1975 
Q 2488 2216 2034 2216 
z
M 1403 2484 
Q 997 2584 770 2862 
Q 544 3141 544 3541 
Q 544 4100 942 4425 
Q 1341 4750 2034 4750 
Q 2731 4750 3128 4425 
Q 3525 4100 3525 3541 
Q 3525 3141 3298 2862 
Q 3072 2584 2669 2484 
Q 3125 2378 3379 2068 
Q 3634 1759 3634 1313 
Q 3634 634 3220 271 
Q 2806 -91 2034 -91 
Q 1263 -91 848 271 
Q 434 634 434 1313 
Q 434 1759 690 2068 
Q 947 2378 1403 2484 
z
M 1172 3481 
Q 1172 3119 1398 2916 
Q 1625 2713 2034 2713 
Q 2441 2713 2670 2916 
Q 2900 3119 2900 3481 
Q 2900 3844 2670 4047 
Q 2441 4250 2034 4250 
Q 1625 4250 1398 4047 
Q 1172 3844 1172 3481 
z
" transform="scale(0.015625)"/>
       </defs>
       <use xlink:href="#DejaVuSans-30"/>
       <use xlink:href="#DejaVuSans-2e" x="63.623047"/>
       <use xlink:href="#DejaVuSans-38" x="95.410156"/>
      </g>
     </g>
    </g>
    <g id="ytick_5">
     <g id="line2d_7">
      <g>
       <use xlink:href="#m336c42a65e" x="108" y="116.407439" style="stroke: #000000; stroke-width: 1.875"/>
      </g>
     </g>
     <g id="text_8">
      <!-- 1.0 -->
      <g transform="translate(69.259844 122.67615)scale(0.165 -0.165)">
       <defs>
        <path id="DejaVuSans-31" d="M 794 531 
L 1825 531 
L 1825 4091 
L 703 3866 
L 703 4441 
L 1819 4666 
L 2450 4666 
L 2450 531 
L 3481 531 
L 3481 0 
L 794 0 
L 794 531 
z
" transform="scale(0.015625)"/>
       </defs>
       <use xlink:href="#DejaVuSans-31"/>
       <use xlink:href="#DejaVuSans-2e" x="63.623047"/>
       <use xlink:href="#DejaVuSans-30" x="95.410156"/>
      </g>
     </g>
    </g>
    <g id="ytick_6">
     <g id="line2d_8">
      <g>
       <use xlink:href="#m336c42a65e" x="108" y="54.738795" style="stroke: #000000; stroke-width: 1.875"/>
      </g>
     </g>
     <g id="text_9">
      <!-- 1.2 -->
      <g transform="translate(69.259844 61.007506)scale(0.165 -0.165)">
       <use xlink:href="#DejaVuSans-31"/>
       <use xlink:href="#DejaVuSans-2e" x="63.623047"/>
       <use xlink:href="#DejaVuSans-32" x="95.410156"/>
      </g>
     </g>
    </g>
    <g id="text_10">
     <!-- prediction accuracy -->
     <g transform="translate(61.516406 303.537656)rotate(-90)scale(0.18 -0.18)">
      <defs>
       <path id="DejaVuSans-70" d="M 1159 525 
L 1159 -1331 
L 581 -1331 
L 581 3500 
L 1159 3500 
L 1159 2969 
Q 1341 3281 1617 3432 
Q 1894 3584 2278 3584 
Q 2916 3584 3314 3078 
Q 3713 2572 3713 1747 
Q 3713 922 3314 415 
Q 2916 -91 2278 -91 
Q 1894 -91 1617 61 
Q 1341 213 1159 525 
z
M 3116 1747 
Q 3116 2381 2855 2742 
Q 2594 3103 2138 3103 
Q 1681 3103 1420 2742 
Q 1159 2381 1159 1747 
Q 1159 1113 1420 752 
Q 1681 391 2138 391 
Q 2594 391 2855 752 
Q 3116 1113 3116 1747 
z
" transform="scale(0.015625)"/>
       <path id="DejaVuSans-20" transform="scale(0.015625)"/>
       <path id="DejaVuSans-75" d="M 544 1381 
L 544 3500 
L 1119 3500 
L 1119 1403 
Q 1119 906 1312 657 
Q 1506 409 1894 409 
Q 2359 409 2629 706 
Q 2900 1003 2900 1516 
L 2900 3500 
L 3475 3500 
L 3475 0 
L 2900 0 
L 2900 538 
Q 2691 219 2414 64 
Q 2138 -91 1772 -91 
Q 1169 -91 856 284 
Q 544 659 544 1381 
z
M 1991 3584 
L 1991 3584 
z
" transform="scale(0.015625)"/>
       <path id="DejaVuSans-79" d="M 2059 -325 
Q 1816 -950 1584 -1140 
Q 1353 -1331 966 -1331 
L 506 -1331 
L 506 -850 
L 844 -850 
Q 1081 -850 1212 -737 
Q 1344 -625 1503 -206 
L 1606 56 
L 191 3500 
L 800 3500 
L 1894 763 
L 2988 3500 
L 3597 3500 
L 2059 -325 
z
" transform="scale(0.015625)"/>
      </defs>
      <use xlink:href="#DejaVuSans-70"/>
      <use xlink:href="#DejaVuSans-72" x="63.476562"/>
      <use xlink:href="#DejaVuSans-65" x="102.339844"/>
      <use xlink:href="#DejaVuSans-64" x="163.863281"/>
      <use xlink:href="#DejaVuSans-69" x="227.339844"/>
      <use xlink:href="#DejaVuSans-63" x="255.123047"/>
      <use xlink:href="#DejaVuSans-74" x="310.103516"/>
      <use xlink:href="#DejaVuSans-69" x="349.3125"/>
      <use xlink:href="#DejaVuSans-6f" x="377.095703"/>
      <use xlink:href="#DejaVuSans-6e" x="438.277344"/>
      <use xlink:href="#DejaVuSans-20" x="501.65625"/>
      <use xlink:href="#DejaVuSans-61" x="533.443359"/>
      <use xlink:href="#DejaVuSans-63" x="594.722656"/>
      <use xlink:href="#DejaVuSans-63" x="649.703125"/>
      <use xlink:href="#DejaVuSans-75" x="704.683594"/>
      <use xlink:href="#DejaVuSans-72" x="768.0625"/>
      <use xlink:href="#DejaVuSans-61" x="809.175781"/>
      <use xlink:href="#DejaVuSans-63" x="870.455078"/>
      <use xlink:href="#DejaVuSans-79" x="925.435547"/>
     </g>
    </g>
   </g>
   <g id="line2d_9">
    <path d="M 275.4 122.174148 
L 275.4 122.154766 
" clip-path="url(#p73016b7eaa)" style="fill: none; stroke: #3f3f3f; stroke-width: 2.25; stroke-linecap: square"/>
   </g>
   <g id="line2d_10">
    <path d="M 275.4 122.167413 
L 275.4 122.161088 
" clip-path="url(#p73016b7eaa)" style="fill: none; stroke: #3f3f3f; stroke-width: 6.75; stroke-linecap: square"/>
   </g>
   <g id="line2d_11">
    <path d="M 610.2 307.682355 
L 610.2 122.157645 
" clip-path="url(#p73016b7eaa)" style="fill: none; stroke: #3f3f3f; stroke-width: 2.25; stroke-linecap: square"/>
   </g>
   <g id="line2d_12">
    <path d="M 610.2 271.440445 
L 610.2 122.16743 
" clip-path="url(#p73016b7eaa)" style="fill: none; stroke: #3f3f3f; stroke-width: 6.75; stroke-linecap: square"/>
   </g>
   <g id="patch_3">
    <path d="M 108 378 
L 108 51.84 
" style="fill: none; stroke: #000000; stroke-width: 1.875; stroke-linejoin: miter; stroke-linecap: square"/>
   </g>
   <g id="patch_4">
    <path d="M 777.6 378 
L 777.6 51.84 
" style="fill: none; stroke: #000000; stroke-width: 1.875; stroke-linejoin: miter; stroke-linecap: square"/>
   </g>
   <g id="patch_5">
    <path d="M 108 378 
L 777.6 378 
" style="fill: none; stroke: #000000; stroke-width: 1.875; stroke-linejoin: miter; stroke-linecap: square"/>
   </g>
   <g id="patch_6">
    <path d="M 108 51.84 
L 777.6 51.84 
" style="fill: none; stroke: #000000; stroke-width: 1.875; stroke-linejoin: miter; stroke-linecap: square"/>
   </g>
   <g id="PathCollection_1">
    <defs>
     <path id="mdbfd721279" d="M 0 2.25 
C 0.596707 2.25 1.169055 2.012926 1.59099 1.59099 
C 2.012926 1.169055 2.25 0.596707 2.25 0 
C 2.25 -0.596707 2.012926 -1.169055 1.59099 -1.59099 
C 1.169055 -2.012926 0.596707 -2.25 0 -2.25 
C -0.596707 -2.25 -1.169055 -2.012926 -1.59099 -1.59099 
C -2.012926 -1.169055 -2.25 -0.596707 -2.25 0 
C -2.25 0.596707 -2.012926 1.169055 -1.59099 1.59099 
C -1.169055 2.012926 -0.596707 2.25 0 2.25 
z
" style="stroke: #3f3f3f; stroke-width: 1.5"/>
    </defs>
    <g clip-path="url(#p73016b7eaa)">
     <use xlink:href="#mdbfd721279" x="275.4" y="122.163416" style="fill: #ffffff; stroke: #3f3f3f; stroke-width: 1.5"/>
    </g>
   </g>
   <g id="PathCollection_2">
    <g clip-path="url(#p73016b7eaa)">
     <use xlink:href="#mdbfd721279" x="610.2" y="268.456596" style="fill: #ffffff; stroke: #3f3f3f; stroke-width: 1.5"/>
    </g>
   </g>
  </g>
 </g>
 <defs>
  <clipPath id="p73016b7eaa">
   <rect x="108" y="51.84" width="669.6" height="326.16"/>
  </clipPath>
 </defs>
</svg>
