<?xml version="1.0" encoding="utf-8" standalone="no"?>
<!DOCTYPE svg PUBLIC "-//W3C//DTD SVG 1.1//EN"
  "http://www.w3.org/Graphics/SVG/1.1/DTD/svg11.dtd">
<!-- Created with matplotlib (https://matplotlib.org/) -->
<svg height="432pt" version="1.1" viewBox="0 0 864 432" width="864pt" xmlns="http://www.w3.org/2000/svg" xmlns:xlink="http://www.w3.org/1999/xlink">
 <metadata>
  <rdf:RDF xmlns:cc="http://creativecommons.org/ns#" xmlns:dc="http://purl.org/dc/elements/1.1/" xmlns:rdf="http://www.w3.org/1999/02/22-rdf-syntax-ns#">
   <cc:Work>
    <dc:type rdf:resource="http://purl.org/dc/dcmitype/StillImage"/>
    <dc:date>2023-04-16T12:01:46.117857</dc:date>
    <dc:format>image/svg+xml</dc:format>
    <dc:creator>
     <cc:Agent>
      <dc:title>Matplotlib v3.3.4, https://matplotlib.org/</dc:title>
     </cc:Agent>
    </dc:creator>
   </cc:Work>
  </rdf:RDF>
 </metadata>
 <defs>
  <style type="text/css">*{stroke-linecap:butt;stroke-linejoin:round;}</style>
 </defs>
 <g id="figure_1">
  <g id="patch_1">
   <path d="M 0 432 
L 864 432 
L 864 0 
L 0 0 
z
" style="fill:none;"/>
  </g>
  <g id="axes_1">
   <g id="patch_2">
    <path d="M 108 378 
L 777.6 378 
L 777.6 51.84 
L 108 51.84 
z
" style="fill:#ffffff;"/>
   </g>
   <g id="PolyCollection_1">
    <defs>
     <path d="M 275.844295 -97.739528 
L 274.955705 -97.739528 
L 274.789732 -100.185513 
L 274.577461 -102.631498 
L 274.311999 -105.077483 
L 273.987489 -107.523467 
L 273.599897 -109.969452 
L 273.147832 -112.415437 
L 272.633334 -114.861422 
L 272.062504 -117.307407 
L 271.445896 -119.753392 
L 270.79856 -122.199377 
L 270.139684 -124.645362 
L 269.491799 -127.091347 
L 268.879586 -129.537332 
L 268.328351 -131.983316 
L 267.862308 -134.429301 
L 267.502823 -136.875286 
L 267.2668 -139.321271 
L 267.165374 -141.767256 
L 267.20304 -144.213241 
L 267.37733 -146.659226 
L 267.679032 -149.105211 
L 268.09294 -151.551196 
L 268.59904 -153.997181 
L 269.173981 -156.443166 
L 269.792683 -158.88915 
L 270.429929 -161.335135 
L 271.061762 -163.78112 
L 271.666615 -166.227105 
L 272.226076 -168.67309 
L 272.725278 -171.119075 
L 273.152938 -173.56506 
L 273.501112 -176.011045 
L 273.764744 -178.45703 
L 273.941117 -180.903015 
L 274.029301 -183.348999 
L 274.029695 -185.794984 
L 273.943713 -188.240969 
L 273.773661 -190.686954 
L 273.522815 -193.132939 
L 273.195672 -195.578924 
L 272.798323 -198.024909 
L 272.338886 -200.470894 
L 271.8279 -202.916879 
L 271.27859 -205.362864 
L 270.70692 -207.808848 
L 270.131352 -210.254833 
L 269.572273 -212.700818 
L 269.051104 -215.146803 
L 268.589116 -217.592788 
L 268.206079 -220.038773 
L 267.918852 -222.484758 
L 267.74009 -224.930743 
L 267.677206 -227.376728 
L 267.731693 -229.822713 
L 267.898883 -232.268697 
L 268.1681 -234.714682 
L 268.523108 -237.160667 
L 268.942692 -239.606652 
L 269.40114 -242.052637 
L 269.868378 -244.498622 
L 270.309573 -246.944607 
L 270.684017 -249.390592 
L 270.943288 -251.836577 
L 271.028765 -254.282562 
L 270.868798 -256.728547 
L 270.376012 -259.174531 
L 269.445412 -261.620516 
L 267.954147 -264.066501 
L 265.763831 -266.512486 
L 262.726317 -268.958471 
L 258.693542 -271.404456 
L 253.531647 -273.850441 
L 247.138913 -276.296426 
L 239.466206 -278.742411 
L 230.537825 -281.188396 
L 220.469848 -283.63438 
L 209.482706 -286.080365 
L 197.904756 -288.52635 
L 186.164325 -290.972335 
L 174.768977 -293.41832 
L 164.272563 -295.864305 
L 155.232542 -298.31029 
L 148.16198 -300.756275 
L 143.481879 -303.20226 
L 141.48 -305.648245 
L 142.281807 -308.094229 
L 145.837617 -310.540214 
L 151.927821 -312.986199 
L 160.185417 -315.432184 
L 170.132662 -317.878169 
L 181.226765 -320.324154 
L 192.908559 -322.770139 
L 204.648155 -325.216124 
L 215.982538 -327.662109 
L 226.541758 -330.108094 
L 236.062298 -332.554079 
L 244.388161 -335.000063 
L 251.461692 -337.446048 
L 257.307159 -339.892033 
L 293.492841 -339.892033 
L 293.492841 -339.892033 
L 299.338308 -337.446048 
L 306.411839 -335.000063 
L 314.737702 -332.554079 
L 324.258242 -330.108094 
L 334.817462 -327.662109 
L 346.151845 -325.216124 
L 357.891441 -322.770139 
L 369.573235 -320.324154 
L 380.667338 -317.878169 
L 390.614583 -315.432184 
L 398.872179 -312.986199 
L 404.962383 -310.540214 
L 408.518193 -308.094229 
L 409.32 -305.648245 
L 407.318121 -303.20226 
L 402.63802 -300.756275 
L 395.567458 -298.31029 
L 386.527437 -295.864305 
L 376.031023 -293.41832 
L 364.635675 -290.972335 
L 352.895244 -288.52635 
L 341.317294 -286.080365 
L 330.330152 -283.63438 
L 320.262175 -281.188396 
L 311.333794 -278.742411 
L 303.661087 -276.296426 
L 297.268353 -273.850441 
L 292.106458 -271.404456 
L 288.073683 -268.958471 
L 285.036169 -266.512486 
L 282.845853 -264.066501 
L 281.354588 -261.620516 
L 280.423988 -259.174531 
L 279.931202 -256.728547 
L 279.771235 -254.282562 
L 279.856712 -251.836577 
L 280.115983 -249.390592 
L 280.490427 -246.944607 
L 280.931622 -244.498622 
L 281.39886 -242.052637 
L 281.857308 -239.606652 
L 282.276892 -237.160667 
L 282.6319 -234.714682 
L 282.901117 -232.268697 
L 283.068307 -229.822713 
L 283.122794 -227.376728 
L 283.05991 -224.930743 
L 282.881148 -222.484758 
L 282.593921 -220.038773 
L 282.210884 -217.592788 
L 281.748896 -215.146803 
L 281.227727 -212.700818 
L 280.668648 -210.254833 
L 280.09308 -207.808848 
L 279.52141 -205.362864 
L 278.9721 -202.916879 
L 278.461114 -200.470894 
L 278.001677 -198.024909 
L 277.604328 -195.578924 
L 277.277185 -193.132939 
L 277.026339 -190.686954 
L 276.856287 -188.240969 
L 276.770305 -185.794984 
L 276.770699 -183.348999 
L 276.858883 -180.903015 
L 277.035256 -178.45703 
L 277.298888 -176.011045 
L 277.647062 -173.56506 
L 278.074722 -171.119075 
L 278.573924 -168.67309 
L 279.133385 -166.227105 
L 279.738238 -163.78112 
L 280.370071 -161.335135 
L 281.007317 -158.88915 
L 281.626019 -156.443166 
L 282.20096 -153.997181 
L 282.70706 -151.551196 
L 283.120968 -149.105211 
L 283.42267 -146.659226 
L 283.59696 -144.213241 
L 283.634626 -141.767256 
L 283.5332 -139.321271 
L 283.297177 -136.875286 
L 282.937692 -134.429301 
L 282.471649 -131.983316 
L 281.920414 -129.537332 
L 281.308201 -127.091347 
L 280.660316 -124.645362 
L 280.00144 -122.199377 
L 279.354104 -119.753392 
L 278.737496 -117.307407 
L 278.166666 -114.861422 
L 277.652168 -112.415437 
L 277.200103 -109.969452 
L 276.812511 -107.523467 
L 276.488001 -105.077483 
L 276.222539 -102.631498 
L 276.010268 -100.185513 
L 275.844295 -97.739528 
z
" id="m7668ffc7b9" style="stroke:#3f3f3f;stroke-width:2.25;"/>
    </defs>
    <g clip-path="url(#p7a79fe8136)">
     <use style="fill:#3274a1;stroke:#3f3f3f;stroke-width:2.25;" x="0" xlink:href="#m7668ffc7b9" y="432"/>
    </g>
   </g>
   <g id="PolyCollection_2">
    <defs>
     <path d="M 613.865523 -68.825455 
L 606.534477 -68.825455 
L 605.564473 -71.820496 
L 604.396767 -74.815537 
L 603.00802 -77.810579 
L 601.376639 -80.80562 
L 599.484153 -83.800661 
L 597.316747 -86.795702 
L 594.866867 -89.790744 
L 592.134818 -92.785785 
L 589.130237 -95.780826 
L 585.873334 -98.775868 
L 582.395765 -101.770909 
L 578.741027 -104.76595 
L 574.964278 -107.760992 
L 571.131505 -110.756033 
L 567.318012 -113.751074 
L 563.606246 -116.746116 
L 560.083015 -119.741157 
L 556.836235 -122.736198 
L 553.951339 -125.73124 
L 551.507583 -128.726281 
L 549.574436 -131.721322 
L 548.208307 -134.716364 
L 547.449813 -137.711405 
L 547.32177 -140.706446 
L 547.828053 -143.701488 
L 548.953405 -146.696529 
L 550.664196 -149.69157 
L 552.910094 -152.686612 
L 555.626525 -155.681653 
L 558.737751 -158.676694 
L 562.160369 -161.671736 
L 565.806998 -164.666777 
L 569.589939 -167.661818 
L 573.424575 -170.65686 
L 577.232368 -173.651901 
L 580.94327 -176.646942 
L 584.497511 -179.641983 
L 587.846681 -182.637025 
L 590.95416 -185.632066 
L 593.794915 -188.627107 
L 596.354782 -191.622149 
L 598.629325 -194.61719 
L 600.622391 -197.612231 
L 602.344504 -200.607273 
L 603.811179 -203.602314 
L 605.041286 -206.597355 
L 606.055515 -209.592397 
L 606.875023 -212.587438 
L 607.520284 -215.582479 
L 608.010169 -218.577521 
L 608.361261 -221.572562 
L 608.587391 -224.567603 
L 608.699392 -227.562645 
L 608.705042 -230.557686 
L 608.60918 -233.552727 
L 608.41398 -236.547769 
L 608.119356 -239.54281 
L 607.72349 -242.537851 
L 607.223451 -245.532893 
L 606.615908 -248.527934 
L 605.897888 -251.522975 
L 605.067565 -254.518017 
L 604.125055 -257.513058 
L 603.073154 -260.508099 
L 601.918001 -263.50314 
L 600.669605 -266.498182 
L 599.342199 -269.493223 
L 597.954373 -272.488264 
L 596.52896 -275.483306 
L 595.092652 -278.478347 
L 593.675346 -281.473388 
L 592.30923 -284.46843 
L 591.027647 -287.463471 
L 589.863795 -290.458512 
L 588.849324 -293.453554 
L 588.012926 -296.448595 
L 587.378991 -299.443636 
L 586.966433 -302.438678 
L 586.787755 -305.433719 
L 586.848418 -308.42876 
L 587.146566 -311.423802 
L 587.673124 -314.418843 
L 588.412253 -317.413884 
L 589.342142 -320.408926 
L 590.436079 -323.403967 
L 591.663723 -326.399008 
L 592.992494 -329.39405 
L 594.388999 -332.389091 
L 595.8204 -335.384132 
L 597.255649 -338.379174 
L 598.666537 -341.374215 
L 600.028495 -344.369256 
L 601.321151 -347.364298 
L 602.528608 -350.359339 
L 603.639489 -353.35438 
L 604.64675 -356.349421 
L 605.547325 -359.344463 
L 606.341626 -362.339504 
L 607.032973 -365.334545 
L 613.367027 -365.334545 
L 613.367027 -365.334545 
L 614.058374 -362.339504 
L 614.852675 -359.344463 
L 615.75325 -356.349421 
L 616.760511 -353.35438 
L 617.871392 -350.359339 
L 619.078849 -347.364298 
L 620.371505 -344.369256 
L 621.733463 -341.374215 
L 623.144351 -338.379174 
L 624.5796 -335.384132 
L 626.011001 -332.389091 
L 627.407506 -329.39405 
L 628.736277 -326.399008 
L 629.963921 -323.403967 
L 631.057858 -320.408926 
L 631.987747 -317.413884 
L 632.726876 -314.418843 
L 633.253434 -311.423802 
L 633.551582 -308.42876 
L 633.612245 -305.433719 
L 633.433567 -302.438678 
L 633.021009 -299.443636 
L 632.387074 -296.448595 
L 631.550676 -293.453554 
L 630.536205 -290.458512 
L 629.372353 -287.463471 
L 628.09077 -284.46843 
L 626.724654 -281.473388 
L 625.307348 -278.478347 
L 623.87104 -275.483306 
L 622.445627 -272.488264 
L 621.057801 -269.493223 
L 619.730395 -266.498182 
L 618.481999 -263.50314 
L 617.326846 -260.508099 
L 616.274945 -257.513058 
L 615.332435 -254.518017 
L 614.502112 -251.522975 
L 613.784092 -248.527934 
L 613.176549 -245.532893 
L 612.67651 -242.537851 
L 612.280644 -239.54281 
L 611.98602 -236.547769 
L 611.79082 -233.552727 
L 611.694958 -230.557686 
L 611.700608 -227.562645 
L 611.812609 -224.567603 
L 612.038739 -221.572562 
L 612.389831 -218.577521 
L 612.879716 -215.582479 
L 613.524977 -212.587438 
L 614.344485 -209.592397 
L 615.358714 -206.597355 
L 616.588821 -203.602314 
L 618.055496 -200.607273 
L 619.777609 -197.612231 
L 621.770675 -194.61719 
L 624.045218 -191.622149 
L 626.605085 -188.627107 
L 629.44584 -185.632066 
L 632.553319 -182.637025 
L 635.902489 -179.641983 
L 639.45673 -176.646942 
L 643.167632 -173.651901 
L 646.975425 -170.65686 
L 650.810061 -167.661818 
L 654.593002 -164.666777 
L 658.239631 -161.671736 
L 661.662249 -158.676694 
L 664.773475 -155.681653 
L 667.489906 -152.686612 
L 669.735804 -149.69157 
L 671.446595 -146.696529 
L 672.571947 -143.701488 
L 673.07823 -140.706446 
L 672.950187 -137.711405 
L 672.191693 -134.716364 
L 670.825564 -131.721322 
L 668.892417 -128.726281 
L 666.448661 -125.73124 
L 663.563765 -122.736198 
L 660.316985 -119.741157 
L 656.793754 -116.746116 
L 653.081988 -113.751074 
L 649.268495 -110.756033 
L 645.435722 -107.760992 
L 641.658973 -104.76595 
L 638.004235 -101.770909 
L 634.526666 -98.775868 
L 631.269763 -95.780826 
L 628.265182 -92.785785 
L 625.533133 -89.790744 
L 623.083253 -86.795702 
L 620.915847 -83.800661 
L 619.023361 -80.80562 
L 617.39198 -77.810579 
L 616.003233 -74.815537 
L 614.835527 -71.820496 
L 613.865523 -68.825455 
z
" id="m231feba1b5" style="stroke:#3f3f3f;stroke-width:2.25;"/>
    </defs>
    <g clip-path="url(#p7a79fe8136)">
     <use style="fill:#e1812c;stroke:#3f3f3f;stroke-width:2.25;" x="0" xlink:href="#m231feba1b5" y="432"/>
    </g>
   </g>
   <g id="matplotlib.axis_1">
    <g id="xtick_1">
     <g id="line2d_1">
      <defs>
       <path d="M 0 0 
L 0 9 
" id="mfa184df2ee" style="stroke:#000000;stroke-width:1.875;"/>
      </defs>
      <g>
       <use style="stroke:#000000;stroke-width:1.875;" x="275.4" xlink:href="#mfa184df2ee" y="378"/>
      </g>
     </g>
     <g id="text_1">
      <!-- blocked -->
      <g transform="translate(243.494414 403.037422)scale(0.165 -0.165)">
       <defs>
        <path d="M 48.6875 27.296875 
Q 48.6875 37.203125 44.609375 42.84375 
Q 40.53125 48.484375 33.40625 48.484375 
Q 26.265625 48.484375 22.1875 42.84375 
Q 18.109375 37.203125 18.109375 27.296875 
Q 18.109375 17.390625 22.1875 11.75 
Q 26.265625 6.109375 33.40625 6.109375 
Q 40.53125 6.109375 44.609375 11.75 
Q 48.6875 17.390625 48.6875 27.296875 
z
M 18.109375 46.390625 
Q 20.953125 51.265625 25.265625 53.625 
Q 29.59375 56 35.59375 56 
Q 45.5625 56 51.78125 48.09375 
Q 58.015625 40.1875 58.015625 27.296875 
Q 58.015625 14.40625 51.78125 6.484375 
Q 45.5625 -1.421875 35.59375 -1.421875 
Q 29.59375 -1.421875 25.265625 0.953125 
Q 20.953125 3.328125 18.109375 8.203125 
L 18.109375 0 
L 9.078125 0 
L 9.078125 75.984375 
L 18.109375 75.984375 
z
" id="DejaVuSans-98"/>
        <path d="M 9.421875 75.984375 
L 18.40625 75.984375 
L 18.40625 0 
L 9.421875 0 
z
" id="DejaVuSans-108"/>
        <path d="M 30.609375 48.390625 
Q 23.390625 48.390625 19.1875 42.75 
Q 14.984375 37.109375 14.984375 27.296875 
Q 14.984375 17.484375 19.15625 11.84375 
Q 23.34375 6.203125 30.609375 6.203125 
Q 37.796875 6.203125 41.984375 11.859375 
Q 46.1875 17.53125 46.1875 27.296875 
Q 46.1875 37.015625 41.984375 42.703125 
Q 37.796875 48.390625 30.609375 48.390625 
z
M 30.609375 56 
Q 42.328125 56 49.015625 48.375 
Q 55.71875 40.765625 55.71875 27.296875 
Q 55.71875 13.875 49.015625 6.21875 
Q 42.328125 -1.421875 30.609375 -1.421875 
Q 18.84375 -1.421875 12.171875 6.21875 
Q 5.515625 13.875 5.515625 27.296875 
Q 5.515625 40.765625 12.171875 48.375 
Q 18.84375 56 30.609375 56 
z
" id="DejaVuSans-111"/>
        <path d="M 48.78125 52.59375 
L 48.78125 44.1875 
Q 44.96875 46.296875 41.140625 47.34375 
Q 37.3125 48.390625 33.40625 48.390625 
Q 24.65625 48.390625 19.8125 42.84375 
Q 14.984375 37.3125 14.984375 27.296875 
Q 14.984375 17.28125 19.8125 11.734375 
Q 24.65625 6.203125 33.40625 6.203125 
Q 37.3125 6.203125 41.140625 7.25 
Q 44.96875 8.296875 48.78125 10.40625 
L 48.78125 2.09375 
Q 45.015625 0.34375 40.984375 -0.53125 
Q 36.96875 -1.421875 32.421875 -1.421875 
Q 20.0625 -1.421875 12.78125 6.34375 
Q 5.515625 14.109375 5.515625 27.296875 
Q 5.515625 40.671875 12.859375 48.328125 
Q 20.21875 56 33.015625 56 
Q 37.15625 56 41.109375 55.140625 
Q 45.0625 54.296875 48.78125 52.59375 
z
" id="DejaVuSans-99"/>
        <path d="M 9.078125 75.984375 
L 18.109375 75.984375 
L 18.109375 31.109375 
L 44.921875 54.6875 
L 56.390625 54.6875 
L 27.390625 29.109375 
L 57.625 0 
L 45.90625 0 
L 18.109375 26.703125 
L 18.109375 0 
L 9.078125 0 
z
" id="DejaVuSans-107"/>
        <path d="M 56.203125 29.59375 
L 56.203125 25.203125 
L 14.890625 25.203125 
Q 15.484375 15.921875 20.484375 11.0625 
Q 25.484375 6.203125 34.421875 6.203125 
Q 39.59375 6.203125 44.453125 7.46875 
Q 49.3125 8.734375 54.109375 11.28125 
L 54.109375 2.78125 
Q 49.265625 0.734375 44.1875 -0.34375 
Q 39.109375 -1.421875 33.890625 -1.421875 
Q 20.796875 -1.421875 13.15625 6.1875 
Q 5.515625 13.8125 5.515625 26.8125 
Q 5.515625 40.234375 12.765625 48.109375 
Q 20.015625 56 32.328125 56 
Q 43.359375 56 49.78125 48.890625 
Q 56.203125 41.796875 56.203125 29.59375 
z
M 47.21875 32.234375 
Q 47.125 39.59375 43.09375 43.984375 
Q 39.0625 48.390625 32.421875 48.390625 
Q 24.90625 48.390625 20.390625 44.140625 
Q 15.875 39.890625 15.1875 32.171875 
z
" id="DejaVuSans-101"/>
        <path d="M 45.40625 46.390625 
L 45.40625 75.984375 
L 54.390625 75.984375 
L 54.390625 0 
L 45.40625 0 
L 45.40625 8.203125 
Q 42.578125 3.328125 38.25 0.953125 
Q 33.9375 -1.421875 27.875 -1.421875 
Q 17.96875 -1.421875 11.734375 6.484375 
Q 5.515625 14.40625 5.515625 27.296875 
Q 5.515625 40.1875 11.734375 48.09375 
Q 17.96875 56 27.875 56 
Q 33.9375 56 38.25 53.625 
Q 42.578125 51.265625 45.40625 46.390625 
z
M 14.796875 27.296875 
Q 14.796875 17.390625 18.875 11.75 
Q 22.953125 6.109375 30.078125 6.109375 
Q 37.203125 6.109375 41.296875 11.75 
Q 45.40625 17.390625 45.40625 27.296875 
Q 45.40625 37.203125 41.296875 42.84375 
Q 37.203125 48.484375 30.078125 48.484375 
Q 22.953125 48.484375 18.875 42.84375 
Q 14.796875 37.203125 14.796875 27.296875 
z
" id="DejaVuSans-100"/>
       </defs>
       <use xlink:href="#DejaVuSans-98"/>
       <use x="63.476562" xlink:href="#DejaVuSans-108"/>
       <use x="91.259766" xlink:href="#DejaVuSans-111"/>
       <use x="152.441406" xlink:href="#DejaVuSans-99"/>
       <use x="207.421875" xlink:href="#DejaVuSans-107"/>
       <use x="261.707031" xlink:href="#DejaVuSans-101"/>
       <use x="323.230469" xlink:href="#DejaVuSans-100"/>
      </g>
     </g>
    </g>
    <g id="xtick_2">
     <g id="line2d_2">
      <g>
       <use style="stroke:#000000;stroke-width:1.875;" x="610.2" xlink:href="#mfa184df2ee" y="378"/>
      </g>
     </g>
     <g id="text_2">
      <!-- interleaved -->
      <g transform="translate(563.356758 403.037422)scale(0.165 -0.165)">
       <defs>
        <path d="M 9.421875 54.6875 
L 18.40625 54.6875 
L 18.40625 0 
L 9.421875 0 
z
M 9.421875 75.984375 
L 18.40625 75.984375 
L 18.40625 64.59375 
L 9.421875 64.59375 
z
" id="DejaVuSans-105"/>
        <path d="M 54.890625 33.015625 
L 54.890625 0 
L 45.90625 0 
L 45.90625 32.71875 
Q 45.90625 40.484375 42.875 44.328125 
Q 39.84375 48.1875 33.796875 48.1875 
Q 26.515625 48.1875 22.3125 43.546875 
Q 18.109375 38.921875 18.109375 30.90625 
L 18.109375 0 
L 9.078125 0 
L 9.078125 54.6875 
L 18.109375 54.6875 
L 18.109375 46.1875 
Q 21.34375 51.125 25.703125 53.5625 
Q 30.078125 56 35.796875 56 
Q 45.21875 56 50.046875 50.171875 
Q 54.890625 44.34375 54.890625 33.015625 
z
" id="DejaVuSans-110"/>
        <path d="M 18.3125 70.21875 
L 18.3125 54.6875 
L 36.8125 54.6875 
L 36.8125 47.703125 
L 18.3125 47.703125 
L 18.3125 18.015625 
Q 18.3125 11.328125 20.140625 9.421875 
Q 21.96875 7.515625 27.59375 7.515625 
L 36.8125 7.515625 
L 36.8125 0 
L 27.59375 0 
Q 17.1875 0 13.234375 3.875 
Q 9.28125 7.765625 9.28125 18.015625 
L 9.28125 47.703125 
L 2.6875 47.703125 
L 2.6875 54.6875 
L 9.28125 54.6875 
L 9.28125 70.21875 
z
" id="DejaVuSans-116"/>
        <path d="M 41.109375 46.296875 
Q 39.59375 47.171875 37.8125 47.578125 
Q 36.03125 48 33.890625 48 
Q 26.265625 48 22.1875 43.046875 
Q 18.109375 38.09375 18.109375 28.8125 
L 18.109375 0 
L 9.078125 0 
L 9.078125 54.6875 
L 18.109375 54.6875 
L 18.109375 46.1875 
Q 20.953125 51.171875 25.484375 53.578125 
Q 30.03125 56 36.53125 56 
Q 37.453125 56 38.578125 55.875 
Q 39.703125 55.765625 41.0625 55.515625 
z
" id="DejaVuSans-114"/>
        <path d="M 34.28125 27.484375 
Q 23.390625 27.484375 19.1875 25 
Q 14.984375 22.515625 14.984375 16.5 
Q 14.984375 11.71875 18.140625 8.90625 
Q 21.296875 6.109375 26.703125 6.109375 
Q 34.1875 6.109375 38.703125 11.40625 
Q 43.21875 16.703125 43.21875 25.484375 
L 43.21875 27.484375 
z
M 52.203125 31.203125 
L 52.203125 0 
L 43.21875 0 
L 43.21875 8.296875 
Q 40.140625 3.328125 35.546875 0.953125 
Q 30.953125 -1.421875 24.3125 -1.421875 
Q 15.921875 -1.421875 10.953125 3.296875 
Q 6 8.015625 6 15.921875 
Q 6 25.140625 12.171875 29.828125 
Q 18.359375 34.515625 30.609375 34.515625 
L 43.21875 34.515625 
L 43.21875 35.40625 
Q 43.21875 41.609375 39.140625 45 
Q 35.0625 48.390625 27.6875 48.390625 
Q 23 48.390625 18.546875 47.265625 
Q 14.109375 46.140625 10.015625 43.890625 
L 10.015625 52.203125 
Q 14.9375 54.109375 19.578125 55.046875 
Q 24.21875 56 28.609375 56 
Q 40.484375 56 46.34375 49.84375 
Q 52.203125 43.703125 52.203125 31.203125 
z
" id="DejaVuSans-97"/>
        <path d="M 2.984375 54.6875 
L 12.5 54.6875 
L 29.59375 8.796875 
L 46.6875 54.6875 
L 56.203125 54.6875 
L 35.6875 0 
L 23.484375 0 
z
" id="DejaVuSans-118"/>
       </defs>
       <use xlink:href="#DejaVuSans-105"/>
       <use x="27.783203" xlink:href="#DejaVuSans-110"/>
       <use x="91.162109" xlink:href="#DejaVuSans-116"/>
       <use x="130.371094" xlink:href="#DejaVuSans-101"/>
       <use x="191.894531" xlink:href="#DejaVuSans-114"/>
       <use x="233.007812" xlink:href="#DejaVuSans-108"/>
       <use x="260.791016" xlink:href="#DejaVuSans-101"/>
       <use x="322.314453" xlink:href="#DejaVuSans-97"/>
       <use x="383.59375" xlink:href="#DejaVuSans-118"/>
       <use x="442.773438" xlink:href="#DejaVuSans-101"/>
       <use x="504.296875" xlink:href="#DejaVuSans-100"/>
      </g>
     </g>
    </g>
    <g id="text_3">
     <!-- condition -->
     <g transform="translate(401.187656 424.146094)scale(0.18 -0.18)">
      <use xlink:href="#DejaVuSans-99"/>
      <use x="54.980469" xlink:href="#DejaVuSans-111"/>
      <use x="116.162109" xlink:href="#DejaVuSans-110"/>
      <use x="179.541016" xlink:href="#DejaVuSans-100"/>
      <use x="243.017578" xlink:href="#DejaVuSans-105"/>
      <use x="270.800781" xlink:href="#DejaVuSans-116"/>
      <use x="310.009766" xlink:href="#DejaVuSans-105"/>
      <use x="337.792969" xlink:href="#DejaVuSans-111"/>
      <use x="398.974609" xlink:href="#DejaVuSans-110"/>
     </g>
    </g>
   </g>
   <g id="matplotlib.axis_2">
    <g id="ytick_1">
     <g id="line2d_3">
      <defs>
       <path d="M 0 0 
L -9 0 
" id="mc80d923cff" style="stroke:#000000;stroke-width:1.875;"/>
      </defs>
      <g>
       <use style="stroke:#000000;stroke-width:1.875;" x="108" xlink:href="#mc80d923cff" y="327.288601"/>
      </g>
     </g>
     <g id="text_4">
      <!-- 0.4 -->
      <g transform="translate(69.259844 333.557312)scale(0.165 -0.165)">
       <defs>
        <path d="M 31.78125 66.40625 
Q 24.171875 66.40625 20.328125 58.90625 
Q 16.5 51.421875 16.5 36.375 
Q 16.5 21.390625 20.328125 13.890625 
Q 24.171875 6.390625 31.78125 6.390625 
Q 39.453125 6.390625 43.28125 13.890625 
Q 47.125 21.390625 47.125 36.375 
Q 47.125 51.421875 43.28125 58.90625 
Q 39.453125 66.40625 31.78125 66.40625 
z
M 31.78125 74.21875 
Q 44.046875 74.21875 50.515625 64.515625 
Q 56.984375 54.828125 56.984375 36.375 
Q 56.984375 17.96875 50.515625 8.265625 
Q 44.046875 -1.421875 31.78125 -1.421875 
Q 19.53125 -1.421875 13.0625 8.265625 
Q 6.59375 17.96875 6.59375 36.375 
Q 6.59375 54.828125 13.0625 64.515625 
Q 19.53125 74.21875 31.78125 74.21875 
z
" id="DejaVuSans-48"/>
        <path d="M 10.6875 12.40625 
L 21 12.40625 
L 21 0 
L 10.6875 0 
z
" id="DejaVuSans-46"/>
        <path d="M 37.796875 64.3125 
L 12.890625 25.390625 
L 37.796875 25.390625 
z
M 35.203125 72.90625 
L 47.609375 72.90625 
L 47.609375 25.390625 
L 58.015625 25.390625 
L 58.015625 17.1875 
L 47.609375 17.1875 
L 47.609375 0 
L 37.796875 0 
L 37.796875 17.1875 
L 4.890625 17.1875 
L 4.890625 26.703125 
z
" id="DejaVuSans-52"/>
       </defs>
       <use xlink:href="#DejaVuSans-48"/>
       <use x="63.623047" xlink:href="#DejaVuSans-46"/>
       <use x="95.410156" xlink:href="#DejaVuSans-52"/>
      </g>
     </g>
    </g>
    <g id="ytick_2">
     <g id="line2d_4">
      <g>
       <use style="stroke:#000000;stroke-width:1.875;" x="108" xlink:href="#mc80d923cff" y="257.889623"/>
      </g>
     </g>
     <g id="text_5">
      <!-- 0.6 -->
      <g transform="translate(69.259844 264.158334)scale(0.165 -0.165)">
       <defs>
        <path d="M 33.015625 40.375 
Q 26.375 40.375 22.484375 35.828125 
Q 18.609375 31.296875 18.609375 23.390625 
Q 18.609375 15.53125 22.484375 10.953125 
Q 26.375 6.390625 33.015625 6.390625 
Q 39.65625 6.390625 43.53125 10.953125 
Q 47.40625 15.53125 47.40625 23.390625 
Q 47.40625 31.296875 43.53125 35.828125 
Q 39.65625 40.375 33.015625 40.375 
z
M 52.59375 71.296875 
L 52.59375 62.3125 
Q 48.875 64.0625 45.09375 64.984375 
Q 41.3125 65.921875 37.59375 65.921875 
Q 27.828125 65.921875 22.671875 59.328125 
Q 17.53125 52.734375 16.796875 39.40625 
Q 19.671875 43.65625 24.015625 45.921875 
Q 28.375 48.1875 33.59375 48.1875 
Q 44.578125 48.1875 50.953125 41.515625 
Q 57.328125 34.859375 57.328125 23.390625 
Q 57.328125 12.15625 50.6875 5.359375 
Q 44.046875 -1.421875 33.015625 -1.421875 
Q 20.359375 -1.421875 13.671875 8.265625 
Q 6.984375 17.96875 6.984375 36.375 
Q 6.984375 53.65625 15.1875 63.9375 
Q 23.390625 74.21875 37.203125 74.21875 
Q 40.921875 74.21875 44.703125 73.484375 
Q 48.484375 72.75 52.59375 71.296875 
z
" id="DejaVuSans-54"/>
       </defs>
       <use xlink:href="#DejaVuSans-48"/>
       <use x="63.623047" xlink:href="#DejaVuSans-46"/>
       <use x="95.410156" xlink:href="#DejaVuSans-54"/>
      </g>
     </g>
    </g>
    <g id="ytick_3">
     <g id="line2d_5">
      <g>
       <use style="stroke:#000000;stroke-width:1.875;" x="108" xlink:href="#mc80d923cff" y="188.490645"/>
      </g>
     </g>
     <g id="text_6">
      <!-- 0.8 -->
      <g transform="translate(69.259844 194.759356)scale(0.165 -0.165)">
       <defs>
        <path d="M 31.78125 34.625 
Q 24.75 34.625 20.71875 30.859375 
Q 16.703125 27.09375 16.703125 20.515625 
Q 16.703125 13.921875 20.71875 10.15625 
Q 24.75 6.390625 31.78125 6.390625 
Q 38.8125 6.390625 42.859375 10.171875 
Q 46.921875 13.96875 46.921875 20.515625 
Q 46.921875 27.09375 42.890625 30.859375 
Q 38.875 34.625 31.78125 34.625 
z
M 21.921875 38.8125 
Q 15.578125 40.375 12.03125 44.71875 
Q 8.5 49.078125 8.5 55.328125 
Q 8.5 64.0625 14.71875 69.140625 
Q 20.953125 74.21875 31.78125 74.21875 
Q 42.671875 74.21875 48.875 69.140625 
Q 55.078125 64.0625 55.078125 55.328125 
Q 55.078125 49.078125 51.53125 44.71875 
Q 48 40.375 41.703125 38.8125 
Q 48.828125 37.15625 52.796875 32.3125 
Q 56.78125 27.484375 56.78125 20.515625 
Q 56.78125 9.90625 50.3125 4.234375 
Q 43.84375 -1.421875 31.78125 -1.421875 
Q 19.734375 -1.421875 13.25 4.234375 
Q 6.78125 9.90625 6.78125 20.515625 
Q 6.78125 27.484375 10.78125 32.3125 
Q 14.796875 37.15625 21.921875 38.8125 
z
M 18.3125 54.390625 
Q 18.3125 48.734375 21.84375 45.5625 
Q 25.390625 42.390625 31.78125 42.390625 
Q 38.140625 42.390625 41.71875 45.5625 
Q 45.3125 48.734375 45.3125 54.390625 
Q 45.3125 60.0625 41.71875 63.234375 
Q 38.140625 66.40625 31.78125 66.40625 
Q 25.390625 66.40625 21.84375 63.234375 
Q 18.3125 60.0625 18.3125 54.390625 
z
" id="DejaVuSans-56"/>
       </defs>
       <use xlink:href="#DejaVuSans-48"/>
       <use x="63.623047" xlink:href="#DejaVuSans-46"/>
       <use x="95.410156" xlink:href="#DejaVuSans-56"/>
      </g>
     </g>
    </g>
    <g id="ytick_4">
     <g id="line2d_6">
      <g>
       <use style="stroke:#000000;stroke-width:1.875;" x="108" xlink:href="#mc80d923cff" y="119.091666"/>
      </g>
     </g>
     <g id="text_7">
      <!-- 1.0 -->
      <g transform="translate(69.259844 125.360377)scale(0.165 -0.165)">
       <defs>
        <path d="M 12.40625 8.296875 
L 28.515625 8.296875 
L 28.515625 63.921875 
L 10.984375 60.40625 
L 10.984375 69.390625 
L 28.421875 72.90625 
L 38.28125 72.90625 
L 38.28125 8.296875 
L 54.390625 8.296875 
L 54.390625 0 
L 12.40625 0 
z
" id="DejaVuSans-49"/>
       </defs>
       <use xlink:href="#DejaVuSans-49"/>
       <use x="63.623047" xlink:href="#DejaVuSans-46"/>
       <use x="95.410156" xlink:href="#DejaVuSans-48"/>
      </g>
     </g>
    </g>
    <g id="text_8">
     <!-- prediction accuracy -->
     <g transform="translate(61.516406 303.537656)rotate(-90)scale(0.18 -0.18)">
      <defs>
       <path d="M 18.109375 8.203125 
L 18.109375 -20.796875 
L 9.078125 -20.796875 
L 9.078125 54.6875 
L 18.109375 54.6875 
L 18.109375 46.390625 
Q 20.953125 51.265625 25.265625 53.625 
Q 29.59375 56 35.59375 56 
Q 45.5625 56 51.78125 48.09375 
Q 58.015625 40.1875 58.015625 27.296875 
Q 58.015625 14.40625 51.78125 6.484375 
Q 45.5625 -1.421875 35.59375 -1.421875 
Q 29.59375 -1.421875 25.265625 0.953125 
Q 20.953125 3.328125 18.109375 8.203125 
z
M 48.6875 27.296875 
Q 48.6875 37.203125 44.609375 42.84375 
Q 40.53125 48.484375 33.40625 48.484375 
Q 26.265625 48.484375 22.1875 42.84375 
Q 18.109375 37.203125 18.109375 27.296875 
Q 18.109375 17.390625 22.1875 11.75 
Q 26.265625 6.109375 33.40625 6.109375 
Q 40.53125 6.109375 44.609375 11.75 
Q 48.6875 17.390625 48.6875 27.296875 
z
" id="DejaVuSans-112"/>
       <path id="DejaVuSans-32"/>
       <path d="M 8.5 21.578125 
L 8.5 54.6875 
L 17.484375 54.6875 
L 17.484375 21.921875 
Q 17.484375 14.15625 20.5 10.265625 
Q 23.53125 6.390625 29.59375 6.390625 
Q 36.859375 6.390625 41.078125 11.03125 
Q 45.3125 15.671875 45.3125 23.6875 
L 45.3125 54.6875 
L 54.296875 54.6875 
L 54.296875 0 
L 45.3125 0 
L 45.3125 8.40625 
Q 42.046875 3.421875 37.71875 1 
Q 33.40625 -1.421875 27.6875 -1.421875 
Q 18.265625 -1.421875 13.375 4.4375 
Q 8.5 10.296875 8.5 21.578125 
z
M 31.109375 56 
z
" id="DejaVuSans-117"/>
       <path d="M 32.171875 -5.078125 
Q 28.375 -14.84375 24.75 -17.8125 
Q 21.140625 -20.796875 15.09375 -20.796875 
L 7.90625 -20.796875 
L 7.90625 -13.28125 
L 13.1875 -13.28125 
Q 16.890625 -13.28125 18.9375 -11.515625 
Q 21 -9.765625 23.484375 -3.21875 
L 25.09375 0.875 
L 2.984375 54.6875 
L 12.5 54.6875 
L 29.59375 11.921875 
L 46.6875 54.6875 
L 56.203125 54.6875 
z
" id="DejaVuSans-121"/>
      </defs>
      <use xlink:href="#DejaVuSans-112"/>
      <use x="63.476562" xlink:href="#DejaVuSans-114"/>
      <use x="102.339844" xlink:href="#DejaVuSans-101"/>
      <use x="163.863281" xlink:href="#DejaVuSans-100"/>
      <use x="227.339844" xlink:href="#DejaVuSans-105"/>
      <use x="255.123047" xlink:href="#DejaVuSans-99"/>
      <use x="310.103516" xlink:href="#DejaVuSans-116"/>
      <use x="349.3125" xlink:href="#DejaVuSans-105"/>
      <use x="377.095703" xlink:href="#DejaVuSans-111"/>
      <use x="438.277344" xlink:href="#DejaVuSans-110"/>
      <use x="501.65625" xlink:href="#DejaVuSans-32"/>
      <use x="533.443359" xlink:href="#DejaVuSans-97"/>
      <use x="594.722656" xlink:href="#DejaVuSans-99"/>
      <use x="649.703125" xlink:href="#DejaVuSans-99"/>
      <use x="704.683594" xlink:href="#DejaVuSans-117"/>
      <use x="768.0625" xlink:href="#DejaVuSans-114"/>
      <use x="809.175781" xlink:href="#DejaVuSans-97"/>
      <use x="870.455078" xlink:href="#DejaVuSans-99"/>
      <use x="925.435547" xlink:href="#DejaVuSans-121"/>
     </g>
    </g>
   </g>
   <g id="line2d_7">
    <path clip-path="url(#p7a79fe8136)" d="M 275.4 125.842655 
L 275.4 125.808654 
" style="fill:none;stroke:#3f3f3f;stroke-linecap:square;stroke-width:2.25;"/>
   </g>
   <g id="line2d_8">
    <path clip-path="url(#p7a79fe8136)" d="M 275.4 125.830677 
L 275.4 125.82077 
" style="fill:none;stroke:#3f3f3f;stroke-linecap:square;stroke-width:6.75;"/>
   </g>
   <g id="line2d_9">
    <path clip-path="url(#p7a79fe8136)" d="M 610.2 304.025144 
L 610.2 125.814856 
" style="fill:none;stroke:#3f3f3f;stroke-linecap:square;stroke-width:2.25;"/>
   </g>
   <g id="line2d_10">
    <path clip-path="url(#p7a79fe8136)" d="M 610.2 293.760925 
L 610.2 125.836582 
" style="fill:none;stroke:#3f3f3f;stroke-linecap:square;stroke-width:6.75;"/>
   </g>
   <g id="patch_3">
    <path d="M 108 378 
L 108 51.84 
" style="fill:none;stroke:#000000;stroke-linecap:square;stroke-linejoin:miter;stroke-width:1.875;"/>
   </g>
   <g id="patch_4">
    <path d="M 777.6 378 
L 777.6 51.84 
" style="fill:none;stroke:#000000;stroke-linecap:square;stroke-linejoin:miter;stroke-width:1.875;"/>
   </g>
   <g id="patch_5">
    <path d="M 108 378 
L 777.6 378 
" style="fill:none;stroke:#000000;stroke-linecap:square;stroke-linejoin:miter;stroke-width:1.875;"/>
   </g>
   <g id="patch_6">
    <path d="M 108 51.84 
L 777.6 51.84 
" style="fill:none;stroke:#000000;stroke-linecap:square;stroke-linejoin:miter;stroke-width:1.875;"/>
   </g>
   <g id="PathCollection_1">
    <defs>
     <path d="M 0 2.25 
C 0.596707 2.25 1.169055 2.012926 1.59099 1.59099 
C 2.012926 1.169055 2.25 0.596707 2.25 0 
C 2.25 -0.596707 2.012926 -1.169055 1.59099 -1.59099 
C 1.169055 -2.012926 0.596707 -2.25 0 -2.25 
C -0.596707 -2.25 -1.169055 -2.012926 -1.59099 -1.59099 
C -2.012926 -1.169055 -2.25 -0.596707 -2.25 0 
C -2.25 0.596707 -2.012926 1.169055 -1.59099 1.59099 
C -1.169055 2.012926 -0.596707 2.25 0 2.25 
z
" id="m869eeb4b72" style="stroke:#3f3f3f;stroke-width:1.5;"/>
    </defs>
    <g clip-path="url(#p7a79fe8136)">
     <use style="fill:#ffffff;stroke:#3f3f3f;stroke-width:1.5;" x="275.4" xlink:href="#m869eeb4b72" y="125.824548"/>
    </g>
   </g>
   <g id="PathCollection_2">
    <g clip-path="url(#p7a79fe8136)">
     <use style="fill:#ffffff;stroke:#3f3f3f;stroke-width:1.5;" x="610.2" xlink:href="#m869eeb4b72" y="290.851418"/>
    </g>
   </g>
  </g>
 </g>
 <defs>
  <clipPath id="p7a79fe8136">
   <rect height="326.16" width="669.6" x="108" y="51.84"/>
  </clipPath>
 </defs>
</svg>
