<?xml version="1.0" encoding="utf-8" standalone="no"?>
<!DOCTYPE svg PUBLIC "-//W3C//DTD SVG 1.1//EN"
  "http://www.w3.org/Graphics/SVG/1.1/DTD/svg11.dtd">
<svg xmlns:xlink="http://www.w3.org/1999/xlink" width="864pt" height="432pt" viewBox="0 0 864 432" xmlns="http://www.w3.org/2000/svg" version="1.1">
 <metadata>
  <rdf:RDF xmlns:dc="http://purl.org/dc/elements/1.1/" xmlns:cc="http://creativecommons.org/ns#" xmlns:rdf="http://www.w3.org/1999/02/22-rdf-syntax-ns#">
   <cc:Work>
    <dc:type rdf:resource="http://purl.org/dc/dcmitype/StillImage"/>
    <dc:date>2023-05-03T14:20:21.084711</dc:date>
    <dc:format>image/svg+xml</dc:format>
    <dc:creator>
     <cc:Agent>
      <dc:title>Matplotlib v3.5.1, https://matplotlib.org/</dc:title>
     </cc:Agent>
    </dc:creator>
   </cc:Work>
  </rdf:RDF>
 </metadata>
 <defs>
  <style type="text/css">*{stroke-linejoin: round; stroke-linecap: butt}</style>
 </defs>
 <g id="figure_1">
  <g id="patch_1">
   <path d="M 0 432 
L 864 432 
L 864 0 
L 0 0 
L 0 432 
z
" style="fill: none"/>
  </g>
  <g id="axes_1">
   <g id="patch_2">
    <path d="M 108 378 
L 777.6 378 
L 777.6 51.84 
L 108 51.84 
z
" style="fill: #ffffff"/>
   </g>
   <g id="PolyCollection_1">
    <defs>
     <path id="m53cc6085ce" d="M 275.745905 -68.825455 
L 275.054095 -68.825455 
L 274.869397 -71.820496 
L 274.619404 -74.815537 
L 274.298287 -77.810579 
L 273.907755 -80.80562 
L 273.459647 -83.800661 
L 272.977156 -86.795702 
L 272.493984 -89.790744 
L 272.051052 -92.785785 
L 271.691081 -95.780826 
L 271.451941 -98.775868 
L 271.360195 -101.770909 
L 271.42631 -104.76595 
L 271.642728 -107.760992 
L 271.985261 -110.756033 
L 272.417477 -113.751074 
L 272.896981 -116.746116 
L 273.382137 -119.741157 
L 273.837772 -122.736198 
L 274.238844 -125.73124 
L 274.571688 -128.726281 
L 274.833073 -131.721322 
L 275.027771 -134.716364 
L 275.165497 -137.711405 
L 275.257968 -140.706446 
L 275.31659 -143.701488 
L 275.35093 -146.696529 
L 275.367899 -149.69157 
L 275.371431 -152.686612 
L 275.362398 -155.681653 
L 275.338596 -158.676694 
L 275.294771 -161.671736 
L 275.22275 -164.666777 
L 275.111916 -167.661818 
L 274.950225 -170.65686 
L 274.725939 -173.651901 
L 274.430009 -176.646942 
L 274.058764 -179.641983 
L 273.616258 -182.637025 
L 273.115457 -185.632066 
L 272.577522 -188.627107 
L 272.02886 -191.622149 
L 271.496267 -194.61719 
L 271.001229 -197.612231 
L 270.554985 -200.607273 
L 270.155976 -203.602314 
L 269.790744 -206.597355 
L 269.438265 -209.592397 
L 269.0764 -212.587438 
L 268.688248 -215.582479 
L 268.265915 -218.577521 
L 267.809975 -221.572562 
L 267.324309 -224.567603 
L 266.807652 -227.562645 
L 266.244396 -230.557686 
L 265.597468 -233.552727 
L 264.805317 -236.547769 
L 263.783547 -239.54281 
L 262.430097 -242.537851 
L 260.631716 -245.532893 
L 258.269434 -248.527934 
L 255.221691 -251.522975 
L 251.365655 -254.518017 
L 246.579242 -257.513058 
L 240.747668 -260.508099 
L 233.778174 -263.50314 
L 225.624474 -266.498182 
L 216.318774 -269.493223 
L 206.004925 -272.488264 
L 194.963159 -275.483306 
L 183.616404 -278.478347 
L 172.511269 -281.473388 
L 162.272871 -284.46843 
L 153.539762 -287.463471 
L 146.890901 -290.458512 
L 142.778681 -293.453554 
L 141.48 -296.448595 
L 143.072196 -299.443636 
L 147.434584 -302.438678 
L 154.271477 -305.433719 
L 163.150153 -308.42876 
L 173.547096 -311.423802 
L 184.896911 -314.418843 
L 196.639532 -317.413884 
L 208.262005 -320.408926 
L 219.331569 -323.403967 
L 229.517341 -326.399008 
L 238.599184 -329.39405 
L 246.46414 -332.389091 
L 253.092717 -335.384132 
L 258.538659 -338.379174 
L 262.90629 -341.374215 
L 266.329008 -344.369256 
L 268.951341 -347.364298 
L 270.915685 -350.359339 
L 272.353659 -353.35438 
L 273.381338 -356.349421 
L 274.097349 -359.344463 
L 274.582834 -362.339504 
L 274.902561 -365.334545 
L 275.897439 -365.334545 
L 275.897439 -365.334545 
L 276.217166 -362.339504 
L 276.702651 -359.344463 
L 277.418662 -356.349421 
L 278.446341 -353.35438 
L 279.884315 -350.359339 
L 281.848659 -347.364298 
L 284.470992 -344.369256 
L 287.89371 -341.374215 
L 292.261341 -338.379174 
L 297.707283 -335.384132 
L 304.33586 -332.389091 
L 312.200816 -329.39405 
L 321.282659 -326.399008 
L 331.468431 -323.403967 
L 342.537995 -320.408926 
L 354.160468 -317.413884 
L 365.903089 -314.418843 
L 377.252904 -311.423802 
L 387.649847 -308.42876 
L 396.528523 -305.433719 
L 403.365416 -302.438678 
L 407.727804 -299.443636 
L 409.32 -296.448595 
L 408.021319 -293.453554 
L 403.909099 -290.458512 
L 397.260238 -287.463471 
L 388.527129 -284.46843 
L 378.288731 -281.473388 
L 367.183596 -278.478347 
L 355.836841 -275.483306 
L 344.795075 -272.488264 
L 334.481226 -269.493223 
L 325.175526 -266.498182 
L 317.021826 -263.50314 
L 310.052332 -260.508099 
L 304.220758 -257.513058 
L 299.434345 -254.518017 
L 295.578309 -251.522975 
L 292.530566 -248.527934 
L 290.168284 -245.532893 
L 288.369903 -242.537851 
L 287.016453 -239.54281 
L 285.994683 -236.547769 
L 285.202532 -233.552727 
L 284.555604 -230.557686 
L 283.992348 -227.562645 
L 283.475691 -224.567603 
L 282.990025 -221.572562 
L 282.534085 -218.577521 
L 282.111752 -215.582479 
L 281.7236 -212.587438 
L 281.361735 -209.592397 
L 281.009256 -206.597355 
L 280.644024 -203.602314 
L 280.245015 -200.607273 
L 279.798771 -197.612231 
L 279.303733 -194.61719 
L 278.77114 -191.622149 
L 278.222478 -188.627107 
L 277.684543 -185.632066 
L 277.183742 -182.637025 
L 276.741236 -179.641983 
L 276.369991 -176.646942 
L 276.074061 -173.651901 
L 275.849775 -170.65686 
L 275.688084 -167.661818 
L 275.57725 -164.666777 
L 275.505229 -161.671736 
L 275.461404 -158.676694 
L 275.437602 -155.681653 
L 275.428569 -152.686612 
L 275.432101 -149.69157 
L 275.44907 -146.696529 
L 275.48341 -143.701488 
L 275.542032 -140.706446 
L 275.634503 -137.711405 
L 275.772229 -134.716364 
L 275.966927 -131.721322 
L 276.228312 -128.726281 
L 276.561156 -125.73124 
L 276.962228 -122.736198 
L 277.417863 -119.741157 
L 277.903019 -116.746116 
L 278.382523 -113.751074 
L 278.814739 -110.756033 
L 279.157272 -107.760992 
L 279.37369 -104.76595 
L 279.439805 -101.770909 
L 279.348059 -98.775868 
L 279.108919 -95.780826 
L 278.748948 -92.785785 
L 278.306016 -89.790744 
L 277.822844 -86.795702 
L 277.340353 -83.800661 
L 276.892245 -80.80562 
L 276.501713 -77.810579 
L 276.180596 -74.815537 
L 275.930603 -71.820496 
L 275.745905 -68.825455 
z
" style="stroke: #3f3f3f; stroke-width: 2.25"/>
    </defs>
    <g clip-path="url(#p3ca870cdd3)">
     <use xlink:href="#m53cc6085ce" x="0" y="432" style="fill: #3274a1; stroke: #3f3f3f; stroke-width: 2.25"/>
    </g>
   </g>
   <g id="PolyCollection_2">
    <defs>
     <path id="m86e0029e96" d="M 615.566546 -103.845108 
L 604.833454 -103.845108 
L 603.146126 -105.908315 
L 601.053044 -107.971523 
L 598.498414 -110.03473 
L 595.431526 -112.097938 
L 591.811208 -114.161145 
L 587.610752 -116.224353 
L 582.822977 -118.28756 
L 577.46503 -120.350768 
L 571.582419 -122.413975 
L 565.251775 -124.477183 
L 558.581858 -126.54039 
L 551.712408 -128.603598 
L 544.810589 -130.666805 
L 538.064985 -132.730013 
L 531.677343 -134.79322 
L 525.852483 -136.856428 
L 520.787054 -138.919635 
L 516.657952 -140.982843 
L 513.611335 -143.04605 
L 511.753168 -145.109258 
L 511.142133 -147.172465 
L 511.785538 -149.235673 
L 513.638612 -151.29888 
L 516.60726 -153.362088 
L 520.554037 -155.425295 
L 525.306802 -157.488503 
L 530.669329 -159.55171 
L 536.432958 -161.614918 
L 542.388374 -163.678125 
L 548.336616 -165.741333 
L 554.098572 -167.80454 
L 559.522398 -169.867748 
L 564.488509 -171.930955 
L 568.912051 -173.994163 
L 572.742945 -176.05737 
L 575.963782 -178.120578 
L 578.585972 -180.183785 
L 580.644629 -182.246993 
L 582.192693 -184.3102 
L 583.29478 -186.373408 
L 584.021198 -188.436615 
L 584.442494 -190.499823 
L 584.624818 -192.56303 
L 584.626295 -194.626238 
L 584.49451 -196.689445 
L 584.265141 -198.752653 
L 583.961681 -200.81586 
L 583.596151 -202.879068 
L 583.17065 -204.942275 
L 582.679548 -207.005483 
L 582.112116 -209.06869 
L 581.455374 -211.131898 
L 580.696944 -213.195105 
L 579.827708 -215.258313 
L 578.844103 -217.32152 
L 577.749903 -219.384728 
L 576.557397 -221.447935 
L 575.287888 -223.511143 
L 573.971499 -225.57435 
L 572.646291 -227.637558 
L 571.356776 -229.700765 
L 570.1519 -231.763973 
L 569.082631 -233.82718 
L 568.19931 -235.890388 
L 567.548943 -237.953595 
L 567.172597 -240.016803 
L 567.103101 -242.08001 
L 567.363178 -244.143218 
L 567.964173 -246.206425 
L 568.905423 -248.269633 
L 570.17433 -250.33284 
L 571.747116 -252.396048 
L 573.590176 -254.459255 
L 575.661937 -256.522463 
L 577.91506 -258.58567 
L 580.298834 -260.648878 
L 582.761574 -262.712085 
L 585.25289 -264.775293 
L 587.725668 -266.8385 
L 590.13769 -268.901708 
L 592.452806 -270.964915 
L 594.641664 -273.028123 
L 596.681988 -275.09133 
L 598.558476 -277.154538 
L 600.26236 -279.217745 
L 601.790727 -281.280953 
L 603.145675 -283.34416 
L 604.333386 -285.407367 
L 605.363181 -287.470575 
L 606.246618 -289.533782 
L 606.996679 -291.59699 
L 607.627051 -293.660197 
L 608.151544 -295.723405 
L 608.583626 -297.786612 
L 608.936071 -299.84982 
L 609.220722 -301.913027 
L 609.448343 -303.976235 
L 609.628541 -306.039442 
L 609.769751 -308.10265 
L 610.630249 -308.10265 
L 610.630249 -308.10265 
L 610.771459 -306.039442 
L 610.951657 -303.976235 
L 611.179278 -301.913027 
L 611.463929 -299.84982 
L 611.816374 -297.786612 
L 612.248456 -295.723405 
L 612.772949 -293.660197 
L 613.403321 -291.59699 
L 614.153382 -289.533782 
L 615.036819 -287.470575 
L 616.066614 -285.407367 
L 617.254325 -283.34416 
L 618.609273 -281.280953 
L 620.13764 -279.217745 
L 621.841524 -277.154538 
L 623.718012 -275.09133 
L 625.758336 -273.028123 
L 627.947194 -270.964915 
L 630.26231 -268.901708 
L 632.674332 -266.8385 
L 635.14711 -264.775293 
L 637.638426 -262.712085 
L 640.101166 -260.648878 
L 642.48494 -258.58567 
L 644.738063 -256.522463 
L 646.809824 -254.459255 
L 648.652884 -252.396048 
L 650.22567 -250.33284 
L 651.494577 -248.269633 
L 652.435827 -246.206425 
L 653.036822 -244.143218 
L 653.296899 -242.08001 
L 653.227403 -240.016803 
L 652.851057 -237.953595 
L 652.20069 -235.890388 
L 651.317369 -233.82718 
L 650.2481 -231.763973 
L 649.043224 -229.700765 
L 647.753709 -227.637558 
L 646.428501 -225.57435 
L 645.112112 -223.511143 
L 643.842603 -221.447935 
L 642.650097 -219.384728 
L 641.555897 -217.32152 
L 640.572292 -215.258313 
L 639.703056 -213.195105 
L 638.944626 -211.131898 
L 638.287884 -209.06869 
L 637.720452 -207.005483 
L 637.22935 -204.942275 
L 636.803849 -202.879068 
L 636.438319 -200.81586 
L 636.134859 -198.752653 
L 635.90549 -196.689445 
L 635.773705 -194.626238 
L 635.775182 -192.56303 
L 635.957506 -190.499823 
L 636.378802 -188.436615 
L 637.10522 -186.373408 
L 638.207307 -184.3102 
L 639.755371 -182.246993 
L 641.814028 -180.183785 
L 644.436218 -178.120578 
L 647.657055 -176.05737 
L 651.487949 -173.994163 
L 655.911491 -171.930955 
L 660.877602 -169.867748 
L 666.301428 -167.80454 
L 672.063384 -165.741333 
L 678.011626 -163.678125 
L 683.967042 -161.614918 
L 689.730671 -159.55171 
L 695.093198 -157.488503 
L 699.845963 -155.425295 
L 703.79274 -153.362088 
L 706.761388 -151.29888 
L 708.614462 -149.235673 
L 709.257867 -147.172465 
L 708.646832 -145.109258 
L 706.788665 -143.04605 
L 703.742048 -140.982843 
L 699.612946 -138.919635 
L 694.547517 -136.856428 
L 688.722657 -134.79322 
L 682.335015 -132.730013 
L 675.589411 -130.666805 
L 668.687592 -128.603598 
L 661.818142 -126.54039 
L 655.148225 -124.477183 
L 648.817581 -122.413975 
L 642.93497 -120.350768 
L 637.577023 -118.28756 
L 632.789248 -116.224353 
L 628.588792 -114.161145 
L 624.968474 -112.097938 
L 621.901586 -110.03473 
L 619.346956 -107.971523 
L 617.253874 -105.908315 
L 615.566546 -103.845108 
z
" style="stroke: #3f3f3f; stroke-width: 2.25"/>
    </defs>
    <g clip-path="url(#p3ca870cdd3)">
     <use xlink:href="#m86e0029e96" x="0" y="432" style="fill: #e1812c; stroke: #3f3f3f; stroke-width: 2.25"/>
    </g>
   </g>
   <g id="matplotlib.axis_1">
    <g id="xtick_1">
     <g id="line2d_1">
      <defs>
       <path id="m754bc685ef" d="M 0 0 
L 0 9 
" style="stroke: #000000; stroke-width: 1.875"/>
      </defs>
      <g>
       <use xlink:href="#m754bc685ef" x="275.4" y="378" style="stroke: #000000; stroke-width: 1.875"/>
      </g>
     </g>
     <g id="text_1">
      <!-- blocked -->
      <g transform="translate(243.494414 403.037422)scale(0.165 -0.165)">
       <defs>
        <path id="DejaVuSans-62" d="M 3116 1747 
Q 3116 2381 2855 2742 
Q 2594 3103 2138 3103 
Q 1681 3103 1420 2742 
Q 1159 2381 1159 1747 
Q 1159 1113 1420 752 
Q 1681 391 2138 391 
Q 2594 391 2855 752 
Q 3116 1113 3116 1747 
z
M 1159 2969 
Q 1341 3281 1617 3432 
Q 1894 3584 2278 3584 
Q 2916 3584 3314 3078 
Q 3713 2572 3713 1747 
Q 3713 922 3314 415 
Q 2916 -91 2278 -91 
Q 1894 -91 1617 61 
Q 1341 213 1159 525 
L 1159 0 
L 581 0 
L 581 4863 
L 1159 4863 
L 1159 2969 
z
" transform="scale(0.015625)"/>
        <path id="DejaVuSans-6c" d="M 603 4863 
L 1178 4863 
L 1178 0 
L 603 0 
L 603 4863 
z
" transform="scale(0.015625)"/>
        <path id="DejaVuSans-6f" d="M 1959 3097 
Q 1497 3097 1228 2736 
Q 959 2375 959 1747 
Q 959 1119 1226 758 
Q 1494 397 1959 397 
Q 2419 397 2687 759 
Q 2956 1122 2956 1747 
Q 2956 2369 2687 2733 
Q 2419 3097 1959 3097 
z
M 1959 3584 
Q 2709 3584 3137 3096 
Q 3566 2609 3566 1747 
Q 3566 888 3137 398 
Q 2709 -91 1959 -91 
Q 1206 -91 779 398 
Q 353 888 353 1747 
Q 353 2609 779 3096 
Q 1206 3584 1959 3584 
z
" transform="scale(0.015625)"/>
        <path id="DejaVuSans-63" d="M 3122 3366 
L 3122 2828 
Q 2878 2963 2633 3030 
Q 2388 3097 2138 3097 
Q 1578 3097 1268 2742 
Q 959 2388 959 1747 
Q 959 1106 1268 751 
Q 1578 397 2138 397 
Q 2388 397 2633 464 
Q 2878 531 3122 666 
L 3122 134 
Q 2881 22 2623 -34 
Q 2366 -91 2075 -91 
Q 1284 -91 818 406 
Q 353 903 353 1747 
Q 353 2603 823 3093 
Q 1294 3584 2113 3584 
Q 2378 3584 2631 3529 
Q 2884 3475 3122 3366 
z
" transform="scale(0.015625)"/>
        <path id="DejaVuSans-6b" d="M 581 4863 
L 1159 4863 
L 1159 1991 
L 2875 3500 
L 3609 3500 
L 1753 1863 
L 3688 0 
L 2938 0 
L 1159 1709 
L 1159 0 
L 581 0 
L 581 4863 
z
" transform="scale(0.015625)"/>
        <path id="DejaVuSans-65" d="M 3597 1894 
L 3597 1613 
L 953 1613 
Q 991 1019 1311 708 
Q 1631 397 2203 397 
Q 2534 397 2845 478 
Q 3156 559 3463 722 
L 3463 178 
Q 3153 47 2828 -22 
Q 2503 -91 2169 -91 
Q 1331 -91 842 396 
Q 353 884 353 1716 
Q 353 2575 817 3079 
Q 1281 3584 2069 3584 
Q 2775 3584 3186 3129 
Q 3597 2675 3597 1894 
z
M 3022 2063 
Q 3016 2534 2758 2815 
Q 2500 3097 2075 3097 
Q 1594 3097 1305 2825 
Q 1016 2553 972 2059 
L 3022 2063 
z
" transform="scale(0.015625)"/>
        <path id="DejaVuSans-64" d="M 2906 2969 
L 2906 4863 
L 3481 4863 
L 3481 0 
L 2906 0 
L 2906 525 
Q 2725 213 2448 61 
Q 2172 -91 1784 -91 
Q 1150 -91 751 415 
Q 353 922 353 1747 
Q 353 2572 751 3078 
Q 1150 3584 1784 3584 
Q 2172 3584 2448 3432 
Q 2725 3281 2906 2969 
z
M 947 1747 
Q 947 1113 1208 752 
Q 1469 391 1925 391 
Q 2381 391 2643 752 
Q 2906 1113 2906 1747 
Q 2906 2381 2643 2742 
Q 2381 3103 1925 3103 
Q 1469 3103 1208 2742 
Q 947 2381 947 1747 
z
" transform="scale(0.015625)"/>
       </defs>
       <use xlink:href="#DejaVuSans-62"/>
       <use xlink:href="#DejaVuSans-6c" x="63.476562"/>
       <use xlink:href="#DejaVuSans-6f" x="91.259766"/>
       <use xlink:href="#DejaVuSans-63" x="152.441406"/>
       <use xlink:href="#DejaVuSans-6b" x="207.421875"/>
       <use xlink:href="#DejaVuSans-65" x="261.707031"/>
       <use xlink:href="#DejaVuSans-64" x="323.230469"/>
      </g>
     </g>
    </g>
    <g id="xtick_2">
     <g id="line2d_2">
      <g>
       <use xlink:href="#m754bc685ef" x="610.2" y="378" style="stroke: #000000; stroke-width: 1.875"/>
      </g>
     </g>
     <g id="text_2">
      <!-- interleaved -->
      <g transform="translate(563.356758 403.037422)scale(0.165 -0.165)">
       <defs>
        <path id="DejaVuSans-69" d="M 603 3500 
L 1178 3500 
L 1178 0 
L 603 0 
L 603 3500 
z
M 603 4863 
L 1178 4863 
L 1178 4134 
L 603 4134 
L 603 4863 
z
" transform="scale(0.015625)"/>
        <path id="DejaVuSans-6e" d="M 3513 2113 
L 3513 0 
L 2938 0 
L 2938 2094 
Q 2938 2591 2744 2837 
Q 2550 3084 2163 3084 
Q 1697 3084 1428 2787 
Q 1159 2491 1159 1978 
L 1159 0 
L 581 0 
L 581 3500 
L 1159 3500 
L 1159 2956 
Q 1366 3272 1645 3428 
Q 1925 3584 2291 3584 
Q 2894 3584 3203 3211 
Q 3513 2838 3513 2113 
z
" transform="scale(0.015625)"/>
        <path id="DejaVuSans-74" d="M 1172 4494 
L 1172 3500 
L 2356 3500 
L 2356 3053 
L 1172 3053 
L 1172 1153 
Q 1172 725 1289 603 
Q 1406 481 1766 481 
L 2356 481 
L 2356 0 
L 1766 0 
Q 1100 0 847 248 
Q 594 497 594 1153 
L 594 3053 
L 172 3053 
L 172 3500 
L 594 3500 
L 594 4494 
L 1172 4494 
z
" transform="scale(0.015625)"/>
        <path id="DejaVuSans-72" d="M 2631 2963 
Q 2534 3019 2420 3045 
Q 2306 3072 2169 3072 
Q 1681 3072 1420 2755 
Q 1159 2438 1159 1844 
L 1159 0 
L 581 0 
L 581 3500 
L 1159 3500 
L 1159 2956 
Q 1341 3275 1631 3429 
Q 1922 3584 2338 3584 
Q 2397 3584 2469 3576 
Q 2541 3569 2628 3553 
L 2631 2963 
z
" transform="scale(0.015625)"/>
        <path id="DejaVuSans-61" d="M 2194 1759 
Q 1497 1759 1228 1600 
Q 959 1441 959 1056 
Q 959 750 1161 570 
Q 1363 391 1709 391 
Q 2188 391 2477 730 
Q 2766 1069 2766 1631 
L 2766 1759 
L 2194 1759 
z
M 3341 1997 
L 3341 0 
L 2766 0 
L 2766 531 
Q 2569 213 2275 61 
Q 1981 -91 1556 -91 
Q 1019 -91 701 211 
Q 384 513 384 1019 
Q 384 1609 779 1909 
Q 1175 2209 1959 2209 
L 2766 2209 
L 2766 2266 
Q 2766 2663 2505 2880 
Q 2244 3097 1772 3097 
Q 1472 3097 1187 3025 
Q 903 2953 641 2809 
L 641 3341 
Q 956 3463 1253 3523 
Q 1550 3584 1831 3584 
Q 2591 3584 2966 3190 
Q 3341 2797 3341 1997 
z
" transform="scale(0.015625)"/>
        <path id="DejaVuSans-76" d="M 191 3500 
L 800 3500 
L 1894 563 
L 2988 3500 
L 3597 3500 
L 2284 0 
L 1503 0 
L 191 3500 
z
" transform="scale(0.015625)"/>
       </defs>
       <use xlink:href="#DejaVuSans-69"/>
       <use xlink:href="#DejaVuSans-6e" x="27.783203"/>
       <use xlink:href="#DejaVuSans-74" x="91.162109"/>
       <use xlink:href="#DejaVuSans-65" x="130.371094"/>
       <use xlink:href="#DejaVuSans-72" x="191.894531"/>
       <use xlink:href="#DejaVuSans-6c" x="233.007812"/>
       <use xlink:href="#DejaVuSans-65" x="260.791016"/>
       <use xlink:href="#DejaVuSans-61" x="322.314453"/>
       <use xlink:href="#DejaVuSans-76" x="383.59375"/>
       <use xlink:href="#DejaVuSans-65" x="442.773438"/>
       <use xlink:href="#DejaVuSans-64" x="504.296875"/>
      </g>
     </g>
    </g>
    <g id="text_3">
     <!-- condition -->
     <g transform="translate(401.187656 424.146094)scale(0.18 -0.18)">
      <use xlink:href="#DejaVuSans-63"/>
      <use xlink:href="#DejaVuSans-6f" x="54.980469"/>
      <use xlink:href="#DejaVuSans-6e" x="116.162109"/>
      <use xlink:href="#DejaVuSans-64" x="179.541016"/>
      <use xlink:href="#DejaVuSans-69" x="243.017578"/>
      <use xlink:href="#DejaVuSans-74" x="270.800781"/>
      <use xlink:href="#DejaVuSans-69" x="310.009766"/>
      <use xlink:href="#DejaVuSans-6f" x="337.792969"/>
      <use xlink:href="#DejaVuSans-6e" x="398.974609"/>
     </g>
    </g>
   </g>
   <g id="matplotlib.axis_2">
    <g id="ytick_1">
     <g id="line2d_3">
      <defs>
       <path id="m91d614619d" d="M 0 0 
L -9 0 
" style="stroke: #000000; stroke-width: 1.875"/>
      </defs>
      <g>
       <use xlink:href="#m91d614619d" x="108" y="368.017914" style="stroke: #000000; stroke-width: 1.875"/>
      </g>
     </g>
     <g id="text_4">
      <!-- 0.3 -->
      <g transform="translate(69.259844 374.286625)scale(0.165 -0.165)">
       <defs>
        <path id="DejaVuSans-30" d="M 2034 4250 
Q 1547 4250 1301 3770 
Q 1056 3291 1056 2328 
Q 1056 1369 1301 889 
Q 1547 409 2034 409 
Q 2525 409 2770 889 
Q 3016 1369 3016 2328 
Q 3016 3291 2770 3770 
Q 2525 4250 2034 4250 
z
M 2034 4750 
Q 2819 4750 3233 4129 
Q 3647 3509 3647 2328 
Q 3647 1150 3233 529 
Q 2819 -91 2034 -91 
Q 1250 -91 836 529 
Q 422 1150 422 2328 
Q 422 3509 836 4129 
Q 1250 4750 2034 4750 
z
" transform="scale(0.015625)"/>
        <path id="DejaVuSans-2e" d="M 684 794 
L 1344 794 
L 1344 0 
L 684 0 
L 684 794 
z
" transform="scale(0.015625)"/>
        <path id="DejaVuSans-33" d="M 2597 2516 
Q 3050 2419 3304 2112 
Q 3559 1806 3559 1356 
Q 3559 666 3084 287 
Q 2609 -91 1734 -91 
Q 1441 -91 1130 -33 
Q 819 25 488 141 
L 488 750 
Q 750 597 1062 519 
Q 1375 441 1716 441 
Q 2309 441 2620 675 
Q 2931 909 2931 1356 
Q 2931 1769 2642 2001 
Q 2353 2234 1838 2234 
L 1294 2234 
L 1294 2753 
L 1863 2753 
Q 2328 2753 2575 2939 
Q 2822 3125 2822 3475 
Q 2822 3834 2567 4026 
Q 2313 4219 1838 4219 
Q 1578 4219 1281 4162 
Q 984 4106 628 3988 
L 628 4550 
Q 988 4650 1302 4700 
Q 1616 4750 1894 4750 
Q 2613 4750 3031 4423 
Q 3450 4097 3450 3541 
Q 3450 3153 3228 2886 
Q 3006 2619 2597 2516 
z
" transform="scale(0.015625)"/>
       </defs>
       <use xlink:href="#DejaVuSans-30"/>
       <use xlink:href="#DejaVuSans-2e" x="63.623047"/>
       <use xlink:href="#DejaVuSans-33" x="95.410156"/>
      </g>
     </g>
    </g>
    <g id="ytick_2">
     <g id="line2d_4">
      <g>
       <use xlink:href="#m91d614619d" x="108" y="326.488775" style="stroke: #000000; stroke-width: 1.875"/>
      </g>
     </g>
     <g id="text_5">
      <!-- 0.4 -->
      <g transform="translate(69.259844 332.757486)scale(0.165 -0.165)">
       <defs>
        <path id="DejaVuSans-34" d="M 2419 4116 
L 825 1625 
L 2419 1625 
L 2419 4116 
z
M 2253 4666 
L 3047 4666 
L 3047 1625 
L 3713 1625 
L 3713 1100 
L 3047 1100 
L 3047 0 
L 2419 0 
L 2419 1100 
L 313 1100 
L 313 1709 
L 2253 4666 
z
" transform="scale(0.015625)"/>
       </defs>
       <use xlink:href="#DejaVuSans-30"/>
       <use xlink:href="#DejaVuSans-2e" x="63.623047"/>
       <use xlink:href="#DejaVuSans-34" x="95.410156"/>
      </g>
     </g>
    </g>
    <g id="ytick_3">
     <g id="line2d_5">
      <g>
       <use xlink:href="#m91d614619d" x="108" y="284.959636" style="stroke: #000000; stroke-width: 1.875"/>
      </g>
     </g>
     <g id="text_6">
      <!-- 0.5 -->
      <g transform="translate(69.259844 291.228347)scale(0.165 -0.165)">
       <defs>
        <path id="DejaVuSans-35" d="M 691 4666 
L 3169 4666 
L 3169 4134 
L 1269 4134 
L 1269 2991 
Q 1406 3038 1543 3061 
Q 1681 3084 1819 3084 
Q 2600 3084 3056 2656 
Q 3513 2228 3513 1497 
Q 3513 744 3044 326 
Q 2575 -91 1722 -91 
Q 1428 -91 1123 -41 
Q 819 9 494 109 
L 494 744 
Q 775 591 1075 516 
Q 1375 441 1709 441 
Q 2250 441 2565 725 
Q 2881 1009 2881 1497 
Q 2881 1984 2565 2268 
Q 2250 2553 1709 2553 
Q 1456 2553 1204 2497 
Q 953 2441 691 2322 
L 691 4666 
z
" transform="scale(0.015625)"/>
       </defs>
       <use xlink:href="#DejaVuSans-30"/>
       <use xlink:href="#DejaVuSans-2e" x="63.623047"/>
       <use xlink:href="#DejaVuSans-35" x="95.410156"/>
      </g>
     </g>
    </g>
    <g id="ytick_4">
     <g id="line2d_6">
      <g>
       <use xlink:href="#m91d614619d" x="108" y="243.430498" style="stroke: #000000; stroke-width: 1.875"/>
      </g>
     </g>
     <g id="text_7">
      <!-- 0.6 -->
      <g transform="translate(69.259844 249.699209)scale(0.165 -0.165)">
       <defs>
        <path id="DejaVuSans-36" d="M 2113 2584 
Q 1688 2584 1439 2293 
Q 1191 2003 1191 1497 
Q 1191 994 1439 701 
Q 1688 409 2113 409 
Q 2538 409 2786 701 
Q 3034 994 3034 1497 
Q 3034 2003 2786 2293 
Q 2538 2584 2113 2584 
z
M 3366 4563 
L 3366 3988 
Q 3128 4100 2886 4159 
Q 2644 4219 2406 4219 
Q 1781 4219 1451 3797 
Q 1122 3375 1075 2522 
Q 1259 2794 1537 2939 
Q 1816 3084 2150 3084 
Q 2853 3084 3261 2657 
Q 3669 2231 3669 1497 
Q 3669 778 3244 343 
Q 2819 -91 2113 -91 
Q 1303 -91 875 529 
Q 447 1150 447 2328 
Q 447 3434 972 4092 
Q 1497 4750 2381 4750 
Q 2619 4750 2861 4703 
Q 3103 4656 3366 4563 
z
" transform="scale(0.015625)"/>
       </defs>
       <use xlink:href="#DejaVuSans-30"/>
       <use xlink:href="#DejaVuSans-2e" x="63.623047"/>
       <use xlink:href="#DejaVuSans-36" x="95.410156"/>
      </g>
     </g>
    </g>
    <g id="ytick_5">
     <g id="line2d_7">
      <g>
       <use xlink:href="#m91d614619d" x="108" y="201.901359" style="stroke: #000000; stroke-width: 1.875"/>
      </g>
     </g>
     <g id="text_8">
      <!-- 0.7 -->
      <g transform="translate(69.259844 208.17007)scale(0.165 -0.165)">
       <defs>
        <path id="DejaVuSans-37" d="M 525 4666 
L 3525 4666 
L 3525 4397 
L 1831 0 
L 1172 0 
L 2766 4134 
L 525 4134 
L 525 4666 
z
" transform="scale(0.015625)"/>
       </defs>
       <use xlink:href="#DejaVuSans-30"/>
       <use xlink:href="#DejaVuSans-2e" x="63.623047"/>
       <use xlink:href="#DejaVuSans-37" x="95.410156"/>
      </g>
     </g>
    </g>
    <g id="ytick_6">
     <g id="line2d_8">
      <g>
       <use xlink:href="#m91d614619d" x="108" y="160.37222" style="stroke: #000000; stroke-width: 1.875"/>
      </g>
     </g>
     <g id="text_9">
      <!-- 0.8 -->
      <g transform="translate(69.259844 166.640931)scale(0.165 -0.165)">
       <defs>
        <path id="DejaVuSans-38" d="M 2034 2216 
Q 1584 2216 1326 1975 
Q 1069 1734 1069 1313 
Q 1069 891 1326 650 
Q 1584 409 2034 409 
Q 2484 409 2743 651 
Q 3003 894 3003 1313 
Q 3003 1734 2745 1975 
Q 2488 2216 2034 2216 
z
M 1403 2484 
Q 997 2584 770 2862 
Q 544 3141 544 3541 
Q 544 4100 942 4425 
Q 1341 4750 2034 4750 
Q 2731 4750 3128 4425 
Q 3525 4100 3525 3541 
Q 3525 3141 3298 2862 
Q 3072 2584 2669 2484 
Q 3125 2378 3379 2068 
Q 3634 1759 3634 1313 
Q 3634 634 3220 271 
Q 2806 -91 2034 -91 
Q 1263 -91 848 271 
Q 434 634 434 1313 
Q 434 1759 690 2068 
Q 947 2378 1403 2484 
z
M 1172 3481 
Q 1172 3119 1398 2916 
Q 1625 2713 2034 2713 
Q 2441 2713 2670 2916 
Q 2900 3119 2900 3481 
Q 2900 3844 2670 4047 
Q 2441 4250 2034 4250 
Q 1625 4250 1398 4047 
Q 1172 3844 1172 3481 
z
" transform="scale(0.015625)"/>
       </defs>
       <use xlink:href="#DejaVuSans-30"/>
       <use xlink:href="#DejaVuSans-2e" x="63.623047"/>
       <use xlink:href="#DejaVuSans-38" x="95.410156"/>
      </g>
     </g>
    </g>
    <g id="ytick_7">
     <g id="line2d_9">
      <g>
       <use xlink:href="#m91d614619d" x="108" y="118.843081" style="stroke: #000000; stroke-width: 1.875"/>
      </g>
     </g>
     <g id="text_10">
      <!-- 0.9 -->
      <g transform="translate(69.259844 125.111792)scale(0.165 -0.165)">
       <defs>
        <path id="DejaVuSans-39" d="M 703 97 
L 703 672 
Q 941 559 1184 500 
Q 1428 441 1663 441 
Q 2288 441 2617 861 
Q 2947 1281 2994 2138 
Q 2813 1869 2534 1725 
Q 2256 1581 1919 1581 
Q 1219 1581 811 2004 
Q 403 2428 403 3163 
Q 403 3881 828 4315 
Q 1253 4750 1959 4750 
Q 2769 4750 3195 4129 
Q 3622 3509 3622 2328 
Q 3622 1225 3098 567 
Q 2575 -91 1691 -91 
Q 1453 -91 1209 -44 
Q 966 3 703 97 
z
M 1959 2075 
Q 2384 2075 2632 2365 
Q 2881 2656 2881 3163 
Q 2881 3666 2632 3958 
Q 2384 4250 1959 4250 
Q 1534 4250 1286 3958 
Q 1038 3666 1038 3163 
Q 1038 2656 1286 2365 
Q 1534 2075 1959 2075 
z
" transform="scale(0.015625)"/>
       </defs>
       <use xlink:href="#DejaVuSans-30"/>
       <use xlink:href="#DejaVuSans-2e" x="63.623047"/>
       <use xlink:href="#DejaVuSans-39" x="95.410156"/>
      </g>
     </g>
    </g>
    <g id="ytick_8">
     <g id="line2d_10">
      <g>
       <use xlink:href="#m91d614619d" x="108" y="77.313943" style="stroke: #000000; stroke-width: 1.875"/>
      </g>
     </g>
     <g id="text_11">
      <!-- 1.0 -->
      <g transform="translate(69.259844 83.582654)scale(0.165 -0.165)">
       <defs>
        <path id="DejaVuSans-31" d="M 794 531 
L 1825 531 
L 1825 4091 
L 703 3866 
L 703 4441 
L 1819 4666 
L 2450 4666 
L 2450 531 
L 3481 531 
L 3481 0 
L 794 0 
L 794 531 
z
" transform="scale(0.015625)"/>
       </defs>
       <use xlink:href="#DejaVuSans-31"/>
       <use xlink:href="#DejaVuSans-2e" x="63.623047"/>
       <use xlink:href="#DejaVuSans-30" x="95.410156"/>
      </g>
     </g>
    </g>
    <g id="text_12">
     <!-- prediction accuracy -->
     <g transform="translate(61.516406 303.537656)rotate(-90)scale(0.18 -0.18)">
      <defs>
       <path id="DejaVuSans-70" d="M 1159 525 
L 1159 -1331 
L 581 -1331 
L 581 3500 
L 1159 3500 
L 1159 2969 
Q 1341 3281 1617 3432 
Q 1894 3584 2278 3584 
Q 2916 3584 3314 3078 
Q 3713 2572 3713 1747 
Q 3713 922 3314 415 
Q 2916 -91 2278 -91 
Q 1894 -91 1617 61 
Q 1341 213 1159 525 
z
M 3116 1747 
Q 3116 2381 2855 2742 
Q 2594 3103 2138 3103 
Q 1681 3103 1420 2742 
Q 1159 2381 1159 1747 
Q 1159 1113 1420 752 
Q 1681 391 2138 391 
Q 2594 391 2855 752 
Q 3116 1113 3116 1747 
z
" transform="scale(0.015625)"/>
       <path id="DejaVuSans-20" transform="scale(0.015625)"/>
       <path id="DejaVuSans-75" d="M 544 1381 
L 544 3500 
L 1119 3500 
L 1119 1403 
Q 1119 906 1312 657 
Q 1506 409 1894 409 
Q 2359 409 2629 706 
Q 2900 1003 2900 1516 
L 2900 3500 
L 3475 3500 
L 3475 0 
L 2900 0 
L 2900 538 
Q 2691 219 2414 64 
Q 2138 -91 1772 -91 
Q 1169 -91 856 284 
Q 544 659 544 1381 
z
M 1991 3584 
L 1991 3584 
z
" transform="scale(0.015625)"/>
       <path id="DejaVuSans-79" d="M 2059 -325 
Q 1816 -950 1584 -1140 
Q 1353 -1331 966 -1331 
L 506 -1331 
L 506 -850 
L 844 -850 
Q 1081 -850 1212 -737 
Q 1344 -625 1503 -206 
L 1606 56 
L 191 3500 
L 800 3500 
L 1894 763 
L 2988 3500 
L 3597 3500 
L 2059 -325 
z
" transform="scale(0.015625)"/>
      </defs>
      <use xlink:href="#DejaVuSans-70"/>
      <use xlink:href="#DejaVuSans-72" x="63.476562"/>
      <use xlink:href="#DejaVuSans-65" x="102.339844"/>
      <use xlink:href="#DejaVuSans-64" x="163.863281"/>
      <use xlink:href="#DejaVuSans-69" x="227.339844"/>
      <use xlink:href="#DejaVuSans-63" x="255.123047"/>
      <use xlink:href="#DejaVuSans-74" x="310.103516"/>
      <use xlink:href="#DejaVuSans-69" x="349.3125"/>
      <use xlink:href="#DejaVuSans-6f" x="377.095703"/>
      <use xlink:href="#DejaVuSans-6e" x="438.277344"/>
      <use xlink:href="#DejaVuSans-20" x="501.65625"/>
      <use xlink:href="#DejaVuSans-61" x="533.443359"/>
      <use xlink:href="#DejaVuSans-63" x="594.722656"/>
      <use xlink:href="#DejaVuSans-63" x="649.703125"/>
      <use xlink:href="#DejaVuSans-75" x="704.683594"/>
      <use xlink:href="#DejaVuSans-72" x="768.0625"/>
      <use xlink:href="#DejaVuSans-61" x="809.175781"/>
      <use xlink:href="#DejaVuSans-63" x="870.455078"/>
      <use xlink:href="#DejaVuSans-79" x="925.435547"/>
     </g>
    </g>
   </g>
   <g id="line2d_11">
    <path d="M 275.4 184.903848 
L 275.4 94.8545 
" clip-path="url(#p3ca870cdd3)" style="fill: none; stroke: #3f3f3f; stroke-width: 2.25; stroke-linecap: square"/>
   </g>
   <g id="line2d_12">
    <path d="M 275.4 149.885671 
L 275.4 124.875658 
" clip-path="url(#p3ca870cdd3)" style="fill: none; stroke: #3f3f3f; stroke-width: 6.75; stroke-linecap: square"/>
   </g>
   <g id="line2d_13">
    <path d="M 610.2 293.245448 
L 610.2 158.806794 
" clip-path="url(#p3ca870cdd3)" style="fill: none; stroke: #3f3f3f; stroke-width: 2.25; stroke-linecap: square"/>
   </g>
   <g id="line2d_14">
    <path d="M 610.2 286.420816 
L 610.2 204.669063 
" clip-path="url(#p3ca870cdd3)" style="fill: none; stroke: #3f3f3f; stroke-width: 6.75; stroke-linecap: square"/>
   </g>
   <g id="patch_3">
    <path d="M 108 378 
L 108 51.84 
" style="fill: none; stroke: #000000; stroke-width: 1.875; stroke-linejoin: miter; stroke-linecap: square"/>
   </g>
   <g id="patch_4">
    <path d="M 777.6 378 
L 777.6 51.84 
" style="fill: none; stroke: #000000; stroke-width: 1.875; stroke-linejoin: miter; stroke-linecap: square"/>
   </g>
   <g id="patch_5">
    <path d="M 108 378 
L 777.6 378 
" style="fill: none; stroke: #000000; stroke-width: 1.875; stroke-linejoin: miter; stroke-linecap: square"/>
   </g>
   <g id="patch_6">
    <path d="M 108 51.84 
L 777.6 51.84 
" style="fill: none; stroke: #000000; stroke-width: 1.875; stroke-linejoin: miter; stroke-linecap: square"/>
   </g>
   <g id="PathCollection_1">
    <defs>
     <path id="mb7228d8204" d="M 0 2.25 
C 0.596707 2.25 1.169055 2.012926 1.59099 1.59099 
C 2.012926 1.169055 2.25 0.596707 2.25 0 
C 2.25 -0.596707 2.012926 -1.169055 1.59099 -1.59099 
C 1.169055 -2.012926 0.596707 -2.25 0 -2.25 
C -0.596707 -2.25 -1.169055 -2.012926 -1.59099 -1.59099 
C -2.012926 -1.169055 -2.25 -0.596707 -2.25 0 
C -2.25 0.596707 -2.012926 1.169055 -1.59099 1.59099 
C -1.169055 2.012926 -0.596707 2.25 0 2.25 
z
" style="stroke: #3f3f3f; stroke-width: 1.5"/>
    </defs>
    <g clip-path="url(#p3ca870cdd3)">
     <use xlink:href="#mb7228d8204" x="275.4" y="139.879841" style="fill: #ffffff; stroke: #3f3f3f; stroke-width: 1.5"/>
    </g>
   </g>
   <g id="PathCollection_2">
    <g clip-path="url(#p3ca870cdd3)">
     <use xlink:href="#mb7228d8204" x="610.2" y="281.190132" style="fill: #ffffff; stroke: #3f3f3f; stroke-width: 1.5"/>
    </g>
   </g>
  </g>
 </g>
 <defs>
  <clipPath id="p3ca870cdd3">
   <rect x="108" y="51.84" width="669.6" height="326.16"/>
  </clipPath>
 </defs>
</svg>
