<?xml version="1.0" encoding="utf-8" standalone="no"?>
<!DOCTYPE svg PUBLIC "-//W3C//DTD SVG 1.1//EN"
  "http://www.w3.org/Graphics/SVG/1.1/DTD/svg11.dtd">
<svg xmlns:xlink="http://www.w3.org/1999/xlink" width="864pt" height="432pt" viewBox="0 0 864 432" xmlns="http://www.w3.org/2000/svg" version="1.1">
 <metadata>
  <rdf:RDF xmlns:dc="http://purl.org/dc/elements/1.1/" xmlns:cc="http://creativecommons.org/ns#" xmlns:rdf="http://www.w3.org/1999/02/22-rdf-syntax-ns#">
   <cc:Work>
    <dc:type rdf:resource="http://purl.org/dc/dcmitype/StillImage"/>
    <dc:date>2023-05-03T14:22:06.849583</dc:date>
    <dc:format>image/svg+xml</dc:format>
    <dc:creator>
     <cc:Agent>
      <dc:title>Matplotlib v3.5.1, https://matplotlib.org/</dc:title>
     </cc:Agent>
    </dc:creator>
   </cc:Work>
  </rdf:RDF>
 </metadata>
 <defs>
  <style type="text/css">*{stroke-linejoin: round; stroke-linecap: butt}</style>
 </defs>
 <g id="figure_1">
  <g id="patch_1">
   <path d="M 0 432 
L 864 432 
L 864 0 
L 0 0 
L 0 432 
z
" style="fill: none"/>
  </g>
  <g id="axes_1">
   <g id="patch_2">
    <path d="M 108 378 
L 777.6 378 
L 777.6 51.84 
L 108 51.84 
z
" style="fill: #ffffff"/>
   </g>
   <g id="PolyCollection_1">
    <defs>
     <path id="m53fcbe2913" d="M 275.687165 -92.986445 
L 275.112835 -92.986445 
L 275.005545 -95.737436 
L 274.868498 -98.488427 
L 274.697316 -101.239418 
L 274.488251 -103.990409 
L 274.238631 -106.7414 
L 273.947311 -109.492391 
L 273.615079 -112.243382 
L 273.244965 -114.994372 
L 272.842385 -117.745363 
L 272.415108 -120.496354 
L 271.973002 -123.247345 
L 271.527585 -125.998336 
L 271.091406 -128.749327 
L 270.677329 -131.500318 
L 270.297791 -134.251309 
L 269.964113 -137.0023 
L 269.685944 -139.753291 
L 269.470879 -142.504282 
L 269.324262 -145.255272 
L 269.249172 -148.006263 
L 269.246519 -150.757254 
L 269.31521 -153.508245 
L 269.452305 -156.259236 
L 269.653119 -159.010227 
L 269.911255 -161.761218 
L 270.218561 -164.512209 
L 270.565062 -167.2632 
L 270.938906 -170.014191 
L 271.326379 -172.765182 
L 271.712031 -175.516172 
L 272.07892 -178.267163 
L 272.408985 -181.018154 
L 272.683515 -183.769145 
L 272.883692 -186.520136 
L 272.991196 -189.271127 
L 272.988852 -192.022118 
L 272.86135 -194.773109 
L 272.596036 -197.5241 
L 272.183807 -200.275091 
L 271.620095 -203.026082 
L 270.905905 -205.777073 
L 270.04883 -208.528063 
L 269.063897 -211.279054 
L 267.974106 -214.030045 
L 266.810471 -216.781036 
L 265.611422 -219.532027 
L 264.421459 -222.283018 
L 263.289048 -225.034009 
L 262.263844 -227.785 
L 261.39344 -230.535991 
L 260.719932 -233.286982 
L 260.276662 -236.037973 
L 260.085514 -238.788963 
L 260.155069 -241.539954 
L 260.47985 -244.290945 
L 261.040725 -247.041936 
L 261.806354 -249.792927 
L 262.735431 -252.543918 
L 263.779301 -255.294909 
L 264.884489 -258.0459 
L 265.994647 -260.796891 
L 267.051515 -263.547882 
L 267.994609 -266.298873 
L 268.759549 -269.049864 
L 269.275202 -271.800854 
L 269.460044 -274.551845 
L 269.21845 -277.302836 
L 268.43787 -280.053827 
L 266.988011 -282.804818 
L 264.723247 -285.555809 
L 261.489324 -288.3068 
L 257.135102 -291.057791 
L 251.529418 -293.808782 
L 244.582268 -296.559773 
L 236.268479 -299.310764 
L 226.65096 -302.061754 
L 215.899854 -304.812745 
L 204.303524 -307.563736 
L 192.267749 -310.314727 
L 180.300565 -313.065718 
L 168.982148 -315.816709 
L 158.921448 -318.5677 
L 150.703727 -321.318691 
L 144.835159 -324.069682 
L 141.691787 -326.820673 
L 141.48 -329.571664 
L 144.214375 -332.322655 
L 149.716196 -335.073645 
L 157.632909 -337.824636 
L 167.475577 -340.575627 
L 178.668829 -343.326618 
L 190.606231 -346.077609 
L 202.703729 -348.8286 
L 214.44477 -351.579591 
L 225.412612 -354.330582 
L 235.307742 -357.081573 
L 243.950685 -359.832564 
L 251.272493 -362.583555 
L 257.296427 -365.334545 
L 293.503573 -365.334545 
L 293.503573 -365.334545 
L 299.527507 -362.583555 
L 306.849315 -359.832564 
L 315.492258 -357.081573 
L 325.387388 -354.330582 
L 336.35523 -351.579591 
L 348.096271 -348.8286 
L 360.193769 -346.077609 
L 372.131171 -343.326618 
L 383.324423 -340.575627 
L 393.167091 -337.824636 
L 401.083804 -335.073645 
L 406.585625 -332.322655 
L 409.32 -329.571664 
L 409.108213 -326.820673 
L 405.964841 -324.069682 
L 400.096273 -321.318691 
L 391.878552 -318.5677 
L 381.817852 -315.816709 
L 370.499435 -313.065718 
L 358.532251 -310.314727 
L 346.496476 -307.563736 
L 334.900146 -304.812745 
L 324.14904 -302.061754 
L 314.531521 -299.310764 
L 306.217732 -296.559773 
L 299.270582 -293.808782 
L 293.664898 -291.057791 
L 289.310676 -288.3068 
L 286.076753 -285.555809 
L 283.811989 -282.804818 
L 282.36213 -280.053827 
L 281.58155 -277.302836 
L 281.339956 -274.551845 
L 281.524798 -271.800854 
L 282.040451 -269.049864 
L 282.805391 -266.298873 
L 283.748485 -263.547882 
L 284.805353 -260.796891 
L 285.915511 -258.0459 
L 287.020699 -255.294909 
L 288.064569 -252.543918 
L 288.993646 -249.792927 
L 289.759275 -247.041936 
L 290.32015 -244.290945 
L 290.644931 -241.539954 
L 290.714486 -238.788963 
L 290.523338 -236.037973 
L 290.080068 -233.286982 
L 289.40656 -230.535991 
L 288.536156 -227.785 
L 287.510952 -225.034009 
L 286.378541 -222.283018 
L 285.188578 -219.532027 
L 283.989529 -216.781036 
L 282.825894 -214.030045 
L 281.736103 -211.279054 
L 280.75117 -208.528063 
L 279.894095 -205.777073 
L 279.179905 -203.026082 
L 278.616193 -200.275091 
L 278.203964 -197.5241 
L 277.93865 -194.773109 
L 277.811148 -192.022118 
L 277.808804 -189.271127 
L 277.916308 -186.520136 
L 278.116485 -183.769145 
L 278.391015 -181.018154 
L 278.72108 -178.267163 
L 279.087969 -175.516172 
L 279.473621 -172.765182 
L 279.861094 -170.014191 
L 280.234938 -167.2632 
L 280.581439 -164.512209 
L 280.888745 -161.761218 
L 281.146881 -159.010227 
L 281.347695 -156.259236 
L 281.48479 -153.508245 
L 281.553481 -150.757254 
L 281.550828 -148.006263 
L 281.475738 -145.255272 
L 281.329121 -142.504282 
L 281.114056 -139.753291 
L 280.835887 -137.0023 
L 280.502209 -134.251309 
L 280.122671 -131.500318 
L 279.708594 -128.749327 
L 279.272415 -125.998336 
L 278.826998 -123.247345 
L 278.384892 -120.496354 
L 277.957615 -117.745363 
L 277.555035 -114.994372 
L 277.184921 -112.243382 
L 276.852689 -109.492391 
L 276.561369 -106.7414 
L 276.311749 -103.990409 
L 276.102684 -101.239418 
L 275.931502 -98.488427 
L 275.794455 -95.737436 
L 275.687165 -92.986445 
z
" style="stroke: #3f3f3f; stroke-width: 2.25"/>
    </defs>
    <g clip-path="url(#p332f77f753)">
     <use xlink:href="#m53fcbe2913" x="0" y="432" style="fill: #3274a1; stroke: #3f3f3f; stroke-width: 2.25"/>
    </g>
   </g>
   <g id="PolyCollection_2">
    <defs>
     <path id="mccbc2862f7" d="M 610.717465 -68.825455 
L 609.682535 -68.825455 
L 609.52141 -71.268265 
L 609.321675 -73.711075 
L 609.077185 -76.153885 
L 608.781288 -78.596695 
L 608.426677 -81.039505 
L 608.005142 -83.482315 
L 607.507202 -85.925125 
L 606.921637 -88.367935 
L 606.234961 -90.810745 
L 605.43092 -93.253555 
L 604.490121 -95.696365 
L 603.389949 -98.139175 
L 602.104917 -100.581985 
L 600.607618 -103.024795 
L 598.870372 -105.467605 
L 596.867627 -107.910415 
L 594.57906 -110.353225 
L 591.9932 -112.796036 
L 589.111294 -115.238846 
L 585.950987 -117.681656 
L 582.549369 -120.124466 
L 578.964845 -122.567276 
L 575.277418 -125.010086 
L 571.587008 -127.452896 
L 568.009693 -129.895706 
L 564.671927 -132.338516 
L 561.703113 -134.781326 
L 559.227073 -137.224136 
L 557.353195 -139.666946 
L 556.168108 -142.109756 
L 555.728725 -144.552566 
L 556.057377 -146.995376 
L 557.139558 -149.438186 
L 558.924495 -151.880996 
L 561.328459 -154.323806 
L 564.240438 -156.766616 
L 567.529544 -159.209427 
L 571.053383 -161.652237 
L 574.66657 -164.095047 
L 578.228608 -166.537857 
L 581.610516 -168.980667 
L 584.699772 -171.423477 
L 587.403386 -173.866287 
L 589.649118 -176.309097 
L 591.385081 -178.751907 
L 592.578074 -181.194717 
L 593.211089 -183.637527 
L 593.280444 -186.080337 
L 592.792975 -188.523147 
L 591.763606 -190.965957 
L 590.213572 -193.408767 
L 588.169396 -195.851577 
L 585.66267 -198.294387 
L 582.730529 -200.737197 
L 579.416672 -203.180008 
L 575.772674 -205.622818 
L 571.85931 -208.065628 
L 567.747597 -210.508438 
L 563.519254 -212.951248 
L 559.266335 -215.394058 
L 555.089873 -217.836868 
L 551.097434 -220.279678 
L 547.399646 -222.722488 
L 544.105848 -225.165298 
L 541.319148 -227.608108 
L 539.131254 -230.050918 
L 537.617517 -232.493728 
L 536.83261 -234.936538 
L 536.807271 -237.379348 
L 537.546398 -239.822158 
L 539.028704 -242.264968 
L 541.207976 -244.707778 
L 544.015824 -247.150588 
L 547.365685 -249.593399 
L 551.157722 -252.036209 
L 555.284211 -254.479019 
L 559.634977 -256.921829 
L 564.102493 -259.364639 
L 568.586288 -261.807449 
L 572.996452 -264.250259 
L 577.256099 -266.693069 
L 581.302763 -269.135879 
L 585.088812 -271.578689 
L 588.581017 -274.021499 
L 591.759453 -276.464309 
L 594.615947 -278.907119 
L 597.152261 -281.349929 
L 599.37818 -283.792739 
L 601.309641 -286.235549 
L 602.967002 -288.678359 
L 604.373508 -291.121169 
L 605.553982 -293.56398 
L 606.533748 -296.00679 
L 607.33777 -298.4496 
L 607.989994 -300.89241 
L 608.512862 -303.33522 
L 608.926981 -305.77803 
L 609.250912 -308.22084 
L 609.501081 -310.66365 
L 610.898919 -310.66365 
L 610.898919 -310.66365 
L 611.149088 -308.22084 
L 611.473019 -305.77803 
L 611.887138 -303.33522 
L 612.410006 -300.89241 
L 613.06223 -298.4496 
L 613.866252 -296.00679 
L 614.846018 -293.56398 
L 616.026492 -291.121169 
L 617.432998 -288.678359 
L 619.090359 -286.235549 
L 621.02182 -283.792739 
L 623.247739 -281.349929 
L 625.784053 -278.907119 
L 628.640547 -276.464309 
L 631.818983 -274.021499 
L 635.311188 -271.578689 
L 639.097237 -269.135879 
L 643.143901 -266.693069 
L 647.403548 -264.250259 
L 651.813712 -261.807449 
L 656.297507 -259.364639 
L 660.765023 -256.921829 
L 665.115789 -254.479019 
L 669.242278 -252.036209 
L 673.034315 -249.593399 
L 676.384176 -247.150588 
L 679.192024 -244.707778 
L 681.371296 -242.264968 
L 682.853602 -239.822158 
L 683.592729 -237.379348 
L 683.56739 -234.936538 
L 682.782483 -232.493728 
L 681.268746 -230.050918 
L 679.080852 -227.608108 
L 676.294152 -225.165298 
L 673.000354 -222.722488 
L 669.302566 -220.279678 
L 665.310127 -217.836868 
L 661.133665 -215.394058 
L 656.880746 -212.951248 
L 652.652403 -210.508438 
L 648.54069 -208.065628 
L 644.627326 -205.622818 
L 640.983328 -203.180008 
L 637.669471 -200.737197 
L 634.73733 -198.294387 
L 632.230604 -195.851577 
L 630.186428 -193.408767 
L 628.636394 -190.965957 
L 627.607025 -188.523147 
L 627.119556 -186.080337 
L 627.188911 -183.637527 
L 627.821926 -181.194717 
L 629.014919 -178.751907 
L 630.750882 -176.309097 
L 632.996614 -173.866287 
L 635.700228 -171.423477 
L 638.789484 -168.980667 
L 642.171392 -166.537857 
L 645.73343 -164.095047 
L 649.346617 -161.652237 
L 652.870456 -159.209427 
L 656.159562 -156.766616 
L 659.071541 -154.323806 
L 661.475505 -151.880996 
L 663.260442 -149.438186 
L 664.342623 -146.995376 
L 664.671275 -144.552566 
L 664.231892 -142.109756 
L 663.046805 -139.666946 
L 661.172927 -137.224136 
L 658.696887 -134.781326 
L 655.728073 -132.338516 
L 652.390307 -129.895706 
L 648.812992 -127.452896 
L 645.122582 -125.010086 
L 641.435155 -122.567276 
L 637.850631 -120.124466 
L 634.449013 -117.681656 
L 631.288706 -115.238846 
L 628.4068 -112.796036 
L 625.82094 -110.353225 
L 623.532373 -107.910415 
L 621.529628 -105.467605 
L 619.792382 -103.024795 
L 618.295083 -100.581985 
L 617.010051 -98.139175 
L 615.909879 -95.696365 
L 614.96908 -93.253555 
L 614.165039 -90.810745 
L 613.478363 -88.367935 
L 612.892798 -85.925125 
L 612.394858 -83.482315 
L 611.973323 -81.039505 
L 611.618712 -78.596695 
L 611.322815 -76.153885 
L 611.078325 -73.711075 
L 610.87859 -71.268265 
L 610.717465 -68.825455 
z
" style="stroke: #3f3f3f; stroke-width: 2.25"/>
    </defs>
    <g clip-path="url(#p332f77f753)">
     <use xlink:href="#mccbc2862f7" x="0" y="432" style="fill: #e1812c; stroke: #3f3f3f; stroke-width: 2.25"/>
    </g>
   </g>
   <g id="matplotlib.axis_1">
    <g id="xtick_1">
     <g id="line2d_1">
      <defs>
       <path id="m0f3d2b578f" d="M 0 0 
L 0 9 
" style="stroke: #000000; stroke-width: 1.875"/>
      </defs>
      <g>
       <use xlink:href="#m0f3d2b578f" x="275.4" y="378" style="stroke: #000000; stroke-width: 1.875"/>
      </g>
     </g>
     <g id="text_1">
      <!-- blocked -->
      <g transform="translate(243.494414 403.037422)scale(0.165 -0.165)">
       <defs>
        <path id="DejaVuSans-62" d="M 3116 1747 
Q 3116 2381 2855 2742 
Q 2594 3103 2138 3103 
Q 1681 3103 1420 2742 
Q 1159 2381 1159 1747 
Q 1159 1113 1420 752 
Q 1681 391 2138 391 
Q 2594 391 2855 752 
Q 3116 1113 3116 1747 
z
M 1159 2969 
Q 1341 3281 1617 3432 
Q 1894 3584 2278 3584 
Q 2916 3584 3314 3078 
Q 3713 2572 3713 1747 
Q 3713 922 3314 415 
Q 2916 -91 2278 -91 
Q 1894 -91 1617 61 
Q 1341 213 1159 525 
L 1159 0 
L 581 0 
L 581 4863 
L 1159 4863 
L 1159 2969 
z
" transform="scale(0.015625)"/>
        <path id="DejaVuSans-6c" d="M 603 4863 
L 1178 4863 
L 1178 0 
L 603 0 
L 603 4863 
z
" transform="scale(0.015625)"/>
        <path id="DejaVuSans-6f" d="M 1959 3097 
Q 1497 3097 1228 2736 
Q 959 2375 959 1747 
Q 959 1119 1226 758 
Q 1494 397 1959 397 
Q 2419 397 2687 759 
Q 2956 1122 2956 1747 
Q 2956 2369 2687 2733 
Q 2419 3097 1959 3097 
z
M 1959 3584 
Q 2709 3584 3137 3096 
Q 3566 2609 3566 1747 
Q 3566 888 3137 398 
Q 2709 -91 1959 -91 
Q 1206 -91 779 398 
Q 353 888 353 1747 
Q 353 2609 779 3096 
Q 1206 3584 1959 3584 
z
" transform="scale(0.015625)"/>
        <path id="DejaVuSans-63" d="M 3122 3366 
L 3122 2828 
Q 2878 2963 2633 3030 
Q 2388 3097 2138 3097 
Q 1578 3097 1268 2742 
Q 959 2388 959 1747 
Q 959 1106 1268 751 
Q 1578 397 2138 397 
Q 2388 397 2633 464 
Q 2878 531 3122 666 
L 3122 134 
Q 2881 22 2623 -34 
Q 2366 -91 2075 -91 
Q 1284 -91 818 406 
Q 353 903 353 1747 
Q 353 2603 823 3093 
Q 1294 3584 2113 3584 
Q 2378 3584 2631 3529 
Q 2884 3475 3122 3366 
z
" transform="scale(0.015625)"/>
        <path id="DejaVuSans-6b" d="M 581 4863 
L 1159 4863 
L 1159 1991 
L 2875 3500 
L 3609 3500 
L 1753 1863 
L 3688 0 
L 2938 0 
L 1159 1709 
L 1159 0 
L 581 0 
L 581 4863 
z
" transform="scale(0.015625)"/>
        <path id="DejaVuSans-65" d="M 3597 1894 
L 3597 1613 
L 953 1613 
Q 991 1019 1311 708 
Q 1631 397 2203 397 
Q 2534 397 2845 478 
Q 3156 559 3463 722 
L 3463 178 
Q 3153 47 2828 -22 
Q 2503 -91 2169 -91 
Q 1331 -91 842 396 
Q 353 884 353 1716 
Q 353 2575 817 3079 
Q 1281 3584 2069 3584 
Q 2775 3584 3186 3129 
Q 3597 2675 3597 1894 
z
M 3022 2063 
Q 3016 2534 2758 2815 
Q 2500 3097 2075 3097 
Q 1594 3097 1305 2825 
Q 1016 2553 972 2059 
L 3022 2063 
z
" transform="scale(0.015625)"/>
        <path id="DejaVuSans-64" d="M 2906 2969 
L 2906 4863 
L 3481 4863 
L 3481 0 
L 2906 0 
L 2906 525 
Q 2725 213 2448 61 
Q 2172 -91 1784 -91 
Q 1150 -91 751 415 
Q 353 922 353 1747 
Q 353 2572 751 3078 
Q 1150 3584 1784 3584 
Q 2172 3584 2448 3432 
Q 2725 3281 2906 2969 
z
M 947 1747 
Q 947 1113 1208 752 
Q 1469 391 1925 391 
Q 2381 391 2643 752 
Q 2906 1113 2906 1747 
Q 2906 2381 2643 2742 
Q 2381 3103 1925 3103 
Q 1469 3103 1208 2742 
Q 947 2381 947 1747 
z
" transform="scale(0.015625)"/>
       </defs>
       <use xlink:href="#DejaVuSans-62"/>
       <use xlink:href="#DejaVuSans-6c" x="63.476562"/>
       <use xlink:href="#DejaVuSans-6f" x="91.259766"/>
       <use xlink:href="#DejaVuSans-63" x="152.441406"/>
       <use xlink:href="#DejaVuSans-6b" x="207.421875"/>
       <use xlink:href="#DejaVuSans-65" x="261.707031"/>
       <use xlink:href="#DejaVuSans-64" x="323.230469"/>
      </g>
     </g>
    </g>
    <g id="xtick_2">
     <g id="line2d_2">
      <g>
       <use xlink:href="#m0f3d2b578f" x="610.2" y="378" style="stroke: #000000; stroke-width: 1.875"/>
      </g>
     </g>
     <g id="text_2">
      <!-- interleaved -->
      <g transform="translate(563.356758 403.037422)scale(0.165 -0.165)">
       <defs>
        <path id="DejaVuSans-69" d="M 603 3500 
L 1178 3500 
L 1178 0 
L 603 0 
L 603 3500 
z
M 603 4863 
L 1178 4863 
L 1178 4134 
L 603 4134 
L 603 4863 
z
" transform="scale(0.015625)"/>
        <path id="DejaVuSans-6e" d="M 3513 2113 
L 3513 0 
L 2938 0 
L 2938 2094 
Q 2938 2591 2744 2837 
Q 2550 3084 2163 3084 
Q 1697 3084 1428 2787 
Q 1159 2491 1159 1978 
L 1159 0 
L 581 0 
L 581 3500 
L 1159 3500 
L 1159 2956 
Q 1366 3272 1645 3428 
Q 1925 3584 2291 3584 
Q 2894 3584 3203 3211 
Q 3513 2838 3513 2113 
z
" transform="scale(0.015625)"/>
        <path id="DejaVuSans-74" d="M 1172 4494 
L 1172 3500 
L 2356 3500 
L 2356 3053 
L 1172 3053 
L 1172 1153 
Q 1172 725 1289 603 
Q 1406 481 1766 481 
L 2356 481 
L 2356 0 
L 1766 0 
Q 1100 0 847 248 
Q 594 497 594 1153 
L 594 3053 
L 172 3053 
L 172 3500 
L 594 3500 
L 594 4494 
L 1172 4494 
z
" transform="scale(0.015625)"/>
        <path id="DejaVuSans-72" d="M 2631 2963 
Q 2534 3019 2420 3045 
Q 2306 3072 2169 3072 
Q 1681 3072 1420 2755 
Q 1159 2438 1159 1844 
L 1159 0 
L 581 0 
L 581 3500 
L 1159 3500 
L 1159 2956 
Q 1341 3275 1631 3429 
Q 1922 3584 2338 3584 
Q 2397 3584 2469 3576 
Q 2541 3569 2628 3553 
L 2631 2963 
z
" transform="scale(0.015625)"/>
        <path id="DejaVuSans-61" d="M 2194 1759 
Q 1497 1759 1228 1600 
Q 959 1441 959 1056 
Q 959 750 1161 570 
Q 1363 391 1709 391 
Q 2188 391 2477 730 
Q 2766 1069 2766 1631 
L 2766 1759 
L 2194 1759 
z
M 3341 1997 
L 3341 0 
L 2766 0 
L 2766 531 
Q 2569 213 2275 61 
Q 1981 -91 1556 -91 
Q 1019 -91 701 211 
Q 384 513 384 1019 
Q 384 1609 779 1909 
Q 1175 2209 1959 2209 
L 2766 2209 
L 2766 2266 
Q 2766 2663 2505 2880 
Q 2244 3097 1772 3097 
Q 1472 3097 1187 3025 
Q 903 2953 641 2809 
L 641 3341 
Q 956 3463 1253 3523 
Q 1550 3584 1831 3584 
Q 2591 3584 2966 3190 
Q 3341 2797 3341 1997 
z
" transform="scale(0.015625)"/>
        <path id="DejaVuSans-76" d="M 191 3500 
L 800 3500 
L 1894 563 
L 2988 3500 
L 3597 3500 
L 2284 0 
L 1503 0 
L 191 3500 
z
" transform="scale(0.015625)"/>
       </defs>
       <use xlink:href="#DejaVuSans-69"/>
       <use xlink:href="#DejaVuSans-6e" x="27.783203"/>
       <use xlink:href="#DejaVuSans-74" x="91.162109"/>
       <use xlink:href="#DejaVuSans-65" x="130.371094"/>
       <use xlink:href="#DejaVuSans-72" x="191.894531"/>
       <use xlink:href="#DejaVuSans-6c" x="233.007812"/>
       <use xlink:href="#DejaVuSans-65" x="260.791016"/>
       <use xlink:href="#DejaVuSans-61" x="322.314453"/>
       <use xlink:href="#DejaVuSans-76" x="383.59375"/>
       <use xlink:href="#DejaVuSans-65" x="442.773438"/>
       <use xlink:href="#DejaVuSans-64" x="504.296875"/>
      </g>
     </g>
    </g>
    <g id="text_3">
     <!-- condition -->
     <g transform="translate(401.187656 424.146094)scale(0.18 -0.18)">
      <use xlink:href="#DejaVuSans-63"/>
      <use xlink:href="#DejaVuSans-6f" x="54.980469"/>
      <use xlink:href="#DejaVuSans-6e" x="116.162109"/>
      <use xlink:href="#DejaVuSans-64" x="179.541016"/>
      <use xlink:href="#DejaVuSans-69" x="243.017578"/>
      <use xlink:href="#DejaVuSans-74" x="270.800781"/>
      <use xlink:href="#DejaVuSans-69" x="310.009766"/>
      <use xlink:href="#DejaVuSans-6f" x="337.792969"/>
      <use xlink:href="#DejaVuSans-6e" x="398.974609"/>
     </g>
    </g>
   </g>
   <g id="matplotlib.axis_2">
    <g id="ytick_1">
     <g id="line2d_3">
      <defs>
       <path id="me3d2048186" d="M 0 0 
L -9 0 
" style="stroke: #000000; stroke-width: 1.875"/>
      </defs>
      <g>
       <use xlink:href="#me3d2048186" x="108" y="365.057008" style="stroke: #000000; stroke-width: 1.875"/>
      </g>
     </g>
     <g id="text_4">
      <!-- 0.3 -->
      <g transform="translate(69.259844 371.325719)scale(0.165 -0.165)">
       <defs>
        <path id="DejaVuSans-30" d="M 2034 4250 
Q 1547 4250 1301 3770 
Q 1056 3291 1056 2328 
Q 1056 1369 1301 889 
Q 1547 409 2034 409 
Q 2525 409 2770 889 
Q 3016 1369 3016 2328 
Q 3016 3291 2770 3770 
Q 2525 4250 2034 4250 
z
M 2034 4750 
Q 2819 4750 3233 4129 
Q 3647 3509 3647 2328 
Q 3647 1150 3233 529 
Q 2819 -91 2034 -91 
Q 1250 -91 836 529 
Q 422 1150 422 2328 
Q 422 3509 836 4129 
Q 1250 4750 2034 4750 
z
" transform="scale(0.015625)"/>
        <path id="DejaVuSans-2e" d="M 684 794 
L 1344 794 
L 1344 0 
L 684 0 
L 684 794 
z
" transform="scale(0.015625)"/>
        <path id="DejaVuSans-33" d="M 2597 2516 
Q 3050 2419 3304 2112 
Q 3559 1806 3559 1356 
Q 3559 666 3084 287 
Q 2609 -91 1734 -91 
Q 1441 -91 1130 -33 
Q 819 25 488 141 
L 488 750 
Q 750 597 1062 519 
Q 1375 441 1716 441 
Q 2309 441 2620 675 
Q 2931 909 2931 1356 
Q 2931 1769 2642 2001 
Q 2353 2234 1838 2234 
L 1294 2234 
L 1294 2753 
L 1863 2753 
Q 2328 2753 2575 2939 
Q 2822 3125 2822 3475 
Q 2822 3834 2567 4026 
Q 2313 4219 1838 4219 
Q 1578 4219 1281 4162 
Q 984 4106 628 3988 
L 628 4550 
Q 988 4650 1302 4700 
Q 1616 4750 1894 4750 
Q 2613 4750 3031 4423 
Q 3450 4097 3450 3541 
Q 3450 3153 3228 2886 
Q 3006 2619 2597 2516 
z
" transform="scale(0.015625)"/>
       </defs>
       <use xlink:href="#DejaVuSans-30"/>
       <use xlink:href="#DejaVuSans-2e" x="63.623047"/>
       <use xlink:href="#DejaVuSans-33" x="95.410156"/>
      </g>
     </g>
    </g>
    <g id="ytick_2">
     <g id="line2d_4">
      <g>
       <use xlink:href="#me3d2048186" x="108" y="326.657856" style="stroke: #000000; stroke-width: 1.875"/>
      </g>
     </g>
     <g id="text_5">
      <!-- 0.4 -->
      <g transform="translate(69.259844 332.926567)scale(0.165 -0.165)">
       <defs>
        <path id="DejaVuSans-34" d="M 2419 4116 
L 825 1625 
L 2419 1625 
L 2419 4116 
z
M 2253 4666 
L 3047 4666 
L 3047 1625 
L 3713 1625 
L 3713 1100 
L 3047 1100 
L 3047 0 
L 2419 0 
L 2419 1100 
L 313 1100 
L 313 1709 
L 2253 4666 
z
" transform="scale(0.015625)"/>
       </defs>
       <use xlink:href="#DejaVuSans-30"/>
       <use xlink:href="#DejaVuSans-2e" x="63.623047"/>
       <use xlink:href="#DejaVuSans-34" x="95.410156"/>
      </g>
     </g>
    </g>
    <g id="ytick_3">
     <g id="line2d_5">
      <g>
       <use xlink:href="#me3d2048186" x="108" y="288.258703" style="stroke: #000000; stroke-width: 1.875"/>
      </g>
     </g>
     <g id="text_6">
      <!-- 0.5 -->
      <g transform="translate(69.259844 294.527414)scale(0.165 -0.165)">
       <defs>
        <path id="DejaVuSans-35" d="M 691 4666 
L 3169 4666 
L 3169 4134 
L 1269 4134 
L 1269 2991 
Q 1406 3038 1543 3061 
Q 1681 3084 1819 3084 
Q 2600 3084 3056 2656 
Q 3513 2228 3513 1497 
Q 3513 744 3044 326 
Q 2575 -91 1722 -91 
Q 1428 -91 1123 -41 
Q 819 9 494 109 
L 494 744 
Q 775 591 1075 516 
Q 1375 441 1709 441 
Q 2250 441 2565 725 
Q 2881 1009 2881 1497 
Q 2881 1984 2565 2268 
Q 2250 2553 1709 2553 
Q 1456 2553 1204 2497 
Q 953 2441 691 2322 
L 691 4666 
z
" transform="scale(0.015625)"/>
       </defs>
       <use xlink:href="#DejaVuSans-30"/>
       <use xlink:href="#DejaVuSans-2e" x="63.623047"/>
       <use xlink:href="#DejaVuSans-35" x="95.410156"/>
      </g>
     </g>
    </g>
    <g id="ytick_4">
     <g id="line2d_6">
      <g>
       <use xlink:href="#me3d2048186" x="108" y="249.859551" style="stroke: #000000; stroke-width: 1.875"/>
      </g>
     </g>
     <g id="text_7">
      <!-- 0.6 -->
      <g transform="translate(69.259844 256.128262)scale(0.165 -0.165)">
       <defs>
        <path id="DejaVuSans-36" d="M 2113 2584 
Q 1688 2584 1439 2293 
Q 1191 2003 1191 1497 
Q 1191 994 1439 701 
Q 1688 409 2113 409 
Q 2538 409 2786 701 
Q 3034 994 3034 1497 
Q 3034 2003 2786 2293 
Q 2538 2584 2113 2584 
z
M 3366 4563 
L 3366 3988 
Q 3128 4100 2886 4159 
Q 2644 4219 2406 4219 
Q 1781 4219 1451 3797 
Q 1122 3375 1075 2522 
Q 1259 2794 1537 2939 
Q 1816 3084 2150 3084 
Q 2853 3084 3261 2657 
Q 3669 2231 3669 1497 
Q 3669 778 3244 343 
Q 2819 -91 2113 -91 
Q 1303 -91 875 529 
Q 447 1150 447 2328 
Q 447 3434 972 4092 
Q 1497 4750 2381 4750 
Q 2619 4750 2861 4703 
Q 3103 4656 3366 4563 
z
" transform="scale(0.015625)"/>
       </defs>
       <use xlink:href="#DejaVuSans-30"/>
       <use xlink:href="#DejaVuSans-2e" x="63.623047"/>
       <use xlink:href="#DejaVuSans-36" x="95.410156"/>
      </g>
     </g>
    </g>
    <g id="ytick_5">
     <g id="line2d_7">
      <g>
       <use xlink:href="#me3d2048186" x="108" y="211.460398" style="stroke: #000000; stroke-width: 1.875"/>
      </g>
     </g>
     <g id="text_8">
      <!-- 0.7 -->
      <g transform="translate(69.259844 217.729109)scale(0.165 -0.165)">
       <defs>
        <path id="DejaVuSans-37" d="M 525 4666 
L 3525 4666 
L 3525 4397 
L 1831 0 
L 1172 0 
L 2766 4134 
L 525 4134 
L 525 4666 
z
" transform="scale(0.015625)"/>
       </defs>
       <use xlink:href="#DejaVuSans-30"/>
       <use xlink:href="#DejaVuSans-2e" x="63.623047"/>
       <use xlink:href="#DejaVuSans-37" x="95.410156"/>
      </g>
     </g>
    </g>
    <g id="ytick_6">
     <g id="line2d_8">
      <g>
       <use xlink:href="#me3d2048186" x="108" y="173.061246" style="stroke: #000000; stroke-width: 1.875"/>
      </g>
     </g>
     <g id="text_9">
      <!-- 0.8 -->
      <g transform="translate(69.259844 179.329957)scale(0.165 -0.165)">
       <defs>
        <path id="DejaVuSans-38" d="M 2034 2216 
Q 1584 2216 1326 1975 
Q 1069 1734 1069 1313 
Q 1069 891 1326 650 
Q 1584 409 2034 409 
Q 2484 409 2743 651 
Q 3003 894 3003 1313 
Q 3003 1734 2745 1975 
Q 2488 2216 2034 2216 
z
M 1403 2484 
Q 997 2584 770 2862 
Q 544 3141 544 3541 
Q 544 4100 942 4425 
Q 1341 4750 2034 4750 
Q 2731 4750 3128 4425 
Q 3525 4100 3525 3541 
Q 3525 3141 3298 2862 
Q 3072 2584 2669 2484 
Q 3125 2378 3379 2068 
Q 3634 1759 3634 1313 
Q 3634 634 3220 271 
Q 2806 -91 2034 -91 
Q 1263 -91 848 271 
Q 434 634 434 1313 
Q 434 1759 690 2068 
Q 947 2378 1403 2484 
z
M 1172 3481 
Q 1172 3119 1398 2916 
Q 1625 2713 2034 2713 
Q 2441 2713 2670 2916 
Q 2900 3119 2900 3481 
Q 2900 3844 2670 4047 
Q 2441 4250 2034 4250 
Q 1625 4250 1398 4047 
Q 1172 3844 1172 3481 
z
" transform="scale(0.015625)"/>
       </defs>
       <use xlink:href="#DejaVuSans-30"/>
       <use xlink:href="#DejaVuSans-2e" x="63.623047"/>
       <use xlink:href="#DejaVuSans-38" x="95.410156"/>
      </g>
     </g>
    </g>
    <g id="ytick_7">
     <g id="line2d_9">
      <g>
       <use xlink:href="#me3d2048186" x="108" y="134.662093" style="stroke: #000000; stroke-width: 1.875"/>
      </g>
     </g>
     <g id="text_10">
      <!-- 0.9 -->
      <g transform="translate(69.259844 140.930804)scale(0.165 -0.165)">
       <defs>
        <path id="DejaVuSans-39" d="M 703 97 
L 703 672 
Q 941 559 1184 500 
Q 1428 441 1663 441 
Q 2288 441 2617 861 
Q 2947 1281 2994 2138 
Q 2813 1869 2534 1725 
Q 2256 1581 1919 1581 
Q 1219 1581 811 2004 
Q 403 2428 403 3163 
Q 403 3881 828 4315 
Q 1253 4750 1959 4750 
Q 2769 4750 3195 4129 
Q 3622 3509 3622 2328 
Q 3622 1225 3098 567 
Q 2575 -91 1691 -91 
Q 1453 -91 1209 -44 
Q 966 3 703 97 
z
M 1959 2075 
Q 2384 2075 2632 2365 
Q 2881 2656 2881 3163 
Q 2881 3666 2632 3958 
Q 2384 4250 1959 4250 
Q 1534 4250 1286 3958 
Q 1038 3666 1038 3163 
Q 1038 2656 1286 2365 
Q 1534 2075 1959 2075 
z
" transform="scale(0.015625)"/>
       </defs>
       <use xlink:href="#DejaVuSans-30"/>
       <use xlink:href="#DejaVuSans-2e" x="63.623047"/>
       <use xlink:href="#DejaVuSans-39" x="95.410156"/>
      </g>
     </g>
    </g>
    <g id="ytick_8">
     <g id="line2d_10">
      <g>
       <use xlink:href="#me3d2048186" x="108" y="96.262941" style="stroke: #000000; stroke-width: 1.875"/>
      </g>
     </g>
     <g id="text_11">
      <!-- 1.0 -->
      <g transform="translate(69.259844 102.531651)scale(0.165 -0.165)">
       <defs>
        <path id="DejaVuSans-31" d="M 794 531 
L 1825 531 
L 1825 4091 
L 703 3866 
L 703 4441 
L 1819 4666 
L 2450 4666 
L 2450 531 
L 3481 531 
L 3481 0 
L 794 0 
L 794 531 
z
" transform="scale(0.015625)"/>
       </defs>
       <use xlink:href="#DejaVuSans-31"/>
       <use xlink:href="#DejaVuSans-2e" x="63.623047"/>
       <use xlink:href="#DejaVuSans-30" x="95.410156"/>
      </g>
     </g>
    </g>
    <g id="ytick_9">
     <g id="line2d_11">
      <g>
       <use xlink:href="#me3d2048186" x="108" y="57.863788" style="stroke: #000000; stroke-width: 1.875"/>
      </g>
     </g>
     <g id="text_12">
      <!-- 1.1 -->
      <g transform="translate(69.259844 64.132499)scale(0.165 -0.165)">
       <use xlink:href="#DejaVuSans-31"/>
       <use xlink:href="#DejaVuSans-2e" x="63.623047"/>
       <use xlink:href="#DejaVuSans-31" x="95.410156"/>
      </g>
     </g>
    </g>
    <g id="text_13">
     <!-- prediction accuracy -->
     <g transform="translate(61.516406 303.537656)rotate(-90)scale(0.18 -0.18)">
      <defs>
       <path id="DejaVuSans-70" d="M 1159 525 
L 1159 -1331 
L 581 -1331 
L 581 3500 
L 1159 3500 
L 1159 2969 
Q 1341 3281 1617 3432 
Q 1894 3584 2278 3584 
Q 2916 3584 3314 3078 
Q 3713 2572 3713 1747 
Q 3713 922 3314 415 
Q 2916 -91 2278 -91 
Q 1894 -91 1617 61 
Q 1341 213 1159 525 
z
M 3116 1747 
Q 3116 2381 2855 2742 
Q 2594 3103 2138 3103 
Q 1681 3103 1420 2742 
Q 1159 2381 1159 1747 
Q 1159 1113 1420 752 
Q 1681 391 2138 391 
Q 2594 391 2855 752 
Q 3116 1113 3116 1747 
z
" transform="scale(0.015625)"/>
       <path id="DejaVuSans-20" transform="scale(0.015625)"/>
       <path id="DejaVuSans-75" d="M 544 1381 
L 544 3500 
L 1119 3500 
L 1119 1403 
Q 1119 906 1312 657 
Q 1506 409 1894 409 
Q 2359 409 2629 706 
Q 2900 1003 2900 1516 
L 2900 3500 
L 3475 3500 
L 3475 0 
L 2900 0 
L 2900 538 
Q 2691 219 2414 64 
Q 2138 -91 1772 -91 
Q 1169 -91 856 284 
Q 544 659 544 1381 
z
M 1991 3584 
L 1991 3584 
z
" transform="scale(0.015625)"/>
       <path id="DejaVuSans-79" d="M 2059 -325 
Q 1816 -950 1584 -1140 
Q 1353 -1331 966 -1331 
L 506 -1331 
L 506 -850 
L 844 -850 
Q 1081 -850 1212 -737 
Q 1344 -625 1503 -206 
L 1606 56 
L 191 3500 
L 800 3500 
L 1894 763 
L 2988 3500 
L 3597 3500 
L 2059 -325 
z
" transform="scale(0.015625)"/>
      </defs>
      <use xlink:href="#DejaVuSans-70"/>
      <use xlink:href="#DejaVuSans-72" x="63.476562"/>
      <use xlink:href="#DejaVuSans-65" x="102.339844"/>
      <use xlink:href="#DejaVuSans-64" x="163.863281"/>
      <use xlink:href="#DejaVuSans-69" x="227.339844"/>
      <use xlink:href="#DejaVuSans-63" x="255.123047"/>
      <use xlink:href="#DejaVuSans-74" x="310.103516"/>
      <use xlink:href="#DejaVuSans-69" x="349.3125"/>
      <use xlink:href="#DejaVuSans-6f" x="377.095703"/>
      <use xlink:href="#DejaVuSans-6e" x="438.277344"/>
      <use xlink:href="#DejaVuSans-20" x="501.65625"/>
      <use xlink:href="#DejaVuSans-61" x="533.443359"/>
      <use xlink:href="#DejaVuSans-63" x="594.722656"/>
      <use xlink:href="#DejaVuSans-63" x="649.703125"/>
      <use xlink:href="#DejaVuSans-75" x="704.683594"/>
      <use xlink:href="#DejaVuSans-72" x="768.0625"/>
      <use xlink:href="#DejaVuSans-61" x="809.175781"/>
      <use xlink:href="#DejaVuSans-63" x="870.455078"/>
      <use xlink:href="#DejaVuSans-79" x="925.435547"/>
     </g>
    </g>
   </g>
   <g id="line2d_12">
    <path d="M 275.4 103.620241 
L 275.4 103.576642 
" clip-path="url(#p332f77f753)" style="fill: none; stroke: #3f3f3f; stroke-width: 2.25; stroke-linecap: square"/>
   </g>
   <g id="line2d_13">
    <path d="M 275.4 103.608063 
L 275.4 103.592255 
" clip-path="url(#p332f77f753)" style="fill: none; stroke: #3f3f3f; stroke-width: 6.75; stroke-linecap: square"/>
   </g>
   <g id="line2d_14">
    <path d="M 610.2 325.192841 
L 610.2 159.318054 
" clip-path="url(#p332f77f753)" style="fill: none; stroke: #3f3f3f; stroke-width: 2.25; stroke-linecap: square"/>
   </g>
   <g id="line2d_15">
    <path d="M 610.2 286.429744 
L 610.2 193.708687 
" clip-path="url(#p332f77f753)" style="fill: none; stroke: #3f3f3f; stroke-width: 6.75; stroke-linecap: square"/>
   </g>
   <g id="patch_3">
    <path d="M 108 378 
L 108 51.84 
" style="fill: none; stroke: #000000; stroke-width: 1.875; stroke-linejoin: miter; stroke-linecap: square"/>
   </g>
   <g id="patch_4">
    <path d="M 777.6 378 
L 777.6 51.84 
" style="fill: none; stroke: #000000; stroke-width: 1.875; stroke-linejoin: miter; stroke-linecap: square"/>
   </g>
   <g id="patch_5">
    <path d="M 108 378 
L 777.6 378 
" style="fill: none; stroke: #000000; stroke-width: 1.875; stroke-linejoin: miter; stroke-linecap: square"/>
   </g>
   <g id="patch_6">
    <path d="M 108 51.84 
L 777.6 51.84 
" style="fill: none; stroke: #000000; stroke-width: 1.875; stroke-linejoin: miter; stroke-linecap: square"/>
   </g>
   <g id="PathCollection_1">
    <defs>
     <path id="mc1c55611c3" d="M 0 2.25 
C 0.596707 2.25 1.169055 2.012926 1.59099 1.59099 
C 2.012926 1.169055 2.25 0.596707 2.25 0 
C 2.25 -0.596707 2.012926 -1.169055 1.59099 -1.59099 
C 1.169055 -2.012926 0.596707 -2.25 0 -2.25 
C -0.596707 -2.25 -1.169055 -2.012926 -1.59099 -1.59099 
C -2.012926 -1.169055 -2.25 -0.596707 -2.25 0 
C -2.25 0.596707 -2.012926 1.169055 -1.59099 1.59099 
C -1.169055 2.012926 -0.596707 2.25 0 2.25 
z
" style="stroke: #3f3f3f; stroke-width: 1.5"/>
    </defs>
    <g clip-path="url(#p332f77f753)">
     <use xlink:href="#mc1c55611c3" x="275.4" y="103.595487" style="fill: #ffffff; stroke: #3f3f3f; stroke-width: 1.5"/>
    </g>
   </g>
   <g id="PathCollection_2">
    <g clip-path="url(#p332f77f753)">
     <use xlink:href="#mc1c55611c3" x="610.2" y="209.245835" style="fill: #ffffff; stroke: #3f3f3f; stroke-width: 1.5"/>
    </g>
   </g>
  </g>
 </g>
 <defs>
  <clipPath id="p332f77f753">
   <rect x="108" y="51.84" width="669.6" height="326.16"/>
  </clipPath>
 </defs>
</svg>
