<?xml version="1.0" encoding="utf-8" standalone="no"?>
<!DOCTYPE svg PUBLIC "-//W3C//DTD SVG 1.1//EN"
  "http://www.w3.org/Graphics/SVG/1.1/DTD/svg11.dtd">
<!-- Created with matplotlib (https://matplotlib.org/) -->
<svg height="432pt" version="1.1" viewBox="0 0 864 432" width="864pt" xmlns="http://www.w3.org/2000/svg" xmlns:xlink="http://www.w3.org/1999/xlink">
 <metadata>
  <rdf:RDF xmlns:cc="http://creativecommons.org/ns#" xmlns:dc="http://purl.org/dc/elements/1.1/" xmlns:rdf="http://www.w3.org/1999/02/22-rdf-syntax-ns#">
   <cc:Work>
    <dc:type rdf:resource="http://purl.org/dc/dcmitype/StillImage"/>
    <dc:date>2023-04-16T12:01:29.232865</dc:date>
    <dc:format>image/svg+xml</dc:format>
    <dc:creator>
     <cc:Agent>
      <dc:title>Matplotlib v3.3.4, https://matplotlib.org/</dc:title>
     </cc:Agent>
    </dc:creator>
   </cc:Work>
  </rdf:RDF>
 </metadata>
 <defs>
  <style type="text/css">*{stroke-linecap:butt;stroke-linejoin:round;}</style>
 </defs>
 <g id="figure_1">
  <g id="patch_1">
   <path d="M 0 432 
L 864 432 
L 864 0 
L 0 0 
z
" style="fill:none;"/>
  </g>
  <g id="axes_1">
   <g id="patch_2">
    <path d="M 108 378 
L 777.6 378 
L 777.6 51.84 
L 108 51.84 
z
" style="fill:#ffffff;"/>
   </g>
   <g id="PolyCollection_1">
    <defs>
     <path d="M 275.935666 -192.329968 
L 274.864334 -192.329968 
L 274.685742 -193.751947 
L 274.459855 -195.173926 
L 274.178406 -196.595905 
L 273.832999 -198.017884 
L 273.415542 -199.439863 
L 272.918766 -200.861842 
L 272.336806 -202.283821 
L 271.665822 -203.7058 
L 270.904596 -205.127779 
L 270.055063 -206.549758 
L 269.122707 -207.971737 
L 268.116769 -209.393716 
L 267.050225 -210.815695 
L 265.939495 -212.237674 
L 264.803902 -213.659653 
L 263.664885 -215.081632 
L 262.54504 -216.503611 
L 261.467055 -217.92559 
L 260.45264 -219.347569 
L 259.52156 -220.769548 
L 258.690843 -222.191527 
L 257.974252 -223.613506 
L 257.382039 -225.035485 
L 256.921003 -226.457464 
L 256.594786 -227.879443 
L 256.404359 -229.301422 
L 256.348594 -230.7234 
L 256.424821 -232.145379 
L 256.62929 -233.567358 
L 256.957472 -234.989337 
L 257.404151 -236.411316 
L 257.96334 -237.833295 
L 258.628041 -239.255274 
L 259.389926 -240.677253 
L 260.239026 -242.099232 
L 261.163505 -243.521211 
L 262.149596 -244.94319 
L 263.181735 -246.365169 
L 264.242913 -247.787148 
L 265.31522 -249.209127 
L 266.380538 -250.631106 
L 267.421301 -252.053085 
L 268.421248 -253.475064 
L 269.366097 -254.897043 
L 270.244054 -256.319022 
L 271.046115 -257.741001 
L 271.766133 -259.16298 
L 272.400632 -260.584959 
L 272.948384 -262.006938 
L 273.40976 -263.428917 
L 273.785887 -264.850896 
L 274.077636 -266.272875 
L 274.284462 -267.694854 
L 274.403124 -269.116833 
L 274.426305 -270.538812 
L 274.341157 -271.960791 
L 274.12783 -273.38277 
L 273.758044 -274.804749 
L 273.193829 -276.226728 
L 272.386572 -277.648707 
L 271.276583 -279.070686 
L 269.793399 -280.492665 
L 267.857097 -281.914644 
L 265.380839 -283.336623 
L 262.274851 -284.758602 
L 258.451926 -286.180581 
L 253.834396 -287.60256 
L 248.36233 -289.024539 
L 242.002501 -290.446518 
L 234.757438 -291.868497 
L 226.673709 -293.290476 
L 217.848432 -294.712455 
L 208.433027 -296.134434 
L 198.633284 -297.556413 
L 188.705091 -298.978392 
L 178.945536 -300.400371 
L 169.679535 -301.82235 
L 161.242689 -303.244329 
L 153.961526 -304.666308 
L 148.13272 -306.088287 
L 144.003103 -307.510266 
L 141.752347 -308.932245 
L 141.48 -310.354224 
L 143.198183 -311.776203 
L 146.830699 -313.198182 
L 152.218633 -314.620161 
L 159.131884 -316.04214 
L 167.285455 -317.464119 
L 176.358892 -318.886098 
L 186.01704 -320.308077 
L 195.930248 -321.730056 
L 205.792369 -323.152035 
L 215.335243 -324.574014 
L 224.338864 -325.995993 
L 232.636908 -327.417972 
L 240.117804 -328.839951 
L 246.721926 -330.26193 
L 252.435751 -331.683909 
L 257.283997 -333.105888 
L 293.516003 -333.105888 
L 293.516003 -333.105888 
L 298.364249 -331.683909 
L 304.078074 -330.26193 
L 310.682196 -328.839951 
L 318.163092 -327.417972 
L 326.461136 -325.995993 
L 335.464757 -324.574014 
L 345.007631 -323.152035 
L 354.869752 -321.730056 
L 364.78296 -320.308077 
L 374.441108 -318.886098 
L 383.514545 -317.464119 
L 391.668116 -316.04214 
L 398.581367 -314.620161 
L 403.969301 -313.198182 
L 407.601817 -311.776203 
L 409.32 -310.354224 
L 409.047653 -308.932245 
L 406.796897 -307.510266 
L 402.66728 -306.088287 
L 396.838474 -304.666308 
L 389.557311 -303.244329 
L 381.120465 -301.82235 
L 371.854464 -300.400371 
L 362.094909 -298.978392 
L 352.166716 -297.556413 
L 342.366973 -296.134434 
L 332.951568 -294.712455 
L 324.126291 -293.290476 
L 316.042562 -291.868497 
L 308.797499 -290.446518 
L 302.43767 -289.024539 
L 296.965604 -287.60256 
L 292.348074 -286.180581 
L 288.525149 -284.758602 
L 285.419161 -283.336623 
L 282.942903 -281.914644 
L 281.006601 -280.492665 
L 279.523417 -279.070686 
L 278.413428 -277.648707 
L 277.606171 -276.226728 
L 277.041956 -274.804749 
L 276.67217 -273.38277 
L 276.458843 -271.960791 
L 276.373695 -270.538812 
L 276.396876 -269.116833 
L 276.515538 -267.694854 
L 276.722364 -266.272875 
L 277.014113 -264.850896 
L 277.39024 -263.428917 
L 277.851616 -262.006938 
L 278.399368 -260.584959 
L 279.033867 -259.16298 
L 279.753885 -257.741001 
L 280.555946 -256.319022 
L 281.433903 -254.897043 
L 282.378752 -253.475064 
L 283.378699 -252.053085 
L 284.419462 -250.631106 
L 285.48478 -249.209127 
L 286.557087 -247.787148 
L 287.618265 -246.365169 
L 288.650404 -244.94319 
L 289.636495 -243.521211 
L 290.560974 -242.099232 
L 291.410074 -240.677253 
L 292.171959 -239.255274 
L 292.83666 -237.833295 
L 293.395849 -236.411316 
L 293.842528 -234.989337 
L 294.17071 -233.567358 
L 294.375179 -232.145379 
L 294.451406 -230.7234 
L 294.395641 -229.301422 
L 294.205214 -227.879443 
L 293.878997 -226.457464 
L 293.417961 -225.035485 
L 292.825748 -223.613506 
L 292.109157 -222.191527 
L 291.27844 -220.769548 
L 290.34736 -219.347569 
L 289.332945 -217.92559 
L 288.25496 -216.503611 
L 287.135115 -215.081632 
L 285.996098 -213.659653 
L 284.860505 -212.237674 
L 283.749775 -210.815695 
L 282.683231 -209.393716 
L 281.677293 -207.971737 
L 280.744937 -206.549758 
L 279.895404 -205.127779 
L 279.134178 -203.7058 
L 278.463194 -202.283821 
L 277.881234 -200.861842 
L 277.384458 -199.439863 
L 276.967001 -198.017884 
L 276.621594 -196.595905 
L 276.340145 -195.173926 
L 276.114258 -193.751947 
L 275.935666 -192.329968 
z
" id="m4fcfdfaa50" style="stroke:#3f3f3f;stroke-width:2.25;"/>
    </defs>
    <g clip-path="url(#p699bf1bd8d)">
     <use style="fill:#3274a1;stroke:#3f3f3f;stroke-width:2.25;" x="0" xlink:href="#m4fcfdfaa50" y="432"/>
    </g>
   </g>
   <g id="PolyCollection_2">
    <defs>
     <path d="M 610.524423 -68.825455 
L 609.875577 -68.825455 
L 609.766472 -71.820496 
L 609.625004 -74.815537 
L 609.443111 -77.810579 
L 609.211255 -80.80562 
L 608.918332 -83.800661 
L 608.551646 -86.795702 
L 608.096974 -89.790744 
L 607.538738 -92.785785 
L 606.860331 -95.780826 
L 606.044594 -98.775868 
L 605.074494 -101.770909 
L 603.933968 -104.76595 
L 602.608964 -107.760992 
L 601.088614 -110.756033 
L 599.366522 -113.751074 
L 597.442065 -116.746116 
L 595.321643 -119.741157 
L 593.019755 -122.736198 
L 590.5598 -125.73124 
L 587.974477 -128.726281 
L 585.305704 -131.721322 
L 582.603969 -134.716364 
L 579.927089 -137.711405 
L 577.338368 -140.706446 
L 574.90424 -143.701488 
L 572.691485 -146.696529 
L 570.764183 -149.69157 
L 569.180602 -152.686612 
L 567.990226 -155.681653 
L 567.231135 -158.676694 
L 566.927943 -161.671736 
L 567.090436 -164.666777 
L 567.713034 -167.661818 
L 568.775104 -170.65686 
L 570.242109 -173.651901 
L 572.067499 -176.646942 
L 574.195194 -179.641983 
L 576.56248 -182.637025 
L 579.103095 -185.632066 
L 581.750305 -188.627107 
L 584.439754 -191.622149 
L 587.111932 -194.61719 
L 589.714134 -197.612231 
L 592.201826 -200.607273 
L 594.539415 -203.602314 
L 596.700417 -206.597355 
L 598.667115 -209.592397 
L 600.429781 -212.587438 
L 601.985569 -215.582479 
L 603.337213 -218.577521 
L 604.491618 -221.572562 
L 605.458459 -224.567603 
L 606.248867 -227.562645 
L 606.874267 -230.557686 
L 607.345421 -233.552727 
L 607.671688 -236.547769 
L 607.860541 -239.54281 
L 607.917328 -242.537851 
L 607.845269 -245.532893 
L 607.645692 -248.527934 
L 607.318472 -251.522975 
L 606.862652 -254.518017 
L 606.277215 -257.513058 
L 605.56196 -260.508099 
L 604.718428 -263.50314 
L 603.75083 -266.498182 
L 602.666889 -269.493223 
L 601.478552 -272.488264 
L 600.202472 -275.483306 
L 598.860226 -278.478347 
L 597.478191 -281.473388 
L 596.087074 -284.46843 
L 594.721069 -287.463471 
L 593.416673 -290.458512 
L 592.211227 -293.453554 
L 591.141247 -296.448595 
L 590.240661 -299.443636 
L 589.539076 -302.438678 
L 589.0602 -305.433719 
L 588.82054 -308.42876 
L 588.828475 -311.423802 
L 589.083786 -314.418843 
L 589.577677 -317.413884 
L 590.293283 -320.408926 
L 591.206636 -323.403967 
L 592.287998 -326.399008 
L 593.503471 -329.39405 
L 594.816752 -332.389091 
L 596.190922 -335.384132 
L 597.590126 -338.379174 
L 598.981067 -341.374215 
L 600.334207 -344.369256 
L 601.624646 -347.364298 
L 602.832643 -350.359339 
L 603.943795 -353.35438 
L 604.948906 -356.349421 
L 605.843596 -359.344463 
L 606.627714 -362.339504 
L 607.304632 -365.334545 
L 613.095368 -365.334545 
L 613.095368 -365.334545 
L 613.772286 -362.339504 
L 614.556404 -359.344463 
L 615.451094 -356.349421 
L 616.456205 -353.35438 
L 617.567357 -350.359339 
L 618.775354 -347.364298 
L 620.065793 -344.369256 
L 621.418933 -341.374215 
L 622.809874 -338.379174 
L 624.209078 -335.384132 
L 625.583248 -332.389091 
L 626.896529 -329.39405 
L 628.112002 -326.399008 
L 629.193364 -323.403967 
L 630.106717 -320.408926 
L 630.822323 -317.413884 
L 631.316214 -314.418843 
L 631.571525 -311.423802 
L 631.57946 -308.42876 
L 631.3398 -305.433719 
L 630.860924 -302.438678 
L 630.159339 -299.443636 
L 629.258753 -296.448595 
L 628.188773 -293.453554 
L 626.983327 -290.458512 
L 625.678931 -287.463471 
L 624.312926 -284.46843 
L 622.921809 -281.473388 
L 621.539774 -278.478347 
L 620.197528 -275.483306 
L 618.921448 -272.488264 
L 617.733111 -269.493223 
L 616.64917 -266.498182 
L 615.681572 -263.50314 
L 614.83804 -260.508099 
L 614.122785 -257.513058 
L 613.537348 -254.518017 
L 613.081528 -251.522975 
L 612.754308 -248.527934 
L 612.554731 -245.532893 
L 612.482672 -242.537851 
L 612.539459 -239.54281 
L 612.728312 -236.547769 
L 613.054579 -233.552727 
L 613.525733 -230.557686 
L 614.151133 -227.562645 
L 614.941541 -224.567603 
L 615.908382 -221.572562 
L 617.062787 -218.577521 
L 618.414431 -215.582479 
L 619.970219 -212.587438 
L 621.732885 -209.592397 
L 623.699583 -206.597355 
L 625.860585 -203.602314 
L 628.198174 -200.607273 
L 630.685866 -197.612231 
L 633.288068 -194.61719 
L 635.960246 -191.622149 
L 638.649695 -188.627107 
L 641.296905 -185.632066 
L 643.83752 -182.637025 
L 646.204806 -179.641983 
L 648.332501 -176.646942 
L 650.157891 -173.651901 
L 651.624896 -170.65686 
L 652.686966 -167.661818 
L 653.309564 -164.666777 
L 653.472057 -161.671736 
L 653.168865 -158.676694 
L 652.409774 -155.681653 
L 651.219398 -152.686612 
L 649.635817 -149.69157 
L 647.708515 -146.696529 
L 645.49576 -143.701488 
L 643.061632 -140.706446 
L 640.472911 -137.711405 
L 637.796031 -134.716364 
L 635.094296 -131.721322 
L 632.425523 -128.726281 
L 629.8402 -125.73124 
L 627.380245 -122.736198 
L 625.078357 -119.741157 
L 622.957935 -116.746116 
L 621.033478 -113.751074 
L 619.311386 -110.756033 
L 617.791036 -107.760992 
L 616.466032 -104.76595 
L 615.325506 -101.770909 
L 614.355406 -98.775868 
L 613.539669 -95.780826 
L 612.861262 -92.785785 
L 612.303026 -89.790744 
L 611.848354 -86.795702 
L 611.481668 -83.800661 
L 611.188745 -80.80562 
L 610.956889 -77.810579 
L 610.774996 -74.815537 
L 610.633528 -71.820496 
L 610.524423 -68.825455 
z
" id="mbfef94f6f1" style="stroke:#3f3f3f;stroke-width:2.25;"/>
    </defs>
    <g clip-path="url(#p699bf1bd8d)">
     <use style="fill:#e1812c;stroke:#3f3f3f;stroke-width:2.25;" x="0" xlink:href="#mbfef94f6f1" y="432"/>
    </g>
   </g>
   <g id="matplotlib.axis_1">
    <g id="xtick_1">
     <g id="line2d_1">
      <defs>
       <path d="M 0 0 
L 0 9 
" id="me47446f049" style="stroke:#000000;stroke-width:1.875;"/>
      </defs>
      <g>
       <use style="stroke:#000000;stroke-width:1.875;" x="275.4" xlink:href="#me47446f049" y="378"/>
      </g>
     </g>
     <g id="text_1">
      <!-- blocked -->
      <g transform="translate(243.494414 403.037422)scale(0.165 -0.165)">
       <defs>
        <path d="M 48.6875 27.296875 
Q 48.6875 37.203125 44.609375 42.84375 
Q 40.53125 48.484375 33.40625 48.484375 
Q 26.265625 48.484375 22.1875 42.84375 
Q 18.109375 37.203125 18.109375 27.296875 
Q 18.109375 17.390625 22.1875 11.75 
Q 26.265625 6.109375 33.40625 6.109375 
Q 40.53125 6.109375 44.609375 11.75 
Q 48.6875 17.390625 48.6875 27.296875 
z
M 18.109375 46.390625 
Q 20.953125 51.265625 25.265625 53.625 
Q 29.59375 56 35.59375 56 
Q 45.5625 56 51.78125 48.09375 
Q 58.015625 40.1875 58.015625 27.296875 
Q 58.015625 14.40625 51.78125 6.484375 
Q 45.5625 -1.421875 35.59375 -1.421875 
Q 29.59375 -1.421875 25.265625 0.953125 
Q 20.953125 3.328125 18.109375 8.203125 
L 18.109375 0 
L 9.078125 0 
L 9.078125 75.984375 
L 18.109375 75.984375 
z
" id="DejaVuSans-98"/>
        <path d="M 9.421875 75.984375 
L 18.40625 75.984375 
L 18.40625 0 
L 9.421875 0 
z
" id="DejaVuSans-108"/>
        <path d="M 30.609375 48.390625 
Q 23.390625 48.390625 19.1875 42.75 
Q 14.984375 37.109375 14.984375 27.296875 
Q 14.984375 17.484375 19.15625 11.84375 
Q 23.34375 6.203125 30.609375 6.203125 
Q 37.796875 6.203125 41.984375 11.859375 
Q 46.1875 17.53125 46.1875 27.296875 
Q 46.1875 37.015625 41.984375 42.703125 
Q 37.796875 48.390625 30.609375 48.390625 
z
M 30.609375 56 
Q 42.328125 56 49.015625 48.375 
Q 55.71875 40.765625 55.71875 27.296875 
Q 55.71875 13.875 49.015625 6.21875 
Q 42.328125 -1.421875 30.609375 -1.421875 
Q 18.84375 -1.421875 12.171875 6.21875 
Q 5.515625 13.875 5.515625 27.296875 
Q 5.515625 40.765625 12.171875 48.375 
Q 18.84375 56 30.609375 56 
z
" id="DejaVuSans-111"/>
        <path d="M 48.78125 52.59375 
L 48.78125 44.1875 
Q 44.96875 46.296875 41.140625 47.34375 
Q 37.3125 48.390625 33.40625 48.390625 
Q 24.65625 48.390625 19.8125 42.84375 
Q 14.984375 37.3125 14.984375 27.296875 
Q 14.984375 17.28125 19.8125 11.734375 
Q 24.65625 6.203125 33.40625 6.203125 
Q 37.3125 6.203125 41.140625 7.25 
Q 44.96875 8.296875 48.78125 10.40625 
L 48.78125 2.09375 
Q 45.015625 0.34375 40.984375 -0.53125 
Q 36.96875 -1.421875 32.421875 -1.421875 
Q 20.0625 -1.421875 12.78125 6.34375 
Q 5.515625 14.109375 5.515625 27.296875 
Q 5.515625 40.671875 12.859375 48.328125 
Q 20.21875 56 33.015625 56 
Q 37.15625 56 41.109375 55.140625 
Q 45.0625 54.296875 48.78125 52.59375 
z
" id="DejaVuSans-99"/>
        <path d="M 9.078125 75.984375 
L 18.109375 75.984375 
L 18.109375 31.109375 
L 44.921875 54.6875 
L 56.390625 54.6875 
L 27.390625 29.109375 
L 57.625 0 
L 45.90625 0 
L 18.109375 26.703125 
L 18.109375 0 
L 9.078125 0 
z
" id="DejaVuSans-107"/>
        <path d="M 56.203125 29.59375 
L 56.203125 25.203125 
L 14.890625 25.203125 
Q 15.484375 15.921875 20.484375 11.0625 
Q 25.484375 6.203125 34.421875 6.203125 
Q 39.59375 6.203125 44.453125 7.46875 
Q 49.3125 8.734375 54.109375 11.28125 
L 54.109375 2.78125 
Q 49.265625 0.734375 44.1875 -0.34375 
Q 39.109375 -1.421875 33.890625 -1.421875 
Q 20.796875 -1.421875 13.15625 6.1875 
Q 5.515625 13.8125 5.515625 26.8125 
Q 5.515625 40.234375 12.765625 48.109375 
Q 20.015625 56 32.328125 56 
Q 43.359375 56 49.78125 48.890625 
Q 56.203125 41.796875 56.203125 29.59375 
z
M 47.21875 32.234375 
Q 47.125 39.59375 43.09375 43.984375 
Q 39.0625 48.390625 32.421875 48.390625 
Q 24.90625 48.390625 20.390625 44.140625 
Q 15.875 39.890625 15.1875 32.171875 
z
" id="DejaVuSans-101"/>
        <path d="M 45.40625 46.390625 
L 45.40625 75.984375 
L 54.390625 75.984375 
L 54.390625 0 
L 45.40625 0 
L 45.40625 8.203125 
Q 42.578125 3.328125 38.25 0.953125 
Q 33.9375 -1.421875 27.875 -1.421875 
Q 17.96875 -1.421875 11.734375 6.484375 
Q 5.515625 14.40625 5.515625 27.296875 
Q 5.515625 40.1875 11.734375 48.09375 
Q 17.96875 56 27.875 56 
Q 33.9375 56 38.25 53.625 
Q 42.578125 51.265625 45.40625 46.390625 
z
M 14.796875 27.296875 
Q 14.796875 17.390625 18.875 11.75 
Q 22.953125 6.109375 30.078125 6.109375 
Q 37.203125 6.109375 41.296875 11.75 
Q 45.40625 17.390625 45.40625 27.296875 
Q 45.40625 37.203125 41.296875 42.84375 
Q 37.203125 48.484375 30.078125 48.484375 
Q 22.953125 48.484375 18.875 42.84375 
Q 14.796875 37.203125 14.796875 27.296875 
z
" id="DejaVuSans-100"/>
       </defs>
       <use xlink:href="#DejaVuSans-98"/>
       <use x="63.476562" xlink:href="#DejaVuSans-108"/>
       <use x="91.259766" xlink:href="#DejaVuSans-111"/>
       <use x="152.441406" xlink:href="#DejaVuSans-99"/>
       <use x="207.421875" xlink:href="#DejaVuSans-107"/>
       <use x="261.707031" xlink:href="#DejaVuSans-101"/>
       <use x="323.230469" xlink:href="#DejaVuSans-100"/>
      </g>
     </g>
    </g>
    <g id="xtick_2">
     <g id="line2d_2">
      <g>
       <use style="stroke:#000000;stroke-width:1.875;" x="610.2" xlink:href="#me47446f049" y="378"/>
      </g>
     </g>
     <g id="text_2">
      <!-- interleaved -->
      <g transform="translate(563.356758 403.037422)scale(0.165 -0.165)">
       <defs>
        <path d="M 9.421875 54.6875 
L 18.40625 54.6875 
L 18.40625 0 
L 9.421875 0 
z
M 9.421875 75.984375 
L 18.40625 75.984375 
L 18.40625 64.59375 
L 9.421875 64.59375 
z
" id="DejaVuSans-105"/>
        <path d="M 54.890625 33.015625 
L 54.890625 0 
L 45.90625 0 
L 45.90625 32.71875 
Q 45.90625 40.484375 42.875 44.328125 
Q 39.84375 48.1875 33.796875 48.1875 
Q 26.515625 48.1875 22.3125 43.546875 
Q 18.109375 38.921875 18.109375 30.90625 
L 18.109375 0 
L 9.078125 0 
L 9.078125 54.6875 
L 18.109375 54.6875 
L 18.109375 46.1875 
Q 21.34375 51.125 25.703125 53.5625 
Q 30.078125 56 35.796875 56 
Q 45.21875 56 50.046875 50.171875 
Q 54.890625 44.34375 54.890625 33.015625 
z
" id="DejaVuSans-110"/>
        <path d="M 18.3125 70.21875 
L 18.3125 54.6875 
L 36.8125 54.6875 
L 36.8125 47.703125 
L 18.3125 47.703125 
L 18.3125 18.015625 
Q 18.3125 11.328125 20.140625 9.421875 
Q 21.96875 7.515625 27.59375 7.515625 
L 36.8125 7.515625 
L 36.8125 0 
L 27.59375 0 
Q 17.1875 0 13.234375 3.875 
Q 9.28125 7.765625 9.28125 18.015625 
L 9.28125 47.703125 
L 2.6875 47.703125 
L 2.6875 54.6875 
L 9.28125 54.6875 
L 9.28125 70.21875 
z
" id="DejaVuSans-116"/>
        <path d="M 41.109375 46.296875 
Q 39.59375 47.171875 37.8125 47.578125 
Q 36.03125 48 33.890625 48 
Q 26.265625 48 22.1875 43.046875 
Q 18.109375 38.09375 18.109375 28.8125 
L 18.109375 0 
L 9.078125 0 
L 9.078125 54.6875 
L 18.109375 54.6875 
L 18.109375 46.1875 
Q 20.953125 51.171875 25.484375 53.578125 
Q 30.03125 56 36.53125 56 
Q 37.453125 56 38.578125 55.875 
Q 39.703125 55.765625 41.0625 55.515625 
z
" id="DejaVuSans-114"/>
        <path d="M 34.28125 27.484375 
Q 23.390625 27.484375 19.1875 25 
Q 14.984375 22.515625 14.984375 16.5 
Q 14.984375 11.71875 18.140625 8.90625 
Q 21.296875 6.109375 26.703125 6.109375 
Q 34.1875 6.109375 38.703125 11.40625 
Q 43.21875 16.703125 43.21875 25.484375 
L 43.21875 27.484375 
z
M 52.203125 31.203125 
L 52.203125 0 
L 43.21875 0 
L 43.21875 8.296875 
Q 40.140625 3.328125 35.546875 0.953125 
Q 30.953125 -1.421875 24.3125 -1.421875 
Q 15.921875 -1.421875 10.953125 3.296875 
Q 6 8.015625 6 15.921875 
Q 6 25.140625 12.171875 29.828125 
Q 18.359375 34.515625 30.609375 34.515625 
L 43.21875 34.515625 
L 43.21875 35.40625 
Q 43.21875 41.609375 39.140625 45 
Q 35.0625 48.390625 27.6875 48.390625 
Q 23 48.390625 18.546875 47.265625 
Q 14.109375 46.140625 10.015625 43.890625 
L 10.015625 52.203125 
Q 14.9375 54.109375 19.578125 55.046875 
Q 24.21875 56 28.609375 56 
Q 40.484375 56 46.34375 49.84375 
Q 52.203125 43.703125 52.203125 31.203125 
z
" id="DejaVuSans-97"/>
        <path d="M 2.984375 54.6875 
L 12.5 54.6875 
L 29.59375 8.796875 
L 46.6875 54.6875 
L 56.203125 54.6875 
L 35.6875 0 
L 23.484375 0 
z
" id="DejaVuSans-118"/>
       </defs>
       <use xlink:href="#DejaVuSans-105"/>
       <use x="27.783203" xlink:href="#DejaVuSans-110"/>
       <use x="91.162109" xlink:href="#DejaVuSans-116"/>
       <use x="130.371094" xlink:href="#DejaVuSans-101"/>
       <use x="191.894531" xlink:href="#DejaVuSans-114"/>
       <use x="233.007812" xlink:href="#DejaVuSans-108"/>
       <use x="260.791016" xlink:href="#DejaVuSans-101"/>
       <use x="322.314453" xlink:href="#DejaVuSans-97"/>
       <use x="383.59375" xlink:href="#DejaVuSans-118"/>
       <use x="442.773438" xlink:href="#DejaVuSans-101"/>
       <use x="504.296875" xlink:href="#DejaVuSans-100"/>
      </g>
     </g>
    </g>
    <g id="text_3">
     <!-- condition -->
     <g transform="translate(401.187656 424.146094)scale(0.18 -0.18)">
      <use xlink:href="#DejaVuSans-99"/>
      <use x="54.980469" xlink:href="#DejaVuSans-111"/>
      <use x="116.162109" xlink:href="#DejaVuSans-110"/>
      <use x="179.541016" xlink:href="#DejaVuSans-100"/>
      <use x="243.017578" xlink:href="#DejaVuSans-105"/>
      <use x="270.800781" xlink:href="#DejaVuSans-116"/>
      <use x="310.009766" xlink:href="#DejaVuSans-105"/>
      <use x="337.792969" xlink:href="#DejaVuSans-111"/>
      <use x="398.974609" xlink:href="#DejaVuSans-110"/>
     </g>
    </g>
   </g>
   <g id="matplotlib.axis_2">
    <g id="ytick_1">
     <g id="line2d_3">
      <defs>
       <path d="M 0 0 
L -9 0 
" id="ma3e3091fe4" style="stroke:#000000;stroke-width:1.875;"/>
      </defs>
      <g>
       <use style="stroke:#000000;stroke-width:1.875;" x="108" xlink:href="#ma3e3091fe4" y="363.082014"/>
      </g>
     </g>
     <g id="text_4">
      <!-- 0.2 -->
      <g transform="translate(69.259844 369.350725)scale(0.165 -0.165)">
       <defs>
        <path d="M 31.78125 66.40625 
Q 24.171875 66.40625 20.328125 58.90625 
Q 16.5 51.421875 16.5 36.375 
Q 16.5 21.390625 20.328125 13.890625 
Q 24.171875 6.390625 31.78125 6.390625 
Q 39.453125 6.390625 43.28125 13.890625 
Q 47.125 21.390625 47.125 36.375 
Q 47.125 51.421875 43.28125 58.90625 
Q 39.453125 66.40625 31.78125 66.40625 
z
M 31.78125 74.21875 
Q 44.046875 74.21875 50.515625 64.515625 
Q 56.984375 54.828125 56.984375 36.375 
Q 56.984375 17.96875 50.515625 8.265625 
Q 44.046875 -1.421875 31.78125 -1.421875 
Q 19.53125 -1.421875 13.0625 8.265625 
Q 6.59375 17.96875 6.59375 36.375 
Q 6.59375 54.828125 13.0625 64.515625 
Q 19.53125 74.21875 31.78125 74.21875 
z
" id="DejaVuSans-48"/>
        <path d="M 10.6875 12.40625 
L 21 12.40625 
L 21 0 
L 10.6875 0 
z
" id="DejaVuSans-46"/>
        <path d="M 19.1875 8.296875 
L 53.609375 8.296875 
L 53.609375 0 
L 7.328125 0 
L 7.328125 8.296875 
Q 12.9375 14.109375 22.625 23.890625 
Q 32.328125 33.6875 34.8125 36.53125 
Q 39.546875 41.84375 41.421875 45.53125 
Q 43.3125 49.21875 43.3125 52.78125 
Q 43.3125 58.59375 39.234375 62.25 
Q 35.15625 65.921875 28.609375 65.921875 
Q 23.96875 65.921875 18.8125 64.3125 
Q 13.671875 62.703125 7.8125 59.421875 
L 7.8125 69.390625 
Q 13.765625 71.78125 18.9375 73 
Q 24.125 74.21875 28.421875 74.21875 
Q 39.75 74.21875 46.484375 68.546875 
Q 53.21875 62.890625 53.21875 53.421875 
Q 53.21875 48.921875 51.53125 44.890625 
Q 49.859375 40.875 45.40625 35.40625 
Q 44.1875 33.984375 37.640625 27.21875 
Q 31.109375 20.453125 19.1875 8.296875 
z
" id="DejaVuSans-50"/>
       </defs>
       <use xlink:href="#DejaVuSans-48"/>
       <use x="63.623047" xlink:href="#DejaVuSans-46"/>
       <use x="95.410156" xlink:href="#DejaVuSans-50"/>
      </g>
     </g>
    </g>
    <g id="ytick_2">
     <g id="line2d_4">
      <g>
       <use style="stroke:#000000;stroke-width:1.875;" x="108" xlink:href="#ma3e3091fe4" y="301.41337"/>
      </g>
     </g>
     <g id="text_5">
      <!-- 0.4 -->
      <g transform="translate(69.259844 307.682081)scale(0.165 -0.165)">
       <defs>
        <path d="M 37.796875 64.3125 
L 12.890625 25.390625 
L 37.796875 25.390625 
z
M 35.203125 72.90625 
L 47.609375 72.90625 
L 47.609375 25.390625 
L 58.015625 25.390625 
L 58.015625 17.1875 
L 47.609375 17.1875 
L 47.609375 0 
L 37.796875 0 
L 37.796875 17.1875 
L 4.890625 17.1875 
L 4.890625 26.703125 
z
" id="DejaVuSans-52"/>
       </defs>
       <use xlink:href="#DejaVuSans-48"/>
       <use x="63.623047" xlink:href="#DejaVuSans-46"/>
       <use x="95.410156" xlink:href="#DejaVuSans-52"/>
      </g>
     </g>
    </g>
    <g id="ytick_3">
     <g id="line2d_5">
      <g>
       <use style="stroke:#000000;stroke-width:1.875;" x="108" xlink:href="#ma3e3091fe4" y="239.744726"/>
      </g>
     </g>
     <g id="text_6">
      <!-- 0.6 -->
      <g transform="translate(69.259844 246.013437)scale(0.165 -0.165)">
       <defs>
        <path d="M 33.015625 40.375 
Q 26.375 40.375 22.484375 35.828125 
Q 18.609375 31.296875 18.609375 23.390625 
Q 18.609375 15.53125 22.484375 10.953125 
Q 26.375 6.390625 33.015625 6.390625 
Q 39.65625 6.390625 43.53125 10.953125 
Q 47.40625 15.53125 47.40625 23.390625 
Q 47.40625 31.296875 43.53125 35.828125 
Q 39.65625 40.375 33.015625 40.375 
z
M 52.59375 71.296875 
L 52.59375 62.3125 
Q 48.875 64.0625 45.09375 64.984375 
Q 41.3125 65.921875 37.59375 65.921875 
Q 27.828125 65.921875 22.671875 59.328125 
Q 17.53125 52.734375 16.796875 39.40625 
Q 19.671875 43.65625 24.015625 45.921875 
Q 28.375 48.1875 33.59375 48.1875 
Q 44.578125 48.1875 50.953125 41.515625 
Q 57.328125 34.859375 57.328125 23.390625 
Q 57.328125 12.15625 50.6875 5.359375 
Q 44.046875 -1.421875 33.015625 -1.421875 
Q 20.359375 -1.421875 13.671875 8.265625 
Q 6.984375 17.96875 6.984375 36.375 
Q 6.984375 53.65625 15.1875 63.9375 
Q 23.390625 74.21875 37.203125 74.21875 
Q 40.921875 74.21875 44.703125 73.484375 
Q 48.484375 72.75 52.59375 71.296875 
z
" id="DejaVuSans-54"/>
       </defs>
       <use xlink:href="#DejaVuSans-48"/>
       <use x="63.623047" xlink:href="#DejaVuSans-46"/>
       <use x="95.410156" xlink:href="#DejaVuSans-54"/>
      </g>
     </g>
    </g>
    <g id="ytick_4">
     <g id="line2d_6">
      <g>
       <use style="stroke:#000000;stroke-width:1.875;" x="108" xlink:href="#ma3e3091fe4" y="178.076083"/>
      </g>
     </g>
     <g id="text_7">
      <!-- 0.8 -->
      <g transform="translate(69.259844 184.344794)scale(0.165 -0.165)">
       <defs>
        <path d="M 31.78125 34.625 
Q 24.75 34.625 20.71875 30.859375 
Q 16.703125 27.09375 16.703125 20.515625 
Q 16.703125 13.921875 20.71875 10.15625 
Q 24.75 6.390625 31.78125 6.390625 
Q 38.8125 6.390625 42.859375 10.171875 
Q 46.921875 13.96875 46.921875 20.515625 
Q 46.921875 27.09375 42.890625 30.859375 
Q 38.875 34.625 31.78125 34.625 
z
M 21.921875 38.8125 
Q 15.578125 40.375 12.03125 44.71875 
Q 8.5 49.078125 8.5 55.328125 
Q 8.5 64.0625 14.71875 69.140625 
Q 20.953125 74.21875 31.78125 74.21875 
Q 42.671875 74.21875 48.875 69.140625 
Q 55.078125 64.0625 55.078125 55.328125 
Q 55.078125 49.078125 51.53125 44.71875 
Q 48 40.375 41.703125 38.8125 
Q 48.828125 37.15625 52.796875 32.3125 
Q 56.78125 27.484375 56.78125 20.515625 
Q 56.78125 9.90625 50.3125 4.234375 
Q 43.84375 -1.421875 31.78125 -1.421875 
Q 19.734375 -1.421875 13.25 4.234375 
Q 6.78125 9.90625 6.78125 20.515625 
Q 6.78125 27.484375 10.78125 32.3125 
Q 14.796875 37.15625 21.921875 38.8125 
z
M 18.3125 54.390625 
Q 18.3125 48.734375 21.84375 45.5625 
Q 25.390625 42.390625 31.78125 42.390625 
Q 38.140625 42.390625 41.71875 45.5625 
Q 45.3125 48.734375 45.3125 54.390625 
Q 45.3125 60.0625 41.71875 63.234375 
Q 38.140625 66.40625 31.78125 66.40625 
Q 25.390625 66.40625 21.84375 63.234375 
Q 18.3125 60.0625 18.3125 54.390625 
z
" id="DejaVuSans-56"/>
       </defs>
       <use xlink:href="#DejaVuSans-48"/>
       <use x="63.623047" xlink:href="#DejaVuSans-46"/>
       <use x="95.410156" xlink:href="#DejaVuSans-56"/>
      </g>
     </g>
    </g>
    <g id="ytick_5">
     <g id="line2d_7">
      <g>
       <use style="stroke:#000000;stroke-width:1.875;" x="108" xlink:href="#ma3e3091fe4" y="116.407439"/>
      </g>
     </g>
     <g id="text_8">
      <!-- 1.0 -->
      <g transform="translate(69.259844 122.67615)scale(0.165 -0.165)">
       <defs>
        <path d="M 12.40625 8.296875 
L 28.515625 8.296875 
L 28.515625 63.921875 
L 10.984375 60.40625 
L 10.984375 69.390625 
L 28.421875 72.90625 
L 38.28125 72.90625 
L 38.28125 8.296875 
L 54.390625 8.296875 
L 54.390625 0 
L 12.40625 0 
z
" id="DejaVuSans-49"/>
       </defs>
       <use xlink:href="#DejaVuSans-49"/>
       <use x="63.623047" xlink:href="#DejaVuSans-46"/>
       <use x="95.410156" xlink:href="#DejaVuSans-48"/>
      </g>
     </g>
    </g>
    <g id="ytick_6">
     <g id="line2d_8">
      <g>
       <use style="stroke:#000000;stroke-width:1.875;" x="108" xlink:href="#ma3e3091fe4" y="54.738795"/>
      </g>
     </g>
     <g id="text_9">
      <!-- 1.2 -->
      <g transform="translate(69.259844 61.007506)scale(0.165 -0.165)">
       <use xlink:href="#DejaVuSans-49"/>
       <use x="63.623047" xlink:href="#DejaVuSans-46"/>
       <use x="95.410156" xlink:href="#DejaVuSans-50"/>
      </g>
     </g>
    </g>
    <g id="text_10">
     <!-- prediction accuracy -->
     <g transform="translate(61.516406 303.537656)rotate(-90)scale(0.18 -0.18)">
      <defs>
       <path d="M 18.109375 8.203125 
L 18.109375 -20.796875 
L 9.078125 -20.796875 
L 9.078125 54.6875 
L 18.109375 54.6875 
L 18.109375 46.390625 
Q 20.953125 51.265625 25.265625 53.625 
Q 29.59375 56 35.59375 56 
Q 45.5625 56 51.78125 48.09375 
Q 58.015625 40.1875 58.015625 27.296875 
Q 58.015625 14.40625 51.78125 6.484375 
Q 45.5625 -1.421875 35.59375 -1.421875 
Q 29.59375 -1.421875 25.265625 0.953125 
Q 20.953125 3.328125 18.109375 8.203125 
z
M 48.6875 27.296875 
Q 48.6875 37.203125 44.609375 42.84375 
Q 40.53125 48.484375 33.40625 48.484375 
Q 26.265625 48.484375 22.1875 42.84375 
Q 18.109375 37.203125 18.109375 27.296875 
Q 18.109375 17.390625 22.1875 11.75 
Q 26.265625 6.109375 33.40625 6.109375 
Q 40.53125 6.109375 44.609375 11.75 
Q 48.6875 17.390625 48.6875 27.296875 
z
" id="DejaVuSans-112"/>
       <path id="DejaVuSans-32"/>
       <path d="M 8.5 21.578125 
L 8.5 54.6875 
L 17.484375 54.6875 
L 17.484375 21.921875 
Q 17.484375 14.15625 20.5 10.265625 
Q 23.53125 6.390625 29.59375 6.390625 
Q 36.859375 6.390625 41.078125 11.03125 
Q 45.3125 15.671875 45.3125 23.6875 
L 45.3125 54.6875 
L 54.296875 54.6875 
L 54.296875 0 
L 45.3125 0 
L 45.3125 8.40625 
Q 42.046875 3.421875 37.71875 1 
Q 33.40625 -1.421875 27.6875 -1.421875 
Q 18.265625 -1.421875 13.375 4.4375 
Q 8.5 10.296875 8.5 21.578125 
z
M 31.109375 56 
z
" id="DejaVuSans-117"/>
       <path d="M 32.171875 -5.078125 
Q 28.375 -14.84375 24.75 -17.8125 
Q 21.140625 -20.796875 15.09375 -20.796875 
L 7.90625 -20.796875 
L 7.90625 -13.28125 
L 13.1875 -13.28125 
Q 16.890625 -13.28125 18.9375 -11.515625 
Q 21 -9.765625 23.484375 -3.21875 
L 25.09375 0.875 
L 2.984375 54.6875 
L 12.5 54.6875 
L 29.59375 11.921875 
L 46.6875 54.6875 
L 56.203125 54.6875 
z
" id="DejaVuSans-121"/>
      </defs>
      <use xlink:href="#DejaVuSans-112"/>
      <use x="63.476562" xlink:href="#DejaVuSans-114"/>
      <use x="102.339844" xlink:href="#DejaVuSans-101"/>
      <use x="163.863281" xlink:href="#DejaVuSans-100"/>
      <use x="227.339844" xlink:href="#DejaVuSans-105"/>
      <use x="255.123047" xlink:href="#DejaVuSans-99"/>
      <use x="310.103516" xlink:href="#DejaVuSans-116"/>
      <use x="349.3125" xlink:href="#DejaVuSans-105"/>
      <use x="377.095703" xlink:href="#DejaVuSans-111"/>
      <use x="438.277344" xlink:href="#DejaVuSans-110"/>
      <use x="501.65625" xlink:href="#DejaVuSans-32"/>
      <use x="533.443359" xlink:href="#DejaVuSans-97"/>
      <use x="594.722656" xlink:href="#DejaVuSans-99"/>
      <use x="649.703125" xlink:href="#DejaVuSans-99"/>
      <use x="704.683594" xlink:href="#DejaVuSans-117"/>
      <use x="768.0625" xlink:href="#DejaVuSans-114"/>
      <use x="809.175781" xlink:href="#DejaVuSans-97"/>
      <use x="870.455078" xlink:href="#DejaVuSans-99"/>
      <use x="925.435547" xlink:href="#DejaVuSans-121"/>
     </g>
    </g>
   </g>
   <g id="line2d_9">
    <path clip-path="url(#p699bf1bd8d)" d="M 275.4 122.174148 
L 275.4 122.154766 
" style="fill:none;stroke:#3f3f3f;stroke-linecap:square;stroke-width:2.25;"/>
   </g>
   <g id="line2d_10">
    <path clip-path="url(#p699bf1bd8d)" d="M 275.4 122.167413 
L 275.4 122.161088 
" style="fill:none;stroke:#3f3f3f;stroke-linecap:square;stroke-width:6.75;"/>
   </g>
   <g id="line2d_11">
    <path clip-path="url(#p699bf1bd8d)" d="M 610.2 307.682355 
L 610.2 122.157645 
" style="fill:none;stroke:#3f3f3f;stroke-linecap:square;stroke-width:2.25;"/>
   </g>
   <g id="line2d_12">
    <path clip-path="url(#p699bf1bd8d)" d="M 610.2 271.440445 
L 610.2 122.16743 
" style="fill:none;stroke:#3f3f3f;stroke-linecap:square;stroke-width:6.75;"/>
   </g>
   <g id="patch_3">
    <path d="M 108 378 
L 108 51.84 
" style="fill:none;stroke:#000000;stroke-linecap:square;stroke-linejoin:miter;stroke-width:1.875;"/>
   </g>
   <g id="patch_4">
    <path d="M 777.6 378 
L 777.6 51.84 
" style="fill:none;stroke:#000000;stroke-linecap:square;stroke-linejoin:miter;stroke-width:1.875;"/>
   </g>
   <g id="patch_5">
    <path d="M 108 378 
L 777.6 378 
" style="fill:none;stroke:#000000;stroke-linecap:square;stroke-linejoin:miter;stroke-width:1.875;"/>
   </g>
   <g id="patch_6">
    <path d="M 108 51.84 
L 777.6 51.84 
" style="fill:none;stroke:#000000;stroke-linecap:square;stroke-linejoin:miter;stroke-width:1.875;"/>
   </g>
   <g id="PathCollection_1">
    <defs>
     <path d="M 0 2.25 
C 0.596707 2.25 1.169055 2.012926 1.59099 1.59099 
C 2.012926 1.169055 2.25 0.596707 2.25 0 
C 2.25 -0.596707 2.012926 -1.169055 1.59099 -1.59099 
C 1.169055 -2.012926 0.596707 -2.25 0 -2.25 
C -0.596707 -2.25 -1.169055 -2.012926 -1.59099 -1.59099 
C -2.012926 -1.169055 -2.25 -0.596707 -2.25 0 
C -2.25 0.596707 -2.012926 1.169055 -1.59099 1.59099 
C -1.169055 2.012926 -0.596707 2.25 0 2.25 
z
" id="mbaa5089ba1" style="stroke:#3f3f3f;stroke-width:1.5;"/>
    </defs>
    <g clip-path="url(#p699bf1bd8d)">
     <use style="fill:#ffffff;stroke:#3f3f3f;stroke-width:1.5;" x="275.4" xlink:href="#mbaa5089ba1" y="122.163416"/>
    </g>
   </g>
   <g id="PathCollection_2">
    <g clip-path="url(#p699bf1bd8d)">
     <use style="fill:#ffffff;stroke:#3f3f3f;stroke-width:1.5;" x="610.2" xlink:href="#mbaa5089ba1" y="268.456596"/>
    </g>
   </g>
  </g>
 </g>
 <defs>
  <clipPath id="p699bf1bd8d">
   <rect height="326.16" width="669.6" x="108" y="51.84"/>
  </clipPath>
 </defs>
</svg>
