<?xml version="1.0" encoding="utf-8" standalone="no"?>
<!DOCTYPE svg PUBLIC "-//W3C//DTD SVG 1.1//EN"
  "http://www.w3.org/Graphics/SVG/1.1/DTD/svg11.dtd">
<!-- Created with matplotlib (https://matplotlib.org/) -->
<svg height="432pt" version="1.1" viewBox="0 0 864 432" width="864pt" xmlns="http://www.w3.org/2000/svg" xmlns:xlink="http://www.w3.org/1999/xlink">
 <metadata>
  <rdf:RDF xmlns:cc="http://creativecommons.org/ns#" xmlns:dc="http://purl.org/dc/elements/1.1/" xmlns:rdf="http://www.w3.org/1999/02/22-rdf-syntax-ns#">
   <cc:Work>
    <dc:type rdf:resource="http://purl.org/dc/dcmitype/StillImage"/>
    <dc:date>2023-04-16T12:02:31.296638</dc:date>
    <dc:format>image/svg+xml</dc:format>
    <dc:creator>
     <cc:Agent>
      <dc:title>Matplotlib v3.3.4, https://matplotlib.org/</dc:title>
     </cc:Agent>
    </dc:creator>
   </cc:Work>
  </rdf:RDF>
 </metadata>
 <defs>
  <style type="text/css">*{stroke-linecap:butt;stroke-linejoin:round;}</style>
 </defs>
 <g id="figure_1">
  <g id="patch_1">
   <path d="M 0 432 
L 864 432 
L 864 0 
L 0 0 
z
" style="fill:none;"/>
  </g>
  <g id="axes_1">
   <g id="patch_2">
    <path d="M 108 378 
L 777.6 378 
L 777.6 51.84 
L 108 51.84 
z
" style="fill:#ffffff;"/>
   </g>
   <g id="PolyCollection_1">
    <defs>
     <path d="M 219.815792 -121.607486 
L 219.384208 -121.607486 
L 219.305434 -123.876099 
L 219.204235 -126.144712 
L 219.076551 -128.413324 
L 218.918344 -130.681937 
L 218.725875 -132.950549 
L 218.496034 -135.219162 
L 218.226717 -137.487775 
L 217.917224 -139.756387 
L 217.568641 -142.025 
L 217.184173 -144.293612 
L 216.769371 -146.562225 
L 216.332222 -148.830838 
L 215.883044 -151.09945 
L 215.434179 -153.368063 
L 214.999464 -155.636675 
L 214.593505 -157.905288 
L 214.230801 -160.173901 
L 213.92479 -162.442513 
L 213.686904 -164.711126 
L 213.52573 -166.979738 
L 213.446369 -169.248351 
L 213.450055 -171.516963 
L 213.53408 -173.785576 
L 213.692012 -176.054189 
L 213.91418 -178.322801 
L 214.188336 -180.591414 
L 214.500421 -182.860026 
L 214.835328 -185.128639 
L 215.177597 -187.397252 
L 215.51198 -189.665864 
L 215.823858 -191.934477 
L 216.099539 -194.203089 
L 216.326468 -196.471702 
L 216.493414 -198.740315 
L 216.590693 -201.008927 
L 216.610465 -203.27754 
L 216.547116 -205.546152 
L 216.397709 -207.814765 
L 216.162447 -210.083378 
L 215.845067 -212.35199 
L 215.45308 -214.620603 
L 214.997782 -216.889215 
L 214.493972 -219.157828 
L 213.95937 -221.426441 
L 213.413757 -223.695053 
L 212.877915 -225.963666 
L 212.372464 -228.232278 
L 211.916715 -230.500891 
L 211.527655 -232.769504 
L 211.219148 -235.038116 
L 211.00141 -237.306729 
L 210.880744 -239.575341 
L 210.859522 -241.843954 
L 210.936306 -244.112566 
L 211.106034 -246.381179 
L 211.360168 -248.649792 
L 211.686702 -250.918404 
L 212.069971 -253.187017 
L 212.490216 -255.455629 
L 212.922895 -257.724242 
L 213.337752 -259.992855 
L 213.697706 -262.261467 
L 213.957666 -264.53008 
L 214.063415 -266.798692 
L 213.950813 -269.067305 
L 213.545617 -271.335918 
L 212.764286 -273.60453 
L 211.516184 -275.873143 
L 209.707562 -278.141755 
L 207.247584 -280.410368 
L 204.056441 -282.678981 
L 200.07529 -284.947593 
L 195.277347 -287.216206 
L 189.679051 -289.484818 
L 183.349866 -291.753431 
L 176.419061 -294.022044 
L 169.077855 -296.290656 
L 161.575592 -298.559269 
L 154.20924 -300.827881 
L 147.306327 -303.096494 
L 141.20241 -305.365106 
L 136.215104 -307.633719 
L 132.617422 -309.902332 
L 130.613539 -312.170944 
L 130.32 -314.439557 
L 131.754804 -316.708169 
L 134.835818 -318.976782 
L 139.388733 -321.245395 
L 145.163511 -323.514007 
L 151.857196 -325.78262 
L 159.140185 -328.051232 
L 166.682838 -330.319845 
L 174.179471 -332.588458 
L 181.367416 -334.85707 
L 188.039719 -337.125683 
L 194.051007 -339.394295 
L 199.316991 -341.662908 
L 203.808744 -343.931521 
L 207.543351 -346.200133 
L 231.656649 -346.200133 
L 231.656649 -346.200133 
L 235.391256 -343.931521 
L 239.883009 -341.662908 
L 245.148993 -339.394295 
L 251.160281 -337.125683 
L 257.832584 -334.85707 
L 265.020529 -332.588458 
L 272.517162 -330.319845 
L 280.059815 -328.051232 
L 287.342804 -325.78262 
L 294.036489 -323.514007 
L 299.811267 -321.245395 
L 304.364182 -318.976782 
L 307.445196 -316.708169 
L 308.88 -314.439557 
L 308.586461 -312.170944 
L 306.582578 -309.902332 
L 302.984896 -307.633719 
L 297.99759 -305.365106 
L 291.893673 -303.096494 
L 284.99076 -300.827881 
L 277.624408 -298.559269 
L 270.122145 -296.290656 
L 262.780939 -294.022044 
L 255.850134 -291.753431 
L 249.520949 -289.484818 
L 243.922653 -287.216206 
L 239.12471 -284.947593 
L 235.143559 -282.678981 
L 231.952416 -280.410368 
L 229.492438 -278.141755 
L 227.683816 -275.873143 
L 226.435714 -273.60453 
L 225.654383 -271.335918 
L 225.249187 -269.067305 
L 225.136585 -266.798692 
L 225.242334 -264.53008 
L 225.502294 -262.261467 
L 225.862248 -259.992855 
L 226.277105 -257.724242 
L 226.709784 -255.455629 
L 227.130029 -253.187017 
L 227.513298 -250.918404 
L 227.839832 -248.649792 
L 228.093966 -246.381179 
L 228.263694 -244.112566 
L 228.340478 -241.843954 
L 228.319256 -239.575341 
L 228.19859 -237.306729 
L 227.980852 -235.038116 
L 227.672345 -232.769504 
L 227.283285 -230.500891 
L 226.827536 -228.232278 
L 226.322085 -225.963666 
L 225.786243 -223.695053 
L 225.24063 -221.426441 
L 224.706028 -219.157828 
L 224.202218 -216.889215 
L 223.74692 -214.620603 
L 223.354933 -212.35199 
L 223.037553 -210.083378 
L 222.802291 -207.814765 
L 222.652884 -205.546152 
L 222.589535 -203.27754 
L 222.609307 -201.008927 
L 222.706586 -198.740315 
L 222.873532 -196.471702 
L 223.100461 -194.203089 
L 223.376142 -191.934477 
L 223.68802 -189.665864 
L 224.022403 -187.397252 
L 224.364672 -185.128639 
L 224.699579 -182.860026 
L 225.011664 -180.591414 
L 225.28582 -178.322801 
L 225.507988 -176.054189 
L 225.66592 -173.785576 
L 225.749945 -171.516963 
L 225.753631 -169.248351 
L 225.67427 -166.979738 
L 225.513096 -164.711126 
L 225.27521 -162.442513 
L 224.969199 -160.173901 
L 224.606495 -157.905288 
L 224.200536 -155.636675 
L 223.765821 -153.368063 
L 223.316956 -151.09945 
L 222.867778 -148.830838 
L 222.430629 -146.562225 
L 222.015827 -144.293612 
L 221.631359 -142.025 
L 221.282776 -139.756387 
L 220.973283 -137.487775 
L 220.703966 -135.219162 
L 220.474125 -132.950549 
L 220.281656 -130.681937 
L 220.123449 -128.413324 
L 219.995765 -126.144712 
L 219.894566 -123.876099 
L 219.815792 -121.607486 
z
" id="ma9ed216b9a" style="stroke:#3d3d3d;stroke-width:2.25;"/>
    </defs>
    <g clip-path="url(#p967953d991)">
     <use style="fill:#3274a1;stroke:#3d3d3d;stroke-width:2.25;" x="0" xlink:href="#ma9ed216b9a" y="432"/>
    </g>
   </g>
   <g id="PolyCollection_2">
    <defs>
     <path d="M 442.997051 -68.825455 
L 442.602949 -68.825455 
L 442.537365 -71.818315 
L 442.452954 -74.811174 
L 442.345208 -77.804034 
L 442.208772 -80.796894 
L 442.037341 -83.789754 
L 441.823564 -86.782614 
L 441.558965 -89.775474 
L 441.233885 -92.768334 
L 440.837483 -95.761194 
L 440.357787 -98.754054 
L 439.781857 -101.746914 
L 439.096041 -104.739774 
L 438.286396 -107.732634 
L 437.339251 -110.725494 
L 436.241956 -113.718354 
L 434.983789 -116.711214 
L 433.55702 -119.704074 
L 431.958075 -122.696934 
L 430.188748 -125.689794 
L 428.257352 -128.682654 
L 426.179731 -131.675514 
L 423.979981 -134.668374 
L 421.690793 -137.661234 
L 419.353279 -140.654094 
L 417.016229 -143.646954 
L 414.734728 -146.639814 
L 412.568177 -149.632674 
L 410.577751 -152.625534 
L 408.823456 -155.618394 
L 407.36094 -158.611254 
L 406.238306 -161.604114 
L 405.493149 -164.596974 
L 405.150084 -167.589834 
L 405.21896 -170.582693 
L 405.693944 -173.575553 
L 406.553571 -176.568413 
L 407.761763 -179.561273 
L 409.269783 -182.554133 
L 411.01895 -185.546993 
L 412.943926 -188.539853 
L 414.976335 -191.532713 
L 417.048423 -194.525573 
L 419.096524 -197.518433 
L 421.064092 -200.511293 
L 422.904105 -203.504153 
L 424.580733 -206.497013 
L 426.070198 -209.489873 
L 427.360825 -212.482733 
L 428.452353 -215.475593 
L 429.354592 -218.468453 
L 430.085576 -221.461313 
L 430.669364 -224.454173 
L 431.133651 -227.447033 
L 431.507353 -230.439893 
L 431.818324 -233.432753 
L 432.091319 -236.425613 
L 432.346326 -239.418473 
L 432.597345 -242.411333 
L 432.851657 -245.404193 
L 433.10961 -248.397053 
L 433.364921 -251.389913 
L 433.605445 -254.382773 
L 433.814368 -257.375633 
L 433.971743 -260.368493 
L 434.056258 -263.361352 
L 434.04715 -266.354212 
L 433.926133 -269.347072 
L 433.679218 -272.339932 
L 433.298315 -275.332792 
L 432.782494 -278.325652 
L 432.138814 -281.318512 
L 431.382636 -284.311372 
L 430.537378 -287.304232 
L 429.633692 -290.297092 
L 428.708091 -293.289952 
L 427.801101 -296.282812 
L 426.955045 -299.275672 
L 426.211606 -302.268532 
L 425.60935 -305.261392 
L 425.181391 -308.254252 
L 424.953386 -311.247112 
L 424.942007 -314.239972 
L 425.154025 -317.232832 
L 425.58607 -320.225692 
L 426.225065 -323.218552 
L 427.049308 -326.211412 
L 428.030059 -329.204272 
L 429.133523 -332.197132 
L 430.323025 -335.189992 
L 431.561207 -338.182852 
L 432.812079 -341.175712 
L 434.042778 -344.168572 
L 435.224927 -347.161432 
L 436.33555 -350.154292 
L 437.357517 -353.147152 
L 438.279559 -356.140012 
L 439.095917 -359.132871 
L 439.805698 -362.125731 
L 440.412055 -365.118591 
L 445.187945 -365.118591 
L 445.187945 -365.118591 
L 445.794302 -362.125731 
L 446.504083 -359.132871 
L 447.320441 -356.140012 
L 448.242483 -353.147152 
L 449.26445 -350.154292 
L 450.375073 -347.161432 
L 451.557222 -344.168572 
L 452.787921 -341.175712 
L 454.038793 -338.182852 
L 455.276975 -335.189992 
L 456.466477 -332.197132 
L 457.569941 -329.204272 
L 458.550692 -326.211412 
L 459.374935 -323.218552 
L 460.01393 -320.225692 
L 460.445975 -317.232832 
L 460.657993 -314.239972 
L 460.646614 -311.247112 
L 460.418609 -308.254252 
L 459.99065 -305.261392 
L 459.388394 -302.268532 
L 458.644955 -299.275672 
L 457.798899 -296.282812 
L 456.891909 -293.289952 
L 455.966308 -290.297092 
L 455.062622 -287.304232 
L 454.217364 -284.311372 
L 453.461186 -281.318512 
L 452.817506 -278.325652 
L 452.301685 -275.332792 
L 451.920782 -272.339932 
L 451.673867 -269.347072 
L 451.55285 -266.354212 
L 451.543742 -263.361352 
L 451.628257 -260.368493 
L 451.785632 -257.375633 
L 451.994555 -254.382773 
L 452.235079 -251.389913 
L 452.49039 -248.397053 
L 452.748343 -245.404193 
L 453.002655 -242.411333 
L 453.253674 -239.418473 
L 453.508681 -236.425613 
L 453.781676 -233.432753 
L 454.092647 -230.439893 
L 454.466349 -227.447033 
L 454.930636 -224.454173 
L 455.514424 -221.461313 
L 456.245408 -218.468453 
L 457.147647 -215.475593 
L 458.239175 -212.482733 
L 459.529802 -209.489873 
L 461.019267 -206.497013 
L 462.695895 -203.504153 
L 464.535908 -200.511293 
L 466.503476 -197.518433 
L 468.551577 -194.525573 
L 470.623665 -191.532713 
L 472.656074 -188.539853 
L 474.58105 -185.546993 
L 476.330217 -182.554133 
L 477.838237 -179.561273 
L 479.046429 -176.568413 
L 479.906056 -173.575553 
L 480.38104 -170.582693 
L 480.449916 -167.589834 
L 480.106851 -164.596974 
L 479.361694 -161.604114 
L 478.23906 -158.611254 
L 476.776544 -155.618394 
L 475.022249 -152.625534 
L 473.031823 -149.632674 
L 470.865272 -146.639814 
L 468.583771 -143.646954 
L 466.246721 -140.654094 
L 463.909207 -137.661234 
L 461.620019 -134.668374 
L 459.420269 -131.675514 
L 457.342648 -128.682654 
L 455.411252 -125.689794 
L 453.641925 -122.696934 
L 452.04298 -119.704074 
L 450.616211 -116.711214 
L 449.358044 -113.718354 
L 448.260749 -110.725494 
L 447.313604 -107.732634 
L 446.503959 -104.739774 
L 445.818143 -101.746914 
L 445.242213 -98.754054 
L 444.762517 -95.761194 
L 444.366115 -92.768334 
L 444.041035 -89.775474 
L 443.776436 -86.782614 
L 443.562659 -83.789754 
L 443.391228 -80.796894 
L 443.254792 -77.804034 
L 443.147046 -74.811174 
L 443.062635 -71.818315 
L 442.997051 -68.825455 
z
" id="mac8cd1e8b1" style="stroke:#3d3d3d;stroke-width:2.25;"/>
    </defs>
    <g clip-path="url(#p967953d991)">
     <use style="fill:#e1812c;stroke:#3d3d3d;stroke-width:2.25;" x="0" xlink:href="#mac8cd1e8b1" y="432"/>
    </g>
   </g>
   <g id="PolyCollection_3">
    <defs>
     <path d="M 666.60544 -90.112826 
L 665.39456 -90.112826 
L 665.20249 -92.892844 
L 664.959159 -95.672861 
L 664.654087 -98.452879 
L 664.275629 -101.232896 
L 663.81113 -104.012913 
L 663.247194 -106.792931 
L 662.570067 -109.572948 
L 661.766152 -112.352965 
L 660.822654 -115.132983 
L 659.728346 -117.913 
L 658.47444 -120.693017 
L 657.05553 -123.473035 
L 655.47055 -126.253052 
L 653.723702 -129.03307 
L 651.825268 -131.813087 
L 649.792241 -134.593104 
L 647.648691 -137.373122 
L 645.425791 -140.153139 
L 643.161458 -142.933156 
L 640.899559 -145.713174 
L 638.688684 -148.493191 
L 636.580506 -151.273208 
L 634.627797 -154.053226 
L 632.882179 -156.833243 
L 631.391759 -159.613261 
L 630.198763 -162.393278 
L 629.337352 -165.173295 
L 628.83176 -167.953313 
L 628.694891 -170.73333 
L 628.927487 -173.513347 
L 629.517934 -176.293365 
L 630.442741 -179.073382 
L 631.667644 -181.853399 
L 633.149293 -184.633417 
L 634.837391 -187.413434 
L 636.677143 -190.193452 
L 638.611876 -192.973469 
L 640.585627 -195.753486 
L 642.545584 -198.533504 
L 644.444202 -201.313521 
L 646.240922 -204.093538 
L 647.903382 -206.873556 
L 649.408116 -209.653573 
L 650.740714 -212.43359 
L 651.895497 -215.213608 
L 652.874745 -217.993625 
L 653.68758 -220.773643 
L 654.348572 -223.55366 
L 654.876198 -226.333677 
L 655.29122 -229.113695 
L 655.615098 -231.893712 
L 655.868508 -234.673729 
L 656.070042 -237.453747 
L 656.235136 -240.233764 
L 656.375273 -243.013781 
L 656.497488 -245.793799 
L 656.60417 -248.573816 
L 656.69318 -251.353834 
L 656.758253 -254.133851 
L 656.789664 -256.913868 
L 656.775124 -259.693886 
L 656.70085 -262.473903 
L 656.552769 -265.25392 
L 656.317784 -268.033938 
L 655.985037 -270.813955 
L 655.5471 -273.593972 
L 655.001016 -276.37399 
L 654.349126 -279.154007 
L 653.59961 -281.934025 
L 652.766702 -284.714042 
L 651.870522 -287.494059 
L 650.936534 -290.274077 
L 649.994623 -293.054094 
L 649.07784 -295.834111 
L 648.220865 -298.614129 
L 647.458298 -301.394146 
L 646.822867 -304.174163 
L 646.343682 -306.954181 
L 646.044653 -309.734198 
L 645.943188 -312.514216 
L 646.04926 -315.294233 
L 646.364911 -318.07425 
L 646.884224 -320.854268 
L 647.593764 -323.634285 
L 648.47344 -326.414302 
L 649.497718 -329.19432 
L 650.637092 -331.974337 
L 651.859692 -334.754354 
L 653.132922 -337.534372 
L 654.425009 -340.314389 
L 655.706369 -343.094407 
L 656.950723 -345.874424 
L 658.135903 -348.654441 
L 659.244346 -351.434459 
L 660.263267 -354.214476 
L 661.18455 -356.994493 
L 662.004409 -359.774511 
L 662.722863 -362.554528 
L 663.343096 -365.334545 
L 668.656904 -365.334545 
L 668.656904 -365.334545 
L 669.277137 -362.554528 
L 669.995591 -359.774511 
L 670.81545 -356.994493 
L 671.736733 -354.214476 
L 672.755654 -351.434459 
L 673.864097 -348.654441 
L 675.049277 -345.874424 
L 676.293631 -343.094407 
L 677.574991 -340.314389 
L 678.867078 -337.534372 
L 680.140308 -334.754354 
L 681.362908 -331.974337 
L 682.502282 -329.19432 
L 683.52656 -326.414302 
L 684.406236 -323.634285 
L 685.115776 -320.854268 
L 685.635089 -318.07425 
L 685.95074 -315.294233 
L 686.056812 -312.514216 
L 685.955347 -309.734198 
L 685.656318 -306.954181 
L 685.177133 -304.174163 
L 684.541702 -301.394146 
L 683.779135 -298.614129 
L 682.92216 -295.834111 
L 682.005377 -293.054094 
L 681.063466 -290.274077 
L 680.129478 -287.494059 
L 679.233298 -284.714042 
L 678.40039 -281.934025 
L 677.650874 -279.154007 
L 676.998984 -276.37399 
L 676.4529 -273.593972 
L 676.014963 -270.813955 
L 675.682216 -268.033938 
L 675.447231 -265.25392 
L 675.29915 -262.473903 
L 675.224876 -259.693886 
L 675.210336 -256.913868 
L 675.241747 -254.133851 
L 675.30682 -251.353834 
L 675.39583 -248.573816 
L 675.502512 -245.793799 
L 675.624727 -243.013781 
L 675.764864 -240.233764 
L 675.929958 -237.453747 
L 676.131492 -234.673729 
L 676.384902 -231.893712 
L 676.70878 -229.113695 
L 677.123802 -226.333677 
L 677.651428 -223.55366 
L 678.31242 -220.773643 
L 679.125255 -217.993625 
L 680.104503 -215.213608 
L 681.259286 -212.43359 
L 682.591884 -209.653573 
L 684.096618 -206.873556 
L 685.759078 -204.093538 
L 687.555798 -201.313521 
L 689.454416 -198.533504 
L 691.414373 -195.753486 
L 693.388124 -192.973469 
L 695.322857 -190.193452 
L 697.162609 -187.413434 
L 698.850707 -184.633417 
L 700.332356 -181.853399 
L 701.557259 -179.073382 
L 702.482066 -176.293365 
L 703.072513 -173.513347 
L 703.305109 -170.73333 
L 703.16824 -167.953313 
L 702.662648 -165.173295 
L 701.801237 -162.393278 
L 700.608241 -159.613261 
L 699.117821 -156.833243 
L 697.372203 -154.053226 
L 695.419494 -151.273208 
L 693.311316 -148.493191 
L 691.100441 -145.713174 
L 688.838542 -142.933156 
L 686.574209 -140.153139 
L 684.351309 -137.373122 
L 682.207759 -134.593104 
L 680.174732 -131.813087 
L 678.276298 -129.03307 
L 676.52945 -126.253052 
L 674.94447 -123.473035 
L 673.52556 -120.693017 
L 672.271654 -117.913 
L 671.177346 -115.132983 
L 670.233848 -112.352965 
L 669.429933 -109.572948 
L 668.752806 -106.792931 
L 668.18887 -104.012913 
L 667.724371 -101.232896 
L 667.345913 -98.452879 
L 667.040841 -95.672861 
L 666.79751 -92.892844 
L 666.60544 -90.112826 
z
" id="m97c5031dd0" style="stroke:#3d3d3d;stroke-width:2.25;"/>
    </defs>
    <g clip-path="url(#p967953d991)">
     <use style="fill:#3a923a;stroke:#3d3d3d;stroke-width:2.25;" x="0" xlink:href="#m97c5031dd0" y="432"/>
    </g>
   </g>
   <g id="matplotlib.axis_1">
    <g id="xtick_1">
     <g id="line2d_1">
      <defs>
       <path d="M 0 0 
L 0 9 
" id="me29859c8f2" style="stroke:#000000;stroke-width:1.875;"/>
      </defs>
      <g>
       <use style="stroke:#000000;stroke-width:1.875;" x="219.6" xlink:href="#me29859c8f2" y="378"/>
      </g>
     </g>
     <g id="text_1">
      <!-- early -->
      <g transform="translate(198.901523 403.037422)scale(0.165 -0.165)">
       <defs>
        <path d="M 56.203125 29.59375 
L 56.203125 25.203125 
L 14.890625 25.203125 
Q 15.484375 15.921875 20.484375 11.0625 
Q 25.484375 6.203125 34.421875 6.203125 
Q 39.59375 6.203125 44.453125 7.46875 
Q 49.3125 8.734375 54.109375 11.28125 
L 54.109375 2.78125 
Q 49.265625 0.734375 44.1875 -0.34375 
Q 39.109375 -1.421875 33.890625 -1.421875 
Q 20.796875 -1.421875 13.15625 6.1875 
Q 5.515625 13.8125 5.515625 26.8125 
Q 5.515625 40.234375 12.765625 48.109375 
Q 20.015625 56 32.328125 56 
Q 43.359375 56 49.78125 48.890625 
Q 56.203125 41.796875 56.203125 29.59375 
z
M 47.21875 32.234375 
Q 47.125 39.59375 43.09375 43.984375 
Q 39.0625 48.390625 32.421875 48.390625 
Q 24.90625 48.390625 20.390625 44.140625 
Q 15.875 39.890625 15.1875 32.171875 
z
" id="DejaVuSans-101"/>
        <path d="M 34.28125 27.484375 
Q 23.390625 27.484375 19.1875 25 
Q 14.984375 22.515625 14.984375 16.5 
Q 14.984375 11.71875 18.140625 8.90625 
Q 21.296875 6.109375 26.703125 6.109375 
Q 34.1875 6.109375 38.703125 11.40625 
Q 43.21875 16.703125 43.21875 25.484375 
L 43.21875 27.484375 
z
M 52.203125 31.203125 
L 52.203125 0 
L 43.21875 0 
L 43.21875 8.296875 
Q 40.140625 3.328125 35.546875 0.953125 
Q 30.953125 -1.421875 24.3125 -1.421875 
Q 15.921875 -1.421875 10.953125 3.296875 
Q 6 8.015625 6 15.921875 
Q 6 25.140625 12.171875 29.828125 
Q 18.359375 34.515625 30.609375 34.515625 
L 43.21875 34.515625 
L 43.21875 35.40625 
Q 43.21875 41.609375 39.140625 45 
Q 35.0625 48.390625 27.6875 48.390625 
Q 23 48.390625 18.546875 47.265625 
Q 14.109375 46.140625 10.015625 43.890625 
L 10.015625 52.203125 
Q 14.9375 54.109375 19.578125 55.046875 
Q 24.21875 56 28.609375 56 
Q 40.484375 56 46.34375 49.84375 
Q 52.203125 43.703125 52.203125 31.203125 
z
" id="DejaVuSans-97"/>
        <path d="M 41.109375 46.296875 
Q 39.59375 47.171875 37.8125 47.578125 
Q 36.03125 48 33.890625 48 
Q 26.265625 48 22.1875 43.046875 
Q 18.109375 38.09375 18.109375 28.8125 
L 18.109375 0 
L 9.078125 0 
L 9.078125 54.6875 
L 18.109375 54.6875 
L 18.109375 46.1875 
Q 20.953125 51.171875 25.484375 53.578125 
Q 30.03125 56 36.53125 56 
Q 37.453125 56 38.578125 55.875 
Q 39.703125 55.765625 41.0625 55.515625 
z
" id="DejaVuSans-114"/>
        <path d="M 9.421875 75.984375 
L 18.40625 75.984375 
L 18.40625 0 
L 9.421875 0 
z
" id="DejaVuSans-108"/>
        <path d="M 32.171875 -5.078125 
Q 28.375 -14.84375 24.75 -17.8125 
Q 21.140625 -20.796875 15.09375 -20.796875 
L 7.90625 -20.796875 
L 7.90625 -13.28125 
L 13.1875 -13.28125 
Q 16.890625 -13.28125 18.9375 -11.515625 
Q 21 -9.765625 23.484375 -3.21875 
L 25.09375 0.875 
L 2.984375 54.6875 
L 12.5 54.6875 
L 29.59375 11.921875 
L 46.6875 54.6875 
L 56.203125 54.6875 
z
" id="DejaVuSans-121"/>
       </defs>
       <use xlink:href="#DejaVuSans-101"/>
       <use x="61.523438" xlink:href="#DejaVuSans-97"/>
       <use x="122.802734" xlink:href="#DejaVuSans-114"/>
       <use x="163.916016" xlink:href="#DejaVuSans-108"/>
       <use x="191.699219" xlink:href="#DejaVuSans-121"/>
      </g>
     </g>
    </g>
    <g id="xtick_2">
     <g id="line2d_2">
      <g>
       <use style="stroke:#000000;stroke-width:1.875;" x="442.8" xlink:href="#me29859c8f2" y="378"/>
      </g>
     </g>
     <g id="text_2">
      <!-- late -->
      <g transform="translate(427.141758 403.037422)scale(0.165 -0.165)">
       <defs>
        <path d="M 18.3125 70.21875 
L 18.3125 54.6875 
L 36.8125 54.6875 
L 36.8125 47.703125 
L 18.3125 47.703125 
L 18.3125 18.015625 
Q 18.3125 11.328125 20.140625 9.421875 
Q 21.96875 7.515625 27.59375 7.515625 
L 36.8125 7.515625 
L 36.8125 0 
L 27.59375 0 
Q 17.1875 0 13.234375 3.875 
Q 9.28125 7.765625 9.28125 18.015625 
L 9.28125 47.703125 
L 2.6875 47.703125 
L 2.6875 54.6875 
L 9.28125 54.6875 
L 9.28125 70.21875 
z
" id="DejaVuSans-116"/>
       </defs>
       <use xlink:href="#DejaVuSans-108"/>
       <use x="27.783203" xlink:href="#DejaVuSans-97"/>
       <use x="89.0625" xlink:href="#DejaVuSans-116"/>
       <use x="128.271484" xlink:href="#DejaVuSans-101"/>
      </g>
     </g>
    </g>
    <g id="xtick_3">
     <g id="line2d_3">
      <g>
       <use style="stroke:#000000;stroke-width:1.875;" x="666" xlink:href="#me29859c8f2" y="378"/>
      </g>
     </g>
     <g id="text_3">
      <!-- middle -->
      <g transform="translate(637.828828 403.037422)scale(0.165 -0.165)">
       <defs>
        <path d="M 52 44.1875 
Q 55.375 50.25 60.0625 53.125 
Q 64.75 56 71.09375 56 
Q 79.640625 56 84.28125 50.015625 
Q 88.921875 44.046875 88.921875 33.015625 
L 88.921875 0 
L 79.890625 0 
L 79.890625 32.71875 
Q 79.890625 40.578125 77.09375 44.375 
Q 74.3125 48.1875 68.609375 48.1875 
Q 61.625 48.1875 57.5625 43.546875 
Q 53.515625 38.921875 53.515625 30.90625 
L 53.515625 0 
L 44.484375 0 
L 44.484375 32.71875 
Q 44.484375 40.625 41.703125 44.40625 
Q 38.921875 48.1875 33.109375 48.1875 
Q 26.21875 48.1875 22.15625 43.53125 
Q 18.109375 38.875 18.109375 30.90625 
L 18.109375 0 
L 9.078125 0 
L 9.078125 54.6875 
L 18.109375 54.6875 
L 18.109375 46.1875 
Q 21.1875 51.21875 25.484375 53.609375 
Q 29.78125 56 35.6875 56 
Q 41.65625 56 45.828125 52.96875 
Q 50 49.953125 52 44.1875 
z
" id="DejaVuSans-109"/>
        <path d="M 9.421875 54.6875 
L 18.40625 54.6875 
L 18.40625 0 
L 9.421875 0 
z
M 9.421875 75.984375 
L 18.40625 75.984375 
L 18.40625 64.59375 
L 9.421875 64.59375 
z
" id="DejaVuSans-105"/>
        <path d="M 45.40625 46.390625 
L 45.40625 75.984375 
L 54.390625 75.984375 
L 54.390625 0 
L 45.40625 0 
L 45.40625 8.203125 
Q 42.578125 3.328125 38.25 0.953125 
Q 33.9375 -1.421875 27.875 -1.421875 
Q 17.96875 -1.421875 11.734375 6.484375 
Q 5.515625 14.40625 5.515625 27.296875 
Q 5.515625 40.1875 11.734375 48.09375 
Q 17.96875 56 27.875 56 
Q 33.9375 56 38.25 53.625 
Q 42.578125 51.265625 45.40625 46.390625 
z
M 14.796875 27.296875 
Q 14.796875 17.390625 18.875 11.75 
Q 22.953125 6.109375 30.078125 6.109375 
Q 37.203125 6.109375 41.296875 11.75 
Q 45.40625 17.390625 45.40625 27.296875 
Q 45.40625 37.203125 41.296875 42.84375 
Q 37.203125 48.484375 30.078125 48.484375 
Q 22.953125 48.484375 18.875 42.84375 
Q 14.796875 37.203125 14.796875 27.296875 
z
" id="DejaVuSans-100"/>
       </defs>
       <use xlink:href="#DejaVuSans-109"/>
       <use x="97.412109" xlink:href="#DejaVuSans-105"/>
       <use x="125.195312" xlink:href="#DejaVuSans-100"/>
       <use x="188.671875" xlink:href="#DejaVuSans-100"/>
       <use x="252.148438" xlink:href="#DejaVuSans-108"/>
       <use x="279.931641" xlink:href="#DejaVuSans-101"/>
      </g>
     </g>
    </g>
    <g id="text_4">
     <!-- condition -->
     <g transform="translate(401.187656 424.146094)scale(0.18 -0.18)">
      <defs>
       <path d="M 48.78125 52.59375 
L 48.78125 44.1875 
Q 44.96875 46.296875 41.140625 47.34375 
Q 37.3125 48.390625 33.40625 48.390625 
Q 24.65625 48.390625 19.8125 42.84375 
Q 14.984375 37.3125 14.984375 27.296875 
Q 14.984375 17.28125 19.8125 11.734375 
Q 24.65625 6.203125 33.40625 6.203125 
Q 37.3125 6.203125 41.140625 7.25 
Q 44.96875 8.296875 48.78125 10.40625 
L 48.78125 2.09375 
Q 45.015625 0.34375 40.984375 -0.53125 
Q 36.96875 -1.421875 32.421875 -1.421875 
Q 20.0625 -1.421875 12.78125 6.34375 
Q 5.515625 14.109375 5.515625 27.296875 
Q 5.515625 40.671875 12.859375 48.328125 
Q 20.21875 56 33.015625 56 
Q 37.15625 56 41.109375 55.140625 
Q 45.0625 54.296875 48.78125 52.59375 
z
" id="DejaVuSans-99"/>
       <path d="M 30.609375 48.390625 
Q 23.390625 48.390625 19.1875 42.75 
Q 14.984375 37.109375 14.984375 27.296875 
Q 14.984375 17.484375 19.15625 11.84375 
Q 23.34375 6.203125 30.609375 6.203125 
Q 37.796875 6.203125 41.984375 11.859375 
Q 46.1875 17.53125 46.1875 27.296875 
Q 46.1875 37.015625 41.984375 42.703125 
Q 37.796875 48.390625 30.609375 48.390625 
z
M 30.609375 56 
Q 42.328125 56 49.015625 48.375 
Q 55.71875 40.765625 55.71875 27.296875 
Q 55.71875 13.875 49.015625 6.21875 
Q 42.328125 -1.421875 30.609375 -1.421875 
Q 18.84375 -1.421875 12.171875 6.21875 
Q 5.515625 13.875 5.515625 27.296875 
Q 5.515625 40.765625 12.171875 48.375 
Q 18.84375 56 30.609375 56 
z
" id="DejaVuSans-111"/>
       <path d="M 54.890625 33.015625 
L 54.890625 0 
L 45.90625 0 
L 45.90625 32.71875 
Q 45.90625 40.484375 42.875 44.328125 
Q 39.84375 48.1875 33.796875 48.1875 
Q 26.515625 48.1875 22.3125 43.546875 
Q 18.109375 38.921875 18.109375 30.90625 
L 18.109375 0 
L 9.078125 0 
L 9.078125 54.6875 
L 18.109375 54.6875 
L 18.109375 46.1875 
Q 21.34375 51.125 25.703125 53.5625 
Q 30.078125 56 35.796875 56 
Q 45.21875 56 50.046875 50.171875 
Q 54.890625 44.34375 54.890625 33.015625 
z
" id="DejaVuSans-110"/>
      </defs>
      <use xlink:href="#DejaVuSans-99"/>
      <use x="54.980469" xlink:href="#DejaVuSans-111"/>
      <use x="116.162109" xlink:href="#DejaVuSans-110"/>
      <use x="179.541016" xlink:href="#DejaVuSans-100"/>
      <use x="243.017578" xlink:href="#DejaVuSans-105"/>
      <use x="270.800781" xlink:href="#DejaVuSans-116"/>
      <use x="310.009766" xlink:href="#DejaVuSans-105"/>
      <use x="337.792969" xlink:href="#DejaVuSans-111"/>
      <use x="398.974609" xlink:href="#DejaVuSans-110"/>
     </g>
    </g>
   </g>
   <g id="matplotlib.axis_2">
    <g id="ytick_1">
     <g id="line2d_4">
      <defs>
       <path d="M 0 0 
L -9 0 
" id="m9d006d6701" style="stroke:#000000;stroke-width:1.875;"/>
      </defs>
      <g>
       <use style="stroke:#000000;stroke-width:1.875;" x="108" xlink:href="#m9d006d6701" y="351.008379"/>
      </g>
     </g>
     <g id="text_5">
      <!-- 0.2 -->
      <g transform="translate(69.259844 357.27709)scale(0.165 -0.165)">
       <defs>
        <path d="M 31.78125 66.40625 
Q 24.171875 66.40625 20.328125 58.90625 
Q 16.5 51.421875 16.5 36.375 
Q 16.5 21.390625 20.328125 13.890625 
Q 24.171875 6.390625 31.78125 6.390625 
Q 39.453125 6.390625 43.28125 13.890625 
Q 47.125 21.390625 47.125 36.375 
Q 47.125 51.421875 43.28125 58.90625 
Q 39.453125 66.40625 31.78125 66.40625 
z
M 31.78125 74.21875 
Q 44.046875 74.21875 50.515625 64.515625 
Q 56.984375 54.828125 56.984375 36.375 
Q 56.984375 17.96875 50.515625 8.265625 
Q 44.046875 -1.421875 31.78125 -1.421875 
Q 19.53125 -1.421875 13.0625 8.265625 
Q 6.59375 17.96875 6.59375 36.375 
Q 6.59375 54.828125 13.0625 64.515625 
Q 19.53125 74.21875 31.78125 74.21875 
z
" id="DejaVuSans-48"/>
        <path d="M 10.6875 12.40625 
L 21 12.40625 
L 21 0 
L 10.6875 0 
z
" id="DejaVuSans-46"/>
        <path d="M 19.1875 8.296875 
L 53.609375 8.296875 
L 53.609375 0 
L 7.328125 0 
L 7.328125 8.296875 
Q 12.9375 14.109375 22.625 23.890625 
Q 32.328125 33.6875 34.8125 36.53125 
Q 39.546875 41.84375 41.421875 45.53125 
Q 43.3125 49.21875 43.3125 52.78125 
Q 43.3125 58.59375 39.234375 62.25 
Q 35.15625 65.921875 28.609375 65.921875 
Q 23.96875 65.921875 18.8125 64.3125 
Q 13.671875 62.703125 7.8125 59.421875 
L 7.8125 69.390625 
Q 13.765625 71.78125 18.9375 73 
Q 24.125 74.21875 28.421875 74.21875 
Q 39.75 74.21875 46.484375 68.546875 
Q 53.21875 62.890625 53.21875 53.421875 
Q 53.21875 48.921875 51.53125 44.890625 
Q 49.859375 40.875 45.40625 35.40625 
Q 44.1875 33.984375 37.640625 27.21875 
Q 31.109375 20.453125 19.1875 8.296875 
z
" id="DejaVuSans-50"/>
       </defs>
       <use xlink:href="#DejaVuSans-48"/>
       <use x="63.623047" xlink:href="#DejaVuSans-46"/>
       <use x="95.410156" xlink:href="#DejaVuSans-50"/>
      </g>
     </g>
    </g>
    <g id="ytick_2">
     <g id="line2d_5">
      <g>
       <use style="stroke:#000000;stroke-width:1.875;" x="108" xlink:href="#m9d006d6701" y="291.406575"/>
      </g>
     </g>
     <g id="text_6">
      <!-- 0.4 -->
      <g transform="translate(69.259844 297.675286)scale(0.165 -0.165)">
       <defs>
        <path d="M 37.796875 64.3125 
L 12.890625 25.390625 
L 37.796875 25.390625 
z
M 35.203125 72.90625 
L 47.609375 72.90625 
L 47.609375 25.390625 
L 58.015625 25.390625 
L 58.015625 17.1875 
L 47.609375 17.1875 
L 47.609375 0 
L 37.796875 0 
L 37.796875 17.1875 
L 4.890625 17.1875 
L 4.890625 26.703125 
z
" id="DejaVuSans-52"/>
       </defs>
       <use xlink:href="#DejaVuSans-48"/>
       <use x="63.623047" xlink:href="#DejaVuSans-46"/>
       <use x="95.410156" xlink:href="#DejaVuSans-52"/>
      </g>
     </g>
    </g>
    <g id="ytick_3">
     <g id="line2d_6">
      <g>
       <use style="stroke:#000000;stroke-width:1.875;" x="108" xlink:href="#m9d006d6701" y="231.80477"/>
      </g>
     </g>
     <g id="text_7">
      <!-- 0.6 -->
      <g transform="translate(69.259844 238.073481)scale(0.165 -0.165)">
       <defs>
        <path d="M 33.015625 40.375 
Q 26.375 40.375 22.484375 35.828125 
Q 18.609375 31.296875 18.609375 23.390625 
Q 18.609375 15.53125 22.484375 10.953125 
Q 26.375 6.390625 33.015625 6.390625 
Q 39.65625 6.390625 43.53125 10.953125 
Q 47.40625 15.53125 47.40625 23.390625 
Q 47.40625 31.296875 43.53125 35.828125 
Q 39.65625 40.375 33.015625 40.375 
z
M 52.59375 71.296875 
L 52.59375 62.3125 
Q 48.875 64.0625 45.09375 64.984375 
Q 41.3125 65.921875 37.59375 65.921875 
Q 27.828125 65.921875 22.671875 59.328125 
Q 17.53125 52.734375 16.796875 39.40625 
Q 19.671875 43.65625 24.015625 45.921875 
Q 28.375 48.1875 33.59375 48.1875 
Q 44.578125 48.1875 50.953125 41.515625 
Q 57.328125 34.859375 57.328125 23.390625 
Q 57.328125 12.15625 50.6875 5.359375 
Q 44.046875 -1.421875 33.015625 -1.421875 
Q 20.359375 -1.421875 13.671875 8.265625 
Q 6.984375 17.96875 6.984375 36.375 
Q 6.984375 53.65625 15.1875 63.9375 
Q 23.390625 74.21875 37.203125 74.21875 
Q 40.921875 74.21875 44.703125 73.484375 
Q 48.484375 72.75 52.59375 71.296875 
z
" id="DejaVuSans-54"/>
       </defs>
       <use xlink:href="#DejaVuSans-48"/>
       <use x="63.623047" xlink:href="#DejaVuSans-46"/>
       <use x="95.410156" xlink:href="#DejaVuSans-54"/>
      </g>
     </g>
    </g>
    <g id="ytick_4">
     <g id="line2d_7">
      <g>
       <use style="stroke:#000000;stroke-width:1.875;" x="108" xlink:href="#m9d006d6701" y="172.202966"/>
      </g>
     </g>
     <g id="text_8">
      <!-- 0.8 -->
      <g transform="translate(69.259844 178.471677)scale(0.165 -0.165)">
       <defs>
        <path d="M 31.78125 34.625 
Q 24.75 34.625 20.71875 30.859375 
Q 16.703125 27.09375 16.703125 20.515625 
Q 16.703125 13.921875 20.71875 10.15625 
Q 24.75 6.390625 31.78125 6.390625 
Q 38.8125 6.390625 42.859375 10.171875 
Q 46.921875 13.96875 46.921875 20.515625 
Q 46.921875 27.09375 42.890625 30.859375 
Q 38.875 34.625 31.78125 34.625 
z
M 21.921875 38.8125 
Q 15.578125 40.375 12.03125 44.71875 
Q 8.5 49.078125 8.5 55.328125 
Q 8.5 64.0625 14.71875 69.140625 
Q 20.953125 74.21875 31.78125 74.21875 
Q 42.671875 74.21875 48.875 69.140625 
Q 55.078125 64.0625 55.078125 55.328125 
Q 55.078125 49.078125 51.53125 44.71875 
Q 48 40.375 41.703125 38.8125 
Q 48.828125 37.15625 52.796875 32.3125 
Q 56.78125 27.484375 56.78125 20.515625 
Q 56.78125 9.90625 50.3125 4.234375 
Q 43.84375 -1.421875 31.78125 -1.421875 
Q 19.734375 -1.421875 13.25 4.234375 
Q 6.78125 9.90625 6.78125 20.515625 
Q 6.78125 27.484375 10.78125 32.3125 
Q 14.796875 37.15625 21.921875 38.8125 
z
M 18.3125 54.390625 
Q 18.3125 48.734375 21.84375 45.5625 
Q 25.390625 42.390625 31.78125 42.390625 
Q 38.140625 42.390625 41.71875 45.5625 
Q 45.3125 48.734375 45.3125 54.390625 
Q 45.3125 60.0625 41.71875 63.234375 
Q 38.140625 66.40625 31.78125 66.40625 
Q 25.390625 66.40625 21.84375 63.234375 
Q 18.3125 60.0625 18.3125 54.390625 
z
" id="DejaVuSans-56"/>
       </defs>
       <use xlink:href="#DejaVuSans-48"/>
       <use x="63.623047" xlink:href="#DejaVuSans-46"/>
       <use x="95.410156" xlink:href="#DejaVuSans-56"/>
      </g>
     </g>
    </g>
    <g id="ytick_5">
     <g id="line2d_8">
      <g>
       <use style="stroke:#000000;stroke-width:1.875;" x="108" xlink:href="#m9d006d6701" y="112.601161"/>
      </g>
     </g>
     <g id="text_9">
      <!-- 1.0 -->
      <g transform="translate(69.259844 118.869872)scale(0.165 -0.165)">
       <defs>
        <path d="M 12.40625 8.296875 
L 28.515625 8.296875 
L 28.515625 63.921875 
L 10.984375 60.40625 
L 10.984375 69.390625 
L 28.421875 72.90625 
L 38.28125 72.90625 
L 38.28125 8.296875 
L 54.390625 8.296875 
L 54.390625 0 
L 12.40625 0 
z
" id="DejaVuSans-49"/>
       </defs>
       <use xlink:href="#DejaVuSans-49"/>
       <use x="63.623047" xlink:href="#DejaVuSans-46"/>
       <use x="95.410156" xlink:href="#DejaVuSans-48"/>
      </g>
     </g>
    </g>
    <g id="ytick_6">
     <g id="line2d_9">
      <g>
       <use style="stroke:#000000;stroke-width:1.875;" x="108" xlink:href="#m9d006d6701" y="52.999357"/>
      </g>
     </g>
     <g id="text_10">
      <!-- 1.2 -->
      <g transform="translate(69.259844 59.268068)scale(0.165 -0.165)">
       <use xlink:href="#DejaVuSans-49"/>
       <use x="63.623047" xlink:href="#DejaVuSans-46"/>
       <use x="95.410156" xlink:href="#DejaVuSans-50"/>
      </g>
     </g>
    </g>
    <g id="text_11">
     <!-- prediction accuracy -->
     <g transform="translate(61.516406 303.537656)rotate(-90)scale(0.18 -0.18)">
      <defs>
       <path d="M 18.109375 8.203125 
L 18.109375 -20.796875 
L 9.078125 -20.796875 
L 9.078125 54.6875 
L 18.109375 54.6875 
L 18.109375 46.390625 
Q 20.953125 51.265625 25.265625 53.625 
Q 29.59375 56 35.59375 56 
Q 45.5625 56 51.78125 48.09375 
Q 58.015625 40.1875 58.015625 27.296875 
Q 58.015625 14.40625 51.78125 6.484375 
Q 45.5625 -1.421875 35.59375 -1.421875 
Q 29.59375 -1.421875 25.265625 0.953125 
Q 20.953125 3.328125 18.109375 8.203125 
z
M 48.6875 27.296875 
Q 48.6875 37.203125 44.609375 42.84375 
Q 40.53125 48.484375 33.40625 48.484375 
Q 26.265625 48.484375 22.1875 42.84375 
Q 18.109375 37.203125 18.109375 27.296875 
Q 18.109375 17.390625 22.1875 11.75 
Q 26.265625 6.109375 33.40625 6.109375 
Q 40.53125 6.109375 44.609375 11.75 
Q 48.6875 17.390625 48.6875 27.296875 
z
" id="DejaVuSans-112"/>
       <path id="DejaVuSans-32"/>
       <path d="M 8.5 21.578125 
L 8.5 54.6875 
L 17.484375 54.6875 
L 17.484375 21.921875 
Q 17.484375 14.15625 20.5 10.265625 
Q 23.53125 6.390625 29.59375 6.390625 
Q 36.859375 6.390625 41.078125 11.03125 
Q 45.3125 15.671875 45.3125 23.6875 
L 45.3125 54.6875 
L 54.296875 54.6875 
L 54.296875 0 
L 45.3125 0 
L 45.3125 8.40625 
Q 42.046875 3.421875 37.71875 1 
Q 33.40625 -1.421875 27.6875 -1.421875 
Q 18.265625 -1.421875 13.375 4.4375 
Q 8.5 10.296875 8.5 21.578125 
z
M 31.109375 56 
z
" id="DejaVuSans-117"/>
      </defs>
      <use xlink:href="#DejaVuSans-112"/>
      <use x="63.476562" xlink:href="#DejaVuSans-114"/>
      <use x="102.339844" xlink:href="#DejaVuSans-101"/>
      <use x="163.863281" xlink:href="#DejaVuSans-100"/>
      <use x="227.339844" xlink:href="#DejaVuSans-105"/>
      <use x="255.123047" xlink:href="#DejaVuSans-99"/>
      <use x="310.103516" xlink:href="#DejaVuSans-116"/>
      <use x="349.3125" xlink:href="#DejaVuSans-105"/>
      <use x="377.095703" xlink:href="#DejaVuSans-111"/>
      <use x="438.277344" xlink:href="#DejaVuSans-110"/>
      <use x="501.65625" xlink:href="#DejaVuSans-32"/>
      <use x="533.443359" xlink:href="#DejaVuSans-97"/>
      <use x="594.722656" xlink:href="#DejaVuSans-99"/>
      <use x="649.703125" xlink:href="#DejaVuSans-99"/>
      <use x="704.683594" xlink:href="#DejaVuSans-117"/>
      <use x="768.0625" xlink:href="#DejaVuSans-114"/>
      <use x="809.175781" xlink:href="#DejaVuSans-97"/>
      <use x="870.455078" xlink:href="#DejaVuSans-99"/>
      <use x="925.435547" xlink:href="#DejaVuSans-121"/>
     </g>
    </g>
   </g>
   <g id="line2d_10">
    <path clip-path="url(#p967953d991)" d="M 219.6 118.307905 
L 219.6 118.28048 
" style="fill:none;stroke:#3d3d3d;stroke-linecap:square;stroke-width:2.25;"/>
   </g>
   <g id="line2d_11">
    <path clip-path="url(#p967953d991)" d="M 219.6 118.301676 
L 219.6 118.290437 
" style="fill:none;stroke:#3d3d3d;stroke-linecap:square;stroke-width:6.75;"/>
   </g>
   <g id="line2d_12">
    <path clip-path="url(#p967953d991)" d="M 442.8 311.771492 
L 442.8 118.284462 
" style="fill:none;stroke:#3d3d3d;stroke-linecap:square;stroke-width:2.25;"/>
   </g>
   <g id="line2d_13">
    <path clip-path="url(#p967953d991)" d="M 442.8 262.698791 
L 442.8 118.786084 
" style="fill:none;stroke:#3d3d3d;stroke-linecap:square;stroke-width:6.75;"/>
   </g>
   <g id="line2d_14">
    <path clip-path="url(#p967953d991)" d="M 666 290.276619 
L 666 118.276009 
" style="fill:none;stroke:#3d3d3d;stroke-linecap:square;stroke-width:2.25;"/>
   </g>
   <g id="line2d_15">
    <path clip-path="url(#p967953d991)" d="M 666 262.185213 
L 666 118.303546 
" style="fill:none;stroke:#3d3d3d;stroke-linecap:square;stroke-width:6.75;"/>
   </g>
   <g id="patch_3">
    <path d="M 108 378 
L 108 51.84 
" style="fill:none;stroke:#000000;stroke-linecap:square;stroke-linejoin:miter;stroke-width:1.875;"/>
   </g>
   <g id="patch_4">
    <path d="M 777.6 378 
L 777.6 51.84 
" style="fill:none;stroke:#000000;stroke-linecap:square;stroke-linejoin:miter;stroke-width:1.875;"/>
   </g>
   <g id="patch_5">
    <path d="M 108 378 
L 777.6 378 
" style="fill:none;stroke:#000000;stroke-linecap:square;stroke-linejoin:miter;stroke-width:1.875;"/>
   </g>
   <g id="patch_6">
    <path d="M 108 51.84 
L 777.6 51.84 
" style="fill:none;stroke:#000000;stroke-linecap:square;stroke-linejoin:miter;stroke-width:1.875;"/>
   </g>
   <g id="PathCollection_1">
    <defs>
     <path d="M 0 2.25 
C 0.596707 2.25 1.169055 2.012926 1.59099 1.59099 
C 2.012926 1.169055 2.25 0.596707 2.25 0 
C 2.25 -0.596707 2.012926 -1.169055 1.59099 -1.59099 
C 1.169055 -2.012926 0.596707 -2.25 0 -2.25 
C -0.596707 -2.25 -1.169055 -2.012926 -1.59099 -1.59099 
C -2.012926 -1.169055 -2.25 -0.596707 -2.25 0 
C -2.25 0.596707 -2.012926 1.169055 -1.59099 1.59099 
C -1.169055 2.012926 -0.596707 2.25 0 2.25 
z
" id="mb0fd6b45d3" style="stroke:#3d3d3d;stroke-width:1.5;"/>
    </defs>
    <g clip-path="url(#p967953d991)">
     <use style="fill:#ffffff;stroke:#3d3d3d;stroke-width:1.5;" x="219.6" xlink:href="#mb0fd6b45d3" y="118.293204"/>
    </g>
   </g>
   <g id="PathCollection_2">
    <g clip-path="url(#p967953d991)">
     <use style="fill:#ffffff;stroke:#3d3d3d;stroke-width:1.5;" x="442.8" xlink:href="#mb0fd6b45d3" y="257.744827"/>
    </g>
   </g>
   <g id="PathCollection_3">
    <g clip-path="url(#p967953d991)">
     <use style="fill:#ffffff;stroke:#3d3d3d;stroke-width:1.5;" x="666" xlink:href="#mb0fd6b45d3" y="254.45019"/>
    </g>
   </g>
  </g>
 </g>
 <defs>
  <clipPath id="p967953d991">
   <rect height="326.16" width="669.6" x="108" y="51.84"/>
  </clipPath>
 </defs>
</svg>
