<?xml version="1.0" encoding="utf-8" standalone="no"?>
<!DOCTYPE svg PUBLIC "-//W3C//DTD SVG 1.1//EN"
  "http://www.w3.org/Graphics/SVG/1.1/DTD/svg11.dtd">
<svg xmlns:xlink="http://www.w3.org/1999/xlink" width="864pt" height="432pt" viewBox="0 0 864 432" xmlns="http://www.w3.org/2000/svg" version="1.1">
 <metadata>
  <rdf:RDF xmlns:dc="http://purl.org/dc/elements/1.1/" xmlns:cc="http://creativecommons.org/ns#" xmlns:rdf="http://www.w3.org/1999/02/22-rdf-syntax-ns#">
   <cc:Work>
    <dc:type rdf:resource="http://purl.org/dc/dcmitype/StillImage"/>
    <dc:date>2023-05-03T14:22:30.703066</dc:date>
    <dc:format>image/svg+xml</dc:format>
    <dc:creator>
     <cc:Agent>
      <dc:title>Matplotlib v3.5.1, https://matplotlib.org/</dc:title>
     </cc:Agent>
    </dc:creator>
   </cc:Work>
  </rdf:RDF>
 </metadata>
 <defs>
  <style type="text/css">*{stroke-linejoin: round; stroke-linecap: butt}</style>
 </defs>
 <g id="figure_1">
  <g id="patch_1">
   <path d="M 0 432 
L 864 432 
L 864 0 
L 0 0 
L 0 432 
z
" style="fill: none"/>
  </g>
  <g id="axes_1">
   <g id="patch_2">
    <path d="M 108 378 
L 777.6 378 
L 777.6 51.84 
L 108 51.84 
z
" style="fill: #ffffff"/>
   </g>
   <g id="PolyCollection_1">
    <defs>
     <path id="m2d55bedc55" d="M 219.815792 -121.607486 
L 219.384208 -121.607486 
L 219.305434 -123.876099 
L 219.204235 -126.144712 
L 219.076551 -128.413324 
L 218.918344 -130.681937 
L 218.725875 -132.950549 
L 218.496034 -135.219162 
L 218.226717 -137.487775 
L 217.917224 -139.756387 
L 217.568641 -142.025 
L 217.184173 -144.293612 
L 216.769371 -146.562225 
L 216.332222 -148.830838 
L 215.883044 -151.09945 
L 215.434179 -153.368063 
L 214.999464 -155.636675 
L 214.593505 -157.905288 
L 214.230801 -160.173901 
L 213.92479 -162.442513 
L 213.686904 -164.711126 
L 213.52573 -166.979738 
L 213.446369 -169.248351 
L 213.450055 -171.516963 
L 213.53408 -173.785576 
L 213.692012 -176.054189 
L 213.91418 -178.322801 
L 214.188336 -180.591414 
L 214.500421 -182.860026 
L 214.835328 -185.128639 
L 215.177597 -187.397252 
L 215.51198 -189.665864 
L 215.823858 -191.934477 
L 216.099539 -194.203089 
L 216.326468 -196.471702 
L 216.493414 -198.740315 
L 216.590693 -201.008927 
L 216.610465 -203.27754 
L 216.547116 -205.546152 
L 216.397709 -207.814765 
L 216.162447 -210.083378 
L 215.845067 -212.35199 
L 215.45308 -214.620603 
L 214.997782 -216.889215 
L 214.493972 -219.157828 
L 213.95937 -221.426441 
L 213.413757 -223.695053 
L 212.877915 -225.963666 
L 212.372464 -228.232278 
L 211.916715 -230.500891 
L 211.527655 -232.769504 
L 211.219148 -235.038116 
L 211.00141 -237.306729 
L 210.880744 -239.575341 
L 210.859522 -241.843954 
L 210.936306 -244.112566 
L 211.106034 -246.381179 
L 211.360168 -248.649792 
L 211.686702 -250.918404 
L 212.069971 -253.187017 
L 212.490216 -255.455629 
L 212.922895 -257.724242 
L 213.337752 -259.992855 
L 213.697706 -262.261467 
L 213.957666 -264.53008 
L 214.063415 -266.798692 
L 213.950813 -269.067305 
L 213.545617 -271.335918 
L 212.764286 -273.60453 
L 211.516184 -275.873143 
L 209.707562 -278.141755 
L 207.247584 -280.410368 
L 204.056441 -282.678981 
L 200.07529 -284.947593 
L 195.277347 -287.216206 
L 189.679051 -289.484818 
L 183.349866 -291.753431 
L 176.419061 -294.022044 
L 169.077855 -296.290656 
L 161.575592 -298.559269 
L 154.20924 -300.827881 
L 147.306327 -303.096494 
L 141.20241 -305.365106 
L 136.215104 -307.633719 
L 132.617422 -309.902332 
L 130.613539 -312.170944 
L 130.32 -314.439557 
L 131.754804 -316.708169 
L 134.835818 -318.976782 
L 139.388733 -321.245395 
L 145.163511 -323.514007 
L 151.857196 -325.78262 
L 159.140185 -328.051232 
L 166.682838 -330.319845 
L 174.179471 -332.588458 
L 181.367416 -334.85707 
L 188.039719 -337.125683 
L 194.051007 -339.394295 
L 199.316991 -341.662908 
L 203.808744 -343.931521 
L 207.543351 -346.200133 
L 231.656649 -346.200133 
L 231.656649 -346.200133 
L 235.391256 -343.931521 
L 239.883009 -341.662908 
L 245.148993 -339.394295 
L 251.160281 -337.125683 
L 257.832584 -334.85707 
L 265.020529 -332.588458 
L 272.517162 -330.319845 
L 280.059815 -328.051232 
L 287.342804 -325.78262 
L 294.036489 -323.514007 
L 299.811267 -321.245395 
L 304.364182 -318.976782 
L 307.445196 -316.708169 
L 308.88 -314.439557 
L 308.586461 -312.170944 
L 306.582578 -309.902332 
L 302.984896 -307.633719 
L 297.99759 -305.365106 
L 291.893673 -303.096494 
L 284.99076 -300.827881 
L 277.624408 -298.559269 
L 270.122145 -296.290656 
L 262.780939 -294.022044 
L 255.850134 -291.753431 
L 249.520949 -289.484818 
L 243.922653 -287.216206 
L 239.12471 -284.947593 
L 235.143559 -282.678981 
L 231.952416 -280.410368 
L 229.492438 -278.141755 
L 227.683816 -275.873143 
L 226.435714 -273.60453 
L 225.654383 -271.335918 
L 225.249187 -269.067305 
L 225.136585 -266.798692 
L 225.242334 -264.53008 
L 225.502294 -262.261467 
L 225.862248 -259.992855 
L 226.277105 -257.724242 
L 226.709784 -255.455629 
L 227.130029 -253.187017 
L 227.513298 -250.918404 
L 227.839832 -248.649792 
L 228.093966 -246.381179 
L 228.263694 -244.112566 
L 228.340478 -241.843954 
L 228.319256 -239.575341 
L 228.19859 -237.306729 
L 227.980852 -235.038116 
L 227.672345 -232.769504 
L 227.283285 -230.500891 
L 226.827536 -228.232278 
L 226.322085 -225.963666 
L 225.786243 -223.695053 
L 225.24063 -221.426441 
L 224.706028 -219.157828 
L 224.202218 -216.889215 
L 223.74692 -214.620603 
L 223.354933 -212.35199 
L 223.037553 -210.083378 
L 222.802291 -207.814765 
L 222.652884 -205.546152 
L 222.589535 -203.27754 
L 222.609307 -201.008927 
L 222.706586 -198.740315 
L 222.873532 -196.471702 
L 223.100461 -194.203089 
L 223.376142 -191.934477 
L 223.68802 -189.665864 
L 224.022403 -187.397252 
L 224.364672 -185.128639 
L 224.699579 -182.860026 
L 225.011664 -180.591414 
L 225.28582 -178.322801 
L 225.507988 -176.054189 
L 225.66592 -173.785576 
L 225.749945 -171.516963 
L 225.753631 -169.248351 
L 225.67427 -166.979738 
L 225.513096 -164.711126 
L 225.27521 -162.442513 
L 224.969199 -160.173901 
L 224.606495 -157.905288 
L 224.200536 -155.636675 
L 223.765821 -153.368063 
L 223.316956 -151.09945 
L 222.867778 -148.830838 
L 222.430629 -146.562225 
L 222.015827 -144.293612 
L 221.631359 -142.025 
L 221.282776 -139.756387 
L 220.973283 -137.487775 
L 220.703966 -135.219162 
L 220.474125 -132.950549 
L 220.281656 -130.681937 
L 220.123449 -128.413324 
L 219.995765 -126.144712 
L 219.894566 -123.876099 
L 219.815792 -121.607486 
z
" style="stroke: #3d3d3d; stroke-width: 2.25"/>
    </defs>
    <g clip-path="url(#pe4ab7cb65b)">
     <use xlink:href="#m2d55bedc55" x="0" y="432" style="fill: #3274a1; stroke: #3d3d3d; stroke-width: 2.25"/>
    </g>
   </g>
   <g id="PolyCollection_2">
    <defs>
     <path id="m21c424adf2" d="M 442.997051 -68.825455 
L 442.602949 -68.825455 
L 442.537365 -71.818315 
L 442.452954 -74.811174 
L 442.345208 -77.804034 
L 442.208772 -80.796894 
L 442.037341 -83.789754 
L 441.823564 -86.782614 
L 441.558965 -89.775474 
L 441.233885 -92.768334 
L 440.837483 -95.761194 
L 440.357787 -98.754054 
L 439.781857 -101.746914 
L 439.096041 -104.739774 
L 438.286396 -107.732634 
L 437.339251 -110.725494 
L 436.241956 -113.718354 
L 434.983789 -116.711214 
L 433.55702 -119.704074 
L 431.958075 -122.696934 
L 430.188748 -125.689794 
L 428.257352 -128.682654 
L 426.179731 -131.675514 
L 423.979981 -134.668374 
L 421.690793 -137.661234 
L 419.353279 -140.654094 
L 417.016229 -143.646954 
L 414.734728 -146.639814 
L 412.568177 -149.632674 
L 410.577751 -152.625534 
L 408.823456 -155.618394 
L 407.36094 -158.611254 
L 406.238306 -161.604114 
L 405.493149 -164.596974 
L 405.150084 -167.589834 
L 405.21896 -170.582693 
L 405.693944 -173.575553 
L 406.553571 -176.568413 
L 407.761763 -179.561273 
L 409.269783 -182.554133 
L 411.01895 -185.546993 
L 412.943926 -188.539853 
L 414.976335 -191.532713 
L 417.048423 -194.525573 
L 419.096524 -197.518433 
L 421.064092 -200.511293 
L 422.904105 -203.504153 
L 424.580733 -206.497013 
L 426.070198 -209.489873 
L 427.360825 -212.482733 
L 428.452353 -215.475593 
L 429.354592 -218.468453 
L 430.085576 -221.461313 
L 430.669364 -224.454173 
L 431.133651 -227.447033 
L 431.507353 -230.439893 
L 431.818324 -233.432753 
L 432.091319 -236.425613 
L 432.346326 -239.418473 
L 432.597345 -242.411333 
L 432.851657 -245.404193 
L 433.10961 -248.397053 
L 433.364921 -251.389913 
L 433.605445 -254.382773 
L 433.814368 -257.375633 
L 433.971743 -260.368493 
L 434.056258 -263.361352 
L 434.04715 -266.354212 
L 433.926133 -269.347072 
L 433.679218 -272.339932 
L 433.298315 -275.332792 
L 432.782494 -278.325652 
L 432.138814 -281.318512 
L 431.382636 -284.311372 
L 430.537378 -287.304232 
L 429.633692 -290.297092 
L 428.708091 -293.289952 
L 427.801101 -296.282812 
L 426.955045 -299.275672 
L 426.211606 -302.268532 
L 425.60935 -305.261392 
L 425.181391 -308.254252 
L 424.953386 -311.247112 
L 424.942007 -314.239972 
L 425.154025 -317.232832 
L 425.58607 -320.225692 
L 426.225065 -323.218552 
L 427.049308 -326.211412 
L 428.030059 -329.204272 
L 429.133523 -332.197132 
L 430.323025 -335.189992 
L 431.561207 -338.182852 
L 432.812079 -341.175712 
L 434.042778 -344.168572 
L 435.224927 -347.161432 
L 436.33555 -350.154292 
L 437.357517 -353.147152 
L 438.279559 -356.140012 
L 439.095917 -359.132871 
L 439.805698 -362.125731 
L 440.412055 -365.118591 
L 445.187945 -365.118591 
L 445.187945 -365.118591 
L 445.794302 -362.125731 
L 446.504083 -359.132871 
L 447.320441 -356.140012 
L 448.242483 -353.147152 
L 449.26445 -350.154292 
L 450.375073 -347.161432 
L 451.557222 -344.168572 
L 452.787921 -341.175712 
L 454.038793 -338.182852 
L 455.276975 -335.189992 
L 456.466477 -332.197132 
L 457.569941 -329.204272 
L 458.550692 -326.211412 
L 459.374935 -323.218552 
L 460.01393 -320.225692 
L 460.445975 -317.232832 
L 460.657993 -314.239972 
L 460.646614 -311.247112 
L 460.418609 -308.254252 
L 459.99065 -305.261392 
L 459.388394 -302.268532 
L 458.644955 -299.275672 
L 457.798899 -296.282812 
L 456.891909 -293.289952 
L 455.966308 -290.297092 
L 455.062622 -287.304232 
L 454.217364 -284.311372 
L 453.461186 -281.318512 
L 452.817506 -278.325652 
L 452.301685 -275.332792 
L 451.920782 -272.339932 
L 451.673867 -269.347072 
L 451.55285 -266.354212 
L 451.543742 -263.361352 
L 451.628257 -260.368493 
L 451.785632 -257.375633 
L 451.994555 -254.382773 
L 452.235079 -251.389913 
L 452.49039 -248.397053 
L 452.748343 -245.404193 
L 453.002655 -242.411333 
L 453.253674 -239.418473 
L 453.508681 -236.425613 
L 453.781676 -233.432753 
L 454.092647 -230.439893 
L 454.466349 -227.447033 
L 454.930636 -224.454173 
L 455.514424 -221.461313 
L 456.245408 -218.468453 
L 457.147647 -215.475593 
L 458.239175 -212.482733 
L 459.529802 -209.489873 
L 461.019267 -206.497013 
L 462.695895 -203.504153 
L 464.535908 -200.511293 
L 466.503476 -197.518433 
L 468.551577 -194.525573 
L 470.623665 -191.532713 
L 472.656074 -188.539853 
L 474.58105 -185.546993 
L 476.330217 -182.554133 
L 477.838237 -179.561273 
L 479.046429 -176.568413 
L 479.906056 -173.575553 
L 480.38104 -170.582693 
L 480.449916 -167.589834 
L 480.106851 -164.596974 
L 479.361694 -161.604114 
L 478.23906 -158.611254 
L 476.776544 -155.618394 
L 475.022249 -152.625534 
L 473.031823 -149.632674 
L 470.865272 -146.639814 
L 468.583771 -143.646954 
L 466.246721 -140.654094 
L 463.909207 -137.661234 
L 461.620019 -134.668374 
L 459.420269 -131.675514 
L 457.342648 -128.682654 
L 455.411252 -125.689794 
L 453.641925 -122.696934 
L 452.04298 -119.704074 
L 450.616211 -116.711214 
L 449.358044 -113.718354 
L 448.260749 -110.725494 
L 447.313604 -107.732634 
L 446.503959 -104.739774 
L 445.818143 -101.746914 
L 445.242213 -98.754054 
L 444.762517 -95.761194 
L 444.366115 -92.768334 
L 444.041035 -89.775474 
L 443.776436 -86.782614 
L 443.562659 -83.789754 
L 443.391228 -80.796894 
L 443.254792 -77.804034 
L 443.147046 -74.811174 
L 443.062635 -71.818315 
L 442.997051 -68.825455 
z
" style="stroke: #3d3d3d; stroke-width: 2.25"/>
    </defs>
    <g clip-path="url(#pe4ab7cb65b)">
     <use xlink:href="#m21c424adf2" x="0" y="432" style="fill: #e1812c; stroke: #3d3d3d; stroke-width: 2.25"/>
    </g>
   </g>
   <g id="PolyCollection_3">
    <defs>
     <path id="m15806fdd67" d="M 666.60544 -90.112826 
L 665.39456 -90.112826 
L 665.20249 -92.892844 
L 664.959159 -95.672861 
L 664.654087 -98.452879 
L 664.275629 -101.232896 
L 663.81113 -104.012913 
L 663.247194 -106.792931 
L 662.570067 -109.572948 
L 661.766152 -112.352965 
L 660.822654 -115.132983 
L 659.728346 -117.913 
L 658.47444 -120.693017 
L 657.05553 -123.473035 
L 655.47055 -126.253052 
L 653.723702 -129.03307 
L 651.825268 -131.813087 
L 649.792241 -134.593104 
L 647.648691 -137.373122 
L 645.425791 -140.153139 
L 643.161458 -142.933156 
L 640.899559 -145.713174 
L 638.688684 -148.493191 
L 636.580506 -151.273208 
L 634.627797 -154.053226 
L 632.882179 -156.833243 
L 631.391759 -159.613261 
L 630.198763 -162.393278 
L 629.337352 -165.173295 
L 628.83176 -167.953313 
L 628.694891 -170.73333 
L 628.927487 -173.513347 
L 629.517934 -176.293365 
L 630.442741 -179.073382 
L 631.667644 -181.853399 
L 633.149293 -184.633417 
L 634.837391 -187.413434 
L 636.677143 -190.193452 
L 638.611876 -192.973469 
L 640.585627 -195.753486 
L 642.545584 -198.533504 
L 644.444202 -201.313521 
L 646.240922 -204.093538 
L 647.903382 -206.873556 
L 649.408116 -209.653573 
L 650.740714 -212.43359 
L 651.895497 -215.213608 
L 652.874745 -217.993625 
L 653.68758 -220.773643 
L 654.348572 -223.55366 
L 654.876198 -226.333677 
L 655.29122 -229.113695 
L 655.615098 -231.893712 
L 655.868508 -234.673729 
L 656.070042 -237.453747 
L 656.235136 -240.233764 
L 656.375273 -243.013781 
L 656.497488 -245.793799 
L 656.60417 -248.573816 
L 656.69318 -251.353834 
L 656.758253 -254.133851 
L 656.789664 -256.913868 
L 656.775124 -259.693886 
L 656.70085 -262.473903 
L 656.552769 -265.25392 
L 656.317784 -268.033938 
L 655.985037 -270.813955 
L 655.5471 -273.593972 
L 655.001016 -276.37399 
L 654.349126 -279.154007 
L 653.59961 -281.934025 
L 652.766702 -284.714042 
L 651.870522 -287.494059 
L 650.936534 -290.274077 
L 649.994623 -293.054094 
L 649.07784 -295.834111 
L 648.220865 -298.614129 
L 647.458298 -301.394146 
L 646.822867 -304.174163 
L 646.343682 -306.954181 
L 646.044653 -309.734198 
L 645.943188 -312.514216 
L 646.04926 -315.294233 
L 646.364911 -318.07425 
L 646.884224 -320.854268 
L 647.593764 -323.634285 
L 648.47344 -326.414302 
L 649.497718 -329.19432 
L 650.637092 -331.974337 
L 651.859692 -334.754354 
L 653.132922 -337.534372 
L 654.425009 -340.314389 
L 655.706369 -343.094407 
L 656.950723 -345.874424 
L 658.135903 -348.654441 
L 659.244346 -351.434459 
L 660.263267 -354.214476 
L 661.18455 -356.994493 
L 662.004409 -359.774511 
L 662.722863 -362.554528 
L 663.343096 -365.334545 
L 668.656904 -365.334545 
L 668.656904 -365.334545 
L 669.277137 -362.554528 
L 669.995591 -359.774511 
L 670.81545 -356.994493 
L 671.736733 -354.214476 
L 672.755654 -351.434459 
L 673.864097 -348.654441 
L 675.049277 -345.874424 
L 676.293631 -343.094407 
L 677.574991 -340.314389 
L 678.867078 -337.534372 
L 680.140308 -334.754354 
L 681.362908 -331.974337 
L 682.502282 -329.19432 
L 683.52656 -326.414302 
L 684.406236 -323.634285 
L 685.115776 -320.854268 
L 685.635089 -318.07425 
L 685.95074 -315.294233 
L 686.056812 -312.514216 
L 685.955347 -309.734198 
L 685.656318 -306.954181 
L 685.177133 -304.174163 
L 684.541702 -301.394146 
L 683.779135 -298.614129 
L 682.92216 -295.834111 
L 682.005377 -293.054094 
L 681.063466 -290.274077 
L 680.129478 -287.494059 
L 679.233298 -284.714042 
L 678.40039 -281.934025 
L 677.650874 -279.154007 
L 676.998984 -276.37399 
L 676.4529 -273.593972 
L 676.014963 -270.813955 
L 675.682216 -268.033938 
L 675.447231 -265.25392 
L 675.29915 -262.473903 
L 675.224876 -259.693886 
L 675.210336 -256.913868 
L 675.241747 -254.133851 
L 675.30682 -251.353834 
L 675.39583 -248.573816 
L 675.502512 -245.793799 
L 675.624727 -243.013781 
L 675.764864 -240.233764 
L 675.929958 -237.453747 
L 676.131492 -234.673729 
L 676.384902 -231.893712 
L 676.70878 -229.113695 
L 677.123802 -226.333677 
L 677.651428 -223.55366 
L 678.31242 -220.773643 
L 679.125255 -217.993625 
L 680.104503 -215.213608 
L 681.259286 -212.43359 
L 682.591884 -209.653573 
L 684.096618 -206.873556 
L 685.759078 -204.093538 
L 687.555798 -201.313521 
L 689.454416 -198.533504 
L 691.414373 -195.753486 
L 693.388124 -192.973469 
L 695.322857 -190.193452 
L 697.162609 -187.413434 
L 698.850707 -184.633417 
L 700.332356 -181.853399 
L 701.557259 -179.073382 
L 702.482066 -176.293365 
L 703.072513 -173.513347 
L 703.305109 -170.73333 
L 703.16824 -167.953313 
L 702.662648 -165.173295 
L 701.801237 -162.393278 
L 700.608241 -159.613261 
L 699.117821 -156.833243 
L 697.372203 -154.053226 
L 695.419494 -151.273208 
L 693.311316 -148.493191 
L 691.100441 -145.713174 
L 688.838542 -142.933156 
L 686.574209 -140.153139 
L 684.351309 -137.373122 
L 682.207759 -134.593104 
L 680.174732 -131.813087 
L 678.276298 -129.03307 
L 676.52945 -126.253052 
L 674.94447 -123.473035 
L 673.52556 -120.693017 
L 672.271654 -117.913 
L 671.177346 -115.132983 
L 670.233848 -112.352965 
L 669.429933 -109.572948 
L 668.752806 -106.792931 
L 668.18887 -104.012913 
L 667.724371 -101.232896 
L 667.345913 -98.452879 
L 667.040841 -95.672861 
L 666.79751 -92.892844 
L 666.60544 -90.112826 
z
" style="stroke: #3d3d3d; stroke-width: 2.25"/>
    </defs>
    <g clip-path="url(#pe4ab7cb65b)">
     <use xlink:href="#m15806fdd67" x="0" y="432" style="fill: #3a923a; stroke: #3d3d3d; stroke-width: 2.25"/>
    </g>
   </g>
   <g id="matplotlib.axis_1">
    <g id="xtick_1">
     <g id="line2d_1">
      <defs>
       <path id="mf8c588d0c4" d="M 0 0 
L 0 9 
" style="stroke: #000000; stroke-width: 1.875"/>
      </defs>
      <g>
       <use xlink:href="#mf8c588d0c4" x="219.6" y="378" style="stroke: #000000; stroke-width: 1.875"/>
      </g>
     </g>
     <g id="text_1">
      <!-- early -->
      <g transform="translate(198.901523 403.037422)scale(0.165 -0.165)">
       <defs>
        <path id="DejaVuSans-65" d="M 3597 1894 
L 3597 1613 
L 953 1613 
Q 991 1019 1311 708 
Q 1631 397 2203 397 
Q 2534 397 2845 478 
Q 3156 559 3463 722 
L 3463 178 
Q 3153 47 2828 -22 
Q 2503 -91 2169 -91 
Q 1331 -91 842 396 
Q 353 884 353 1716 
Q 353 2575 817 3079 
Q 1281 3584 2069 3584 
Q 2775 3584 3186 3129 
Q 3597 2675 3597 1894 
z
M 3022 2063 
Q 3016 2534 2758 2815 
Q 2500 3097 2075 3097 
Q 1594 3097 1305 2825 
Q 1016 2553 972 2059 
L 3022 2063 
z
" transform="scale(0.015625)"/>
        <path id="DejaVuSans-61" d="M 2194 1759 
Q 1497 1759 1228 1600 
Q 959 1441 959 1056 
Q 959 750 1161 570 
Q 1363 391 1709 391 
Q 2188 391 2477 730 
Q 2766 1069 2766 1631 
L 2766 1759 
L 2194 1759 
z
M 3341 1997 
L 3341 0 
L 2766 0 
L 2766 531 
Q 2569 213 2275 61 
Q 1981 -91 1556 -91 
Q 1019 -91 701 211 
Q 384 513 384 1019 
Q 384 1609 779 1909 
Q 1175 2209 1959 2209 
L 2766 2209 
L 2766 2266 
Q 2766 2663 2505 2880 
Q 2244 3097 1772 3097 
Q 1472 3097 1187 3025 
Q 903 2953 641 2809 
L 641 3341 
Q 956 3463 1253 3523 
Q 1550 3584 1831 3584 
Q 2591 3584 2966 3190 
Q 3341 2797 3341 1997 
z
" transform="scale(0.015625)"/>
        <path id="DejaVuSans-72" d="M 2631 2963 
Q 2534 3019 2420 3045 
Q 2306 3072 2169 3072 
Q 1681 3072 1420 2755 
Q 1159 2438 1159 1844 
L 1159 0 
L 581 0 
L 581 3500 
L 1159 3500 
L 1159 2956 
Q 1341 3275 1631 3429 
Q 1922 3584 2338 3584 
Q 2397 3584 2469 3576 
Q 2541 3569 2628 3553 
L 2631 2963 
z
" transform="scale(0.015625)"/>
        <path id="DejaVuSans-6c" d="M 603 4863 
L 1178 4863 
L 1178 0 
L 603 0 
L 603 4863 
z
" transform="scale(0.015625)"/>
        <path id="DejaVuSans-79" d="M 2059 -325 
Q 1816 -950 1584 -1140 
Q 1353 -1331 966 -1331 
L 506 -1331 
L 506 -850 
L 844 -850 
Q 1081 -850 1212 -737 
Q 1344 -625 1503 -206 
L 1606 56 
L 191 3500 
L 800 3500 
L 1894 763 
L 2988 3500 
L 3597 3500 
L 2059 -325 
z
" transform="scale(0.015625)"/>
       </defs>
       <use xlink:href="#DejaVuSans-65"/>
       <use xlink:href="#DejaVuSans-61" x="61.523438"/>
       <use xlink:href="#DejaVuSans-72" x="122.802734"/>
       <use xlink:href="#DejaVuSans-6c" x="163.916016"/>
       <use xlink:href="#DejaVuSans-79" x="191.699219"/>
      </g>
     </g>
    </g>
    <g id="xtick_2">
     <g id="line2d_2">
      <g>
       <use xlink:href="#mf8c588d0c4" x="442.8" y="378" style="stroke: #000000; stroke-width: 1.875"/>
      </g>
     </g>
     <g id="text_2">
      <!-- late -->
      <g transform="translate(427.141758 403.037422)scale(0.165 -0.165)">
       <defs>
        <path id="DejaVuSans-74" d="M 1172 4494 
L 1172 3500 
L 2356 3500 
L 2356 3053 
L 1172 3053 
L 1172 1153 
Q 1172 725 1289 603 
Q 1406 481 1766 481 
L 2356 481 
L 2356 0 
L 1766 0 
Q 1100 0 847 248 
Q 594 497 594 1153 
L 594 3053 
L 172 3053 
L 172 3500 
L 594 3500 
L 594 4494 
L 1172 4494 
z
" transform="scale(0.015625)"/>
       </defs>
       <use xlink:href="#DejaVuSans-6c"/>
       <use xlink:href="#DejaVuSans-61" x="27.783203"/>
       <use xlink:href="#DejaVuSans-74" x="89.0625"/>
       <use xlink:href="#DejaVuSans-65" x="128.271484"/>
      </g>
     </g>
    </g>
    <g id="xtick_3">
     <g id="line2d_3">
      <g>
       <use xlink:href="#mf8c588d0c4" x="666" y="378" style="stroke: #000000; stroke-width: 1.875"/>
      </g>
     </g>
     <g id="text_3">
      <!-- middle -->
      <g transform="translate(637.828828 403.037422)scale(0.165 -0.165)">
       <defs>
        <path id="DejaVuSans-6d" d="M 3328 2828 
Q 3544 3216 3844 3400 
Q 4144 3584 4550 3584 
Q 5097 3584 5394 3201 
Q 5691 2819 5691 2113 
L 5691 0 
L 5113 0 
L 5113 2094 
Q 5113 2597 4934 2840 
Q 4756 3084 4391 3084 
Q 3944 3084 3684 2787 
Q 3425 2491 3425 1978 
L 3425 0 
L 2847 0 
L 2847 2094 
Q 2847 2600 2669 2842 
Q 2491 3084 2119 3084 
Q 1678 3084 1418 2786 
Q 1159 2488 1159 1978 
L 1159 0 
L 581 0 
L 581 3500 
L 1159 3500 
L 1159 2956 
Q 1356 3278 1631 3431 
Q 1906 3584 2284 3584 
Q 2666 3584 2933 3390 
Q 3200 3197 3328 2828 
z
" transform="scale(0.015625)"/>
        <path id="DejaVuSans-69" d="M 603 3500 
L 1178 3500 
L 1178 0 
L 603 0 
L 603 3500 
z
M 603 4863 
L 1178 4863 
L 1178 4134 
L 603 4134 
L 603 4863 
z
" transform="scale(0.015625)"/>
        <path id="DejaVuSans-64" d="M 2906 2969 
L 2906 4863 
L 3481 4863 
L 3481 0 
L 2906 0 
L 2906 525 
Q 2725 213 2448 61 
Q 2172 -91 1784 -91 
Q 1150 -91 751 415 
Q 353 922 353 1747 
Q 353 2572 751 3078 
Q 1150 3584 1784 3584 
Q 2172 3584 2448 3432 
Q 2725 3281 2906 2969 
z
M 947 1747 
Q 947 1113 1208 752 
Q 1469 391 1925 391 
Q 2381 391 2643 752 
Q 2906 1113 2906 1747 
Q 2906 2381 2643 2742 
Q 2381 3103 1925 3103 
Q 1469 3103 1208 2742 
Q 947 2381 947 1747 
z
" transform="scale(0.015625)"/>
       </defs>
       <use xlink:href="#DejaVuSans-6d"/>
       <use xlink:href="#DejaVuSans-69" x="97.412109"/>
       <use xlink:href="#DejaVuSans-64" x="125.195312"/>
       <use xlink:href="#DejaVuSans-64" x="188.671875"/>
       <use xlink:href="#DejaVuSans-6c" x="252.148438"/>
       <use xlink:href="#DejaVuSans-65" x="279.931641"/>
      </g>
     </g>
    </g>
    <g id="text_4">
     <!-- condition -->
     <g transform="translate(401.187656 424.146094)scale(0.18 -0.18)">
      <defs>
       <path id="DejaVuSans-63" d="M 3122 3366 
L 3122 2828 
Q 2878 2963 2633 3030 
Q 2388 3097 2138 3097 
Q 1578 3097 1268 2742 
Q 959 2388 959 1747 
Q 959 1106 1268 751 
Q 1578 397 2138 397 
Q 2388 397 2633 464 
Q 2878 531 3122 666 
L 3122 134 
Q 2881 22 2623 -34 
Q 2366 -91 2075 -91 
Q 1284 -91 818 406 
Q 353 903 353 1747 
Q 353 2603 823 3093 
Q 1294 3584 2113 3584 
Q 2378 3584 2631 3529 
Q 2884 3475 3122 3366 
z
" transform="scale(0.015625)"/>
       <path id="DejaVuSans-6f" d="M 1959 3097 
Q 1497 3097 1228 2736 
Q 959 2375 959 1747 
Q 959 1119 1226 758 
Q 1494 397 1959 397 
Q 2419 397 2687 759 
Q 2956 1122 2956 1747 
Q 2956 2369 2687 2733 
Q 2419 3097 1959 3097 
z
M 1959 3584 
Q 2709 3584 3137 3096 
Q 3566 2609 3566 1747 
Q 3566 888 3137 398 
Q 2709 -91 1959 -91 
Q 1206 -91 779 398 
Q 353 888 353 1747 
Q 353 2609 779 3096 
Q 1206 3584 1959 3584 
z
" transform="scale(0.015625)"/>
       <path id="DejaVuSans-6e" d="M 3513 2113 
L 3513 0 
L 2938 0 
L 2938 2094 
Q 2938 2591 2744 2837 
Q 2550 3084 2163 3084 
Q 1697 3084 1428 2787 
Q 1159 2491 1159 1978 
L 1159 0 
L 581 0 
L 581 3500 
L 1159 3500 
L 1159 2956 
Q 1366 3272 1645 3428 
Q 1925 3584 2291 3584 
Q 2894 3584 3203 3211 
Q 3513 2838 3513 2113 
z
" transform="scale(0.015625)"/>
      </defs>
      <use xlink:href="#DejaVuSans-63"/>
      <use xlink:href="#DejaVuSans-6f" x="54.980469"/>
      <use xlink:href="#DejaVuSans-6e" x="116.162109"/>
      <use xlink:href="#DejaVuSans-64" x="179.541016"/>
      <use xlink:href="#DejaVuSans-69" x="243.017578"/>
      <use xlink:href="#DejaVuSans-74" x="270.800781"/>
      <use xlink:href="#DejaVuSans-69" x="310.009766"/>
      <use xlink:href="#DejaVuSans-6f" x="337.792969"/>
      <use xlink:href="#DejaVuSans-6e" x="398.974609"/>
     </g>
    </g>
   </g>
   <g id="matplotlib.axis_2">
    <g id="ytick_1">
     <g id="line2d_4">
      <defs>
       <path id="m99a963dc4b" d="M 0 0 
L -9 0 
" style="stroke: #000000; stroke-width: 1.875"/>
      </defs>
      <g>
       <use xlink:href="#m99a963dc4b" x="108" y="351.008379" style="stroke: #000000; stroke-width: 1.875"/>
      </g>
     </g>
     <g id="text_5">
      <!-- 0.2 -->
      <g transform="translate(69.259844 357.27709)scale(0.165 -0.165)">
       <defs>
        <path id="DejaVuSans-30" d="M 2034 4250 
Q 1547 4250 1301 3770 
Q 1056 3291 1056 2328 
Q 1056 1369 1301 889 
Q 1547 409 2034 409 
Q 2525 409 2770 889 
Q 3016 1369 3016 2328 
Q 3016 3291 2770 3770 
Q 2525 4250 2034 4250 
z
M 2034 4750 
Q 2819 4750 3233 4129 
Q 3647 3509 3647 2328 
Q 3647 1150 3233 529 
Q 2819 -91 2034 -91 
Q 1250 -91 836 529 
Q 422 1150 422 2328 
Q 422 3509 836 4129 
Q 1250 4750 2034 4750 
z
" transform="scale(0.015625)"/>
        <path id="DejaVuSans-2e" d="M 684 794 
L 1344 794 
L 1344 0 
L 684 0 
L 684 794 
z
" transform="scale(0.015625)"/>
        <path id="DejaVuSans-32" d="M 1228 531 
L 3431 531 
L 3431 0 
L 469 0 
L 469 531 
Q 828 903 1448 1529 
Q 2069 2156 2228 2338 
Q 2531 2678 2651 2914 
Q 2772 3150 2772 3378 
Q 2772 3750 2511 3984 
Q 2250 4219 1831 4219 
Q 1534 4219 1204 4116 
Q 875 4013 500 3803 
L 500 4441 
Q 881 4594 1212 4672 
Q 1544 4750 1819 4750 
Q 2544 4750 2975 4387 
Q 3406 4025 3406 3419 
Q 3406 3131 3298 2873 
Q 3191 2616 2906 2266 
Q 2828 2175 2409 1742 
Q 1991 1309 1228 531 
z
" transform="scale(0.015625)"/>
       </defs>
       <use xlink:href="#DejaVuSans-30"/>
       <use xlink:href="#DejaVuSans-2e" x="63.623047"/>
       <use xlink:href="#DejaVuSans-32" x="95.410156"/>
      </g>
     </g>
    </g>
    <g id="ytick_2">
     <g id="line2d_5">
      <g>
       <use xlink:href="#m99a963dc4b" x="108" y="291.406575" style="stroke: #000000; stroke-width: 1.875"/>
      </g>
     </g>
     <g id="text_6">
      <!-- 0.4 -->
      <g transform="translate(69.259844 297.675286)scale(0.165 -0.165)">
       <defs>
        <path id="DejaVuSans-34" d="M 2419 4116 
L 825 1625 
L 2419 1625 
L 2419 4116 
z
M 2253 4666 
L 3047 4666 
L 3047 1625 
L 3713 1625 
L 3713 1100 
L 3047 1100 
L 3047 0 
L 2419 0 
L 2419 1100 
L 313 1100 
L 313 1709 
L 2253 4666 
z
" transform="scale(0.015625)"/>
       </defs>
       <use xlink:href="#DejaVuSans-30"/>
       <use xlink:href="#DejaVuSans-2e" x="63.623047"/>
       <use xlink:href="#DejaVuSans-34" x="95.410156"/>
      </g>
     </g>
    </g>
    <g id="ytick_3">
     <g id="line2d_6">
      <g>
       <use xlink:href="#m99a963dc4b" x="108" y="231.80477" style="stroke: #000000; stroke-width: 1.875"/>
      </g>
     </g>
     <g id="text_7">
      <!-- 0.6 -->
      <g transform="translate(69.259844 238.073481)scale(0.165 -0.165)">
       <defs>
        <path id="DejaVuSans-36" d="M 2113 2584 
Q 1688 2584 1439 2293 
Q 1191 2003 1191 1497 
Q 1191 994 1439 701 
Q 1688 409 2113 409 
Q 2538 409 2786 701 
Q 3034 994 3034 1497 
Q 3034 2003 2786 2293 
Q 2538 2584 2113 2584 
z
M 3366 4563 
L 3366 3988 
Q 3128 4100 2886 4159 
Q 2644 4219 2406 4219 
Q 1781 4219 1451 3797 
Q 1122 3375 1075 2522 
Q 1259 2794 1537 2939 
Q 1816 3084 2150 3084 
Q 2853 3084 3261 2657 
Q 3669 2231 3669 1497 
Q 3669 778 3244 343 
Q 2819 -91 2113 -91 
Q 1303 -91 875 529 
Q 447 1150 447 2328 
Q 447 3434 972 4092 
Q 1497 4750 2381 4750 
Q 2619 4750 2861 4703 
Q 3103 4656 3366 4563 
z
" transform="scale(0.015625)"/>
       </defs>
       <use xlink:href="#DejaVuSans-30"/>
       <use xlink:href="#DejaVuSans-2e" x="63.623047"/>
       <use xlink:href="#DejaVuSans-36" x="95.410156"/>
      </g>
     </g>
    </g>
    <g id="ytick_4">
     <g id="line2d_7">
      <g>
       <use xlink:href="#m99a963dc4b" x="108" y="172.202966" style="stroke: #000000; stroke-width: 1.875"/>
      </g>
     </g>
     <g id="text_8">
      <!-- 0.8 -->
      <g transform="translate(69.259844 178.471677)scale(0.165 -0.165)">
       <defs>
        <path id="DejaVuSans-38" d="M 2034 2216 
Q 1584 2216 1326 1975 
Q 1069 1734 1069 1313 
Q 1069 891 1326 650 
Q 1584 409 2034 409 
Q 2484 409 2743 651 
Q 3003 894 3003 1313 
Q 3003 1734 2745 1975 
Q 2488 2216 2034 2216 
z
M 1403 2484 
Q 997 2584 770 2862 
Q 544 3141 544 3541 
Q 544 4100 942 4425 
Q 1341 4750 2034 4750 
Q 2731 4750 3128 4425 
Q 3525 4100 3525 3541 
Q 3525 3141 3298 2862 
Q 3072 2584 2669 2484 
Q 3125 2378 3379 2068 
Q 3634 1759 3634 1313 
Q 3634 634 3220 271 
Q 2806 -91 2034 -91 
Q 1263 -91 848 271 
Q 434 634 434 1313 
Q 434 1759 690 2068 
Q 947 2378 1403 2484 
z
M 1172 3481 
Q 1172 3119 1398 2916 
Q 1625 2713 2034 2713 
Q 2441 2713 2670 2916 
Q 2900 3119 2900 3481 
Q 2900 3844 2670 4047 
Q 2441 4250 2034 4250 
Q 1625 4250 1398 4047 
Q 1172 3844 1172 3481 
z
" transform="scale(0.015625)"/>
       </defs>
       <use xlink:href="#DejaVuSans-30"/>
       <use xlink:href="#DejaVuSans-2e" x="63.623047"/>
       <use xlink:href="#DejaVuSans-38" x="95.410156"/>
      </g>
     </g>
    </g>
    <g id="ytick_5">
     <g id="line2d_8">
      <g>
       <use xlink:href="#m99a963dc4b" x="108" y="112.601161" style="stroke: #000000; stroke-width: 1.875"/>
      </g>
     </g>
     <g id="text_9">
      <!-- 1.0 -->
      <g transform="translate(69.259844 118.869872)scale(0.165 -0.165)">
       <defs>
        <path id="DejaVuSans-31" d="M 794 531 
L 1825 531 
L 1825 4091 
L 703 3866 
L 703 4441 
L 1819 4666 
L 2450 4666 
L 2450 531 
L 3481 531 
L 3481 0 
L 794 0 
L 794 531 
z
" transform="scale(0.015625)"/>
       </defs>
       <use xlink:href="#DejaVuSans-31"/>
       <use xlink:href="#DejaVuSans-2e" x="63.623047"/>
       <use xlink:href="#DejaVuSans-30" x="95.410156"/>
      </g>
     </g>
    </g>
    <g id="ytick_6">
     <g id="line2d_9">
      <g>
       <use xlink:href="#m99a963dc4b" x="108" y="52.999357" style="stroke: #000000; stroke-width: 1.875"/>
      </g>
     </g>
     <g id="text_10">
      <!-- 1.2 -->
      <g transform="translate(69.259844 59.268068)scale(0.165 -0.165)">
       <use xlink:href="#DejaVuSans-31"/>
       <use xlink:href="#DejaVuSans-2e" x="63.623047"/>
       <use xlink:href="#DejaVuSans-32" x="95.410156"/>
      </g>
     </g>
    </g>
    <g id="text_11">
     <!-- prediction accuracy -->
     <g transform="translate(61.516406 303.537656)rotate(-90)scale(0.18 -0.18)">
      <defs>
       <path id="DejaVuSans-70" d="M 1159 525 
L 1159 -1331 
L 581 -1331 
L 581 3500 
L 1159 3500 
L 1159 2969 
Q 1341 3281 1617 3432 
Q 1894 3584 2278 3584 
Q 2916 3584 3314 3078 
Q 3713 2572 3713 1747 
Q 3713 922 3314 415 
Q 2916 -91 2278 -91 
Q 1894 -91 1617 61 
Q 1341 213 1159 525 
z
M 3116 1747 
Q 3116 2381 2855 2742 
Q 2594 3103 2138 3103 
Q 1681 3103 1420 2742 
Q 1159 2381 1159 1747 
Q 1159 1113 1420 752 
Q 1681 391 2138 391 
Q 2594 391 2855 752 
Q 3116 1113 3116 1747 
z
" transform="scale(0.015625)"/>
       <path id="DejaVuSans-20" transform="scale(0.015625)"/>
       <path id="DejaVuSans-75" d="M 544 1381 
L 544 3500 
L 1119 3500 
L 1119 1403 
Q 1119 906 1312 657 
Q 1506 409 1894 409 
Q 2359 409 2629 706 
Q 2900 1003 2900 1516 
L 2900 3500 
L 3475 3500 
L 3475 0 
L 2900 0 
L 2900 538 
Q 2691 219 2414 64 
Q 2138 -91 1772 -91 
Q 1169 -91 856 284 
Q 544 659 544 1381 
z
M 1991 3584 
L 1991 3584 
z
" transform="scale(0.015625)"/>
      </defs>
      <use xlink:href="#DejaVuSans-70"/>
      <use xlink:href="#DejaVuSans-72" x="63.476562"/>
      <use xlink:href="#DejaVuSans-65" x="102.339844"/>
      <use xlink:href="#DejaVuSans-64" x="163.863281"/>
      <use xlink:href="#DejaVuSans-69" x="227.339844"/>
      <use xlink:href="#DejaVuSans-63" x="255.123047"/>
      <use xlink:href="#DejaVuSans-74" x="310.103516"/>
      <use xlink:href="#DejaVuSans-69" x="349.3125"/>
      <use xlink:href="#DejaVuSans-6f" x="377.095703"/>
      <use xlink:href="#DejaVuSans-6e" x="438.277344"/>
      <use xlink:href="#DejaVuSans-20" x="501.65625"/>
      <use xlink:href="#DejaVuSans-61" x="533.443359"/>
      <use xlink:href="#DejaVuSans-63" x="594.722656"/>
      <use xlink:href="#DejaVuSans-63" x="649.703125"/>
      <use xlink:href="#DejaVuSans-75" x="704.683594"/>
      <use xlink:href="#DejaVuSans-72" x="768.0625"/>
      <use xlink:href="#DejaVuSans-61" x="809.175781"/>
      <use xlink:href="#DejaVuSans-63" x="870.455078"/>
      <use xlink:href="#DejaVuSans-79" x="925.435547"/>
     </g>
    </g>
   </g>
   <g id="line2d_10">
    <path d="M 219.6 118.307905 
L 219.6 118.28048 
" clip-path="url(#pe4ab7cb65b)" style="fill: none; stroke: #3d3d3d; stroke-width: 2.25; stroke-linecap: square"/>
   </g>
   <g id="line2d_11">
    <path d="M 219.6 118.301676 
L 219.6 118.290437 
" clip-path="url(#pe4ab7cb65b)" style="fill: none; stroke: #3d3d3d; stroke-width: 6.75; stroke-linecap: square"/>
   </g>
   <g id="line2d_12">
    <path d="M 442.8 311.771492 
L 442.8 118.284462 
" clip-path="url(#pe4ab7cb65b)" style="fill: none; stroke: #3d3d3d; stroke-width: 2.25; stroke-linecap: square"/>
   </g>
   <g id="line2d_13">
    <path d="M 442.8 262.698791 
L 442.8 118.786084 
" clip-path="url(#pe4ab7cb65b)" style="fill: none; stroke: #3d3d3d; stroke-width: 6.75; stroke-linecap: square"/>
   </g>
   <g id="line2d_14">
    <path d="M 666 290.276619 
L 666 118.276009 
" clip-path="url(#pe4ab7cb65b)" style="fill: none; stroke: #3d3d3d; stroke-width: 2.25; stroke-linecap: square"/>
   </g>
   <g id="line2d_15">
    <path d="M 666 262.185213 
L 666 118.303546 
" clip-path="url(#pe4ab7cb65b)" style="fill: none; stroke: #3d3d3d; stroke-width: 6.75; stroke-linecap: square"/>
   </g>
   <g id="patch_3">
    <path d="M 108 378 
L 108 51.84 
" style="fill: none; stroke: #000000; stroke-width: 1.875; stroke-linejoin: miter; stroke-linecap: square"/>
   </g>
   <g id="patch_4">
    <path d="M 777.6 378 
L 777.6 51.84 
" style="fill: none; stroke: #000000; stroke-width: 1.875; stroke-linejoin: miter; stroke-linecap: square"/>
   </g>
   <g id="patch_5">
    <path d="M 108 378 
L 777.6 378 
" style="fill: none; stroke: #000000; stroke-width: 1.875; stroke-linejoin: miter; stroke-linecap: square"/>
   </g>
   <g id="patch_6">
    <path d="M 108 51.84 
L 777.6 51.84 
" style="fill: none; stroke: #000000; stroke-width: 1.875; stroke-linejoin: miter; stroke-linecap: square"/>
   </g>
   <g id="PathCollection_1">
    <defs>
     <path id="me24814dcb8" d="M 0 2.25 
C 0.596707 2.25 1.169055 2.012926 1.59099 1.59099 
C 2.012926 1.169055 2.25 0.596707 2.25 0 
C 2.25 -0.596707 2.012926 -1.169055 1.59099 -1.59099 
C 1.169055 -2.012926 0.596707 -2.25 0 -2.25 
C -0.596707 -2.25 -1.169055 -2.012926 -1.59099 -1.59099 
C -2.012926 -1.169055 -2.25 -0.596707 -2.25 0 
C -2.25 0.596707 -2.012926 1.169055 -1.59099 1.59099 
C -1.169055 2.012926 -0.596707 2.25 0 2.25 
z
" style="stroke: #3d3d3d; stroke-width: 1.5"/>
    </defs>
    <g clip-path="url(#pe4ab7cb65b)">
     <use xlink:href="#me24814dcb8" x="219.6" y="118.293204" style="fill: #ffffff; stroke: #3d3d3d; stroke-width: 1.5"/>
    </g>
   </g>
   <g id="PathCollection_2">
    <g clip-path="url(#pe4ab7cb65b)">
     <use xlink:href="#me24814dcb8" x="442.8" y="257.744827" style="fill: #ffffff; stroke: #3d3d3d; stroke-width: 1.5"/>
    </g>
   </g>
   <g id="PathCollection_3">
    <g clip-path="url(#pe4ab7cb65b)">
     <use xlink:href="#me24814dcb8" x="666" y="254.45019" style="fill: #ffffff; stroke: #3d3d3d; stroke-width: 1.5"/>
    </g>
   </g>
  </g>
 </g>
 <defs>
  <clipPath id="pe4ab7cb65b">
   <rect x="108" y="51.84" width="669.6" height="326.16"/>
  </clipPath>
 </defs>
</svg>
