<?xml version="1.0" encoding="utf-8" standalone="no"?>
<!DOCTYPE svg PUBLIC "-//W3C//DTD SVG 1.1//EN"
  "http://www.w3.org/Graphics/SVG/1.1/DTD/svg11.dtd">
<svg xmlns:xlink="http://www.w3.org/1999/xlink" width="864pt" height="432pt" viewBox="0 0 864 432" xmlns="http://www.w3.org/2000/svg" version="1.1">
 <metadata>
  <rdf:RDF xmlns:dc="http://purl.org/dc/elements/1.1/" xmlns:cc="http://creativecommons.org/ns#" xmlns:rdf="http://www.w3.org/1999/02/22-rdf-syntax-ns#">
   <cc:Work>
    <dc:type rdf:resource="http://purl.org/dc/dcmitype/StillImage"/>
    <dc:date>2023-05-03T14:20:51.748083</dc:date>
    <dc:format>image/svg+xml</dc:format>
    <dc:creator>
     <cc:Agent>
      <dc:title>Matplotlib v3.5.1, https://matplotlib.org/</dc:title>
     </cc:Agent>
    </dc:creator>
   </cc:Work>
  </rdf:RDF>
 </metadata>
 <defs>
  <style type="text/css">*{stroke-linejoin: round; stroke-linecap: butt}</style>
 </defs>
 <g id="figure_1">
  <g id="patch_1">
   <path d="M 0 432 
L 864 432 
L 864 0 
L 0 0 
L 0 432 
z
" style="fill: none"/>
  </g>
  <g id="axes_1">
   <g id="patch_2">
    <path d="M 108 378 
L 777.6 378 
L 777.6 51.84 
L 108 51.84 
z
" style="fill: #ffffff"/>
   </g>
   <g id="PolyCollection_1">
    <defs>
     <path id="mc3686e1272" d="M 220.219911 -93.286848 
L 218.980089 -93.286848 
L 218.781682 -95.788369 
L 218.537114 -98.289889 
L 218.241596 -100.79141 
L 217.891737 -103.29293 
L 217.486157 -105.794451 
L 217.026094 -108.295971 
L 216.515904 -110.797491 
L 215.963414 -113.299012 
L 215.380021 -115.800532 
L 214.780507 -118.302053 
L 214.182527 -120.803573 
L 213.605772 -123.305094 
L 213.070859 -125.806614 
L 212.598021 -128.308134 
L 212.205708 -130.809655 
L 211.909243 -133.311175 
L 211.719657 -135.812696 
L 211.642827 -138.314216 
L 211.679004 -140.815737 
L 211.822784 -143.317257 
L 212.063497 -145.818778 
L 212.385976 -148.320298 
L 212.771609 -150.821818 
L 213.199547 -153.323339 
L 213.647948 -155.824859 
L 214.09515 -158.32638 
L 214.520677 -160.8279 
L 214.906026 -163.329421 
L 215.235231 -165.830941 
L 215.495205 -168.332462 
L 215.675924 -170.833982 
L 215.770486 -173.335502 
L 215.775099 -175.837023 
L 215.689055 -178.338543 
L 215.514675 -180.840064 
L 215.257252 -183.341584 
L 214.924957 -185.843105 
L 214.528679 -188.344625 
L 214.081769 -190.846146 
L 213.599666 -193.347666 
L 213.099388 -195.849186 
L 212.598902 -198.350707 
L 212.116409 -200.852227 
L 211.669575 -203.353748 
L 211.274771 -205.855268 
L 210.946371 -208.356789 
L 210.696153 -210.858309 
L 210.532845 -213.35983 
L 210.461808 -215.86135 
L 210.484872 -218.36287 
L 210.600284 -220.864391 
L 210.802735 -223.365911 
L 211.08341 -225.867432 
L 211.430028 -228.368952 
L 211.826792 -230.870473 
L 212.254236 -233.371993 
L 212.688934 -235.873514 
L 213.103047 -238.375034 
L 213.463755 -240.876554 
L 213.732607 -243.378075 
L 213.864889 -245.879595 
L 213.809147 -248.381116 
L 213.507058 -250.882636 
L 212.893861 -253.384157 
L 211.899604 -255.885677 
L 210.451431 -258.387198 
L 208.477094 -260.888718 
L 205.909773 -263.390238 
L 202.694124 -265.891759 
L 198.793297 -268.393279 
L 194.196414 -270.8948 
L 188.925835 -273.39632 
L 183.043318 -275.897841 
L 176.654142 -278.399361 
L 169.908272 -280.900882 
L 162.997835 -283.402402 
L 156.150501 -285.903922 
L 149.618785 -288.405443 
L 143.665803 -290.906963 
L 138.548514 -293.408484 
L 134.499894 -295.910004 
L 131.711756 -298.411525 
L 130.32 -300.913045 
L 130.393878 -303.414566 
L 131.930476 -305.916086 
L 134.855041 -308.417606 
L 139.027121 -310.919127 
L 144.251823 -313.420647 
L 150.29495 -315.922168 
L 156.900381 -318.423688 
L 163.807919 -320.925209 
L 170.769889 -323.426729 
L 177.565077 -325.92825 
L 184.009006 -328.42977 
L 189.960064 -330.93129 
L 195.32151 -333.432811 
L 200.039799 -335.934331 
L 204.099983 -338.435852 
L 207.519128 -340.937372 
L 231.680872 -340.937372 
L 231.680872 -340.937372 
L 235.100017 -338.435852 
L 239.160201 -335.934331 
L 243.87849 -333.432811 
L 249.239936 -330.93129 
L 255.190994 -328.42977 
L 261.634923 -325.92825 
L 268.430111 -323.426729 
L 275.392081 -320.925209 
L 282.299619 -318.423688 
L 288.90505 -315.922168 
L 294.948177 -313.420647 
L 300.172879 -310.919127 
L 304.344959 -308.417606 
L 307.269524 -305.916086 
L 308.806122 -303.414566 
L 308.88 -300.913045 
L 307.488244 -298.411525 
L 304.700106 -295.910004 
L 300.651486 -293.408484 
L 295.534197 -290.906963 
L 289.581215 -288.405443 
L 283.049499 -285.903922 
L 276.202165 -283.402402 
L 269.291728 -280.900882 
L 262.545858 -278.399361 
L 256.156682 -275.897841 
L 250.274165 -273.39632 
L 245.003586 -270.8948 
L 240.406703 -268.393279 
L 236.505876 -265.891759 
L 233.290227 -263.390238 
L 230.722906 -260.888718 
L 228.748569 -258.387198 
L 227.300396 -255.885677 
L 226.306139 -253.384157 
L 225.692942 -250.882636 
L 225.390853 -248.381116 
L 225.335111 -245.879595 
L 225.467393 -243.378075 
L 225.736245 -240.876554 
L 226.096953 -238.375034 
L 226.511066 -235.873514 
L 226.945764 -233.371993 
L 227.373208 -230.870473 
L 227.769972 -228.368952 
L 228.11659 -225.867432 
L 228.397265 -223.365911 
L 228.599716 -220.864391 
L 228.715128 -218.36287 
L 228.738192 -215.86135 
L 228.667155 -213.35983 
L 228.503847 -210.858309 
L 228.253629 -208.356789 
L 227.925229 -205.855268 
L 227.530425 -203.353748 
L 227.083591 -200.852227 
L 226.601098 -198.350707 
L 226.100612 -195.849186 
L 225.600334 -193.347666 
L 225.118231 -190.846146 
L 224.671321 -188.344625 
L 224.275043 -185.843105 
L 223.942748 -183.341584 
L 223.685325 -180.840064 
L 223.510945 -178.338543 
L 223.424901 -175.837023 
L 223.429514 -173.335502 
L 223.524076 -170.833982 
L 223.704795 -168.332462 
L 223.964769 -165.830941 
L 224.293974 -163.329421 
L 224.679323 -160.8279 
L 225.10485 -158.32638 
L 225.552052 -155.824859 
L 226.000453 -153.323339 
L 226.428391 -150.821818 
L 226.814024 -148.320298 
L 227.136503 -145.818778 
L 227.377216 -143.317257 
L 227.520996 -140.815737 
L 227.557173 -138.314216 
L 227.480343 -135.812696 
L 227.290757 -133.311175 
L 226.994292 -130.809655 
L 226.601979 -128.308134 
L 226.129141 -125.806614 
L 225.594228 -123.305094 
L 225.017473 -120.803573 
L 224.419493 -118.302053 
L 223.819979 -115.800532 
L 223.236586 -113.299012 
L 222.684096 -110.797491 
L 222.173906 -108.295971 
L 221.713843 -105.794451 
L 221.308263 -103.29293 
L 220.958404 -100.79141 
L 220.662886 -98.289889 
L 220.418318 -95.788369 
L 220.219911 -93.286848 
z
" style="stroke: #3d3d3d; stroke-width: 2.25"/>
    </defs>
    <g clip-path="url(#pbb781a4813)">
     <use xlink:href="#mc3686e1272" x="0" y="432" style="fill: #3274a1; stroke: #3d3d3d; stroke-width: 2.25"/>
    </g>
   </g>
   <g id="PolyCollection_2">
    <defs>
     <path id="m2291c6c922" d="M 446.10221 -68.825455 
L 439.49779 -68.825455 
L 438.738487 -71.820496 
L 437.848843 -74.815537 
L 436.817797 -77.810579 
L 435.636069 -80.80562 
L 434.296896 -83.800661 
L 432.796789 -86.795702 
L 431.136271 -89.790744 
L 429.320573 -92.785785 
L 427.360202 -95.780826 
L 425.271368 -98.775868 
L 423.076191 -101.770909 
L 420.80267 -104.76595 
L 418.484362 -107.760992 
L 416.159767 -110.756033 
L 413.87142 -113.751074 
L 411.664698 -116.746116 
L 409.586395 -119.741157 
L 407.683109 -122.736198 
L 405.999533 -125.73124 
L 404.576719 -128.726281 
L 403.45042 -131.721322 
L 402.649598 -134.716364 
L 402.195188 -137.711405 
L 402.099184 -140.706446 
L 402.364116 -143.701488 
L 402.982938 -146.696529 
L 403.939334 -149.69157 
L 405.208432 -152.686612 
L 406.757877 -155.681653 
L 408.549189 -158.676694 
L 410.539349 -161.671736 
L 412.68249 -164.666777 
L 414.931627 -167.661818 
L 417.240315 -170.65686 
L 419.56417 -173.651901 
L 421.862167 -176.646942 
L 424.097679 -179.641983 
L 426.239218 -182.637025 
L 428.260873 -185.632066 
L 430.142452 -188.627107 
L 431.86934 -191.622149 
L 433.432136 -194.61719 
L 434.826083 -197.612231 
L 436.050372 -200.607273 
L 437.107352 -203.602314 
L 438.00171 -206.597355 
L 438.739658 -209.592397 
L 439.328178 -212.587438 
L 439.774351 -215.582479 
L 440.084801 -218.577521 
L 440.26527 -221.572562 
L 440.320335 -224.567603 
L 440.253275 -227.562645 
L 440.066083 -230.557686 
L 439.759624 -233.552727 
L 439.333914 -236.547769 
L 438.788519 -239.54281 
L 438.123039 -242.537851 
L 437.33767 -245.532893 
L 436.433786 -248.527934 
L 435.41454 -251.522975 
L 434.285427 -254.518017 
L 433.054774 -257.513058 
L 431.734131 -260.508099 
L 430.338518 -263.50314 
L 428.886497 -266.498182 
L 427.400064 -269.493223 
L 425.904325 -272.488264 
L 424.42697 -275.483306 
L 422.997556 -278.478347 
L 421.64662 -281.473388 
L 420.404658 -284.46843 
L 419.301031 -287.463471 
L 418.362836 -290.458512 
L 417.613821 -293.453554 
L 417.073404 -296.448595 
L 416.755836 -299.443636 
L 416.66959 -302.438678 
L 416.816987 -305.433719 
L 417.194093 -308.42876 
L 417.790898 -311.423802 
L 418.591757 -314.418843 
L 419.576073 -317.413884 
L 420.719179 -320.408926 
L 421.99336 -323.403967 
L 423.368968 -326.399008 
L 424.815559 -329.39405 
L 426.302992 -332.389091 
L 427.802441 -335.384132 
L 429.287269 -338.379174 
L 430.733736 -341.374215 
L 432.121513 -344.369256 
L 433.434009 -347.364298 
L 434.658491 -350.359339 
L 435.78604 -353.35438 
L 436.811352 -356.349421 
L 437.732411 -359.344463 
L 438.550076 -362.339504 
L 439.267614 -365.334545 
L 446.332386 -365.334545 
L 446.332386 -365.334545 
L 447.049924 -362.339504 
L 447.867589 -359.344463 
L 448.788648 -356.349421 
L 449.81396 -353.35438 
L 450.941509 -350.359339 
L 452.165991 -347.364298 
L 453.478487 -344.369256 
L 454.866264 -341.374215 
L 456.312731 -338.379174 
L 457.797559 -335.384132 
L 459.297008 -332.389091 
L 460.784441 -329.39405 
L 462.231032 -326.399008 
L 463.60664 -323.403967 
L 464.880821 -320.408926 
L 466.023927 -317.413884 
L 467.008243 -314.418843 
L 467.809102 -311.423802 
L 468.405907 -308.42876 
L 468.783013 -305.433719 
L 468.93041 -302.438678 
L 468.844164 -299.443636 
L 468.526596 -296.448595 
L 467.986179 -293.453554 
L 467.237164 -290.458512 
L 466.298969 -287.463471 
L 465.195342 -284.46843 
L 463.95338 -281.473388 
L 462.602444 -278.478347 
L 461.17303 -275.483306 
L 459.695675 -272.488264 
L 458.199936 -269.493223 
L 456.713503 -266.498182 
L 455.261482 -263.50314 
L 453.865869 -260.508099 
L 452.545226 -257.513058 
L 451.314573 -254.518017 
L 450.18546 -251.522975 
L 449.166214 -248.527934 
L 448.26233 -245.532893 
L 447.476961 -242.537851 
L 446.811481 -239.54281 
L 446.266086 -236.547769 
L 445.840376 -233.552727 
L 445.533917 -230.557686 
L 445.346725 -227.562645 
L 445.279665 -224.567603 
L 445.33473 -221.572562 
L 445.515199 -218.577521 
L 445.825649 -215.582479 
L 446.271822 -212.587438 
L 446.860342 -209.592397 
L 447.59829 -206.597355 
L 448.492648 -203.602314 
L 449.549628 -200.607273 
L 450.773917 -197.612231 
L 452.167864 -194.61719 
L 453.73066 -191.622149 
L 455.457548 -188.627107 
L 457.339127 -185.632066 
L 459.360782 -182.637025 
L 461.502321 -179.641983 
L 463.737833 -176.646942 
L 466.03583 -173.651901 
L 468.359685 -170.65686 
L 470.668373 -167.661818 
L 472.91751 -164.666777 
L 475.060651 -161.671736 
L 477.050811 -158.676694 
L 478.842123 -155.681653 
L 480.391568 -152.686612 
L 481.660666 -149.69157 
L 482.617062 -146.696529 
L 483.235884 -143.701488 
L 483.500816 -140.706446 
L 483.404812 -137.711405 
L 482.950402 -134.716364 
L 482.14958 -131.721322 
L 481.023281 -128.726281 
L 479.600467 -125.73124 
L 477.916891 -122.736198 
L 476.013605 -119.741157 
L 473.935302 -116.746116 
L 471.72858 -113.751074 
L 469.440233 -110.756033 
L 467.115638 -107.760992 
L 464.79733 -104.76595 
L 462.523809 -101.770909 
L 460.328632 -98.775868 
L 458.239798 -95.780826 
L 456.279427 -92.785785 
L 454.463729 -89.790744 
L 452.803211 -86.795702 
L 451.303104 -83.800661 
L 449.963931 -80.80562 
L 448.782203 -77.810579 
L 447.751157 -74.815537 
L 446.861513 -71.820496 
L 446.10221 -68.825455 
z
" style="stroke: #3d3d3d; stroke-width: 2.25"/>
    </defs>
    <g clip-path="url(#pbb781a4813)">
     <use xlink:href="#m2291c6c922" x="0" y="432" style="fill: #e1812c; stroke: #3d3d3d; stroke-width: 2.25"/>
    </g>
   </g>
   <g id="PolyCollection_3">
    <defs>
     <path id="mcefe2740c8" d="M 669.645333 -71.217724 
L 662.354667 -71.217724 
L 661.501891 -74.168536 
L 660.500188 -77.119349 
L 659.336677 -80.070161 
L 658.000567 -83.020973 
L 656.484034 -85.971785 
L 654.78312 -88.922598 
L 652.898623 -91.87341 
L 650.836915 -94.824222 
L 648.61062 -97.775035 
L 646.239103 -100.725847 
L 643.7487 -103.676659 
L 641.172647 -106.627472 
L 638.550662 -109.578284 
L 635.928167 -112.529096 
L 633.355152 -115.479909 
L 630.884711 -118.430721 
L 628.571291 -121.381533 
L 626.468746 -124.332346 
L 624.628275 -127.283158 
L 623.096363 -130.23397 
L 621.912833 -133.184783 
L 621.109129 -136.135595 
L 620.706927 -139.086407 
L 620.717161 -142.03722 
L 621.139533 -144.988032 
L 621.962524 -147.938844 
L 623.163914 -150.889657 
L 624.711779 -153.840469 
L 626.565898 -156.791281 
L 628.679481 -159.742094 
L 631.001125 -162.692906 
L 633.47687 -165.643718 
L 636.052249 -168.59453 
L 638.674217 -171.545343 
L 641.292877 -174.496155 
L 643.862911 -177.446967 
L 646.344683 -180.39778 
L 648.704969 -183.348592 
L 650.917327 -186.299404 
L 652.962124 -189.250217 
L 654.826243 -192.201029 
L 656.502538 -195.151841 
L 657.989093 -198.102654 
L 659.28834 -201.053466 
L 660.406102 -204.004278 
L 661.350628 -206.955091 
L 662.131653 -209.905903 
L 662.759542 -212.856715 
L 663.24454 -215.807528 
L 663.596156 -218.75834 
L 663.822695 -221.709152 
L 663.93094 -224.659965 
L 663.925997 -227.610777 
L 663.811286 -230.561589 
L 663.588675 -233.512402 
L 663.258748 -236.463214 
L 662.821184 -239.414026 
L 662.275231 -242.364839 
L 661.62026 -245.315651 
L 660.856354 -248.266463 
L 659.984922 -251.217276 
L 659.009295 -254.168088 
L 657.93527 -257.1189 
L 656.771562 -260.069712 
L 655.530143 -263.020525 
L 654.226412 -265.971337 
L 652.8792 -268.922149 
L 651.510563 -271.872962 
L 650.145377 -274.823774 
L 648.810724 -277.774586 
L 647.53511 -280.725399 
L 646.347513 -283.676211 
L 645.276343 -286.627023 
L 644.34834 -289.577836 
L 643.587483 -292.528648 
L 643.013973 -295.47946 
L 642.643351 -298.430273 
L 642.485798 -301.381085 
L 642.54568 -304.331897 
L 642.821345 -307.28271 
L 643.305201 -310.233522 
L 643.984065 -313.184334 
L 644.83976 -316.135147 
L 645.849923 -319.085959 
L 646.988979 -322.036771 
L 648.229206 -324.987584 
L 649.541857 -327.938396 
L 650.898243 -330.889208 
L 652.270752 -333.840021 
L 653.633733 -336.790833 
L 654.964217 -339.741645 
L 656.242461 -342.692458 
L 657.452284 -345.64327 
L 658.581221 -348.594082 
L 659.620488 -351.544894 
L 660.564805 -354.495707 
L 661.412085 -357.446519 
L 662.163031 -360.397331 
L 662.820683 -363.348144 
L 669.179317 -363.348144 
L 669.179317 -363.348144 
L 669.836969 -360.397331 
L 670.587915 -357.446519 
L 671.435195 -354.495707 
L 672.379512 -351.544894 
L 673.418779 -348.594082 
L 674.547716 -345.64327 
L 675.757539 -342.692458 
L 677.035783 -339.741645 
L 678.366267 -336.790833 
L 679.729248 -333.840021 
L 681.101757 -330.889208 
L 682.458143 -327.938396 
L 683.770794 -324.987584 
L 685.011021 -322.036771 
L 686.150077 -319.085959 
L 687.16024 -316.135147 
L 688.015935 -313.184334 
L 688.694799 -310.233522 
L 689.178655 -307.28271 
L 689.45432 -304.331897 
L 689.514202 -301.381085 
L 689.356649 -298.430273 
L 688.986027 -295.47946 
L 688.412517 -292.528648 
L 687.65166 -289.577836 
L 686.723657 -286.627023 
L 685.652487 -283.676211 
L 684.46489 -280.725399 
L 683.189276 -277.774586 
L 681.854623 -274.823774 
L 680.489437 -271.872962 
L 679.1208 -268.922149 
L 677.773588 -265.971337 
L 676.469857 -263.020525 
L 675.228438 -260.069712 
L 674.06473 -257.1189 
L 672.990705 -254.168088 
L 672.015078 -251.217276 
L 671.143646 -248.266463 
L 670.37974 -245.315651 
L 669.724769 -242.364839 
L 669.178816 -239.414026 
L 668.741252 -236.463214 
L 668.411325 -233.512402 
L 668.188714 -230.561589 
L 668.074003 -227.610777 
L 668.06906 -224.659965 
L 668.177305 -221.709152 
L 668.403844 -218.75834 
L 668.75546 -215.807528 
L 669.240458 -212.856715 
L 669.868347 -209.905903 
L 670.649372 -206.955091 
L 671.593898 -204.004278 
L 672.71166 -201.053466 
L 674.010907 -198.102654 
L 675.497462 -195.151841 
L 677.173757 -192.201029 
L 679.037876 -189.250217 
L 681.082673 -186.299404 
L 683.295031 -183.348592 
L 685.655317 -180.39778 
L 688.137089 -177.446967 
L 690.707123 -174.496155 
L 693.325783 -171.545343 
L 695.947751 -168.59453 
L 698.52313 -165.643718 
L 700.998875 -162.692906 
L 703.320519 -159.742094 
L 705.434102 -156.791281 
L 707.288221 -153.840469 
L 708.836086 -150.889657 
L 710.037476 -147.938844 
L 710.860467 -144.988032 
L 711.282839 -142.03722 
L 711.293073 -139.086407 
L 710.890871 -136.135595 
L 710.087167 -133.184783 
L 708.903637 -130.23397 
L 707.371725 -127.283158 
L 705.531254 -124.332346 
L 703.428709 -121.381533 
L 701.115289 -118.430721 
L 698.644848 -115.479909 
L 696.071833 -112.529096 
L 693.449338 -109.578284 
L 690.827353 -106.627472 
L 688.2513 -103.676659 
L 685.760897 -100.725847 
L 683.38938 -97.775035 
L 681.163085 -94.824222 
L 679.101377 -91.87341 
L 677.21688 -88.922598 
L 675.515966 -85.971785 
L 673.999433 -83.020973 
L 672.663323 -80.070161 
L 671.499812 -77.119349 
L 670.498109 -74.168536 
L 669.645333 -71.217724 
z
" style="stroke: #3d3d3d; stroke-width: 2.25"/>
    </defs>
    <g clip-path="url(#pbb781a4813)">
     <use xlink:href="#mcefe2740c8" x="0" y="432" style="fill: #3a923a; stroke: #3d3d3d; stroke-width: 2.25"/>
    </g>
   </g>
   <g id="matplotlib.axis_1">
    <g id="xtick_1">
     <g id="line2d_1">
      <defs>
       <path id="m512e7986a6" d="M 0 0 
L 0 9 
" style="stroke: #000000; stroke-width: 1.875"/>
      </defs>
      <g>
       <use xlink:href="#m512e7986a6" x="219.6" y="378" style="stroke: #000000; stroke-width: 1.875"/>
      </g>
     </g>
     <g id="text_1">
      <!-- early -->
      <g transform="translate(198.901523 403.037422)scale(0.165 -0.165)">
       <defs>
        <path id="DejaVuSans-65" d="M 3597 1894 
L 3597 1613 
L 953 1613 
Q 991 1019 1311 708 
Q 1631 397 2203 397 
Q 2534 397 2845 478 
Q 3156 559 3463 722 
L 3463 178 
Q 3153 47 2828 -22 
Q 2503 -91 2169 -91 
Q 1331 -91 842 396 
Q 353 884 353 1716 
Q 353 2575 817 3079 
Q 1281 3584 2069 3584 
Q 2775 3584 3186 3129 
Q 3597 2675 3597 1894 
z
M 3022 2063 
Q 3016 2534 2758 2815 
Q 2500 3097 2075 3097 
Q 1594 3097 1305 2825 
Q 1016 2553 972 2059 
L 3022 2063 
z
" transform="scale(0.015625)"/>
        <path id="DejaVuSans-61" d="M 2194 1759 
Q 1497 1759 1228 1600 
Q 959 1441 959 1056 
Q 959 750 1161 570 
Q 1363 391 1709 391 
Q 2188 391 2477 730 
Q 2766 1069 2766 1631 
L 2766 1759 
L 2194 1759 
z
M 3341 1997 
L 3341 0 
L 2766 0 
L 2766 531 
Q 2569 213 2275 61 
Q 1981 -91 1556 -91 
Q 1019 -91 701 211 
Q 384 513 384 1019 
Q 384 1609 779 1909 
Q 1175 2209 1959 2209 
L 2766 2209 
L 2766 2266 
Q 2766 2663 2505 2880 
Q 2244 3097 1772 3097 
Q 1472 3097 1187 3025 
Q 903 2953 641 2809 
L 641 3341 
Q 956 3463 1253 3523 
Q 1550 3584 1831 3584 
Q 2591 3584 2966 3190 
Q 3341 2797 3341 1997 
z
" transform="scale(0.015625)"/>
        <path id="DejaVuSans-72" d="M 2631 2963 
Q 2534 3019 2420 3045 
Q 2306 3072 2169 3072 
Q 1681 3072 1420 2755 
Q 1159 2438 1159 1844 
L 1159 0 
L 581 0 
L 581 3500 
L 1159 3500 
L 1159 2956 
Q 1341 3275 1631 3429 
Q 1922 3584 2338 3584 
Q 2397 3584 2469 3576 
Q 2541 3569 2628 3553 
L 2631 2963 
z
" transform="scale(0.015625)"/>
        <path id="DejaVuSans-6c" d="M 603 4863 
L 1178 4863 
L 1178 0 
L 603 0 
L 603 4863 
z
" transform="scale(0.015625)"/>
        <path id="DejaVuSans-79" d="M 2059 -325 
Q 1816 -950 1584 -1140 
Q 1353 -1331 966 -1331 
L 506 -1331 
L 506 -850 
L 844 -850 
Q 1081 -850 1212 -737 
Q 1344 -625 1503 -206 
L 1606 56 
L 191 3500 
L 800 3500 
L 1894 763 
L 2988 3500 
L 3597 3500 
L 2059 -325 
z
" transform="scale(0.015625)"/>
       </defs>
       <use xlink:href="#DejaVuSans-65"/>
       <use xlink:href="#DejaVuSans-61" x="61.523438"/>
       <use xlink:href="#DejaVuSans-72" x="122.802734"/>
       <use xlink:href="#DejaVuSans-6c" x="163.916016"/>
       <use xlink:href="#DejaVuSans-79" x="191.699219"/>
      </g>
     </g>
    </g>
    <g id="xtick_2">
     <g id="line2d_2">
      <g>
       <use xlink:href="#m512e7986a6" x="442.8" y="378" style="stroke: #000000; stroke-width: 1.875"/>
      </g>
     </g>
     <g id="text_2">
      <!-- late -->
      <g transform="translate(427.141758 403.037422)scale(0.165 -0.165)">
       <defs>
        <path id="DejaVuSans-74" d="M 1172 4494 
L 1172 3500 
L 2356 3500 
L 2356 3053 
L 1172 3053 
L 1172 1153 
Q 1172 725 1289 603 
Q 1406 481 1766 481 
L 2356 481 
L 2356 0 
L 1766 0 
Q 1100 0 847 248 
Q 594 497 594 1153 
L 594 3053 
L 172 3053 
L 172 3500 
L 594 3500 
L 594 4494 
L 1172 4494 
z
" transform="scale(0.015625)"/>
       </defs>
       <use xlink:href="#DejaVuSans-6c"/>
       <use xlink:href="#DejaVuSans-61" x="27.783203"/>
       <use xlink:href="#DejaVuSans-74" x="89.0625"/>
       <use xlink:href="#DejaVuSans-65" x="128.271484"/>
      </g>
     </g>
    </g>
    <g id="xtick_3">
     <g id="line2d_3">
      <g>
       <use xlink:href="#m512e7986a6" x="666" y="378" style="stroke: #000000; stroke-width: 1.875"/>
      </g>
     </g>
     <g id="text_3">
      <!-- middle -->
      <g transform="translate(637.828828 403.037422)scale(0.165 -0.165)">
       <defs>
        <path id="DejaVuSans-6d" d="M 3328 2828 
Q 3544 3216 3844 3400 
Q 4144 3584 4550 3584 
Q 5097 3584 5394 3201 
Q 5691 2819 5691 2113 
L 5691 0 
L 5113 0 
L 5113 2094 
Q 5113 2597 4934 2840 
Q 4756 3084 4391 3084 
Q 3944 3084 3684 2787 
Q 3425 2491 3425 1978 
L 3425 0 
L 2847 0 
L 2847 2094 
Q 2847 2600 2669 2842 
Q 2491 3084 2119 3084 
Q 1678 3084 1418 2786 
Q 1159 2488 1159 1978 
L 1159 0 
L 581 0 
L 581 3500 
L 1159 3500 
L 1159 2956 
Q 1356 3278 1631 3431 
Q 1906 3584 2284 3584 
Q 2666 3584 2933 3390 
Q 3200 3197 3328 2828 
z
" transform="scale(0.015625)"/>
        <path id="DejaVuSans-69" d="M 603 3500 
L 1178 3500 
L 1178 0 
L 603 0 
L 603 3500 
z
M 603 4863 
L 1178 4863 
L 1178 4134 
L 603 4134 
L 603 4863 
z
" transform="scale(0.015625)"/>
        <path id="DejaVuSans-64" d="M 2906 2969 
L 2906 4863 
L 3481 4863 
L 3481 0 
L 2906 0 
L 2906 525 
Q 2725 213 2448 61 
Q 2172 -91 1784 -91 
Q 1150 -91 751 415 
Q 353 922 353 1747 
Q 353 2572 751 3078 
Q 1150 3584 1784 3584 
Q 2172 3584 2448 3432 
Q 2725 3281 2906 2969 
z
M 947 1747 
Q 947 1113 1208 752 
Q 1469 391 1925 391 
Q 2381 391 2643 752 
Q 2906 1113 2906 1747 
Q 2906 2381 2643 2742 
Q 2381 3103 1925 3103 
Q 1469 3103 1208 2742 
Q 947 2381 947 1747 
z
" transform="scale(0.015625)"/>
       </defs>
       <use xlink:href="#DejaVuSans-6d"/>
       <use xlink:href="#DejaVuSans-69" x="97.412109"/>
       <use xlink:href="#DejaVuSans-64" x="125.195312"/>
       <use xlink:href="#DejaVuSans-64" x="188.671875"/>
       <use xlink:href="#DejaVuSans-6c" x="252.148438"/>
       <use xlink:href="#DejaVuSans-65" x="279.931641"/>
      </g>
     </g>
    </g>
    <g id="text_4">
     <!-- condition -->
     <g transform="translate(401.187656 424.146094)scale(0.18 -0.18)">
      <defs>
       <path id="DejaVuSans-63" d="M 3122 3366 
L 3122 2828 
Q 2878 2963 2633 3030 
Q 2388 3097 2138 3097 
Q 1578 3097 1268 2742 
Q 959 2388 959 1747 
Q 959 1106 1268 751 
Q 1578 397 2138 397 
Q 2388 397 2633 464 
Q 2878 531 3122 666 
L 3122 134 
Q 2881 22 2623 -34 
Q 2366 -91 2075 -91 
Q 1284 -91 818 406 
Q 353 903 353 1747 
Q 353 2603 823 3093 
Q 1294 3584 2113 3584 
Q 2378 3584 2631 3529 
Q 2884 3475 3122 3366 
z
" transform="scale(0.015625)"/>
       <path id="DejaVuSans-6f" d="M 1959 3097 
Q 1497 3097 1228 2736 
Q 959 2375 959 1747 
Q 959 1119 1226 758 
Q 1494 397 1959 397 
Q 2419 397 2687 759 
Q 2956 1122 2956 1747 
Q 2956 2369 2687 2733 
Q 2419 3097 1959 3097 
z
M 1959 3584 
Q 2709 3584 3137 3096 
Q 3566 2609 3566 1747 
Q 3566 888 3137 398 
Q 2709 -91 1959 -91 
Q 1206 -91 779 398 
Q 353 888 353 1747 
Q 353 2609 779 3096 
Q 1206 3584 1959 3584 
z
" transform="scale(0.015625)"/>
       <path id="DejaVuSans-6e" d="M 3513 2113 
L 3513 0 
L 2938 0 
L 2938 2094 
Q 2938 2591 2744 2837 
Q 2550 3084 2163 3084 
Q 1697 3084 1428 2787 
Q 1159 2491 1159 1978 
L 1159 0 
L 581 0 
L 581 3500 
L 1159 3500 
L 1159 2956 
Q 1366 3272 1645 3428 
Q 1925 3584 2291 3584 
Q 2894 3584 3203 3211 
Q 3513 2838 3513 2113 
z
" transform="scale(0.015625)"/>
      </defs>
      <use xlink:href="#DejaVuSans-63"/>
      <use xlink:href="#DejaVuSans-6f" x="54.980469"/>
      <use xlink:href="#DejaVuSans-6e" x="116.162109"/>
      <use xlink:href="#DejaVuSans-64" x="179.541016"/>
      <use xlink:href="#DejaVuSans-69" x="243.017578"/>
      <use xlink:href="#DejaVuSans-74" x="270.800781"/>
      <use xlink:href="#DejaVuSans-69" x="310.009766"/>
      <use xlink:href="#DejaVuSans-6f" x="337.792969"/>
      <use xlink:href="#DejaVuSans-6e" x="398.974609"/>
     </g>
    </g>
   </g>
   <g id="matplotlib.axis_2">
    <g id="ytick_1">
     <g id="line2d_4">
      <defs>
       <path id="me73f1451f9" d="M 0 0 
L -9 0 
" style="stroke: #000000; stroke-width: 1.875"/>
      </defs>
      <g>
       <use xlink:href="#me73f1451f9" x="108" y="325.373963" style="stroke: #000000; stroke-width: 1.875"/>
      </g>
     </g>
     <g id="text_5">
      <!-- 0.4 -->
      <g transform="translate(69.259844 331.642674)scale(0.165 -0.165)">
       <defs>
        <path id="DejaVuSans-30" d="M 2034 4250 
Q 1547 4250 1301 3770 
Q 1056 3291 1056 2328 
Q 1056 1369 1301 889 
Q 1547 409 2034 409 
Q 2525 409 2770 889 
Q 3016 1369 3016 2328 
Q 3016 3291 2770 3770 
Q 2525 4250 2034 4250 
z
M 2034 4750 
Q 2819 4750 3233 4129 
Q 3647 3509 3647 2328 
Q 3647 1150 3233 529 
Q 2819 -91 2034 -91 
Q 1250 -91 836 529 
Q 422 1150 422 2328 
Q 422 3509 836 4129 
Q 1250 4750 2034 4750 
z
" transform="scale(0.015625)"/>
        <path id="DejaVuSans-2e" d="M 684 794 
L 1344 794 
L 1344 0 
L 684 0 
L 684 794 
z
" transform="scale(0.015625)"/>
        <path id="DejaVuSans-34" d="M 2419 4116 
L 825 1625 
L 2419 1625 
L 2419 4116 
z
M 2253 4666 
L 3047 4666 
L 3047 1625 
L 3713 1625 
L 3713 1100 
L 3047 1100 
L 3047 0 
L 2419 0 
L 2419 1100 
L 313 1100 
L 313 1709 
L 2253 4666 
z
" transform="scale(0.015625)"/>
       </defs>
       <use xlink:href="#DejaVuSans-30"/>
       <use xlink:href="#DejaVuSans-2e" x="63.623047"/>
       <use xlink:href="#DejaVuSans-34" x="95.410156"/>
      </g>
     </g>
    </g>
    <g id="ytick_2">
     <g id="line2d_5">
      <g>
       <use xlink:href="#me73f1451f9" x="108" y="258.056931" style="stroke: #000000; stroke-width: 1.875"/>
      </g>
     </g>
     <g id="text_6">
      <!-- 0.6 -->
      <g transform="translate(69.259844 264.325642)scale(0.165 -0.165)">
       <defs>
        <path id="DejaVuSans-36" d="M 2113 2584 
Q 1688 2584 1439 2293 
Q 1191 2003 1191 1497 
Q 1191 994 1439 701 
Q 1688 409 2113 409 
Q 2538 409 2786 701 
Q 3034 994 3034 1497 
Q 3034 2003 2786 2293 
Q 2538 2584 2113 2584 
z
M 3366 4563 
L 3366 3988 
Q 3128 4100 2886 4159 
Q 2644 4219 2406 4219 
Q 1781 4219 1451 3797 
Q 1122 3375 1075 2522 
Q 1259 2794 1537 2939 
Q 1816 3084 2150 3084 
Q 2853 3084 3261 2657 
Q 3669 2231 3669 1497 
Q 3669 778 3244 343 
Q 2819 -91 2113 -91 
Q 1303 -91 875 529 
Q 447 1150 447 2328 
Q 447 3434 972 4092 
Q 1497 4750 2381 4750 
Q 2619 4750 2861 4703 
Q 3103 4656 3366 4563 
z
" transform="scale(0.015625)"/>
       </defs>
       <use xlink:href="#DejaVuSans-30"/>
       <use xlink:href="#DejaVuSans-2e" x="63.623047"/>
       <use xlink:href="#DejaVuSans-36" x="95.410156"/>
      </g>
     </g>
    </g>
    <g id="ytick_3">
     <g id="line2d_6">
      <g>
       <use xlink:href="#me73f1451f9" x="108" y="190.739899" style="stroke: #000000; stroke-width: 1.875"/>
      </g>
     </g>
     <g id="text_7">
      <!-- 0.8 -->
      <g transform="translate(69.259844 197.00861)scale(0.165 -0.165)">
       <defs>
        <path id="DejaVuSans-38" d="M 2034 2216 
Q 1584 2216 1326 1975 
Q 1069 1734 1069 1313 
Q 1069 891 1326 650 
Q 1584 409 2034 409 
Q 2484 409 2743 651 
Q 3003 894 3003 1313 
Q 3003 1734 2745 1975 
Q 2488 2216 2034 2216 
z
M 1403 2484 
Q 997 2584 770 2862 
Q 544 3141 544 3541 
Q 544 4100 942 4425 
Q 1341 4750 2034 4750 
Q 2731 4750 3128 4425 
Q 3525 4100 3525 3541 
Q 3525 3141 3298 2862 
Q 3072 2584 2669 2484 
Q 3125 2378 3379 2068 
Q 3634 1759 3634 1313 
Q 3634 634 3220 271 
Q 2806 -91 2034 -91 
Q 1263 -91 848 271 
Q 434 634 434 1313 
Q 434 1759 690 2068 
Q 947 2378 1403 2484 
z
M 1172 3481 
Q 1172 3119 1398 2916 
Q 1625 2713 2034 2713 
Q 2441 2713 2670 2916 
Q 2900 3119 2900 3481 
Q 2900 3844 2670 4047 
Q 2441 4250 2034 4250 
Q 1625 4250 1398 4047 
Q 1172 3844 1172 3481 
z
" transform="scale(0.015625)"/>
       </defs>
       <use xlink:href="#DejaVuSans-30"/>
       <use xlink:href="#DejaVuSans-2e" x="63.623047"/>
       <use xlink:href="#DejaVuSans-38" x="95.410156"/>
      </g>
     </g>
    </g>
    <g id="ytick_4">
     <g id="line2d_7">
      <g>
       <use xlink:href="#me73f1451f9" x="108" y="123.422867" style="stroke: #000000; stroke-width: 1.875"/>
      </g>
     </g>
     <g id="text_8">
      <!-- 1.0 -->
      <g transform="translate(69.259844 129.691578)scale(0.165 -0.165)">
       <defs>
        <path id="DejaVuSans-31" d="M 794 531 
L 1825 531 
L 1825 4091 
L 703 3866 
L 703 4441 
L 1819 4666 
L 2450 4666 
L 2450 531 
L 3481 531 
L 3481 0 
L 794 0 
L 794 531 
z
" transform="scale(0.015625)"/>
       </defs>
       <use xlink:href="#DejaVuSans-31"/>
       <use xlink:href="#DejaVuSans-2e" x="63.623047"/>
       <use xlink:href="#DejaVuSans-30" x="95.410156"/>
      </g>
     </g>
    </g>
    <g id="ytick_5">
     <g id="line2d_8">
      <g>
       <use xlink:href="#me73f1451f9" x="108" y="56.105836" style="stroke: #000000; stroke-width: 1.875"/>
      </g>
     </g>
     <g id="text_9">
      <!-- 1.2 -->
      <g transform="translate(69.259844 62.374547)scale(0.165 -0.165)">
       <defs>
        <path id="DejaVuSans-32" d="M 1228 531 
L 3431 531 
L 3431 0 
L 469 0 
L 469 531 
Q 828 903 1448 1529 
Q 2069 2156 2228 2338 
Q 2531 2678 2651 2914 
Q 2772 3150 2772 3378 
Q 2772 3750 2511 3984 
Q 2250 4219 1831 4219 
Q 1534 4219 1204 4116 
Q 875 4013 500 3803 
L 500 4441 
Q 881 4594 1212 4672 
Q 1544 4750 1819 4750 
Q 2544 4750 2975 4387 
Q 3406 4025 3406 3419 
Q 3406 3131 3298 2873 
Q 3191 2616 2906 2266 
Q 2828 2175 2409 1742 
Q 1991 1309 1228 531 
z
" transform="scale(0.015625)"/>
       </defs>
       <use xlink:href="#DejaVuSans-31"/>
       <use xlink:href="#DejaVuSans-2e" x="63.623047"/>
       <use xlink:href="#DejaVuSans-32" x="95.410156"/>
      </g>
     </g>
    </g>
    <g id="text_10">
     <!-- prediction accuracy -->
     <g transform="translate(61.516406 303.537656)rotate(-90)scale(0.18 -0.18)">
      <defs>
       <path id="DejaVuSans-70" d="M 1159 525 
L 1159 -1331 
L 581 -1331 
L 581 3500 
L 1159 3500 
L 1159 2969 
Q 1341 3281 1617 3432 
Q 1894 3584 2278 3584 
Q 2916 3584 3314 3078 
Q 3713 2572 3713 1747 
Q 3713 922 3314 415 
Q 2916 -91 2278 -91 
Q 1894 -91 1617 61 
Q 1341 213 1159 525 
z
M 3116 1747 
Q 3116 2381 2855 2742 
Q 2594 3103 2138 3103 
Q 1681 3103 1420 2742 
Q 1159 2381 1159 1747 
Q 1159 1113 1420 752 
Q 1681 391 2138 391 
Q 2594 391 2855 752 
Q 3116 1113 3116 1747 
z
" transform="scale(0.015625)"/>
       <path id="DejaVuSans-20" transform="scale(0.015625)"/>
       <path id="DejaVuSans-75" d="M 544 1381 
L 544 3500 
L 1119 3500 
L 1119 1403 
Q 1119 906 1312 657 
Q 1506 409 1894 409 
Q 2359 409 2629 706 
Q 2900 1003 2900 1516 
L 2900 3500 
L 3475 3500 
L 3475 0 
L 2900 0 
L 2900 538 
Q 2691 219 2414 64 
Q 2138 -91 1772 -91 
Q 1169 -91 856 284 
Q 544 659 544 1381 
z
M 1991 3584 
L 1991 3584 
z
" transform="scale(0.015625)"/>
      </defs>
      <use xlink:href="#DejaVuSans-70"/>
      <use xlink:href="#DejaVuSans-72" x="63.476562"/>
      <use xlink:href="#DejaVuSans-65" x="102.339844"/>
      <use xlink:href="#DejaVuSans-64" x="163.863281"/>
      <use xlink:href="#DejaVuSans-69" x="227.339844"/>
      <use xlink:href="#DejaVuSans-63" x="255.123047"/>
      <use xlink:href="#DejaVuSans-74" x="310.103516"/>
      <use xlink:href="#DejaVuSans-69" x="349.3125"/>
      <use xlink:href="#DejaVuSans-6f" x="377.095703"/>
      <use xlink:href="#DejaVuSans-6e" x="438.277344"/>
      <use xlink:href="#DejaVuSans-20" x="501.65625"/>
      <use xlink:href="#DejaVuSans-61" x="533.443359"/>
      <use xlink:href="#DejaVuSans-63" x="594.722656"/>
      <use xlink:href="#DejaVuSans-63" x="649.703125"/>
      <use xlink:href="#DejaVuSans-75" x="704.683594"/>
      <use xlink:href="#DejaVuSans-72" x="768.0625"/>
      <use xlink:href="#DejaVuSans-61" x="809.175781"/>
      <use xlink:href="#DejaVuSans-63" x="870.455078"/>
      <use xlink:href="#DejaVuSans-79" x="925.435547"/>
     </g>
    </g>
   </g>
   <g id="line2d_9">
    <path d="M 219.6 129.978929 
L 219.6 129.938253 
" clip-path="url(#pbb781a4813)" style="fill: none; stroke: #3d3d3d; stroke-width: 2.25; stroke-linecap: square"/>
   </g>
   <g id="line2d_10">
    <path d="M 219.6 129.967291 
L 219.6 129.951111 
" clip-path="url(#pbb781a4813)" style="fill: none; stroke: #3d3d3d; stroke-width: 6.75; stroke-linecap: square"/>
   </g>
   <g id="line2d_11">
    <path d="M 442.8 299.90547 
L 442.8 129.93453 
" clip-path="url(#pbb781a4813)" style="fill: none; stroke: #3d3d3d; stroke-width: 2.25; stroke-linecap: square"/>
   </g>
   <g id="line2d_12">
    <path d="M 442.8 292.877483 
L 442.8 129.953802 
" clip-path="url(#pbb781a4813)" style="fill: none; stroke: #3d3d3d; stroke-width: 6.75; stroke-linecap: square"/>
   </g>
   <g id="line2d_13">
    <path d="M 666 299.497484 
L 666 129.936648 
" clip-path="url(#pbb781a4813)" style="fill: none; stroke: #3d3d3d; stroke-width: 2.25; stroke-linecap: square"/>
   </g>
   <g id="line2d_14">
    <path d="M 666 292.554495 
L 666 129.959044 
" clip-path="url(#pbb781a4813)" style="fill: none; stroke: #3d3d3d; stroke-width: 6.75; stroke-linecap: square"/>
   </g>
   <g id="patch_3">
    <path d="M 108 378 
L 108 51.84 
" style="fill: none; stroke: #000000; stroke-width: 1.875; stroke-linejoin: miter; stroke-linecap: square"/>
   </g>
   <g id="patch_4">
    <path d="M 777.6 378 
L 777.6 51.84 
" style="fill: none; stroke: #000000; stroke-width: 1.875; stroke-linejoin: miter; stroke-linecap: square"/>
   </g>
   <g id="patch_5">
    <path d="M 108 378 
L 777.6 378 
" style="fill: none; stroke: #000000; stroke-width: 1.875; stroke-linejoin: miter; stroke-linecap: square"/>
   </g>
   <g id="patch_6">
    <path d="M 108 51.84 
L 777.6 51.84 
" style="fill: none; stroke: #000000; stroke-width: 1.875; stroke-linejoin: miter; stroke-linecap: square"/>
   </g>
   <g id="PathCollection_1">
    <defs>
     <path id="m08d8025ea0" d="M 0 2.25 
C 0.596707 2.25 1.169055 2.012926 1.59099 1.59099 
C 2.012926 1.169055 2.25 0.596707 2.25 0 
C 2.25 -0.596707 2.012926 -1.169055 1.59099 -1.59099 
C 1.169055 -2.012926 0.596707 -2.25 0 -2.25 
C -0.596707 -2.25 -1.169055 -2.012926 -1.59099 -1.59099 
C -2.012926 -1.169055 -2.25 -0.596707 -2.25 0 
C -2.25 0.596707 -2.012926 1.169055 -1.59099 1.59099 
C -1.169055 2.012926 -0.596707 2.25 0 2.25 
z
" style="stroke: #3d3d3d; stroke-width: 1.5"/>
    </defs>
    <g clip-path="url(#pbb781a4813)">
     <use xlink:href="#m08d8025ea0" x="219.6" y="129.95606" style="fill: #ffffff; stroke: #3d3d3d; stroke-width: 1.5"/>
    </g>
   </g>
   <g id="PathCollection_2">
    <g clip-path="url(#pbb781a4813)">
     <use xlink:href="#m08d8025ea0" x="442.8" y="289.627324" style="fill: #ffffff; stroke: #3d3d3d; stroke-width: 1.5"/>
    </g>
   </g>
   <g id="PathCollection_3">
    <g clip-path="url(#pbb781a4813)">
     <use xlink:href="#m08d8025ea0" x="666" y="289.430333" style="fill: #ffffff; stroke: #3d3d3d; stroke-width: 1.5"/>
    </g>
   </g>
  </g>
 </g>
 <defs>
  <clipPath id="pbb781a4813">
   <rect x="108" y="51.84" width="669.6" height="326.16"/>
  </clipPath>
 </defs>
</svg>
