<?xml version="1.0" encoding="utf-8" standalone="no"?>
<!DOCTYPE svg PUBLIC "-//W3C//DTD SVG 1.1//EN"
  "http://www.w3.org/Graphics/SVG/1.1/DTD/svg11.dtd">
<!-- Created with matplotlib (https://matplotlib.org/) -->
<svg height="432pt" version="1.1" viewBox="0 0 864 432" width="864pt" xmlns="http://www.w3.org/2000/svg" xmlns:xlink="http://www.w3.org/1999/xlink">
 <metadata>
  <rdf:RDF xmlns:cc="http://creativecommons.org/ns#" xmlns:dc="http://purl.org/dc/elements/1.1/" xmlns:rdf="http://www.w3.org/1999/02/22-rdf-syntax-ns#">
   <cc:Work>
    <dc:type rdf:resource="http://purl.org/dc/dcmitype/StillImage"/>
    <dc:date>2023-04-16T12:02:32.727711</dc:date>
    <dc:format>image/svg+xml</dc:format>
    <dc:creator>
     <cc:Agent>
      <dc:title>Matplotlib v3.3.4, https://matplotlib.org/</dc:title>
     </cc:Agent>
    </dc:creator>
   </cc:Work>
  </rdf:RDF>
 </metadata>
 <defs>
  <style type="text/css">*{stroke-linecap:butt;stroke-linejoin:round;}</style>
 </defs>
 <g id="figure_1">
  <g id="patch_1">
   <path d="M 0 432 
L 864 432 
L 864 0 
L 0 0 
z
" style="fill:none;"/>
  </g>
  <g id="axes_1">
   <g id="patch_2">
    <path d="M 108 378 
L 777.6 378 
L 777.6 51.84 
L 108 51.84 
z
" style="fill:#ffffff;"/>
   </g>
   <g id="PolyCollection_1">
    <defs>
     <path d="M 220.219911 -93.286848 
L 218.980089 -93.286848 
L 218.781682 -95.788369 
L 218.537114 -98.289889 
L 218.241596 -100.79141 
L 217.891737 -103.29293 
L 217.486157 -105.794451 
L 217.026094 -108.295971 
L 216.515904 -110.797491 
L 215.963414 -113.299012 
L 215.380021 -115.800532 
L 214.780507 -118.302053 
L 214.182527 -120.803573 
L 213.605772 -123.305094 
L 213.070859 -125.806614 
L 212.598021 -128.308134 
L 212.205708 -130.809655 
L 211.909243 -133.311175 
L 211.719657 -135.812696 
L 211.642827 -138.314216 
L 211.679004 -140.815737 
L 211.822784 -143.317257 
L 212.063497 -145.818778 
L 212.385976 -148.320298 
L 212.771609 -150.821818 
L 213.199547 -153.323339 
L 213.647948 -155.824859 
L 214.09515 -158.32638 
L 214.520677 -160.8279 
L 214.906026 -163.329421 
L 215.235231 -165.830941 
L 215.495205 -168.332462 
L 215.675924 -170.833982 
L 215.770486 -173.335502 
L 215.775099 -175.837023 
L 215.689055 -178.338543 
L 215.514675 -180.840064 
L 215.257252 -183.341584 
L 214.924957 -185.843105 
L 214.528679 -188.344625 
L 214.081769 -190.846146 
L 213.599666 -193.347666 
L 213.099388 -195.849186 
L 212.598902 -198.350707 
L 212.116409 -200.852227 
L 211.669575 -203.353748 
L 211.274771 -205.855268 
L 210.946371 -208.356789 
L 210.696153 -210.858309 
L 210.532845 -213.35983 
L 210.461808 -215.86135 
L 210.484872 -218.36287 
L 210.600284 -220.864391 
L 210.802735 -223.365911 
L 211.08341 -225.867432 
L 211.430028 -228.368952 
L 211.826792 -230.870473 
L 212.254236 -233.371993 
L 212.688934 -235.873514 
L 213.103047 -238.375034 
L 213.463755 -240.876554 
L 213.732607 -243.378075 
L 213.864889 -245.879595 
L 213.809147 -248.381116 
L 213.507058 -250.882636 
L 212.893861 -253.384157 
L 211.899604 -255.885677 
L 210.451431 -258.387198 
L 208.477094 -260.888718 
L 205.909773 -263.390238 
L 202.694124 -265.891759 
L 198.793297 -268.393279 
L 194.196414 -270.8948 
L 188.925835 -273.39632 
L 183.043318 -275.897841 
L 176.654142 -278.399361 
L 169.908272 -280.900882 
L 162.997835 -283.402402 
L 156.150501 -285.903922 
L 149.618785 -288.405443 
L 143.665803 -290.906963 
L 138.548514 -293.408484 
L 134.499894 -295.910004 
L 131.711756 -298.411525 
L 130.32 -300.913045 
L 130.393878 -303.414566 
L 131.930476 -305.916086 
L 134.855041 -308.417606 
L 139.027121 -310.919127 
L 144.251823 -313.420647 
L 150.29495 -315.922168 
L 156.900381 -318.423688 
L 163.807919 -320.925209 
L 170.769889 -323.426729 
L 177.565077 -325.92825 
L 184.009006 -328.42977 
L 189.960064 -330.93129 
L 195.32151 -333.432811 
L 200.039799 -335.934331 
L 204.099983 -338.435852 
L 207.519128 -340.937372 
L 231.680872 -340.937372 
L 231.680872 -340.937372 
L 235.100017 -338.435852 
L 239.160201 -335.934331 
L 243.87849 -333.432811 
L 249.239936 -330.93129 
L 255.190994 -328.42977 
L 261.634923 -325.92825 
L 268.430111 -323.426729 
L 275.392081 -320.925209 
L 282.299619 -318.423688 
L 288.90505 -315.922168 
L 294.948177 -313.420647 
L 300.172879 -310.919127 
L 304.344959 -308.417606 
L 307.269524 -305.916086 
L 308.806122 -303.414566 
L 308.88 -300.913045 
L 307.488244 -298.411525 
L 304.700106 -295.910004 
L 300.651486 -293.408484 
L 295.534197 -290.906963 
L 289.581215 -288.405443 
L 283.049499 -285.903922 
L 276.202165 -283.402402 
L 269.291728 -280.900882 
L 262.545858 -278.399361 
L 256.156682 -275.897841 
L 250.274165 -273.39632 
L 245.003586 -270.8948 
L 240.406703 -268.393279 
L 236.505876 -265.891759 
L 233.290227 -263.390238 
L 230.722906 -260.888718 
L 228.748569 -258.387198 
L 227.300396 -255.885677 
L 226.306139 -253.384157 
L 225.692942 -250.882636 
L 225.390853 -248.381116 
L 225.335111 -245.879595 
L 225.467393 -243.378075 
L 225.736245 -240.876554 
L 226.096953 -238.375034 
L 226.511066 -235.873514 
L 226.945764 -233.371993 
L 227.373208 -230.870473 
L 227.769972 -228.368952 
L 228.11659 -225.867432 
L 228.397265 -223.365911 
L 228.599716 -220.864391 
L 228.715128 -218.36287 
L 228.738192 -215.86135 
L 228.667155 -213.35983 
L 228.503847 -210.858309 
L 228.253629 -208.356789 
L 227.925229 -205.855268 
L 227.530425 -203.353748 
L 227.083591 -200.852227 
L 226.601098 -198.350707 
L 226.100612 -195.849186 
L 225.600334 -193.347666 
L 225.118231 -190.846146 
L 224.671321 -188.344625 
L 224.275043 -185.843105 
L 223.942748 -183.341584 
L 223.685325 -180.840064 
L 223.510945 -178.338543 
L 223.424901 -175.837023 
L 223.429514 -173.335502 
L 223.524076 -170.833982 
L 223.704795 -168.332462 
L 223.964769 -165.830941 
L 224.293974 -163.329421 
L 224.679323 -160.8279 
L 225.10485 -158.32638 
L 225.552052 -155.824859 
L 226.000453 -153.323339 
L 226.428391 -150.821818 
L 226.814024 -148.320298 
L 227.136503 -145.818778 
L 227.377216 -143.317257 
L 227.520996 -140.815737 
L 227.557173 -138.314216 
L 227.480343 -135.812696 
L 227.290757 -133.311175 
L 226.994292 -130.809655 
L 226.601979 -128.308134 
L 226.129141 -125.806614 
L 225.594228 -123.305094 
L 225.017473 -120.803573 
L 224.419493 -118.302053 
L 223.819979 -115.800532 
L 223.236586 -113.299012 
L 222.684096 -110.797491 
L 222.173906 -108.295971 
L 221.713843 -105.794451 
L 221.308263 -103.29293 
L 220.958404 -100.79141 
L 220.662886 -98.289889 
L 220.418318 -95.788369 
L 220.219911 -93.286848 
z
" id="mfb05bcc265" style="stroke:#3d3d3d;stroke-width:2.25;"/>
    </defs>
    <g clip-path="url(#p3280f90a87)">
     <use style="fill:#3274a1;stroke:#3d3d3d;stroke-width:2.25;" x="0" xlink:href="#mfb05bcc265" y="432"/>
    </g>
   </g>
   <g id="PolyCollection_2">
    <defs>
     <path d="M 446.10221 -68.825455 
L 439.49779 -68.825455 
L 438.738487 -71.820496 
L 437.848843 -74.815537 
L 436.817797 -77.810579 
L 435.636069 -80.80562 
L 434.296896 -83.800661 
L 432.796789 -86.795702 
L 431.136271 -89.790744 
L 429.320573 -92.785785 
L 427.360202 -95.780826 
L 425.271368 -98.775868 
L 423.076191 -101.770909 
L 420.80267 -104.76595 
L 418.484362 -107.760992 
L 416.159767 -110.756033 
L 413.87142 -113.751074 
L 411.664698 -116.746116 
L 409.586395 -119.741157 
L 407.683109 -122.736198 
L 405.999533 -125.73124 
L 404.576719 -128.726281 
L 403.45042 -131.721322 
L 402.649598 -134.716364 
L 402.195188 -137.711405 
L 402.099184 -140.706446 
L 402.364116 -143.701488 
L 402.982938 -146.696529 
L 403.939334 -149.69157 
L 405.208432 -152.686612 
L 406.757877 -155.681653 
L 408.549189 -158.676694 
L 410.539349 -161.671736 
L 412.68249 -164.666777 
L 414.931627 -167.661818 
L 417.240315 -170.65686 
L 419.56417 -173.651901 
L 421.862167 -176.646942 
L 424.097679 -179.641983 
L 426.239218 -182.637025 
L 428.260873 -185.632066 
L 430.142452 -188.627107 
L 431.86934 -191.622149 
L 433.432136 -194.61719 
L 434.826083 -197.612231 
L 436.050372 -200.607273 
L 437.107352 -203.602314 
L 438.00171 -206.597355 
L 438.739658 -209.592397 
L 439.328178 -212.587438 
L 439.774351 -215.582479 
L 440.084801 -218.577521 
L 440.26527 -221.572562 
L 440.320335 -224.567603 
L 440.253275 -227.562645 
L 440.066083 -230.557686 
L 439.759624 -233.552727 
L 439.333914 -236.547769 
L 438.788519 -239.54281 
L 438.123039 -242.537851 
L 437.33767 -245.532893 
L 436.433786 -248.527934 
L 435.41454 -251.522975 
L 434.285427 -254.518017 
L 433.054774 -257.513058 
L 431.734131 -260.508099 
L 430.338518 -263.50314 
L 428.886497 -266.498182 
L 427.400064 -269.493223 
L 425.904325 -272.488264 
L 424.42697 -275.483306 
L 422.997556 -278.478347 
L 421.64662 -281.473388 
L 420.404658 -284.46843 
L 419.301031 -287.463471 
L 418.362836 -290.458512 
L 417.613821 -293.453554 
L 417.073404 -296.448595 
L 416.755836 -299.443636 
L 416.66959 -302.438678 
L 416.816987 -305.433719 
L 417.194093 -308.42876 
L 417.790898 -311.423802 
L 418.591757 -314.418843 
L 419.576073 -317.413884 
L 420.719179 -320.408926 
L 421.99336 -323.403967 
L 423.368968 -326.399008 
L 424.815559 -329.39405 
L 426.302992 -332.389091 
L 427.802441 -335.384132 
L 429.287269 -338.379174 
L 430.733736 -341.374215 
L 432.121513 -344.369256 
L 433.434009 -347.364298 
L 434.658491 -350.359339 
L 435.78604 -353.35438 
L 436.811352 -356.349421 
L 437.732411 -359.344463 
L 438.550076 -362.339504 
L 439.267614 -365.334545 
L 446.332386 -365.334545 
L 446.332386 -365.334545 
L 447.049924 -362.339504 
L 447.867589 -359.344463 
L 448.788648 -356.349421 
L 449.81396 -353.35438 
L 450.941509 -350.359339 
L 452.165991 -347.364298 
L 453.478487 -344.369256 
L 454.866264 -341.374215 
L 456.312731 -338.379174 
L 457.797559 -335.384132 
L 459.297008 -332.389091 
L 460.784441 -329.39405 
L 462.231032 -326.399008 
L 463.60664 -323.403967 
L 464.880821 -320.408926 
L 466.023927 -317.413884 
L 467.008243 -314.418843 
L 467.809102 -311.423802 
L 468.405907 -308.42876 
L 468.783013 -305.433719 
L 468.93041 -302.438678 
L 468.844164 -299.443636 
L 468.526596 -296.448595 
L 467.986179 -293.453554 
L 467.237164 -290.458512 
L 466.298969 -287.463471 
L 465.195342 -284.46843 
L 463.95338 -281.473388 
L 462.602444 -278.478347 
L 461.17303 -275.483306 
L 459.695675 -272.488264 
L 458.199936 -269.493223 
L 456.713503 -266.498182 
L 455.261482 -263.50314 
L 453.865869 -260.508099 
L 452.545226 -257.513058 
L 451.314573 -254.518017 
L 450.18546 -251.522975 
L 449.166214 -248.527934 
L 448.26233 -245.532893 
L 447.476961 -242.537851 
L 446.811481 -239.54281 
L 446.266086 -236.547769 
L 445.840376 -233.552727 
L 445.533917 -230.557686 
L 445.346725 -227.562645 
L 445.279665 -224.567603 
L 445.33473 -221.572562 
L 445.515199 -218.577521 
L 445.825649 -215.582479 
L 446.271822 -212.587438 
L 446.860342 -209.592397 
L 447.59829 -206.597355 
L 448.492648 -203.602314 
L 449.549628 -200.607273 
L 450.773917 -197.612231 
L 452.167864 -194.61719 
L 453.73066 -191.622149 
L 455.457548 -188.627107 
L 457.339127 -185.632066 
L 459.360782 -182.637025 
L 461.502321 -179.641983 
L 463.737833 -176.646942 
L 466.03583 -173.651901 
L 468.359685 -170.65686 
L 470.668373 -167.661818 
L 472.91751 -164.666777 
L 475.060651 -161.671736 
L 477.050811 -158.676694 
L 478.842123 -155.681653 
L 480.391568 -152.686612 
L 481.660666 -149.69157 
L 482.617062 -146.696529 
L 483.235884 -143.701488 
L 483.500816 -140.706446 
L 483.404812 -137.711405 
L 482.950402 -134.716364 
L 482.14958 -131.721322 
L 481.023281 -128.726281 
L 479.600467 -125.73124 
L 477.916891 -122.736198 
L 476.013605 -119.741157 
L 473.935302 -116.746116 
L 471.72858 -113.751074 
L 469.440233 -110.756033 
L 467.115638 -107.760992 
L 464.79733 -104.76595 
L 462.523809 -101.770909 
L 460.328632 -98.775868 
L 458.239798 -95.780826 
L 456.279427 -92.785785 
L 454.463729 -89.790744 
L 452.803211 -86.795702 
L 451.303104 -83.800661 
L 449.963931 -80.80562 
L 448.782203 -77.810579 
L 447.751157 -74.815537 
L 446.861513 -71.820496 
L 446.10221 -68.825455 
z
" id="m76502ff3df" style="stroke:#3d3d3d;stroke-width:2.25;"/>
    </defs>
    <g clip-path="url(#p3280f90a87)">
     <use style="fill:#e1812c;stroke:#3d3d3d;stroke-width:2.25;" x="0" xlink:href="#m76502ff3df" y="432"/>
    </g>
   </g>
   <g id="PolyCollection_3">
    <defs>
     <path d="M 669.645333 -71.217724 
L 662.354667 -71.217724 
L 661.501891 -74.168536 
L 660.500188 -77.119349 
L 659.336677 -80.070161 
L 658.000567 -83.020973 
L 656.484034 -85.971785 
L 654.78312 -88.922598 
L 652.898623 -91.87341 
L 650.836915 -94.824222 
L 648.61062 -97.775035 
L 646.239103 -100.725847 
L 643.7487 -103.676659 
L 641.172647 -106.627472 
L 638.550662 -109.578284 
L 635.928167 -112.529096 
L 633.355152 -115.479909 
L 630.884711 -118.430721 
L 628.571291 -121.381533 
L 626.468746 -124.332346 
L 624.628275 -127.283158 
L 623.096363 -130.23397 
L 621.912833 -133.184783 
L 621.109129 -136.135595 
L 620.706927 -139.086407 
L 620.717161 -142.03722 
L 621.139533 -144.988032 
L 621.962524 -147.938844 
L 623.163914 -150.889657 
L 624.711779 -153.840469 
L 626.565898 -156.791281 
L 628.679481 -159.742094 
L 631.001125 -162.692906 
L 633.47687 -165.643718 
L 636.052249 -168.59453 
L 638.674217 -171.545343 
L 641.292877 -174.496155 
L 643.862911 -177.446967 
L 646.344683 -180.39778 
L 648.704969 -183.348592 
L 650.917327 -186.299404 
L 652.962124 -189.250217 
L 654.826243 -192.201029 
L 656.502538 -195.151841 
L 657.989093 -198.102654 
L 659.28834 -201.053466 
L 660.406102 -204.004278 
L 661.350628 -206.955091 
L 662.131653 -209.905903 
L 662.759542 -212.856715 
L 663.24454 -215.807528 
L 663.596156 -218.75834 
L 663.822695 -221.709152 
L 663.93094 -224.659965 
L 663.925997 -227.610777 
L 663.811286 -230.561589 
L 663.588675 -233.512402 
L 663.258748 -236.463214 
L 662.821184 -239.414026 
L 662.275231 -242.364839 
L 661.62026 -245.315651 
L 660.856354 -248.266463 
L 659.984922 -251.217276 
L 659.009295 -254.168088 
L 657.93527 -257.1189 
L 656.771562 -260.069712 
L 655.530143 -263.020525 
L 654.226412 -265.971337 
L 652.8792 -268.922149 
L 651.510563 -271.872962 
L 650.145377 -274.823774 
L 648.810724 -277.774586 
L 647.53511 -280.725399 
L 646.347513 -283.676211 
L 645.276343 -286.627023 
L 644.34834 -289.577836 
L 643.587483 -292.528648 
L 643.013973 -295.47946 
L 642.643351 -298.430273 
L 642.485798 -301.381085 
L 642.54568 -304.331897 
L 642.821345 -307.28271 
L 643.305201 -310.233522 
L 643.984065 -313.184334 
L 644.83976 -316.135147 
L 645.849923 -319.085959 
L 646.988979 -322.036771 
L 648.229206 -324.987584 
L 649.541857 -327.938396 
L 650.898243 -330.889208 
L 652.270752 -333.840021 
L 653.633733 -336.790833 
L 654.964217 -339.741645 
L 656.242461 -342.692458 
L 657.452284 -345.64327 
L 658.581221 -348.594082 
L 659.620488 -351.544894 
L 660.564805 -354.495707 
L 661.412085 -357.446519 
L 662.163031 -360.397331 
L 662.820683 -363.348144 
L 669.179317 -363.348144 
L 669.179317 -363.348144 
L 669.836969 -360.397331 
L 670.587915 -357.446519 
L 671.435195 -354.495707 
L 672.379512 -351.544894 
L 673.418779 -348.594082 
L 674.547716 -345.64327 
L 675.757539 -342.692458 
L 677.035783 -339.741645 
L 678.366267 -336.790833 
L 679.729248 -333.840021 
L 681.101757 -330.889208 
L 682.458143 -327.938396 
L 683.770794 -324.987584 
L 685.011021 -322.036771 
L 686.150077 -319.085959 
L 687.16024 -316.135147 
L 688.015935 -313.184334 
L 688.694799 -310.233522 
L 689.178655 -307.28271 
L 689.45432 -304.331897 
L 689.514202 -301.381085 
L 689.356649 -298.430273 
L 688.986027 -295.47946 
L 688.412517 -292.528648 
L 687.65166 -289.577836 
L 686.723657 -286.627023 
L 685.652487 -283.676211 
L 684.46489 -280.725399 
L 683.189276 -277.774586 
L 681.854623 -274.823774 
L 680.489437 -271.872962 
L 679.1208 -268.922149 
L 677.773588 -265.971337 
L 676.469857 -263.020525 
L 675.228438 -260.069712 
L 674.06473 -257.1189 
L 672.990705 -254.168088 
L 672.015078 -251.217276 
L 671.143646 -248.266463 
L 670.37974 -245.315651 
L 669.724769 -242.364839 
L 669.178816 -239.414026 
L 668.741252 -236.463214 
L 668.411325 -233.512402 
L 668.188714 -230.561589 
L 668.074003 -227.610777 
L 668.06906 -224.659965 
L 668.177305 -221.709152 
L 668.403844 -218.75834 
L 668.75546 -215.807528 
L 669.240458 -212.856715 
L 669.868347 -209.905903 
L 670.649372 -206.955091 
L 671.593898 -204.004278 
L 672.71166 -201.053466 
L 674.010907 -198.102654 
L 675.497462 -195.151841 
L 677.173757 -192.201029 
L 679.037876 -189.250217 
L 681.082673 -186.299404 
L 683.295031 -183.348592 
L 685.655317 -180.39778 
L 688.137089 -177.446967 
L 690.707123 -174.496155 
L 693.325783 -171.545343 
L 695.947751 -168.59453 
L 698.52313 -165.643718 
L 700.998875 -162.692906 
L 703.320519 -159.742094 
L 705.434102 -156.791281 
L 707.288221 -153.840469 
L 708.836086 -150.889657 
L 710.037476 -147.938844 
L 710.860467 -144.988032 
L 711.282839 -142.03722 
L 711.293073 -139.086407 
L 710.890871 -136.135595 
L 710.087167 -133.184783 
L 708.903637 -130.23397 
L 707.371725 -127.283158 
L 705.531254 -124.332346 
L 703.428709 -121.381533 
L 701.115289 -118.430721 
L 698.644848 -115.479909 
L 696.071833 -112.529096 
L 693.449338 -109.578284 
L 690.827353 -106.627472 
L 688.2513 -103.676659 
L 685.760897 -100.725847 
L 683.38938 -97.775035 
L 681.163085 -94.824222 
L 679.101377 -91.87341 
L 677.21688 -88.922598 
L 675.515966 -85.971785 
L 673.999433 -83.020973 
L 672.663323 -80.070161 
L 671.499812 -77.119349 
L 670.498109 -74.168536 
L 669.645333 -71.217724 
z
" id="m5ccd5ec882" style="stroke:#3d3d3d;stroke-width:2.25;"/>
    </defs>
    <g clip-path="url(#p3280f90a87)">
     <use style="fill:#3a923a;stroke:#3d3d3d;stroke-width:2.25;" x="0" xlink:href="#m5ccd5ec882" y="432"/>
    </g>
   </g>
   <g id="matplotlib.axis_1">
    <g id="xtick_1">
     <g id="line2d_1">
      <defs>
       <path d="M 0 0 
L 0 9 
" id="md9f9e26f67" style="stroke:#000000;stroke-width:1.875;"/>
      </defs>
      <g>
       <use style="stroke:#000000;stroke-width:1.875;" x="219.6" xlink:href="#md9f9e26f67" y="378"/>
      </g>
     </g>
     <g id="text_1">
      <!-- early -->
      <g transform="translate(198.901523 403.037422)scale(0.165 -0.165)">
       <defs>
        <path d="M 56.203125 29.59375 
L 56.203125 25.203125 
L 14.890625 25.203125 
Q 15.484375 15.921875 20.484375 11.0625 
Q 25.484375 6.203125 34.421875 6.203125 
Q 39.59375 6.203125 44.453125 7.46875 
Q 49.3125 8.734375 54.109375 11.28125 
L 54.109375 2.78125 
Q 49.265625 0.734375 44.1875 -0.34375 
Q 39.109375 -1.421875 33.890625 -1.421875 
Q 20.796875 -1.421875 13.15625 6.1875 
Q 5.515625 13.8125 5.515625 26.8125 
Q 5.515625 40.234375 12.765625 48.109375 
Q 20.015625 56 32.328125 56 
Q 43.359375 56 49.78125 48.890625 
Q 56.203125 41.796875 56.203125 29.59375 
z
M 47.21875 32.234375 
Q 47.125 39.59375 43.09375 43.984375 
Q 39.0625 48.390625 32.421875 48.390625 
Q 24.90625 48.390625 20.390625 44.140625 
Q 15.875 39.890625 15.1875 32.171875 
z
" id="DejaVuSans-101"/>
        <path d="M 34.28125 27.484375 
Q 23.390625 27.484375 19.1875 25 
Q 14.984375 22.515625 14.984375 16.5 
Q 14.984375 11.71875 18.140625 8.90625 
Q 21.296875 6.109375 26.703125 6.109375 
Q 34.1875 6.109375 38.703125 11.40625 
Q 43.21875 16.703125 43.21875 25.484375 
L 43.21875 27.484375 
z
M 52.203125 31.203125 
L 52.203125 0 
L 43.21875 0 
L 43.21875 8.296875 
Q 40.140625 3.328125 35.546875 0.953125 
Q 30.953125 -1.421875 24.3125 -1.421875 
Q 15.921875 -1.421875 10.953125 3.296875 
Q 6 8.015625 6 15.921875 
Q 6 25.140625 12.171875 29.828125 
Q 18.359375 34.515625 30.609375 34.515625 
L 43.21875 34.515625 
L 43.21875 35.40625 
Q 43.21875 41.609375 39.140625 45 
Q 35.0625 48.390625 27.6875 48.390625 
Q 23 48.390625 18.546875 47.265625 
Q 14.109375 46.140625 10.015625 43.890625 
L 10.015625 52.203125 
Q 14.9375 54.109375 19.578125 55.046875 
Q 24.21875 56 28.609375 56 
Q 40.484375 56 46.34375 49.84375 
Q 52.203125 43.703125 52.203125 31.203125 
z
" id="DejaVuSans-97"/>
        <path d="M 41.109375 46.296875 
Q 39.59375 47.171875 37.8125 47.578125 
Q 36.03125 48 33.890625 48 
Q 26.265625 48 22.1875 43.046875 
Q 18.109375 38.09375 18.109375 28.8125 
L 18.109375 0 
L 9.078125 0 
L 9.078125 54.6875 
L 18.109375 54.6875 
L 18.109375 46.1875 
Q 20.953125 51.171875 25.484375 53.578125 
Q 30.03125 56 36.53125 56 
Q 37.453125 56 38.578125 55.875 
Q 39.703125 55.765625 41.0625 55.515625 
z
" id="DejaVuSans-114"/>
        <path d="M 9.421875 75.984375 
L 18.40625 75.984375 
L 18.40625 0 
L 9.421875 0 
z
" id="DejaVuSans-108"/>
        <path d="M 32.171875 -5.078125 
Q 28.375 -14.84375 24.75 -17.8125 
Q 21.140625 -20.796875 15.09375 -20.796875 
L 7.90625 -20.796875 
L 7.90625 -13.28125 
L 13.1875 -13.28125 
Q 16.890625 -13.28125 18.9375 -11.515625 
Q 21 -9.765625 23.484375 -3.21875 
L 25.09375 0.875 
L 2.984375 54.6875 
L 12.5 54.6875 
L 29.59375 11.921875 
L 46.6875 54.6875 
L 56.203125 54.6875 
z
" id="DejaVuSans-121"/>
       </defs>
       <use xlink:href="#DejaVuSans-101"/>
       <use x="61.523438" xlink:href="#DejaVuSans-97"/>
       <use x="122.802734" xlink:href="#DejaVuSans-114"/>
       <use x="163.916016" xlink:href="#DejaVuSans-108"/>
       <use x="191.699219" xlink:href="#DejaVuSans-121"/>
      </g>
     </g>
    </g>
    <g id="xtick_2">
     <g id="line2d_2">
      <g>
       <use style="stroke:#000000;stroke-width:1.875;" x="442.8" xlink:href="#md9f9e26f67" y="378"/>
      </g>
     </g>
     <g id="text_2">
      <!-- late -->
      <g transform="translate(427.141758 403.037422)scale(0.165 -0.165)">
       <defs>
        <path d="M 18.3125 70.21875 
L 18.3125 54.6875 
L 36.8125 54.6875 
L 36.8125 47.703125 
L 18.3125 47.703125 
L 18.3125 18.015625 
Q 18.3125 11.328125 20.140625 9.421875 
Q 21.96875 7.515625 27.59375 7.515625 
L 36.8125 7.515625 
L 36.8125 0 
L 27.59375 0 
Q 17.1875 0 13.234375 3.875 
Q 9.28125 7.765625 9.28125 18.015625 
L 9.28125 47.703125 
L 2.6875 47.703125 
L 2.6875 54.6875 
L 9.28125 54.6875 
L 9.28125 70.21875 
z
" id="DejaVuSans-116"/>
       </defs>
       <use xlink:href="#DejaVuSans-108"/>
       <use x="27.783203" xlink:href="#DejaVuSans-97"/>
       <use x="89.0625" xlink:href="#DejaVuSans-116"/>
       <use x="128.271484" xlink:href="#DejaVuSans-101"/>
      </g>
     </g>
    </g>
    <g id="xtick_3">
     <g id="line2d_3">
      <g>
       <use style="stroke:#000000;stroke-width:1.875;" x="666" xlink:href="#md9f9e26f67" y="378"/>
      </g>
     </g>
     <g id="text_3">
      <!-- middle -->
      <g transform="translate(637.828828 403.037422)scale(0.165 -0.165)">
       <defs>
        <path d="M 52 44.1875 
Q 55.375 50.25 60.0625 53.125 
Q 64.75 56 71.09375 56 
Q 79.640625 56 84.28125 50.015625 
Q 88.921875 44.046875 88.921875 33.015625 
L 88.921875 0 
L 79.890625 0 
L 79.890625 32.71875 
Q 79.890625 40.578125 77.09375 44.375 
Q 74.3125 48.1875 68.609375 48.1875 
Q 61.625 48.1875 57.5625 43.546875 
Q 53.515625 38.921875 53.515625 30.90625 
L 53.515625 0 
L 44.484375 0 
L 44.484375 32.71875 
Q 44.484375 40.625 41.703125 44.40625 
Q 38.921875 48.1875 33.109375 48.1875 
Q 26.21875 48.1875 22.15625 43.53125 
Q 18.109375 38.875 18.109375 30.90625 
L 18.109375 0 
L 9.078125 0 
L 9.078125 54.6875 
L 18.109375 54.6875 
L 18.109375 46.1875 
Q 21.1875 51.21875 25.484375 53.609375 
Q 29.78125 56 35.6875 56 
Q 41.65625 56 45.828125 52.96875 
Q 50 49.953125 52 44.1875 
z
" id="DejaVuSans-109"/>
        <path d="M 9.421875 54.6875 
L 18.40625 54.6875 
L 18.40625 0 
L 9.421875 0 
z
M 9.421875 75.984375 
L 18.40625 75.984375 
L 18.40625 64.59375 
L 9.421875 64.59375 
z
" id="DejaVuSans-105"/>
        <path d="M 45.40625 46.390625 
L 45.40625 75.984375 
L 54.390625 75.984375 
L 54.390625 0 
L 45.40625 0 
L 45.40625 8.203125 
Q 42.578125 3.328125 38.25 0.953125 
Q 33.9375 -1.421875 27.875 -1.421875 
Q 17.96875 -1.421875 11.734375 6.484375 
Q 5.515625 14.40625 5.515625 27.296875 
Q 5.515625 40.1875 11.734375 48.09375 
Q 17.96875 56 27.875 56 
Q 33.9375 56 38.25 53.625 
Q 42.578125 51.265625 45.40625 46.390625 
z
M 14.796875 27.296875 
Q 14.796875 17.390625 18.875 11.75 
Q 22.953125 6.109375 30.078125 6.109375 
Q 37.203125 6.109375 41.296875 11.75 
Q 45.40625 17.390625 45.40625 27.296875 
Q 45.40625 37.203125 41.296875 42.84375 
Q 37.203125 48.484375 30.078125 48.484375 
Q 22.953125 48.484375 18.875 42.84375 
Q 14.796875 37.203125 14.796875 27.296875 
z
" id="DejaVuSans-100"/>
       </defs>
       <use xlink:href="#DejaVuSans-109"/>
       <use x="97.412109" xlink:href="#DejaVuSans-105"/>
       <use x="125.195312" xlink:href="#DejaVuSans-100"/>
       <use x="188.671875" xlink:href="#DejaVuSans-100"/>
       <use x="252.148438" xlink:href="#DejaVuSans-108"/>
       <use x="279.931641" xlink:href="#DejaVuSans-101"/>
      </g>
     </g>
    </g>
    <g id="text_4">
     <!-- condition -->
     <g transform="translate(401.187656 424.146094)scale(0.18 -0.18)">
      <defs>
       <path d="M 48.78125 52.59375 
L 48.78125 44.1875 
Q 44.96875 46.296875 41.140625 47.34375 
Q 37.3125 48.390625 33.40625 48.390625 
Q 24.65625 48.390625 19.8125 42.84375 
Q 14.984375 37.3125 14.984375 27.296875 
Q 14.984375 17.28125 19.8125 11.734375 
Q 24.65625 6.203125 33.40625 6.203125 
Q 37.3125 6.203125 41.140625 7.25 
Q 44.96875 8.296875 48.78125 10.40625 
L 48.78125 2.09375 
Q 45.015625 0.34375 40.984375 -0.53125 
Q 36.96875 -1.421875 32.421875 -1.421875 
Q 20.0625 -1.421875 12.78125 6.34375 
Q 5.515625 14.109375 5.515625 27.296875 
Q 5.515625 40.671875 12.859375 48.328125 
Q 20.21875 56 33.015625 56 
Q 37.15625 56 41.109375 55.140625 
Q 45.0625 54.296875 48.78125 52.59375 
z
" id="DejaVuSans-99"/>
       <path d="M 30.609375 48.390625 
Q 23.390625 48.390625 19.1875 42.75 
Q 14.984375 37.109375 14.984375 27.296875 
Q 14.984375 17.484375 19.15625 11.84375 
Q 23.34375 6.203125 30.609375 6.203125 
Q 37.796875 6.203125 41.984375 11.859375 
Q 46.1875 17.53125 46.1875 27.296875 
Q 46.1875 37.015625 41.984375 42.703125 
Q 37.796875 48.390625 30.609375 48.390625 
z
M 30.609375 56 
Q 42.328125 56 49.015625 48.375 
Q 55.71875 40.765625 55.71875 27.296875 
Q 55.71875 13.875 49.015625 6.21875 
Q 42.328125 -1.421875 30.609375 -1.421875 
Q 18.84375 -1.421875 12.171875 6.21875 
Q 5.515625 13.875 5.515625 27.296875 
Q 5.515625 40.765625 12.171875 48.375 
Q 18.84375 56 30.609375 56 
z
" id="DejaVuSans-111"/>
       <path d="M 54.890625 33.015625 
L 54.890625 0 
L 45.90625 0 
L 45.90625 32.71875 
Q 45.90625 40.484375 42.875 44.328125 
Q 39.84375 48.1875 33.796875 48.1875 
Q 26.515625 48.1875 22.3125 43.546875 
Q 18.109375 38.921875 18.109375 30.90625 
L 18.109375 0 
L 9.078125 0 
L 9.078125 54.6875 
L 18.109375 54.6875 
L 18.109375 46.1875 
Q 21.34375 51.125 25.703125 53.5625 
Q 30.078125 56 35.796875 56 
Q 45.21875 56 50.046875 50.171875 
Q 54.890625 44.34375 54.890625 33.015625 
z
" id="DejaVuSans-110"/>
      </defs>
      <use xlink:href="#DejaVuSans-99"/>
      <use x="54.980469" xlink:href="#DejaVuSans-111"/>
      <use x="116.162109" xlink:href="#DejaVuSans-110"/>
      <use x="179.541016" xlink:href="#DejaVuSans-100"/>
      <use x="243.017578" xlink:href="#DejaVuSans-105"/>
      <use x="270.800781" xlink:href="#DejaVuSans-116"/>
      <use x="310.009766" xlink:href="#DejaVuSans-105"/>
      <use x="337.792969" xlink:href="#DejaVuSans-111"/>
      <use x="398.974609" xlink:href="#DejaVuSans-110"/>
     </g>
    </g>
   </g>
   <g id="matplotlib.axis_2">
    <g id="ytick_1">
     <g id="line2d_4">
      <defs>
       <path d="M 0 0 
L -9 0 
" id="m68c7f0fd51" style="stroke:#000000;stroke-width:1.875;"/>
      </defs>
      <g>
       <use style="stroke:#000000;stroke-width:1.875;" x="108" xlink:href="#m68c7f0fd51" y="325.373963"/>
      </g>
     </g>
     <g id="text_5">
      <!-- 0.4 -->
      <g transform="translate(69.259844 331.642674)scale(0.165 -0.165)">
       <defs>
        <path d="M 31.78125 66.40625 
Q 24.171875 66.40625 20.328125 58.90625 
Q 16.5 51.421875 16.5 36.375 
Q 16.5 21.390625 20.328125 13.890625 
Q 24.171875 6.390625 31.78125 6.390625 
Q 39.453125 6.390625 43.28125 13.890625 
Q 47.125 21.390625 47.125 36.375 
Q 47.125 51.421875 43.28125 58.90625 
Q 39.453125 66.40625 31.78125 66.40625 
z
M 31.78125 74.21875 
Q 44.046875 74.21875 50.515625 64.515625 
Q 56.984375 54.828125 56.984375 36.375 
Q 56.984375 17.96875 50.515625 8.265625 
Q 44.046875 -1.421875 31.78125 -1.421875 
Q 19.53125 -1.421875 13.0625 8.265625 
Q 6.59375 17.96875 6.59375 36.375 
Q 6.59375 54.828125 13.0625 64.515625 
Q 19.53125 74.21875 31.78125 74.21875 
z
" id="DejaVuSans-48"/>
        <path d="M 10.6875 12.40625 
L 21 12.40625 
L 21 0 
L 10.6875 0 
z
" id="DejaVuSans-46"/>
        <path d="M 37.796875 64.3125 
L 12.890625 25.390625 
L 37.796875 25.390625 
z
M 35.203125 72.90625 
L 47.609375 72.90625 
L 47.609375 25.390625 
L 58.015625 25.390625 
L 58.015625 17.1875 
L 47.609375 17.1875 
L 47.609375 0 
L 37.796875 0 
L 37.796875 17.1875 
L 4.890625 17.1875 
L 4.890625 26.703125 
z
" id="DejaVuSans-52"/>
       </defs>
       <use xlink:href="#DejaVuSans-48"/>
       <use x="63.623047" xlink:href="#DejaVuSans-46"/>
       <use x="95.410156" xlink:href="#DejaVuSans-52"/>
      </g>
     </g>
    </g>
    <g id="ytick_2">
     <g id="line2d_5">
      <g>
       <use style="stroke:#000000;stroke-width:1.875;" x="108" xlink:href="#m68c7f0fd51" y="258.056931"/>
      </g>
     </g>
     <g id="text_6">
      <!-- 0.6 -->
      <g transform="translate(69.259844 264.325642)scale(0.165 -0.165)">
       <defs>
        <path d="M 33.015625 40.375 
Q 26.375 40.375 22.484375 35.828125 
Q 18.609375 31.296875 18.609375 23.390625 
Q 18.609375 15.53125 22.484375 10.953125 
Q 26.375 6.390625 33.015625 6.390625 
Q 39.65625 6.390625 43.53125 10.953125 
Q 47.40625 15.53125 47.40625 23.390625 
Q 47.40625 31.296875 43.53125 35.828125 
Q 39.65625 40.375 33.015625 40.375 
z
M 52.59375 71.296875 
L 52.59375 62.3125 
Q 48.875 64.0625 45.09375 64.984375 
Q 41.3125 65.921875 37.59375 65.921875 
Q 27.828125 65.921875 22.671875 59.328125 
Q 17.53125 52.734375 16.796875 39.40625 
Q 19.671875 43.65625 24.015625 45.921875 
Q 28.375 48.1875 33.59375 48.1875 
Q 44.578125 48.1875 50.953125 41.515625 
Q 57.328125 34.859375 57.328125 23.390625 
Q 57.328125 12.15625 50.6875 5.359375 
Q 44.046875 -1.421875 33.015625 -1.421875 
Q 20.359375 -1.421875 13.671875 8.265625 
Q 6.984375 17.96875 6.984375 36.375 
Q 6.984375 53.65625 15.1875 63.9375 
Q 23.390625 74.21875 37.203125 74.21875 
Q 40.921875 74.21875 44.703125 73.484375 
Q 48.484375 72.75 52.59375 71.296875 
z
" id="DejaVuSans-54"/>
       </defs>
       <use xlink:href="#DejaVuSans-48"/>
       <use x="63.623047" xlink:href="#DejaVuSans-46"/>
       <use x="95.410156" xlink:href="#DejaVuSans-54"/>
      </g>
     </g>
    </g>
    <g id="ytick_3">
     <g id="line2d_6">
      <g>
       <use style="stroke:#000000;stroke-width:1.875;" x="108" xlink:href="#m68c7f0fd51" y="190.739899"/>
      </g>
     </g>
     <g id="text_7">
      <!-- 0.8 -->
      <g transform="translate(69.259844 197.00861)scale(0.165 -0.165)">
       <defs>
        <path d="M 31.78125 34.625 
Q 24.75 34.625 20.71875 30.859375 
Q 16.703125 27.09375 16.703125 20.515625 
Q 16.703125 13.921875 20.71875 10.15625 
Q 24.75 6.390625 31.78125 6.390625 
Q 38.8125 6.390625 42.859375 10.171875 
Q 46.921875 13.96875 46.921875 20.515625 
Q 46.921875 27.09375 42.890625 30.859375 
Q 38.875 34.625 31.78125 34.625 
z
M 21.921875 38.8125 
Q 15.578125 40.375 12.03125 44.71875 
Q 8.5 49.078125 8.5 55.328125 
Q 8.5 64.0625 14.71875 69.140625 
Q 20.953125 74.21875 31.78125 74.21875 
Q 42.671875 74.21875 48.875 69.140625 
Q 55.078125 64.0625 55.078125 55.328125 
Q 55.078125 49.078125 51.53125 44.71875 
Q 48 40.375 41.703125 38.8125 
Q 48.828125 37.15625 52.796875 32.3125 
Q 56.78125 27.484375 56.78125 20.515625 
Q 56.78125 9.90625 50.3125 4.234375 
Q 43.84375 -1.421875 31.78125 -1.421875 
Q 19.734375 -1.421875 13.25 4.234375 
Q 6.78125 9.90625 6.78125 20.515625 
Q 6.78125 27.484375 10.78125 32.3125 
Q 14.796875 37.15625 21.921875 38.8125 
z
M 18.3125 54.390625 
Q 18.3125 48.734375 21.84375 45.5625 
Q 25.390625 42.390625 31.78125 42.390625 
Q 38.140625 42.390625 41.71875 45.5625 
Q 45.3125 48.734375 45.3125 54.390625 
Q 45.3125 60.0625 41.71875 63.234375 
Q 38.140625 66.40625 31.78125 66.40625 
Q 25.390625 66.40625 21.84375 63.234375 
Q 18.3125 60.0625 18.3125 54.390625 
z
" id="DejaVuSans-56"/>
       </defs>
       <use xlink:href="#DejaVuSans-48"/>
       <use x="63.623047" xlink:href="#DejaVuSans-46"/>
       <use x="95.410156" xlink:href="#DejaVuSans-56"/>
      </g>
     </g>
    </g>
    <g id="ytick_4">
     <g id="line2d_7">
      <g>
       <use style="stroke:#000000;stroke-width:1.875;" x="108" xlink:href="#m68c7f0fd51" y="123.422867"/>
      </g>
     </g>
     <g id="text_8">
      <!-- 1.0 -->
      <g transform="translate(69.259844 129.691578)scale(0.165 -0.165)">
       <defs>
        <path d="M 12.40625 8.296875 
L 28.515625 8.296875 
L 28.515625 63.921875 
L 10.984375 60.40625 
L 10.984375 69.390625 
L 28.421875 72.90625 
L 38.28125 72.90625 
L 38.28125 8.296875 
L 54.390625 8.296875 
L 54.390625 0 
L 12.40625 0 
z
" id="DejaVuSans-49"/>
       </defs>
       <use xlink:href="#DejaVuSans-49"/>
       <use x="63.623047" xlink:href="#DejaVuSans-46"/>
       <use x="95.410156" xlink:href="#DejaVuSans-48"/>
      </g>
     </g>
    </g>
    <g id="ytick_5">
     <g id="line2d_8">
      <g>
       <use style="stroke:#000000;stroke-width:1.875;" x="108" xlink:href="#m68c7f0fd51" y="56.105836"/>
      </g>
     </g>
     <g id="text_9">
      <!-- 1.2 -->
      <g transform="translate(69.259844 62.374547)scale(0.165 -0.165)">
       <defs>
        <path d="M 19.1875 8.296875 
L 53.609375 8.296875 
L 53.609375 0 
L 7.328125 0 
L 7.328125 8.296875 
Q 12.9375 14.109375 22.625 23.890625 
Q 32.328125 33.6875 34.8125 36.53125 
Q 39.546875 41.84375 41.421875 45.53125 
Q 43.3125 49.21875 43.3125 52.78125 
Q 43.3125 58.59375 39.234375 62.25 
Q 35.15625 65.921875 28.609375 65.921875 
Q 23.96875 65.921875 18.8125 64.3125 
Q 13.671875 62.703125 7.8125 59.421875 
L 7.8125 69.390625 
Q 13.765625 71.78125 18.9375 73 
Q 24.125 74.21875 28.421875 74.21875 
Q 39.75 74.21875 46.484375 68.546875 
Q 53.21875 62.890625 53.21875 53.421875 
Q 53.21875 48.921875 51.53125 44.890625 
Q 49.859375 40.875 45.40625 35.40625 
Q 44.1875 33.984375 37.640625 27.21875 
Q 31.109375 20.453125 19.1875 8.296875 
z
" id="DejaVuSans-50"/>
       </defs>
       <use xlink:href="#DejaVuSans-49"/>
       <use x="63.623047" xlink:href="#DejaVuSans-46"/>
       <use x="95.410156" xlink:href="#DejaVuSans-50"/>
      </g>
     </g>
    </g>
    <g id="text_10">
     <!-- prediction accuracy -->
     <g transform="translate(61.516406 303.537656)rotate(-90)scale(0.18 -0.18)">
      <defs>
       <path d="M 18.109375 8.203125 
L 18.109375 -20.796875 
L 9.078125 -20.796875 
L 9.078125 54.6875 
L 18.109375 54.6875 
L 18.109375 46.390625 
Q 20.953125 51.265625 25.265625 53.625 
Q 29.59375 56 35.59375 56 
Q 45.5625 56 51.78125 48.09375 
Q 58.015625 40.1875 58.015625 27.296875 
Q 58.015625 14.40625 51.78125 6.484375 
Q 45.5625 -1.421875 35.59375 -1.421875 
Q 29.59375 -1.421875 25.265625 0.953125 
Q 20.953125 3.328125 18.109375 8.203125 
z
M 48.6875 27.296875 
Q 48.6875 37.203125 44.609375 42.84375 
Q 40.53125 48.484375 33.40625 48.484375 
Q 26.265625 48.484375 22.1875 42.84375 
Q 18.109375 37.203125 18.109375 27.296875 
Q 18.109375 17.390625 22.1875 11.75 
Q 26.265625 6.109375 33.40625 6.109375 
Q 40.53125 6.109375 44.609375 11.75 
Q 48.6875 17.390625 48.6875 27.296875 
z
" id="DejaVuSans-112"/>
       <path id="DejaVuSans-32"/>
       <path d="M 8.5 21.578125 
L 8.5 54.6875 
L 17.484375 54.6875 
L 17.484375 21.921875 
Q 17.484375 14.15625 20.5 10.265625 
Q 23.53125 6.390625 29.59375 6.390625 
Q 36.859375 6.390625 41.078125 11.03125 
Q 45.3125 15.671875 45.3125 23.6875 
L 45.3125 54.6875 
L 54.296875 54.6875 
L 54.296875 0 
L 45.3125 0 
L 45.3125 8.40625 
Q 42.046875 3.421875 37.71875 1 
Q 33.40625 -1.421875 27.6875 -1.421875 
Q 18.265625 -1.421875 13.375 4.4375 
Q 8.5 10.296875 8.5 21.578125 
z
M 31.109375 56 
z
" id="DejaVuSans-117"/>
      </defs>
      <use xlink:href="#DejaVuSans-112"/>
      <use x="63.476562" xlink:href="#DejaVuSans-114"/>
      <use x="102.339844" xlink:href="#DejaVuSans-101"/>
      <use x="163.863281" xlink:href="#DejaVuSans-100"/>
      <use x="227.339844" xlink:href="#DejaVuSans-105"/>
      <use x="255.123047" xlink:href="#DejaVuSans-99"/>
      <use x="310.103516" xlink:href="#DejaVuSans-116"/>
      <use x="349.3125" xlink:href="#DejaVuSans-105"/>
      <use x="377.095703" xlink:href="#DejaVuSans-111"/>
      <use x="438.277344" xlink:href="#DejaVuSans-110"/>
      <use x="501.65625" xlink:href="#DejaVuSans-32"/>
      <use x="533.443359" xlink:href="#DejaVuSans-97"/>
      <use x="594.722656" xlink:href="#DejaVuSans-99"/>
      <use x="649.703125" xlink:href="#DejaVuSans-99"/>
      <use x="704.683594" xlink:href="#DejaVuSans-117"/>
      <use x="768.0625" xlink:href="#DejaVuSans-114"/>
      <use x="809.175781" xlink:href="#DejaVuSans-97"/>
      <use x="870.455078" xlink:href="#DejaVuSans-99"/>
      <use x="925.435547" xlink:href="#DejaVuSans-121"/>
     </g>
    </g>
   </g>
   <g id="line2d_9">
    <path clip-path="url(#p3280f90a87)" d="M 219.6 129.978929 
L 219.6 129.938253 
" style="fill:none;stroke:#3d3d3d;stroke-linecap:square;stroke-width:2.25;"/>
   </g>
   <g id="line2d_10">
    <path clip-path="url(#p3280f90a87)" d="M 219.6 129.967291 
L 219.6 129.951111 
" style="fill:none;stroke:#3d3d3d;stroke-linecap:square;stroke-width:6.75;"/>
   </g>
   <g id="line2d_11">
    <path clip-path="url(#p3280f90a87)" d="M 442.8 299.90547 
L 442.8 129.93453 
" style="fill:none;stroke:#3d3d3d;stroke-linecap:square;stroke-width:2.25;"/>
   </g>
   <g id="line2d_12">
    <path clip-path="url(#p3280f90a87)" d="M 442.8 292.877483 
L 442.8 129.953802 
" style="fill:none;stroke:#3d3d3d;stroke-linecap:square;stroke-width:6.75;"/>
   </g>
   <g id="line2d_13">
    <path clip-path="url(#p3280f90a87)" d="M 666 299.497484 
L 666 129.936648 
" style="fill:none;stroke:#3d3d3d;stroke-linecap:square;stroke-width:2.25;"/>
   </g>
   <g id="line2d_14">
    <path clip-path="url(#p3280f90a87)" d="M 666 292.554495 
L 666 129.959044 
" style="fill:none;stroke:#3d3d3d;stroke-linecap:square;stroke-width:6.75;"/>
   </g>
   <g id="patch_3">
    <path d="M 108 378 
L 108 51.84 
" style="fill:none;stroke:#000000;stroke-linecap:square;stroke-linejoin:miter;stroke-width:1.875;"/>
   </g>
   <g id="patch_4">
    <path d="M 777.6 378 
L 777.6 51.84 
" style="fill:none;stroke:#000000;stroke-linecap:square;stroke-linejoin:miter;stroke-width:1.875;"/>
   </g>
   <g id="patch_5">
    <path d="M 108 378 
L 777.6 378 
" style="fill:none;stroke:#000000;stroke-linecap:square;stroke-linejoin:miter;stroke-width:1.875;"/>
   </g>
   <g id="patch_6">
    <path d="M 108 51.84 
L 777.6 51.84 
" style="fill:none;stroke:#000000;stroke-linecap:square;stroke-linejoin:miter;stroke-width:1.875;"/>
   </g>
   <g id="PathCollection_1">
    <defs>
     <path d="M 0 2.25 
C 0.596707 2.25 1.169055 2.012926 1.59099 1.59099 
C 2.012926 1.169055 2.25 0.596707 2.25 0 
C 2.25 -0.596707 2.012926 -1.169055 1.59099 -1.59099 
C 1.169055 -2.012926 0.596707 -2.25 0 -2.25 
C -0.596707 -2.25 -1.169055 -2.012926 -1.59099 -1.59099 
C -2.012926 -1.169055 -2.25 -0.596707 -2.25 0 
C -2.25 0.596707 -2.012926 1.169055 -1.59099 1.59099 
C -1.169055 2.012926 -0.596707 2.25 0 2.25 
z
" id="mf490d300c9" style="stroke:#3d3d3d;stroke-width:1.5;"/>
    </defs>
    <g clip-path="url(#p3280f90a87)">
     <use style="fill:#ffffff;stroke:#3d3d3d;stroke-width:1.5;" x="219.6" xlink:href="#mf490d300c9" y="129.95606"/>
    </g>
   </g>
   <g id="PathCollection_2">
    <g clip-path="url(#p3280f90a87)">
     <use style="fill:#ffffff;stroke:#3d3d3d;stroke-width:1.5;" x="442.8" xlink:href="#mf490d300c9" y="289.627324"/>
    </g>
   </g>
   <g id="PathCollection_3">
    <g clip-path="url(#p3280f90a87)">
     <use style="fill:#ffffff;stroke:#3d3d3d;stroke-width:1.5;" x="666" xlink:href="#mf490d300c9" y="289.430333"/>
    </g>
   </g>
  </g>
 </g>
 <defs>
  <clipPath id="p3280f90a87">
   <rect height="326.16" width="669.6" x="108" y="51.84"/>
  </clipPath>
 </defs>
</svg>
