<?xml version="1.0" encoding="utf-8" standalone="no"?>
<!DOCTYPE svg PUBLIC "-//W3C//DTD SVG 1.1//EN"
  "http://www.w3.org/Graphics/SVG/1.1/DTD/svg11.dtd">
<!-- Created with matplotlib (https://matplotlib.org/) -->
<svg height="576pt" version="1.1" viewBox="0 0 720 576" width="720pt" xmlns="http://www.w3.org/2000/svg" xmlns:xlink="http://www.w3.org/1999/xlink">
 <metadata>
  <rdf:RDF xmlns:cc="http://creativecommons.org/ns#" xmlns:dc="http://purl.org/dc/elements/1.1/" xmlns:rdf="http://www.w3.org/1999/02/22-rdf-syntax-ns#">
   <cc:Work>
    <dc:type rdf:resource="http://purl.org/dc/dcmitype/StillImage"/>
    <dc:date>2023-04-16T12:02:28.123693</dc:date>
    <dc:format>image/svg+xml</dc:format>
    <dc:creator>
     <cc:Agent>
      <dc:title>Matplotlib v3.3.4, https://matplotlib.org/</dc:title>
     </cc:Agent>
    </dc:creator>
   </cc:Work>
  </rdf:RDF>
 </metadata>
 <defs>
  <style type="text/css">*{stroke-linecap:butt;stroke-linejoin:round;}</style>
 </defs>
 <g id="figure_1">
  <g id="patch_1">
   <path d="M 0 576 
L 720 576 
L 720 0 
L 0 0 
z
" style="fill:none;"/>
  </g>
  <g id="axes_1">
   <g id="patch_2">
    <path d="M 90 504 
L 648 504 
L 648 69.12 
L 90 69.12 
z
" style="fill:#ffffff;"/>
   </g>
   <g id="PathCollection_1">
    <defs>
     <path d="M 0 4.5 
C 1.193414 4.5 2.338109 4.025852 3.181981 3.181981 
C 4.025852 2.338109 4.5 1.193414 4.5 0 
C 4.5 -1.193414 4.025852 -2.338109 3.181981 -3.181981 
C 2.338109 -4.025852 1.193414 -4.5 0 -4.5 
C -1.193414 -4.5 -2.338109 -4.025852 -3.181981 -3.181981 
C -4.025852 -2.338109 -4.5 -1.193414 -4.5 0 
C -4.5 1.193414 -4.025852 2.338109 -3.181981 3.181981 
C -2.338109 4.025852 -1.193414 4.5 0 4.5 
z
" id="m780e5d8da9" style="stroke:#000000;stroke-width:1.5;"/>
    </defs>
    <g clip-path="url(#p05abb5d610)">
     <use style="stroke:#000000;stroke-width:1.5;" x="240.955126" xlink:href="#m780e5d8da9" y="375.044584"/>
    </g>
   </g>
   <g id="PathCollection_2">
    <g clip-path="url(#p05abb5d610)">
     <use style="stroke:#000000;stroke-width:1.5;" x="458.834713" xlink:href="#m780e5d8da9" y="150.963004"/>
    </g>
   </g>
   <g id="PathCollection_3">
    <g clip-path="url(#p05abb5d610)">
     <use style="stroke:#000000;stroke-width:1.5;" x="243.842089" xlink:href="#m780e5d8da9" y="373.703251"/>
    </g>
   </g>
   <g id="PathCollection_4">
    <g clip-path="url(#p05abb5d610)">
     <use style="stroke:#000000;stroke-width:1.5;" x="302.487636" xlink:href="#m780e5d8da9" y="401.161284"/>
    </g>
   </g>
   <g id="PathCollection_5">
    <g clip-path="url(#p05abb5d610)">
     <use style="stroke:#000000;stroke-width:1.5;" x="330.590768" xlink:href="#m780e5d8da9" y="408.15452"/>
    </g>
   </g>
   <g id="PathCollection_6">
    <g clip-path="url(#p05abb5d610)">
     <use style="stroke:#000000;stroke-width:1.5;" x="342.978638" xlink:href="#m780e5d8da9" y="143.111451"/>
    </g>
   </g>
   <g id="PathCollection_7">
    <g clip-path="url(#p05abb5d610)">
     <use style="stroke:#000000;stroke-width:1.5;" x="440.047163" xlink:href="#m780e5d8da9" y="192.464029"/>
    </g>
   </g>
   <g id="PathCollection_8">
    <g clip-path="url(#p05abb5d610)">
     <use style="stroke:#000000;stroke-width:1.5;" x="490.460439" xlink:href="#m780e5d8da9" y="176.133477"/>
    </g>
   </g>
   <g id="PathCollection_9">
    <g clip-path="url(#p05abb5d610)">
     <use style="stroke:#000000;stroke-width:1.5;" x="391.467127" xlink:href="#m780e5d8da9" y="176.143865"/>
    </g>
   </g>
   <g id="PathCollection_10">
    <g clip-path="url(#p05abb5d610)">
     <use style="stroke:#000000;stroke-width:1.5;" x="462.072722" xlink:href="#m780e5d8da9" y="132.090917"/>
    </g>
   </g>
   <g id="PathCollection_11">
    <g clip-path="url(#p05abb5d610)">
     <use style="stroke:#000000;stroke-width:1.5;" x="465.195293" xlink:href="#m780e5d8da9" y="148.507713"/>
    </g>
   </g>
   <g id="PathCollection_12">
    <g clip-path="url(#p05abb5d610)">
     <use style="stroke:#000000;stroke-width:1.5;" x="256.023826" xlink:href="#m780e5d8da9" y="397.648445"/>
    </g>
   </g>
   <g id="PathCollection_13">
    <g clip-path="url(#p05abb5d610)">
     <use style="stroke:#000000;stroke-width:1.5;" x="543.485102" xlink:href="#m780e5d8da9" y="121.142294"/>
    </g>
   </g>
   <g id="PathCollection_14">
    <g clip-path="url(#p05abb5d610)">
     <use style="stroke:#000000;stroke-width:1.5;" x="305.606711" xlink:href="#m780e5d8da9" y="399.039171"/>
    </g>
   </g>
   <g id="PathCollection_15">
    <g clip-path="url(#p05abb5d610)">
     <use style="stroke:#000000;stroke-width:1.5;" x="377.462301" xlink:href="#m780e5d8da9" y="143.093639"/>
    </g>
   </g>
   <g id="PathCollection_16">
    <g clip-path="url(#p05abb5d610)">
     <use style="stroke:#000000;stroke-width:1.5;" x="622.636364" xlink:href="#m780e5d8da9" y="143.136793"/>
    </g>
   </g>
   <g id="PathCollection_17">
    <g clip-path="url(#p05abb5d610)">
     <use style="stroke:#000000;stroke-width:1.5;" x="428.383852" xlink:href="#m780e5d8da9" y="200.395312"/>
    </g>
   </g>
   <g id="PathCollection_18">
    <g clip-path="url(#p05abb5d610)">
     <use style="stroke:#000000;stroke-width:1.5;" x="244.980576" xlink:href="#m780e5d8da9" y="399.612726"/>
    </g>
   </g>
   <g id="PathCollection_19">
    <g clip-path="url(#p05abb5d610)">
     <use style="stroke:#000000;stroke-width:1.5;" x="336.469218" xlink:href="#m780e5d8da9" y="388.983292"/>
    </g>
   </g>
   <g id="PathCollection_20">
    <g clip-path="url(#p05abb5d610)">
     <use style="stroke:#000000;stroke-width:1.5;" x="475.153364" xlink:href="#m780e5d8da9" y="171.010088"/>
    </g>
   </g>
   <g id="PathCollection_21">
    <g clip-path="url(#p05abb5d610)">
     <use style="stroke:#000000;stroke-width:1.5;" x="426.865105" xlink:href="#m780e5d8da9" y="88.887273"/>
    </g>
   </g>
   <g id="PathCollection_22">
    <g clip-path="url(#p05abb5d610)">
     <use style="stroke:#000000;stroke-width:1.5;" x="538.621707" xlink:href="#m780e5d8da9" y="154.13301"/>
    </g>
   </g>
   <g id="PathCollection_23">
    <g clip-path="url(#p05abb5d610)">
     <use style="stroke:#000000;stroke-width:1.5;" x="601.548875" xlink:href="#m780e5d8da9" y="242.154545"/>
    </g>
   </g>
   <g id="PathCollection_24">
    <g clip-path="url(#p05abb5d610)">
     <use style="stroke:#000000;stroke-width:1.5;" x="377.60721" xlink:href="#m780e5d8da9" y="121.122959"/>
    </g>
   </g>
   <g id="PathCollection_25">
    <g clip-path="url(#p05abb5d610)">
     <use style="stroke:#000000;stroke-width:1.5;" x="342.546157" xlink:href="#m780e5d8da9" y="198.14585"/>
    </g>
   </g>
   <g id="PathCollection_26">
    <g clip-path="url(#p05abb5d610)">
     <use style="stroke:#000000;stroke-width:1.5;" x="185.027334" xlink:href="#m780e5d8da9" y="394.218066"/>
    </g>
   </g>
   <g id="PathCollection_27">
    <g clip-path="url(#p05abb5d610)">
     <use style="stroke:#000000;stroke-width:1.5;" x="448.320855" xlink:href="#m780e5d8da9" y="176.141024"/>
    </g>
   </g>
   <g id="PathCollection_28">
    <g clip-path="url(#p05abb5d610)">
     <use style="stroke:#000000;stroke-width:1.5;" x="252.10554" xlink:href="#m780e5d8da9" y="391.575293"/>
    </g>
   </g>
   <g id="PathCollection_29">
    <g clip-path="url(#p05abb5d610)">
     <use style="stroke:#000000;stroke-width:1.5;" x="243.446894" xlink:href="#m780e5d8da9" y="389.061922"/>
    </g>
   </g>
   <g id="PathCollection_30">
    <g clip-path="url(#p05abb5d610)">
     <use style="stroke:#000000;stroke-width:1.5;" x="298.652987" xlink:href="#m780e5d8da9" y="393.259247"/>
    </g>
   </g>
   <g id="PathCollection_31">
    <g clip-path="url(#p05abb5d610)">
     <use style="stroke:#000000;stroke-width:1.5;" x="137.891534" xlink:href="#m780e5d8da9" y="392.526462"/>
    </g>
   </g>
   <g id="PathCollection_32">
    <g clip-path="url(#p05abb5d610)">
     <use style="stroke:#000000;stroke-width:1.5;" x="434.168159" xlink:href="#m780e5d8da9" y="143.129915"/>
    </g>
   </g>
   <g id="PathCollection_33">
    <g clip-path="url(#p05abb5d610)">
     <use style="stroke:#000000;stroke-width:1.5;" x="484.725311" xlink:href="#m780e5d8da9" y="132.138397"/>
    </g>
   </g>
   <g id="PathCollection_34">
    <g clip-path="url(#p05abb5d610)">
     <use style="stroke:#000000;stroke-width:1.5;" x="425.945734" xlink:href="#m780e5d8da9" y="242.119763"/>
    </g>
   </g>
   <g id="PathCollection_35">
    <g clip-path="url(#p05abb5d610)">
     <use style="stroke:#000000;stroke-width:1.5;" x="203.561873" xlink:href="#m780e5d8da9" y="378.137807"/>
    </g>
   </g>
   <g id="PathCollection_36">
    <g clip-path="url(#p05abb5d610)">
     <use style="stroke:#000000;stroke-width:1.5;" x="301.688201" xlink:href="#m780e5d8da9" y="389.704327"/>
    </g>
   </g>
   <g id="PathCollection_37">
    <g clip-path="url(#p05abb5d610)">
     <use style="stroke:#000000;stroke-width:1.5;" x="429.661695" xlink:href="#m780e5d8da9" y="231.221782"/>
    </g>
   </g>
   <g id="PathCollection_38">
    <g clip-path="url(#p05abb5d610)">
     <use style="stroke:#000000;stroke-width:1.5;" x="528.563456" xlink:href="#m780e5d8da9" y="418.209942"/>
    </g>
   </g>
   <g id="PathCollection_39">
    <g clip-path="url(#p05abb5d610)">
     <use style="stroke:#000000;stroke-width:1.5;" x="309.112728" xlink:href="#m780e5d8da9" y="383.381464"/>
    </g>
   </g>
   <g id="PathCollection_40">
    <g clip-path="url(#p05abb5d610)">
     <use style="stroke:#000000;stroke-width:1.5;" x="367.129089" xlink:href="#m780e5d8da9" y="187.149091"/>
    </g>
   </g>
   <g id="PathCollection_41">
    <g clip-path="url(#p05abb5d610)">
     <use style="stroke:#000000;stroke-width:1.5;" x="428.859522" xlink:href="#m780e5d8da9" y="209.140594"/>
    </g>
   </g>
   <g id="PathCollection_42">
    <g clip-path="url(#p05abb5d610)">
     <use style="stroke:#000000;stroke-width:1.5;" x="306.725939" xlink:href="#m780e5d8da9" y="372.344759"/>
    </g>
   </g>
   <g id="PathCollection_43">
    <g clip-path="url(#p05abb5d610)">
     <use style="stroke:#000000;stroke-width:1.5;" x="539.095951" xlink:href="#m780e5d8da9" y="374.184528"/>
    </g>
   </g>
   <g id="PathCollection_44">
    <g clip-path="url(#p05abb5d610)">
     <use style="stroke:#000000;stroke-width:1.5;" x="462.043121" xlink:href="#m780e5d8da9" y="206.629385"/>
    </g>
   </g>
   <g id="PathCollection_45">
    <g clip-path="url(#p05abb5d610)">
     <use style="stroke:#000000;stroke-width:1.5;" x="389.347948" xlink:href="#m780e5d8da9" y="164.095209"/>
    </g>
   </g>
   <g id="PathCollection_46">
    <g clip-path="url(#p05abb5d610)">
     <use style="stroke:#000000;stroke-width:1.5;" x="578.026627" xlink:href="#m780e5d8da9" y="176.134155"/>
    </g>
   </g>
   <g id="PathCollection_47">
    <g clip-path="url(#p05abb5d610)">
     <use style="stroke:#000000;stroke-width:1.5;" x="399.256856" xlink:href="#m780e5d8da9" y="143.125309"/>
    </g>
   </g>
   <g id="PathCollection_48">
    <g clip-path="url(#p05abb5d610)">
     <use style="stroke:#000000;stroke-width:1.5;" x="500.730605" xlink:href="#m780e5d8da9" y="374.168004"/>
    </g>
   </g>
   <g id="PathCollection_49">
    <g clip-path="url(#p05abb5d610)">
     <use style="stroke:#000000;stroke-width:1.5;" x="305.077798" xlink:href="#m780e5d8da9" y="397.948792"/>
    </g>
   </g>
   <g id="PathCollection_50">
    <g clip-path="url(#p05abb5d610)">
     <use style="stroke:#000000;stroke-width:1.5;" x="264.687646" xlink:href="#m780e5d8da9" y="398.794853"/>
    </g>
   </g>
   <g id="PathCollection_51">
    <g clip-path="url(#p05abb5d610)">
     <use style="stroke:#000000;stroke-width:1.5;" x="489.331807" xlink:href="#m780e5d8da9" y="253.122718"/>
    </g>
   </g>
   <g id="PathCollection_52">
    <g clip-path="url(#p05abb5d610)">
     <use style="stroke:#000000;stroke-width:1.5;" x="481.824421" xlink:href="#m780e5d8da9" y="217.325173"/>
    </g>
   </g>
   <g id="PathCollection_53">
    <g clip-path="url(#p05abb5d610)">
     <use style="stroke:#000000;stroke-width:1.5;" x="317.685748" xlink:href="#m780e5d8da9" y="400.960184"/>
    </g>
   </g>
   <g id="PathCollection_54">
    <g clip-path="url(#p05abb5d610)">
     <use style="stroke:#000000;stroke-width:1.5;" x="408.834322" xlink:href="#m780e5d8da9" y="280.880739"/>
    </g>
   </g>
   <g id="PathCollection_55">
    <g clip-path="url(#p05abb5d610)">
     <use style="stroke:#000000;stroke-width:1.5;" x="484.989179" xlink:href="#m780e5d8da9" y="418.229586"/>
    </g>
   </g>
   <g id="PathCollection_56">
    <g clip-path="url(#p05abb5d610)">
     <use style="stroke:#000000;stroke-width:1.5;" x="115.363636" xlink:href="#m780e5d8da9" y="396.258737"/>
    </g>
   </g>
   <g id="PathCollection_57">
    <g clip-path="url(#p05abb5d610)">
     <use style="stroke:#000000;stroke-width:1.5;" x="457.65961" xlink:href="#m780e5d8da9" y="220.160177"/>
    </g>
   </g>
   <g id="PathCollection_58">
    <g clip-path="url(#p05abb5d610)">
     <use style="stroke:#000000;stroke-width:1.5;" x="477.963926" xlink:href="#m780e5d8da9" y="165.135822"/>
    </g>
   </g>
   <g id="PathCollection_59">
    <g clip-path="url(#p05abb5d610)">
     <use style="stroke:#000000;stroke-width:1.5;" x="335.216362" xlink:href="#m780e5d8da9" y="396.625526"/>
    </g>
   </g>
   <g id="PathCollection_60">
    <g clip-path="url(#p05abb5d610)">
     <use style="stroke:#000000;stroke-width:1.5;" x="357.009828" xlink:href="#m780e5d8da9" y="198.145034"/>
    </g>
   </g>
   <g id="PathCollection_61">
    <g clip-path="url(#p05abb5d610)">
     <use style="stroke:#000000;stroke-width:1.5;" x="344.578585" xlink:href="#m780e5d8da9" y="165.161994"/>
    </g>
   </g>
   <g id="PathCollection_62">
    <g clip-path="url(#p05abb5d610)">
     <use style="stroke:#000000;stroke-width:1.5;" x="309.714746" xlink:href="#m780e5d8da9" y="400.547779"/>
    </g>
   </g>
   <g id="PathCollection_63">
    <g clip-path="url(#p05abb5d610)">
     <use style="stroke:#000000;stroke-width:1.5;" x="242.518145" xlink:href="#m780e5d8da9" y="391.798978"/>
    </g>
   </g>
   <g id="PathCollection_64">
    <g clip-path="url(#p05abb5d610)">
     <use style="stroke:#000000;stroke-width:1.5;" x="561.367282" xlink:href="#m780e5d8da9" y="187.16241"/>
    </g>
   </g>
   <g id="PathCollection_65">
    <g clip-path="url(#p05abb5d610)">
     <use style="stroke:#000000;stroke-width:1.5;" x="336.050072" xlink:href="#m780e5d8da9" y="387.997072"/>
    </g>
   </g>
   <g id="PathCollection_66">
    <g clip-path="url(#p05abb5d610)">
     <use style="stroke:#000000;stroke-width:1.5;" x="428.155934" xlink:href="#m780e5d8da9" y="334.85425"/>
    </g>
   </g>
   <g id="PathCollection_67">
    <g clip-path="url(#p05abb5d610)">
     <use style="stroke:#000000;stroke-width:1.5;" x="212.965766" xlink:href="#m780e5d8da9" y="398.917139"/>
    </g>
   </g>
   <g id="PathCollection_68">
    <g clip-path="url(#p05abb5d610)">
     <use style="stroke:#000000;stroke-width:1.5;" x="411.235858" xlink:href="#m780e5d8da9" y="198.144921"/>
    </g>
   </g>
   <g id="PathCollection_69">
    <g clip-path="url(#p05abb5d610)">
     <use style="stroke:#000000;stroke-width:1.5;" x="409.678827" xlink:href="#m780e5d8da9" y="165.152434"/>
    </g>
   </g>
   <g id="PathCollection_70">
    <g clip-path="url(#p05abb5d610)">
     <use style="stroke:#000000;stroke-width:1.5;" x="373.812744" xlink:href="#m780e5d8da9" y="170.384937"/>
    </g>
   </g>
   <g id="PathCollection_71">
    <g clip-path="url(#p05abb5d610)">
     <use style="stroke:#000000;stroke-width:1.5;" x="452.956503" xlink:href="#m780e5d8da9" y="176.158092"/>
    </g>
   </g>
   <g id="PathCollection_72">
    <g clip-path="url(#p05abb5d610)">
     <use style="stroke:#000000;stroke-width:1.5;" x="420.290582" xlink:href="#m780e5d8da9" y="253.185162"/>
    </g>
   </g>
   <g id="PathCollection_73">
    <g clip-path="url(#p05abb5d610)">
     <use style="stroke:#000000;stroke-width:1.5;" x="489.010054" xlink:href="#m780e5d8da9" y="176.119191"/>
    </g>
   </g>
   <g id="PathCollection_74">
    <g clip-path="url(#p05abb5d610)">
     <use style="stroke:#000000;stroke-width:1.5;" x="262.290193" xlink:href="#m780e5d8da9" y="400.815565"/>
    </g>
   </g>
   <g id="PathCollection_75">
    <g clip-path="url(#p05abb5d610)">
     <use style="stroke:#000000;stroke-width:1.5;" x="357.803762" xlink:href="#m780e5d8da9" y="99.140355"/>
    </g>
   </g>
   <g id="PathCollection_76">
    <g clip-path="url(#p05abb5d610)">
     <use style="stroke:#000000;stroke-width:1.5;" x="436.055018" xlink:href="#m780e5d8da9" y="99.115148"/>
    </g>
   </g>
   <g id="PathCollection_77">
    <g clip-path="url(#p05abb5d610)">
     <use style="stroke:#000000;stroke-width:1.5;" x="493.813457" xlink:href="#m780e5d8da9" y="484.202227"/>
    </g>
   </g>
   <g id="PathCollection_78">
    <g clip-path="url(#p05abb5d610)">
     <use style="stroke:#000000;stroke-width:1.5;" x="404.792282" xlink:href="#m780e5d8da9" y="154.11801"/>
    </g>
   </g>
   <g id="PathCollection_79">
    <g clip-path="url(#p05abb5d610)">
     <use style="stroke:#000000;stroke-width:1.5;" x="523.62662" xlink:href="#m780e5d8da9" y="187.15914"/>
    </g>
   </g>
   <g id="PathCollection_80">
    <g clip-path="url(#p05abb5d610)">
     <use style="stroke:#000000;stroke-width:1.5;" x="345.0288" xlink:href="#m780e5d8da9" y="220.145757"/>
    </g>
   </g>
   <g id="PathCollection_81">
    <g clip-path="url(#p05abb5d610)">
     <use style="stroke:#000000;stroke-width:1.5;" x="263.508448" xlink:href="#m780e5d8da9" y="391.982587"/>
    </g>
   </g>
   <g id="PathCollection_82">
    <g clip-path="url(#p05abb5d610)">
     <use style="stroke:#000000;stroke-width:1.5;" x="331.158897" xlink:href="#m780e5d8da9" y="393.160505"/>
    </g>
   </g>
   <g id="PathCollection_83">
    <g clip-path="url(#p05abb5d610)">
     <use style="stroke:#000000;stroke-width:1.5;" x="514.071921" xlink:href="#m780e5d8da9" y="462.20301"/>
    </g>
   </g>
   <g id="PathCollection_84">
    <g clip-path="url(#p05abb5d610)">
     <use style="stroke:#000000;stroke-width:1.5;" x="369.06678" xlink:href="#m780e5d8da9" y="165.161898"/>
    </g>
   </g>
   <g id="PathCollection_85">
    <g clip-path="url(#p05abb5d610)">
     <use style="stroke:#000000;stroke-width:1.5;" x="380.231078" xlink:href="#m780e5d8da9" y="174.694448"/>
    </g>
   </g>
   <g id="PathCollection_86">
    <g clip-path="url(#p05abb5d610)">
     <use style="stroke:#000000;stroke-width:1.5;" x="278.33547" xlink:href="#m780e5d8da9" y="401.142585"/>
    </g>
   </g>
   <g id="PathCollection_87">
    <g clip-path="url(#p05abb5d610)">
     <use style="stroke:#000000;stroke-width:1.5;" x="423.545124" xlink:href="#m780e5d8da9" y="185.240359"/>
    </g>
   </g>
   <g id="PathCollection_88">
    <g clip-path="url(#p05abb5d610)">
     <use style="stroke:#000000;stroke-width:1.5;" x="503.360684" xlink:href="#m780e5d8da9" y="484.232727"/>
    </g>
   </g>
   <g id="PathCollection_89">
    <g clip-path="url(#p05abb5d610)">
     <use style="stroke:#000000;stroke-width:1.5;" x="379.25246" xlink:href="#m780e5d8da9" y="225.468392"/>
    </g>
   </g>
   <g id="PathCollection_90">
    <g clip-path="url(#p05abb5d610)">
     <use style="stroke:#000000;stroke-width:1.5;" x="457.517257" xlink:href="#m780e5d8da9" y="187.142827"/>
    </g>
   </g>
   <g id="PathCollection_91">
    <g clip-path="url(#p05abb5d610)">
     <use style="stroke:#000000;stroke-width:1.5;" x="494.149123" xlink:href="#m780e5d8da9" y="198.17657"/>
    </g>
   </g>
   <g id="PathCollection_92">
    <g clip-path="url(#p05abb5d610)">
     <use style="stroke:#000000;stroke-width:1.5;" x="480.340181" xlink:href="#m780e5d8da9" y="176.139754"/>
    </g>
   </g>
   <g id="PathCollection_93">
    <g clip-path="url(#p05abb5d610)">
     <use style="stroke:#000000;stroke-width:1.5;" x="454.827701" xlink:href="#m780e5d8da9" y="132.116716"/>
    </g>
   </g>
   <g id="PathCollection_94">
    <g clip-path="url(#p05abb5d610)">
     <use style="stroke:#000000;stroke-width:1.5;" x="379.372559" xlink:href="#m780e5d8da9" y="165.15779"/>
    </g>
   </g>
   <g id="PathCollection_95">
    <g clip-path="url(#p05abb5d610)">
     <use style="stroke:#000000;stroke-width:1.5;" x="458.549216" xlink:href="#m780e5d8da9" y="187.153507"/>
    </g>
   </g>
   <g id="PathCollection_96">
    <g clip-path="url(#p05abb5d610)">
     <use style="stroke:#000000;stroke-width:1.5;" x="419.357272" xlink:href="#m780e5d8da9" y="198.683132"/>
    </g>
   </g>
   <g id="PathCollection_97">
    <g clip-path="url(#p05abb5d610)">
     <use style="stroke:#000000;stroke-width:1.5;" x="304.099137" xlink:href="#m780e5d8da9" y="400.816175"/>
    </g>
   </g>
   <g id="PathCollection_98">
    <g clip-path="url(#p05abb5d610)">
     <use style="stroke:#000000;stroke-width:1.5;" x="392.360133" xlink:href="#m780e5d8da9" y="176.102333"/>
    </g>
   </g>
   <g id="PathCollection_99">
    <g clip-path="url(#p05abb5d610)">
     <use style="stroke:#000000;stroke-width:1.5;" x="481.175984" xlink:href="#m780e5d8da9" y="164.553625"/>
    </g>
   </g>
   <g id="PathCollection_100">
    <g clip-path="url(#p05abb5d610)">
     <use style="stroke:#000000;stroke-width:1.5;" x="361.377355" xlink:href="#m780e5d8da9" y="176.138612"/>
    </g>
   </g>
   <g id="matplotlib.axis_1">
    <g id="xtick_1">
     <g id="line2d_1">
      <defs>
       <path d="M 0 0 
L 0 9 
" id="m1d5e3ba3e6" style="stroke:#000000;stroke-width:1.875;"/>
      </defs>
      <g>
       <use style="stroke:#000000;stroke-width:1.875;" x="149.057183" xlink:href="#m1d5e3ba3e6" y="504"/>
      </g>
     </g>
     <g id="text_1">
      <!-- 3.4 -->
      <g transform="translate(135.937105 529.037422)scale(0.165 -0.165)">
       <defs>
        <path d="M 40.578125 39.3125 
Q 47.65625 37.796875 51.625 33 
Q 55.609375 28.21875 55.609375 21.1875 
Q 55.609375 10.40625 48.1875 4.484375 
Q 40.765625 -1.421875 27.09375 -1.421875 
Q 22.515625 -1.421875 17.65625 -0.515625 
Q 12.796875 0.390625 7.625 2.203125 
L 7.625 11.71875 
Q 11.71875 9.328125 16.59375 8.109375 
Q 21.484375 6.890625 26.8125 6.890625 
Q 36.078125 6.890625 40.9375 10.546875 
Q 45.796875 14.203125 45.796875 21.1875 
Q 45.796875 27.640625 41.28125 31.265625 
Q 36.765625 34.90625 28.71875 34.90625 
L 20.21875 34.90625 
L 20.21875 43.015625 
L 29.109375 43.015625 
Q 36.375 43.015625 40.234375 45.921875 
Q 44.09375 48.828125 44.09375 54.296875 
Q 44.09375 59.90625 40.109375 62.90625 
Q 36.140625 65.921875 28.71875 65.921875 
Q 24.65625 65.921875 20.015625 65.03125 
Q 15.375 64.15625 9.8125 62.3125 
L 9.8125 71.09375 
Q 15.4375 72.65625 20.34375 73.4375 
Q 25.25 74.21875 29.59375 74.21875 
Q 40.828125 74.21875 47.359375 69.109375 
Q 53.90625 64.015625 53.90625 55.328125 
Q 53.90625 49.265625 50.4375 45.09375 
Q 46.96875 40.921875 40.578125 39.3125 
z
" id="DejaVuSans-51"/>
        <path d="M 10.6875 12.40625 
L 21 12.40625 
L 21 0 
L 10.6875 0 
z
" id="DejaVuSans-46"/>
        <path d="M 37.796875 64.3125 
L 12.890625 25.390625 
L 37.796875 25.390625 
z
M 35.203125 72.90625 
L 47.609375 72.90625 
L 47.609375 25.390625 
L 58.015625 25.390625 
L 58.015625 17.1875 
L 47.609375 17.1875 
L 47.609375 0 
L 37.796875 0 
L 37.796875 17.1875 
L 4.890625 17.1875 
L 4.890625 26.703125 
z
" id="DejaVuSans-52"/>
       </defs>
       <use xlink:href="#DejaVuSans-51"/>
       <use x="63.623047" xlink:href="#DejaVuSans-46"/>
       <use x="95.410156" xlink:href="#DejaVuSans-52"/>
      </g>
     </g>
    </g>
    <g id="xtick_2">
     <g id="line2d_2">
      <g>
       <use style="stroke:#000000;stroke-width:1.875;" x="219.213432" xlink:href="#m1d5e3ba3e6" y="504"/>
      </g>
     </g>
     <g id="text_2">
      <!-- 3.6 -->
      <g transform="translate(206.093354 529.037422)scale(0.165 -0.165)">
       <defs>
        <path d="M 33.015625 40.375 
Q 26.375 40.375 22.484375 35.828125 
Q 18.609375 31.296875 18.609375 23.390625 
Q 18.609375 15.53125 22.484375 10.953125 
Q 26.375 6.390625 33.015625 6.390625 
Q 39.65625 6.390625 43.53125 10.953125 
Q 47.40625 15.53125 47.40625 23.390625 
Q 47.40625 31.296875 43.53125 35.828125 
Q 39.65625 40.375 33.015625 40.375 
z
M 52.59375 71.296875 
L 52.59375 62.3125 
Q 48.875 64.0625 45.09375 64.984375 
Q 41.3125 65.921875 37.59375 65.921875 
Q 27.828125 65.921875 22.671875 59.328125 
Q 17.53125 52.734375 16.796875 39.40625 
Q 19.671875 43.65625 24.015625 45.921875 
Q 28.375 48.1875 33.59375 48.1875 
Q 44.578125 48.1875 50.953125 41.515625 
Q 57.328125 34.859375 57.328125 23.390625 
Q 57.328125 12.15625 50.6875 5.359375 
Q 44.046875 -1.421875 33.015625 -1.421875 
Q 20.359375 -1.421875 13.671875 8.265625 
Q 6.984375 17.96875 6.984375 36.375 
Q 6.984375 53.65625 15.1875 63.9375 
Q 23.390625 74.21875 37.203125 74.21875 
Q 40.921875 74.21875 44.703125 73.484375 
Q 48.484375 72.75 52.59375 71.296875 
z
" id="DejaVuSans-54"/>
       </defs>
       <use xlink:href="#DejaVuSans-51"/>
       <use x="63.623047" xlink:href="#DejaVuSans-46"/>
       <use x="95.410156" xlink:href="#DejaVuSans-54"/>
      </g>
     </g>
    </g>
    <g id="xtick_3">
     <g id="line2d_3">
      <g>
       <use style="stroke:#000000;stroke-width:1.875;" x="289.369681" xlink:href="#m1d5e3ba3e6" y="504"/>
      </g>
     </g>
     <g id="text_3">
      <!-- 3.8 -->
      <g transform="translate(276.249603 529.037422)scale(0.165 -0.165)">
       <defs>
        <path d="M 31.78125 34.625 
Q 24.75 34.625 20.71875 30.859375 
Q 16.703125 27.09375 16.703125 20.515625 
Q 16.703125 13.921875 20.71875 10.15625 
Q 24.75 6.390625 31.78125 6.390625 
Q 38.8125 6.390625 42.859375 10.171875 
Q 46.921875 13.96875 46.921875 20.515625 
Q 46.921875 27.09375 42.890625 30.859375 
Q 38.875 34.625 31.78125 34.625 
z
M 21.921875 38.8125 
Q 15.578125 40.375 12.03125 44.71875 
Q 8.5 49.078125 8.5 55.328125 
Q 8.5 64.0625 14.71875 69.140625 
Q 20.953125 74.21875 31.78125 74.21875 
Q 42.671875 74.21875 48.875 69.140625 
Q 55.078125 64.0625 55.078125 55.328125 
Q 55.078125 49.078125 51.53125 44.71875 
Q 48 40.375 41.703125 38.8125 
Q 48.828125 37.15625 52.796875 32.3125 
Q 56.78125 27.484375 56.78125 20.515625 
Q 56.78125 9.90625 50.3125 4.234375 
Q 43.84375 -1.421875 31.78125 -1.421875 
Q 19.734375 -1.421875 13.25 4.234375 
Q 6.78125 9.90625 6.78125 20.515625 
Q 6.78125 27.484375 10.78125 32.3125 
Q 14.796875 37.15625 21.921875 38.8125 
z
M 18.3125 54.390625 
Q 18.3125 48.734375 21.84375 45.5625 
Q 25.390625 42.390625 31.78125 42.390625 
Q 38.140625 42.390625 41.71875 45.5625 
Q 45.3125 48.734375 45.3125 54.390625 
Q 45.3125 60.0625 41.71875 63.234375 
Q 38.140625 66.40625 31.78125 66.40625 
Q 25.390625 66.40625 21.84375 63.234375 
Q 18.3125 60.0625 18.3125 54.390625 
z
" id="DejaVuSans-56"/>
       </defs>
       <use xlink:href="#DejaVuSans-51"/>
       <use x="63.623047" xlink:href="#DejaVuSans-46"/>
       <use x="95.410156" xlink:href="#DejaVuSans-56"/>
      </g>
     </g>
    </g>
    <g id="xtick_4">
     <g id="line2d_4">
      <g>
       <use style="stroke:#000000;stroke-width:1.875;" x="359.52593" xlink:href="#m1d5e3ba3e6" y="504"/>
      </g>
     </g>
     <g id="text_4">
      <!-- 4.0 -->
      <g transform="translate(346.405851 529.037422)scale(0.165 -0.165)">
       <defs>
        <path d="M 31.78125 66.40625 
Q 24.171875 66.40625 20.328125 58.90625 
Q 16.5 51.421875 16.5 36.375 
Q 16.5 21.390625 20.328125 13.890625 
Q 24.171875 6.390625 31.78125 6.390625 
Q 39.453125 6.390625 43.28125 13.890625 
Q 47.125 21.390625 47.125 36.375 
Q 47.125 51.421875 43.28125 58.90625 
Q 39.453125 66.40625 31.78125 66.40625 
z
M 31.78125 74.21875 
Q 44.046875 74.21875 50.515625 64.515625 
Q 56.984375 54.828125 56.984375 36.375 
Q 56.984375 17.96875 50.515625 8.265625 
Q 44.046875 -1.421875 31.78125 -1.421875 
Q 19.53125 -1.421875 13.0625 8.265625 
Q 6.59375 17.96875 6.59375 36.375 
Q 6.59375 54.828125 13.0625 64.515625 
Q 19.53125 74.21875 31.78125 74.21875 
z
" id="DejaVuSans-48"/>
       </defs>
       <use xlink:href="#DejaVuSans-52"/>
       <use x="63.623047" xlink:href="#DejaVuSans-46"/>
       <use x="95.410156" xlink:href="#DejaVuSans-48"/>
      </g>
     </g>
    </g>
    <g id="xtick_5">
     <g id="line2d_5">
      <g>
       <use style="stroke:#000000;stroke-width:1.875;" x="429.682178" xlink:href="#m1d5e3ba3e6" y="504"/>
      </g>
     </g>
     <g id="text_5">
      <!-- 4.2 -->
      <g transform="translate(416.5621 529.037422)scale(0.165 -0.165)">
       <defs>
        <path d="M 19.1875 8.296875 
L 53.609375 8.296875 
L 53.609375 0 
L 7.328125 0 
L 7.328125 8.296875 
Q 12.9375 14.109375 22.625 23.890625 
Q 32.328125 33.6875 34.8125 36.53125 
Q 39.546875 41.84375 41.421875 45.53125 
Q 43.3125 49.21875 43.3125 52.78125 
Q 43.3125 58.59375 39.234375 62.25 
Q 35.15625 65.921875 28.609375 65.921875 
Q 23.96875 65.921875 18.8125 64.3125 
Q 13.671875 62.703125 7.8125 59.421875 
L 7.8125 69.390625 
Q 13.765625 71.78125 18.9375 73 
Q 24.125 74.21875 28.421875 74.21875 
Q 39.75 74.21875 46.484375 68.546875 
Q 53.21875 62.890625 53.21875 53.421875 
Q 53.21875 48.921875 51.53125 44.890625 
Q 49.859375 40.875 45.40625 35.40625 
Q 44.1875 33.984375 37.640625 27.21875 
Q 31.109375 20.453125 19.1875 8.296875 
z
" id="DejaVuSans-50"/>
       </defs>
       <use xlink:href="#DejaVuSans-52"/>
       <use x="63.623047" xlink:href="#DejaVuSans-46"/>
       <use x="95.410156" xlink:href="#DejaVuSans-50"/>
      </g>
     </g>
    </g>
    <g id="xtick_6">
     <g id="line2d_6">
      <g>
       <use style="stroke:#000000;stroke-width:1.875;" x="499.838427" xlink:href="#m1d5e3ba3e6" y="504"/>
      </g>
     </g>
     <g id="text_6">
      <!-- 4.4 -->
      <g transform="translate(486.718349 529.037422)scale(0.165 -0.165)">
       <use xlink:href="#DejaVuSans-52"/>
       <use x="63.623047" xlink:href="#DejaVuSans-46"/>
       <use x="95.410156" xlink:href="#DejaVuSans-52"/>
      </g>
     </g>
    </g>
    <g id="xtick_7">
     <g id="line2d_7">
      <g>
       <use style="stroke:#000000;stroke-width:1.875;" x="569.994676" xlink:href="#m1d5e3ba3e6" y="504"/>
      </g>
     </g>
     <g id="text_7">
      <!-- 4.6 -->
      <g transform="translate(556.874598 529.037422)scale(0.165 -0.165)">
       <use xlink:href="#DejaVuSans-52"/>
       <use x="63.623047" xlink:href="#DejaVuSans-46"/>
       <use x="95.410156" xlink:href="#DejaVuSans-54"/>
      </g>
     </g>
    </g>
    <g id="xtick_8">
     <g id="line2d_8">
      <g>
       <use style="stroke:#000000;stroke-width:1.875;" x="640.150925" xlink:href="#m1d5e3ba3e6" y="504"/>
      </g>
     </g>
     <g id="text_8">
      <!-- 4.8 -->
      <g transform="translate(627.030847 529.037422)scale(0.165 -0.165)">
       <use xlink:href="#DejaVuSans-52"/>
       <use x="63.623047" xlink:href="#DejaVuSans-46"/>
       <use x="95.410156" xlink:href="#DejaVuSans-56"/>
      </g>
     </g>
    </g>
    <g id="text_9">
     <!-- concentration -->
     <g transform="translate(306.667969 550.146094)scale(0.18 -0.18)">
      <defs>
       <path d="M 48.78125 52.59375 
L 48.78125 44.1875 
Q 44.96875 46.296875 41.140625 47.34375 
Q 37.3125 48.390625 33.40625 48.390625 
Q 24.65625 48.390625 19.8125 42.84375 
Q 14.984375 37.3125 14.984375 27.296875 
Q 14.984375 17.28125 19.8125 11.734375 
Q 24.65625 6.203125 33.40625 6.203125 
Q 37.3125 6.203125 41.140625 7.25 
Q 44.96875 8.296875 48.78125 10.40625 
L 48.78125 2.09375 
Q 45.015625 0.34375 40.984375 -0.53125 
Q 36.96875 -1.421875 32.421875 -1.421875 
Q 20.0625 -1.421875 12.78125 6.34375 
Q 5.515625 14.109375 5.515625 27.296875 
Q 5.515625 40.671875 12.859375 48.328125 
Q 20.21875 56 33.015625 56 
Q 37.15625 56 41.109375 55.140625 
Q 45.0625 54.296875 48.78125 52.59375 
z
" id="DejaVuSans-99"/>
       <path d="M 30.609375 48.390625 
Q 23.390625 48.390625 19.1875 42.75 
Q 14.984375 37.109375 14.984375 27.296875 
Q 14.984375 17.484375 19.15625 11.84375 
Q 23.34375 6.203125 30.609375 6.203125 
Q 37.796875 6.203125 41.984375 11.859375 
Q 46.1875 17.53125 46.1875 27.296875 
Q 46.1875 37.015625 41.984375 42.703125 
Q 37.796875 48.390625 30.609375 48.390625 
z
M 30.609375 56 
Q 42.328125 56 49.015625 48.375 
Q 55.71875 40.765625 55.71875 27.296875 
Q 55.71875 13.875 49.015625 6.21875 
Q 42.328125 -1.421875 30.609375 -1.421875 
Q 18.84375 -1.421875 12.171875 6.21875 
Q 5.515625 13.875 5.515625 27.296875 
Q 5.515625 40.765625 12.171875 48.375 
Q 18.84375 56 30.609375 56 
z
" id="DejaVuSans-111"/>
       <path d="M 54.890625 33.015625 
L 54.890625 0 
L 45.90625 0 
L 45.90625 32.71875 
Q 45.90625 40.484375 42.875 44.328125 
Q 39.84375 48.1875 33.796875 48.1875 
Q 26.515625 48.1875 22.3125 43.546875 
Q 18.109375 38.921875 18.109375 30.90625 
L 18.109375 0 
L 9.078125 0 
L 9.078125 54.6875 
L 18.109375 54.6875 
L 18.109375 46.1875 
Q 21.34375 51.125 25.703125 53.5625 
Q 30.078125 56 35.796875 56 
Q 45.21875 56 50.046875 50.171875 
Q 54.890625 44.34375 54.890625 33.015625 
z
" id="DejaVuSans-110"/>
       <path d="M 56.203125 29.59375 
L 56.203125 25.203125 
L 14.890625 25.203125 
Q 15.484375 15.921875 20.484375 11.0625 
Q 25.484375 6.203125 34.421875 6.203125 
Q 39.59375 6.203125 44.453125 7.46875 
Q 49.3125 8.734375 54.109375 11.28125 
L 54.109375 2.78125 
Q 49.265625 0.734375 44.1875 -0.34375 
Q 39.109375 -1.421875 33.890625 -1.421875 
Q 20.796875 -1.421875 13.15625 6.1875 
Q 5.515625 13.8125 5.515625 26.8125 
Q 5.515625 40.234375 12.765625 48.109375 
Q 20.015625 56 32.328125 56 
Q 43.359375 56 49.78125 48.890625 
Q 56.203125 41.796875 56.203125 29.59375 
z
M 47.21875 32.234375 
Q 47.125 39.59375 43.09375 43.984375 
Q 39.0625 48.390625 32.421875 48.390625 
Q 24.90625 48.390625 20.390625 44.140625 
Q 15.875 39.890625 15.1875 32.171875 
z
" id="DejaVuSans-101"/>
       <path d="M 18.3125 70.21875 
L 18.3125 54.6875 
L 36.8125 54.6875 
L 36.8125 47.703125 
L 18.3125 47.703125 
L 18.3125 18.015625 
Q 18.3125 11.328125 20.140625 9.421875 
Q 21.96875 7.515625 27.59375 7.515625 
L 36.8125 7.515625 
L 36.8125 0 
L 27.59375 0 
Q 17.1875 0 13.234375 3.875 
Q 9.28125 7.765625 9.28125 18.015625 
L 9.28125 47.703125 
L 2.6875 47.703125 
L 2.6875 54.6875 
L 9.28125 54.6875 
L 9.28125 70.21875 
z
" id="DejaVuSans-116"/>
       <path d="M 41.109375 46.296875 
Q 39.59375 47.171875 37.8125 47.578125 
Q 36.03125 48 33.890625 48 
Q 26.265625 48 22.1875 43.046875 
Q 18.109375 38.09375 18.109375 28.8125 
L 18.109375 0 
L 9.078125 0 
L 9.078125 54.6875 
L 18.109375 54.6875 
L 18.109375 46.1875 
Q 20.953125 51.171875 25.484375 53.578125 
Q 30.03125 56 36.53125 56 
Q 37.453125 56 38.578125 55.875 
Q 39.703125 55.765625 41.0625 55.515625 
z
" id="DejaVuSans-114"/>
       <path d="M 34.28125 27.484375 
Q 23.390625 27.484375 19.1875 25 
Q 14.984375 22.515625 14.984375 16.5 
Q 14.984375 11.71875 18.140625 8.90625 
Q 21.296875 6.109375 26.703125 6.109375 
Q 34.1875 6.109375 38.703125 11.40625 
Q 43.21875 16.703125 43.21875 25.484375 
L 43.21875 27.484375 
z
M 52.203125 31.203125 
L 52.203125 0 
L 43.21875 0 
L 43.21875 8.296875 
Q 40.140625 3.328125 35.546875 0.953125 
Q 30.953125 -1.421875 24.3125 -1.421875 
Q 15.921875 -1.421875 10.953125 3.296875 
Q 6 8.015625 6 15.921875 
Q 6 25.140625 12.171875 29.828125 
Q 18.359375 34.515625 30.609375 34.515625 
L 43.21875 34.515625 
L 43.21875 35.40625 
Q 43.21875 41.609375 39.140625 45 
Q 35.0625 48.390625 27.6875 48.390625 
Q 23 48.390625 18.546875 47.265625 
Q 14.109375 46.140625 10.015625 43.890625 
L 10.015625 52.203125 
Q 14.9375 54.109375 19.578125 55.046875 
Q 24.21875 56 28.609375 56 
Q 40.484375 56 46.34375 49.84375 
Q 52.203125 43.703125 52.203125 31.203125 
z
" id="DejaVuSans-97"/>
       <path d="M 9.421875 54.6875 
L 18.40625 54.6875 
L 18.40625 0 
L 9.421875 0 
z
M 9.421875 75.984375 
L 18.40625 75.984375 
L 18.40625 64.59375 
L 9.421875 64.59375 
z
" id="DejaVuSans-105"/>
      </defs>
      <use xlink:href="#DejaVuSans-99"/>
      <use x="54.980469" xlink:href="#DejaVuSans-111"/>
      <use x="116.162109" xlink:href="#DejaVuSans-110"/>
      <use x="179.541016" xlink:href="#DejaVuSans-99"/>
      <use x="234.521484" xlink:href="#DejaVuSans-101"/>
      <use x="296.044922" xlink:href="#DejaVuSans-110"/>
      <use x="359.423828" xlink:href="#DejaVuSans-116"/>
      <use x="398.632812" xlink:href="#DejaVuSans-114"/>
      <use x="439.746094" xlink:href="#DejaVuSans-97"/>
      <use x="501.025391" xlink:href="#DejaVuSans-116"/>
      <use x="540.234375" xlink:href="#DejaVuSans-105"/>
      <use x="568.017578" xlink:href="#DejaVuSans-111"/>
      <use x="629.199219" xlink:href="#DejaVuSans-110"/>
     </g>
    </g>
   </g>
   <g id="matplotlib.axis_2">
    <g id="ytick_1">
     <g id="line2d_9">
      <defs>
       <path d="M 0 0 
L -9 0 
" id="m354f6d9d04" style="stroke:#000000;stroke-width:1.875;"/>
      </defs>
      <g>
       <use style="stroke:#000000;stroke-width:1.875;" x="90" xlink:href="#m354f6d9d04" y="487.724439"/>
      </g>
     </g>
     <g id="text_10">
      <!-- 0.4 -->
      <g transform="translate(51.259844 493.99315)scale(0.165 -0.165)">
       <use xlink:href="#DejaVuSans-48"/>
       <use x="63.623047" xlink:href="#DejaVuSans-46"/>
       <use x="95.410156" xlink:href="#DejaVuSans-52"/>
      </g>
     </g>
    </g>
    <g id="ytick_2">
     <g id="line2d_10">
      <g>
       <use style="stroke:#000000;stroke-width:1.875;" x="90" xlink:href="#m354f6d9d04" y="396.204017"/>
      </g>
     </g>
     <g id="text_11">
      <!-- 0.5 -->
      <g transform="translate(51.259844 402.472728)scale(0.165 -0.165)">
       <defs>
        <path d="M 10.796875 72.90625 
L 49.515625 72.90625 
L 49.515625 64.59375 
L 19.828125 64.59375 
L 19.828125 46.734375 
Q 21.96875 47.46875 24.109375 47.828125 
Q 26.265625 48.1875 28.421875 48.1875 
Q 40.625 48.1875 47.75 41.5 
Q 54.890625 34.8125 54.890625 23.390625 
Q 54.890625 11.625 47.5625 5.09375 
Q 40.234375 -1.421875 26.90625 -1.421875 
Q 22.3125 -1.421875 17.546875 -0.640625 
Q 12.796875 0.140625 7.71875 1.703125 
L 7.71875 11.625 
Q 12.109375 9.234375 16.796875 8.0625 
Q 21.484375 6.890625 26.703125 6.890625 
Q 35.15625 6.890625 40.078125 11.328125 
Q 45.015625 15.765625 45.015625 23.390625 
Q 45.015625 31 40.078125 35.4375 
Q 35.15625 39.890625 26.703125 39.890625 
Q 22.75 39.890625 18.8125 39.015625 
Q 14.890625 38.140625 10.796875 36.28125 
z
" id="DejaVuSans-53"/>
       </defs>
       <use xlink:href="#DejaVuSans-48"/>
       <use x="63.623047" xlink:href="#DejaVuSans-46"/>
       <use x="95.410156" xlink:href="#DejaVuSans-53"/>
      </g>
     </g>
    </g>
    <g id="ytick_3">
     <g id="line2d_11">
      <g>
       <use style="stroke:#000000;stroke-width:1.875;" x="90" xlink:href="#m354f6d9d04" y="304.683596"/>
      </g>
     </g>
     <g id="text_12">
      <!-- 0.6 -->
      <g transform="translate(51.259844 310.952307)scale(0.165 -0.165)">
       <use xlink:href="#DejaVuSans-48"/>
       <use x="63.623047" xlink:href="#DejaVuSans-46"/>
       <use x="95.410156" xlink:href="#DejaVuSans-54"/>
      </g>
     </g>
    </g>
    <g id="ytick_4">
     <g id="line2d_12">
      <g>
       <use style="stroke:#000000;stroke-width:1.875;" x="90" xlink:href="#m354f6d9d04" y="213.163174"/>
      </g>
     </g>
     <g id="text_13">
      <!-- 0.7 -->
      <g transform="translate(51.259844 219.431885)scale(0.165 -0.165)">
       <defs>
        <path d="M 8.203125 72.90625 
L 55.078125 72.90625 
L 55.078125 68.703125 
L 28.609375 0 
L 18.3125 0 
L 43.21875 64.59375 
L 8.203125 64.59375 
z
" id="DejaVuSans-55"/>
       </defs>
       <use xlink:href="#DejaVuSans-48"/>
       <use x="63.623047" xlink:href="#DejaVuSans-46"/>
       <use x="95.410156" xlink:href="#DejaVuSans-55"/>
      </g>
     </g>
    </g>
    <g id="ytick_5">
     <g id="line2d_13">
      <g>
       <use style="stroke:#000000;stroke-width:1.875;" x="90" xlink:href="#m354f6d9d04" y="121.642752"/>
      </g>
     </g>
     <g id="text_14">
      <!-- 0.8 -->
      <g transform="translate(51.259844 127.911463)scale(0.165 -0.165)">
       <use xlink:href="#DejaVuSans-48"/>
       <use x="63.623047" xlink:href="#DejaVuSans-46"/>
       <use x="95.410156" xlink:href="#DejaVuSans-56"/>
      </g>
     </g>
    </g>
    <g id="text_15">
     <!-- test accuracy -->
     <g transform="translate(43.516406 347.31)rotate(-90)scale(0.18 -0.18)">
      <defs>
       <path d="M 44.28125 53.078125 
L 44.28125 44.578125 
Q 40.484375 46.53125 36.375 47.5 
Q 32.28125 48.484375 27.875 48.484375 
Q 21.1875 48.484375 17.84375 46.4375 
Q 14.5 44.390625 14.5 40.28125 
Q 14.5 37.15625 16.890625 35.375 
Q 19.28125 33.59375 26.515625 31.984375 
L 29.59375 31.296875 
Q 39.15625 29.25 43.1875 25.515625 
Q 47.21875 21.78125 47.21875 15.09375 
Q 47.21875 7.46875 41.1875 3.015625 
Q 35.15625 -1.421875 24.609375 -1.421875 
Q 20.21875 -1.421875 15.453125 -0.5625 
Q 10.6875 0.296875 5.421875 2 
L 5.421875 11.28125 
Q 10.40625 8.6875 15.234375 7.390625 
Q 20.0625 6.109375 24.8125 6.109375 
Q 31.15625 6.109375 34.5625 8.28125 
Q 37.984375 10.453125 37.984375 14.40625 
Q 37.984375 18.0625 35.515625 20.015625 
Q 33.0625 21.96875 24.703125 23.78125 
L 21.578125 24.515625 
Q 13.234375 26.265625 9.515625 29.90625 
Q 5.8125 33.546875 5.8125 39.890625 
Q 5.8125 47.609375 11.28125 51.796875 
Q 16.75 56 26.8125 56 
Q 31.78125 56 36.171875 55.265625 
Q 40.578125 54.546875 44.28125 53.078125 
z
" id="DejaVuSans-115"/>
       <path id="DejaVuSans-32"/>
       <path d="M 8.5 21.578125 
L 8.5 54.6875 
L 17.484375 54.6875 
L 17.484375 21.921875 
Q 17.484375 14.15625 20.5 10.265625 
Q 23.53125 6.390625 29.59375 6.390625 
Q 36.859375 6.390625 41.078125 11.03125 
Q 45.3125 15.671875 45.3125 23.6875 
L 45.3125 54.6875 
L 54.296875 54.6875 
L 54.296875 0 
L 45.3125 0 
L 45.3125 8.40625 
Q 42.046875 3.421875 37.71875 1 
Q 33.40625 -1.421875 27.6875 -1.421875 
Q 18.265625 -1.421875 13.375 4.4375 
Q 8.5 10.296875 8.5 21.578125 
z
M 31.109375 56 
z
" id="DejaVuSans-117"/>
       <path d="M 32.171875 -5.078125 
Q 28.375 -14.84375 24.75 -17.8125 
Q 21.140625 -20.796875 15.09375 -20.796875 
L 7.90625 -20.796875 
L 7.90625 -13.28125 
L 13.1875 -13.28125 
Q 16.890625 -13.28125 18.9375 -11.515625 
Q 21 -9.765625 23.484375 -3.21875 
L 25.09375 0.875 
L 2.984375 54.6875 
L 12.5 54.6875 
L 29.59375 11.921875 
L 46.6875 54.6875 
L 56.203125 54.6875 
z
" id="DejaVuSans-121"/>
      </defs>
      <use xlink:href="#DejaVuSans-116"/>
      <use x="39.208984" xlink:href="#DejaVuSans-101"/>
      <use x="100.732422" xlink:href="#DejaVuSans-115"/>
      <use x="152.832031" xlink:href="#DejaVuSans-116"/>
      <use x="192.041016" xlink:href="#DejaVuSans-32"/>
      <use x="223.828125" xlink:href="#DejaVuSans-97"/>
      <use x="285.107422" xlink:href="#DejaVuSans-99"/>
      <use x="340.087891" xlink:href="#DejaVuSans-99"/>
      <use x="395.068359" xlink:href="#DejaVuSans-117"/>
      <use x="458.447266" xlink:href="#DejaVuSans-114"/>
      <use x="499.560547" xlink:href="#DejaVuSans-97"/>
      <use x="560.839844" xlink:href="#DejaVuSans-99"/>
      <use x="615.820312" xlink:href="#DejaVuSans-121"/>
     </g>
    </g>
   </g>
   <g id="patch_3">
    <path d="M 90 504 
L 90 69.12 
" style="fill:none;stroke:#000000;stroke-linecap:square;stroke-linejoin:miter;stroke-width:1.875;"/>
   </g>
   <g id="patch_4">
    <path d="M 648 504 
L 648 69.12 
" style="fill:none;stroke:#000000;stroke-linecap:square;stroke-linejoin:miter;stroke-width:1.875;"/>
   </g>
   <g id="patch_5">
    <path d="M 90 504 
L 648 504 
" style="fill:none;stroke:#000000;stroke-linecap:square;stroke-linejoin:miter;stroke-width:1.875;"/>
   </g>
   <g id="patch_6">
    <path d="M 90 69.12 
L 648 69.12 
" style="fill:none;stroke:#000000;stroke-linecap:square;stroke-linejoin:miter;stroke-width:1.875;"/>
   </g>
  </g>
 </g>
 <defs>
  <clipPath id="p05abb5d610">
   <rect height="434.88" width="558" x="90" y="69.12"/>
  </clipPath>
 </defs>
</svg>
