<?xml version="1.0" encoding="utf-8" standalone="no"?>
<!DOCTYPE svg PUBLIC "-//W3C//DTD SVG 1.1//EN"
  "http://www.w3.org/Graphics/SVG/1.1/DTD/svg11.dtd">
<!-- Created with matplotlib (https://matplotlib.org/) -->
<svg height="576pt" version="1.1" viewBox="0 0 720 576" width="720pt" xmlns="http://www.w3.org/2000/svg" xmlns:xlink="http://www.w3.org/1999/xlink">
 <metadata>
  <rdf:RDF xmlns:cc="http://creativecommons.org/ns#" xmlns:dc="http://purl.org/dc/elements/1.1/" xmlns:rdf="http://www.w3.org/1999/02/22-rdf-syntax-ns#">
   <cc:Work>
    <dc:type rdf:resource="http://purl.org/dc/dcmitype/StillImage"/>
    <dc:date>2023-04-16T12:02:06.133513</dc:date>
    <dc:format>image/svg+xml</dc:format>
    <dc:creator>
     <cc:Agent>
      <dc:title>Matplotlib v3.3.4, https://matplotlib.org/</dc:title>
     </cc:Agent>
    </dc:creator>
   </cc:Work>
  </rdf:RDF>
 </metadata>
 <defs>
  <style type="text/css">*{stroke-linecap:butt;stroke-linejoin:round;}</style>
 </defs>
 <g id="figure_1">
  <g id="patch_1">
   <path d="M 0 576 
L 720 576 
L 720 0 
L 0 0 
z
" style="fill:none;"/>
  </g>
  <g id="axes_1">
   <g id="patch_2">
    <path d="M 90 504 
L 648 504 
L 648 69.12 
L 90 69.12 
z
" style="fill:#ffffff;"/>
   </g>
   <g id="PathCollection_1">
    <defs>
     <path d="M 0 4.5 
C 1.193414 4.5 2.338109 4.025852 3.181981 3.181981 
C 4.025852 2.338109 4.5 1.193414 4.5 0 
C 4.5 -1.193414 4.025852 -2.338109 3.181981 -3.181981 
C 2.338109 -4.025852 1.193414 -4.5 0 -4.5 
C -1.193414 -4.5 -2.338109 -4.025852 -3.181981 -3.181981 
C -4.025852 -2.338109 -4.5 -1.193414 -4.5 0 
C -4.5 1.193414 -4.025852 2.338109 -3.181981 3.181981 
C -2.338109 4.025852 -1.193414 4.5 0 4.5 
z
" id="m576341f481" style="stroke:#000000;stroke-width:1.5;"/>
    </defs>
    <g clip-path="url(#pa5a1851e84)">
     <use style="stroke:#000000;stroke-width:1.5;" x="264.691192" xlink:href="#m576341f481" y="443.644057"/>
    </g>
   </g>
   <g id="PathCollection_2">
    <g clip-path="url(#pa5a1851e84)">
     <use style="stroke:#000000;stroke-width:1.5;" x="271.409059" xlink:href="#m576341f481" y="462.368392"/>
    </g>
   </g>
   <g id="PathCollection_3">
    <g clip-path="url(#pa5a1851e84)">
     <use style="stroke:#000000;stroke-width:1.5;" x="253.419544" xlink:href="#m576341f481" y="450.220971"/>
    </g>
   </g>
   <g id="PathCollection_4">
    <g clip-path="url(#pa5a1851e84)">
     <use style="stroke:#000000;stroke-width:1.5;" x="414.011033" xlink:href="#m576341f481" y="88.904475"/>
    </g>
   </g>
   <g id="PathCollection_5">
    <g clip-path="url(#pa5a1851e84)">
     <use style="stroke:#000000;stroke-width:1.5;" x="267.770988" xlink:href="#m576341f481" y="454.375983"/>
    </g>
   </g>
   <g id="PathCollection_6">
    <g clip-path="url(#pa5a1851e84)">
     <use style="stroke:#000000;stroke-width:1.5;" x="351.915799" xlink:href="#m576341f481" y="462.054369"/>
    </g>
   </g>
   <g id="PathCollection_7">
    <g clip-path="url(#pa5a1851e84)">
     <use style="stroke:#000000;stroke-width:1.5;" x="310.820386" xlink:href="#m576341f481" y="449.610858"/>
    </g>
   </g>
   <g id="PathCollection_8">
    <g clip-path="url(#pa5a1851e84)">
     <use style="stroke:#000000;stroke-width:1.5;" x="233.230588" xlink:href="#m576341f481" y="463.341862"/>
    </g>
   </g>
   <g id="PathCollection_9">
    <g clip-path="url(#pa5a1851e84)">
     <use style="stroke:#000000;stroke-width:1.5;" x="201.521513" xlink:href="#m576341f481" y="458.585913"/>
    </g>
   </g>
   <g id="PathCollection_10">
    <g clip-path="url(#pa5a1851e84)">
     <use style="stroke:#000000;stroke-width:1.5;" x="292.681876" xlink:href="#m576341f481" y="448.921804"/>
    </g>
   </g>
   <g id="PathCollection_11">
    <g clip-path="url(#pa5a1851e84)">
     <use style="stroke:#000000;stroke-width:1.5;" x="326.106175" xlink:href="#m576341f481" y="462.145122"/>
    </g>
   </g>
   <g id="PathCollection_12">
    <g clip-path="url(#pa5a1851e84)">
     <use style="stroke:#000000;stroke-width:1.5;" x="547.197396" xlink:href="#m576341f481" y="88.899057"/>
    </g>
   </g>
   <g id="PathCollection_13">
    <g clip-path="url(#pa5a1851e84)">
     <use style="stroke:#000000;stroke-width:1.5;" x="361.16953" xlink:href="#m576341f481" y="447.735569"/>
    </g>
   </g>
   <g id="PathCollection_14">
    <g clip-path="url(#pa5a1851e84)">
     <use style="stroke:#000000;stroke-width:1.5;" x="370.405577" xlink:href="#m576341f481" y="465.347539"/>
    </g>
   </g>
   <g id="PathCollection_15">
    <g clip-path="url(#pa5a1851e84)">
     <use style="stroke:#000000;stroke-width:1.5;" x="431.06969" xlink:href="#m576341f481" y="88.904474"/>
    </g>
   </g>
   <g id="PathCollection_16">
    <g clip-path="url(#pa5a1851e84)">
     <use style="stroke:#000000;stroke-width:1.5;" x="372.908736" xlink:href="#m576341f481" y="458.228052"/>
    </g>
   </g>
   <g id="PathCollection_17">
    <g clip-path="url(#pa5a1851e84)">
     <use style="stroke:#000000;stroke-width:1.5;" x="300.329548" xlink:href="#m576341f481" y="468.828828"/>
    </g>
   </g>
   <g id="PathCollection_18">
    <g clip-path="url(#pa5a1851e84)">
     <use style="stroke:#000000;stroke-width:1.5;" x="313.415528" xlink:href="#m576341f481" y="459.752601"/>
    </g>
   </g>
   <g id="PathCollection_19">
    <g clip-path="url(#pa5a1851e84)">
     <use style="stroke:#000000;stroke-width:1.5;" x="432.909249" xlink:href="#m576341f481" y="88.934096"/>
    </g>
   </g>
   <g id="PathCollection_20">
    <g clip-path="url(#pa5a1851e84)">
     <use style="stroke:#000000;stroke-width:1.5;" x="375.307616" xlink:href="#m576341f481" y="459.479904"/>
    </g>
   </g>
   <g id="PathCollection_21">
    <g clip-path="url(#pa5a1851e84)">
     <use style="stroke:#000000;stroke-width:1.5;" x="360.764864" xlink:href="#m576341f481" y="460.015367"/>
    </g>
   </g>
   <g id="PathCollection_22">
    <g clip-path="url(#pa5a1851e84)">
     <use style="stroke:#000000;stroke-width:1.5;" x="315.005599" xlink:href="#m576341f481" y="466.918545"/>
    </g>
   </g>
   <g id="PathCollection_23">
    <g clip-path="url(#pa5a1851e84)">
     <use style="stroke:#000000;stroke-width:1.5;" x="284.600714" xlink:href="#m576341f481" y="484.232727"/>
    </g>
   </g>
   <g id="PathCollection_24">
    <g clip-path="url(#pa5a1851e84)">
     <use style="stroke:#000000;stroke-width:1.5;" x="622.636364" xlink:href="#m576341f481" y="88.906423"/>
    </g>
   </g>
   <g id="PathCollection_25">
    <g clip-path="url(#pa5a1851e84)">
     <use style="stroke:#000000;stroke-width:1.5;" x="252.308231" xlink:href="#m576341f481" y="460.188592"/>
    </g>
   </g>
   <g id="PathCollection_26">
    <g clip-path="url(#pa5a1851e84)">
     <use style="stroke:#000000;stroke-width:1.5;" x="317.206936" xlink:href="#m576341f481" y="459.724695"/>
    </g>
   </g>
   <g id="PathCollection_27">
    <g clip-path="url(#pa5a1851e84)">
     <use style="stroke:#000000;stroke-width:1.5;" x="442.263164" xlink:href="#m576341f481" y="88.919829"/>
    </g>
   </g>
   <g id="PathCollection_28">
    <g clip-path="url(#pa5a1851e84)">
     <use style="stroke:#000000;stroke-width:1.5;" x="362.299182" xlink:href="#m576341f481" y="463.925437"/>
    </g>
   </g>
   <g id="PathCollection_29">
    <g clip-path="url(#pa5a1851e84)">
     <use style="stroke:#000000;stroke-width:1.5;" x="452.704558" xlink:href="#m576341f481" y="88.911581"/>
    </g>
   </g>
   <g id="PathCollection_30">
    <g clip-path="url(#pa5a1851e84)">
     <use style="stroke:#000000;stroke-width:1.5;" x="303.767058" xlink:href="#m576341f481" y="461.633959"/>
    </g>
   </g>
   <g id="PathCollection_31">
    <g clip-path="url(#pa5a1851e84)">
     <use style="stroke:#000000;stroke-width:1.5;" x="356.380566" xlink:href="#m576341f481" y="456.773677"/>
    </g>
   </g>
   <g id="PathCollection_32">
    <g clip-path="url(#pa5a1851e84)">
     <use style="stroke:#000000;stroke-width:1.5;" x="144.057799" xlink:href="#m576341f481" y="456.610182"/>
    </g>
   </g>
   <g id="PathCollection_33">
    <g clip-path="url(#pa5a1851e84)">
     <use style="stroke:#000000;stroke-width:1.5;" x="315.183479" xlink:href="#m576341f481" y="462.978035"/>
    </g>
   </g>
   <g id="PathCollection_34">
    <g clip-path="url(#pa5a1851e84)">
     <use style="stroke:#000000;stroke-width:1.5;" x="292.738575" xlink:href="#m576341f481" y="451.319453"/>
    </g>
   </g>
   <g id="PathCollection_35">
    <g clip-path="url(#pa5a1851e84)">
     <use style="stroke:#000000;stroke-width:1.5;" x="451.321428" xlink:href="#m576341f481" y="88.897488"/>
    </g>
   </g>
   <g id="PathCollection_36">
    <g clip-path="url(#pa5a1851e84)">
     <use style="stroke:#000000;stroke-width:1.5;" x="294.224852" xlink:href="#m576341f481" y="458.072485"/>
    </g>
   </g>
   <g id="PathCollection_37">
    <g clip-path="url(#pa5a1851e84)">
     <use style="stroke:#000000;stroke-width:1.5;" x="394.255358" xlink:href="#m576341f481" y="463.416847"/>
    </g>
   </g>
   <g id="PathCollection_38">
    <g clip-path="url(#pa5a1851e84)">
     <use style="stroke:#000000;stroke-width:1.5;" x="271.69135" xlink:href="#m576341f481" y="454.426296"/>
    </g>
   </g>
   <g id="PathCollection_39">
    <g clip-path="url(#pa5a1851e84)">
     <use style="stroke:#000000;stroke-width:1.5;" x="448.706096" xlink:href="#m576341f481" y="88.904835"/>
    </g>
   </g>
   <g id="PathCollection_40">
    <g clip-path="url(#pa5a1851e84)">
     <use style="stroke:#000000;stroke-width:1.5;" x="438.190747" xlink:href="#m576341f481" y="88.907814"/>
    </g>
   </g>
   <g id="PathCollection_41">
    <g clip-path="url(#pa5a1851e84)">
     <use style="stroke:#000000;stroke-width:1.5;" x="413.592301" xlink:href="#m576341f481" y="88.901422"/>
    </g>
   </g>
   <g id="PathCollection_42">
    <g clip-path="url(#pa5a1851e84)">
     <use style="stroke:#000000;stroke-width:1.5;" x="351.513621" xlink:href="#m576341f481" y="464.824468"/>
    </g>
   </g>
   <g id="PathCollection_43">
    <g clip-path="url(#pa5a1851e84)">
     <use style="stroke:#000000;stroke-width:1.5;" x="400.603995" xlink:href="#m576341f481" y="463.200754"/>
    </g>
   </g>
   <g id="PathCollection_44">
    <g clip-path="url(#pa5a1851e84)">
     <use style="stroke:#000000;stroke-width:1.5;" x="388.588414" xlink:href="#m576341f481" y="438.49317"/>
    </g>
   </g>
   <g id="PathCollection_45">
    <g clip-path="url(#pa5a1851e84)">
     <use style="stroke:#000000;stroke-width:1.5;" x="364.3515" xlink:href="#m576341f481" y="457.853375"/>
    </g>
   </g>
   <g id="PathCollection_46">
    <g clip-path="url(#pa5a1851e84)">
     <use style="stroke:#000000;stroke-width:1.5;" x="142.618739" xlink:href="#m576341f481" y="449.390284"/>
    </g>
   </g>
   <g id="PathCollection_47">
    <g clip-path="url(#pa5a1851e84)">
     <use style="stroke:#000000;stroke-width:1.5;" x="331.643462" xlink:href="#m576341f481" y="444.062712"/>
    </g>
   </g>
   <g id="PathCollection_48">
    <g clip-path="url(#pa5a1851e84)">
     <use style="stroke:#000000;stroke-width:1.5;" x="426.382616" xlink:href="#m576341f481" y="88.951247"/>
    </g>
   </g>
   <g id="PathCollection_49">
    <g clip-path="url(#pa5a1851e84)">
     <use style="stroke:#000000;stroke-width:1.5;" x="333.838052" xlink:href="#m576341f481" y="470.962606"/>
    </g>
   </g>
   <g id="PathCollection_50">
    <g clip-path="url(#pa5a1851e84)">
     <use style="stroke:#000000;stroke-width:1.5;" x="350.803936" xlink:href="#m576341f481" y="464.575701"/>
    </g>
   </g>
   <g id="PathCollection_51">
    <g clip-path="url(#pa5a1851e84)">
     <use style="stroke:#000000;stroke-width:1.5;" x="241.742881" xlink:href="#m576341f481" y="459.213323"/>
    </g>
   </g>
   <g id="PathCollection_52">
    <g clip-path="url(#pa5a1851e84)">
     <use style="stroke:#000000;stroke-width:1.5;" x="441.453936" xlink:href="#m576341f481" y="88.92141"/>
    </g>
   </g>
   <g id="PathCollection_53">
    <g clip-path="url(#pa5a1851e84)">
     <use style="stroke:#000000;stroke-width:1.5;" x="342.987968" xlink:href="#m576341f481" y="456.292829"/>
    </g>
   </g>
   <g id="PathCollection_54">
    <g clip-path="url(#pa5a1851e84)">
     <use style="stroke:#000000;stroke-width:1.5;" x="418.728258" xlink:href="#m576341f481" y="88.913596"/>
    </g>
   </g>
   <g id="PathCollection_55">
    <g clip-path="url(#pa5a1851e84)">
     <use style="stroke:#000000;stroke-width:1.5;" x="313.824239" xlink:href="#m576341f481" y="461.405171"/>
    </g>
   </g>
   <g id="PathCollection_56">
    <g clip-path="url(#pa5a1851e84)">
     <use style="stroke:#000000;stroke-width:1.5;" x="435.768217" xlink:href="#m576341f481" y="88.912285"/>
    </g>
   </g>
   <g id="PathCollection_57">
    <g clip-path="url(#pa5a1851e84)">
     <use style="stroke:#000000;stroke-width:1.5;" x="351.611775" xlink:href="#m576341f481" y="445.281752"/>
    </g>
   </g>
   <g id="PathCollection_58">
    <g clip-path="url(#pa5a1851e84)">
     <use style="stroke:#000000;stroke-width:1.5;" x="115.363636" xlink:href="#m576341f481" y="461.323779"/>
    </g>
   </g>
   <g id="PathCollection_59">
    <g clip-path="url(#pa5a1851e84)">
     <use style="stroke:#000000;stroke-width:1.5;" x="344.579333" xlink:href="#m576341f481" y="449.332867"/>
    </g>
   </g>
   <g id="PathCollection_60">
    <g clip-path="url(#pa5a1851e84)">
     <use style="stroke:#000000;stroke-width:1.5;" x="206.715038" xlink:href="#m576341f481" y="451.452131"/>
    </g>
   </g>
   <g id="PathCollection_61">
    <g clip-path="url(#pa5a1851e84)">
     <use style="stroke:#000000;stroke-width:1.5;" x="392.778736" xlink:href="#m576341f481" y="464.566822"/>
    </g>
   </g>
   <g id="PathCollection_62">
    <g clip-path="url(#pa5a1851e84)">
     <use style="stroke:#000000;stroke-width:1.5;" x="309.464806" xlink:href="#m576341f481" y="462.103115"/>
    </g>
   </g>
   <g id="PathCollection_63">
    <g clip-path="url(#pa5a1851e84)">
     <use style="stroke:#000000;stroke-width:1.5;" x="389.320117" xlink:href="#m576341f481" y="444.34383"/>
    </g>
   </g>
   <g id="PathCollection_64">
    <g clip-path="url(#pa5a1851e84)">
     <use style="stroke:#000000;stroke-width:1.5;" x="310.594627" xlink:href="#m576341f481" y="455.424463"/>
    </g>
   </g>
   <g id="PathCollection_65">
    <g clip-path="url(#pa5a1851e84)">
     <use style="stroke:#000000;stroke-width:1.5;" x="367.678745" xlink:href="#m576341f481" y="451.72473"/>
    </g>
   </g>
   <g id="PathCollection_66">
    <g clip-path="url(#pa5a1851e84)">
     <use style="stroke:#000000;stroke-width:1.5;" x="279.899012" xlink:href="#m576341f481" y="462.418544"/>
    </g>
   </g>
   <g id="PathCollection_67">
    <g clip-path="url(#pa5a1851e84)">
     <use style="stroke:#000000;stroke-width:1.5;" x="606.649631" xlink:href="#m576341f481" y="88.909749"/>
    </g>
   </g>
   <g id="PathCollection_68">
    <g clip-path="url(#pa5a1851e84)">
     <use style="stroke:#000000;stroke-width:1.5;" x="548.841916" xlink:href="#m576341f481" y="88.900651"/>
    </g>
   </g>
   <g id="PathCollection_69">
    <g clip-path="url(#pa5a1851e84)">
     <use style="stroke:#000000;stroke-width:1.5;" x="343.41442" xlink:href="#m576341f481" y="464.11988"/>
    </g>
   </g>
   <g id="PathCollection_70">
    <g clip-path="url(#pa5a1851e84)">
     <use style="stroke:#000000;stroke-width:1.5;" x="362.615141" xlink:href="#m576341f481" y="458.936935"/>
    </g>
   </g>
   <g id="PathCollection_71">
    <g clip-path="url(#pa5a1851e84)">
     <use style="stroke:#000000;stroke-width:1.5;" x="256.887789" xlink:href="#m576341f481" y="445.545478"/>
    </g>
   </g>
   <g id="PathCollection_72">
    <g clip-path="url(#pa5a1851e84)">
     <use style="stroke:#000000;stroke-width:1.5;" x="334.951655" xlink:href="#m576341f481" y="462.992972"/>
    </g>
   </g>
   <g id="PathCollection_73">
    <g clip-path="url(#pa5a1851e84)">
     <use style="stroke:#000000;stroke-width:1.5;" x="331.807848" xlink:href="#m576341f481" y="462.130246"/>
    </g>
   </g>
   <g id="PathCollection_74">
    <g clip-path="url(#pa5a1851e84)">
     <use style="stroke:#000000;stroke-width:1.5;" x="472.399872" xlink:href="#m576341f481" y="88.920051"/>
    </g>
   </g>
   <g id="PathCollection_75">
    <g clip-path="url(#pa5a1851e84)">
     <use style="stroke:#000000;stroke-width:1.5;" x="411.296636" xlink:href="#m576341f481" y="88.935928"/>
    </g>
   </g>
   <g id="PathCollection_76">
    <g clip-path="url(#pa5a1851e84)">
     <use style="stroke:#000000;stroke-width:1.5;" x="306.544165" xlink:href="#m576341f481" y="454.06307"/>
    </g>
   </g>
   <g id="PathCollection_77">
    <g clip-path="url(#pa5a1851e84)">
     <use style="stroke:#000000;stroke-width:1.5;" x="346.5422" xlink:href="#m576341f481" y="455.948471"/>
    </g>
   </g>
   <g id="PathCollection_78">
    <g clip-path="url(#pa5a1851e84)">
     <use style="stroke:#000000;stroke-width:1.5;" x="262.218094" xlink:href="#m576341f481" y="460.754172"/>
    </g>
   </g>
   <g id="PathCollection_79">
    <g clip-path="url(#pa5a1851e84)">
     <use style="stroke:#000000;stroke-width:1.5;" x="164.379444" xlink:href="#m576341f481" y="456.536928"/>
    </g>
   </g>
   <g id="PathCollection_80">
    <g clip-path="url(#pa5a1851e84)">
     <use style="stroke:#000000;stroke-width:1.5;" x="374.69551" xlink:href="#m576341f481" y="460.343537"/>
    </g>
   </g>
   <g id="PathCollection_81">
    <g clip-path="url(#pa5a1851e84)">
     <use style="stroke:#000000;stroke-width:1.5;" x="240.294385" xlink:href="#m576341f481" y="456.315521"/>
    </g>
   </g>
   <g id="PathCollection_82">
    <g clip-path="url(#pa5a1851e84)">
     <use style="stroke:#000000;stroke-width:1.5;" x="443.070571" xlink:href="#m576341f481" y="88.933916"/>
    </g>
   </g>
   <g id="PathCollection_83">
    <g clip-path="url(#pa5a1851e84)">
     <use style="stroke:#000000;stroke-width:1.5;" x="395.243341" xlink:href="#m576341f481" y="454.591249"/>
    </g>
   </g>
   <g id="PathCollection_84">
    <g clip-path="url(#pa5a1851e84)">
     <use style="stroke:#000000;stroke-width:1.5;" x="260.923098" xlink:href="#m576341f481" y="447.377505"/>
    </g>
   </g>
   <g id="PathCollection_85">
    <g clip-path="url(#pa5a1851e84)">
     <use style="stroke:#000000;stroke-width:1.5;" x="380.666567" xlink:href="#m576341f481" y="460.835437"/>
    </g>
   </g>
   <g id="PathCollection_86">
    <g clip-path="url(#pa5a1851e84)">
     <use style="stroke:#000000;stroke-width:1.5;" x="496.633455" xlink:href="#m576341f481" y="88.913596"/>
    </g>
   </g>
   <g id="PathCollection_87">
    <g clip-path="url(#pa5a1851e84)">
     <use style="stroke:#000000;stroke-width:1.5;" x="378.827389" xlink:href="#m576341f481" y="453.553291"/>
    </g>
   </g>
   <g id="PathCollection_88">
    <g clip-path="url(#pa5a1851e84)">
     <use style="stroke:#000000;stroke-width:1.5;" x="239.698142" xlink:href="#m576341f481" y="458.865427"/>
    </g>
   </g>
   <g id="PathCollection_89">
    <g clip-path="url(#pa5a1851e84)">
     <use style="stroke:#000000;stroke-width:1.5;" x="521.666137" xlink:href="#m576341f481" y="88.887273"/>
    </g>
   </g>
   <g id="PathCollection_90">
    <g clip-path="url(#pa5a1851e84)">
     <use style="stroke:#000000;stroke-width:1.5;" x="483.518995" xlink:href="#m576341f481" y="88.910637"/>
    </g>
   </g>
   <g id="PathCollection_91">
    <g clip-path="url(#pa5a1851e84)">
     <use style="stroke:#000000;stroke-width:1.5;" x="424.12449" xlink:href="#m576341f481" y="88.928053"/>
    </g>
   </g>
   <g id="PathCollection_92">
    <g clip-path="url(#pa5a1851e84)">
     <use style="stroke:#000000;stroke-width:1.5;" x="378.445935" xlink:href="#m576341f481" y="453.77132"/>
    </g>
   </g>
   <g id="PathCollection_93">
    <g clip-path="url(#pa5a1851e84)">
     <use style="stroke:#000000;stroke-width:1.5;" x="387.641201" xlink:href="#m576341f481" y="471.313888"/>
    </g>
   </g>
   <g id="PathCollection_94">
    <g clip-path="url(#pa5a1851e84)">
     <use style="stroke:#000000;stroke-width:1.5;" x="237.68515" xlink:href="#m576341f481" y="470.542052"/>
    </g>
   </g>
   <g id="PathCollection_95">
    <g clip-path="url(#pa5a1851e84)">
     <use style="stroke:#000000;stroke-width:1.5;" x="368.895035" xlink:href="#m576341f481" y="455.855965"/>
    </g>
   </g>
   <g id="PathCollection_96">
    <g clip-path="url(#pa5a1851e84)">
     <use style="stroke:#000000;stroke-width:1.5;" x="350.608583" xlink:href="#m576341f481" y="463.695773"/>
    </g>
   </g>
   <g id="PathCollection_97">
    <g clip-path="url(#pa5a1851e84)">
     <use style="stroke:#000000;stroke-width:1.5;" x="547.39335" xlink:href="#m576341f481" y="88.901892"/>
    </g>
   </g>
   <g id="PathCollection_98">
    <g clip-path="url(#pa5a1851e84)">
     <use style="stroke:#000000;stroke-width:1.5;" x="421.039768" xlink:href="#m576341f481" y="88.906648"/>
    </g>
   </g>
   <g id="PathCollection_99">
    <g clip-path="url(#pa5a1851e84)">
     <use style="stroke:#000000;stroke-width:1.5;" x="222.038154" xlink:href="#m576341f481" y="451.168618"/>
    </g>
   </g>
   <g id="PathCollection_100">
    <g clip-path="url(#pa5a1851e84)">
     <use style="stroke:#000000;stroke-width:1.5;" x="476.250211" xlink:href="#m576341f481" y="88.907234"/>
    </g>
   </g>
   <g id="matplotlib.axis_1">
    <g id="xtick_1">
     <g id="line2d_1">
      <defs>
       <path d="M 0 0 
L 0 9 
" id="me84ebb760e" style="stroke:#000000;stroke-width:1.875;"/>
      </defs>
      <g>
       <use style="stroke:#000000;stroke-width:1.875;" x="99.553266" xlink:href="#me84ebb760e" y="504"/>
      </g>
     </g>
     <g id="text_1">
      <!-- 2.8 -->
      <g transform="translate(86.433188 529.037422)scale(0.165 -0.165)">
       <defs>
        <path d="M 19.1875 8.296875 
L 53.609375 8.296875 
L 53.609375 0 
L 7.328125 0 
L 7.328125 8.296875 
Q 12.9375 14.109375 22.625 23.890625 
Q 32.328125 33.6875 34.8125 36.53125 
Q 39.546875 41.84375 41.421875 45.53125 
Q 43.3125 49.21875 43.3125 52.78125 
Q 43.3125 58.59375 39.234375 62.25 
Q 35.15625 65.921875 28.609375 65.921875 
Q 23.96875 65.921875 18.8125 64.3125 
Q 13.671875 62.703125 7.8125 59.421875 
L 7.8125 69.390625 
Q 13.765625 71.78125 18.9375 73 
Q 24.125 74.21875 28.421875 74.21875 
Q 39.75 74.21875 46.484375 68.546875 
Q 53.21875 62.890625 53.21875 53.421875 
Q 53.21875 48.921875 51.53125 44.890625 
Q 49.859375 40.875 45.40625 35.40625 
Q 44.1875 33.984375 37.640625 27.21875 
Q 31.109375 20.453125 19.1875 8.296875 
z
" id="DejaVuSans-50"/>
        <path d="M 10.6875 12.40625 
L 21 12.40625 
L 21 0 
L 10.6875 0 
z
" id="DejaVuSans-46"/>
        <path d="M 31.78125 34.625 
Q 24.75 34.625 20.71875 30.859375 
Q 16.703125 27.09375 16.703125 20.515625 
Q 16.703125 13.921875 20.71875 10.15625 
Q 24.75 6.390625 31.78125 6.390625 
Q 38.8125 6.390625 42.859375 10.171875 
Q 46.921875 13.96875 46.921875 20.515625 
Q 46.921875 27.09375 42.890625 30.859375 
Q 38.875 34.625 31.78125 34.625 
z
M 21.921875 38.8125 
Q 15.578125 40.375 12.03125 44.71875 
Q 8.5 49.078125 8.5 55.328125 
Q 8.5 64.0625 14.71875 69.140625 
Q 20.953125 74.21875 31.78125 74.21875 
Q 42.671875 74.21875 48.875 69.140625 
Q 55.078125 64.0625 55.078125 55.328125 
Q 55.078125 49.078125 51.53125 44.71875 
Q 48 40.375 41.703125 38.8125 
Q 48.828125 37.15625 52.796875 32.3125 
Q 56.78125 27.484375 56.78125 20.515625 
Q 56.78125 9.90625 50.3125 4.234375 
Q 43.84375 -1.421875 31.78125 -1.421875 
Q 19.734375 -1.421875 13.25 4.234375 
Q 6.78125 9.90625 6.78125 20.515625 
Q 6.78125 27.484375 10.78125 32.3125 
Q 14.796875 37.15625 21.921875 38.8125 
z
M 18.3125 54.390625 
Q 18.3125 48.734375 21.84375 45.5625 
Q 25.390625 42.390625 31.78125 42.390625 
Q 38.140625 42.390625 41.71875 45.5625 
Q 45.3125 48.734375 45.3125 54.390625 
Q 45.3125 60.0625 41.71875 63.234375 
Q 38.140625 66.40625 31.78125 66.40625 
Q 25.390625 66.40625 21.84375 63.234375 
Q 18.3125 60.0625 18.3125 54.390625 
z
" id="DejaVuSans-56"/>
       </defs>
       <use xlink:href="#DejaVuSans-50"/>
       <use x="63.623047" xlink:href="#DejaVuSans-46"/>
       <use x="95.410156" xlink:href="#DejaVuSans-56"/>
      </g>
     </g>
    </g>
    <g id="xtick_2">
     <g id="line2d_2">
      <g>
       <use style="stroke:#000000;stroke-width:1.875;" x="164.165252" xlink:href="#me84ebb760e" y="504"/>
      </g>
     </g>
     <g id="text_2">
      <!-- 3.0 -->
      <g transform="translate(151.045174 529.037422)scale(0.165 -0.165)">
       <defs>
        <path d="M 40.578125 39.3125 
Q 47.65625 37.796875 51.625 33 
Q 55.609375 28.21875 55.609375 21.1875 
Q 55.609375 10.40625 48.1875 4.484375 
Q 40.765625 -1.421875 27.09375 -1.421875 
Q 22.515625 -1.421875 17.65625 -0.515625 
Q 12.796875 0.390625 7.625 2.203125 
L 7.625 11.71875 
Q 11.71875 9.328125 16.59375 8.109375 
Q 21.484375 6.890625 26.8125 6.890625 
Q 36.078125 6.890625 40.9375 10.546875 
Q 45.796875 14.203125 45.796875 21.1875 
Q 45.796875 27.640625 41.28125 31.265625 
Q 36.765625 34.90625 28.71875 34.90625 
L 20.21875 34.90625 
L 20.21875 43.015625 
L 29.109375 43.015625 
Q 36.375 43.015625 40.234375 45.921875 
Q 44.09375 48.828125 44.09375 54.296875 
Q 44.09375 59.90625 40.109375 62.90625 
Q 36.140625 65.921875 28.71875 65.921875 
Q 24.65625 65.921875 20.015625 65.03125 
Q 15.375 64.15625 9.8125 62.3125 
L 9.8125 71.09375 
Q 15.4375 72.65625 20.34375 73.4375 
Q 25.25 74.21875 29.59375 74.21875 
Q 40.828125 74.21875 47.359375 69.109375 
Q 53.90625 64.015625 53.90625 55.328125 
Q 53.90625 49.265625 50.4375 45.09375 
Q 46.96875 40.921875 40.578125 39.3125 
z
" id="DejaVuSans-51"/>
        <path d="M 31.78125 66.40625 
Q 24.171875 66.40625 20.328125 58.90625 
Q 16.5 51.421875 16.5 36.375 
Q 16.5 21.390625 20.328125 13.890625 
Q 24.171875 6.390625 31.78125 6.390625 
Q 39.453125 6.390625 43.28125 13.890625 
Q 47.125 21.390625 47.125 36.375 
Q 47.125 51.421875 43.28125 58.90625 
Q 39.453125 66.40625 31.78125 66.40625 
z
M 31.78125 74.21875 
Q 44.046875 74.21875 50.515625 64.515625 
Q 56.984375 54.828125 56.984375 36.375 
Q 56.984375 17.96875 50.515625 8.265625 
Q 44.046875 -1.421875 31.78125 -1.421875 
Q 19.53125 -1.421875 13.0625 8.265625 
Q 6.59375 17.96875 6.59375 36.375 
Q 6.59375 54.828125 13.0625 64.515625 
Q 19.53125 74.21875 31.78125 74.21875 
z
" id="DejaVuSans-48"/>
       </defs>
       <use xlink:href="#DejaVuSans-51"/>
       <use x="63.623047" xlink:href="#DejaVuSans-46"/>
       <use x="95.410156" xlink:href="#DejaVuSans-48"/>
      </g>
     </g>
    </g>
    <g id="xtick_3">
     <g id="line2d_3">
      <g>
       <use style="stroke:#000000;stroke-width:1.875;" x="228.777238" xlink:href="#me84ebb760e" y="504"/>
      </g>
     </g>
     <g id="text_3">
      <!-- 3.2 -->
      <g transform="translate(215.65716 529.037422)scale(0.165 -0.165)">
       <use xlink:href="#DejaVuSans-51"/>
       <use x="63.623047" xlink:href="#DejaVuSans-46"/>
       <use x="95.410156" xlink:href="#DejaVuSans-50"/>
      </g>
     </g>
    </g>
    <g id="xtick_4">
     <g id="line2d_4">
      <g>
       <use style="stroke:#000000;stroke-width:1.875;" x="293.389223" xlink:href="#me84ebb760e" y="504"/>
      </g>
     </g>
     <g id="text_4">
      <!-- 3.4 -->
      <g transform="translate(280.269145 529.037422)scale(0.165 -0.165)">
       <defs>
        <path d="M 37.796875 64.3125 
L 12.890625 25.390625 
L 37.796875 25.390625 
z
M 35.203125 72.90625 
L 47.609375 72.90625 
L 47.609375 25.390625 
L 58.015625 25.390625 
L 58.015625 17.1875 
L 47.609375 17.1875 
L 47.609375 0 
L 37.796875 0 
L 37.796875 17.1875 
L 4.890625 17.1875 
L 4.890625 26.703125 
z
" id="DejaVuSans-52"/>
       </defs>
       <use xlink:href="#DejaVuSans-51"/>
       <use x="63.623047" xlink:href="#DejaVuSans-46"/>
       <use x="95.410156" xlink:href="#DejaVuSans-52"/>
      </g>
     </g>
    </g>
    <g id="xtick_5">
     <g id="line2d_5">
      <g>
       <use style="stroke:#000000;stroke-width:1.875;" x="358.001209" xlink:href="#me84ebb760e" y="504"/>
      </g>
     </g>
     <g id="text_5">
      <!-- 3.6 -->
      <g transform="translate(344.881131 529.037422)scale(0.165 -0.165)">
       <defs>
        <path d="M 33.015625 40.375 
Q 26.375 40.375 22.484375 35.828125 
Q 18.609375 31.296875 18.609375 23.390625 
Q 18.609375 15.53125 22.484375 10.953125 
Q 26.375 6.390625 33.015625 6.390625 
Q 39.65625 6.390625 43.53125 10.953125 
Q 47.40625 15.53125 47.40625 23.390625 
Q 47.40625 31.296875 43.53125 35.828125 
Q 39.65625 40.375 33.015625 40.375 
z
M 52.59375 71.296875 
L 52.59375 62.3125 
Q 48.875 64.0625 45.09375 64.984375 
Q 41.3125 65.921875 37.59375 65.921875 
Q 27.828125 65.921875 22.671875 59.328125 
Q 17.53125 52.734375 16.796875 39.40625 
Q 19.671875 43.65625 24.015625 45.921875 
Q 28.375 48.1875 33.59375 48.1875 
Q 44.578125 48.1875 50.953125 41.515625 
Q 57.328125 34.859375 57.328125 23.390625 
Q 57.328125 12.15625 50.6875 5.359375 
Q 44.046875 -1.421875 33.015625 -1.421875 
Q 20.359375 -1.421875 13.671875 8.265625 
Q 6.984375 17.96875 6.984375 36.375 
Q 6.984375 53.65625 15.1875 63.9375 
Q 23.390625 74.21875 37.203125 74.21875 
Q 40.921875 74.21875 44.703125 73.484375 
Q 48.484375 72.75 52.59375 71.296875 
z
" id="DejaVuSans-54"/>
       </defs>
       <use xlink:href="#DejaVuSans-51"/>
       <use x="63.623047" xlink:href="#DejaVuSans-46"/>
       <use x="95.410156" xlink:href="#DejaVuSans-54"/>
      </g>
     </g>
    </g>
    <g id="xtick_6">
     <g id="line2d_6">
      <g>
       <use style="stroke:#000000;stroke-width:1.875;" x="422.613195" xlink:href="#me84ebb760e" y="504"/>
      </g>
     </g>
     <g id="text_6">
      <!-- 3.8 -->
      <g transform="translate(409.493117 529.037422)scale(0.165 -0.165)">
       <use xlink:href="#DejaVuSans-51"/>
       <use x="63.623047" xlink:href="#DejaVuSans-46"/>
       <use x="95.410156" xlink:href="#DejaVuSans-56"/>
      </g>
     </g>
    </g>
    <g id="xtick_7">
     <g id="line2d_7">
      <g>
       <use style="stroke:#000000;stroke-width:1.875;" x="487.225181" xlink:href="#me84ebb760e" y="504"/>
      </g>
     </g>
     <g id="text_7">
      <!-- 4.0 -->
      <g transform="translate(474.105102 529.037422)scale(0.165 -0.165)">
       <use xlink:href="#DejaVuSans-52"/>
       <use x="63.623047" xlink:href="#DejaVuSans-46"/>
       <use x="95.410156" xlink:href="#DejaVuSans-48"/>
      </g>
     </g>
    </g>
    <g id="xtick_8">
     <g id="line2d_8">
      <g>
       <use style="stroke:#000000;stroke-width:1.875;" x="551.837166" xlink:href="#me84ebb760e" y="504"/>
      </g>
     </g>
     <g id="text_8">
      <!-- 4.2 -->
      <g transform="translate(538.717088 529.037422)scale(0.165 -0.165)">
       <use xlink:href="#DejaVuSans-52"/>
       <use x="63.623047" xlink:href="#DejaVuSans-46"/>
       <use x="95.410156" xlink:href="#DejaVuSans-50"/>
      </g>
     </g>
    </g>
    <g id="xtick_9">
     <g id="line2d_9">
      <g>
       <use style="stroke:#000000;stroke-width:1.875;" x="616.449152" xlink:href="#me84ebb760e" y="504"/>
      </g>
     </g>
     <g id="text_9">
      <!-- 4.4 -->
      <g transform="translate(603.329074 529.037422)scale(0.165 -0.165)">
       <use xlink:href="#DejaVuSans-52"/>
       <use x="63.623047" xlink:href="#DejaVuSans-46"/>
       <use x="95.410156" xlink:href="#DejaVuSans-52"/>
      </g>
     </g>
    </g>
    <g id="text_10">
     <!-- concentration -->
     <g transform="translate(306.667969 550.146094)scale(0.18 -0.18)">
      <defs>
       <path d="M 48.78125 52.59375 
L 48.78125 44.1875 
Q 44.96875 46.296875 41.140625 47.34375 
Q 37.3125 48.390625 33.40625 48.390625 
Q 24.65625 48.390625 19.8125 42.84375 
Q 14.984375 37.3125 14.984375 27.296875 
Q 14.984375 17.28125 19.8125 11.734375 
Q 24.65625 6.203125 33.40625 6.203125 
Q 37.3125 6.203125 41.140625 7.25 
Q 44.96875 8.296875 48.78125 10.40625 
L 48.78125 2.09375 
Q 45.015625 0.34375 40.984375 -0.53125 
Q 36.96875 -1.421875 32.421875 -1.421875 
Q 20.0625 -1.421875 12.78125 6.34375 
Q 5.515625 14.109375 5.515625 27.296875 
Q 5.515625 40.671875 12.859375 48.328125 
Q 20.21875 56 33.015625 56 
Q 37.15625 56 41.109375 55.140625 
Q 45.0625 54.296875 48.78125 52.59375 
z
" id="DejaVuSans-99"/>
       <path d="M 30.609375 48.390625 
Q 23.390625 48.390625 19.1875 42.75 
Q 14.984375 37.109375 14.984375 27.296875 
Q 14.984375 17.484375 19.15625 11.84375 
Q 23.34375 6.203125 30.609375 6.203125 
Q 37.796875 6.203125 41.984375 11.859375 
Q 46.1875 17.53125 46.1875 27.296875 
Q 46.1875 37.015625 41.984375 42.703125 
Q 37.796875 48.390625 30.609375 48.390625 
z
M 30.609375 56 
Q 42.328125 56 49.015625 48.375 
Q 55.71875 40.765625 55.71875 27.296875 
Q 55.71875 13.875 49.015625 6.21875 
Q 42.328125 -1.421875 30.609375 -1.421875 
Q 18.84375 -1.421875 12.171875 6.21875 
Q 5.515625 13.875 5.515625 27.296875 
Q 5.515625 40.765625 12.171875 48.375 
Q 18.84375 56 30.609375 56 
z
" id="DejaVuSans-111"/>
       <path d="M 54.890625 33.015625 
L 54.890625 0 
L 45.90625 0 
L 45.90625 32.71875 
Q 45.90625 40.484375 42.875 44.328125 
Q 39.84375 48.1875 33.796875 48.1875 
Q 26.515625 48.1875 22.3125 43.546875 
Q 18.109375 38.921875 18.109375 30.90625 
L 18.109375 0 
L 9.078125 0 
L 9.078125 54.6875 
L 18.109375 54.6875 
L 18.109375 46.1875 
Q 21.34375 51.125 25.703125 53.5625 
Q 30.078125 56 35.796875 56 
Q 45.21875 56 50.046875 50.171875 
Q 54.890625 44.34375 54.890625 33.015625 
z
" id="DejaVuSans-110"/>
       <path d="M 56.203125 29.59375 
L 56.203125 25.203125 
L 14.890625 25.203125 
Q 15.484375 15.921875 20.484375 11.0625 
Q 25.484375 6.203125 34.421875 6.203125 
Q 39.59375 6.203125 44.453125 7.46875 
Q 49.3125 8.734375 54.109375 11.28125 
L 54.109375 2.78125 
Q 49.265625 0.734375 44.1875 -0.34375 
Q 39.109375 -1.421875 33.890625 -1.421875 
Q 20.796875 -1.421875 13.15625 6.1875 
Q 5.515625 13.8125 5.515625 26.8125 
Q 5.515625 40.234375 12.765625 48.109375 
Q 20.015625 56 32.328125 56 
Q 43.359375 56 49.78125 48.890625 
Q 56.203125 41.796875 56.203125 29.59375 
z
M 47.21875 32.234375 
Q 47.125 39.59375 43.09375 43.984375 
Q 39.0625 48.390625 32.421875 48.390625 
Q 24.90625 48.390625 20.390625 44.140625 
Q 15.875 39.890625 15.1875 32.171875 
z
" id="DejaVuSans-101"/>
       <path d="M 18.3125 70.21875 
L 18.3125 54.6875 
L 36.8125 54.6875 
L 36.8125 47.703125 
L 18.3125 47.703125 
L 18.3125 18.015625 
Q 18.3125 11.328125 20.140625 9.421875 
Q 21.96875 7.515625 27.59375 7.515625 
L 36.8125 7.515625 
L 36.8125 0 
L 27.59375 0 
Q 17.1875 0 13.234375 3.875 
Q 9.28125 7.765625 9.28125 18.015625 
L 9.28125 47.703125 
L 2.6875 47.703125 
L 2.6875 54.6875 
L 9.28125 54.6875 
L 9.28125 70.21875 
z
" id="DejaVuSans-116"/>
       <path d="M 41.109375 46.296875 
Q 39.59375 47.171875 37.8125 47.578125 
Q 36.03125 48 33.890625 48 
Q 26.265625 48 22.1875 43.046875 
Q 18.109375 38.09375 18.109375 28.8125 
L 18.109375 0 
L 9.078125 0 
L 9.078125 54.6875 
L 18.109375 54.6875 
L 18.109375 46.1875 
Q 20.953125 51.171875 25.484375 53.578125 
Q 30.03125 56 36.53125 56 
Q 37.453125 56 38.578125 55.875 
Q 39.703125 55.765625 41.0625 55.515625 
z
" id="DejaVuSans-114"/>
       <path d="M 34.28125 27.484375 
Q 23.390625 27.484375 19.1875 25 
Q 14.984375 22.515625 14.984375 16.5 
Q 14.984375 11.71875 18.140625 8.90625 
Q 21.296875 6.109375 26.703125 6.109375 
Q 34.1875 6.109375 38.703125 11.40625 
Q 43.21875 16.703125 43.21875 25.484375 
L 43.21875 27.484375 
z
M 52.203125 31.203125 
L 52.203125 0 
L 43.21875 0 
L 43.21875 8.296875 
Q 40.140625 3.328125 35.546875 0.953125 
Q 30.953125 -1.421875 24.3125 -1.421875 
Q 15.921875 -1.421875 10.953125 3.296875 
Q 6 8.015625 6 15.921875 
Q 6 25.140625 12.171875 29.828125 
Q 18.359375 34.515625 30.609375 34.515625 
L 43.21875 34.515625 
L 43.21875 35.40625 
Q 43.21875 41.609375 39.140625 45 
Q 35.0625 48.390625 27.6875 48.390625 
Q 23 48.390625 18.546875 47.265625 
Q 14.109375 46.140625 10.015625 43.890625 
L 10.015625 52.203125 
Q 14.9375 54.109375 19.578125 55.046875 
Q 24.21875 56 28.609375 56 
Q 40.484375 56 46.34375 49.84375 
Q 52.203125 43.703125 52.203125 31.203125 
z
" id="DejaVuSans-97"/>
       <path d="M 9.421875 54.6875 
L 18.40625 54.6875 
L 18.40625 0 
L 9.421875 0 
z
M 9.421875 75.984375 
L 18.40625 75.984375 
L 18.40625 64.59375 
L 9.421875 64.59375 
z
" id="DejaVuSans-105"/>
      </defs>
      <use xlink:href="#DejaVuSans-99"/>
      <use x="54.980469" xlink:href="#DejaVuSans-111"/>
      <use x="116.162109" xlink:href="#DejaVuSans-110"/>
      <use x="179.541016" xlink:href="#DejaVuSans-99"/>
      <use x="234.521484" xlink:href="#DejaVuSans-101"/>
      <use x="296.044922" xlink:href="#DejaVuSans-110"/>
      <use x="359.423828" xlink:href="#DejaVuSans-116"/>
      <use x="398.632812" xlink:href="#DejaVuSans-114"/>
      <use x="439.746094" xlink:href="#DejaVuSans-97"/>
      <use x="501.025391" xlink:href="#DejaVuSans-116"/>
      <use x="540.234375" xlink:href="#DejaVuSans-105"/>
      <use x="568.017578" xlink:href="#DejaVuSans-111"/>
      <use x="629.199219" xlink:href="#DejaVuSans-110"/>
     </g>
    </g>
   </g>
   <g id="matplotlib.axis_2">
    <g id="ytick_1">
     <g id="line2d_10">
      <defs>
       <path d="M 0 0 
L -9 0 
" id="m3f3405f1d9" style="stroke:#000000;stroke-width:1.875;"/>
      </defs>
      <g>
       <use style="stroke:#000000;stroke-width:1.875;" x="90" xlink:href="#m3f3405f1d9" y="458.862793"/>
      </g>
     </g>
     <g id="text_11">
      <!-- 0.5 -->
      <g transform="translate(51.259844 465.131504)scale(0.165 -0.165)">
       <defs>
        <path d="M 10.796875 72.90625 
L 49.515625 72.90625 
L 49.515625 64.59375 
L 19.828125 64.59375 
L 19.828125 46.734375 
Q 21.96875 47.46875 24.109375 47.828125 
Q 26.265625 48.1875 28.421875 48.1875 
Q 40.625 48.1875 47.75 41.5 
Q 54.890625 34.8125 54.890625 23.390625 
Q 54.890625 11.625 47.5625 5.09375 
Q 40.234375 -1.421875 26.90625 -1.421875 
Q 22.3125 -1.421875 17.546875 -0.640625 
Q 12.796875 0.140625 7.71875 1.703125 
L 7.71875 11.625 
Q 12.109375 9.234375 16.796875 8.0625 
Q 21.484375 6.890625 26.703125 6.890625 
Q 35.15625 6.890625 40.078125 11.328125 
Q 45.015625 15.765625 45.015625 23.390625 
Q 45.015625 31 40.078125 35.4375 
Q 35.15625 39.890625 26.703125 39.890625 
Q 22.75 39.890625 18.8125 39.015625 
Q 14.890625 38.140625 10.796875 36.28125 
z
" id="DejaVuSans-53"/>
       </defs>
       <use xlink:href="#DejaVuSans-48"/>
       <use x="63.623047" xlink:href="#DejaVuSans-46"/>
       <use x="95.410156" xlink:href="#DejaVuSans-53"/>
      </g>
     </g>
    </g>
    <g id="ytick_2">
     <g id="line2d_11">
      <g>
       <use style="stroke:#000000;stroke-width:1.875;" x="90" xlink:href="#m3f3405f1d9" y="381.884716"/>
      </g>
     </g>
     <g id="text_12">
      <!-- 0.6 -->
      <g transform="translate(51.259844 388.153427)scale(0.165 -0.165)">
       <use xlink:href="#DejaVuSans-48"/>
       <use x="63.623047" xlink:href="#DejaVuSans-46"/>
       <use x="95.410156" xlink:href="#DejaVuSans-54"/>
      </g>
     </g>
    </g>
    <g id="ytick_3">
     <g id="line2d_12">
      <g>
       <use style="stroke:#000000;stroke-width:1.875;" x="90" xlink:href="#m3f3405f1d9" y="304.906639"/>
      </g>
     </g>
     <g id="text_13">
      <!-- 0.7 -->
      <g transform="translate(51.259844 311.17535)scale(0.165 -0.165)">
       <defs>
        <path d="M 8.203125 72.90625 
L 55.078125 72.90625 
L 55.078125 68.703125 
L 28.609375 0 
L 18.3125 0 
L 43.21875 64.59375 
L 8.203125 64.59375 
z
" id="DejaVuSans-55"/>
       </defs>
       <use xlink:href="#DejaVuSans-48"/>
       <use x="63.623047" xlink:href="#DejaVuSans-46"/>
       <use x="95.410156" xlink:href="#DejaVuSans-55"/>
      </g>
     </g>
    </g>
    <g id="ytick_4">
     <g id="line2d_13">
      <g>
       <use style="stroke:#000000;stroke-width:1.875;" x="90" xlink:href="#m3f3405f1d9" y="227.928562"/>
      </g>
     </g>
     <g id="text_14">
      <!-- 0.8 -->
      <g transform="translate(51.259844 234.197273)scale(0.165 -0.165)">
       <use xlink:href="#DejaVuSans-48"/>
       <use x="63.623047" xlink:href="#DejaVuSans-46"/>
       <use x="95.410156" xlink:href="#DejaVuSans-56"/>
      </g>
     </g>
    </g>
    <g id="ytick_5">
     <g id="line2d_14">
      <g>
       <use style="stroke:#000000;stroke-width:1.875;" x="90" xlink:href="#m3f3405f1d9" y="150.950485"/>
      </g>
     </g>
     <g id="text_15">
      <!-- 0.9 -->
      <g transform="translate(51.259844 157.219196)scale(0.165 -0.165)">
       <defs>
        <path d="M 10.984375 1.515625 
L 10.984375 10.5 
Q 14.703125 8.734375 18.5 7.8125 
Q 22.3125 6.890625 25.984375 6.890625 
Q 35.75 6.890625 40.890625 13.453125 
Q 46.046875 20.015625 46.78125 33.40625 
Q 43.953125 29.203125 39.59375 26.953125 
Q 35.25 24.703125 29.984375 24.703125 
Q 19.046875 24.703125 12.671875 31.3125 
Q 6.296875 37.9375 6.296875 49.421875 
Q 6.296875 60.640625 12.9375 67.421875 
Q 19.578125 74.21875 30.609375 74.21875 
Q 43.265625 74.21875 49.921875 64.515625 
Q 56.59375 54.828125 56.59375 36.375 
Q 56.59375 19.140625 48.40625 8.859375 
Q 40.234375 -1.421875 26.421875 -1.421875 
Q 22.703125 -1.421875 18.890625 -0.6875 
Q 15.09375 0.046875 10.984375 1.515625 
z
M 30.609375 32.421875 
Q 37.25 32.421875 41.125 36.953125 
Q 45.015625 41.5 45.015625 49.421875 
Q 45.015625 57.28125 41.125 61.84375 
Q 37.25 66.40625 30.609375 66.40625 
Q 23.96875 66.40625 20.09375 61.84375 
Q 16.21875 57.28125 16.21875 49.421875 
Q 16.21875 41.5 20.09375 36.953125 
Q 23.96875 32.421875 30.609375 32.421875 
z
" id="DejaVuSans-57"/>
       </defs>
       <use xlink:href="#DejaVuSans-48"/>
       <use x="63.623047" xlink:href="#DejaVuSans-46"/>
       <use x="95.410156" xlink:href="#DejaVuSans-57"/>
      </g>
     </g>
    </g>
    <g id="ytick_6">
     <g id="line2d_15">
      <g>
       <use style="stroke:#000000;stroke-width:1.875;" x="90" xlink:href="#m3f3405f1d9" y="73.972408"/>
      </g>
     </g>
     <g id="text_16">
      <!-- 1.0 -->
      <g transform="translate(51.259844 80.241119)scale(0.165 -0.165)">
       <defs>
        <path d="M 12.40625 8.296875 
L 28.515625 8.296875 
L 28.515625 63.921875 
L 10.984375 60.40625 
L 10.984375 69.390625 
L 28.421875 72.90625 
L 38.28125 72.90625 
L 38.28125 8.296875 
L 54.390625 8.296875 
L 54.390625 0 
L 12.40625 0 
z
" id="DejaVuSans-49"/>
       </defs>
       <use xlink:href="#DejaVuSans-49"/>
       <use x="63.623047" xlink:href="#DejaVuSans-46"/>
       <use x="95.410156" xlink:href="#DejaVuSans-48"/>
      </g>
     </g>
    </g>
    <g id="text_17">
     <!-- test accuracy -->
     <g transform="translate(43.516406 347.31)rotate(-90)scale(0.18 -0.18)">
      <defs>
       <path d="M 44.28125 53.078125 
L 44.28125 44.578125 
Q 40.484375 46.53125 36.375 47.5 
Q 32.28125 48.484375 27.875 48.484375 
Q 21.1875 48.484375 17.84375 46.4375 
Q 14.5 44.390625 14.5 40.28125 
Q 14.5 37.15625 16.890625 35.375 
Q 19.28125 33.59375 26.515625 31.984375 
L 29.59375 31.296875 
Q 39.15625 29.25 43.1875 25.515625 
Q 47.21875 21.78125 47.21875 15.09375 
Q 47.21875 7.46875 41.1875 3.015625 
Q 35.15625 -1.421875 24.609375 -1.421875 
Q 20.21875 -1.421875 15.453125 -0.5625 
Q 10.6875 0.296875 5.421875 2 
L 5.421875 11.28125 
Q 10.40625 8.6875 15.234375 7.390625 
Q 20.0625 6.109375 24.8125 6.109375 
Q 31.15625 6.109375 34.5625 8.28125 
Q 37.984375 10.453125 37.984375 14.40625 
Q 37.984375 18.0625 35.515625 20.015625 
Q 33.0625 21.96875 24.703125 23.78125 
L 21.578125 24.515625 
Q 13.234375 26.265625 9.515625 29.90625 
Q 5.8125 33.546875 5.8125 39.890625 
Q 5.8125 47.609375 11.28125 51.796875 
Q 16.75 56 26.8125 56 
Q 31.78125 56 36.171875 55.265625 
Q 40.578125 54.546875 44.28125 53.078125 
z
" id="DejaVuSans-115"/>
       <path id="DejaVuSans-32"/>
       <path d="M 8.5 21.578125 
L 8.5 54.6875 
L 17.484375 54.6875 
L 17.484375 21.921875 
Q 17.484375 14.15625 20.5 10.265625 
Q 23.53125 6.390625 29.59375 6.390625 
Q 36.859375 6.390625 41.078125 11.03125 
Q 45.3125 15.671875 45.3125 23.6875 
L 45.3125 54.6875 
L 54.296875 54.6875 
L 54.296875 0 
L 45.3125 0 
L 45.3125 8.40625 
Q 42.046875 3.421875 37.71875 1 
Q 33.40625 -1.421875 27.6875 -1.421875 
Q 18.265625 -1.421875 13.375 4.4375 
Q 8.5 10.296875 8.5 21.578125 
z
M 31.109375 56 
z
" id="DejaVuSans-117"/>
       <path d="M 32.171875 -5.078125 
Q 28.375 -14.84375 24.75 -17.8125 
Q 21.140625 -20.796875 15.09375 -20.796875 
L 7.90625 -20.796875 
L 7.90625 -13.28125 
L 13.1875 -13.28125 
Q 16.890625 -13.28125 18.9375 -11.515625 
Q 21 -9.765625 23.484375 -3.21875 
L 25.09375 0.875 
L 2.984375 54.6875 
L 12.5 54.6875 
L 29.59375 11.921875 
L 46.6875 54.6875 
L 56.203125 54.6875 
z
" id="DejaVuSans-121"/>
      </defs>
      <use xlink:href="#DejaVuSans-116"/>
      <use x="39.208984" xlink:href="#DejaVuSans-101"/>
      <use x="100.732422" xlink:href="#DejaVuSans-115"/>
      <use x="152.832031" xlink:href="#DejaVuSans-116"/>
      <use x="192.041016" xlink:href="#DejaVuSans-32"/>
      <use x="223.828125" xlink:href="#DejaVuSans-97"/>
      <use x="285.107422" xlink:href="#DejaVuSans-99"/>
      <use x="340.087891" xlink:href="#DejaVuSans-99"/>
      <use x="395.068359" xlink:href="#DejaVuSans-117"/>
      <use x="458.447266" xlink:href="#DejaVuSans-114"/>
      <use x="499.560547" xlink:href="#DejaVuSans-97"/>
      <use x="560.839844" xlink:href="#DejaVuSans-99"/>
      <use x="615.820312" xlink:href="#DejaVuSans-121"/>
     </g>
    </g>
   </g>
   <g id="patch_3">
    <path d="M 90 504 
L 90 69.12 
" style="fill:none;stroke:#000000;stroke-linecap:square;stroke-linejoin:miter;stroke-width:1.875;"/>
   </g>
   <g id="patch_4">
    <path d="M 648 504 
L 648 69.12 
" style="fill:none;stroke:#000000;stroke-linecap:square;stroke-linejoin:miter;stroke-width:1.875;"/>
   </g>
   <g id="patch_5">
    <path d="M 90 504 
L 648 504 
" style="fill:none;stroke:#000000;stroke-linecap:square;stroke-linejoin:miter;stroke-width:1.875;"/>
   </g>
   <g id="patch_6">
    <path d="M 90 69.12 
L 648 69.12 
" style="fill:none;stroke:#000000;stroke-linecap:square;stroke-linejoin:miter;stroke-width:1.875;"/>
   </g>
  </g>
 </g>
 <defs>
  <clipPath id="pa5a1851e84">
   <rect height="434.88" width="558" x="90" y="69.12"/>
  </clipPath>
 </defs>
</svg>
